G75*
%MOIN*%
%OFA0B0*%
%FSLAX25Y25*%
%IPPOS*%
%LPD*%
%AMOC8*
5,1,8,0,0,1.08239X$1,22.5*
%
%ADD10C,0.13398*%
%ADD11C,0.01000*%
%ADD12C,0.01981*%
%ADD13C,0.09855*%
%ADD14R,0.04737X0.04343*%
%ADD15R,0.04343X0.04737*%
%ADD16R,0.05918X0.06706*%
%ADD17R,0.05500X0.47000*%
%ADD18R,0.09461X0.03162*%
%ADD19R,0.07099X0.01981*%
%ADD20R,0.01981X0.07099*%
%ADD21R,0.24000X0.24000*%
%ADD22R,0.03162X0.05131*%
%ADD23R,0.18910X0.07887*%
%ADD24R,0.05131X0.04737*%
%ADD25R,0.02060X0.05524*%
%ADD26R,0.05209X0.05209*%
%ADD27C,0.05209*%
%ADD28R,0.03937X0.02362*%
%ADD29R,0.02965X0.05524*%
%ADD30R,0.03162X0.09461*%
%ADD31R,0.04737X0.05131*%
%ADD32OC8,0.09300*%
%ADD33C,0.04756*%
%ADD34R,0.04756X0.04756*%
%ADD35R,0.06312X0.06312*%
%ADD36C,0.06312*%
%ADD37R,0.04000X0.07000*%
%ADD38C,0.03969*%
%ADD39R,0.05761X0.05761*%
%ADD40C,0.05761*%
%ADD41R,0.07400X0.07400*%
%ADD42C,0.07400*%
%ADD43R,0.04737X0.06312*%
%ADD44R,0.06706X0.05918*%
%ADD45C,0.05156*%
%ADD46C,0.05550*%
%ADD47C,0.03975*%
D10*
X0380642Y0212575D03*
D11*
X0180657Y0326327D02*
X0180657Y0341327D01*
X0157657Y0341327D01*
X0157657Y0326327D01*
X0180657Y0326327D01*
D12*
X0357657Y0337827D03*
X0357657Y0339827D03*
X0357657Y0341827D03*
X0362657Y0341827D03*
X0362657Y0339827D03*
X0362657Y0337827D03*
X0362657Y0210827D03*
X0362657Y0208827D03*
X0362657Y0206827D03*
X0357157Y0206827D03*
X0357157Y0208827D03*
X0357157Y0210827D03*
X0393157Y0161327D03*
X0395157Y0161327D03*
X0397157Y0161327D03*
X0397157Y0156327D03*
X0395157Y0156327D03*
X0393157Y0156327D03*
D13*
X0389102Y0119732D03*
X0389102Y0107528D03*
X0307213Y0107528D03*
X0307213Y0119732D03*
D14*
X0234657Y0124783D03*
X0234657Y0131870D03*
X0107846Y0184583D03*
X0107846Y0191669D03*
X0107846Y0212220D03*
X0107846Y0219307D03*
X0278657Y0327283D03*
X0278657Y0334370D03*
X0302157Y0328370D03*
X0302157Y0321283D03*
D15*
X0327614Y0318327D03*
X0334701Y0318327D03*
X0269461Y0305454D03*
X0262374Y0305454D03*
X0262374Y0209871D03*
X0269461Y0209871D03*
X0053083Y0213402D03*
X0045996Y0213402D03*
X0045917Y0192732D03*
X0053004Y0192732D03*
D16*
X0302917Y0259827D03*
X0310398Y0259827D03*
X0323917Y0259827D03*
X0331398Y0259827D03*
X0329398Y0237827D03*
X0321917Y0237827D03*
X0321917Y0225827D03*
X0329398Y0225827D03*
D17*
X0099407Y0201984D03*
X0069907Y0201984D03*
X0069907Y0257102D03*
X0099407Y0257102D03*
X0099407Y0312220D03*
X0069907Y0312220D03*
D18*
X0247921Y0320827D03*
X0247921Y0325827D03*
X0247921Y0330827D03*
X0247921Y0335827D03*
X0268394Y0335827D03*
X0268394Y0330827D03*
X0268394Y0325827D03*
X0268394Y0320827D03*
D19*
X0222335Y0291551D03*
X0222335Y0289583D03*
X0222335Y0287614D03*
X0222335Y0285646D03*
X0222335Y0283677D03*
X0222335Y0281709D03*
X0222335Y0279740D03*
X0222335Y0277772D03*
X0222335Y0275803D03*
X0222335Y0273835D03*
X0222335Y0271866D03*
X0222335Y0269898D03*
X0222335Y0267929D03*
X0222335Y0265961D03*
X0222335Y0263992D03*
X0222335Y0262024D03*
X0222335Y0260055D03*
X0222335Y0258087D03*
X0222335Y0256118D03*
X0222335Y0254150D03*
X0222335Y0252181D03*
X0222335Y0250213D03*
X0222335Y0248244D03*
X0222335Y0246276D03*
X0222335Y0244307D03*
X0222335Y0242339D03*
X0222335Y0240370D03*
X0222335Y0238402D03*
X0222335Y0236433D03*
X0222335Y0234465D03*
X0222335Y0232496D03*
X0222335Y0230528D03*
X0222335Y0228559D03*
X0222335Y0226591D03*
X0222335Y0224622D03*
X0222335Y0222654D03*
X0136902Y0222654D03*
X0136902Y0224622D03*
X0136902Y0226591D03*
X0136902Y0228559D03*
X0136902Y0230528D03*
X0136902Y0232496D03*
X0136902Y0234465D03*
X0136902Y0236433D03*
X0136902Y0238402D03*
X0136902Y0240370D03*
X0136902Y0242339D03*
X0136902Y0244307D03*
X0136902Y0246276D03*
X0136902Y0248244D03*
X0136902Y0250213D03*
X0136902Y0252181D03*
X0136902Y0254150D03*
X0136902Y0256118D03*
X0136902Y0258087D03*
X0136902Y0260055D03*
X0136902Y0262024D03*
X0136902Y0263992D03*
X0136902Y0265961D03*
X0136902Y0267929D03*
X0136902Y0269898D03*
X0136902Y0271866D03*
X0136902Y0273835D03*
X0136902Y0275803D03*
X0136902Y0277772D03*
X0136902Y0279740D03*
X0136902Y0281709D03*
X0136902Y0283677D03*
X0136902Y0285646D03*
X0136902Y0287614D03*
X0136902Y0289583D03*
X0136902Y0291551D03*
D20*
X0145169Y0299819D03*
X0147138Y0299819D03*
X0149106Y0299819D03*
X0151075Y0299819D03*
X0153043Y0299819D03*
X0155012Y0299819D03*
X0156980Y0299819D03*
X0158949Y0299819D03*
X0160917Y0299819D03*
X0162886Y0299819D03*
X0164854Y0299819D03*
X0166823Y0299819D03*
X0168791Y0299819D03*
X0170760Y0299819D03*
X0172728Y0299819D03*
X0174697Y0299819D03*
X0176665Y0299819D03*
X0178634Y0299819D03*
X0180602Y0299819D03*
X0182571Y0299819D03*
X0184539Y0299819D03*
X0186508Y0299819D03*
X0188476Y0299819D03*
X0190445Y0299819D03*
X0192413Y0299819D03*
X0194382Y0299819D03*
X0196350Y0299819D03*
X0198319Y0299819D03*
X0200287Y0299819D03*
X0202256Y0299819D03*
X0204224Y0299819D03*
X0206193Y0299819D03*
X0208161Y0299819D03*
X0210130Y0299819D03*
X0212098Y0299819D03*
X0214067Y0299819D03*
X0214067Y0214386D03*
X0212098Y0214386D03*
X0210130Y0214386D03*
X0208161Y0214386D03*
X0206193Y0214386D03*
X0204224Y0214386D03*
X0202256Y0214386D03*
X0200287Y0214386D03*
X0198319Y0214386D03*
X0196350Y0214386D03*
X0194382Y0214386D03*
X0192413Y0214386D03*
X0190445Y0214386D03*
X0188476Y0214386D03*
X0186508Y0214386D03*
X0184539Y0214386D03*
X0182571Y0214386D03*
X0180602Y0214386D03*
X0178634Y0214386D03*
X0176665Y0214386D03*
X0174697Y0214386D03*
X0172728Y0214386D03*
X0170760Y0214386D03*
X0168791Y0214386D03*
X0166823Y0214386D03*
X0164854Y0214386D03*
X0162886Y0214386D03*
X0160917Y0214386D03*
X0158949Y0214386D03*
X0156980Y0214386D03*
X0155012Y0214386D03*
X0153043Y0214386D03*
X0151075Y0214386D03*
X0149106Y0214386D03*
X0147138Y0214386D03*
X0145169Y0214386D03*
D21*
X0179618Y0257102D03*
D22*
X0313417Y0318528D03*
X0317157Y0318528D03*
X0320898Y0318528D03*
X0320898Y0331126D03*
X0317157Y0331126D03*
X0313417Y0331126D03*
D23*
X0317157Y0304543D03*
X0317157Y0269110D03*
D24*
X0307504Y0246827D03*
X0300811Y0246827D03*
X0301311Y0232827D03*
X0308004Y0232827D03*
X0309811Y0207827D03*
X0316504Y0207827D03*
X0293004Y0189327D03*
X0286311Y0189327D03*
X0241504Y0116827D03*
X0234811Y0116827D03*
X0205004Y0115327D03*
X0198311Y0115327D03*
X0053004Y0294327D03*
X0046311Y0294327D03*
X0226811Y0322327D03*
X0226811Y0328327D03*
X0233504Y0328327D03*
X0233504Y0322327D03*
X0327811Y0331327D03*
X0334504Y0331327D03*
D25*
X0288555Y0296472D03*
X0286587Y0296472D03*
X0284618Y0296472D03*
X0282650Y0296472D03*
X0280681Y0296472D03*
X0278713Y0296472D03*
X0276744Y0296472D03*
X0274776Y0296472D03*
X0272807Y0296472D03*
X0270839Y0296472D03*
X0268870Y0296472D03*
X0266902Y0296472D03*
X0264933Y0296472D03*
X0262965Y0296472D03*
X0260996Y0296472D03*
X0259028Y0296472D03*
X0257059Y0296472D03*
X0255091Y0296472D03*
X0253122Y0296472D03*
X0251154Y0296472D03*
X0249185Y0296472D03*
X0247217Y0296472D03*
X0245248Y0296472D03*
X0243280Y0296472D03*
X0243280Y0219701D03*
X0245248Y0219701D03*
X0247217Y0219701D03*
X0249185Y0219701D03*
X0251154Y0219701D03*
X0253122Y0219701D03*
X0255091Y0219701D03*
X0257059Y0219701D03*
X0259028Y0219701D03*
X0260996Y0219701D03*
X0262965Y0219701D03*
X0264933Y0219701D03*
X0266902Y0219701D03*
X0268870Y0219701D03*
X0270839Y0219701D03*
X0272807Y0219701D03*
X0274776Y0219701D03*
X0276744Y0219701D03*
X0278713Y0219701D03*
X0280681Y0219701D03*
X0282650Y0219701D03*
X0284618Y0219701D03*
X0286587Y0219701D03*
X0288555Y0219701D03*
D26*
X0385642Y0252181D03*
X0385642Y0327260D03*
X0081508Y0099307D03*
D27*
X0091508Y0099307D03*
X0091508Y0109307D03*
X0081508Y0109307D03*
X0101508Y0109307D03*
X0111508Y0109307D03*
X0121508Y0109307D03*
X0121508Y0099307D03*
X0111508Y0099307D03*
X0101508Y0099307D03*
X0131508Y0099307D03*
X0141508Y0099307D03*
X0141508Y0109307D03*
X0131508Y0109307D03*
X0151508Y0109307D03*
X0161508Y0109307D03*
X0171508Y0109307D03*
X0171508Y0099307D03*
X0161508Y0099307D03*
X0151508Y0099307D03*
X0181508Y0099307D03*
X0191508Y0099307D03*
X0191508Y0109307D03*
X0181508Y0109307D03*
X0201508Y0109307D03*
X0211508Y0109307D03*
X0221508Y0109307D03*
X0221508Y0099307D03*
X0211508Y0099307D03*
X0201508Y0099307D03*
X0231508Y0099307D03*
X0241508Y0099307D03*
X0251508Y0099307D03*
X0251508Y0109307D03*
X0241508Y0109307D03*
X0231508Y0109307D03*
X0261508Y0109307D03*
X0271508Y0109307D03*
X0271508Y0099307D03*
X0261508Y0099307D03*
X0375642Y0252181D03*
X0375642Y0327260D03*
D28*
X0052780Y0287244D03*
X0052780Y0284094D03*
X0052780Y0280945D03*
X0052780Y0277795D03*
X0046480Y0277795D03*
X0046480Y0280945D03*
X0046480Y0284094D03*
X0046480Y0287244D03*
X0046480Y0270244D03*
X0046480Y0267094D03*
X0046480Y0263945D03*
X0046480Y0260795D03*
X0052780Y0260795D03*
X0052780Y0263945D03*
X0052780Y0267094D03*
X0052780Y0270244D03*
X0052780Y0253244D03*
X0052780Y0250094D03*
X0052780Y0246945D03*
X0052780Y0243795D03*
X0046480Y0243795D03*
X0046480Y0246945D03*
X0046480Y0250094D03*
X0046480Y0253244D03*
X0046480Y0236244D03*
X0046480Y0233094D03*
X0046480Y0229945D03*
X0046480Y0226795D03*
X0052780Y0226795D03*
X0052780Y0229945D03*
X0052780Y0233094D03*
X0052780Y0236244D03*
D29*
X0053898Y0178445D03*
X0046417Y0178445D03*
X0046417Y0168209D03*
X0050157Y0168209D03*
X0053898Y0168209D03*
D30*
X0211657Y0138563D03*
X0216657Y0138563D03*
X0221657Y0138563D03*
X0226657Y0138563D03*
X0226657Y0118091D03*
X0221657Y0118091D03*
X0216657Y0118091D03*
X0211657Y0118091D03*
D31*
X0041657Y0095291D03*
X0041657Y0101984D03*
X0034657Y0099980D03*
X0034657Y0106673D03*
X0204157Y0123480D03*
X0204157Y0130173D03*
X0278657Y0197480D03*
X0278657Y0204173D03*
X0294657Y0216980D03*
X0294657Y0223673D03*
X0329657Y0198673D03*
X0329657Y0191980D03*
D32*
X0119657Y0336827D03*
X0049657Y0336827D03*
X0034657Y0336827D03*
X0019657Y0336827D03*
D33*
X0071606Y0169622D03*
X0066606Y0162122D03*
X0071606Y0154622D03*
X0076606Y0147122D03*
X0081606Y0154622D03*
X0076606Y0162122D03*
X0081606Y0169622D03*
X0086606Y0162122D03*
X0091606Y0154622D03*
X0086606Y0147122D03*
X0096606Y0147122D03*
X0101606Y0154622D03*
X0096606Y0162122D03*
X0091606Y0169622D03*
X0101606Y0169622D03*
X0106606Y0162122D03*
X0111606Y0154622D03*
X0106606Y0147122D03*
X0116606Y0147122D03*
X0121606Y0154622D03*
X0116606Y0162122D03*
X0111606Y0169622D03*
X0121606Y0169622D03*
X0126606Y0162122D03*
X0131606Y0154622D03*
X0126606Y0147122D03*
X0136606Y0147122D03*
X0141606Y0154622D03*
X0136606Y0162122D03*
X0131606Y0169622D03*
X0141606Y0169622D03*
X0146606Y0162122D03*
X0151606Y0154622D03*
X0146606Y0147122D03*
X0156606Y0147122D03*
X0161606Y0154622D03*
X0156606Y0162122D03*
X0151606Y0169622D03*
X0161606Y0169622D03*
X0166606Y0162122D03*
X0171606Y0154622D03*
X0166606Y0147122D03*
X0176606Y0147122D03*
X0181606Y0154622D03*
X0176606Y0162122D03*
X0171606Y0169622D03*
X0181606Y0169622D03*
X0186606Y0162122D03*
X0191606Y0154622D03*
X0186606Y0147122D03*
X0196606Y0147122D03*
X0201606Y0154622D03*
X0196606Y0162122D03*
X0191606Y0169622D03*
X0201606Y0169622D03*
X0206606Y0162122D03*
X0211606Y0154622D03*
X0206606Y0147122D03*
X0216606Y0147122D03*
X0221606Y0154622D03*
X0216606Y0162122D03*
X0211606Y0169622D03*
X0221606Y0169622D03*
X0226606Y0162122D03*
X0231606Y0154622D03*
X0226606Y0147122D03*
X0236606Y0147122D03*
X0241606Y0154622D03*
X0236606Y0162122D03*
X0231606Y0169622D03*
X0241606Y0169622D03*
X0246606Y0162122D03*
X0251606Y0154622D03*
X0246606Y0147122D03*
X0256606Y0147122D03*
X0261606Y0154622D03*
X0256606Y0162122D03*
X0251606Y0169622D03*
X0261606Y0169622D03*
D34*
X0066606Y0147122D03*
D35*
X0014500Y0271118D03*
D36*
X0014500Y0261118D03*
X0014500Y0251118D03*
X0014500Y0241118D03*
D37*
X0375642Y0177102D03*
X0380642Y0177102D03*
X0385642Y0177102D03*
D38*
X0289470Y0161669D02*
X0286302Y0161669D01*
X0286302Y0156748D02*
X0289470Y0156748D01*
X0289470Y0151827D02*
X0286302Y0151827D01*
X0286302Y0146906D02*
X0289470Y0146906D01*
X0289470Y0141984D02*
X0286302Y0141984D01*
X0370799Y0277014D02*
X0370799Y0280183D01*
X0375720Y0280183D02*
X0375720Y0277014D01*
X0380642Y0277014D02*
X0380642Y0280183D01*
X0385563Y0280183D02*
X0385563Y0277014D01*
X0390484Y0277014D02*
X0390484Y0280183D01*
D39*
X0334421Y0164740D03*
D40*
X0324579Y0164740D03*
X0314736Y0164740D03*
X0304894Y0164740D03*
D41*
X0334657Y0181327D03*
D42*
X0324657Y0181327D03*
X0314657Y0181327D03*
X0304657Y0181327D03*
D43*
X0294398Y0182157D03*
X0286917Y0182157D03*
X0290657Y0173496D03*
X0304657Y0191496D03*
X0300917Y0200157D03*
X0308398Y0200157D03*
X0294398Y0205157D03*
X0286917Y0205157D03*
X0290657Y0196496D03*
X0304657Y0215996D03*
X0300917Y0224657D03*
X0308398Y0224657D03*
X0329657Y0216157D03*
X0325917Y0207496D03*
X0333398Y0207496D03*
D44*
X0089657Y0125567D03*
X0089657Y0118087D03*
X0079657Y0118087D03*
X0079657Y0125567D03*
X0069657Y0125567D03*
X0069657Y0118087D03*
X0059657Y0118087D03*
X0059657Y0125567D03*
D45*
X0064445Y0132543D03*
X0084445Y0132543D03*
X0055157Y0163327D03*
X0050157Y0173327D03*
X0049157Y0183827D03*
X0044157Y0183827D03*
X0045157Y0203327D03*
X0093909Y0223362D03*
X0084657Y0251236D03*
X0084657Y0262220D03*
X0084657Y0306039D03*
X0084657Y0317614D03*
X0285657Y0195327D03*
X0301157Y0206327D03*
X0320157Y0200327D03*
X0315157Y0225327D03*
X0330157Y0231827D03*
X0336657Y0231827D03*
X0315157Y0237327D03*
X0348157Y0113827D03*
D46*
X0057657Y0110827D03*
X0051657Y0117327D03*
D47*
X0144157Y0253327D03*
M02*
