%
M48
M72
T01C0.01181
T02C0.01575
T03C0.01969
T04C0.02362
T05C0.02756
T06C0.03150
T07C0.03543
T08C0.03937
T09C0.05200
T10C0.12598
%
T01
X357157Y206827
X357157Y208827
X357157Y210827
X362657Y210827
X362657Y208827
X362657Y206827
X393157Y161327
X395157Y161327
X397157Y161327
X397157Y156327
X395157Y156327
X393157Y156327
X362657Y337827
X362657Y339827
X362657Y341827
X357657Y341827
X357657Y339827
X357657Y337827
T02
X284657Y333827
X284748Y327744
X269248Y310744
X262657Y310827
X277157Y302327
X241157Y320827
X240157Y325827
X226657Y334827
X202657Y305827
X202256Y292339
X198122Y292339
X210878Y294031
X216469Y289031
X216657Y284827
X214067Y281209
X216657Y267327
X213067Y263992
X189618Y267102
X169618Y267102
X147657Y260827
X144157Y258327
X147657Y255827
X144157Y253327
X144382Y247047
X149697Y232693
X145291Y226244
X145744Y220972
X151059Y222472
X155157Y220327
X168685Y220472
X172622Y221472
X176657Y220327
X196657Y220327
X204028Y221472
X208157Y220327
X214295Y221472
X221748Y219744
X218004Y214917
X194264Y205114
X210130Y240370
X189618Y247102
X169618Y247102
X144382Y275803
X144382Y283480
X146157Y287327
X143157Y290827
X146157Y293827
X150657Y293827
X155012Y292339
X159157Y293827
X166657Y293827
X176272Y292339
X182657Y293827
X180657Y306327
X131157Y287327
X127157Y287327
X94224Y301394
X75130Y301394
X64500Y302732
X61350Y305488
X64500Y308244
X61350Y311000
X64500Y313362
X61350Y315724
X64500Y318480
X61350Y321236
X64500Y324386
X61350Y327142
X64500Y330291
X75130Y323047
X94224Y323047
X106657Y332827
X64500Y296827
X61350Y299583
X61350Y293677
X39894Y294268
X36744Y287339
X39894Y284189
X36744Y281039
X39894Y277890
X36783Y270252
X39933Y267102
X36783Y263953
X39933Y260803
X36783Y253362
X39933Y250213
X36783Y247063
X39933Y243913
X36823Y236276
X39972Y233126
X36823Y229976
X39972Y226827
X61350Y223047
X64500Y220291
X60957Y217732
X64106Y214976
X60169Y210055
X60563Y205921
X64500Y203559
X60957Y201000
X64500Y198441
X60957Y195882
X64303Y193323
X59972Y189189
X64500Y186433
X61350Y183677
X64500Y180921
X74748Y191843
X86323Y180465
X64500Y208283
X75130Y246276
X94028Y246079
X94224Y267929
X75130Y267929
X119657Y240827
X126157Y239327
X127157Y235327
X110476Y209957
X124146Y191591
X233157Y241327
X262748Y204744
X269157Y204827
X233657Y291327
X238657Y292327
X238657Y298827
X234657Y301827
X368157Y193327
X393157Y193327
T03
X390484Y278598
X385563Y278598
X380642Y278598
X375720Y278598
X370799Y278598
X287886Y161669
X287886Y156748
X287886Y151827
X287886Y146906
X287886Y141984
T04
X314157Y246827
X314157Y252827
X320157Y252827
X320157Y246827
X331657Y266827
X302657Y266827
X308657Y313827
X308657Y323327
X328157Y323827
X334657Y324327
X334657Y312327
X328157Y312827
X258657Y328327
X129657Y329827
T05
X84657Y317614
X84657Y306039
X84657Y262220
X84657Y251236
X93909Y223362
X49157Y183827
X44157Y183827
X50157Y173327
X55157Y163327
X66606Y162122
X71606Y154622
X66606Y147122
X76606Y147122
X81606Y154622
X76606Y162122
X71606Y169622
X81606Y169622
X86606Y162122
X91606Y154622
X86606Y147122
X96606Y147122
X101606Y154622
X96606Y162122
X91606Y169622
X101606Y169622
X106606Y162122
X111606Y154622
X106606Y147122
X116606Y147122
X121606Y154622
X116606Y162122
X111606Y169622
X121606Y169622
X126606Y162122
X131606Y154622
X126606Y147122
X136606Y147122
X141606Y154622
X136606Y162122
X131606Y169622
X141606Y169622
X146606Y162122
X151606Y154622
X146606Y147122
X156606Y147122
X161606Y154622
X156606Y162122
X151606Y169622
X161606Y169622
X166606Y162122
X171606Y154622
X166606Y147122
X176606Y147122
X181606Y154622
X176606Y162122
X171606Y169622
X181606Y169622
X186606Y162122
X191606Y154622
X186606Y147122
X196606Y147122
X201606Y154622
X196606Y162122
X191606Y169622
X201606Y169622
X206606Y162122
X211606Y154622
X206606Y147122
X216606Y147122
X221606Y154622
X216606Y162122
X211606Y169622
X221606Y169622
X226606Y162122
X231606Y154622
X226606Y147122
X236606Y147122
X241606Y154622
X236606Y162122
X231606Y169622
X241606Y169622
X246606Y162122
X251606Y154622
X246606Y147122
X256606Y147122
X261606Y154622
X256606Y162122
X251606Y169622
X261606Y169622
X285657Y195327
X301157Y206327
X320157Y200327
X315157Y225327
X330157Y231827
X336657Y231827
X315157Y237327
X375642Y177102
X380642Y177102
X385642Y177102
X348157Y113827
X84445Y132543
X64445Y132543
X45157Y203327
T06
X81508Y99307
X91508Y99307
X91508Y109307
X81508Y109307
X101508Y109307
X111508Y109307
X121508Y109307
X121508Y99307
X111508Y99307
X101508Y99307
X131508Y99307
X141508Y99307
X141508Y109307
X131508Y109307
X151508Y109307
X161508Y109307
X171508Y109307
X171508Y99307
X161508Y99307
X151508Y99307
X181508Y99307
X191508Y99307
X191508Y109307
X181508Y109307
X201508Y109307
X211508Y109307
X221508Y109307
X221508Y99307
X211508Y99307
X201508Y99307
X231508Y99307
X241508Y99307
X251508Y99307
X251508Y109307
X241508Y109307
X231508Y109307
X261508Y109307
X271508Y109307
X271508Y99307
X261508Y99307
X375642Y252181
X385642Y252181
X385642Y327260
X375642Y327260
X57657Y110827
X51657Y117327
T07
X304894Y164740
X314736Y164740
X324579Y164740
X334421Y164740
T08
X334657Y181327
X324657Y181327
X314657Y181327
X304657Y181327
X307213Y119732
X307213Y107528
X389102Y107528
X389102Y119732
X14500Y241118
X14500Y251118
X14500Y261118
X14500Y271118
T09
X19657Y336827
X34657Y336827
X49657Y336827
X119657Y336827
T10
X179618Y257102
X380642Y212575
M30
