G75*
%MOIN*%
%OFA0B0*%
%FSLAX25Y25*%
%IPPOS*%
%LPD*%
%AMOC8*
5,1,8,0,0,1.08239X$1,22.5*
%
%ADD10C,0.00700*%
%ADD11C,0.01000*%
%ADD12C,0.00900*%
%ADD13C,0.01600*%
%ADD14C,0.00500*%
%ADD15C,0.00787*%
%ADD16C,0.00800*%
%ADD17C,0.02000*%
%ADD18C,0.01200*%
%ADD19C,0.00200*%
%ADD20C,0.00600*%
%ADD21R,0.01476X0.30512*%
D10*
X0047004Y0092488D02*
X0047004Y0094640D01*
X0047721Y0095357D01*
X0049156Y0095357D01*
X0049873Y0094640D01*
X0049873Y0092488D01*
X0049873Y0093922D02*
X0051307Y0095357D01*
X0051307Y0097092D02*
X0048438Y0099961D01*
X0047721Y0099961D01*
X0047004Y0099244D01*
X0047004Y0097809D01*
X0047721Y0097092D01*
X0051307Y0097092D02*
X0051307Y0099961D01*
X0050590Y0101696D02*
X0047721Y0104565D01*
X0050590Y0104565D01*
X0051307Y0103847D01*
X0051307Y0102413D01*
X0050590Y0101696D01*
X0047721Y0101696D01*
X0047004Y0102413D01*
X0047004Y0103847D01*
X0047721Y0104565D01*
X0044600Y0114677D02*
X0043166Y0114677D01*
X0043883Y0114677D02*
X0043883Y0118980D01*
X0043166Y0118980D01*
X0041431Y0116829D02*
X0041431Y0114677D01*
X0039279Y0114677D01*
X0038562Y0115394D01*
X0039279Y0116111D01*
X0041431Y0116111D01*
X0041431Y0116829D02*
X0040714Y0117546D01*
X0039279Y0117546D01*
X0036827Y0116829D02*
X0036827Y0114677D01*
X0036827Y0116829D02*
X0036110Y0117546D01*
X0033958Y0117546D01*
X0033958Y0114677D01*
X0032223Y0115394D02*
X0032223Y0116829D01*
X0031506Y0117546D01*
X0030071Y0117546D01*
X0029354Y0116829D01*
X0029354Y0115394D01*
X0030071Y0114677D01*
X0031506Y0114677D01*
X0032223Y0115394D01*
X0027719Y0114677D02*
X0026285Y0114677D01*
X0027002Y0114677D02*
X0027002Y0117546D01*
X0026285Y0117546D01*
X0027002Y0118980D02*
X0027002Y0119698D01*
X0024650Y0117546D02*
X0023215Y0117546D01*
X0023933Y0118263D02*
X0023933Y0115394D01*
X0024650Y0114677D01*
X0021481Y0115394D02*
X0020763Y0114677D01*
X0018611Y0114677D01*
X0018611Y0113242D02*
X0018611Y0117546D01*
X0020763Y0117546D01*
X0021481Y0116829D01*
X0021481Y0115394D01*
X0016877Y0115394D02*
X0016877Y0116829D01*
X0016159Y0117546D01*
X0014725Y0117546D01*
X0014007Y0116829D01*
X0014007Y0115394D01*
X0014725Y0114677D01*
X0016159Y0114677D01*
X0016877Y0115394D01*
X0015442Y0122177D02*
X0014007Y0122177D01*
X0014725Y0122177D02*
X0014725Y0126480D01*
X0015442Y0126480D02*
X0014007Y0126480D01*
X0021681Y0125763D02*
X0021681Y0122894D01*
X0022398Y0122177D01*
X0023833Y0122177D01*
X0024550Y0122894D01*
X0024550Y0125763D02*
X0023833Y0126480D01*
X0022398Y0126480D01*
X0021681Y0125763D01*
X0030889Y0125046D02*
X0030889Y0120742D01*
X0030889Y0122177D02*
X0033040Y0122177D01*
X0033758Y0122894D01*
X0033758Y0124329D01*
X0033040Y0125046D01*
X0030889Y0125046D01*
X0035492Y0125046D02*
X0035492Y0122894D01*
X0036210Y0122177D01*
X0038362Y0122177D01*
X0038362Y0125046D01*
X0040096Y0126480D02*
X0040814Y0126480D01*
X0040814Y0122177D01*
X0041531Y0122177D02*
X0040096Y0122177D01*
X0043166Y0122177D02*
X0044600Y0122177D01*
X0043883Y0122177D02*
X0043883Y0126480D01*
X0043166Y0126480D01*
X0046235Y0125046D02*
X0046235Y0122894D01*
X0046952Y0122177D01*
X0049104Y0122177D01*
X0049104Y0125046D01*
X0050839Y0125046D02*
X0050839Y0120742D01*
X0050839Y0122177D02*
X0052991Y0122177D01*
X0053708Y0122894D01*
X0053708Y0124329D01*
X0052991Y0125046D01*
X0050839Y0125046D01*
X0057004Y0131894D02*
X0057721Y0131177D01*
X0060590Y0131177D01*
X0061307Y0131894D01*
X0061307Y0133329D01*
X0060590Y0134046D01*
X0061307Y0135781D02*
X0061307Y0138650D01*
X0061307Y0137215D02*
X0057004Y0137215D01*
X0058438Y0135781D01*
X0057721Y0134046D02*
X0057004Y0133329D01*
X0057004Y0131894D01*
X0057721Y0140385D02*
X0057004Y0141102D01*
X0057004Y0142536D01*
X0057721Y0143254D01*
X0060590Y0140385D01*
X0061307Y0141102D01*
X0061307Y0142536D01*
X0060590Y0143254D01*
X0057721Y0143254D01*
X0057721Y0140385D02*
X0060590Y0140385D01*
X0067504Y0140385D02*
X0069656Y0140385D01*
X0068938Y0141819D01*
X0068938Y0142536D01*
X0069656Y0143254D01*
X0071090Y0143254D01*
X0071807Y0142536D01*
X0071807Y0141102D01*
X0071090Y0140385D01*
X0071807Y0138650D02*
X0071807Y0135781D01*
X0071807Y0137215D02*
X0067504Y0137215D01*
X0068938Y0135781D01*
X0068221Y0134046D02*
X0067504Y0133329D01*
X0067504Y0131894D01*
X0068221Y0131177D01*
X0071090Y0131177D01*
X0071807Y0131894D01*
X0071807Y0133329D01*
X0071090Y0134046D01*
X0076504Y0133329D02*
X0076504Y0131894D01*
X0077221Y0131177D01*
X0080090Y0131177D01*
X0080807Y0131894D01*
X0080807Y0133329D01*
X0080090Y0134046D01*
X0080807Y0135781D02*
X0080807Y0138650D01*
X0080807Y0137215D02*
X0076504Y0137215D01*
X0077938Y0135781D01*
X0077221Y0134046D02*
X0076504Y0133329D01*
X0078656Y0140385D02*
X0078656Y0142536D01*
X0079373Y0143254D01*
X0080090Y0143254D01*
X0080807Y0142536D01*
X0080807Y0141102D01*
X0080090Y0140385D01*
X0078656Y0140385D01*
X0077221Y0141819D01*
X0076504Y0143254D01*
X0067504Y0143254D02*
X0067504Y0140385D01*
X0087504Y0140385D02*
X0087504Y0143254D01*
X0088221Y0143254D01*
X0091090Y0140385D01*
X0091807Y0140385D01*
X0091807Y0138650D02*
X0091807Y0135781D01*
X0091807Y0137215D02*
X0087504Y0137215D01*
X0088938Y0135781D01*
X0088221Y0134046D02*
X0087504Y0133329D01*
X0087504Y0131894D01*
X0088221Y0131177D01*
X0091090Y0131177D01*
X0091807Y0131894D01*
X0091807Y0133329D01*
X0091090Y0134046D01*
X0051307Y0092488D02*
X0047004Y0092488D01*
X0029307Y0097677D02*
X0025004Y0097677D01*
X0025004Y0099829D01*
X0025721Y0100546D01*
X0027156Y0100546D01*
X0027873Y0099829D01*
X0027873Y0097677D01*
X0027873Y0099111D02*
X0029307Y0100546D01*
X0029307Y0102281D02*
X0026438Y0105150D01*
X0025721Y0105150D01*
X0025004Y0104433D01*
X0025004Y0102998D01*
X0025721Y0102281D01*
X0029307Y0102281D02*
X0029307Y0105150D01*
X0029307Y0106885D02*
X0029307Y0109754D01*
X0029307Y0108319D02*
X0025004Y0108319D01*
X0026438Y0106885D01*
X0029230Y0171177D02*
X0030665Y0171177D01*
X0029948Y0171177D02*
X0029948Y0175480D01*
X0030665Y0175480D02*
X0029230Y0175480D01*
X0032300Y0174763D02*
X0032300Y0171894D01*
X0033017Y0171177D01*
X0034451Y0171177D01*
X0035169Y0171894D01*
X0036904Y0171894D02*
X0037621Y0171177D01*
X0039055Y0171177D01*
X0039773Y0171894D01*
X0039773Y0174763D01*
X0039055Y0175480D01*
X0037621Y0175480D01*
X0036904Y0174763D01*
X0036904Y0174046D01*
X0037621Y0173329D01*
X0039773Y0173329D01*
X0035169Y0174763D02*
X0034451Y0175480D01*
X0033017Y0175480D01*
X0032300Y0174763D01*
X0030931Y0190563D02*
X0031648Y0191280D01*
X0030931Y0190563D02*
X0029496Y0190563D01*
X0028779Y0191280D01*
X0028779Y0194149D01*
X0029496Y0194866D01*
X0030931Y0194866D01*
X0031648Y0194149D01*
X0033383Y0194149D02*
X0034100Y0194866D01*
X0035535Y0194866D01*
X0036252Y0194149D01*
X0036252Y0193432D01*
X0035535Y0192714D01*
X0036252Y0191997D01*
X0036252Y0191280D01*
X0035535Y0190563D01*
X0034100Y0190563D01*
X0033383Y0191280D01*
X0034818Y0192714D02*
X0035535Y0192714D01*
X0037987Y0191280D02*
X0038704Y0190563D01*
X0040139Y0190563D01*
X0040856Y0191280D01*
X0040856Y0191997D01*
X0040139Y0192714D01*
X0039422Y0192714D01*
X0040139Y0192714D02*
X0040856Y0193432D01*
X0040856Y0194149D01*
X0040139Y0194866D01*
X0038704Y0194866D01*
X0037987Y0194149D01*
X0038164Y0211153D02*
X0041033Y0211153D01*
X0039599Y0211153D02*
X0039599Y0215457D01*
X0038164Y0214022D01*
X0036429Y0214022D02*
X0035712Y0213305D01*
X0036429Y0212588D01*
X0036429Y0211870D01*
X0035712Y0211153D01*
X0034277Y0211153D01*
X0033560Y0211870D01*
X0031825Y0211870D02*
X0031108Y0211153D01*
X0029674Y0211153D01*
X0028956Y0211870D01*
X0028956Y0214740D01*
X0029674Y0215457D01*
X0031108Y0215457D01*
X0031825Y0214740D01*
X0033560Y0214740D02*
X0034277Y0215457D01*
X0035712Y0215457D01*
X0036429Y0214740D01*
X0036429Y0214022D01*
X0035712Y0213305D02*
X0034995Y0213305D01*
X0020576Y0229519D02*
X0021293Y0230237D01*
X0021293Y0230954D01*
X0020576Y0231671D01*
X0018424Y0231671D01*
X0018424Y0230237D01*
X0019141Y0229519D01*
X0020576Y0229519D01*
X0018424Y0231671D02*
X0019859Y0233106D01*
X0021293Y0233823D01*
X0016689Y0233823D02*
X0016689Y0229519D01*
X0013820Y0233823D01*
X0013820Y0229519D01*
X0012085Y0230237D02*
X0011368Y0229519D01*
X0009933Y0229519D01*
X0009216Y0230237D01*
X0009216Y0233106D01*
X0009933Y0233823D01*
X0011368Y0233823D01*
X0012085Y0233106D01*
X0056283Y0231802D02*
X0060587Y0231802D01*
X0060587Y0233236D02*
X0060587Y0230367D01*
X0060587Y0228632D02*
X0059152Y0227198D01*
X0059152Y0227915D02*
X0059152Y0225763D01*
X0060587Y0225763D02*
X0056283Y0225763D01*
X0056283Y0227915D01*
X0057001Y0228632D01*
X0058435Y0228632D01*
X0059152Y0227915D01*
X0057718Y0230367D02*
X0056283Y0231802D01*
X0058435Y0234971D02*
X0058435Y0237840D01*
X0056283Y0237123D02*
X0058435Y0234971D01*
X0060587Y0237123D02*
X0056283Y0237123D01*
X0056283Y0242370D02*
X0056283Y0244522D01*
X0057001Y0245239D01*
X0058435Y0245239D01*
X0059152Y0244522D01*
X0059152Y0242370D01*
X0059152Y0243804D02*
X0060587Y0245239D01*
X0060587Y0246974D02*
X0060587Y0249843D01*
X0060587Y0248408D02*
X0056283Y0248408D01*
X0057718Y0246974D01*
X0057001Y0251578D02*
X0056283Y0252295D01*
X0056283Y0253729D01*
X0057001Y0254447D01*
X0057718Y0254447D01*
X0058435Y0253729D01*
X0059152Y0254447D01*
X0059870Y0254447D01*
X0060587Y0253729D01*
X0060587Y0252295D01*
X0059870Y0251578D01*
X0058435Y0253012D02*
X0058435Y0253729D01*
X0059152Y0259960D02*
X0059152Y0262112D01*
X0058435Y0262829D01*
X0057001Y0262829D01*
X0056283Y0262112D01*
X0056283Y0259960D01*
X0060587Y0259960D01*
X0059152Y0261395D02*
X0060587Y0262829D01*
X0060587Y0264564D02*
X0060587Y0267433D01*
X0060587Y0265999D02*
X0056283Y0265999D01*
X0057718Y0264564D01*
X0057001Y0269168D02*
X0056283Y0269885D01*
X0056283Y0271320D01*
X0057001Y0272037D01*
X0057718Y0272037D01*
X0060587Y0269168D01*
X0060587Y0272037D01*
X0060587Y0276960D02*
X0056283Y0276960D01*
X0056283Y0279112D01*
X0057001Y0279829D01*
X0058435Y0279829D01*
X0059152Y0279112D01*
X0059152Y0276960D01*
X0059152Y0278395D02*
X0060587Y0279829D01*
X0060587Y0281564D02*
X0060587Y0284433D01*
X0060587Y0282999D02*
X0056283Y0282999D01*
X0057718Y0281564D01*
X0057718Y0286168D02*
X0056283Y0287603D01*
X0060587Y0287603D01*
X0060587Y0289037D02*
X0060587Y0286168D01*
X0035408Y0299803D02*
X0034691Y0299086D01*
X0033256Y0299086D01*
X0032539Y0299803D01*
X0030804Y0300521D02*
X0030804Y0303390D01*
X0032539Y0302673D02*
X0033256Y0303390D01*
X0034691Y0303390D01*
X0035408Y0302673D01*
X0035408Y0301955D01*
X0034691Y0301238D01*
X0035408Y0300521D01*
X0035408Y0299803D01*
X0034691Y0301238D02*
X0033973Y0301238D01*
X0030804Y0300521D02*
X0029370Y0299086D01*
X0027935Y0300521D01*
X0027935Y0303390D01*
X0026200Y0302673D02*
X0025483Y0303390D01*
X0024048Y0303390D01*
X0023331Y0302673D01*
X0024766Y0301238D02*
X0025483Y0301238D01*
X0026200Y0300521D01*
X0026200Y0299803D01*
X0025483Y0299086D01*
X0024048Y0299086D01*
X0023331Y0299803D01*
X0021596Y0301238D02*
X0018727Y0301238D01*
X0020162Y0302673D02*
X0020162Y0299803D01*
X0020879Y0295890D02*
X0019444Y0295890D01*
X0018727Y0295173D01*
X0018727Y0294455D01*
X0019444Y0293738D01*
X0020879Y0293738D01*
X0021596Y0293021D01*
X0021596Y0292303D01*
X0020879Y0291586D01*
X0019444Y0291586D01*
X0018727Y0292303D01*
X0019444Y0288390D02*
X0018727Y0287673D01*
X0018727Y0286955D01*
X0019444Y0286238D01*
X0020879Y0286238D01*
X0021596Y0285521D01*
X0021596Y0284803D01*
X0020879Y0284086D01*
X0019444Y0284086D01*
X0018727Y0284803D01*
X0019444Y0288390D02*
X0020879Y0288390D01*
X0021596Y0287673D01*
X0023331Y0288390D02*
X0023331Y0284086D01*
X0025483Y0284086D01*
X0026200Y0284803D01*
X0026200Y0287673D01*
X0025483Y0288390D01*
X0023331Y0288390D01*
X0024048Y0291586D02*
X0025483Y0291586D01*
X0026200Y0292303D01*
X0027935Y0291586D02*
X0030804Y0291586D01*
X0027935Y0291586D02*
X0027935Y0295890D01*
X0026200Y0295173D02*
X0025483Y0295890D01*
X0024048Y0295890D01*
X0023331Y0295173D01*
X0023331Y0292303D01*
X0024048Y0291586D01*
X0021596Y0295173D02*
X0020879Y0295890D01*
X0025483Y0301238D02*
X0026200Y0301955D01*
X0026200Y0302673D01*
X0026200Y0306586D02*
X0026200Y0310890D01*
X0027935Y0310890D02*
X0030087Y0310890D01*
X0030804Y0310173D01*
X0030804Y0307303D01*
X0030087Y0306586D01*
X0027935Y0306586D01*
X0027935Y0310890D01*
X0023331Y0310890D02*
X0026200Y0306586D01*
X0023331Y0306586D02*
X0023331Y0310890D01*
X0021596Y0310173D02*
X0020879Y0310890D01*
X0019444Y0310890D01*
X0018727Y0310173D01*
X0018727Y0307303D01*
X0019444Y0306586D01*
X0020879Y0306586D01*
X0021596Y0307303D01*
X0021596Y0308738D01*
X0020162Y0308738D01*
X0012388Y0306586D02*
X0009519Y0306586D01*
X0010954Y0306586D02*
X0010954Y0310890D01*
X0009519Y0309455D01*
X0010237Y0303390D02*
X0009519Y0302673D01*
X0010237Y0303390D02*
X0011671Y0303390D01*
X0012388Y0302673D01*
X0012388Y0301955D01*
X0009519Y0299086D01*
X0012388Y0299086D01*
X0011671Y0295890D02*
X0012388Y0295173D01*
X0012388Y0294455D01*
X0011671Y0293738D01*
X0012388Y0293021D01*
X0012388Y0292303D01*
X0011671Y0291586D01*
X0010237Y0291586D01*
X0009519Y0292303D01*
X0010954Y0293738D02*
X0011671Y0293738D01*
X0011671Y0295890D02*
X0010237Y0295890D01*
X0009519Y0295173D01*
X0011671Y0288390D02*
X0009519Y0286238D01*
X0012388Y0286238D01*
X0011671Y0284086D02*
X0011671Y0288390D01*
X0027935Y0286955D02*
X0027935Y0284086D01*
X0027935Y0286238D02*
X0030804Y0286238D01*
X0030804Y0286955D02*
X0030804Y0284086D01*
X0030804Y0286955D02*
X0029370Y0288390D01*
X0027935Y0286955D01*
X0024867Y0326177D02*
X0025584Y0326894D01*
X0025584Y0329763D01*
X0024867Y0330480D01*
X0022715Y0330480D01*
X0022715Y0326177D01*
X0024867Y0326177D01*
X0020981Y0326177D02*
X0020981Y0330480D01*
X0018111Y0330480D02*
X0020981Y0326177D01*
X0018111Y0326177D02*
X0018111Y0330480D01*
X0016377Y0329763D02*
X0015659Y0330480D01*
X0014225Y0330480D01*
X0013507Y0329763D01*
X0013507Y0326894D01*
X0014225Y0326177D01*
X0015659Y0326177D01*
X0016377Y0326894D01*
X0016377Y0328329D01*
X0014942Y0328329D01*
X0031007Y0328329D02*
X0032442Y0329046D01*
X0033159Y0329046D01*
X0033877Y0328329D01*
X0033877Y0326894D01*
X0033159Y0326177D01*
X0031725Y0326177D01*
X0031007Y0326894D01*
X0031007Y0328329D02*
X0031007Y0330480D01*
X0033877Y0330480D01*
X0035611Y0330480D02*
X0035611Y0327611D01*
X0037046Y0326177D01*
X0038481Y0327611D01*
X0038481Y0330480D01*
X0043507Y0328329D02*
X0046377Y0328329D01*
X0048111Y0327611D02*
X0049546Y0326177D01*
X0050981Y0327611D01*
X0050981Y0330480D01*
X0052715Y0329763D02*
X0053433Y0330480D01*
X0054867Y0330480D01*
X0055584Y0329763D01*
X0055584Y0329046D01*
X0054867Y0328329D01*
X0055584Y0327611D01*
X0055584Y0326894D01*
X0054867Y0326177D01*
X0053433Y0326177D01*
X0052715Y0326894D01*
X0054150Y0328329D02*
X0054867Y0328329D01*
X0048111Y0327611D02*
X0048111Y0330480D01*
X0045659Y0330480D02*
X0043507Y0328329D01*
X0045659Y0330480D02*
X0045659Y0326177D01*
X0104520Y0315694D02*
X0108823Y0315694D01*
X0108823Y0314259D02*
X0108823Y0317129D01*
X0105954Y0314259D02*
X0104520Y0315694D01*
X0105237Y0312525D02*
X0104520Y0311807D01*
X0104520Y0310373D01*
X0105237Y0309655D01*
X0108106Y0309655D01*
X0108823Y0310373D01*
X0108823Y0311807D01*
X0108106Y0312525D01*
X0108823Y0308021D02*
X0108823Y0306586D01*
X0108823Y0307303D02*
X0104520Y0307303D01*
X0104520Y0306586D02*
X0104520Y0308021D01*
X0114225Y0326677D02*
X0113507Y0327394D01*
X0114225Y0326677D02*
X0115659Y0326677D01*
X0116377Y0327394D01*
X0116377Y0328111D01*
X0115659Y0328829D01*
X0114942Y0328829D01*
X0115659Y0328829D02*
X0116377Y0329546D01*
X0116377Y0330263D01*
X0115659Y0330980D01*
X0114225Y0330980D01*
X0113507Y0330263D01*
X0118111Y0330980D02*
X0118111Y0328111D01*
X0119546Y0326677D01*
X0120981Y0328111D01*
X0120981Y0330980D01*
X0122715Y0330263D02*
X0123433Y0330980D01*
X0124867Y0330980D01*
X0125584Y0330263D01*
X0125584Y0329546D01*
X0124867Y0328829D01*
X0125584Y0328111D01*
X0125584Y0327394D01*
X0124867Y0326677D01*
X0123433Y0326677D01*
X0122715Y0327394D01*
X0124150Y0328829D02*
X0124867Y0328829D01*
X0130191Y0300256D02*
X0131626Y0300256D01*
X0130908Y0300256D02*
X0130908Y0295952D01*
X0130191Y0295952D02*
X0131626Y0295952D01*
X0133260Y0296670D02*
X0133978Y0295952D01*
X0135412Y0295952D01*
X0136129Y0296670D01*
X0137864Y0296670D02*
X0138581Y0295952D01*
X0140016Y0295952D01*
X0140733Y0296670D01*
X0140733Y0298104D01*
X0140016Y0298821D01*
X0139299Y0298821D01*
X0137864Y0298104D01*
X0137864Y0300256D01*
X0140733Y0300256D01*
X0136129Y0299539D02*
X0135412Y0300256D01*
X0133978Y0300256D01*
X0133260Y0299539D01*
X0133260Y0296670D01*
X0124338Y0293480D02*
X0124338Y0289177D01*
X0122904Y0289177D02*
X0125773Y0289177D01*
X0122904Y0292046D02*
X0124338Y0293480D01*
X0108823Y0262010D02*
X0108823Y0259141D01*
X0105954Y0262010D01*
X0105237Y0262010D01*
X0104520Y0261293D01*
X0104520Y0259859D01*
X0105237Y0259141D01*
X0105237Y0257406D02*
X0104520Y0256689D01*
X0104520Y0255255D01*
X0105237Y0254537D01*
X0108106Y0254537D01*
X0108823Y0255255D01*
X0108823Y0256689D01*
X0108106Y0257406D01*
X0108823Y0252903D02*
X0108823Y0251468D01*
X0108823Y0252185D02*
X0104520Y0252185D01*
X0104520Y0251468D02*
X0104520Y0252903D01*
X0112398Y0218146D02*
X0111681Y0217429D01*
X0111681Y0214559D01*
X0112398Y0213842D01*
X0113833Y0213842D01*
X0114550Y0214559D01*
X0116285Y0214559D02*
X0117002Y0213842D01*
X0118436Y0213842D01*
X0119154Y0214559D01*
X0119154Y0215277D01*
X0118436Y0215994D01*
X0117719Y0215994D01*
X0118436Y0215994D02*
X0119154Y0216711D01*
X0119154Y0217429D01*
X0118436Y0218146D01*
X0117002Y0218146D01*
X0116285Y0217429D01*
X0114550Y0217429D02*
X0113833Y0218146D01*
X0112398Y0218146D01*
X0120889Y0217429D02*
X0121606Y0218146D01*
X0123040Y0218146D01*
X0123758Y0217429D01*
X0123758Y0216711D01*
X0120889Y0213842D01*
X0123758Y0213842D01*
X0108823Y0206675D02*
X0108823Y0205240D01*
X0108106Y0204523D01*
X0108106Y0202788D02*
X0108823Y0202071D01*
X0108823Y0200637D01*
X0108106Y0199919D01*
X0105237Y0199919D01*
X0104520Y0200637D01*
X0104520Y0202071D01*
X0105237Y0202788D01*
X0105237Y0204523D02*
X0104520Y0205240D01*
X0104520Y0206675D01*
X0105237Y0207392D01*
X0105954Y0207392D01*
X0106671Y0206675D01*
X0107389Y0207392D01*
X0108106Y0207392D01*
X0108823Y0206675D01*
X0106671Y0206675D02*
X0106671Y0205958D01*
X0104520Y0198285D02*
X0104520Y0196850D01*
X0104520Y0197567D02*
X0108823Y0197567D01*
X0108823Y0196850D02*
X0108823Y0198285D01*
X0112559Y0190028D02*
X0111842Y0189310D01*
X0111842Y0186441D01*
X0112559Y0185724D01*
X0113994Y0185724D01*
X0114711Y0186441D01*
X0116446Y0186441D02*
X0117163Y0185724D01*
X0118598Y0185724D01*
X0119315Y0186441D01*
X0119315Y0187159D01*
X0118598Y0187876D01*
X0117881Y0187876D01*
X0118598Y0187876D02*
X0119315Y0188593D01*
X0119315Y0189310D01*
X0118598Y0190028D01*
X0117163Y0190028D01*
X0116446Y0189310D01*
X0114711Y0189310D02*
X0113994Y0190028D01*
X0112559Y0190028D01*
X0121050Y0187876D02*
X0123919Y0187876D01*
X0123202Y0185724D02*
X0123202Y0190028D01*
X0121050Y0187876D01*
X0060587Y0242370D02*
X0056283Y0242370D01*
X0173157Y0314858D02*
X0173157Y0319162D01*
X0175309Y0319162D01*
X0176026Y0318444D01*
X0176026Y0317010D01*
X0175309Y0316292D01*
X0173157Y0316292D01*
X0177761Y0314858D02*
X0177761Y0319162D01*
X0179913Y0319162D01*
X0180630Y0318444D01*
X0180630Y0315575D01*
X0179913Y0314858D01*
X0177761Y0314858D01*
X0186969Y0314858D02*
X0189838Y0317727D01*
X0189838Y0318444D01*
X0189121Y0319162D01*
X0187686Y0319162D01*
X0186969Y0318444D01*
X0186969Y0314858D02*
X0189838Y0314858D01*
X0191573Y0315575D02*
X0194442Y0318444D01*
X0194442Y0315575D01*
X0193725Y0314858D01*
X0192290Y0314858D01*
X0191573Y0315575D01*
X0191573Y0318444D01*
X0192290Y0319162D01*
X0193725Y0319162D01*
X0194442Y0318444D01*
X0196177Y0318444D02*
X0196894Y0319162D01*
X0198329Y0319162D01*
X0199046Y0318444D01*
X0199046Y0317727D01*
X0196177Y0314858D01*
X0199046Y0314858D01*
X0200781Y0315575D02*
X0203650Y0318444D01*
X0203650Y0315575D01*
X0202932Y0314858D01*
X0201498Y0314858D01*
X0200781Y0315575D01*
X0200781Y0318444D01*
X0201498Y0319162D01*
X0202932Y0319162D01*
X0203650Y0318444D01*
X0214507Y0319177D02*
X0214507Y0323480D01*
X0216659Y0323480D01*
X0217377Y0322763D01*
X0217377Y0321329D01*
X0216659Y0320611D01*
X0214507Y0320611D01*
X0215942Y0320611D02*
X0217377Y0319177D01*
X0219111Y0321329D02*
X0221981Y0321329D01*
X0221263Y0323480D02*
X0219111Y0321329D01*
X0221263Y0323480D02*
X0221263Y0319177D01*
X0221263Y0327177D02*
X0219829Y0327177D01*
X0219111Y0327894D01*
X0217377Y0327177D02*
X0215942Y0328611D01*
X0216659Y0328611D02*
X0214507Y0328611D01*
X0214507Y0327177D02*
X0214507Y0331480D01*
X0216659Y0331480D01*
X0217377Y0330763D01*
X0217377Y0329329D01*
X0216659Y0328611D01*
X0219111Y0330763D02*
X0219829Y0331480D01*
X0221263Y0331480D01*
X0221981Y0330763D01*
X0221981Y0330046D01*
X0221263Y0329329D01*
X0221981Y0328611D01*
X0221981Y0327894D01*
X0221263Y0327177D01*
X0221263Y0329329D02*
X0220546Y0329329D01*
X0250230Y0316980D02*
X0251665Y0316980D01*
X0250948Y0316980D02*
X0250948Y0312677D01*
X0251665Y0312677D02*
X0250230Y0312677D01*
X0253300Y0313394D02*
X0253300Y0316263D01*
X0254017Y0316980D01*
X0255451Y0316980D01*
X0256169Y0316263D01*
X0257904Y0314829D02*
X0260055Y0314829D01*
X0260773Y0314111D01*
X0260773Y0313394D01*
X0260055Y0312677D01*
X0258621Y0312677D01*
X0257904Y0313394D01*
X0257904Y0314829D01*
X0259338Y0316263D01*
X0260773Y0316980D01*
X0256169Y0313394D02*
X0255451Y0312677D01*
X0254017Y0312677D01*
X0253300Y0313394D01*
X0275143Y0306840D02*
X0275143Y0303971D01*
X0275861Y0303254D01*
X0277295Y0303254D01*
X0278013Y0303971D01*
X0279747Y0305406D02*
X0282616Y0305406D01*
X0284351Y0306123D02*
X0285786Y0307558D01*
X0285786Y0303254D01*
X0287220Y0303254D02*
X0284351Y0303254D01*
X0281899Y0303254D02*
X0281899Y0307558D01*
X0279747Y0305406D01*
X0278013Y0306840D02*
X0277295Y0307558D01*
X0275861Y0307558D01*
X0275143Y0306840D01*
X0276225Y0318177D02*
X0277659Y0318177D01*
X0278377Y0318894D01*
X0280111Y0318177D02*
X0282981Y0318177D01*
X0281546Y0318177D02*
X0281546Y0322480D01*
X0280111Y0321046D01*
X0278377Y0321763D02*
X0277659Y0322480D01*
X0276225Y0322480D01*
X0275507Y0321763D01*
X0275507Y0318894D01*
X0276225Y0318177D01*
X0298507Y0333894D02*
X0299225Y0333177D01*
X0300659Y0333177D01*
X0301377Y0333894D01*
X0303111Y0335329D02*
X0305263Y0337480D01*
X0305263Y0333177D01*
X0305981Y0335329D02*
X0303111Y0335329D01*
X0301377Y0336763D02*
X0300659Y0337480D01*
X0299225Y0337480D01*
X0298507Y0336763D01*
X0298507Y0333894D01*
X0312070Y0334551D02*
X0313505Y0334551D01*
X0312788Y0334551D02*
X0312788Y0338854D01*
X0313505Y0338854D02*
X0312070Y0338854D01*
X0315140Y0338137D02*
X0315140Y0335268D01*
X0315857Y0334551D01*
X0317292Y0334551D01*
X0318009Y0335268D01*
X0319744Y0335268D02*
X0322613Y0338137D01*
X0322613Y0338854D01*
X0319744Y0338854D01*
X0318009Y0338137D02*
X0317292Y0338854D01*
X0315857Y0338854D01*
X0315140Y0338137D01*
X0319744Y0335268D02*
X0319744Y0334551D01*
X0319159Y0314480D02*
X0317725Y0314480D01*
X0317007Y0313763D01*
X0317007Y0310894D01*
X0317725Y0310177D01*
X0319159Y0310177D01*
X0319877Y0310894D01*
X0321611Y0310894D02*
X0322329Y0310177D01*
X0323763Y0310177D01*
X0324481Y0310894D01*
X0324481Y0311611D01*
X0323763Y0312329D01*
X0323046Y0312329D01*
X0323763Y0312329D02*
X0324481Y0313046D01*
X0324481Y0313763D01*
X0323763Y0314480D01*
X0322329Y0314480D01*
X0321611Y0313763D01*
X0319877Y0313763D02*
X0319159Y0314480D01*
X0340007Y0329677D02*
X0340007Y0333980D01*
X0342159Y0333980D01*
X0342877Y0333263D01*
X0342877Y0331829D01*
X0342159Y0331111D01*
X0340007Y0331111D01*
X0341442Y0331111D02*
X0342877Y0329677D01*
X0344611Y0329677D02*
X0347481Y0329677D01*
X0346046Y0329677D02*
X0346046Y0333980D01*
X0344611Y0332546D01*
X0370992Y0333110D02*
X0373861Y0333110D01*
X0375596Y0333110D02*
X0378465Y0333110D01*
X0380200Y0333110D02*
X0382351Y0333110D01*
X0383069Y0333827D01*
X0383069Y0336696D01*
X0382351Y0337414D01*
X0380200Y0337414D01*
X0380200Y0333110D01*
X0377030Y0335262D02*
X0375596Y0335262D01*
X0375596Y0337414D02*
X0375596Y0333110D01*
X0375596Y0337414D02*
X0378465Y0337414D01*
X0384804Y0335979D02*
X0386238Y0337414D01*
X0386238Y0333110D01*
X0384804Y0333110D02*
X0387673Y0333110D01*
X0370992Y0333110D02*
X0370992Y0337414D01*
X0348544Y0288734D02*
X0347109Y0288734D01*
X0346392Y0288017D01*
X0348544Y0288734D02*
X0349261Y0288017D01*
X0349261Y0287299D01*
X0346392Y0284430D01*
X0349261Y0284430D01*
X0344657Y0284430D02*
X0341788Y0284430D01*
X0341788Y0288734D01*
X0342096Y0262032D02*
X0342096Y0259880D01*
X0343530Y0260597D01*
X0344247Y0260597D01*
X0344965Y0259880D01*
X0344965Y0258445D01*
X0344247Y0257728D01*
X0342813Y0257728D01*
X0342096Y0258445D01*
X0340361Y0258445D02*
X0339644Y0257728D01*
X0338209Y0257728D01*
X0337492Y0258445D01*
X0337492Y0261314D01*
X0338209Y0262032D01*
X0339644Y0262032D01*
X0340361Y0261314D01*
X0342096Y0262032D02*
X0344965Y0262032D01*
X0342362Y0240075D02*
X0340927Y0240075D01*
X0340210Y0239358D01*
X0340210Y0238640D01*
X0340927Y0237923D01*
X0343079Y0237923D01*
X0343079Y0236489D02*
X0343079Y0239358D01*
X0342362Y0240075D01*
X0343079Y0236489D02*
X0342362Y0235771D01*
X0340927Y0235771D01*
X0340210Y0236489D01*
X0338475Y0236489D02*
X0337758Y0235771D01*
X0336323Y0235771D01*
X0335606Y0236489D01*
X0335606Y0239358D01*
X0336323Y0240075D01*
X0337758Y0240075D01*
X0338475Y0239358D01*
X0337742Y0228244D02*
X0336307Y0228244D01*
X0335590Y0227527D01*
X0335590Y0224658D01*
X0336307Y0223941D01*
X0337742Y0223941D01*
X0338459Y0224658D01*
X0340194Y0223941D02*
X0343063Y0226810D01*
X0343063Y0227527D01*
X0342346Y0228244D01*
X0340911Y0228244D01*
X0340194Y0227527D01*
X0338459Y0227527D02*
X0337742Y0228244D01*
X0340194Y0223941D02*
X0343063Y0223941D01*
X0343546Y0214980D02*
X0343546Y0210677D01*
X0342111Y0210677D02*
X0344981Y0210677D01*
X0342111Y0213546D02*
X0343546Y0214980D01*
X0340377Y0214263D02*
X0339659Y0214980D01*
X0337507Y0214980D01*
X0337507Y0210677D01*
X0339659Y0210677D01*
X0340377Y0211394D01*
X0340377Y0214263D01*
X0338090Y0201254D02*
X0338807Y0200536D01*
X0338807Y0199102D01*
X0338090Y0198385D01*
X0337373Y0198385D01*
X0336656Y0199102D01*
X0336656Y0200536D01*
X0337373Y0201254D01*
X0338090Y0201254D01*
X0336656Y0200536D02*
X0335938Y0201254D01*
X0335221Y0201254D01*
X0334504Y0200536D01*
X0334504Y0199102D01*
X0335221Y0198385D01*
X0335938Y0198385D01*
X0336656Y0199102D01*
X0335938Y0196650D02*
X0335221Y0196650D01*
X0334504Y0195933D01*
X0334504Y0194498D01*
X0335221Y0193781D01*
X0335221Y0192046D02*
X0336656Y0192046D01*
X0337373Y0191329D01*
X0337373Y0189177D01*
X0337373Y0190611D02*
X0338807Y0192046D01*
X0338807Y0193781D02*
X0335938Y0196650D01*
X0338807Y0196650D02*
X0338807Y0193781D01*
X0335221Y0192046D02*
X0334504Y0191329D01*
X0334504Y0189177D01*
X0338807Y0189177D01*
X0345004Y0186942D02*
X0345004Y0184073D01*
X0347156Y0184073D01*
X0346438Y0185507D01*
X0346438Y0186225D01*
X0347156Y0186942D01*
X0348590Y0186942D01*
X0349307Y0186225D01*
X0349307Y0184790D01*
X0348590Y0184073D01*
X0349307Y0182338D02*
X0345004Y0182338D01*
X0345004Y0179469D02*
X0349307Y0182338D01*
X0349307Y0179469D02*
X0345004Y0179469D01*
X0345721Y0177734D02*
X0345004Y0177017D01*
X0345004Y0175582D01*
X0345721Y0174865D01*
X0348590Y0174865D01*
X0349307Y0175582D01*
X0349307Y0177017D01*
X0348590Y0177734D01*
X0346443Y0168475D02*
X0342139Y0168475D01*
X0344291Y0166324D01*
X0344291Y0169193D01*
X0346443Y0164589D02*
X0342139Y0164589D01*
X0342139Y0161720D02*
X0346443Y0164589D01*
X0346443Y0161720D02*
X0342139Y0161720D01*
X0342857Y0159985D02*
X0342139Y0159268D01*
X0342139Y0157833D01*
X0342857Y0157116D01*
X0345726Y0157116D01*
X0346443Y0157833D01*
X0346443Y0159268D01*
X0345726Y0159985D01*
X0370992Y0182952D02*
X0373861Y0182952D01*
X0375596Y0182952D02*
X0378465Y0182952D01*
X0380200Y0182952D02*
X0382351Y0182952D01*
X0383069Y0183670D01*
X0383069Y0186539D01*
X0382351Y0187256D01*
X0380200Y0187256D01*
X0380200Y0182952D01*
X0377030Y0185104D02*
X0375596Y0185104D01*
X0375596Y0187256D02*
X0375596Y0182952D01*
X0375596Y0187256D02*
X0378465Y0187256D01*
X0384804Y0186539D02*
X0385521Y0187256D01*
X0386955Y0187256D01*
X0387673Y0186539D01*
X0387673Y0185821D01*
X0386955Y0185104D01*
X0387673Y0184387D01*
X0387673Y0183670D01*
X0386955Y0182952D01*
X0385521Y0182952D01*
X0384804Y0183670D01*
X0386238Y0185104D02*
X0386955Y0185104D01*
X0389407Y0185104D02*
X0392277Y0185104D01*
X0391559Y0182952D02*
X0391559Y0187256D01*
X0389407Y0185104D01*
X0370992Y0187256D02*
X0370992Y0182952D01*
X0316807Y0193365D02*
X0312504Y0193365D01*
X0312504Y0195517D01*
X0313221Y0196234D01*
X0314656Y0196234D01*
X0315373Y0195517D01*
X0315373Y0193365D01*
X0315373Y0194800D02*
X0316807Y0196234D01*
X0316807Y0197969D02*
X0313938Y0200838D01*
X0313221Y0200838D01*
X0312504Y0200121D01*
X0312504Y0198686D01*
X0313221Y0197969D01*
X0316807Y0197969D02*
X0316807Y0200838D01*
X0316807Y0202573D02*
X0316090Y0202573D01*
X0313221Y0205442D01*
X0312504Y0205442D01*
X0312504Y0202573D01*
X0310669Y0191980D02*
X0307800Y0191980D01*
X0309234Y0191980D02*
X0309234Y0187677D01*
X0312404Y0189829D02*
X0315273Y0189829D01*
X0314555Y0191980D02*
X0314555Y0187677D01*
X0312404Y0189829D02*
X0314555Y0191980D01*
X0290273Y0209177D02*
X0287404Y0209177D01*
X0290273Y0212046D01*
X0290273Y0212763D01*
X0289555Y0213480D01*
X0288121Y0213480D01*
X0287404Y0212763D01*
X0285669Y0213480D02*
X0282800Y0213480D01*
X0284234Y0213480D02*
X0284234Y0209177D01*
X0273773Y0199980D02*
X0270904Y0199980D01*
X0270904Y0197829D01*
X0272338Y0198546D01*
X0273055Y0198546D01*
X0273773Y0197829D01*
X0273773Y0196394D01*
X0273055Y0195677D01*
X0271621Y0195677D01*
X0270904Y0196394D01*
X0269169Y0195677D02*
X0266300Y0195677D01*
X0269169Y0198546D01*
X0269169Y0199263D01*
X0268451Y0199980D01*
X0267017Y0199980D01*
X0266300Y0199263D01*
X0264565Y0199263D02*
X0264565Y0197829D01*
X0263848Y0197111D01*
X0261696Y0197111D01*
X0263130Y0197111D02*
X0264565Y0195677D01*
X0261696Y0195677D02*
X0261696Y0199980D01*
X0263848Y0199980D01*
X0264565Y0199263D01*
X0269696Y0190980D02*
X0271848Y0190980D01*
X0272565Y0190263D01*
X0272565Y0188829D01*
X0271848Y0188111D01*
X0269696Y0188111D01*
X0271130Y0188111D02*
X0272565Y0186677D01*
X0274300Y0186677D02*
X0277169Y0189546D01*
X0277169Y0190263D01*
X0276451Y0190980D01*
X0275017Y0190980D01*
X0274300Y0190263D01*
X0274300Y0186677D02*
X0277169Y0186677D01*
X0278904Y0188829D02*
X0281773Y0188829D01*
X0281055Y0190980D02*
X0278904Y0188829D01*
X0281055Y0190980D02*
X0281055Y0186677D01*
X0269696Y0186677D02*
X0269696Y0190980D01*
X0256809Y0207494D02*
X0253940Y0207494D01*
X0256809Y0210363D01*
X0256809Y0211080D01*
X0256091Y0211798D01*
X0254657Y0211798D01*
X0253940Y0211080D01*
X0252205Y0209646D02*
X0249336Y0209646D01*
X0251488Y0211798D01*
X0251488Y0207494D01*
X0247601Y0208211D02*
X0246884Y0207494D01*
X0245449Y0207494D01*
X0244732Y0208211D01*
X0244732Y0211080D01*
X0245449Y0211798D01*
X0246884Y0211798D01*
X0247601Y0211080D01*
X0291504Y0228677D02*
X0291504Y0230829D01*
X0292221Y0231546D01*
X0293656Y0231546D01*
X0294373Y0230829D01*
X0294373Y0228677D01*
X0294373Y0230111D02*
X0295807Y0231546D01*
X0295807Y0233281D02*
X0292938Y0236150D01*
X0292221Y0236150D01*
X0291504Y0235433D01*
X0291504Y0233998D01*
X0292221Y0233281D01*
X0295807Y0233281D02*
X0295807Y0236150D01*
X0295090Y0237885D02*
X0295807Y0238602D01*
X0295807Y0240036D01*
X0295090Y0240754D01*
X0294373Y0240754D01*
X0293656Y0240036D01*
X0293656Y0239319D01*
X0293656Y0240036D02*
X0292938Y0240754D01*
X0292221Y0240754D01*
X0291504Y0240036D01*
X0291504Y0238602D01*
X0292221Y0237885D01*
X0291504Y0244177D02*
X0291504Y0246329D01*
X0292221Y0247046D01*
X0293656Y0247046D01*
X0294373Y0246329D01*
X0294373Y0244177D01*
X0294373Y0245611D02*
X0295807Y0247046D01*
X0295807Y0248781D02*
X0292938Y0251650D01*
X0292221Y0251650D01*
X0291504Y0250933D01*
X0291504Y0249498D01*
X0292221Y0248781D01*
X0295807Y0248781D02*
X0295807Y0251650D01*
X0296413Y0256319D02*
X0293544Y0256319D01*
X0292827Y0257036D01*
X0292827Y0258470D01*
X0293544Y0259188D01*
X0294978Y0260922D02*
X0293544Y0262357D01*
X0292827Y0263792D01*
X0294978Y0263074D02*
X0294978Y0260922D01*
X0296413Y0260922D01*
X0297130Y0261640D01*
X0297130Y0263074D01*
X0296413Y0263792D01*
X0295696Y0263792D01*
X0294978Y0263074D01*
X0296413Y0259188D02*
X0297130Y0258470D01*
X0297130Y0257036D01*
X0296413Y0256319D01*
X0295807Y0244177D02*
X0291504Y0244177D01*
X0299007Y0241480D02*
X0299007Y0237177D01*
X0299007Y0238611D02*
X0301159Y0238611D01*
X0301877Y0239329D01*
X0301877Y0240763D01*
X0301159Y0241480D01*
X0299007Y0241480D01*
X0300442Y0238611D02*
X0301877Y0237177D01*
X0303611Y0237177D02*
X0306481Y0240046D01*
X0306481Y0240763D01*
X0305763Y0241480D01*
X0304329Y0241480D01*
X0303611Y0240763D01*
X0303611Y0237177D02*
X0306481Y0237177D01*
X0308215Y0237894D02*
X0308933Y0237177D01*
X0310367Y0237177D01*
X0311084Y0237894D01*
X0311084Y0238611D01*
X0310367Y0239329D01*
X0308215Y0239329D01*
X0308215Y0237894D01*
X0308215Y0239329D02*
X0309650Y0240763D01*
X0311084Y0241480D01*
X0295807Y0228677D02*
X0291504Y0228677D01*
X0307800Y0218480D02*
X0310669Y0218480D01*
X0309234Y0218480D02*
X0309234Y0214177D01*
X0312404Y0214894D02*
X0313121Y0214177D01*
X0314555Y0214177D01*
X0315273Y0214894D01*
X0315273Y0215611D01*
X0314555Y0216329D01*
X0313838Y0216329D01*
X0314555Y0216329D02*
X0315273Y0217046D01*
X0315273Y0217763D01*
X0314555Y0218480D01*
X0313121Y0218480D01*
X0312404Y0217763D01*
X0287338Y0173480D02*
X0287338Y0169177D01*
X0285904Y0169177D02*
X0288773Y0169177D01*
X0285904Y0172046D02*
X0287338Y0173480D01*
X0284169Y0173480D02*
X0281300Y0173480D01*
X0282734Y0173480D02*
X0282734Y0169177D01*
X0280700Y0148990D02*
X0281418Y0148273D01*
X0281418Y0146838D01*
X0280700Y0146121D01*
X0281418Y0144386D02*
X0277114Y0144386D01*
X0277831Y0146121D02*
X0277114Y0146838D01*
X0277114Y0148273D01*
X0277831Y0148990D01*
X0278549Y0148990D01*
X0279266Y0148273D01*
X0279983Y0148990D01*
X0280700Y0148990D01*
X0279266Y0148273D02*
X0279266Y0147555D01*
X0281418Y0144386D02*
X0277114Y0141517D01*
X0281418Y0141517D01*
X0280700Y0139782D02*
X0281418Y0139065D01*
X0281418Y0137630D01*
X0280700Y0136913D01*
X0277831Y0136913D01*
X0277114Y0137630D01*
X0277114Y0139065D01*
X0277831Y0139782D01*
X0259084Y0118980D02*
X0257650Y0118263D01*
X0256215Y0116829D01*
X0258367Y0116829D01*
X0259084Y0116111D01*
X0259084Y0115394D01*
X0258367Y0114677D01*
X0256933Y0114677D01*
X0256215Y0115394D01*
X0256215Y0116829D01*
X0254481Y0114677D02*
X0251611Y0114677D01*
X0253046Y0114677D02*
X0253046Y0118980D01*
X0251611Y0117546D01*
X0249877Y0118263D02*
X0249877Y0116829D01*
X0249159Y0116111D01*
X0247007Y0116111D01*
X0247007Y0114677D02*
X0247007Y0118980D01*
X0249159Y0118980D01*
X0249877Y0118263D01*
X0248442Y0116111D02*
X0249877Y0114677D01*
X0245763Y0126177D02*
X0244329Y0126177D01*
X0243611Y0126894D01*
X0243611Y0127611D01*
X0244329Y0128329D01*
X0245763Y0128329D01*
X0246481Y0127611D01*
X0246481Y0126894D01*
X0245763Y0126177D01*
X0245763Y0128329D02*
X0246481Y0129046D01*
X0246481Y0129763D01*
X0245763Y0130480D01*
X0244329Y0130480D01*
X0243611Y0129763D01*
X0243611Y0129046D01*
X0244329Y0128329D01*
X0241877Y0129763D02*
X0241159Y0130480D01*
X0239725Y0130480D01*
X0239007Y0129763D01*
X0239007Y0126894D01*
X0239725Y0126177D01*
X0241159Y0126177D01*
X0241877Y0126894D01*
X0242502Y0137677D02*
X0241785Y0138394D01*
X0244654Y0141263D01*
X0244654Y0138394D01*
X0243936Y0137677D01*
X0242502Y0137677D01*
X0241785Y0138394D02*
X0241785Y0141263D01*
X0242502Y0141980D01*
X0243936Y0141980D01*
X0244654Y0141263D01*
X0240050Y0137677D02*
X0237181Y0137677D01*
X0238615Y0137677D02*
X0238615Y0141980D01*
X0237181Y0140546D01*
X0235446Y0141263D02*
X0234729Y0141980D01*
X0233294Y0141980D01*
X0232577Y0141263D01*
X0232577Y0138394D01*
X0233294Y0137677D01*
X0234729Y0137677D01*
X0235446Y0138394D01*
X0230942Y0137677D02*
X0229507Y0137677D01*
X0230225Y0137677D02*
X0230225Y0141980D01*
X0230942Y0141980D02*
X0229507Y0141980D01*
X0198307Y0132536D02*
X0198307Y0131102D01*
X0197590Y0130385D01*
X0196873Y0130385D01*
X0196156Y0131102D01*
X0196156Y0132536D01*
X0196873Y0133254D01*
X0197590Y0133254D01*
X0198307Y0132536D01*
X0196156Y0132536D02*
X0195438Y0133254D01*
X0194721Y0133254D01*
X0194004Y0132536D01*
X0194004Y0131102D01*
X0194721Y0130385D01*
X0195438Y0130385D01*
X0196156Y0131102D01*
X0198307Y0128650D02*
X0198307Y0125781D01*
X0198307Y0127215D02*
X0194004Y0127215D01*
X0195438Y0125781D01*
X0194721Y0124046D02*
X0196156Y0124046D01*
X0196873Y0123329D01*
X0196873Y0121177D01*
X0196873Y0122611D02*
X0198307Y0124046D01*
X0198307Y0121177D02*
X0194004Y0121177D01*
X0194004Y0123329D01*
X0194721Y0124046D01*
X0192584Y0117480D02*
X0192584Y0116763D01*
X0189715Y0113894D01*
X0189715Y0113177D01*
X0187981Y0113177D02*
X0185111Y0113177D01*
X0186546Y0113177D02*
X0186546Y0117480D01*
X0185111Y0116046D01*
X0183377Y0116763D02*
X0182659Y0117480D01*
X0180507Y0117480D01*
X0180507Y0113177D01*
X0180507Y0114611D02*
X0182659Y0114611D01*
X0183377Y0115329D01*
X0183377Y0116763D01*
X0181942Y0114611D02*
X0183377Y0113177D01*
X0189715Y0117480D02*
X0192584Y0117480D01*
X0325007Y0098046D02*
X0326442Y0099480D01*
X0325007Y0098046D02*
X0325007Y0096611D01*
X0326442Y0095177D01*
X0328077Y0095894D02*
X0328794Y0095177D01*
X0330229Y0095177D01*
X0330946Y0095894D01*
X0330946Y0097329D01*
X0330229Y0098046D01*
X0328794Y0098046D01*
X0328077Y0097329D01*
X0328077Y0095894D01*
X0332681Y0098046D02*
X0334115Y0098046D01*
X0333398Y0098763D02*
X0333398Y0095894D01*
X0334115Y0095177D01*
X0335750Y0095177D02*
X0335750Y0099480D01*
X0336467Y0098046D02*
X0337902Y0098046D01*
X0338619Y0097329D01*
X0338619Y0095177D01*
X0340354Y0095894D02*
X0340354Y0097329D01*
X0341071Y0098046D01*
X0342506Y0098046D01*
X0343223Y0097329D01*
X0343223Y0096611D01*
X0340354Y0096611D01*
X0340354Y0095894D02*
X0341071Y0095177D01*
X0342506Y0095177D01*
X0344958Y0095177D02*
X0344958Y0098046D01*
X0346392Y0098046D02*
X0347110Y0098046D01*
X0346392Y0098046D02*
X0344958Y0096611D01*
X0353398Y0097329D02*
X0354116Y0098046D01*
X0356267Y0098046D01*
X0355550Y0096611D02*
X0354116Y0096611D01*
X0353398Y0097329D01*
X0353398Y0095177D02*
X0355550Y0095177D01*
X0356267Y0095894D01*
X0355550Y0096611D01*
X0358002Y0095177D02*
X0359437Y0095177D01*
X0358720Y0095177D02*
X0358720Y0098046D01*
X0358002Y0098046D01*
X0358720Y0099480D02*
X0358720Y0100198D01*
X0361072Y0097329D02*
X0361789Y0098046D01*
X0363941Y0098046D01*
X0363941Y0099480D02*
X0363941Y0095177D01*
X0361789Y0095177D01*
X0361072Y0095894D01*
X0361072Y0097329D01*
X0365675Y0097329D02*
X0366393Y0098046D01*
X0367827Y0098046D01*
X0368545Y0097329D01*
X0368545Y0096611D01*
X0365675Y0096611D01*
X0365675Y0095894D02*
X0365675Y0097329D01*
X0365675Y0095894D02*
X0366393Y0095177D01*
X0367827Y0095177D01*
X0370279Y0095177D02*
X0371714Y0096611D01*
X0371714Y0098046D01*
X0370279Y0099480D01*
X0336467Y0098046D02*
X0335750Y0097329D01*
X0239752Y0254988D02*
X0239752Y0256422D01*
X0239752Y0255705D02*
X0235449Y0255705D01*
X0235449Y0254988D02*
X0235449Y0256422D01*
X0236166Y0258057D02*
X0239035Y0258057D01*
X0239752Y0258774D01*
X0239752Y0260209D01*
X0239035Y0260926D01*
X0237601Y0262661D02*
X0237601Y0265530D01*
X0239752Y0264813D02*
X0235449Y0264813D01*
X0237601Y0262661D01*
X0236166Y0260926D02*
X0235449Y0260209D01*
X0235449Y0258774D01*
X0236166Y0258057D01*
X0370992Y0258031D02*
X0373861Y0258031D01*
X0375596Y0258031D02*
X0378465Y0258031D01*
X0380200Y0258031D02*
X0382351Y0258031D01*
X0383069Y0258748D01*
X0383069Y0261617D01*
X0382351Y0262335D01*
X0380200Y0262335D01*
X0380200Y0258031D01*
X0377030Y0260183D02*
X0375596Y0260183D01*
X0375596Y0262335D02*
X0375596Y0258031D01*
X0375596Y0262335D02*
X0378465Y0262335D01*
X0384804Y0261617D02*
X0385521Y0262335D01*
X0386955Y0262335D01*
X0387673Y0261617D01*
X0387673Y0260900D01*
X0384804Y0258031D01*
X0387673Y0258031D01*
X0370992Y0258031D02*
X0370992Y0262335D01*
D11*
X0334941Y0263764D02*
X0334941Y0255890D01*
X0331594Y0255890D01*
X0323720Y0255890D02*
X0320374Y0255890D01*
X0320374Y0263764D01*
X0323720Y0263764D01*
X0331594Y0263764D02*
X0334941Y0263764D01*
X0313941Y0263764D02*
X0313941Y0255890D01*
X0310594Y0255890D01*
X0302720Y0255890D02*
X0299374Y0255890D01*
X0299374Y0263764D01*
X0302720Y0263764D01*
X0310594Y0263764D02*
X0313941Y0263764D01*
X0318374Y0241764D02*
X0321720Y0241764D01*
X0318374Y0241764D02*
X0318374Y0233890D01*
X0321720Y0233890D01*
X0321720Y0229764D02*
X0318374Y0229764D01*
X0318374Y0221890D01*
X0321720Y0221890D01*
X0329594Y0221890D02*
X0332941Y0221890D01*
X0332941Y0229764D01*
X0329594Y0229764D01*
X0329594Y0233890D02*
X0332941Y0233890D01*
X0332941Y0241764D01*
X0329594Y0241764D01*
X0343157Y0183327D02*
X0342657Y0182827D01*
X0342657Y0179827D01*
X0343157Y0179327D01*
X0343157Y0183327D01*
X0342657Y0182827D02*
X0341157Y0181327D01*
X0342657Y0181327D01*
X0341157Y0181327D02*
X0342657Y0179827D01*
X0339343Y0173402D02*
X0339343Y0155291D01*
X0339343Y0149780D01*
X0339343Y0120252D01*
X0299972Y0120252D01*
X0299972Y0149780D01*
X0299972Y0155291D01*
X0299972Y0173402D01*
X0339343Y0173402D01*
X0169451Y0317205D02*
X0169453Y0317381D01*
X0169460Y0317556D01*
X0169470Y0317732D01*
X0169485Y0317907D01*
X0169505Y0318081D01*
X0169528Y0318255D01*
X0169556Y0318429D01*
X0169589Y0318602D01*
X0169625Y0318774D01*
X0169666Y0318944D01*
X0169710Y0319114D01*
X0169759Y0319283D01*
X0169812Y0319451D01*
X0169869Y0319617D01*
X0169931Y0319781D01*
X0169996Y0319945D01*
X0170065Y0320106D01*
X0170138Y0320266D01*
X0170215Y0320424D01*
X0170296Y0320580D01*
X0170381Y0320734D01*
X0170470Y0320885D01*
X0170562Y0321035D01*
X0170658Y0321182D01*
X0170757Y0321327D01*
X0170860Y0321470D01*
X0170966Y0321609D01*
X0171076Y0321747D01*
X0171189Y0321881D01*
X0171306Y0322013D01*
X0171425Y0322141D01*
X0171548Y0322267D01*
X0171674Y0322390D01*
X0171802Y0322509D01*
X0171934Y0322626D01*
X0172068Y0322739D01*
X0172206Y0322849D01*
X0172345Y0322955D01*
X0172488Y0323058D01*
X0172633Y0323157D01*
X0172780Y0323253D01*
X0172930Y0323345D01*
X0173081Y0323434D01*
X0173235Y0323519D01*
X0173391Y0323600D01*
X0173549Y0323677D01*
X0173709Y0323750D01*
X0173870Y0323819D01*
X0174034Y0323884D01*
X0174198Y0323946D01*
X0174364Y0324003D01*
X0174532Y0324056D01*
X0174701Y0324105D01*
X0174871Y0324149D01*
X0175041Y0324190D01*
X0175213Y0324226D01*
X0175386Y0324259D01*
X0175560Y0324287D01*
X0175734Y0324310D01*
X0175908Y0324330D01*
X0176083Y0324345D01*
X0176259Y0324355D01*
X0176434Y0324362D01*
X0176610Y0324364D01*
X0176786Y0324362D01*
X0176961Y0324355D01*
X0177137Y0324345D01*
X0177312Y0324330D01*
X0177486Y0324310D01*
X0177660Y0324287D01*
X0177834Y0324259D01*
X0178007Y0324226D01*
X0178179Y0324190D01*
X0178349Y0324149D01*
X0178519Y0324105D01*
X0178688Y0324056D01*
X0178856Y0324003D01*
X0179022Y0323946D01*
X0179186Y0323884D01*
X0179350Y0323819D01*
X0179511Y0323750D01*
X0179671Y0323677D01*
X0179829Y0323600D01*
X0179985Y0323519D01*
X0180139Y0323434D01*
X0180290Y0323345D01*
X0180440Y0323253D01*
X0180587Y0323157D01*
X0180732Y0323058D01*
X0180875Y0322955D01*
X0181014Y0322849D01*
X0181152Y0322739D01*
X0181286Y0322626D01*
X0181418Y0322509D01*
X0181546Y0322390D01*
X0181672Y0322267D01*
X0181795Y0322141D01*
X0181914Y0322013D01*
X0182031Y0321881D01*
X0182144Y0321747D01*
X0182254Y0321609D01*
X0182360Y0321470D01*
X0182463Y0321327D01*
X0182562Y0321182D01*
X0182658Y0321035D01*
X0182750Y0320885D01*
X0182839Y0320734D01*
X0182924Y0320580D01*
X0183005Y0320424D01*
X0183082Y0320266D01*
X0183155Y0320106D01*
X0183224Y0319945D01*
X0183289Y0319781D01*
X0183351Y0319617D01*
X0183408Y0319451D01*
X0183461Y0319283D01*
X0183510Y0319114D01*
X0183554Y0318944D01*
X0183595Y0318774D01*
X0183631Y0318602D01*
X0183664Y0318429D01*
X0183692Y0318255D01*
X0183715Y0318081D01*
X0183735Y0317907D01*
X0183750Y0317732D01*
X0183760Y0317556D01*
X0183767Y0317381D01*
X0183769Y0317205D01*
X0183767Y0317029D01*
X0183760Y0316854D01*
X0183750Y0316678D01*
X0183735Y0316503D01*
X0183715Y0316329D01*
X0183692Y0316155D01*
X0183664Y0315981D01*
X0183631Y0315808D01*
X0183595Y0315636D01*
X0183554Y0315466D01*
X0183510Y0315296D01*
X0183461Y0315127D01*
X0183408Y0314959D01*
X0183351Y0314793D01*
X0183289Y0314629D01*
X0183224Y0314465D01*
X0183155Y0314304D01*
X0183082Y0314144D01*
X0183005Y0313986D01*
X0182924Y0313830D01*
X0182839Y0313676D01*
X0182750Y0313525D01*
X0182658Y0313375D01*
X0182562Y0313228D01*
X0182463Y0313083D01*
X0182360Y0312940D01*
X0182254Y0312801D01*
X0182144Y0312663D01*
X0182031Y0312529D01*
X0181914Y0312397D01*
X0181795Y0312269D01*
X0181672Y0312143D01*
X0181546Y0312020D01*
X0181418Y0311901D01*
X0181286Y0311784D01*
X0181152Y0311671D01*
X0181014Y0311561D01*
X0180875Y0311455D01*
X0180732Y0311352D01*
X0180587Y0311253D01*
X0180440Y0311157D01*
X0180290Y0311065D01*
X0180139Y0310976D01*
X0179985Y0310891D01*
X0179829Y0310810D01*
X0179671Y0310733D01*
X0179511Y0310660D01*
X0179350Y0310591D01*
X0179186Y0310526D01*
X0179022Y0310464D01*
X0178856Y0310407D01*
X0178688Y0310354D01*
X0178519Y0310305D01*
X0178349Y0310261D01*
X0178179Y0310220D01*
X0178007Y0310184D01*
X0177834Y0310151D01*
X0177660Y0310123D01*
X0177486Y0310100D01*
X0177312Y0310080D01*
X0177137Y0310065D01*
X0176961Y0310055D01*
X0176786Y0310048D01*
X0176610Y0310046D01*
X0176434Y0310048D01*
X0176259Y0310055D01*
X0176083Y0310065D01*
X0175908Y0310080D01*
X0175734Y0310100D01*
X0175560Y0310123D01*
X0175386Y0310151D01*
X0175213Y0310184D01*
X0175041Y0310220D01*
X0174871Y0310261D01*
X0174701Y0310305D01*
X0174532Y0310354D01*
X0174364Y0310407D01*
X0174198Y0310464D01*
X0174034Y0310526D01*
X0173870Y0310591D01*
X0173709Y0310660D01*
X0173549Y0310733D01*
X0173391Y0310810D01*
X0173235Y0310891D01*
X0173081Y0310976D01*
X0172930Y0311065D01*
X0172780Y0311157D01*
X0172633Y0311253D01*
X0172488Y0311352D01*
X0172345Y0311455D01*
X0172206Y0311561D01*
X0172068Y0311671D01*
X0171934Y0311784D01*
X0171802Y0311901D01*
X0171674Y0312020D01*
X0171548Y0312143D01*
X0171425Y0312269D01*
X0171306Y0312397D01*
X0171189Y0312529D01*
X0171076Y0312663D01*
X0170966Y0312801D01*
X0170860Y0312940D01*
X0170757Y0313083D01*
X0170658Y0313228D01*
X0170562Y0313375D01*
X0170470Y0313525D01*
X0170381Y0313676D01*
X0170296Y0313830D01*
X0170215Y0313986D01*
X0170138Y0314144D01*
X0170065Y0314304D01*
X0169996Y0314465D01*
X0169931Y0314629D01*
X0169869Y0314793D01*
X0169812Y0314959D01*
X0169759Y0315127D01*
X0169710Y0315296D01*
X0169666Y0315466D01*
X0169625Y0315636D01*
X0169589Y0315808D01*
X0169556Y0315981D01*
X0169528Y0316155D01*
X0169505Y0316329D01*
X0169485Y0316503D01*
X0169470Y0316678D01*
X0169460Y0316854D01*
X0169453Y0317029D01*
X0169451Y0317205D01*
X0130157Y0291327D02*
X0129157Y0292327D01*
X0129157Y0290327D01*
X0130157Y0291327D01*
X0129157Y0292327D02*
X0128157Y0293327D01*
X0128157Y0289327D01*
X0129157Y0290327D01*
X0052583Y0289122D02*
X0046677Y0289122D01*
X0046677Y0275917D02*
X0052583Y0275917D01*
X0052583Y0272122D02*
X0046677Y0272122D01*
X0046677Y0258917D02*
X0052583Y0258917D01*
X0052583Y0255122D02*
X0046677Y0255122D01*
X0046677Y0241917D02*
X0052583Y0241917D01*
X0052583Y0238122D02*
X0046677Y0238122D01*
X0046677Y0224917D02*
X0052583Y0224917D01*
X0052213Y0176516D02*
X0048102Y0176516D01*
X0044929Y0176516D02*
X0044059Y0176516D01*
X0044059Y0170138D01*
X0044929Y0170138D01*
X0055386Y0170138D02*
X0056256Y0170138D01*
X0056256Y0176516D01*
X0055386Y0176516D01*
X0055720Y0129110D02*
X0063594Y0129110D01*
X0063594Y0125764D01*
X0065720Y0125764D02*
X0065720Y0129110D01*
X0073594Y0129110D01*
X0073594Y0125764D01*
X0075720Y0125764D02*
X0075720Y0129110D01*
X0083594Y0129110D01*
X0083594Y0125764D01*
X0085720Y0125764D02*
X0085720Y0129110D01*
X0093594Y0129110D01*
X0093594Y0125764D01*
X0093594Y0117890D02*
X0093594Y0114543D01*
X0085720Y0114543D01*
X0085720Y0117890D01*
X0083594Y0117890D02*
X0083594Y0114543D01*
X0075720Y0114543D01*
X0075720Y0117890D01*
X0073594Y0117890D02*
X0073594Y0114543D01*
X0065720Y0114543D01*
X0065720Y0117890D01*
X0063594Y0117890D02*
X0063594Y0114543D01*
X0055720Y0114543D01*
X0055720Y0117890D01*
X0055720Y0125764D02*
X0055720Y0129110D01*
X0311154Y0322276D02*
X0311154Y0327378D01*
X0311153Y0327378D02*
X0311155Y0327417D01*
X0311161Y0327455D01*
X0311170Y0327492D01*
X0311183Y0327529D01*
X0311200Y0327564D01*
X0311219Y0327597D01*
X0311242Y0327628D01*
X0311268Y0327657D01*
X0311297Y0327683D01*
X0311328Y0327706D01*
X0311361Y0327725D01*
X0311396Y0327742D01*
X0311433Y0327755D01*
X0311470Y0327764D01*
X0311508Y0327770D01*
X0311547Y0327772D01*
X0322768Y0327772D01*
X0322807Y0327770D01*
X0322845Y0327764D01*
X0322882Y0327755D01*
X0322919Y0327742D01*
X0322954Y0327725D01*
X0322987Y0327706D01*
X0323018Y0327683D01*
X0323047Y0327657D01*
X0323073Y0327628D01*
X0323096Y0327597D01*
X0323115Y0327564D01*
X0323132Y0327529D01*
X0323145Y0327492D01*
X0323154Y0327455D01*
X0323160Y0327417D01*
X0323162Y0327378D01*
X0323161Y0327378D02*
X0323161Y0322276D01*
X0323162Y0322276D02*
X0323160Y0322237D01*
X0323154Y0322199D01*
X0323145Y0322162D01*
X0323132Y0322125D01*
X0323115Y0322090D01*
X0323096Y0322057D01*
X0323073Y0322026D01*
X0323047Y0321997D01*
X0323018Y0321971D01*
X0322987Y0321948D01*
X0322954Y0321929D01*
X0322919Y0321912D01*
X0322882Y0321899D01*
X0322845Y0321890D01*
X0322807Y0321884D01*
X0322768Y0321882D01*
X0311547Y0321882D01*
X0311508Y0321884D01*
X0311470Y0321890D01*
X0311433Y0321899D01*
X0311396Y0321912D01*
X0311361Y0321929D01*
X0311328Y0321948D01*
X0311297Y0321971D01*
X0311268Y0321997D01*
X0311242Y0322026D01*
X0311219Y0322057D01*
X0311200Y0322090D01*
X0311183Y0322125D01*
X0311170Y0322162D01*
X0311161Y0322199D01*
X0311155Y0322237D01*
X0311153Y0322276D01*
X0311157Y0323327D02*
X0311233Y0323329D01*
X0311309Y0323335D01*
X0311384Y0323344D01*
X0311459Y0323358D01*
X0311533Y0323375D01*
X0311606Y0323396D01*
X0311678Y0323420D01*
X0311749Y0323449D01*
X0311818Y0323480D01*
X0311885Y0323515D01*
X0311950Y0323554D01*
X0312014Y0323596D01*
X0312075Y0323641D01*
X0312134Y0323689D01*
X0312190Y0323740D01*
X0312244Y0323794D01*
X0312295Y0323850D01*
X0312343Y0323909D01*
X0312388Y0323970D01*
X0312430Y0324034D01*
X0312469Y0324099D01*
X0312504Y0324166D01*
X0312535Y0324235D01*
X0312564Y0324306D01*
X0312588Y0324378D01*
X0312609Y0324451D01*
X0312626Y0324525D01*
X0312640Y0324600D01*
X0312649Y0324675D01*
X0312655Y0324751D01*
X0312657Y0324827D01*
X0312655Y0324903D01*
X0312649Y0324979D01*
X0312640Y0325054D01*
X0312626Y0325129D01*
X0312609Y0325203D01*
X0312588Y0325276D01*
X0312564Y0325348D01*
X0312535Y0325419D01*
X0312504Y0325488D01*
X0312469Y0325555D01*
X0312430Y0325620D01*
X0312388Y0325684D01*
X0312343Y0325745D01*
X0312295Y0325804D01*
X0312244Y0325860D01*
X0312190Y0325914D01*
X0312134Y0325965D01*
X0312075Y0326013D01*
X0312014Y0326058D01*
X0311950Y0326100D01*
X0311885Y0326139D01*
X0311818Y0326174D01*
X0311749Y0326205D01*
X0311678Y0326234D01*
X0311606Y0326258D01*
X0311533Y0326279D01*
X0311459Y0326296D01*
X0311384Y0326310D01*
X0311309Y0326319D01*
X0311233Y0326325D01*
X0311157Y0326327D01*
D12*
X0251274Y0187882D02*
X0252291Y0186864D01*
X0248221Y0182794D01*
X0249239Y0181777D01*
X0251274Y0181777D01*
X0252291Y0182794D01*
X0252291Y0186864D01*
X0251274Y0187882D02*
X0249239Y0187882D01*
X0248221Y0186864D01*
X0248221Y0182794D01*
X0246016Y0182794D02*
X0246016Y0181777D01*
X0244998Y0181777D01*
X0244998Y0182794D01*
X0246016Y0182794D01*
X0242623Y0181777D02*
X0238553Y0181777D01*
X0240588Y0181777D02*
X0240588Y0187882D01*
X0238553Y0185847D01*
X0236178Y0185847D02*
X0234143Y0181777D01*
X0232107Y0185847D01*
X0169357Y0134382D02*
X0169357Y0128277D01*
X0168340Y0128277D02*
X0170375Y0128277D01*
X0165964Y0128277D02*
X0165964Y0131329D01*
X0164947Y0132347D01*
X0162912Y0132347D01*
X0161894Y0131329D01*
X0159519Y0131329D02*
X0159519Y0128277D01*
X0156466Y0128277D01*
X0155449Y0129294D01*
X0156466Y0130312D01*
X0159519Y0130312D01*
X0159519Y0131329D02*
X0158501Y0132347D01*
X0156466Y0132347D01*
X0153073Y0132347D02*
X0150021Y0132347D01*
X0149003Y0131329D01*
X0149003Y0129294D01*
X0150021Y0128277D01*
X0153073Y0128277D01*
X0153073Y0134382D01*
X0146628Y0131329D02*
X0146628Y0128277D01*
X0146628Y0131329D02*
X0145610Y0132347D01*
X0142558Y0132347D01*
X0142558Y0128277D01*
X0140182Y0128277D02*
X0140182Y0131329D01*
X0139165Y0132347D01*
X0136112Y0132347D01*
X0136112Y0128277D01*
X0133737Y0129294D02*
X0133737Y0131329D01*
X0132719Y0132347D01*
X0130684Y0132347D01*
X0129667Y0131329D01*
X0129667Y0129294D01*
X0130684Y0128277D01*
X0132719Y0128277D01*
X0133737Y0129294D01*
X0132719Y0134382D02*
X0132719Y0135400D01*
X0130684Y0135400D02*
X0130684Y0134382D01*
X0127291Y0133364D02*
X0127291Y0131329D01*
X0126274Y0130312D01*
X0123221Y0130312D01*
X0123221Y0128277D02*
X0123221Y0134382D01*
X0126274Y0134382D01*
X0127291Y0133364D01*
X0125256Y0130312D02*
X0127291Y0128277D01*
X0127291Y0123882D02*
X0123221Y0123882D01*
X0123221Y0117777D01*
X0127291Y0117777D01*
X0129667Y0117777D02*
X0129667Y0123882D01*
X0132719Y0121847D02*
X0129667Y0119812D01*
X0132719Y0117777D01*
X0135038Y0117777D02*
X0138091Y0117777D01*
X0139108Y0118794D01*
X0138091Y0119812D01*
X0136055Y0119812D01*
X0135038Y0120829D01*
X0136055Y0121847D01*
X0139108Y0121847D01*
X0141483Y0121847D02*
X0143519Y0121847D01*
X0142501Y0122864D02*
X0142501Y0118794D01*
X0143519Y0117777D01*
X0145780Y0117777D02*
X0145780Y0121847D01*
X0145780Y0119812D02*
X0147816Y0121847D01*
X0148833Y0121847D01*
X0151152Y0120829D02*
X0151152Y0118794D01*
X0152169Y0117777D01*
X0154204Y0117777D01*
X0155222Y0118794D01*
X0155222Y0120829D01*
X0154204Y0121847D01*
X0152169Y0121847D01*
X0151152Y0120829D01*
X0152169Y0123882D02*
X0152169Y0124900D01*
X0154204Y0124900D02*
X0154204Y0123882D01*
X0157597Y0121847D02*
X0157597Y0117777D01*
X0159632Y0117777D02*
X0159632Y0120829D01*
X0160650Y0121847D01*
X0161667Y0120829D01*
X0161667Y0117777D01*
X0159632Y0120829D02*
X0158615Y0121847D01*
X0157597Y0121847D01*
X0161894Y0128277D02*
X0161894Y0134382D01*
X0168340Y0134382D02*
X0169357Y0134382D01*
X0125256Y0120829D02*
X0123221Y0120829D01*
X0114571Y0118794D02*
X0114571Y0117777D01*
X0113553Y0117777D01*
X0113553Y0118794D01*
X0114571Y0118794D01*
X0111178Y0117777D02*
X0111178Y0123882D01*
X0107107Y0123882D02*
X0107107Y0117777D01*
X0111178Y0117777D02*
X0107107Y0123882D01*
X0107107Y0128277D02*
X0107107Y0134382D01*
X0109143Y0132347D01*
X0111178Y0134382D01*
X0111178Y0128277D01*
X0113553Y0128277D02*
X0114571Y0128277D01*
X0114571Y0129294D01*
X0113553Y0129294D01*
X0113553Y0128277D01*
X0330107Y0107364D02*
X0330107Y0103294D01*
X0331125Y0102277D01*
X0333160Y0102277D01*
X0334178Y0103294D01*
X0336553Y0102277D02*
X0336553Y0108382D01*
X0339606Y0108382D01*
X0340623Y0107364D01*
X0340623Y0105329D01*
X0339606Y0104312D01*
X0336553Y0104312D01*
X0338588Y0104312D02*
X0340623Y0102277D01*
X0342998Y0102277D02*
X0347069Y0106347D01*
X0347069Y0107364D01*
X0346051Y0108382D01*
X0344016Y0108382D01*
X0342998Y0107364D01*
X0342998Y0102277D02*
X0347069Y0102277D01*
X0349444Y0103294D02*
X0349444Y0107364D01*
X0350462Y0108382D01*
X0352497Y0108382D01*
X0353514Y0107364D01*
X0349444Y0103294D01*
X0350462Y0102277D01*
X0352497Y0102277D01*
X0353514Y0103294D01*
X0353514Y0107364D01*
X0355889Y0107364D02*
X0356907Y0108382D01*
X0358942Y0108382D01*
X0359960Y0107364D01*
X0359960Y0106347D01*
X0358942Y0105329D01*
X0359960Y0104312D01*
X0359960Y0103294D01*
X0358942Y0102277D01*
X0356907Y0102277D01*
X0355889Y0103294D01*
X0357925Y0105329D02*
X0358942Y0105329D01*
X0362335Y0107364D02*
X0363352Y0108382D01*
X0365388Y0108382D01*
X0366405Y0107364D01*
X0366405Y0106347D01*
X0362335Y0102277D01*
X0366405Y0102277D01*
X0334178Y0107364D02*
X0333160Y0108382D01*
X0331125Y0108382D01*
X0330107Y0107364D01*
D13*
X0380657Y0163327D02*
X0380657Y0171327D01*
X0375657Y0171327D02*
X0375657Y0165827D01*
X0385657Y0167827D02*
X0385657Y0171327D01*
X0375657Y0238327D02*
X0375657Y0246327D01*
X0385657Y0246327D02*
X0385657Y0242827D01*
X0375657Y0313327D02*
X0375657Y0321327D01*
X0385657Y0321327D02*
X0385657Y0317827D01*
D14*
X0390484Y0181039D02*
X0370799Y0181039D01*
X0370799Y0173165D01*
X0390484Y0173165D01*
X0390484Y0181039D01*
X0392491Y0176580D02*
X0391907Y0175996D01*
X0391907Y0173661D01*
X0392491Y0173077D01*
X0393659Y0173077D01*
X0394243Y0173661D01*
X0394243Y0174828D01*
X0393075Y0174828D01*
X0394243Y0175996D02*
X0393659Y0176580D01*
X0392491Y0176580D01*
X0369243Y0175996D02*
X0369243Y0174828D01*
X0368659Y0174244D01*
X0366907Y0174244D01*
X0366907Y0173077D02*
X0366907Y0176580D01*
X0368659Y0176580D01*
X0369243Y0175996D01*
X0368075Y0174244D02*
X0369243Y0173077D01*
X0339343Y0155291D02*
X0299972Y0155291D01*
X0299972Y0149780D02*
X0339343Y0149780D01*
X0225950Y0130827D02*
X0225952Y0130880D01*
X0225958Y0130932D01*
X0225968Y0130984D01*
X0225981Y0131035D01*
X0225999Y0131085D01*
X0226020Y0131134D01*
X0226045Y0131181D01*
X0226073Y0131225D01*
X0226104Y0131268D01*
X0226139Y0131308D01*
X0226176Y0131345D01*
X0226216Y0131380D01*
X0226259Y0131411D01*
X0226304Y0131439D01*
X0226350Y0131464D01*
X0226399Y0131485D01*
X0226449Y0131503D01*
X0226500Y0131516D01*
X0226552Y0131526D01*
X0226604Y0131532D01*
X0226657Y0131534D01*
X0226710Y0131532D01*
X0226762Y0131526D01*
X0226814Y0131516D01*
X0226865Y0131503D01*
X0226915Y0131485D01*
X0226964Y0131464D01*
X0227011Y0131439D01*
X0227055Y0131411D01*
X0227098Y0131380D01*
X0227138Y0131345D01*
X0227175Y0131308D01*
X0227210Y0131268D01*
X0227241Y0131225D01*
X0227269Y0131180D01*
X0227294Y0131134D01*
X0227315Y0131085D01*
X0227333Y0131035D01*
X0227346Y0130984D01*
X0227356Y0130932D01*
X0227362Y0130880D01*
X0227364Y0130827D01*
X0227362Y0130774D01*
X0227356Y0130722D01*
X0227346Y0130670D01*
X0227333Y0130619D01*
X0227315Y0130569D01*
X0227294Y0130520D01*
X0227269Y0130473D01*
X0227241Y0130429D01*
X0227210Y0130386D01*
X0227175Y0130346D01*
X0227138Y0130309D01*
X0227098Y0130274D01*
X0227055Y0130243D01*
X0227010Y0130215D01*
X0226964Y0130190D01*
X0226915Y0130169D01*
X0226865Y0130151D01*
X0226814Y0130138D01*
X0226762Y0130128D01*
X0226710Y0130122D01*
X0226657Y0130120D01*
X0226604Y0130122D01*
X0226552Y0130128D01*
X0226500Y0130138D01*
X0226449Y0130151D01*
X0226399Y0130169D01*
X0226350Y0130190D01*
X0226303Y0130215D01*
X0226259Y0130243D01*
X0226216Y0130274D01*
X0226176Y0130309D01*
X0226139Y0130346D01*
X0226104Y0130386D01*
X0226073Y0130429D01*
X0226045Y0130474D01*
X0226020Y0130520D01*
X0225999Y0130569D01*
X0225981Y0130619D01*
X0225968Y0130670D01*
X0225958Y0130722D01*
X0225952Y0130774D01*
X0225950Y0130827D01*
X0096469Y0177181D02*
X0096469Y0226787D01*
X0096468Y0226787D02*
X0096466Y0226841D01*
X0096461Y0226894D01*
X0096452Y0226947D01*
X0096439Y0226999D01*
X0096423Y0227051D01*
X0096403Y0227101D01*
X0096380Y0227149D01*
X0096353Y0227196D01*
X0096324Y0227241D01*
X0096291Y0227284D01*
X0096256Y0227324D01*
X0096218Y0227362D01*
X0096178Y0227397D01*
X0096135Y0227430D01*
X0096090Y0227459D01*
X0096043Y0227486D01*
X0095995Y0227509D01*
X0095945Y0227529D01*
X0095893Y0227545D01*
X0095841Y0227558D01*
X0095788Y0227567D01*
X0095735Y0227572D01*
X0095681Y0227574D01*
X0095681Y0227575D02*
X0086626Y0227575D01*
X0082689Y0227575D01*
X0073634Y0227575D01*
X0073634Y0227574D02*
X0073580Y0227572D01*
X0073527Y0227567D01*
X0073474Y0227558D01*
X0073422Y0227545D01*
X0073370Y0227529D01*
X0073320Y0227509D01*
X0073272Y0227486D01*
X0073225Y0227459D01*
X0073180Y0227430D01*
X0073137Y0227397D01*
X0073097Y0227362D01*
X0073059Y0227324D01*
X0073024Y0227284D01*
X0072991Y0227241D01*
X0072962Y0227196D01*
X0072935Y0227149D01*
X0072912Y0227101D01*
X0072892Y0227051D01*
X0072876Y0226999D01*
X0072863Y0226947D01*
X0072854Y0226894D01*
X0072849Y0226841D01*
X0072847Y0226787D01*
X0072846Y0226787D02*
X0072846Y0177181D01*
X0072847Y0177181D02*
X0072849Y0177127D01*
X0072854Y0177074D01*
X0072863Y0177021D01*
X0072876Y0176969D01*
X0072892Y0176917D01*
X0072912Y0176867D01*
X0072935Y0176819D01*
X0072962Y0176772D01*
X0072991Y0176727D01*
X0073024Y0176684D01*
X0073059Y0176644D01*
X0073097Y0176606D01*
X0073137Y0176571D01*
X0073180Y0176538D01*
X0073225Y0176509D01*
X0073272Y0176482D01*
X0073320Y0176459D01*
X0073370Y0176439D01*
X0073422Y0176423D01*
X0073474Y0176410D01*
X0073527Y0176401D01*
X0073580Y0176396D01*
X0073634Y0176394D01*
X0095681Y0176394D01*
X0095735Y0176396D01*
X0095788Y0176401D01*
X0095841Y0176410D01*
X0095893Y0176423D01*
X0095945Y0176439D01*
X0095995Y0176459D01*
X0096043Y0176482D01*
X0096090Y0176509D01*
X0096135Y0176538D01*
X0096178Y0176571D01*
X0096218Y0176606D01*
X0096256Y0176644D01*
X0096291Y0176684D01*
X0096324Y0176727D01*
X0096353Y0176772D01*
X0096380Y0176819D01*
X0096403Y0176867D01*
X0096423Y0176917D01*
X0096439Y0176969D01*
X0096452Y0177021D01*
X0096461Y0177074D01*
X0096466Y0177127D01*
X0096468Y0177181D01*
X0074407Y0224622D02*
X0074409Y0224696D01*
X0074415Y0224770D01*
X0074425Y0224843D01*
X0074438Y0224916D01*
X0074456Y0224988D01*
X0074477Y0225059D01*
X0074503Y0225129D01*
X0074531Y0225197D01*
X0074564Y0225264D01*
X0074600Y0225329D01*
X0074639Y0225391D01*
X0074682Y0225452D01*
X0074727Y0225510D01*
X0074776Y0225566D01*
X0074828Y0225619D01*
X0074882Y0225670D01*
X0074939Y0225717D01*
X0074999Y0225761D01*
X0075061Y0225802D01*
X0075125Y0225840D01*
X0075190Y0225874D01*
X0075258Y0225904D01*
X0075327Y0225931D01*
X0075397Y0225955D01*
X0075469Y0225974D01*
X0075541Y0225990D01*
X0075614Y0226002D01*
X0075688Y0226010D01*
X0075762Y0226014D01*
X0075836Y0226014D01*
X0075910Y0226010D01*
X0075984Y0226002D01*
X0076057Y0225990D01*
X0076129Y0225974D01*
X0076201Y0225955D01*
X0076271Y0225931D01*
X0076340Y0225904D01*
X0076408Y0225874D01*
X0076473Y0225840D01*
X0076537Y0225802D01*
X0076599Y0225761D01*
X0076659Y0225717D01*
X0076716Y0225670D01*
X0076770Y0225619D01*
X0076822Y0225566D01*
X0076871Y0225510D01*
X0076916Y0225452D01*
X0076959Y0225391D01*
X0076998Y0225329D01*
X0077034Y0225264D01*
X0077067Y0225197D01*
X0077095Y0225129D01*
X0077121Y0225059D01*
X0077142Y0224988D01*
X0077160Y0224916D01*
X0077173Y0224843D01*
X0077183Y0224770D01*
X0077189Y0224696D01*
X0077191Y0224622D01*
X0077189Y0224548D01*
X0077183Y0224474D01*
X0077173Y0224401D01*
X0077160Y0224328D01*
X0077142Y0224256D01*
X0077121Y0224185D01*
X0077095Y0224115D01*
X0077067Y0224047D01*
X0077034Y0223980D01*
X0076998Y0223915D01*
X0076959Y0223853D01*
X0076916Y0223792D01*
X0076871Y0223734D01*
X0076822Y0223678D01*
X0076770Y0223625D01*
X0076716Y0223574D01*
X0076659Y0223527D01*
X0076599Y0223483D01*
X0076537Y0223442D01*
X0076473Y0223404D01*
X0076408Y0223370D01*
X0076340Y0223340D01*
X0076271Y0223313D01*
X0076201Y0223289D01*
X0076129Y0223270D01*
X0076057Y0223254D01*
X0075984Y0223242D01*
X0075910Y0223234D01*
X0075836Y0223230D01*
X0075762Y0223230D01*
X0075688Y0223234D01*
X0075614Y0223242D01*
X0075541Y0223254D01*
X0075469Y0223270D01*
X0075397Y0223289D01*
X0075327Y0223313D01*
X0075258Y0223340D01*
X0075190Y0223370D01*
X0075125Y0223404D01*
X0075061Y0223442D01*
X0074999Y0223483D01*
X0074939Y0223527D01*
X0074882Y0223574D01*
X0074828Y0223625D01*
X0074776Y0223678D01*
X0074727Y0223734D01*
X0074682Y0223792D01*
X0074639Y0223853D01*
X0074600Y0223915D01*
X0074564Y0223980D01*
X0074531Y0224047D01*
X0074503Y0224115D01*
X0074477Y0224185D01*
X0074456Y0224256D01*
X0074438Y0224328D01*
X0074425Y0224401D01*
X0074415Y0224474D01*
X0074409Y0224548D01*
X0074407Y0224622D01*
X0073634Y0231512D02*
X0095681Y0231512D01*
X0095735Y0231514D01*
X0095788Y0231519D01*
X0095841Y0231528D01*
X0095893Y0231541D01*
X0095945Y0231557D01*
X0095995Y0231577D01*
X0096043Y0231600D01*
X0096090Y0231627D01*
X0096135Y0231656D01*
X0096178Y0231689D01*
X0096218Y0231724D01*
X0096256Y0231762D01*
X0096291Y0231802D01*
X0096324Y0231845D01*
X0096353Y0231890D01*
X0096380Y0231937D01*
X0096403Y0231985D01*
X0096423Y0232035D01*
X0096439Y0232087D01*
X0096452Y0232139D01*
X0096461Y0232192D01*
X0096466Y0232245D01*
X0096468Y0232299D01*
X0096469Y0232299D02*
X0096469Y0281906D01*
X0096468Y0281906D02*
X0096466Y0281960D01*
X0096461Y0282013D01*
X0096452Y0282066D01*
X0096439Y0282118D01*
X0096423Y0282170D01*
X0096403Y0282220D01*
X0096380Y0282268D01*
X0096353Y0282315D01*
X0096324Y0282360D01*
X0096291Y0282403D01*
X0096256Y0282443D01*
X0096218Y0282481D01*
X0096178Y0282516D01*
X0096135Y0282549D01*
X0096090Y0282578D01*
X0096043Y0282605D01*
X0095995Y0282628D01*
X0095945Y0282648D01*
X0095893Y0282664D01*
X0095841Y0282677D01*
X0095788Y0282686D01*
X0095735Y0282691D01*
X0095681Y0282693D01*
X0086626Y0282693D01*
X0082689Y0282693D01*
X0073634Y0282693D01*
X0073580Y0282691D01*
X0073527Y0282686D01*
X0073474Y0282677D01*
X0073422Y0282664D01*
X0073370Y0282648D01*
X0073320Y0282628D01*
X0073272Y0282605D01*
X0073225Y0282578D01*
X0073180Y0282549D01*
X0073137Y0282516D01*
X0073097Y0282481D01*
X0073059Y0282443D01*
X0073024Y0282403D01*
X0072991Y0282360D01*
X0072962Y0282315D01*
X0072935Y0282268D01*
X0072912Y0282220D01*
X0072892Y0282170D01*
X0072876Y0282118D01*
X0072863Y0282066D01*
X0072854Y0282013D01*
X0072849Y0281960D01*
X0072847Y0281906D01*
X0072846Y0281906D02*
X0072846Y0232299D01*
X0072847Y0232299D02*
X0072849Y0232245D01*
X0072854Y0232192D01*
X0072863Y0232139D01*
X0072876Y0232087D01*
X0072892Y0232035D01*
X0072912Y0231985D01*
X0072935Y0231937D01*
X0072962Y0231890D01*
X0072991Y0231845D01*
X0073024Y0231802D01*
X0073059Y0231762D01*
X0073097Y0231724D01*
X0073137Y0231689D01*
X0073180Y0231656D01*
X0073225Y0231627D01*
X0073272Y0231600D01*
X0073320Y0231577D01*
X0073370Y0231557D01*
X0073422Y0231541D01*
X0073474Y0231528D01*
X0073527Y0231519D01*
X0073580Y0231514D01*
X0073634Y0231512D01*
X0082688Y0227575D02*
X0082690Y0227488D01*
X0082696Y0227401D01*
X0082705Y0227314D01*
X0082719Y0227228D01*
X0082736Y0227143D01*
X0082757Y0227058D01*
X0082782Y0226975D01*
X0082810Y0226892D01*
X0082842Y0226811D01*
X0082878Y0226732D01*
X0082917Y0226654D01*
X0082959Y0226578D01*
X0083005Y0226504D01*
X0083054Y0226432D01*
X0083106Y0226362D01*
X0083161Y0226295D01*
X0083219Y0226230D01*
X0083280Y0226167D01*
X0083344Y0226108D01*
X0083410Y0226051D01*
X0083479Y0225998D01*
X0083550Y0225947D01*
X0083623Y0225900D01*
X0083698Y0225855D01*
X0083775Y0225815D01*
X0083853Y0225777D01*
X0083934Y0225744D01*
X0084015Y0225713D01*
X0084098Y0225687D01*
X0084183Y0225664D01*
X0084268Y0225645D01*
X0084353Y0225630D01*
X0084440Y0225618D01*
X0084526Y0225610D01*
X0084613Y0225606D01*
X0084701Y0225606D01*
X0084788Y0225610D01*
X0084874Y0225618D01*
X0084961Y0225630D01*
X0085046Y0225645D01*
X0085131Y0225664D01*
X0085216Y0225687D01*
X0085299Y0225713D01*
X0085380Y0225744D01*
X0085461Y0225777D01*
X0085539Y0225815D01*
X0085616Y0225855D01*
X0085691Y0225900D01*
X0085764Y0225947D01*
X0085835Y0225998D01*
X0085904Y0226051D01*
X0085970Y0226108D01*
X0086034Y0226167D01*
X0086095Y0226230D01*
X0086153Y0226295D01*
X0086208Y0226362D01*
X0086260Y0226432D01*
X0086309Y0226504D01*
X0086355Y0226578D01*
X0086397Y0226654D01*
X0086436Y0226732D01*
X0086472Y0226811D01*
X0086504Y0226892D01*
X0086532Y0226975D01*
X0086557Y0227058D01*
X0086578Y0227143D01*
X0086595Y0227228D01*
X0086609Y0227314D01*
X0086618Y0227401D01*
X0086624Y0227488D01*
X0086626Y0227575D01*
X0074407Y0279740D02*
X0074409Y0279814D01*
X0074415Y0279888D01*
X0074425Y0279961D01*
X0074438Y0280034D01*
X0074456Y0280106D01*
X0074477Y0280177D01*
X0074503Y0280247D01*
X0074531Y0280315D01*
X0074564Y0280382D01*
X0074600Y0280447D01*
X0074639Y0280509D01*
X0074682Y0280570D01*
X0074727Y0280628D01*
X0074776Y0280684D01*
X0074828Y0280737D01*
X0074882Y0280788D01*
X0074939Y0280835D01*
X0074999Y0280879D01*
X0075061Y0280920D01*
X0075125Y0280958D01*
X0075190Y0280992D01*
X0075258Y0281022D01*
X0075327Y0281049D01*
X0075397Y0281073D01*
X0075469Y0281092D01*
X0075541Y0281108D01*
X0075614Y0281120D01*
X0075688Y0281128D01*
X0075762Y0281132D01*
X0075836Y0281132D01*
X0075910Y0281128D01*
X0075984Y0281120D01*
X0076057Y0281108D01*
X0076129Y0281092D01*
X0076201Y0281073D01*
X0076271Y0281049D01*
X0076340Y0281022D01*
X0076408Y0280992D01*
X0076473Y0280958D01*
X0076537Y0280920D01*
X0076599Y0280879D01*
X0076659Y0280835D01*
X0076716Y0280788D01*
X0076770Y0280737D01*
X0076822Y0280684D01*
X0076871Y0280628D01*
X0076916Y0280570D01*
X0076959Y0280509D01*
X0076998Y0280447D01*
X0077034Y0280382D01*
X0077067Y0280315D01*
X0077095Y0280247D01*
X0077121Y0280177D01*
X0077142Y0280106D01*
X0077160Y0280034D01*
X0077173Y0279961D01*
X0077183Y0279888D01*
X0077189Y0279814D01*
X0077191Y0279740D01*
X0077189Y0279666D01*
X0077183Y0279592D01*
X0077173Y0279519D01*
X0077160Y0279446D01*
X0077142Y0279374D01*
X0077121Y0279303D01*
X0077095Y0279233D01*
X0077067Y0279165D01*
X0077034Y0279098D01*
X0076998Y0279033D01*
X0076959Y0278971D01*
X0076916Y0278910D01*
X0076871Y0278852D01*
X0076822Y0278796D01*
X0076770Y0278743D01*
X0076716Y0278692D01*
X0076659Y0278645D01*
X0076599Y0278601D01*
X0076537Y0278560D01*
X0076473Y0278522D01*
X0076408Y0278488D01*
X0076340Y0278458D01*
X0076271Y0278431D01*
X0076201Y0278407D01*
X0076129Y0278388D01*
X0076057Y0278372D01*
X0075984Y0278360D01*
X0075910Y0278352D01*
X0075836Y0278348D01*
X0075762Y0278348D01*
X0075688Y0278352D01*
X0075614Y0278360D01*
X0075541Y0278372D01*
X0075469Y0278388D01*
X0075397Y0278407D01*
X0075327Y0278431D01*
X0075258Y0278458D01*
X0075190Y0278488D01*
X0075125Y0278522D01*
X0075061Y0278560D01*
X0074999Y0278601D01*
X0074939Y0278645D01*
X0074882Y0278692D01*
X0074828Y0278743D01*
X0074776Y0278796D01*
X0074727Y0278852D01*
X0074682Y0278910D01*
X0074639Y0278971D01*
X0074600Y0279033D01*
X0074564Y0279098D01*
X0074531Y0279165D01*
X0074503Y0279233D01*
X0074477Y0279303D01*
X0074456Y0279374D01*
X0074438Y0279446D01*
X0074425Y0279519D01*
X0074415Y0279592D01*
X0074409Y0279666D01*
X0074407Y0279740D01*
X0073634Y0286630D02*
X0095681Y0286630D01*
X0095735Y0286632D01*
X0095788Y0286637D01*
X0095841Y0286646D01*
X0095893Y0286659D01*
X0095945Y0286675D01*
X0095995Y0286695D01*
X0096043Y0286718D01*
X0096090Y0286745D01*
X0096135Y0286774D01*
X0096178Y0286807D01*
X0096218Y0286842D01*
X0096256Y0286880D01*
X0096291Y0286920D01*
X0096324Y0286963D01*
X0096353Y0287008D01*
X0096380Y0287055D01*
X0096403Y0287103D01*
X0096423Y0287153D01*
X0096439Y0287205D01*
X0096452Y0287257D01*
X0096461Y0287310D01*
X0096466Y0287363D01*
X0096468Y0287417D01*
X0096469Y0287417D02*
X0096469Y0337024D01*
X0096468Y0337024D02*
X0096466Y0337078D01*
X0096461Y0337131D01*
X0096452Y0337184D01*
X0096439Y0337236D01*
X0096423Y0337288D01*
X0096403Y0337338D01*
X0096380Y0337386D01*
X0096353Y0337433D01*
X0096324Y0337478D01*
X0096291Y0337521D01*
X0096256Y0337561D01*
X0096218Y0337599D01*
X0096178Y0337634D01*
X0096135Y0337667D01*
X0096090Y0337696D01*
X0096043Y0337723D01*
X0095995Y0337746D01*
X0095945Y0337766D01*
X0095893Y0337782D01*
X0095841Y0337795D01*
X0095788Y0337804D01*
X0095735Y0337809D01*
X0095681Y0337811D01*
X0086626Y0337811D01*
X0082689Y0337811D01*
X0073634Y0337811D01*
X0073580Y0337809D01*
X0073527Y0337804D01*
X0073474Y0337795D01*
X0073422Y0337782D01*
X0073370Y0337766D01*
X0073320Y0337746D01*
X0073272Y0337723D01*
X0073225Y0337696D01*
X0073180Y0337667D01*
X0073137Y0337634D01*
X0073097Y0337599D01*
X0073059Y0337561D01*
X0073024Y0337521D01*
X0072991Y0337478D01*
X0072962Y0337433D01*
X0072935Y0337386D01*
X0072912Y0337338D01*
X0072892Y0337288D01*
X0072876Y0337236D01*
X0072863Y0337184D01*
X0072854Y0337131D01*
X0072849Y0337078D01*
X0072847Y0337024D01*
X0072846Y0337024D02*
X0072846Y0287417D01*
X0072847Y0287417D02*
X0072849Y0287363D01*
X0072854Y0287310D01*
X0072863Y0287257D01*
X0072876Y0287205D01*
X0072892Y0287153D01*
X0072912Y0287103D01*
X0072935Y0287055D01*
X0072962Y0287008D01*
X0072991Y0286963D01*
X0073024Y0286920D01*
X0073059Y0286880D01*
X0073097Y0286842D01*
X0073137Y0286807D01*
X0073180Y0286774D01*
X0073225Y0286745D01*
X0073272Y0286718D01*
X0073320Y0286695D01*
X0073370Y0286675D01*
X0073422Y0286659D01*
X0073474Y0286646D01*
X0073527Y0286637D01*
X0073580Y0286632D01*
X0073634Y0286630D01*
X0082688Y0282693D02*
X0082690Y0282606D01*
X0082696Y0282519D01*
X0082705Y0282432D01*
X0082719Y0282346D01*
X0082736Y0282261D01*
X0082757Y0282176D01*
X0082782Y0282093D01*
X0082810Y0282010D01*
X0082842Y0281929D01*
X0082878Y0281850D01*
X0082917Y0281772D01*
X0082959Y0281696D01*
X0083005Y0281622D01*
X0083054Y0281550D01*
X0083106Y0281480D01*
X0083161Y0281413D01*
X0083219Y0281348D01*
X0083280Y0281285D01*
X0083344Y0281226D01*
X0083410Y0281169D01*
X0083479Y0281116D01*
X0083550Y0281065D01*
X0083623Y0281018D01*
X0083698Y0280973D01*
X0083775Y0280933D01*
X0083853Y0280895D01*
X0083934Y0280862D01*
X0084015Y0280831D01*
X0084098Y0280805D01*
X0084183Y0280782D01*
X0084268Y0280763D01*
X0084353Y0280748D01*
X0084440Y0280736D01*
X0084526Y0280728D01*
X0084613Y0280724D01*
X0084701Y0280724D01*
X0084788Y0280728D01*
X0084874Y0280736D01*
X0084961Y0280748D01*
X0085046Y0280763D01*
X0085131Y0280782D01*
X0085216Y0280805D01*
X0085299Y0280831D01*
X0085380Y0280862D01*
X0085461Y0280895D01*
X0085539Y0280933D01*
X0085616Y0280973D01*
X0085691Y0281018D01*
X0085764Y0281065D01*
X0085835Y0281116D01*
X0085904Y0281169D01*
X0085970Y0281226D01*
X0086034Y0281285D01*
X0086095Y0281348D01*
X0086153Y0281413D01*
X0086208Y0281480D01*
X0086260Y0281550D01*
X0086309Y0281622D01*
X0086355Y0281696D01*
X0086397Y0281772D01*
X0086436Y0281850D01*
X0086472Y0281929D01*
X0086504Y0282010D01*
X0086532Y0282093D01*
X0086557Y0282176D01*
X0086578Y0282261D01*
X0086595Y0282346D01*
X0086609Y0282432D01*
X0086618Y0282519D01*
X0086624Y0282606D01*
X0086626Y0282693D01*
X0074407Y0334858D02*
X0074409Y0334932D01*
X0074415Y0335006D01*
X0074425Y0335079D01*
X0074438Y0335152D01*
X0074456Y0335224D01*
X0074477Y0335295D01*
X0074503Y0335365D01*
X0074531Y0335433D01*
X0074564Y0335500D01*
X0074600Y0335565D01*
X0074639Y0335627D01*
X0074682Y0335688D01*
X0074727Y0335746D01*
X0074776Y0335802D01*
X0074828Y0335855D01*
X0074882Y0335906D01*
X0074939Y0335953D01*
X0074999Y0335997D01*
X0075061Y0336038D01*
X0075125Y0336076D01*
X0075190Y0336110D01*
X0075258Y0336140D01*
X0075327Y0336167D01*
X0075397Y0336191D01*
X0075469Y0336210D01*
X0075541Y0336226D01*
X0075614Y0336238D01*
X0075688Y0336246D01*
X0075762Y0336250D01*
X0075836Y0336250D01*
X0075910Y0336246D01*
X0075984Y0336238D01*
X0076057Y0336226D01*
X0076129Y0336210D01*
X0076201Y0336191D01*
X0076271Y0336167D01*
X0076340Y0336140D01*
X0076408Y0336110D01*
X0076473Y0336076D01*
X0076537Y0336038D01*
X0076599Y0335997D01*
X0076659Y0335953D01*
X0076716Y0335906D01*
X0076770Y0335855D01*
X0076822Y0335802D01*
X0076871Y0335746D01*
X0076916Y0335688D01*
X0076959Y0335627D01*
X0076998Y0335565D01*
X0077034Y0335500D01*
X0077067Y0335433D01*
X0077095Y0335365D01*
X0077121Y0335295D01*
X0077142Y0335224D01*
X0077160Y0335152D01*
X0077173Y0335079D01*
X0077183Y0335006D01*
X0077189Y0334932D01*
X0077191Y0334858D01*
X0077189Y0334784D01*
X0077183Y0334710D01*
X0077173Y0334637D01*
X0077160Y0334564D01*
X0077142Y0334492D01*
X0077121Y0334421D01*
X0077095Y0334351D01*
X0077067Y0334283D01*
X0077034Y0334216D01*
X0076998Y0334151D01*
X0076959Y0334089D01*
X0076916Y0334028D01*
X0076871Y0333970D01*
X0076822Y0333914D01*
X0076770Y0333861D01*
X0076716Y0333810D01*
X0076659Y0333763D01*
X0076599Y0333719D01*
X0076537Y0333678D01*
X0076473Y0333640D01*
X0076408Y0333606D01*
X0076340Y0333576D01*
X0076271Y0333549D01*
X0076201Y0333525D01*
X0076129Y0333506D01*
X0076057Y0333490D01*
X0075984Y0333478D01*
X0075910Y0333470D01*
X0075836Y0333466D01*
X0075762Y0333466D01*
X0075688Y0333470D01*
X0075614Y0333478D01*
X0075541Y0333490D01*
X0075469Y0333506D01*
X0075397Y0333525D01*
X0075327Y0333549D01*
X0075258Y0333576D01*
X0075190Y0333606D01*
X0075125Y0333640D01*
X0075061Y0333678D01*
X0074999Y0333719D01*
X0074939Y0333763D01*
X0074882Y0333810D01*
X0074828Y0333861D01*
X0074776Y0333914D01*
X0074727Y0333970D01*
X0074682Y0334028D01*
X0074639Y0334089D01*
X0074600Y0334151D01*
X0074564Y0334216D01*
X0074531Y0334283D01*
X0074503Y0334351D01*
X0074477Y0334421D01*
X0074456Y0334492D01*
X0074438Y0334564D01*
X0074425Y0334637D01*
X0074415Y0334710D01*
X0074409Y0334784D01*
X0074407Y0334858D01*
X0082688Y0337811D02*
X0082690Y0337724D01*
X0082696Y0337637D01*
X0082705Y0337550D01*
X0082719Y0337464D01*
X0082736Y0337379D01*
X0082757Y0337294D01*
X0082782Y0337211D01*
X0082810Y0337128D01*
X0082842Y0337047D01*
X0082878Y0336968D01*
X0082917Y0336890D01*
X0082959Y0336814D01*
X0083005Y0336740D01*
X0083054Y0336668D01*
X0083106Y0336598D01*
X0083161Y0336531D01*
X0083219Y0336466D01*
X0083280Y0336403D01*
X0083344Y0336344D01*
X0083410Y0336287D01*
X0083479Y0336234D01*
X0083550Y0336183D01*
X0083623Y0336136D01*
X0083698Y0336091D01*
X0083775Y0336051D01*
X0083853Y0336013D01*
X0083934Y0335980D01*
X0084015Y0335949D01*
X0084098Y0335923D01*
X0084183Y0335900D01*
X0084268Y0335881D01*
X0084353Y0335866D01*
X0084440Y0335854D01*
X0084526Y0335846D01*
X0084613Y0335842D01*
X0084701Y0335842D01*
X0084788Y0335846D01*
X0084874Y0335854D01*
X0084961Y0335866D01*
X0085046Y0335881D01*
X0085131Y0335900D01*
X0085216Y0335923D01*
X0085299Y0335949D01*
X0085380Y0335980D01*
X0085461Y0336013D01*
X0085539Y0336051D01*
X0085616Y0336091D01*
X0085691Y0336136D01*
X0085764Y0336183D01*
X0085835Y0336234D01*
X0085904Y0336287D01*
X0085970Y0336344D01*
X0086034Y0336403D01*
X0086095Y0336466D01*
X0086153Y0336531D01*
X0086208Y0336598D01*
X0086260Y0336668D01*
X0086309Y0336740D01*
X0086355Y0336814D01*
X0086397Y0336890D01*
X0086436Y0336968D01*
X0086472Y0337047D01*
X0086504Y0337128D01*
X0086532Y0337211D01*
X0086557Y0337294D01*
X0086578Y0337379D01*
X0086595Y0337464D01*
X0086609Y0337550D01*
X0086618Y0337637D01*
X0086624Y0337724D01*
X0086626Y0337811D01*
X0018000Y0281618D02*
X0011000Y0281618D01*
X0014500Y0278118D01*
X0018000Y0281618D01*
X0017628Y0281246D02*
X0011372Y0281246D01*
X0011870Y0280748D02*
X0017130Y0280748D01*
X0016631Y0280249D02*
X0012369Y0280249D01*
X0012867Y0279751D02*
X0016133Y0279751D01*
X0015634Y0279252D02*
X0013366Y0279252D01*
X0013864Y0278754D02*
X0015136Y0278754D01*
X0014637Y0278255D02*
X0014363Y0278255D01*
X0017991Y0128580D02*
X0017407Y0127996D01*
X0017991Y0128580D02*
X0019159Y0128580D01*
X0019743Y0127996D01*
X0019743Y0127412D01*
X0017407Y0125077D01*
X0019743Y0125077D01*
D15*
X0038657Y0092138D02*
X0044657Y0092138D01*
X0044657Y0095138D01*
X0038657Y0095138D02*
X0038657Y0092138D01*
X0037657Y0096827D02*
X0037657Y0099827D01*
X0038657Y0102138D02*
X0038657Y0105138D01*
X0044657Y0105138D01*
X0044657Y0102138D01*
X0037657Y0106827D02*
X0037657Y0109827D01*
X0031657Y0109827D01*
X0031657Y0106827D01*
X0031657Y0099827D02*
X0031657Y0096827D01*
X0037657Y0096827D01*
X0104894Y0181827D02*
X0104894Y0184626D01*
X0104894Y0181827D02*
X0110799Y0181827D01*
X0110799Y0184626D01*
X0110799Y0191626D02*
X0110799Y0194425D01*
X0104894Y0194425D01*
X0104894Y0191626D01*
X0104894Y0209465D02*
X0110799Y0209465D01*
X0110799Y0212264D01*
X0104894Y0212264D02*
X0104894Y0209465D01*
X0104894Y0219264D02*
X0104894Y0222063D01*
X0110799Y0222063D01*
X0110799Y0219264D01*
X0139542Y0196592D02*
X0139133Y0196063D01*
X0138751Y0195570D01*
X0138399Y0195114D01*
X0138078Y0194700D01*
X0137790Y0194327D01*
X0137534Y0193996D01*
X0137623Y0194111D02*
X0136152Y0192199D01*
X0136088Y0192121D01*
X0136012Y0192025D01*
X0135920Y0191910D01*
X0135813Y0191773D01*
X0135690Y0191614D01*
X0135548Y0191432D01*
X0135390Y0191227D01*
X0135215Y0191002D01*
X0135026Y0190757D01*
X0134824Y0190496D01*
X0134611Y0190221D01*
X0134392Y0189937D01*
X0134168Y0189648D01*
X0133944Y0189359D01*
X0133723Y0189073D01*
X0133508Y0188796D01*
X0133303Y0188530D01*
X0133109Y0188280D01*
X0132929Y0188047D01*
X0132764Y0187834D01*
X0132615Y0187641D01*
X0132482Y0187469D01*
X0132364Y0187316D01*
X0132261Y0187182D01*
X0132171Y0187065D01*
X0132092Y0186962D01*
X0132022Y0186871D01*
X0131960Y0186789D01*
X0131904Y0186715D01*
X0131851Y0186646D01*
X0131801Y0186579D01*
X0131751Y0186512D01*
X0131700Y0186445D01*
X0131648Y0186376D01*
X0131593Y0186305D01*
X0131536Y0186230D01*
X0131476Y0186151D01*
X0131412Y0186068D01*
X0131346Y0185983D01*
X0131276Y0185894D01*
X0131204Y0185802D01*
X0131129Y0185708D01*
X0131052Y0185612D01*
X0130973Y0185516D01*
X0130893Y0185420D01*
X0130813Y0185323D01*
X0130731Y0185229D01*
X0130650Y0185136D01*
X0130570Y0185045D01*
X0130490Y0184957D01*
X0130411Y0184873D01*
X0130334Y0184792D01*
X0130259Y0184715D01*
X0130186Y0184642D01*
X0130115Y0184573D01*
X0130046Y0184508D01*
X0129980Y0184447D01*
X0129917Y0184390D01*
X0129856Y0184337D01*
X0129797Y0184288D01*
X0129741Y0184242D01*
X0129688Y0184200D01*
X0129637Y0184160D01*
X0129588Y0184124D01*
X0129541Y0184090D01*
X0129496Y0184059D01*
X0129452Y0184030D01*
X0129409Y0184003D01*
X0129368Y0183979D01*
X0129328Y0183956D01*
X0129288Y0183936D01*
X0129249Y0183917D01*
X0129210Y0183899D01*
X0129171Y0183884D01*
X0129133Y0183869D01*
X0129094Y0183856D01*
X0129056Y0183843D01*
X0129017Y0183832D01*
X0128977Y0183821D01*
X0128937Y0183811D01*
X0128897Y0183802D01*
X0128856Y0183793D01*
X0128814Y0183784D01*
X0128771Y0183776D01*
X0128727Y0183768D01*
X0128682Y0183760D01*
X0128635Y0183752D01*
X0128587Y0183744D01*
X0128538Y0183737D01*
X0128486Y0183729D01*
X0128433Y0183721D01*
X0128378Y0183714D01*
X0128320Y0183706D01*
X0128261Y0183699D01*
X0128199Y0183691D01*
X0128135Y0183683D01*
X0128069Y0183676D01*
X0128000Y0183667D01*
X0127930Y0183659D01*
X0127858Y0183650D01*
X0127785Y0183641D01*
X0127710Y0183631D01*
X0127635Y0183619D01*
X0127559Y0183606D01*
X0127483Y0183592D01*
X0127408Y0183575D01*
X0127334Y0183556D01*
X0127262Y0183535D01*
X0127192Y0183509D01*
X0127125Y0183481D01*
X0127062Y0183448D01*
X0127002Y0183412D01*
X0126947Y0183371D01*
X0126896Y0183327D01*
X0126850Y0183278D01*
X0126809Y0183225D01*
X0126772Y0183169D01*
X0126740Y0183109D01*
X0126712Y0183047D01*
X0126689Y0182982D01*
X0126669Y0182916D01*
X0126653Y0182848D01*
X0126640Y0182781D01*
X0126630Y0182713D01*
X0126623Y0182646D01*
X0126619Y0182581D01*
X0126617Y0182518D01*
X0126617Y0182457D01*
X0126620Y0182399D01*
X0126625Y0182344D01*
X0126633Y0182293D01*
X0126644Y0182246D01*
X0126657Y0182203D01*
X0126673Y0182163D01*
X0126692Y0182128D01*
X0126713Y0182097D01*
X0126738Y0182069D01*
X0126765Y0182045D01*
X0126795Y0182025D01*
X0126828Y0182008D01*
X0126863Y0181993D01*
X0126901Y0181982D01*
X0126942Y0181973D01*
X0126984Y0181965D01*
X0127029Y0181960D01*
X0127077Y0181956D01*
X0127127Y0181953D01*
X0127180Y0181951D01*
X0127236Y0181950D01*
X0127294Y0181949D01*
X0127356Y0181949D01*
X0127422Y0181950D01*
X0127491Y0181951D01*
X0127565Y0181952D01*
X0127642Y0181954D01*
X0127724Y0181956D01*
X0127810Y0181958D01*
X0127901Y0181961D01*
X0127996Y0181965D01*
X0128095Y0181969D01*
X0128199Y0181973D01*
X0128306Y0181978D01*
X0128416Y0181984D01*
X0128530Y0181990D01*
X0128646Y0181997D01*
X0128764Y0182005D01*
X0128885Y0182013D01*
X0129007Y0182021D01*
X0129131Y0182030D01*
X0129256Y0182039D01*
X0129382Y0182048D01*
X0129509Y0182057D01*
X0129636Y0182066D01*
X0129763Y0182075D01*
X0129891Y0182084D01*
X0130019Y0182092D01*
X0130147Y0182099D01*
X0130275Y0182107D01*
X0130403Y0182113D01*
X0130532Y0182119D01*
X0130660Y0182124D01*
X0130788Y0182128D01*
X0130916Y0182132D01*
X0131045Y0182135D01*
X0131173Y0182137D01*
X0131301Y0182139D01*
X0131429Y0182140D01*
X0131557Y0182140D01*
X0131685Y0182140D01*
X0131814Y0182140D01*
X0131942Y0182139D01*
X0132070Y0182137D01*
X0132198Y0182135D01*
X0132326Y0182132D01*
X0132454Y0182128D01*
X0132581Y0182124D01*
X0132709Y0182119D01*
X0132837Y0182113D01*
X0132965Y0182107D01*
X0133093Y0182100D01*
X0133220Y0182092D01*
X0133348Y0182084D01*
X0133475Y0182075D01*
X0133603Y0182066D01*
X0133730Y0182057D01*
X0133856Y0182048D01*
X0133982Y0182039D01*
X0134107Y0182030D01*
X0134232Y0182021D01*
X0134355Y0182013D01*
X0134477Y0182005D01*
X0134596Y0181997D01*
X0134714Y0181991D01*
X0134829Y0181984D01*
X0134941Y0181979D01*
X0135050Y0181974D01*
X0135155Y0181970D01*
X0135256Y0181966D01*
X0135353Y0181963D01*
X0135446Y0181961D01*
X0135534Y0181960D01*
X0135618Y0181959D01*
X0135699Y0181960D01*
X0135775Y0181961D01*
X0135847Y0181963D01*
X0135916Y0181967D01*
X0135982Y0181971D01*
X0136045Y0181977D01*
X0136105Y0181984D01*
X0136163Y0181994D01*
X0136219Y0182004D01*
X0136273Y0182017D01*
X0136325Y0182032D01*
X0136375Y0182049D01*
X0136423Y0182068D01*
X0136468Y0182090D01*
X0136512Y0182115D01*
X0136553Y0182144D01*
X0136592Y0182175D01*
X0136628Y0182210D01*
X0136662Y0182249D01*
X0136692Y0182291D01*
X0136720Y0182338D01*
X0136744Y0182390D01*
X0136766Y0182446D01*
X0136784Y0182506D01*
X0136800Y0182571D01*
X0136812Y0182641D01*
X0136820Y0182714D01*
X0136824Y0182791D01*
X0136823Y0182871D01*
X0136817Y0182953D01*
X0136805Y0183035D01*
X0136785Y0183118D01*
X0136757Y0183199D01*
X0136719Y0183276D01*
X0136670Y0183349D01*
X0136610Y0183417D01*
X0136536Y0183477D01*
X0136449Y0183530D01*
X0136348Y0183574D01*
X0136234Y0183610D01*
X0136107Y0183637D01*
X0135968Y0183657D01*
X0135819Y0183671D01*
X0135662Y0183680D01*
X0135499Y0183686D01*
X0135332Y0183692D01*
X0135165Y0183699D01*
X0134999Y0183710D01*
X0134839Y0183727D01*
X0134686Y0183752D01*
X0134543Y0183787D01*
X0134411Y0183832D01*
X0134292Y0183889D01*
X0134186Y0183957D01*
X0134094Y0184037D01*
X0134016Y0184128D01*
X0133952Y0184229D01*
X0133900Y0184339D01*
X0133861Y0184456D01*
X0133833Y0184579D01*
X0133816Y0184708D01*
X0133808Y0184840D01*
X0133810Y0184975D01*
X0133820Y0185113D01*
X0133839Y0185253D01*
X0133865Y0185395D01*
X0133900Y0185540D01*
X0133943Y0185687D01*
X0133994Y0185837D01*
X0134054Y0185990D01*
X0134123Y0186147D01*
X0134200Y0186307D01*
X0134286Y0186472D01*
X0134379Y0186640D01*
X0134479Y0186811D01*
X0134585Y0186984D01*
X0134696Y0187159D01*
X0134811Y0187334D01*
X0134929Y0187508D01*
X0135047Y0187680D01*
X0135165Y0187848D01*
X0135281Y0188011D01*
X0135393Y0188168D01*
X0135502Y0188317D01*
X0135605Y0188458D01*
X0135702Y0188590D01*
X0135792Y0188712D01*
X0135876Y0188825D01*
X0135952Y0188928D01*
X0136021Y0189021D01*
X0136084Y0189105D01*
X0136140Y0189181D01*
X0136190Y0189249D01*
X0136235Y0189309D01*
X0136275Y0189364D01*
X0136311Y0189413D01*
X0136344Y0189458D01*
X0136375Y0189501D01*
X0136404Y0189540D01*
X0136432Y0189579D01*
X0136460Y0189618D01*
X0136487Y0189656D01*
X0136516Y0189696D01*
X0136545Y0189737D01*
X0136575Y0189780D01*
X0136607Y0189825D01*
X0136639Y0189871D01*
X0136672Y0189918D01*
X0136706Y0189966D01*
X0136740Y0190014D01*
X0136774Y0190062D01*
X0136808Y0190110D01*
X0136840Y0190155D01*
X0136870Y0190199D01*
X0136899Y0190239D01*
X0136926Y0190277D01*
X0136950Y0190311D01*
X0136973Y0190341D01*
X0136993Y0190368D01*
X0137013Y0190391D01*
X0137032Y0190410D01*
X0137052Y0190426D01*
X0137074Y0190440D01*
X0137101Y0190450D01*
X0137134Y0190458D01*
X0137176Y0190464D01*
X0137230Y0190469D01*
X0137299Y0190472D01*
X0137386Y0190475D01*
X0137494Y0190476D01*
X0137626Y0190477D01*
X0137785Y0190478D01*
X0137973Y0190478D01*
X0138191Y0190479D01*
X0138440Y0190479D01*
X0138718Y0190479D01*
X0139025Y0190479D01*
X0139357Y0190479D01*
X0139711Y0190479D01*
X0140082Y0190479D01*
X0140465Y0190479D01*
X0140854Y0190479D01*
X0141242Y0190479D01*
X0141624Y0190479D01*
X0141994Y0190479D01*
X0142345Y0190479D01*
X0142675Y0190479D01*
X0142979Y0190479D01*
X0143254Y0190478D01*
X0143500Y0190478D01*
X0143715Y0190477D01*
X0143899Y0190476D01*
X0144055Y0190474D01*
X0144184Y0190471D01*
X0144289Y0190465D01*
X0144373Y0190458D01*
X0144438Y0190448D01*
X0144487Y0190433D01*
X0144524Y0190414D01*
X0144551Y0190388D01*
X0144570Y0190356D01*
X0144583Y0190315D01*
X0144592Y0190265D01*
X0144599Y0190205D01*
X0144603Y0190134D01*
X0144607Y0190052D01*
X0144609Y0189958D01*
X0144612Y0189853D01*
X0144614Y0189738D01*
X0144617Y0189613D01*
X0144619Y0189481D01*
X0144622Y0189342D01*
X0144625Y0189199D01*
X0144627Y0189055D01*
X0144630Y0188910D01*
X0144633Y0188768D01*
X0144635Y0188631D01*
X0144638Y0188501D01*
X0144640Y0188379D01*
X0144642Y0188267D01*
X0144644Y0188165D01*
X0144646Y0188075D01*
X0144647Y0187996D01*
X0144649Y0187927D01*
X0144650Y0187868D01*
X0144650Y0187819D01*
X0144651Y0187777D01*
X0144651Y0187741D01*
X0144651Y0187710D01*
X0144651Y0187682D01*
X0144650Y0187655D01*
X0144650Y0187627D01*
X0144649Y0187597D01*
X0144647Y0187564D01*
X0144645Y0187525D01*
X0144643Y0187480D01*
X0144640Y0187429D01*
X0144637Y0187370D01*
X0144634Y0187303D01*
X0144630Y0187229D01*
X0144626Y0187147D01*
X0144621Y0187059D01*
X0144616Y0186966D01*
X0144611Y0186868D01*
X0144606Y0186767D01*
X0144600Y0186665D01*
X0144595Y0186562D01*
X0144590Y0186461D01*
X0144584Y0186362D01*
X0144579Y0186267D01*
X0144575Y0186176D01*
X0144570Y0186089D01*
X0144566Y0186008D01*
X0144562Y0185931D01*
X0144558Y0185857D01*
X0144554Y0185788D01*
X0144550Y0185720D01*
X0144546Y0185655D01*
X0144543Y0185590D01*
X0144538Y0185524D01*
X0144534Y0185457D01*
X0144529Y0185388D01*
X0144523Y0185317D01*
X0144517Y0185243D01*
X0144510Y0185166D01*
X0144501Y0185087D01*
X0144492Y0185005D01*
X0144481Y0184922D01*
X0144468Y0184838D01*
X0144453Y0184754D01*
X0144436Y0184671D01*
X0144417Y0184589D01*
X0144394Y0184510D01*
X0144368Y0184433D01*
X0144339Y0184359D01*
X0144305Y0184289D01*
X0144267Y0184222D01*
X0144223Y0184160D01*
X0144175Y0184103D01*
X0144121Y0184049D01*
X0144062Y0184000D01*
X0143998Y0183955D01*
X0143928Y0183914D01*
X0143853Y0183876D01*
X0143773Y0183842D01*
X0143689Y0183811D01*
X0143602Y0183783D01*
X0143512Y0183758D01*
X0143419Y0183735D01*
X0143325Y0183715D01*
X0143230Y0183696D01*
X0143135Y0183680D01*
X0143041Y0183664D01*
X0142946Y0183651D01*
X0142853Y0183638D01*
X0142762Y0183626D01*
X0142671Y0183616D01*
X0142583Y0183606D01*
X0142495Y0183596D01*
X0142409Y0183587D01*
X0142324Y0183577D01*
X0142240Y0183568D01*
X0142157Y0183558D01*
X0142075Y0183548D01*
X0141994Y0183536D01*
X0141914Y0183523D01*
X0141836Y0183508D01*
X0141760Y0183491D01*
X0141687Y0183471D01*
X0141616Y0183448D01*
X0141548Y0183422D01*
X0141484Y0183392D01*
X0141424Y0183358D01*
X0141368Y0183321D01*
X0141317Y0183279D01*
X0141270Y0183233D01*
X0141229Y0183184D01*
X0141192Y0183132D01*
X0141160Y0183076D01*
X0141133Y0183018D01*
X0141110Y0182959D01*
X0141090Y0182898D01*
X0141074Y0182836D01*
X0141062Y0182774D01*
X0141052Y0182713D01*
X0141045Y0182652D01*
X0141040Y0182593D01*
X0141038Y0182537D01*
X0141037Y0182482D01*
X0141039Y0182430D01*
X0141043Y0182381D01*
X0141049Y0182335D01*
X0141056Y0182292D01*
X0141067Y0182252D01*
X0141079Y0182215D01*
X0141093Y0182182D01*
X0141110Y0182151D01*
X0141129Y0182123D01*
X0141151Y0182098D01*
X0141175Y0182076D01*
X0141202Y0182056D01*
X0141231Y0182039D01*
X0141262Y0182024D01*
X0141297Y0182010D01*
X0141334Y0181999D01*
X0141374Y0181989D01*
X0141417Y0181981D01*
X0141464Y0181975D01*
X0141515Y0181969D01*
X0141571Y0181965D01*
X0141631Y0181961D01*
X0141696Y0181959D01*
X0141767Y0181957D01*
X0141844Y0181957D01*
X0141928Y0181957D01*
X0142018Y0181957D01*
X0142115Y0181959D01*
X0142219Y0181961D01*
X0142330Y0181963D01*
X0142448Y0181966D01*
X0142572Y0181970D01*
X0142702Y0181975D01*
X0142837Y0181980D01*
X0142978Y0181986D01*
X0143123Y0181992D01*
X0143273Y0181999D01*
X0143425Y0182006D01*
X0143581Y0182014D01*
X0143739Y0182023D01*
X0143900Y0182032D01*
X0144061Y0182041D01*
X0144224Y0182050D01*
X0144388Y0182059D01*
X0144553Y0182068D01*
X0144718Y0182077D01*
X0144883Y0182085D01*
X0145049Y0182093D01*
X0145214Y0182101D01*
X0145380Y0182108D01*
X0145546Y0182114D01*
X0145712Y0182120D01*
X0145878Y0182125D01*
X0146044Y0182129D01*
X0146210Y0182132D01*
X0146376Y0182135D01*
X0146541Y0182137D01*
X0146707Y0182139D01*
X0146873Y0182140D01*
X0147038Y0182140D01*
X0147203Y0182140D01*
X0147369Y0182140D01*
X0147533Y0182138D01*
X0147698Y0182137D01*
X0147862Y0182134D01*
X0148026Y0182131D01*
X0148190Y0182127D01*
X0148353Y0182123D01*
X0148516Y0182118D01*
X0148679Y0182112D01*
X0148841Y0182105D01*
X0149003Y0182098D01*
X0149165Y0182090D01*
X0149326Y0182082D01*
X0149487Y0182073D01*
X0149647Y0182064D01*
X0149808Y0182055D01*
X0149967Y0182046D01*
X0150126Y0182037D01*
X0150284Y0182028D01*
X0150441Y0182019D01*
X0150596Y0182011D01*
X0150749Y0182003D01*
X0150900Y0181996D01*
X0151047Y0181989D01*
X0151192Y0181983D01*
X0151332Y0181978D01*
X0151467Y0181973D01*
X0151598Y0181969D01*
X0151723Y0181965D01*
X0151842Y0181962D01*
X0151955Y0181960D01*
X0152062Y0181959D01*
X0152163Y0181958D01*
X0152258Y0181958D01*
X0152347Y0181959D01*
X0152431Y0181961D01*
X0152509Y0181964D01*
X0152584Y0181968D01*
X0152653Y0181973D01*
X0152720Y0181980D01*
X0152782Y0181988D01*
X0152842Y0181998D01*
X0152899Y0182010D01*
X0152953Y0182024D01*
X0153005Y0182040D01*
X0153054Y0182059D01*
X0153101Y0182081D01*
X0153145Y0182105D01*
X0153187Y0182133D01*
X0153225Y0182163D01*
X0153261Y0182197D01*
X0153294Y0182234D01*
X0153324Y0182274D01*
X0153351Y0182317D01*
X0153375Y0182362D01*
X0153397Y0182411D01*
X0153415Y0182461D01*
X0153431Y0182514D01*
X0153444Y0182568D01*
X0153455Y0182623D01*
X0153464Y0182679D01*
X0153471Y0182735D01*
X0153476Y0182791D01*
X0153480Y0182847D01*
X0153481Y0182902D01*
X0153481Y0182956D01*
X0153479Y0183008D01*
X0153475Y0183058D01*
X0153470Y0183107D01*
X0153462Y0183152D01*
X0153452Y0183196D01*
X0153439Y0183236D01*
X0153424Y0183274D01*
X0153407Y0183309D01*
X0153387Y0183341D01*
X0153364Y0183371D01*
X0153339Y0183398D01*
X0153310Y0183422D01*
X0153279Y0183444D01*
X0153246Y0183464D01*
X0153209Y0183482D01*
X0153169Y0183498D01*
X0153126Y0183513D01*
X0153079Y0183527D01*
X0153028Y0183540D01*
X0152974Y0183553D01*
X0152915Y0183565D01*
X0152851Y0183577D01*
X0152783Y0183589D01*
X0152709Y0183602D01*
X0152629Y0183616D01*
X0152544Y0183630D01*
X0152454Y0183646D01*
X0152359Y0183663D01*
X0152259Y0183683D01*
X0152156Y0183705D01*
X0152049Y0183729D01*
X0151941Y0183757D01*
X0151833Y0183787D01*
X0151725Y0183822D01*
X0151619Y0183861D01*
X0151516Y0183905D01*
X0151419Y0183954D01*
X0151327Y0184008D01*
X0151242Y0184067D01*
X0151165Y0184132D01*
X0151096Y0184203D01*
X0151034Y0184279D01*
X0150982Y0184361D01*
X0150937Y0184449D01*
X0150899Y0184541D01*
X0150869Y0184639D01*
X0150845Y0184741D01*
X0150826Y0184846D01*
X0150811Y0184955D01*
X0150801Y0185066D01*
X0150793Y0185178D01*
X0150787Y0185291D01*
X0150784Y0185404D01*
X0150781Y0185516D01*
X0150779Y0185626D01*
X0150777Y0185735D01*
X0150776Y0185842D01*
X0150775Y0185946D01*
X0150774Y0186050D01*
X0150773Y0186153D01*
X0150772Y0186257D01*
X0150771Y0186364D01*
X0150770Y0186476D01*
X0150769Y0186596D01*
X0150768Y0186726D01*
X0150767Y0186868D01*
X0150766Y0187025D01*
X0150765Y0187200D01*
X0150764Y0187393D01*
X0150763Y0187605D01*
X0150763Y0187837D01*
X0150762Y0188088D01*
X0150761Y0188356D01*
X0150761Y0188638D01*
X0150760Y0188932D01*
X0150759Y0189234D01*
X0150759Y0189539D01*
X0150758Y0189842D01*
X0150758Y0190140D01*
X0150757Y0190427D01*
X0150757Y0190700D01*
X0150756Y0190955D01*
X0150755Y0191190D01*
X0150754Y0191402D01*
X0150753Y0194189D01*
X0150748Y0194191D02*
X0150749Y0194554D01*
X0150749Y0194961D01*
X0150749Y0195411D01*
X0150748Y0195901D01*
X0150747Y0196428D01*
X0150746Y0196986D01*
X0150745Y0197571D01*
X0150744Y0198175D01*
X0150743Y0198790D01*
X0150742Y0199409D01*
X0150741Y0200022D01*
X0150740Y0200622D01*
X0150739Y0201201D01*
X0150738Y0201752D01*
X0150738Y0202268D01*
X0150737Y0202746D01*
X0150737Y0203181D01*
X0150738Y0203574D01*
X0150738Y0203923D01*
X0150739Y0204230D01*
X0150741Y0204500D01*
X0150742Y0204735D01*
X0150745Y0204944D01*
X0150748Y0205131D01*
X0150751Y0205305D01*
X0150755Y0205474D01*
X0150759Y0205645D01*
X0150763Y0205825D01*
X0150764Y0206021D01*
X0150763Y0206236D01*
X0150754Y0206471D01*
X0150732Y0206724D01*
X0150690Y0206990D01*
X0150618Y0207257D01*
X0150501Y0207507D01*
X0150390Y0207653D01*
X0150277Y0207750D01*
X0150164Y0207812D01*
X0150055Y0207850D01*
X0149948Y0207873D01*
X0149845Y0207886D01*
X0149744Y0207894D01*
X0149644Y0207897D01*
X0149545Y0207897D01*
X0149446Y0207896D01*
X0149346Y0207892D01*
X0149246Y0207886D01*
X0149144Y0207878D01*
X0149041Y0207867D01*
X0148939Y0207854D01*
X0148837Y0207837D01*
X0148737Y0207816D01*
X0148639Y0207792D01*
X0148543Y0207765D01*
X0148451Y0207733D01*
X0148362Y0207698D01*
X0148277Y0207658D01*
X0148197Y0207615D01*
X0148121Y0207569D01*
X0148048Y0207519D01*
X0147980Y0207466D01*
X0147915Y0207410D01*
X0147854Y0207352D01*
X0147796Y0207292D01*
X0147740Y0207231D01*
X0147686Y0207168D01*
X0147635Y0207105D01*
X0147585Y0207041D01*
X0147537Y0206977D01*
X0147489Y0206912D01*
X0147441Y0206847D01*
X0147394Y0206780D01*
X0147344Y0206712D01*
X0147293Y0206641D01*
X0147238Y0206566D01*
X0147178Y0206484D01*
X0147111Y0206393D01*
X0147035Y0206291D01*
X0146947Y0206175D01*
X0146846Y0206040D01*
X0146727Y0205885D01*
X0146589Y0205704D01*
X0146428Y0205494D01*
X0146242Y0205253D01*
X0146029Y0204976D01*
X0145786Y0204662D01*
X0145514Y0204309D01*
X0145210Y0203915D01*
X0144874Y0203482D01*
X0144510Y0203010D01*
X0144116Y0202502D01*
X0143698Y0201961D01*
X0143258Y0201392D01*
X0142800Y0200800D01*
X0142329Y0200192D01*
X0141851Y0199574D01*
X0141371Y0198954D01*
X0140894Y0198338D01*
X0140427Y0197735D01*
X0139975Y0197151D01*
X0139542Y0196592D01*
X0140820Y0195559D02*
X0141093Y0195926D01*
X0141373Y0196302D01*
X0141657Y0196683D01*
X0141941Y0197063D01*
X0142221Y0197439D01*
X0142494Y0197806D01*
X0142758Y0198160D01*
X0143009Y0198497D01*
X0143246Y0198815D01*
X0143466Y0199109D01*
X0143668Y0199380D01*
X0143851Y0199625D01*
X0144015Y0199843D01*
X0144159Y0200034D01*
X0144285Y0200199D01*
X0144393Y0200337D01*
X0144484Y0200451D01*
X0144560Y0200540D01*
X0144622Y0200605D01*
X0144672Y0200647D01*
X0144712Y0200667D01*
X0144742Y0200665D01*
X0144765Y0200641D01*
X0144781Y0200595D01*
X0144793Y0200525D01*
X0144800Y0200432D01*
X0144804Y0200314D01*
X0144805Y0200171D01*
X0144805Y0200001D01*
X0144803Y0199805D01*
X0144799Y0199582D01*
X0144795Y0199333D01*
X0144790Y0199058D01*
X0144784Y0198758D01*
X0144778Y0198437D01*
X0144771Y0198097D01*
X0144764Y0197740D01*
X0144757Y0197371D01*
X0144749Y0196994D01*
X0144742Y0196613D01*
X0144734Y0196233D01*
X0144727Y0195859D01*
X0144720Y0195494D01*
X0144713Y0195143D01*
X0144706Y0194809D01*
X0144700Y0194495D01*
X0144694Y0194204D01*
X0144689Y0193938D01*
X0144685Y0193697D01*
X0144682Y0193482D01*
X0144681Y0193292D01*
X0144681Y0193128D01*
X0144683Y0192987D01*
X0144688Y0192435D01*
X0144698Y0192429D02*
X0138487Y0192429D01*
X0138479Y0192427D02*
X0138743Y0192786D01*
X0138822Y0192889D01*
X0138916Y0193011D01*
X0139026Y0193156D01*
X0139153Y0193325D01*
X0139298Y0193519D01*
X0139462Y0193739D01*
X0139646Y0193984D01*
X0139848Y0194255D01*
X0140068Y0194551D01*
X0140304Y0194868D01*
X0140556Y0195205D01*
X0140820Y0195559D01*
X0154676Y0182631D02*
X0154752Y0182711D01*
X0154834Y0182786D01*
X0154921Y0182855D01*
X0155014Y0182919D01*
X0155112Y0182976D01*
X0155217Y0183028D01*
X0155328Y0183074D01*
X0155446Y0183115D01*
X0155570Y0183150D01*
X0155702Y0183180D01*
X0155842Y0183205D01*
X0155990Y0183224D01*
X0156146Y0183239D01*
X0156311Y0183248D01*
X0156484Y0183252D01*
X0156665Y0183249D01*
X0156853Y0183240D01*
X0157047Y0183223D01*
X0157245Y0183197D01*
X0157446Y0183161D01*
X0157648Y0183114D01*
X0157849Y0183054D01*
X0158046Y0182980D01*
X0158237Y0182891D01*
X0158421Y0182787D01*
X0158596Y0182666D01*
X0158761Y0182529D01*
X0158914Y0182376D01*
X0159056Y0182210D01*
X0159186Y0182030D01*
X0159306Y0181839D01*
X0159416Y0181640D01*
X0159518Y0181436D01*
X0159615Y0181230D01*
X0159708Y0181025D01*
X0159799Y0180825D01*
X0159891Y0180632D01*
X0159986Y0180449D01*
X0160084Y0180278D01*
X0160189Y0180121D01*
X0160300Y0179980D01*
X0160419Y0179854D01*
X0160545Y0179745D01*
X0160678Y0179652D01*
X0160819Y0179575D01*
X0160967Y0179512D01*
X0161120Y0179462D01*
X0161278Y0179425D01*
X0161440Y0179399D01*
X0161605Y0179383D01*
X0161773Y0179376D01*
X0161942Y0179378D01*
X0162113Y0179388D01*
X0162285Y0179405D01*
X0162457Y0179430D01*
X0162629Y0179462D01*
X0162801Y0179502D01*
X0162974Y0179549D01*
X0163146Y0179605D01*
X0163318Y0179667D01*
X0163489Y0179738D01*
X0163660Y0179815D01*
X0163829Y0179900D01*
X0163997Y0179992D01*
X0164164Y0180089D01*
X0164329Y0180193D01*
X0164491Y0180301D01*
X0164650Y0180413D01*
X0164807Y0180528D01*
X0164961Y0180647D01*
X0165111Y0180768D01*
X0165258Y0180892D01*
X0165402Y0181017D01*
X0165544Y0181144D01*
X0165683Y0181272D01*
X0165820Y0181403D01*
X0165956Y0181536D01*
X0166091Y0181671D01*
X0166225Y0181810D01*
X0166359Y0181952D01*
X0166494Y0182098D01*
X0166629Y0182248D01*
X0166766Y0182404D01*
X0166904Y0182566D01*
X0167044Y0182733D01*
X0167185Y0182908D01*
X0167327Y0183089D01*
X0167470Y0183278D01*
X0167614Y0183475D01*
X0167758Y0183679D01*
X0167902Y0183890D01*
X0168045Y0184109D01*
X0168186Y0184334D01*
X0168325Y0184566D01*
X0168460Y0184803D01*
X0168592Y0185046D01*
X0168718Y0185293D01*
X0168840Y0185543D01*
X0168955Y0185796D01*
X0169064Y0186051D01*
X0169165Y0186307D01*
X0169259Y0186563D01*
X0169345Y0186820D01*
X0169424Y0187076D01*
X0169494Y0187332D01*
X0169557Y0187587D01*
X0169613Y0187841D01*
X0169661Y0188094D01*
X0169703Y0188347D01*
X0169738Y0188600D01*
X0169767Y0188852D01*
X0169791Y0189105D01*
X0169808Y0189357D01*
X0169819Y0189610D01*
X0169825Y0189862D01*
X0169823Y0190113D01*
X0169815Y0190364D01*
X0169799Y0190613D01*
X0169775Y0190859D01*
X0169742Y0191103D01*
X0169698Y0191343D01*
X0169645Y0191577D01*
X0169579Y0191806D01*
X0169502Y0192028D01*
X0169412Y0192242D01*
X0169309Y0192448D01*
X0169194Y0192644D01*
X0169065Y0192830D01*
X0168924Y0193005D01*
X0168771Y0193168D01*
X0168606Y0193320D01*
X0168430Y0193459D01*
X0168245Y0193586D01*
X0168051Y0193700D01*
X0167849Y0193803D01*
X0167642Y0193893D01*
X0167430Y0193973D01*
X0167216Y0194041D01*
X0167000Y0194099D01*
X0166784Y0194148D01*
X0166569Y0194188D01*
X0166358Y0194221D01*
X0166151Y0194247D01*
X0165950Y0194267D01*
X0165755Y0194283D01*
X0165567Y0194294D01*
X0165386Y0194301D01*
X0165214Y0194306D01*
X0165049Y0194308D01*
X0164892Y0194308D01*
X0164742Y0194306D01*
X0164598Y0194303D01*
X0164461Y0194298D01*
X0164330Y0194292D01*
X0164203Y0194284D01*
X0164080Y0194275D01*
X0163961Y0194264D01*
X0163844Y0194252D01*
X0163730Y0194239D01*
X0163617Y0194224D01*
X0163506Y0194208D01*
X0163396Y0194190D01*
X0163288Y0194170D01*
X0163180Y0194149D01*
X0163073Y0194127D01*
X0162967Y0194104D01*
X0162863Y0194079D01*
X0162760Y0194054D01*
X0162660Y0194028D01*
X0162561Y0194001D01*
X0162466Y0193975D01*
X0162374Y0193948D01*
X0162285Y0193921D01*
X0162200Y0193895D01*
X0162119Y0193870D01*
X0162042Y0193846D01*
X0161970Y0193822D01*
X0161902Y0193800D01*
X0161839Y0193779D01*
X0161781Y0193759D01*
X0161726Y0193741D01*
X0161676Y0193723D01*
X0161629Y0193707D01*
X0161586Y0193691D01*
X0161545Y0193677D01*
X0161507Y0193663D01*
X0161470Y0193650D01*
X0161435Y0193637D01*
X0161402Y0193625D01*
X0161369Y0193613D01*
X0161337Y0193602D01*
X0161306Y0193591D01*
X0161275Y0193580D01*
X0161244Y0193569D01*
X0161213Y0193560D01*
X0161183Y0193550D01*
X0161152Y0193541D01*
X0161122Y0193533D01*
X0161092Y0193525D01*
X0161062Y0193519D01*
X0161032Y0193512D01*
X0161002Y0193507D01*
X0160972Y0193502D01*
X0160942Y0193499D01*
X0160913Y0193495D01*
X0160883Y0193493D01*
X0160854Y0193491D01*
X0160824Y0193490D01*
X0160794Y0193489D01*
X0160765Y0193489D01*
X0160735Y0193490D01*
X0160705Y0193492D01*
X0160675Y0193494D01*
X0160646Y0193498D01*
X0160617Y0193502D01*
X0160587Y0193507D01*
X0160559Y0193513D01*
X0160531Y0193521D01*
X0160503Y0193530D01*
X0160477Y0193540D01*
X0160451Y0193552D01*
X0160426Y0193565D01*
X0160402Y0193580D01*
X0160380Y0193596D01*
X0160359Y0193614D01*
X0160339Y0193634D01*
X0160321Y0193655D01*
X0160305Y0193678D01*
X0160290Y0193703D01*
X0160277Y0193729D01*
X0160265Y0193757D01*
X0160255Y0193787D01*
X0160247Y0193818D01*
X0160240Y0193852D01*
X0160234Y0193888D01*
X0160230Y0193926D01*
X0160228Y0193967D01*
X0160227Y0194009D01*
X0160228Y0194054D01*
X0160230Y0194102D01*
X0160235Y0194151D01*
X0160241Y0194203D01*
X0160250Y0194256D01*
X0160262Y0194311D01*
X0160276Y0194367D01*
X0160294Y0194424D01*
X0160316Y0194482D01*
X0160342Y0194539D01*
X0160372Y0194596D01*
X0160408Y0194652D01*
X0160448Y0194707D01*
X0160492Y0194760D01*
X0160542Y0194811D01*
X0160597Y0194861D01*
X0160656Y0194907D01*
X0160719Y0194952D01*
X0160785Y0194993D01*
X0160854Y0195032D01*
X0160926Y0195069D01*
X0160999Y0195104D01*
X0161073Y0195136D01*
X0161147Y0195166D01*
X0161220Y0195193D01*
X0161292Y0195219D01*
X0161362Y0195244D01*
X0161429Y0195266D01*
X0161493Y0195287D01*
X0161555Y0195307D01*
X0161612Y0195325D01*
X0161667Y0195342D01*
X0161718Y0195358D01*
X0161766Y0195373D01*
X0161811Y0195387D01*
X0161855Y0195401D01*
X0161897Y0195414D01*
X0161938Y0195428D01*
X0161980Y0195441D01*
X0162023Y0195456D01*
X0162067Y0195471D01*
X0162115Y0195488D01*
X0162166Y0195506D01*
X0162221Y0195526D01*
X0162281Y0195548D01*
X0162346Y0195571D01*
X0162416Y0195596D01*
X0162490Y0195624D01*
X0162569Y0195652D01*
X0162650Y0195682D01*
X0162734Y0195713D01*
X0162820Y0195744D01*
X0162906Y0195776D01*
X0162991Y0195807D01*
X0163075Y0195838D01*
X0163157Y0195868D01*
X0163236Y0195897D01*
X0163313Y0195925D01*
X0163387Y0195952D01*
X0163458Y0195978D01*
X0163528Y0196004D01*
X0163596Y0196029D01*
X0163665Y0196054D01*
X0163735Y0196079D01*
X0163807Y0196105D01*
X0163884Y0196132D01*
X0163965Y0196161D01*
X0164052Y0196192D01*
X0164146Y0196225D01*
X0164248Y0196261D01*
X0164358Y0196300D01*
X0164476Y0196341D01*
X0164603Y0196385D01*
X0164738Y0196432D01*
X0164881Y0196482D01*
X0165032Y0196534D01*
X0165190Y0196588D01*
X0165354Y0196645D01*
X0165523Y0196705D01*
X0165696Y0196766D01*
X0165873Y0196829D01*
X0166052Y0196894D01*
X0166233Y0196961D01*
X0166414Y0197029D01*
X0166595Y0197100D01*
X0166775Y0197172D01*
X0166954Y0197246D01*
X0167130Y0197321D01*
X0167303Y0197398D01*
X0167474Y0197477D01*
X0167642Y0197558D01*
X0167806Y0197641D01*
X0167967Y0197725D01*
X0168126Y0197812D01*
X0168282Y0197900D01*
X0168435Y0197990D01*
X0168587Y0198082D01*
X0168737Y0198176D01*
X0168885Y0198273D01*
X0169033Y0198372D01*
X0169180Y0198473D01*
X0169327Y0198577D01*
X0169473Y0198684D01*
X0169618Y0198795D01*
X0169763Y0198909D01*
X0169907Y0199026D01*
X0170050Y0199148D01*
X0170191Y0199273D01*
X0170331Y0199403D01*
X0170469Y0199538D01*
X0170603Y0199676D01*
X0170734Y0199820D01*
X0170862Y0199967D01*
X0170985Y0200119D01*
X0171102Y0200275D01*
X0171215Y0200435D01*
X0171321Y0200598D01*
X0171420Y0200765D01*
X0171513Y0200934D01*
X0171599Y0201106D01*
X0171677Y0201279D01*
X0171749Y0201454D01*
X0171813Y0201630D01*
X0171870Y0201807D01*
X0171920Y0201984D01*
X0171964Y0202161D01*
X0172002Y0202336D01*
X0172034Y0202511D01*
X0172060Y0202685D01*
X0172082Y0202857D01*
X0172099Y0203026D01*
X0172112Y0203194D01*
X0172120Y0203359D01*
X0172124Y0203521D01*
X0172123Y0203680D01*
X0172118Y0203836D01*
X0172107Y0203989D01*
X0172091Y0204138D01*
X0172070Y0204284D01*
X0172043Y0204425D01*
X0172009Y0204563D01*
X0171969Y0204696D01*
X0171921Y0204824D01*
X0171866Y0204948D01*
X0171805Y0205066D01*
X0171735Y0205179D01*
X0171658Y0205286D01*
X0171574Y0205387D01*
X0171482Y0205481D01*
X0171383Y0205569D01*
X0171277Y0205649D01*
X0171164Y0205723D01*
X0171043Y0205789D01*
X0170915Y0205848D01*
X0170779Y0205900D01*
X0170635Y0205946D01*
X0170484Y0205984D01*
X0170325Y0206016D01*
X0170157Y0206042D01*
X0169982Y0206062D01*
X0169797Y0206076D01*
X0169605Y0206083D01*
X0169404Y0206085D01*
X0169196Y0206079D01*
X0168980Y0206067D01*
X0168759Y0206046D01*
X0168532Y0206017D01*
X0168301Y0205979D01*
X0168067Y0205930D01*
X0167831Y0205869D01*
X0167595Y0205797D01*
X0167361Y0205713D01*
X0167129Y0205615D01*
X0166901Y0205506D01*
X0166678Y0205385D01*
X0166462Y0205253D01*
X0166252Y0205111D01*
X0166050Y0204962D01*
X0165855Y0204807D01*
X0165670Y0204649D01*
X0165493Y0204491D01*
X0165324Y0204334D01*
X0165164Y0204181D01*
X0165013Y0204035D01*
X0164870Y0203897D01*
X0164736Y0203769D01*
X0164609Y0203652D01*
X0164490Y0203548D01*
X0164378Y0203455D01*
X0164273Y0203375D01*
X0164175Y0203307D01*
X0164084Y0203250D01*
X0163999Y0203204D01*
X0163921Y0203167D01*
X0163848Y0203138D01*
X0163780Y0203117D01*
X0163718Y0203101D01*
X0163660Y0203090D01*
X0163607Y0203083D01*
X0163558Y0203080D01*
X0163513Y0203079D01*
X0163470Y0203081D01*
X0163431Y0203084D01*
X0163395Y0203089D01*
X0163360Y0203096D01*
X0163328Y0203104D01*
X0163297Y0203113D01*
X0163268Y0203124D01*
X0163241Y0203136D01*
X0163215Y0203149D01*
X0163190Y0203164D01*
X0163167Y0203180D01*
X0163145Y0203198D01*
X0163125Y0203217D01*
X0163106Y0203238D01*
X0163089Y0203260D01*
X0163073Y0203285D01*
X0163060Y0203311D01*
X0163048Y0203339D01*
X0163037Y0203369D01*
X0163029Y0203402D01*
X0163023Y0203437D01*
X0163018Y0203474D01*
X0163016Y0203515D01*
X0163015Y0203559D01*
X0163017Y0203606D01*
X0163021Y0203657D01*
X0163028Y0203711D01*
X0163038Y0203769D01*
X0163051Y0203830D01*
X0163068Y0203896D01*
X0163090Y0203964D01*
X0163117Y0204037D01*
X0163149Y0204113D01*
X0163187Y0204192D01*
X0163232Y0204274D01*
X0163283Y0204359D01*
X0163340Y0204446D01*
X0163404Y0204535D01*
X0163474Y0204626D01*
X0163550Y0204717D01*
X0163632Y0204809D01*
X0163718Y0204900D01*
X0163809Y0204991D01*
X0163902Y0205081D01*
X0163999Y0205169D01*
X0164097Y0205256D01*
X0164196Y0205340D01*
X0164296Y0205423D01*
X0164396Y0205503D01*
X0164497Y0205581D01*
X0164598Y0205658D01*
X0164700Y0205734D01*
X0164803Y0205808D01*
X0164908Y0205882D01*
X0165015Y0205957D01*
X0165125Y0206031D01*
X0165239Y0206107D01*
X0165357Y0206185D01*
X0165480Y0206264D01*
X0165608Y0206344D01*
X0165742Y0206427D01*
X0165883Y0206511D01*
X0166029Y0206596D01*
X0166181Y0206682D01*
X0166339Y0206769D01*
X0166503Y0206855D01*
X0166671Y0206940D01*
X0166844Y0207023D01*
X0167022Y0207105D01*
X0167203Y0207183D01*
X0167388Y0207258D01*
X0167575Y0207330D01*
X0167765Y0207397D01*
X0167958Y0207459D01*
X0168152Y0207517D01*
X0168349Y0207570D01*
X0168547Y0207618D01*
X0168748Y0207662D01*
X0168950Y0207700D01*
X0169154Y0207735D01*
X0169360Y0207765D01*
X0169568Y0207791D01*
X0169779Y0207813D01*
X0169993Y0207832D01*
X0170209Y0207847D01*
X0170429Y0207860D01*
X0170653Y0207869D01*
X0170880Y0207876D01*
X0171112Y0207880D01*
X0171349Y0207882D01*
X0171591Y0207880D01*
X0171839Y0207876D01*
X0172092Y0207868D01*
X0172351Y0207856D01*
X0172616Y0207840D01*
X0172887Y0207819D01*
X0173164Y0207793D01*
X0173447Y0207760D01*
X0173735Y0207721D01*
X0174027Y0207673D01*
X0174321Y0207616D01*
X0174618Y0207550D01*
X0174914Y0207473D01*
X0175208Y0207385D01*
X0175499Y0207285D01*
X0175782Y0207172D01*
X0176058Y0207045D01*
X0176322Y0206903D01*
X0176573Y0206747D01*
X0176808Y0206576D01*
X0177026Y0206390D01*
X0177226Y0206188D01*
X0177406Y0205971D01*
X0177566Y0205739D01*
X0177705Y0205492D01*
X0177823Y0205231D01*
X0177921Y0204957D01*
X0178000Y0204671D01*
X0178059Y0204374D01*
X0178101Y0204066D01*
X0178125Y0203751D01*
X0178132Y0203428D01*
X0178123Y0203101D01*
X0178096Y0202770D01*
X0178052Y0202437D01*
X0177989Y0202105D01*
X0177907Y0201776D01*
X0177804Y0201451D01*
X0177678Y0201133D01*
X0177529Y0200822D01*
X0177355Y0200521D01*
X0177156Y0200232D01*
X0176929Y0199954D01*
X0176677Y0199690D01*
X0176399Y0199439D01*
X0176098Y0199203D01*
X0175774Y0198981D01*
X0175430Y0198773D01*
X0175070Y0198580D01*
X0174697Y0198399D01*
X0174315Y0198232D01*
X0173928Y0198076D01*
X0173540Y0197931D01*
X0173155Y0197797D01*
X0172777Y0197672D01*
X0172409Y0197556D01*
X0172055Y0197449D01*
X0171716Y0197349D01*
X0171395Y0197257D01*
X0171093Y0197171D01*
X0170811Y0197091D01*
X0170549Y0197018D01*
X0170308Y0196951D01*
X0170085Y0196888D01*
X0169881Y0196830D01*
X0169692Y0196777D01*
X0169517Y0196727D01*
X0169353Y0196679D01*
X0169197Y0196634D01*
X0169046Y0196590D01*
X0168897Y0196546D01*
X0168748Y0196502D01*
X0168596Y0196456D01*
X0168439Y0196409D01*
X0168276Y0196360D01*
X0168107Y0196309D01*
X0167930Y0196256D01*
X0167748Y0196200D01*
X0167561Y0196144D01*
X0167371Y0196086D01*
X0167181Y0196029D01*
X0166994Y0195972D01*
X0166813Y0195917D01*
X0166640Y0195864D01*
X0166478Y0195815D01*
X0166330Y0195770D01*
X0166198Y0195730D01*
X0166084Y0195695D01*
X0165988Y0195664D01*
X0165915Y0195640D01*
X0165865Y0195620D01*
X0165842Y0195605D01*
X0165850Y0195596D01*
X0165895Y0195591D01*
X0165986Y0195590D01*
X0166132Y0195594D01*
X0166339Y0195602D01*
X0166613Y0195614D01*
X0166948Y0195630D01*
X0167325Y0195648D01*
X0167703Y0195666D01*
X0168014Y0195681D01*
X0168149Y0195688D01*
X0169105Y0195672D01*
X0169888Y0195626D01*
X0170540Y0195551D01*
X0171092Y0195452D01*
X0171568Y0195331D01*
X0171986Y0195193D01*
X0172359Y0195042D01*
X0172696Y0194881D01*
X0173006Y0194713D01*
X0173292Y0194540D01*
X0173557Y0194364D01*
X0173806Y0194186D01*
X0174039Y0194007D01*
X0174259Y0193826D01*
X0174464Y0193644D01*
X0174658Y0193461D01*
X0174838Y0193277D01*
X0175006Y0193091D01*
X0175162Y0192903D01*
X0175306Y0192713D01*
X0175437Y0192520D01*
X0175556Y0192326D01*
X0175663Y0192130D01*
X0175759Y0191932D01*
X0175844Y0191731D01*
X0175917Y0191529D01*
X0175980Y0191324D01*
X0176034Y0191116D01*
X0176078Y0190905D01*
X0176114Y0190691D01*
X0176142Y0190473D01*
X0176162Y0190250D01*
X0176174Y0190023D01*
X0176181Y0189789D01*
X0176180Y0189550D01*
X0176174Y0189305D01*
X0176161Y0189053D01*
X0176141Y0188795D01*
X0176114Y0188530D01*
X0176081Y0188260D01*
X0176039Y0187983D01*
X0175988Y0187702D01*
X0175928Y0187416D01*
X0175857Y0187127D01*
X0175776Y0186835D01*
X0175683Y0186542D01*
X0175578Y0186249D01*
X0175460Y0185956D01*
X0175330Y0185664D01*
X0175186Y0185376D01*
X0175030Y0185090D01*
X0174862Y0184809D01*
X0174681Y0184533D01*
X0174489Y0184263D01*
X0174287Y0183999D01*
X0174076Y0183741D01*
X0173855Y0183490D01*
X0173626Y0183246D01*
X0173391Y0183009D01*
X0173149Y0182779D01*
X0172901Y0182556D01*
X0172649Y0182338D01*
X0172393Y0182127D01*
X0172133Y0181921D01*
X0171870Y0181720D01*
X0171604Y0181524D01*
X0171336Y0181332D01*
X0171065Y0181144D01*
X0170792Y0180960D01*
X0170516Y0180780D01*
X0170238Y0180603D01*
X0169957Y0180430D01*
X0169673Y0180260D01*
X0169387Y0180095D01*
X0169097Y0179934D01*
X0168803Y0179778D01*
X0168507Y0179627D01*
X0168206Y0179483D01*
X0167901Y0179344D01*
X0167593Y0179212D01*
X0167281Y0179087D01*
X0166966Y0178969D01*
X0166647Y0178859D01*
X0166326Y0178757D01*
X0166002Y0178663D01*
X0165677Y0178576D01*
X0165350Y0178498D01*
X0165023Y0178427D01*
X0164696Y0178363D01*
X0164371Y0178307D01*
X0164048Y0178257D01*
X0163727Y0178214D01*
X0163410Y0178177D01*
X0163098Y0178145D01*
X0162790Y0178118D01*
X0162488Y0178096D01*
X0162192Y0178078D01*
X0161903Y0178064D01*
X0161619Y0178053D01*
X0161341Y0178045D01*
X0161068Y0178040D01*
X0160799Y0178037D01*
X0160533Y0178035D01*
X0160270Y0178036D01*
X0160007Y0178039D01*
X0159744Y0178044D01*
X0159478Y0178051D01*
X0159210Y0178061D01*
X0158937Y0178073D01*
X0158659Y0178090D01*
X0158377Y0178110D01*
X0158090Y0178135D01*
X0157800Y0178166D01*
X0157507Y0178204D01*
X0157214Y0178249D01*
X0156923Y0178303D01*
X0156636Y0178366D01*
X0156357Y0178439D01*
X0156088Y0178523D01*
X0155832Y0178619D01*
X0155591Y0178726D01*
X0155368Y0178844D01*
X0155164Y0178974D01*
X0154980Y0179115D01*
X0154818Y0179266D01*
X0154677Y0179425D01*
X0154557Y0179592D01*
X0154457Y0179765D01*
X0154375Y0179942D01*
X0154311Y0180122D01*
X0154262Y0180303D01*
X0154226Y0180483D01*
X0154203Y0180661D01*
X0154190Y0180836D01*
X0154186Y0181006D01*
X0154189Y0181171D01*
X0154200Y0181329D01*
X0154216Y0181481D01*
X0154239Y0181626D01*
X0154266Y0181764D01*
X0154299Y0181895D01*
X0154336Y0182020D01*
X0154380Y0182137D01*
X0154428Y0182248D01*
X0154482Y0182353D01*
X0154541Y0182452D01*
X0154606Y0182544D01*
X0154676Y0182631D01*
X0179821Y0182554D02*
X0179822Y0182607D01*
X0179826Y0182662D01*
X0179832Y0182718D01*
X0179840Y0182775D01*
X0179851Y0182834D01*
X0179865Y0182892D01*
X0179883Y0182950D01*
X0179904Y0183008D01*
X0179928Y0183064D01*
X0179957Y0183118D01*
X0179990Y0183170D01*
X0180028Y0183219D01*
X0180070Y0183264D01*
X0180116Y0183306D01*
X0180167Y0183345D01*
X0180221Y0183380D01*
X0180280Y0183411D01*
X0180341Y0183439D01*
X0180406Y0183464D01*
X0180473Y0183486D01*
X0180542Y0183505D01*
X0180612Y0183522D01*
X0180684Y0183537D01*
X0180756Y0183551D01*
X0180829Y0183563D01*
X0180902Y0183575D01*
X0180975Y0183586D01*
X0181048Y0183597D01*
X0181121Y0183608D01*
X0181194Y0183619D01*
X0181267Y0183629D01*
X0181340Y0183641D01*
X0181414Y0183652D01*
X0181488Y0183664D01*
X0181563Y0183675D01*
X0181638Y0183687D01*
X0181714Y0183699D01*
X0181791Y0183711D01*
X0181867Y0183723D01*
X0181945Y0183735D01*
X0182022Y0183747D01*
X0182099Y0183759D01*
X0182176Y0183772D01*
X0182252Y0183784D01*
X0182328Y0183797D01*
X0182402Y0183810D01*
X0182476Y0183824D01*
X0182549Y0183839D01*
X0182620Y0183856D01*
X0182691Y0183874D01*
X0182760Y0183895D01*
X0182828Y0183918D01*
X0182894Y0183944D01*
X0182960Y0183973D01*
X0183025Y0184005D01*
X0183088Y0184041D01*
X0183151Y0184081D01*
X0183213Y0184124D01*
X0183274Y0184171D01*
X0183335Y0184221D01*
X0183395Y0184275D01*
X0183454Y0184332D01*
X0183512Y0184392D01*
X0183570Y0184455D01*
X0183627Y0184519D01*
X0183684Y0184586D01*
X0183739Y0184654D01*
X0183794Y0184725D01*
X0183848Y0184796D01*
X0183902Y0184869D01*
X0183954Y0184944D01*
X0184005Y0185020D01*
X0184056Y0185097D01*
X0184105Y0185176D01*
X0184153Y0185257D01*
X0184200Y0185339D01*
X0184246Y0185423D01*
X0184291Y0185509D01*
X0184334Y0185597D01*
X0184377Y0185686D01*
X0184418Y0185777D01*
X0184458Y0185868D01*
X0184498Y0185961D01*
X0184536Y0186054D01*
X0184573Y0186147D01*
X0184609Y0186239D01*
X0184643Y0186331D01*
X0184677Y0186422D01*
X0184710Y0186510D01*
X0184742Y0186597D01*
X0184773Y0186682D01*
X0184802Y0186764D01*
X0184832Y0186844D01*
X0184860Y0186923D01*
X0184889Y0187002D01*
X0184918Y0187082D01*
X0184948Y0187165D01*
X0184981Y0187256D01*
X0185017Y0187356D01*
X0185058Y0187470D01*
X0185105Y0187604D01*
X0185162Y0187763D01*
X0185229Y0187952D01*
X0185308Y0188177D01*
X0185402Y0188444D01*
X0185511Y0188758D01*
X0185639Y0189122D01*
X0185785Y0189541D01*
X0185951Y0190015D01*
X0186135Y0190543D01*
X0186338Y0191125D01*
X0186558Y0191755D01*
X0186793Y0192427D01*
X0187039Y0193134D01*
X0187294Y0193866D01*
X0187554Y0194612D01*
X0187816Y0195362D01*
X0188074Y0196104D01*
X0188326Y0196826D01*
X0188568Y0197520D01*
X0188796Y0198176D01*
X0189009Y0198786D01*
X0189204Y0199345D01*
X0189380Y0199849D01*
X0189536Y0200297D01*
X0189672Y0200689D01*
X0189790Y0201027D01*
X0189889Y0201313D01*
X0189972Y0201552D01*
X0190041Y0201750D01*
X0190097Y0201911D01*
X0190142Y0202042D01*
X0190179Y0202148D01*
X0190208Y0202233D01*
X0190233Y0202303D01*
X0190253Y0202362D01*
X0190270Y0202412D01*
X0190286Y0202457D01*
X0190300Y0202498D01*
X0190314Y0202537D01*
X0190327Y0202576D01*
X0190341Y0202614D01*
X0190354Y0202653D01*
X0190368Y0202691D01*
X0190381Y0202731D01*
X0190395Y0202771D01*
X0190408Y0202811D01*
X0190421Y0202852D01*
X0190434Y0202893D01*
X0190447Y0202934D01*
X0190458Y0202976D01*
X0190470Y0203018D01*
X0190480Y0203059D01*
X0190490Y0203102D01*
X0190499Y0203144D01*
X0190508Y0203186D01*
X0190515Y0203228D01*
X0190522Y0203270D01*
X0190528Y0203312D01*
X0190534Y0203354D01*
X0190538Y0203396D01*
X0190542Y0203437D01*
X0190546Y0203478D01*
X0190548Y0203518D01*
X0190550Y0203558D01*
X0190552Y0203598D01*
X0190552Y0203637D01*
X0190552Y0203675D01*
X0190551Y0203713D01*
X0190548Y0203749D01*
X0190545Y0203785D01*
X0190541Y0203820D01*
X0190535Y0203854D01*
X0190528Y0203887D01*
X0190520Y0203919D01*
X0190510Y0203950D01*
X0190498Y0203979D01*
X0190485Y0204007D01*
X0190470Y0204034D01*
X0190454Y0204060D01*
X0190436Y0204083D01*
X0190416Y0204106D01*
X0190395Y0204126D01*
X0190372Y0204145D01*
X0190347Y0204162D01*
X0190322Y0204178D01*
X0190295Y0204192D01*
X0190266Y0204204D01*
X0190237Y0204215D01*
X0190206Y0204224D01*
X0190175Y0204232D01*
X0190142Y0204238D01*
X0190109Y0204243D01*
X0190075Y0204247D01*
X0190040Y0204250D01*
X0190005Y0204252D01*
X0189968Y0204253D01*
X0189930Y0204253D01*
X0189891Y0204252D01*
X0189851Y0204250D01*
X0189809Y0204247D01*
X0189765Y0204243D01*
X0189720Y0204238D01*
X0189672Y0204232D01*
X0189622Y0204224D01*
X0189570Y0204216D01*
X0189516Y0204206D01*
X0189459Y0204195D01*
X0189400Y0204182D01*
X0189340Y0204169D01*
X0189278Y0204154D01*
X0189214Y0204139D01*
X0189151Y0204123D01*
X0189086Y0204106D01*
X0189023Y0204089D01*
X0188959Y0204072D01*
X0188897Y0204055D01*
X0188837Y0204037D01*
X0188778Y0204020D01*
X0188720Y0204003D01*
X0188665Y0203987D01*
X0188612Y0203971D01*
X0188561Y0203956D01*
X0188512Y0203941D01*
X0188465Y0203927D01*
X0188418Y0203913D01*
X0188373Y0203899D01*
X0188328Y0203886D01*
X0188284Y0203873D01*
X0188239Y0203860D01*
X0188195Y0203847D01*
X0188149Y0203834D01*
X0188103Y0203820D01*
X0188055Y0203807D01*
X0188006Y0203793D01*
X0187956Y0203778D01*
X0187904Y0203764D01*
X0187851Y0203748D01*
X0187796Y0203732D01*
X0187740Y0203716D01*
X0187683Y0203699D01*
X0187624Y0203682D01*
X0187565Y0203664D01*
X0187505Y0203647D01*
X0187444Y0203630D01*
X0187383Y0203613D01*
X0187322Y0203596D01*
X0187262Y0203580D01*
X0187201Y0203565D01*
X0187142Y0203551D01*
X0187083Y0203538D01*
X0187025Y0203525D01*
X0186969Y0203515D01*
X0186914Y0203505D01*
X0186860Y0203496D01*
X0186808Y0203489D01*
X0186758Y0203483D01*
X0186708Y0203478D01*
X0186661Y0203474D01*
X0186615Y0203471D01*
X0186570Y0203470D01*
X0186527Y0203469D01*
X0186486Y0203468D01*
X0186445Y0203469D01*
X0186406Y0203471D01*
X0186368Y0203473D01*
X0186331Y0203477D01*
X0186295Y0203482D01*
X0186261Y0203487D01*
X0186227Y0203494D01*
X0186194Y0203502D01*
X0186162Y0203512D01*
X0186132Y0203523D01*
X0186102Y0203535D01*
X0186073Y0203549D01*
X0186046Y0203565D01*
X0186020Y0203582D01*
X0185996Y0203601D01*
X0185973Y0203621D01*
X0185951Y0203643D01*
X0185932Y0203667D01*
X0185913Y0203691D01*
X0185897Y0203718D01*
X0185883Y0203745D01*
X0185870Y0203774D01*
X0185859Y0203803D01*
X0185850Y0203834D01*
X0185842Y0203865D01*
X0185836Y0203897D01*
X0185831Y0203930D01*
X0185827Y0203963D01*
X0185825Y0203996D01*
X0185824Y0204029D01*
X0185824Y0204063D01*
X0185824Y0204096D01*
X0185825Y0204130D01*
X0185828Y0204162D01*
X0185830Y0204195D01*
X0185834Y0204227D01*
X0185838Y0204258D01*
X0185843Y0204288D01*
X0185849Y0204318D01*
X0185856Y0204347D01*
X0185863Y0204375D01*
X0185872Y0204402D01*
X0185881Y0204428D01*
X0185892Y0204453D01*
X0185904Y0204477D01*
X0185916Y0204500D01*
X0185930Y0204523D01*
X0185946Y0204544D01*
X0185963Y0204565D01*
X0185981Y0204586D01*
X0186000Y0204605D01*
X0186021Y0204625D01*
X0186043Y0204643D01*
X0186067Y0204662D01*
X0186092Y0204681D01*
X0186119Y0204700D01*
X0186148Y0204719D01*
X0186178Y0204738D01*
X0186210Y0204758D01*
X0186245Y0204778D01*
X0186282Y0204799D01*
X0186321Y0204821D01*
X0186364Y0204844D01*
X0186410Y0204869D01*
X0186459Y0204894D01*
X0186512Y0204920D01*
X0186570Y0204948D01*
X0186632Y0204977D01*
X0186700Y0205007D01*
X0186773Y0205038D01*
X0186851Y0205070D01*
X0186936Y0205104D01*
X0187026Y0205138D01*
X0187123Y0205173D01*
X0187224Y0205209D01*
X0187331Y0205245D01*
X0187442Y0205282D01*
X0187557Y0205318D01*
X0187675Y0205355D01*
X0187795Y0205391D01*
X0187916Y0205427D01*
X0188036Y0205462D01*
X0188155Y0205496D01*
X0188272Y0205529D01*
X0188385Y0205561D01*
X0188494Y0205591D01*
X0188598Y0205620D01*
X0188697Y0205648D01*
X0188791Y0205673D01*
X0188879Y0205697D01*
X0188961Y0205720D01*
X0189039Y0205742D01*
X0189114Y0205763D01*
X0189187Y0205783D01*
X0189259Y0205804D01*
X0189334Y0205826D01*
X0189413Y0205849D01*
X0189500Y0205874D01*
X0189597Y0205903D01*
X0189708Y0205937D01*
X0189836Y0205975D01*
X0189985Y0206020D01*
X0190155Y0206072D01*
X0190351Y0206131D01*
X0190573Y0206199D01*
X0190822Y0206274D01*
X0191097Y0206358D01*
X0191398Y0206450D01*
X0191721Y0206548D01*
X0192064Y0206652D01*
X0192422Y0206762D01*
X0192791Y0206874D01*
X0193166Y0206988D01*
X0193540Y0207102D01*
X0193908Y0207214D01*
X0194265Y0207323D01*
X0194606Y0207427D01*
X0194927Y0207525D01*
X0195224Y0207615D01*
X0195494Y0207698D01*
X0195737Y0207772D01*
X0195951Y0207837D01*
X0196138Y0207894D01*
X0196298Y0207943D01*
X0196433Y0207985D01*
X0196545Y0208020D01*
X0196638Y0208049D01*
X0196714Y0208073D01*
X0196775Y0208092D01*
X0196825Y0208109D01*
X0196866Y0208122D01*
X0196901Y0208134D01*
X0196931Y0208145D01*
X0196958Y0208155D01*
X0196983Y0208165D01*
X0197008Y0208175D01*
X0197033Y0208185D01*
X0197059Y0208195D01*
X0197085Y0208206D01*
X0197113Y0208217D01*
X0197141Y0208229D01*
X0197171Y0208241D01*
X0197202Y0208253D01*
X0197233Y0208265D01*
X0197265Y0208277D01*
X0197297Y0208289D01*
X0197329Y0208300D01*
X0197361Y0208311D01*
X0197393Y0208321D01*
X0197424Y0208331D01*
X0197455Y0208340D01*
X0197486Y0208348D01*
X0197515Y0208355D01*
X0197544Y0208361D01*
X0197573Y0208367D01*
X0197600Y0208371D01*
X0197628Y0208375D01*
X0197654Y0208378D01*
X0197680Y0208380D01*
X0197706Y0208381D01*
X0197731Y0208381D01*
X0197757Y0208381D01*
X0197782Y0208380D01*
X0197807Y0208378D01*
X0197832Y0208375D01*
X0197856Y0208371D01*
X0197881Y0208366D01*
X0197906Y0208360D01*
X0197930Y0208352D01*
X0197955Y0208344D01*
X0197979Y0208334D01*
X0198003Y0208322D01*
X0198026Y0208309D01*
X0198049Y0208295D01*
X0198071Y0208279D01*
X0198093Y0208262D01*
X0198113Y0208243D01*
X0198133Y0208224D01*
X0198151Y0208203D01*
X0198168Y0208181D01*
X0198184Y0208159D01*
X0198198Y0208136D01*
X0198211Y0208112D01*
X0198222Y0208088D01*
X0198232Y0208063D01*
X0198241Y0208038D01*
X0198248Y0208013D01*
X0198253Y0207988D01*
X0198258Y0207963D01*
X0198261Y0207937D01*
X0198263Y0207911D01*
X0198264Y0207884D01*
X0198264Y0207857D01*
X0198263Y0207829D01*
X0198260Y0207800D01*
X0198256Y0207769D01*
X0198251Y0207737D01*
X0198245Y0207703D01*
X0198237Y0207666D01*
X0198227Y0207627D01*
X0198216Y0207585D01*
X0198204Y0207540D01*
X0198189Y0207492D01*
X0198173Y0207441D01*
X0198155Y0207387D01*
X0198136Y0207331D01*
X0198116Y0207273D01*
X0198095Y0207213D01*
X0198073Y0207153D01*
X0198051Y0207092D01*
X0198028Y0207031D01*
X0198006Y0206971D01*
X0197985Y0206913D01*
X0197965Y0206857D01*
X0197945Y0206802D01*
X0197924Y0206746D01*
X0197902Y0206682D01*
X0197873Y0206600D01*
X0197832Y0206484D01*
X0197772Y0206310D01*
X0197679Y0206043D01*
X0197538Y0205637D01*
X0197327Y0205030D01*
X0197019Y0204145D01*
X0196586Y0202901D01*
X0196003Y0201228D01*
X0195257Y0199087D01*
X0194359Y0196513D01*
X0193359Y0193645D01*
X0192362Y0190785D01*
X0191547Y0188448D01*
X0191194Y0187434D01*
X0191092Y0187121D01*
X0191000Y0186844D01*
X0190921Y0186596D01*
X0190855Y0186372D01*
X0190802Y0186165D01*
X0190762Y0185968D01*
X0190733Y0185777D01*
X0190716Y0185589D01*
X0190711Y0185401D01*
X0190718Y0185213D01*
X0190738Y0185025D01*
X0190772Y0184841D01*
X0190820Y0184662D01*
X0190884Y0184492D01*
X0190965Y0184333D01*
X0191062Y0184188D01*
X0191175Y0184059D01*
X0191303Y0183948D01*
X0191444Y0183853D01*
X0191597Y0183776D01*
X0191758Y0183715D01*
X0191925Y0183668D01*
X0192095Y0183632D01*
X0192264Y0183605D01*
X0192429Y0183584D01*
X0192588Y0183565D01*
X0192737Y0183547D01*
X0192875Y0183527D01*
X0193001Y0183502D01*
X0193113Y0183472D01*
X0193210Y0183436D01*
X0193294Y0183394D01*
X0193364Y0183345D01*
X0193421Y0183290D01*
X0193465Y0183229D01*
X0193499Y0183164D01*
X0193524Y0183096D01*
X0193540Y0183026D01*
X0193548Y0182955D01*
X0193550Y0182883D01*
X0193547Y0182813D01*
X0193538Y0182743D01*
X0193525Y0182676D01*
X0193508Y0182612D01*
X0193487Y0182550D01*
X0193463Y0182492D01*
X0193434Y0182437D01*
X0193402Y0182385D01*
X0193366Y0182337D01*
X0193327Y0182293D01*
X0193285Y0182252D01*
X0193240Y0182214D01*
X0193192Y0182179D01*
X0193141Y0182148D01*
X0193088Y0182120D01*
X0193033Y0182094D01*
X0192975Y0182071D01*
X0192915Y0182051D01*
X0192854Y0182034D01*
X0192789Y0182018D01*
X0192723Y0182005D01*
X0192653Y0181994D01*
X0192580Y0181985D01*
X0192503Y0181977D01*
X0192421Y0181972D01*
X0192335Y0181967D01*
X0192242Y0181964D01*
X0192144Y0181962D01*
X0192039Y0181961D01*
X0191927Y0181962D01*
X0191809Y0181963D01*
X0191683Y0181965D01*
X0191550Y0181967D01*
X0191411Y0181971D01*
X0191265Y0181975D01*
X0191114Y0181980D01*
X0190958Y0181985D01*
X0190797Y0181991D01*
X0190632Y0181998D01*
X0190463Y0182006D01*
X0190292Y0182013D01*
X0190119Y0182022D01*
X0189944Y0182030D01*
X0189768Y0182039D01*
X0189591Y0182048D01*
X0189414Y0182057D01*
X0189236Y0182066D01*
X0189058Y0182075D01*
X0188880Y0182083D01*
X0188702Y0182091D01*
X0188524Y0182099D01*
X0188346Y0182106D01*
X0188168Y0182112D01*
X0187991Y0182118D01*
X0187813Y0182123D01*
X0187635Y0182127D01*
X0187457Y0182131D01*
X0187280Y0182134D01*
X0187102Y0182137D01*
X0186924Y0182138D01*
X0186746Y0182140D01*
X0186568Y0182140D01*
X0186390Y0182140D01*
X0186212Y0182140D01*
X0186033Y0182139D01*
X0185854Y0182138D01*
X0185675Y0182136D01*
X0185496Y0182133D01*
X0185317Y0182130D01*
X0185137Y0182126D01*
X0184956Y0182121D01*
X0184776Y0182116D01*
X0184595Y0182110D01*
X0184413Y0182103D01*
X0184232Y0182096D01*
X0184050Y0182088D01*
X0183869Y0182080D01*
X0183687Y0182071D01*
X0183506Y0182062D01*
X0183325Y0182053D01*
X0183145Y0182044D01*
X0182966Y0182035D01*
X0182789Y0182027D01*
X0182614Y0182018D01*
X0182441Y0182010D01*
X0182272Y0182002D01*
X0182107Y0181995D01*
X0181946Y0181989D01*
X0181790Y0181983D01*
X0181640Y0181977D01*
X0181496Y0181973D01*
X0181360Y0181969D01*
X0181230Y0181965D01*
X0181108Y0181963D01*
X0180995Y0181961D01*
X0180889Y0181960D01*
X0180791Y0181959D01*
X0180701Y0181960D01*
X0180618Y0181961D01*
X0180542Y0181963D01*
X0180473Y0181966D01*
X0180409Y0181971D01*
X0180352Y0181976D01*
X0180299Y0181983D01*
X0180250Y0181991D01*
X0180205Y0182001D01*
X0180163Y0182012D01*
X0180125Y0182025D01*
X0180089Y0182039D01*
X0180056Y0182055D01*
X0180025Y0182073D01*
X0179996Y0182093D01*
X0179969Y0182114D01*
X0179945Y0182138D01*
X0179923Y0182164D01*
X0179903Y0182192D01*
X0179885Y0182222D01*
X0179869Y0182255D01*
X0179856Y0182290D01*
X0179845Y0182328D01*
X0179836Y0182368D01*
X0179829Y0182411D01*
X0179824Y0182456D01*
X0179821Y0182504D01*
X0179821Y0182554D01*
X0201985Y0189645D02*
X0201980Y0189662D01*
X0201977Y0189679D01*
X0201976Y0189696D01*
X0201975Y0189713D01*
X0201975Y0189730D01*
X0201976Y0189746D01*
X0201978Y0189763D01*
X0201980Y0189779D01*
X0201982Y0189795D01*
X0201985Y0189811D01*
X0201988Y0189827D01*
X0201992Y0189842D01*
X0201996Y0189858D01*
X0202001Y0189874D01*
X0202005Y0189890D01*
X0202010Y0189906D01*
X0202015Y0189922D01*
X0202020Y0189938D01*
X0202026Y0189955D01*
X0202031Y0189972D01*
X0202037Y0189990D01*
X0202043Y0190009D01*
X0202049Y0190029D01*
X0202055Y0190050D01*
X0202062Y0190073D01*
X0202069Y0190098D01*
X0202078Y0190126D01*
X0202087Y0190157D01*
X0202097Y0190191D01*
X0202108Y0190229D01*
X0202120Y0190271D01*
X0202133Y0190317D01*
X0202148Y0190367D01*
X0202164Y0190421D01*
X0202181Y0190478D01*
X0202199Y0190538D01*
X0202218Y0190600D01*
X0202237Y0190664D01*
X0202256Y0190729D01*
X0202275Y0190794D01*
X0202294Y0190858D01*
X0202312Y0190920D01*
X0202331Y0190981D01*
X0202348Y0191039D01*
X0202366Y0191095D01*
X0202383Y0191147D01*
X0202400Y0191197D01*
X0202418Y0191245D01*
X0202437Y0191291D01*
X0202458Y0191335D01*
X0202480Y0191379D01*
X0202504Y0191422D01*
X0202530Y0191466D01*
X0202560Y0191510D01*
X0202592Y0191555D01*
X0202627Y0191602D01*
X0202665Y0191650D01*
X0202706Y0191701D01*
X0202752Y0191755D01*
X0202802Y0191812D01*
X0202859Y0191876D01*
X0202924Y0191946D01*
X0202999Y0192027D01*
X0203090Y0192122D01*
X0203199Y0192235D01*
X0203332Y0192372D01*
X0203495Y0192538D01*
X0203694Y0192739D01*
X0203937Y0192983D01*
X0204228Y0193276D01*
X0204575Y0193624D01*
X0204983Y0194031D01*
X0205454Y0194502D01*
X0205990Y0195037D01*
X0206592Y0195638D01*
X0207256Y0196300D01*
X0207976Y0197019D01*
X0208747Y0197787D01*
X0209556Y0198594D01*
X0210395Y0199430D01*
X0211248Y0200280D01*
X0212103Y0201133D01*
X0212946Y0201973D01*
X0213764Y0202789D01*
X0214545Y0203567D01*
X0215278Y0204298D01*
X0215956Y0204973D01*
X0216572Y0205588D01*
X0217122Y0206137D01*
X0217607Y0206619D01*
X0218025Y0207037D01*
X0218381Y0207392D01*
X0218680Y0207689D01*
X0218926Y0207934D01*
X0219126Y0208133D01*
X0219287Y0208293D01*
X0219416Y0208420D01*
X0219519Y0208520D01*
X0219601Y0208600D01*
X0219668Y0208662D01*
X0219724Y0208713D01*
X0219772Y0208754D01*
X0219815Y0208788D01*
X0219855Y0208818D01*
X0219893Y0208843D01*
X0219930Y0208865D01*
X0219967Y0208885D01*
X0220004Y0208902D01*
X0220041Y0208916D01*
X0220078Y0208928D01*
X0220116Y0208938D01*
X0220155Y0208946D01*
X0220194Y0208953D01*
X0220234Y0208957D01*
X0220275Y0208960D01*
X0220317Y0208961D01*
X0220359Y0208962D01*
X0220402Y0208962D01*
X0220445Y0208961D01*
X0220489Y0208960D01*
X0220533Y0208958D01*
X0220576Y0208957D01*
X0220620Y0208956D01*
X0220663Y0208955D01*
X0220705Y0208954D01*
X0220746Y0208953D01*
X0220787Y0208953D01*
X0220826Y0208953D01*
X0220866Y0208954D01*
X0220905Y0208955D01*
X0220944Y0208956D01*
X0220984Y0208958D01*
X0221025Y0208960D01*
X0221068Y0208963D01*
X0221113Y0208966D01*
X0221161Y0208970D01*
X0221212Y0208974D01*
X0221267Y0208979D01*
X0221324Y0208983D01*
X0221385Y0208988D01*
X0221449Y0208992D01*
X0221514Y0208996D01*
X0221581Y0208998D01*
X0221648Y0209000D01*
X0221715Y0209001D01*
X0221781Y0208999D01*
X0221844Y0208996D01*
X0221904Y0208991D01*
X0221960Y0208984D01*
X0222012Y0208974D01*
X0222058Y0208962D01*
X0222100Y0208948D01*
X0222136Y0208932D01*
X0222166Y0208914D01*
X0222192Y0208895D01*
X0222213Y0208874D01*
X0222229Y0208852D01*
X0222242Y0208829D01*
X0222250Y0208805D01*
X0222256Y0208781D01*
X0222259Y0208757D01*
X0222260Y0208733D01*
X0222259Y0208709D01*
X0222255Y0208685D01*
X0222250Y0208661D01*
X0222244Y0208638D01*
X0222236Y0208614D01*
X0222227Y0208591D01*
X0222216Y0208568D01*
X0222203Y0208545D01*
X0222190Y0208522D01*
X0222175Y0208499D01*
X0222159Y0208477D01*
X0222143Y0208454D01*
X0222125Y0208432D01*
X0222107Y0208411D01*
X0222088Y0208389D01*
X0222070Y0208369D01*
X0222051Y0208349D01*
X0222032Y0208329D01*
X0222014Y0208311D01*
X0221996Y0208293D01*
X0221978Y0208275D01*
X0221960Y0208257D01*
X0221940Y0208237D01*
X0221917Y0208215D01*
X0221889Y0208189D01*
X0221855Y0208156D01*
X0221809Y0208112D01*
X0221749Y0208054D01*
X0221669Y0207977D01*
X0221564Y0207876D01*
X0221426Y0207743D01*
X0221250Y0207574D01*
X0221028Y0207360D01*
X0220753Y0207095D01*
X0220420Y0206774D01*
X0220022Y0206390D01*
X0219556Y0205942D01*
X0219021Y0205426D01*
X0218416Y0204843D01*
X0217744Y0204195D01*
X0217011Y0203489D01*
X0216224Y0202730D01*
X0215393Y0201930D01*
X0214530Y0201098D01*
X0213648Y0200248D01*
X0212761Y0199394D01*
X0211885Y0198549D01*
X0211032Y0197727D01*
X0210216Y0196941D01*
X0209448Y0196201D01*
X0208737Y0195515D01*
X0208091Y0194892D01*
X0207513Y0194334D01*
X0207006Y0193844D01*
X0206571Y0193421D01*
X0206205Y0193063D01*
X0205906Y0192766D01*
X0205669Y0192524D01*
X0205489Y0192332D01*
X0205363Y0192181D01*
X0205285Y0192067D01*
X0205253Y0191982D01*
X0205262Y0191921D01*
X0205312Y0191878D01*
X0205401Y0191848D01*
X0205528Y0191829D01*
X0205692Y0191817D01*
X0205895Y0191810D01*
X0206135Y0191805D01*
X0206412Y0191803D01*
X0206724Y0191802D01*
X0207069Y0191802D01*
X0207443Y0191801D01*
X0207842Y0191801D01*
X0208260Y0191801D01*
X0208691Y0191801D01*
X0209128Y0191801D01*
X0209565Y0191801D01*
X0209993Y0191801D01*
X0210406Y0191801D01*
X0210799Y0191801D01*
X0211166Y0191801D01*
X0211503Y0191802D01*
X0211807Y0191802D01*
X0212078Y0191803D01*
X0212314Y0191806D01*
X0212516Y0191809D01*
X0212687Y0191815D01*
X0212830Y0191824D01*
X0212947Y0191838D01*
X0213042Y0191859D01*
X0213120Y0191887D01*
X0213186Y0191927D01*
X0213242Y0191980D01*
X0213293Y0192049D01*
X0213342Y0192137D01*
X0213393Y0192247D01*
X0213448Y0192381D01*
X0213509Y0192542D01*
X0213578Y0192731D01*
X0213656Y0192949D01*
X0213743Y0193196D01*
X0213840Y0193471D01*
X0213945Y0193771D01*
X0214058Y0194095D01*
X0214178Y0194437D01*
X0214302Y0194793D01*
X0214430Y0195158D01*
X0214558Y0195526D01*
X0214686Y0195891D01*
X0214811Y0196248D01*
X0214931Y0196592D01*
X0215045Y0196919D01*
X0215152Y0197224D01*
X0215250Y0197507D01*
X0215340Y0197766D01*
X0215422Y0198000D01*
X0215495Y0198211D01*
X0215560Y0198400D01*
X0215619Y0198569D01*
X0215671Y0198720D01*
X0215718Y0198858D01*
X0215760Y0198984D01*
X0215800Y0199100D01*
X0215836Y0199210D01*
X0215871Y0199315D01*
X0215905Y0199416D01*
X0215937Y0199513D01*
X0215968Y0199608D01*
X0215999Y0199700D01*
X0216029Y0199788D01*
X0216058Y0199872D01*
X0216087Y0199951D01*
X0216117Y0200024D01*
X0216146Y0200092D01*
X0216177Y0200153D01*
X0216210Y0200207D01*
X0216245Y0200255D01*
X0216283Y0200297D01*
X0216326Y0200334D01*
X0216374Y0200365D01*
X0216428Y0200393D01*
X0216488Y0200418D01*
X0216556Y0200440D01*
X0216630Y0200461D01*
X0216711Y0200481D01*
X0216798Y0200500D01*
X0216890Y0200520D01*
X0216987Y0200540D01*
X0217087Y0200560D01*
X0217188Y0200581D01*
X0217291Y0200602D01*
X0217393Y0200624D01*
X0217494Y0200645D01*
X0217594Y0200666D01*
X0217692Y0200687D01*
X0217788Y0200708D01*
X0217882Y0200729D01*
X0217977Y0200750D01*
X0218073Y0200771D01*
X0218171Y0200793D01*
X0218272Y0200815D01*
X0218378Y0200839D01*
X0218490Y0200864D01*
X0218609Y0200890D01*
X0218735Y0200919D01*
X0218868Y0200948D01*
X0219008Y0200979D01*
X0219153Y0201012D01*
X0219302Y0201045D01*
X0219454Y0201079D01*
X0219606Y0201113D01*
X0219757Y0201146D01*
X0219903Y0201179D01*
X0220044Y0201210D01*
X0220177Y0201240D01*
X0220301Y0201267D01*
X0220415Y0201293D01*
X0220518Y0201315D01*
X0220609Y0201336D01*
X0220690Y0201353D01*
X0220760Y0201369D01*
X0220820Y0201382D01*
X0220871Y0201393D01*
X0220915Y0201402D01*
X0220953Y0201410D01*
X0220986Y0201417D01*
X0221015Y0201423D01*
X0221042Y0201428D01*
X0221067Y0201433D01*
X0221091Y0201438D01*
X0221116Y0201443D01*
X0221141Y0201448D01*
X0221167Y0201454D01*
X0221195Y0201459D01*
X0221224Y0201465D01*
X0221254Y0201472D01*
X0221286Y0201478D01*
X0221319Y0201485D01*
X0221353Y0201492D01*
X0221388Y0201499D01*
X0221424Y0201507D01*
X0221460Y0201514D01*
X0221496Y0201521D01*
X0221533Y0201528D01*
X0221569Y0201534D01*
X0221604Y0201540D01*
X0221639Y0201546D01*
X0221673Y0201551D01*
X0221707Y0201556D01*
X0221739Y0201560D01*
X0221770Y0201563D01*
X0221799Y0201566D01*
X0221828Y0201569D01*
X0221855Y0201571D01*
X0221881Y0201572D01*
X0221905Y0201573D01*
X0221929Y0201574D01*
X0221951Y0201574D01*
X0221973Y0201573D01*
X0221993Y0201573D01*
X0222013Y0201571D01*
X0222032Y0201570D01*
X0222050Y0201568D01*
X0222067Y0201565D01*
X0222084Y0201561D01*
X0222101Y0201557D01*
X0222116Y0201553D01*
X0222131Y0201547D01*
X0222146Y0201541D01*
X0222160Y0201534D01*
X0222174Y0201526D01*
X0222186Y0201517D01*
X0222199Y0201507D01*
X0222210Y0201497D01*
X0222221Y0201485D01*
X0222230Y0201473D01*
X0222239Y0201460D01*
X0222248Y0201446D01*
X0222255Y0201431D01*
X0222261Y0201416D01*
X0222266Y0201399D01*
X0222271Y0201382D01*
X0222274Y0201364D01*
X0222277Y0201346D01*
X0222279Y0201326D01*
X0222280Y0201306D01*
X0222281Y0201284D01*
X0222281Y0201262D01*
X0222280Y0201239D01*
X0222279Y0201215D01*
X0222277Y0201190D01*
X0222274Y0201163D01*
X0222271Y0201135D01*
X0222267Y0201106D01*
X0222262Y0201076D01*
X0222257Y0201044D01*
X0222250Y0201011D01*
X0222243Y0200976D01*
X0222235Y0200940D01*
X0222226Y0200903D01*
X0222217Y0200865D01*
X0222207Y0200826D01*
X0222196Y0200786D01*
X0222184Y0200746D01*
X0222172Y0200705D01*
X0222160Y0200665D01*
X0222148Y0200626D01*
X0222135Y0200587D01*
X0222123Y0200549D01*
X0222111Y0200512D01*
X0222099Y0200477D01*
X0222087Y0200444D01*
X0222076Y0200411D01*
X0222065Y0200380D01*
X0222054Y0200350D01*
X0222043Y0200319D01*
X0222032Y0200286D01*
X0222019Y0200251D01*
X0222005Y0200211D01*
X0221988Y0200164D01*
X0221967Y0200106D01*
X0221942Y0200035D01*
X0221911Y0199948D01*
X0221874Y0199841D01*
X0221828Y0199709D01*
X0221772Y0199551D01*
X0221706Y0199363D01*
X0221629Y0199143D01*
X0221541Y0198889D01*
X0221440Y0198601D01*
X0221328Y0198280D01*
X0221205Y0197928D01*
X0221072Y0197548D01*
X0220931Y0197145D01*
X0220784Y0196724D01*
X0220633Y0196291D01*
X0220480Y0195853D01*
X0220328Y0195418D01*
X0220179Y0194991D01*
X0220036Y0194581D01*
X0219901Y0194193D01*
X0219774Y0193831D01*
X0219659Y0193499D01*
X0219555Y0193201D01*
X0219463Y0192937D01*
X0219384Y0192708D01*
X0219317Y0192512D01*
X0219262Y0192349D01*
X0219219Y0192215D01*
X0219187Y0192107D01*
X0219165Y0192022D01*
X0219153Y0191957D01*
X0219151Y0191908D01*
X0219159Y0191873D01*
X0219176Y0191848D01*
X0219203Y0191830D01*
X0219240Y0191819D01*
X0219287Y0191811D01*
X0219345Y0191807D01*
X0219414Y0191804D01*
X0219494Y0191803D01*
X0219585Y0191802D01*
X0219685Y0191802D01*
X0219795Y0191801D01*
X0219912Y0191801D01*
X0220036Y0191801D01*
X0220165Y0191801D01*
X0220297Y0191801D01*
X0220429Y0191801D01*
X0220559Y0191801D01*
X0220686Y0191801D01*
X0220807Y0191801D01*
X0220922Y0191801D01*
X0221028Y0191801D01*
X0221124Y0191800D01*
X0221211Y0191800D01*
X0221288Y0191799D01*
X0221355Y0191799D01*
X0221413Y0191798D01*
X0221462Y0191797D01*
X0221504Y0191796D01*
X0221539Y0191795D01*
X0221568Y0191794D01*
X0221593Y0191792D01*
X0221615Y0191791D01*
X0221634Y0191789D01*
X0221651Y0191788D01*
X0221668Y0191786D01*
X0221684Y0191785D01*
X0221700Y0191783D01*
X0221716Y0191782D01*
X0221733Y0191780D01*
X0221751Y0191779D01*
X0221769Y0191778D01*
X0221787Y0191776D01*
X0221805Y0191775D01*
X0221824Y0191773D01*
X0221843Y0191771D01*
X0221861Y0191768D01*
X0221879Y0191764D01*
X0221897Y0191760D01*
X0221913Y0191754D01*
X0221928Y0191748D01*
X0221942Y0191740D01*
X0221955Y0191731D01*
X0221967Y0191721D01*
X0221977Y0191710D01*
X0221986Y0191697D01*
X0221993Y0191684D01*
X0221999Y0191669D01*
X0222004Y0191653D01*
X0222007Y0191637D01*
X0222010Y0191620D01*
X0222011Y0191602D01*
X0222012Y0191583D01*
X0222012Y0191564D01*
X0222011Y0191544D01*
X0222009Y0191524D01*
X0222006Y0191502D01*
X0222003Y0191480D01*
X0221999Y0191457D01*
X0221994Y0191433D01*
X0221988Y0191408D01*
X0221982Y0191382D01*
X0221975Y0191355D01*
X0221967Y0191326D01*
X0221958Y0191297D01*
X0221948Y0191267D01*
X0221939Y0191237D01*
X0221928Y0191206D01*
X0221918Y0191174D01*
X0221907Y0191143D01*
X0221896Y0191113D01*
X0221885Y0191083D01*
X0221874Y0191054D01*
X0221864Y0191026D01*
X0221854Y0191000D01*
X0221845Y0190976D01*
X0221836Y0190953D01*
X0221828Y0190932D01*
X0221821Y0190913D01*
X0221814Y0190895D01*
X0221808Y0190879D01*
X0221803Y0190865D01*
X0221798Y0190851D01*
X0221793Y0190838D01*
X0221788Y0190826D01*
X0221783Y0190813D01*
X0221778Y0190800D01*
X0221773Y0190786D01*
X0221768Y0190770D01*
X0221761Y0190753D01*
X0221754Y0190733D01*
X0221746Y0190711D01*
X0221737Y0190685D01*
X0221728Y0190657D01*
X0221717Y0190626D01*
X0221705Y0190593D01*
X0221692Y0190556D01*
X0221678Y0190518D01*
X0221664Y0190477D01*
X0221649Y0190436D01*
X0221634Y0190393D01*
X0221620Y0190351D01*
X0221605Y0190309D01*
X0221591Y0190269D01*
X0221577Y0190230D01*
X0221564Y0190192D01*
X0221551Y0190157D01*
X0221540Y0190124D01*
X0221529Y0190093D01*
X0221519Y0190065D01*
X0221510Y0190038D01*
X0221501Y0190012D01*
X0221493Y0189988D01*
X0221485Y0189964D01*
X0221477Y0189941D01*
X0221469Y0189918D01*
X0221461Y0189895D01*
X0221452Y0189872D01*
X0221444Y0189848D01*
X0221435Y0189825D01*
X0221426Y0189801D01*
X0221416Y0189777D01*
X0221406Y0189754D01*
X0221396Y0189731D01*
X0221385Y0189709D01*
X0221374Y0189688D01*
X0221363Y0189669D01*
X0221351Y0189651D01*
X0221338Y0189635D01*
X0221325Y0189620D01*
X0221310Y0189608D01*
X0221295Y0189597D01*
X0221279Y0189588D01*
X0221261Y0189581D01*
X0221243Y0189575D01*
X0221223Y0189570D01*
X0221201Y0189567D01*
X0221179Y0189564D01*
X0221156Y0189562D01*
X0221131Y0189561D01*
X0221106Y0189560D01*
X0221080Y0189559D01*
X0221053Y0189558D01*
X0221025Y0189558D01*
X0220996Y0189558D01*
X0220966Y0189558D01*
X0220934Y0189558D01*
X0220900Y0189558D01*
X0220862Y0189558D01*
X0220819Y0189558D01*
X0220771Y0189558D01*
X0220715Y0189558D01*
X0220652Y0189558D01*
X0220580Y0189558D01*
X0220497Y0189558D01*
X0220404Y0189558D01*
X0220300Y0189558D01*
X0220186Y0189558D01*
X0220062Y0189558D01*
X0219929Y0189558D01*
X0219789Y0189558D01*
X0219644Y0189558D01*
X0219497Y0189558D01*
X0219351Y0189558D01*
X0219207Y0189558D01*
X0219068Y0189558D01*
X0218938Y0189558D01*
X0218818Y0189558D01*
X0218709Y0189557D01*
X0218613Y0189555D01*
X0218530Y0189550D01*
X0218458Y0189541D01*
X0218397Y0189525D01*
X0218343Y0189496D01*
X0218294Y0189448D01*
X0218244Y0189372D01*
X0218189Y0189259D01*
X0218123Y0189095D01*
X0218039Y0188869D01*
X0217936Y0188575D01*
X0217812Y0188216D01*
X0217673Y0187810D01*
X0217533Y0187400D01*
X0217418Y0187061D01*
X0217368Y0186913D01*
X0217266Y0186641D01*
X0217173Y0186382D01*
X0217094Y0186142D01*
X0217027Y0185925D01*
X0216974Y0185729D01*
X0216933Y0185553D01*
X0216902Y0185393D01*
X0216882Y0185245D01*
X0216870Y0185107D01*
X0216866Y0184975D01*
X0216870Y0184848D01*
X0216880Y0184726D01*
X0216899Y0184607D01*
X0216924Y0184493D01*
X0216958Y0184384D01*
X0216999Y0184280D01*
X0217048Y0184182D01*
X0217105Y0184091D01*
X0217170Y0184007D01*
X0217241Y0183931D01*
X0217318Y0183862D01*
X0217401Y0183801D01*
X0217489Y0183747D01*
X0217580Y0183700D01*
X0217673Y0183659D01*
X0217768Y0183623D01*
X0217863Y0183592D01*
X0217959Y0183566D01*
X0218053Y0183543D01*
X0218146Y0183523D01*
X0218237Y0183506D01*
X0218325Y0183491D01*
X0218410Y0183478D01*
X0218493Y0183467D01*
X0218572Y0183457D01*
X0218648Y0183448D01*
X0218721Y0183440D01*
X0218791Y0183433D01*
X0218858Y0183426D01*
X0218922Y0183420D01*
X0218984Y0183413D01*
X0219043Y0183407D01*
X0219100Y0183401D01*
X0219154Y0183394D01*
X0219207Y0183387D01*
X0219257Y0183379D01*
X0219306Y0183371D01*
X0219352Y0183361D01*
X0219397Y0183350D01*
X0219439Y0183337D01*
X0219480Y0183323D01*
X0219518Y0183306D01*
X0219554Y0183286D01*
X0219587Y0183264D01*
X0219618Y0183239D01*
X0219646Y0183211D01*
X0219671Y0183180D01*
X0219693Y0183146D01*
X0219712Y0183108D01*
X0219729Y0183067D01*
X0219742Y0183024D01*
X0219754Y0182978D01*
X0219762Y0182929D01*
X0219768Y0182879D01*
X0219772Y0182827D01*
X0219774Y0182773D01*
X0219773Y0182719D01*
X0219771Y0182665D01*
X0219766Y0182610D01*
X0219759Y0182557D01*
X0219749Y0182504D01*
X0219737Y0182453D01*
X0219722Y0182403D01*
X0219705Y0182356D01*
X0219684Y0182311D01*
X0219659Y0182268D01*
X0219631Y0182229D01*
X0219600Y0182192D01*
X0219565Y0182159D01*
X0219527Y0182128D01*
X0219486Y0182101D01*
X0219441Y0182077D01*
X0219394Y0182055D01*
X0219344Y0182037D01*
X0219292Y0182020D01*
X0219238Y0182007D01*
X0219182Y0181995D01*
X0219124Y0181985D01*
X0219064Y0181977D01*
X0219002Y0181971D01*
X0218937Y0181966D01*
X0218870Y0181962D01*
X0218799Y0181959D01*
X0218725Y0181957D01*
X0218646Y0181955D01*
X0218561Y0181955D01*
X0218471Y0181955D01*
X0218374Y0181956D01*
X0218270Y0181957D01*
X0218159Y0181959D01*
X0218041Y0181961D01*
X0217916Y0181964D01*
X0217783Y0181968D01*
X0217644Y0181972D01*
X0217498Y0181977D01*
X0217347Y0181983D01*
X0217191Y0181989D01*
X0217029Y0181996D01*
X0216865Y0182003D01*
X0216697Y0182011D01*
X0216526Y0182020D01*
X0216353Y0182028D01*
X0216179Y0182037D01*
X0216004Y0182047D01*
X0215828Y0182056D01*
X0215651Y0182065D01*
X0215473Y0182074D01*
X0215295Y0182083D01*
X0215117Y0182091D01*
X0214938Y0182099D01*
X0214759Y0182106D01*
X0214580Y0182113D01*
X0214400Y0182119D01*
X0214220Y0182124D01*
X0214040Y0182128D01*
X0213859Y0182132D01*
X0213678Y0182135D01*
X0213496Y0182137D01*
X0213315Y0182139D01*
X0213133Y0182140D01*
X0212951Y0182140D01*
X0212769Y0182140D01*
X0212587Y0182140D01*
X0212405Y0182139D01*
X0212224Y0182137D01*
X0212042Y0182134D01*
X0211861Y0182131D01*
X0211679Y0182128D01*
X0211499Y0182123D01*
X0211318Y0182118D01*
X0211138Y0182112D01*
X0210958Y0182105D01*
X0210778Y0182098D01*
X0210599Y0182090D01*
X0210419Y0182082D01*
X0210241Y0182073D01*
X0210062Y0182064D01*
X0209885Y0182055D01*
X0209708Y0182046D01*
X0209532Y0182036D01*
X0209357Y0182027D01*
X0209184Y0182019D01*
X0209013Y0182010D01*
X0208845Y0182002D01*
X0208681Y0181995D01*
X0208521Y0181988D01*
X0208366Y0181982D01*
X0208216Y0181977D01*
X0208073Y0181972D01*
X0207937Y0181968D01*
X0207809Y0181965D01*
X0207689Y0181963D01*
X0207577Y0181961D01*
X0207474Y0181960D01*
X0207379Y0181961D01*
X0207292Y0181962D01*
X0207214Y0181964D01*
X0207143Y0181967D01*
X0207079Y0181972D01*
X0207022Y0181978D01*
X0206970Y0181985D01*
X0206924Y0181994D01*
X0206883Y0182005D01*
X0206845Y0182017D01*
X0206811Y0182031D01*
X0206781Y0182046D01*
X0206753Y0182064D01*
X0206727Y0182083D01*
X0206704Y0182104D01*
X0206683Y0182126D01*
X0206665Y0182151D01*
X0206648Y0182177D01*
X0206633Y0182205D01*
X0206619Y0182235D01*
X0206608Y0182267D01*
X0206598Y0182301D01*
X0206591Y0182336D01*
X0206584Y0182374D01*
X0206580Y0182413D01*
X0206577Y0182455D01*
X0206575Y0182498D01*
X0206576Y0182543D01*
X0206577Y0182589D01*
X0206581Y0182637D01*
X0206586Y0182687D01*
X0206594Y0182737D01*
X0206603Y0182788D01*
X0206615Y0182839D01*
X0206630Y0182890D01*
X0206647Y0182941D01*
X0206668Y0182990D01*
X0206693Y0183039D01*
X0206720Y0183085D01*
X0206752Y0183130D01*
X0206787Y0183172D01*
X0206826Y0183212D01*
X0206868Y0183249D01*
X0206914Y0183283D01*
X0206963Y0183315D01*
X0207016Y0183344D01*
X0207071Y0183370D01*
X0207129Y0183393D01*
X0207190Y0183415D01*
X0207254Y0183434D01*
X0207321Y0183451D01*
X0207392Y0183467D01*
X0207466Y0183481D01*
X0207545Y0183494D01*
X0207629Y0183506D01*
X0207718Y0183518D01*
X0207814Y0183529D01*
X0207916Y0183541D01*
X0208026Y0183552D01*
X0208143Y0183565D01*
X0208267Y0183578D01*
X0208398Y0183592D01*
X0208535Y0183607D01*
X0208677Y0183624D01*
X0208824Y0183643D01*
X0208973Y0183664D01*
X0209122Y0183687D01*
X0209272Y0183713D01*
X0209418Y0183743D01*
X0209561Y0183776D01*
X0209697Y0183813D01*
X0209827Y0183855D01*
X0209950Y0183902D01*
X0210064Y0183955D01*
X0210170Y0184014D01*
X0210267Y0184080D01*
X0210356Y0184153D01*
X0210438Y0184235D01*
X0210513Y0184324D01*
X0210582Y0184422D01*
X0210647Y0184528D01*
X0210708Y0184642D01*
X0210766Y0184763D01*
X0210822Y0184890D01*
X0210876Y0185022D01*
X0210928Y0185158D01*
X0210979Y0185296D01*
X0211029Y0185435D01*
X0211078Y0185573D01*
X0211125Y0185709D01*
X0211171Y0185842D01*
X0211215Y0185970D01*
X0211257Y0186094D01*
X0211298Y0186214D01*
X0211337Y0186329D01*
X0211375Y0186440D01*
X0211413Y0186548D01*
X0211449Y0186655D01*
X0211486Y0186763D01*
X0211524Y0186872D01*
X0211563Y0186984D01*
X0211603Y0187101D01*
X0211646Y0187224D01*
X0211690Y0187352D01*
X0211737Y0187486D01*
X0211786Y0187627D01*
X0211836Y0187772D01*
X0211888Y0187920D01*
X0211940Y0188071D01*
X0211993Y0188221D01*
X0212044Y0188370D01*
X0212094Y0188514D01*
X0212142Y0188652D01*
X0212187Y0188781D01*
X0212229Y0188901D01*
X0212267Y0189011D01*
X0212300Y0189109D01*
X0212328Y0189195D01*
X0212350Y0189270D01*
X0212365Y0189333D01*
X0212373Y0189385D01*
X0212372Y0189428D01*
X0212361Y0189462D01*
X0212337Y0189489D01*
X0212297Y0189510D01*
X0212238Y0189525D01*
X0212158Y0189536D01*
X0212052Y0189543D01*
X0211917Y0189549D01*
X0211749Y0189552D01*
X0211545Y0189554D01*
X0211302Y0189556D01*
X0211019Y0189556D01*
X0210695Y0189557D01*
X0210331Y0189557D01*
X0209929Y0189557D01*
X0209493Y0189557D01*
X0209028Y0189557D01*
X0208540Y0189557D01*
X0208035Y0189557D01*
X0207523Y0189557D01*
X0207011Y0189557D01*
X0206508Y0189557D01*
X0206021Y0189557D01*
X0205558Y0189557D01*
X0205125Y0189557D01*
X0204726Y0189557D01*
X0204365Y0189557D01*
X0204043Y0189557D01*
X0203762Y0189557D01*
X0203521Y0189557D01*
X0203317Y0189557D01*
X0203147Y0189557D01*
X0203009Y0189557D01*
X0202898Y0189556D01*
X0202809Y0189556D01*
X0202739Y0189555D01*
X0202685Y0189554D01*
X0202641Y0189553D01*
X0202605Y0189552D01*
X0202576Y0189550D01*
X0202549Y0189548D01*
X0202524Y0189545D01*
X0202499Y0189543D01*
X0202473Y0189540D01*
X0202447Y0189536D01*
X0202419Y0189533D01*
X0202390Y0189530D01*
X0202360Y0189527D01*
X0202328Y0189524D01*
X0202296Y0189522D01*
X0202264Y0189520D01*
X0202233Y0189520D01*
X0202201Y0189521D01*
X0202172Y0189523D01*
X0202143Y0189527D01*
X0202117Y0189532D01*
X0202092Y0189539D01*
X0202071Y0189547D01*
X0202051Y0189558D01*
X0202034Y0189569D01*
X0202020Y0189582D01*
X0202008Y0189597D01*
X0201998Y0189612D01*
X0201990Y0189628D01*
X0201985Y0189645D01*
X0242295Y0222654D02*
X0242295Y0293520D01*
X0259618Y0302501D02*
X0259618Y0308407D01*
X0262417Y0308407D01*
X0262417Y0302501D02*
X0259618Y0302501D01*
X0269417Y0302501D02*
X0272217Y0302501D01*
X0272217Y0308407D01*
X0269417Y0308407D01*
X0275705Y0324528D02*
X0281610Y0324528D01*
X0281610Y0327327D01*
X0275705Y0327327D02*
X0275705Y0324528D01*
X0275705Y0334327D02*
X0275705Y0337126D01*
X0281610Y0337126D01*
X0281610Y0334327D01*
X0299205Y0331126D02*
X0299205Y0328327D01*
X0299205Y0331126D02*
X0305110Y0331126D01*
X0305110Y0328327D01*
X0305110Y0321327D02*
X0305110Y0318528D01*
X0299205Y0318528D01*
X0299205Y0321327D01*
X0324858Y0321280D02*
X0324858Y0315374D01*
X0327657Y0315374D01*
X0334657Y0315374D02*
X0337457Y0315374D01*
X0337457Y0321280D01*
X0334657Y0321280D01*
X0327657Y0321280D02*
X0324858Y0321280D01*
X0324657Y0328327D02*
X0324657Y0334327D01*
X0327657Y0334327D01*
X0334657Y0334327D02*
X0337657Y0334327D01*
X0337657Y0328327D01*
X0334657Y0328327D01*
X0327657Y0328327D02*
X0324657Y0328327D01*
X0289539Y0293520D02*
X0289539Y0222654D01*
X0291657Y0223827D02*
X0291657Y0226827D01*
X0297657Y0226827D01*
X0297657Y0223827D01*
X0298157Y0229827D02*
X0298157Y0235827D01*
X0301157Y0235827D01*
X0301157Y0229827D02*
X0298157Y0229827D01*
X0308157Y0229827D02*
X0311157Y0229827D01*
X0311157Y0235827D01*
X0308157Y0235827D01*
X0307657Y0243827D02*
X0310657Y0243827D01*
X0310657Y0249827D01*
X0307657Y0249827D01*
X0300657Y0249827D02*
X0297657Y0249827D01*
X0297657Y0243827D01*
X0300657Y0243827D01*
X0297657Y0216827D02*
X0297657Y0213827D01*
X0291657Y0213827D01*
X0291657Y0216827D01*
X0281657Y0207327D02*
X0281657Y0204327D01*
X0281657Y0207327D02*
X0275657Y0207327D01*
X0275657Y0204327D01*
X0272217Y0206918D02*
X0269417Y0206918D01*
X0272217Y0206918D02*
X0272217Y0212824D01*
X0269417Y0212824D01*
X0262417Y0212824D02*
X0259618Y0212824D01*
X0259618Y0206918D01*
X0262417Y0206918D01*
X0275657Y0197327D02*
X0275657Y0194327D01*
X0281657Y0194327D01*
X0281657Y0197327D01*
X0283157Y0192327D02*
X0286157Y0192327D01*
X0283157Y0192327D02*
X0283157Y0186327D01*
X0286157Y0186327D01*
X0293157Y0186327D02*
X0296157Y0186327D01*
X0296157Y0192327D01*
X0293157Y0192327D01*
X0306657Y0204827D02*
X0309657Y0204827D01*
X0306657Y0204827D02*
X0306657Y0210827D01*
X0309657Y0210827D01*
X0316657Y0210827D02*
X0319657Y0210827D01*
X0319657Y0204827D01*
X0316657Y0204827D01*
X0326657Y0201827D02*
X0326657Y0198827D01*
X0326657Y0201827D02*
X0332657Y0201827D01*
X0332657Y0198827D01*
X0332657Y0191827D02*
X0332657Y0188827D01*
X0326657Y0188827D01*
X0326657Y0191827D01*
X0244657Y0119827D02*
X0241657Y0119827D01*
X0244657Y0119827D02*
X0244657Y0113827D01*
X0241657Y0113827D01*
X0234657Y0113827D02*
X0231657Y0113827D01*
X0231657Y0119827D01*
X0234657Y0119827D01*
X0231705Y0122028D02*
X0237610Y0122028D01*
X0237610Y0124827D01*
X0231705Y0124827D02*
X0231705Y0122028D01*
X0231705Y0131827D02*
X0231705Y0134626D01*
X0237610Y0134626D01*
X0237610Y0131827D01*
X0207157Y0133327D02*
X0207157Y0130327D01*
X0207157Y0133327D02*
X0201157Y0133327D01*
X0201157Y0130327D01*
X0201157Y0123327D02*
X0201157Y0120327D01*
X0207157Y0120327D01*
X0207157Y0123327D01*
X0208157Y0118327D02*
X0205157Y0118327D01*
X0208157Y0118327D02*
X0208157Y0112327D01*
X0205157Y0112327D01*
X0198157Y0112327D02*
X0195157Y0112327D01*
X0195157Y0118327D01*
X0198157Y0118327D01*
X0055760Y0189780D02*
X0055760Y0195685D01*
X0052961Y0195685D01*
X0052961Y0189780D02*
X0055760Y0189780D01*
X0045961Y0189780D02*
X0043161Y0189780D01*
X0043161Y0195685D01*
X0045961Y0195685D01*
X0046039Y0210449D02*
X0043240Y0210449D01*
X0043240Y0216354D01*
X0046039Y0216354D01*
X0053039Y0216354D02*
X0055839Y0216354D01*
X0055839Y0210449D01*
X0053039Y0210449D01*
X0053157Y0291327D02*
X0056157Y0291327D01*
X0056157Y0297327D01*
X0053157Y0297327D01*
X0046157Y0297327D02*
X0043157Y0297327D01*
X0043157Y0291327D01*
X0046157Y0291327D01*
X0223657Y0319327D02*
X0223657Y0325327D01*
X0226657Y0325327D01*
X0223657Y0325327D01*
X0223657Y0331327D01*
X0226657Y0331327D01*
X0233657Y0331327D02*
X0236657Y0331327D01*
X0236657Y0325327D01*
X0233657Y0325327D01*
X0236657Y0325327D01*
X0236657Y0319327D01*
X0233657Y0319327D01*
X0226657Y0319327D02*
X0223657Y0319327D01*
X0283633Y0289583D02*
X0283635Y0289671D01*
X0283641Y0289759D01*
X0283651Y0289847D01*
X0283665Y0289935D01*
X0283682Y0290021D01*
X0283704Y0290107D01*
X0283729Y0290191D01*
X0283759Y0290275D01*
X0283791Y0290357D01*
X0283828Y0290437D01*
X0283868Y0290516D01*
X0283912Y0290593D01*
X0283959Y0290668D01*
X0284009Y0290740D01*
X0284063Y0290811D01*
X0284119Y0290878D01*
X0284179Y0290944D01*
X0284241Y0291006D01*
X0284307Y0291066D01*
X0284374Y0291122D01*
X0284445Y0291176D01*
X0284517Y0291226D01*
X0284592Y0291273D01*
X0284669Y0291317D01*
X0284748Y0291357D01*
X0284828Y0291394D01*
X0284910Y0291426D01*
X0284994Y0291456D01*
X0285078Y0291481D01*
X0285164Y0291503D01*
X0285250Y0291520D01*
X0285338Y0291534D01*
X0285426Y0291544D01*
X0285514Y0291550D01*
X0285602Y0291552D01*
X0285690Y0291550D01*
X0285778Y0291544D01*
X0285866Y0291534D01*
X0285954Y0291520D01*
X0286040Y0291503D01*
X0286126Y0291481D01*
X0286210Y0291456D01*
X0286294Y0291426D01*
X0286376Y0291394D01*
X0286456Y0291357D01*
X0286535Y0291317D01*
X0286612Y0291273D01*
X0286687Y0291226D01*
X0286759Y0291176D01*
X0286830Y0291122D01*
X0286897Y0291066D01*
X0286963Y0291006D01*
X0287025Y0290944D01*
X0287085Y0290878D01*
X0287141Y0290811D01*
X0287195Y0290740D01*
X0287245Y0290668D01*
X0287292Y0290593D01*
X0287336Y0290516D01*
X0287376Y0290437D01*
X0287413Y0290357D01*
X0287445Y0290275D01*
X0287475Y0290191D01*
X0287500Y0290107D01*
X0287522Y0290021D01*
X0287539Y0289935D01*
X0287553Y0289847D01*
X0287563Y0289759D01*
X0287569Y0289671D01*
X0287571Y0289583D01*
X0287569Y0289495D01*
X0287563Y0289407D01*
X0287553Y0289319D01*
X0287539Y0289231D01*
X0287522Y0289145D01*
X0287500Y0289059D01*
X0287475Y0288975D01*
X0287445Y0288891D01*
X0287413Y0288809D01*
X0287376Y0288729D01*
X0287336Y0288650D01*
X0287292Y0288573D01*
X0287245Y0288498D01*
X0287195Y0288426D01*
X0287141Y0288355D01*
X0287085Y0288288D01*
X0287025Y0288222D01*
X0286963Y0288160D01*
X0286897Y0288100D01*
X0286830Y0288044D01*
X0286759Y0287990D01*
X0286687Y0287940D01*
X0286612Y0287893D01*
X0286535Y0287849D01*
X0286456Y0287809D01*
X0286376Y0287772D01*
X0286294Y0287740D01*
X0286210Y0287710D01*
X0286126Y0287685D01*
X0286040Y0287663D01*
X0285954Y0287646D01*
X0285866Y0287632D01*
X0285778Y0287622D01*
X0285690Y0287616D01*
X0285602Y0287614D01*
X0285514Y0287616D01*
X0285426Y0287622D01*
X0285338Y0287632D01*
X0285250Y0287646D01*
X0285164Y0287663D01*
X0285078Y0287685D01*
X0284994Y0287710D01*
X0284910Y0287740D01*
X0284828Y0287772D01*
X0284748Y0287809D01*
X0284669Y0287849D01*
X0284592Y0287893D01*
X0284517Y0287940D01*
X0284445Y0287990D01*
X0284374Y0288044D01*
X0284307Y0288100D01*
X0284241Y0288160D01*
X0284179Y0288222D01*
X0284119Y0288288D01*
X0284063Y0288355D01*
X0284009Y0288426D01*
X0283959Y0288498D01*
X0283912Y0288573D01*
X0283868Y0288650D01*
X0283828Y0288729D01*
X0283791Y0288809D01*
X0283759Y0288891D01*
X0283729Y0288975D01*
X0283704Y0289059D01*
X0283682Y0289145D01*
X0283665Y0289231D01*
X0283651Y0289319D01*
X0283641Y0289407D01*
X0283635Y0289495D01*
X0283633Y0289583D01*
D16*
X0265638Y0318878D02*
X0263669Y0318878D01*
X0263669Y0337776D01*
X0265638Y0337776D01*
X0263669Y0337776D02*
X0250677Y0337776D01*
X0250657Y0334327D02*
X0250657Y0332327D01*
X0250657Y0329327D02*
X0250657Y0327327D01*
X0250657Y0324327D02*
X0250657Y0322327D01*
X0250677Y0318878D02*
X0263669Y0318878D01*
X0265657Y0322327D02*
X0265657Y0324327D01*
X0265657Y0327327D02*
X0265657Y0329327D01*
X0265657Y0332327D02*
X0265657Y0334327D01*
X0283752Y0167181D02*
X0283752Y0136472D01*
X0295563Y0136472D01*
X0295563Y0167181D01*
X0283752Y0167181D01*
X0229106Y0135807D02*
X0229106Y0133339D01*
X0209209Y0133339D01*
X0209209Y0135807D01*
X0209209Y0133339D02*
X0209209Y0120846D01*
X0229106Y0120846D02*
X0229106Y0133339D01*
D17*
X0260657Y0321327D03*
D18*
X0296882Y0296669D02*
X0296882Y0276984D01*
X0307315Y0266551D01*
X0327000Y0266551D02*
X0337433Y0276984D01*
X0337433Y0296669D01*
X0327000Y0307102D01*
X0307315Y0307102D02*
X0296882Y0296669D01*
X0217846Y0293402D02*
X0217846Y0220843D01*
X0215878Y0218874D01*
X0143358Y0218874D01*
X0141390Y0220843D01*
X0141390Y0293402D01*
X0143358Y0295370D01*
X0215878Y0295370D01*
X0217846Y0293402D01*
X0148200Y0285567D02*
X0148202Y0285675D01*
X0148208Y0285784D01*
X0148218Y0285892D01*
X0148232Y0285999D01*
X0148250Y0286106D01*
X0148271Y0286213D01*
X0148297Y0286318D01*
X0148327Y0286423D01*
X0148360Y0286526D01*
X0148397Y0286628D01*
X0148438Y0286728D01*
X0148482Y0286827D01*
X0148531Y0286925D01*
X0148582Y0287020D01*
X0148637Y0287113D01*
X0148696Y0287205D01*
X0148758Y0287294D01*
X0148823Y0287381D01*
X0148891Y0287465D01*
X0148962Y0287547D01*
X0149036Y0287626D01*
X0149113Y0287702D01*
X0149193Y0287776D01*
X0149276Y0287846D01*
X0149361Y0287914D01*
X0149448Y0287978D01*
X0149538Y0288039D01*
X0149630Y0288097D01*
X0149724Y0288151D01*
X0149820Y0288202D01*
X0149917Y0288249D01*
X0150017Y0288293D01*
X0150118Y0288333D01*
X0150220Y0288369D01*
X0150323Y0288401D01*
X0150428Y0288430D01*
X0150534Y0288454D01*
X0150640Y0288475D01*
X0150747Y0288492D01*
X0150855Y0288505D01*
X0150963Y0288514D01*
X0151072Y0288519D01*
X0151180Y0288520D01*
X0151289Y0288517D01*
X0151397Y0288510D01*
X0151505Y0288499D01*
X0151612Y0288484D01*
X0151719Y0288465D01*
X0151825Y0288442D01*
X0151930Y0288416D01*
X0152035Y0288385D01*
X0152137Y0288351D01*
X0152239Y0288313D01*
X0152339Y0288271D01*
X0152438Y0288226D01*
X0152535Y0288177D01*
X0152629Y0288124D01*
X0152722Y0288068D01*
X0152813Y0288009D01*
X0152902Y0287946D01*
X0152988Y0287881D01*
X0153072Y0287812D01*
X0153153Y0287740D01*
X0153231Y0287665D01*
X0153307Y0287587D01*
X0153380Y0287506D01*
X0153450Y0287423D01*
X0153516Y0287338D01*
X0153580Y0287250D01*
X0153640Y0287159D01*
X0153697Y0287067D01*
X0153750Y0286972D01*
X0153800Y0286876D01*
X0153846Y0286778D01*
X0153889Y0286678D01*
X0153928Y0286577D01*
X0153963Y0286474D01*
X0153995Y0286371D01*
X0154022Y0286266D01*
X0154046Y0286160D01*
X0154066Y0286053D01*
X0154082Y0285946D01*
X0154094Y0285838D01*
X0154102Y0285730D01*
X0154106Y0285621D01*
X0154106Y0285513D01*
X0154102Y0285404D01*
X0154094Y0285296D01*
X0154082Y0285188D01*
X0154066Y0285081D01*
X0154046Y0284974D01*
X0154022Y0284868D01*
X0153995Y0284763D01*
X0153963Y0284660D01*
X0153928Y0284557D01*
X0153889Y0284456D01*
X0153846Y0284356D01*
X0153800Y0284258D01*
X0153750Y0284162D01*
X0153697Y0284067D01*
X0153640Y0283975D01*
X0153580Y0283884D01*
X0153516Y0283796D01*
X0153450Y0283711D01*
X0153380Y0283628D01*
X0153307Y0283547D01*
X0153231Y0283469D01*
X0153153Y0283394D01*
X0153072Y0283322D01*
X0152988Y0283253D01*
X0152902Y0283188D01*
X0152813Y0283125D01*
X0152722Y0283066D01*
X0152630Y0283010D01*
X0152535Y0282957D01*
X0152438Y0282908D01*
X0152339Y0282863D01*
X0152239Y0282821D01*
X0152137Y0282783D01*
X0152035Y0282749D01*
X0151930Y0282718D01*
X0151825Y0282692D01*
X0151719Y0282669D01*
X0151612Y0282650D01*
X0151505Y0282635D01*
X0151397Y0282624D01*
X0151289Y0282617D01*
X0151180Y0282614D01*
X0151072Y0282615D01*
X0150963Y0282620D01*
X0150855Y0282629D01*
X0150747Y0282642D01*
X0150640Y0282659D01*
X0150534Y0282680D01*
X0150428Y0282704D01*
X0150323Y0282733D01*
X0150220Y0282765D01*
X0150118Y0282801D01*
X0150017Y0282841D01*
X0149917Y0282885D01*
X0149820Y0282932D01*
X0149724Y0282983D01*
X0149630Y0283037D01*
X0149538Y0283095D01*
X0149448Y0283156D01*
X0149361Y0283220D01*
X0149276Y0283288D01*
X0149193Y0283358D01*
X0149113Y0283432D01*
X0149036Y0283508D01*
X0148962Y0283587D01*
X0148891Y0283669D01*
X0148823Y0283753D01*
X0148758Y0283840D01*
X0148696Y0283929D01*
X0148637Y0284021D01*
X0148582Y0284114D01*
X0148531Y0284209D01*
X0148482Y0284307D01*
X0148438Y0284406D01*
X0148397Y0284506D01*
X0148360Y0284608D01*
X0148327Y0284711D01*
X0148297Y0284816D01*
X0148271Y0284921D01*
X0148250Y0285028D01*
X0148232Y0285135D01*
X0148218Y0285242D01*
X0148208Y0285350D01*
X0148202Y0285459D01*
X0148200Y0285567D01*
X0019500Y0273618D02*
X0019500Y0268618D01*
X0017000Y0266118D01*
X0019500Y0263618D01*
X0019500Y0258618D01*
X0017000Y0256118D01*
X0019500Y0253618D01*
X0019500Y0248618D01*
X0017000Y0246118D01*
X0019500Y0243618D01*
X0019500Y0238618D01*
X0017000Y0236118D01*
X0012000Y0236118D01*
X0009500Y0238618D01*
X0009500Y0243618D01*
X0012000Y0246118D01*
X0009500Y0248618D01*
X0009500Y0253618D01*
X0012000Y0256118D01*
X0009500Y0258618D01*
X0009500Y0263618D01*
X0012000Y0266118D01*
X0009500Y0268618D01*
X0009500Y0273618D01*
X0012000Y0276118D01*
X0017000Y0276118D01*
X0019500Y0273618D01*
D19*
X0133298Y0319633D02*
X0137498Y0318933D01*
X0137698Y0317933D01*
X0138098Y0316933D01*
X0138498Y0316033D01*
X0138898Y0315233D01*
X0136498Y0312033D01*
X0137098Y0311333D01*
X0137798Y0310633D01*
X0138498Y0309933D01*
X0139098Y0309433D01*
X0142498Y0311733D01*
X0143198Y0311333D01*
X0143898Y0311033D01*
X0144498Y0310733D01*
X0146898Y0317533D01*
X0146194Y0317869D01*
X0145565Y0318330D01*
X0145033Y0318900D01*
X0144616Y0319559D01*
X0144328Y0320284D01*
X0144181Y0321049D01*
X0144178Y0321829D01*
X0144320Y0322596D01*
X0144602Y0323323D01*
X0145014Y0323985D01*
X0145542Y0324559D01*
X0146167Y0325024D01*
X0146868Y0325366D01*
X0147620Y0325571D01*
X0148398Y0325633D01*
X0149188Y0325608D01*
X0149960Y0325435D01*
X0150686Y0325120D01*
X0151339Y0324675D01*
X0151898Y0324115D01*
X0152342Y0323461D01*
X0152655Y0322734D01*
X0152827Y0321962D01*
X0152851Y0321172D01*
X0152726Y0320391D01*
X0152457Y0319647D01*
X0152053Y0318967D01*
X0151529Y0318374D01*
X0150903Y0317891D01*
X0150198Y0317533D01*
X0152798Y0310833D01*
X0153498Y0311233D01*
X0154198Y0311633D01*
X0154898Y0312033D01*
X0158198Y0309633D01*
X0158898Y0310333D01*
X0159498Y0310933D01*
X0160098Y0311633D01*
X0160698Y0312333D01*
X0158298Y0315933D01*
X0158798Y0316733D01*
X0159098Y0317633D01*
X0159398Y0318533D01*
X0159598Y0319233D01*
X0163598Y0319933D01*
X0163698Y0321033D01*
X0163698Y0321933D01*
X0163598Y0322733D01*
X0163498Y0323733D01*
X0159398Y0324433D01*
X0158998Y0325533D01*
X0158798Y0326133D01*
X0158398Y0326833D01*
X0157898Y0327633D01*
X0160398Y0330833D01*
X0159798Y0331533D01*
X0159098Y0332233D01*
X0158298Y0332933D01*
X0157498Y0333633D01*
X0154098Y0331233D01*
X0153198Y0331633D01*
X0152398Y0332033D01*
X0151698Y0332233D01*
X0150998Y0332433D01*
X0150398Y0336533D01*
X0146598Y0336533D01*
X0145798Y0332433D01*
X0144698Y0332133D01*
X0143898Y0331733D01*
X0142698Y0331133D01*
X0139298Y0333533D01*
X0138598Y0332933D01*
X0137898Y0332233D01*
X0137198Y0331533D01*
X0136598Y0330833D01*
X0138898Y0327433D01*
X0138398Y0326533D01*
X0137998Y0325633D01*
X0137698Y0324833D01*
X0137398Y0324033D01*
X0133398Y0323433D01*
X0133298Y0322233D01*
X0133298Y0319633D01*
X0133298Y0319681D02*
X0144568Y0319681D01*
X0144489Y0319879D02*
X0133298Y0319879D01*
X0133298Y0320078D02*
X0144410Y0320078D01*
X0144331Y0320276D02*
X0133298Y0320276D01*
X0133298Y0320475D02*
X0144292Y0320475D01*
X0144253Y0320673D02*
X0133298Y0320673D01*
X0133298Y0320872D02*
X0144215Y0320872D01*
X0144181Y0321070D02*
X0133298Y0321070D01*
X0133298Y0321269D02*
X0144180Y0321269D01*
X0144179Y0321467D02*
X0133298Y0321467D01*
X0133298Y0321666D02*
X0144178Y0321666D01*
X0144184Y0321864D02*
X0133298Y0321864D01*
X0133298Y0322063D02*
X0144221Y0322063D01*
X0144258Y0322261D02*
X0133300Y0322261D01*
X0133317Y0322460D02*
X0144294Y0322460D01*
X0144344Y0322658D02*
X0133333Y0322658D01*
X0133350Y0322857D02*
X0144421Y0322857D01*
X0144498Y0323055D02*
X0133366Y0323055D01*
X0133383Y0323254D02*
X0144575Y0323254D01*
X0144682Y0323452D02*
X0133526Y0323452D01*
X0134849Y0323651D02*
X0144806Y0323651D01*
X0144929Y0323849D02*
X0136172Y0323849D01*
X0137403Y0324048D02*
X0145072Y0324048D01*
X0145254Y0324246D02*
X0137478Y0324246D01*
X0137552Y0324445D02*
X0145437Y0324445D01*
X0145655Y0324643D02*
X0137626Y0324643D01*
X0137701Y0324842D02*
X0145922Y0324842D01*
X0146200Y0325040D02*
X0137775Y0325040D01*
X0137850Y0325239D02*
X0146607Y0325239D01*
X0147130Y0325437D02*
X0137924Y0325437D01*
X0137999Y0325636D02*
X0158963Y0325636D01*
X0158897Y0325834D02*
X0138087Y0325834D01*
X0138175Y0326033D02*
X0158831Y0326033D01*
X0158741Y0326231D02*
X0138264Y0326231D01*
X0138352Y0326430D02*
X0158628Y0326430D01*
X0158515Y0326628D02*
X0138451Y0326628D01*
X0138561Y0326827D02*
X0158401Y0326827D01*
X0158277Y0327025D02*
X0138671Y0327025D01*
X0138781Y0327224D02*
X0158153Y0327224D01*
X0158029Y0327422D02*
X0138892Y0327422D01*
X0138770Y0327621D02*
X0157905Y0327621D01*
X0158043Y0327820D02*
X0138636Y0327820D01*
X0138502Y0328018D02*
X0158198Y0328018D01*
X0158353Y0328217D02*
X0138368Y0328217D01*
X0138233Y0328415D02*
X0158509Y0328415D01*
X0158664Y0328614D02*
X0138099Y0328614D01*
X0137965Y0328812D02*
X0158819Y0328812D01*
X0158974Y0329011D02*
X0137830Y0329011D01*
X0137696Y0329209D02*
X0159129Y0329209D01*
X0159284Y0329408D02*
X0137562Y0329408D01*
X0137428Y0329606D02*
X0159439Y0329606D01*
X0159594Y0329805D02*
X0137293Y0329805D01*
X0137159Y0330003D02*
X0159749Y0330003D01*
X0159904Y0330202D02*
X0137025Y0330202D01*
X0136890Y0330400D02*
X0160059Y0330400D01*
X0160215Y0330599D02*
X0136756Y0330599D01*
X0136622Y0330797D02*
X0160370Y0330797D01*
X0160258Y0330996D02*
X0136737Y0330996D01*
X0136907Y0331194D02*
X0142611Y0331194D01*
X0142820Y0331194D02*
X0160088Y0331194D01*
X0159918Y0331393D02*
X0154324Y0331393D01*
X0154605Y0331591D02*
X0159739Y0331591D01*
X0159541Y0331790D02*
X0154886Y0331790D01*
X0155167Y0331988D02*
X0159342Y0331988D01*
X0159144Y0332187D02*
X0155449Y0332187D01*
X0155730Y0332385D02*
X0158924Y0332385D01*
X0158697Y0332584D02*
X0156011Y0332584D01*
X0156292Y0332782D02*
X0158470Y0332782D01*
X0158243Y0332981D02*
X0156574Y0332981D01*
X0156855Y0333179D02*
X0158016Y0333179D01*
X0157789Y0333378D02*
X0157136Y0333378D01*
X0157417Y0333576D02*
X0157562Y0333576D01*
X0153738Y0331393D02*
X0143217Y0331393D01*
X0143614Y0331591D02*
X0153292Y0331591D01*
X0152884Y0331790D02*
X0144011Y0331790D01*
X0144408Y0331988D02*
X0152487Y0331988D01*
X0151860Y0332187D02*
X0144895Y0332187D01*
X0145622Y0332385D02*
X0151165Y0332385D01*
X0150976Y0332584D02*
X0145827Y0332584D01*
X0145866Y0332782D02*
X0150947Y0332782D01*
X0150917Y0332981D02*
X0145905Y0332981D01*
X0145943Y0333179D02*
X0150888Y0333179D01*
X0150859Y0333378D02*
X0145982Y0333378D01*
X0146021Y0333576D02*
X0150830Y0333576D01*
X0150801Y0333775D02*
X0146059Y0333775D01*
X0146098Y0333973D02*
X0150772Y0333973D01*
X0150743Y0334172D02*
X0146137Y0334172D01*
X0146176Y0334370D02*
X0150714Y0334370D01*
X0150685Y0334569D02*
X0146214Y0334569D01*
X0146253Y0334767D02*
X0150656Y0334767D01*
X0150627Y0334966D02*
X0146292Y0334966D01*
X0146331Y0335164D02*
X0150598Y0335164D01*
X0150569Y0335363D02*
X0146369Y0335363D01*
X0146408Y0335561D02*
X0150540Y0335561D01*
X0150511Y0335760D02*
X0146447Y0335760D01*
X0146486Y0335958D02*
X0150482Y0335958D01*
X0150453Y0336157D02*
X0146524Y0336157D01*
X0146563Y0336355D02*
X0150424Y0336355D01*
X0142330Y0331393D02*
X0137077Y0331393D01*
X0137256Y0331591D02*
X0142049Y0331591D01*
X0141767Y0331790D02*
X0137454Y0331790D01*
X0137653Y0331988D02*
X0141486Y0331988D01*
X0141205Y0332187D02*
X0137851Y0332187D01*
X0138050Y0332385D02*
X0140924Y0332385D01*
X0140642Y0332584D02*
X0138248Y0332584D01*
X0138447Y0332782D02*
X0140361Y0332782D01*
X0140080Y0332981D02*
X0138653Y0332981D01*
X0138885Y0333179D02*
X0139799Y0333179D01*
X0139518Y0333378D02*
X0139117Y0333378D01*
X0149948Y0325437D02*
X0159032Y0325437D01*
X0159105Y0325239D02*
X0150412Y0325239D01*
X0150803Y0325040D02*
X0159177Y0325040D01*
X0159249Y0324842D02*
X0151094Y0324842D01*
X0151371Y0324643D02*
X0159321Y0324643D01*
X0159393Y0324445D02*
X0151569Y0324445D01*
X0151767Y0324246D02*
X0160492Y0324246D01*
X0161654Y0324048D02*
X0151944Y0324048D01*
X0152078Y0323849D02*
X0162817Y0323849D01*
X0163506Y0323651D02*
X0152213Y0323651D01*
X0152346Y0323452D02*
X0163526Y0323452D01*
X0163546Y0323254D02*
X0152431Y0323254D01*
X0152517Y0323055D02*
X0163565Y0323055D01*
X0163585Y0322857D02*
X0152603Y0322857D01*
X0152672Y0322658D02*
X0163607Y0322658D01*
X0163632Y0322460D02*
X0152716Y0322460D01*
X0152760Y0322261D02*
X0163657Y0322261D01*
X0163681Y0322063D02*
X0152805Y0322063D01*
X0152830Y0321864D02*
X0163698Y0321864D01*
X0163698Y0321666D02*
X0152836Y0321666D01*
X0152842Y0321467D02*
X0163698Y0321467D01*
X0163698Y0321269D02*
X0152848Y0321269D01*
X0152834Y0321070D02*
X0163698Y0321070D01*
X0163683Y0320872D02*
X0152803Y0320872D01*
X0152771Y0320673D02*
X0163665Y0320673D01*
X0163647Y0320475D02*
X0152739Y0320475D01*
X0152684Y0320276D02*
X0163629Y0320276D01*
X0163611Y0320078D02*
X0152613Y0320078D01*
X0152541Y0319879D02*
X0163289Y0319879D01*
X0162155Y0319681D02*
X0152469Y0319681D01*
X0152359Y0319482D02*
X0161020Y0319482D01*
X0159886Y0319284D02*
X0152241Y0319284D01*
X0152123Y0319085D02*
X0159555Y0319085D01*
X0159499Y0318887D02*
X0151982Y0318887D01*
X0151806Y0318688D02*
X0159442Y0318688D01*
X0159383Y0318489D02*
X0151631Y0318489D01*
X0151421Y0318291D02*
X0159317Y0318291D01*
X0159251Y0318092D02*
X0151164Y0318092D01*
X0150907Y0317894D02*
X0159185Y0317894D01*
X0159118Y0317695D02*
X0150518Y0317695D01*
X0150212Y0317497D02*
X0159052Y0317497D01*
X0158986Y0317298D02*
X0150289Y0317298D01*
X0150366Y0317100D02*
X0158920Y0317100D01*
X0158854Y0316901D02*
X0150443Y0316901D01*
X0150520Y0316703D02*
X0158779Y0316703D01*
X0158655Y0316504D02*
X0150597Y0316504D01*
X0150674Y0316306D02*
X0158531Y0316306D01*
X0158407Y0316107D02*
X0150751Y0316107D01*
X0150828Y0315909D02*
X0158314Y0315909D01*
X0158446Y0315710D02*
X0150905Y0315710D01*
X0150982Y0315512D02*
X0158578Y0315512D01*
X0158711Y0315313D02*
X0151059Y0315313D01*
X0151136Y0315115D02*
X0158843Y0315115D01*
X0158976Y0314916D02*
X0151213Y0314916D01*
X0151290Y0314718D02*
X0159108Y0314718D01*
X0159240Y0314519D02*
X0151367Y0314519D01*
X0151444Y0314321D02*
X0159373Y0314321D01*
X0159505Y0314122D02*
X0151521Y0314122D01*
X0151598Y0313924D02*
X0159637Y0313924D01*
X0159770Y0313725D02*
X0151675Y0313725D01*
X0151752Y0313527D02*
X0159902Y0313527D01*
X0160034Y0313328D02*
X0151829Y0313328D01*
X0151906Y0313130D02*
X0160167Y0313130D01*
X0160299Y0312931D02*
X0151983Y0312931D01*
X0152060Y0312733D02*
X0160431Y0312733D01*
X0160564Y0312534D02*
X0152138Y0312534D01*
X0152215Y0312336D02*
X0160696Y0312336D01*
X0160530Y0312137D02*
X0152292Y0312137D01*
X0152369Y0311939D02*
X0154732Y0311939D01*
X0155028Y0311939D02*
X0160360Y0311939D01*
X0160189Y0311740D02*
X0155300Y0311740D01*
X0155573Y0311542D02*
X0160019Y0311542D01*
X0159849Y0311343D02*
X0155846Y0311343D01*
X0156119Y0311145D02*
X0159679Y0311145D01*
X0159509Y0310946D02*
X0156392Y0310946D01*
X0156665Y0310748D02*
X0159312Y0310748D01*
X0159114Y0310549D02*
X0156938Y0310549D01*
X0157211Y0310351D02*
X0158915Y0310351D01*
X0158717Y0310152D02*
X0157484Y0310152D01*
X0157757Y0309953D02*
X0158518Y0309953D01*
X0158320Y0309755D02*
X0158030Y0309755D01*
X0154385Y0311740D02*
X0152446Y0311740D01*
X0152523Y0311542D02*
X0154038Y0311542D01*
X0153690Y0311343D02*
X0152600Y0311343D01*
X0152677Y0311145D02*
X0153343Y0311145D01*
X0152995Y0310946D02*
X0152754Y0310946D01*
X0146885Y0317497D02*
X0137872Y0317497D01*
X0137793Y0317695D02*
X0146558Y0317695D01*
X0146160Y0317894D02*
X0137713Y0317894D01*
X0137666Y0318092D02*
X0145890Y0318092D01*
X0145619Y0318291D02*
X0137626Y0318291D01*
X0137586Y0318489D02*
X0145417Y0318489D01*
X0145231Y0318688D02*
X0137547Y0318688D01*
X0137507Y0318887D02*
X0145046Y0318887D01*
X0144916Y0319085D02*
X0136586Y0319085D01*
X0135395Y0319284D02*
X0144790Y0319284D01*
X0144665Y0319482D02*
X0134204Y0319482D01*
X0137952Y0317298D02*
X0146815Y0317298D01*
X0146745Y0317100D02*
X0138031Y0317100D01*
X0138112Y0316901D02*
X0146675Y0316901D01*
X0146605Y0316703D02*
X0138200Y0316703D01*
X0138288Y0316504D02*
X0146535Y0316504D01*
X0146464Y0316306D02*
X0138376Y0316306D01*
X0138465Y0316107D02*
X0146394Y0316107D01*
X0146324Y0315909D02*
X0138560Y0315909D01*
X0138659Y0315710D02*
X0146254Y0315710D01*
X0146184Y0315512D02*
X0138758Y0315512D01*
X0138858Y0315313D02*
X0146114Y0315313D01*
X0146044Y0315115D02*
X0138809Y0315115D01*
X0138660Y0314916D02*
X0145974Y0314916D01*
X0145904Y0314718D02*
X0138511Y0314718D01*
X0138362Y0314519D02*
X0145834Y0314519D01*
X0145764Y0314321D02*
X0138213Y0314321D01*
X0138065Y0314122D02*
X0145694Y0314122D01*
X0145624Y0313924D02*
X0137916Y0313924D01*
X0137767Y0313725D02*
X0145554Y0313725D01*
X0145484Y0313527D02*
X0137618Y0313527D01*
X0137469Y0313328D02*
X0145414Y0313328D01*
X0145343Y0313130D02*
X0137320Y0313130D01*
X0137171Y0312931D02*
X0145273Y0312931D01*
X0145203Y0312733D02*
X0137022Y0312733D01*
X0136873Y0312534D02*
X0145133Y0312534D01*
X0145063Y0312336D02*
X0136725Y0312336D01*
X0136576Y0312137D02*
X0144993Y0312137D01*
X0144923Y0311939D02*
X0136579Y0311939D01*
X0136749Y0311740D02*
X0144853Y0311740D01*
X0144783Y0311542D02*
X0142833Y0311542D01*
X0143180Y0311343D02*
X0144713Y0311343D01*
X0144643Y0311145D02*
X0143637Y0311145D01*
X0144072Y0310946D02*
X0144573Y0310946D01*
X0144503Y0310748D02*
X0144469Y0310748D01*
X0142215Y0311542D02*
X0136919Y0311542D01*
X0137089Y0311343D02*
X0141921Y0311343D01*
X0141628Y0311145D02*
X0137286Y0311145D01*
X0137485Y0310946D02*
X0141334Y0310946D01*
X0141041Y0310748D02*
X0137683Y0310748D01*
X0137882Y0310549D02*
X0140747Y0310549D01*
X0140454Y0310351D02*
X0138080Y0310351D01*
X0138279Y0310152D02*
X0140160Y0310152D01*
X0139867Y0309953D02*
X0138477Y0309953D01*
X0138711Y0309755D02*
X0139573Y0309755D01*
X0139280Y0309556D02*
X0138950Y0309556D01*
X0284244Y0166591D02*
X0285228Y0165606D01*
X0288181Y0165606D01*
X0288181Y0167083D01*
X0290642Y0167083D02*
X0290642Y0165606D01*
X0294579Y0165606D01*
X0285228Y0165606D02*
X0285228Y0138047D01*
X0284244Y0137063D01*
X0285228Y0138047D02*
X0288181Y0138047D01*
X0288181Y0136571D01*
X0290642Y0136571D02*
X0290642Y0138047D01*
X0294579Y0138047D01*
D20*
X0302157Y0176327D02*
X0299657Y0178827D01*
X0299657Y0183827D01*
X0302157Y0186327D01*
X0307157Y0186327D01*
X0309657Y0183827D01*
X0312157Y0186327D01*
X0317157Y0186327D01*
X0319657Y0183827D01*
X0322157Y0186327D01*
X0327157Y0186327D01*
X0329657Y0183827D01*
X0332157Y0186327D01*
X0337157Y0186327D01*
X0339657Y0183827D01*
X0339657Y0178827D01*
X0337157Y0176327D01*
X0332157Y0176327D01*
X0329657Y0178827D01*
X0327157Y0176327D01*
X0322157Y0176327D01*
X0319657Y0178827D01*
X0317157Y0176327D01*
X0312157Y0176327D01*
X0309657Y0178827D01*
X0307157Y0176327D01*
X0302157Y0176327D01*
X0324057Y0211227D02*
X0324057Y0214427D01*
X0326257Y0214427D01*
X0333057Y0214427D02*
X0335257Y0214427D01*
X0335257Y0211227D01*
X0370799Y0248244D02*
X0370799Y0256118D01*
X0390484Y0256118D01*
X0390484Y0248244D01*
X0370799Y0248244D01*
X0370799Y0323323D02*
X0370799Y0331197D01*
X0390484Y0331197D01*
X0390484Y0323323D01*
X0370799Y0323323D01*
X0050997Y0303031D02*
X0048061Y0303031D01*
X0048061Y0300829D01*
X0049529Y0301563D01*
X0050263Y0301563D01*
X0050997Y0300829D01*
X0050997Y0299361D01*
X0050263Y0298627D01*
X0048795Y0298627D01*
X0048061Y0299361D01*
X0046393Y0298627D02*
X0044925Y0300095D01*
X0045659Y0300095D02*
X0043457Y0300095D01*
X0043457Y0298627D02*
X0043457Y0303031D01*
X0045659Y0303031D01*
X0046393Y0302297D01*
X0046393Y0300829D01*
X0045659Y0300095D01*
D21*
X0294825Y0151827D03*
M02*
