G75*
%MOIN*%
%OFA0B0*%
%FSLAX25Y25*%
%IPPOS*%
%LPD*%
%AMOC8*
5,1,8,0,0,1.08239X$1,22.5*
%
%ADD10C,0.00800*%
%ADD11C,0.05512*%
%ADD12C,0.02775*%
%ADD13C,0.16598*%
%ADD14C,0.04409*%
%ADD15C,0.07280*%
%ADD16C,0.03956*%
%ADD17C,0.03169*%
%ADD18C,0.04961*%
%ADD19C,0.04356*%
%ADD20C,0.03175*%
%ADD21C,0.03962*%
%ADD22C,0.01200*%
%ADD23C,0.04750*%
%ADD24C,0.00591*%
%ADD25C,0.01600*%
D10*
X0009586Y0110857D02*
X0008552Y0111891D01*
X0008552Y0113959D01*
X0009586Y0114994D01*
X0010621Y0114994D01*
X0011655Y0113959D01*
X0012689Y0114994D01*
X0013723Y0114994D01*
X0014757Y0113959D01*
X0014757Y0111891D01*
X0013723Y0110857D01*
X0011655Y0112925D02*
X0011655Y0113959D01*
D11*
X0014500Y0241118D03*
X0014500Y0251118D03*
X0014500Y0261118D03*
X0014500Y0271118D03*
X0304657Y0181327D03*
X0314657Y0181327D03*
X0324657Y0181327D03*
X0334657Y0181327D03*
X0307213Y0119732D03*
X0307213Y0107528D03*
X0389102Y0107528D03*
X0389102Y0119732D03*
D12*
X0189618Y0247102D03*
X0169618Y0247102D03*
X0169618Y0267102D03*
X0189618Y0267102D03*
D13*
X0179618Y0257102D03*
D14*
X0181508Y0109307D03*
X0191508Y0109307D03*
X0191508Y0099307D03*
X0181508Y0099307D03*
X0171508Y0099307D03*
X0171508Y0109307D03*
X0161508Y0109307D03*
X0161508Y0099307D03*
X0151508Y0099307D03*
X0151508Y0109307D03*
X0141508Y0109307D03*
X0141508Y0099307D03*
X0131508Y0099307D03*
X0131508Y0109307D03*
X0121508Y0109307D03*
X0121508Y0099307D03*
X0111508Y0099307D03*
X0111508Y0109307D03*
X0101508Y0109307D03*
X0101508Y0099307D03*
X0091508Y0099307D03*
X0091508Y0109307D03*
X0081508Y0109307D03*
X0081508Y0099307D03*
X0201508Y0099307D03*
X0211508Y0099307D03*
X0221508Y0099307D03*
X0221508Y0109307D03*
X0211508Y0109307D03*
X0201508Y0109307D03*
X0231508Y0109307D03*
X0241508Y0109307D03*
X0251508Y0109307D03*
X0251508Y0099307D03*
X0241508Y0099307D03*
X0231508Y0099307D03*
X0261508Y0099307D03*
X0271508Y0099307D03*
X0271508Y0109307D03*
X0261508Y0109307D03*
X0375642Y0252181D03*
X0385642Y0252181D03*
X0385642Y0327260D03*
X0375642Y0327260D03*
D15*
X0119657Y0336827D03*
X0049657Y0336827D03*
X0034657Y0336827D03*
X0019657Y0336827D03*
D16*
X0071606Y0169622D03*
X0066606Y0162122D03*
X0071606Y0154622D03*
X0066606Y0147122D03*
X0076606Y0147122D03*
X0081606Y0154622D03*
X0076606Y0162122D03*
X0081606Y0169622D03*
X0086606Y0162122D03*
X0091606Y0154622D03*
X0086606Y0147122D03*
X0096606Y0147122D03*
X0101606Y0154622D03*
X0096606Y0162122D03*
X0091606Y0169622D03*
X0101606Y0169622D03*
X0106606Y0162122D03*
X0111606Y0154622D03*
X0106606Y0147122D03*
X0116606Y0147122D03*
X0121606Y0154622D03*
X0116606Y0162122D03*
X0111606Y0169622D03*
X0121606Y0169622D03*
X0126606Y0162122D03*
X0131606Y0154622D03*
X0126606Y0147122D03*
X0136606Y0147122D03*
X0141606Y0154622D03*
X0136606Y0162122D03*
X0131606Y0169622D03*
X0141606Y0169622D03*
X0146606Y0162122D03*
X0151606Y0154622D03*
X0146606Y0147122D03*
X0156606Y0147122D03*
X0161606Y0154622D03*
X0156606Y0162122D03*
X0151606Y0169622D03*
X0161606Y0169622D03*
X0166606Y0162122D03*
X0171606Y0154622D03*
X0166606Y0147122D03*
X0176606Y0147122D03*
X0181606Y0154622D03*
X0176606Y0162122D03*
X0171606Y0169622D03*
X0181606Y0169622D03*
X0186606Y0162122D03*
X0191606Y0154622D03*
X0186606Y0147122D03*
X0196606Y0147122D03*
X0201606Y0154622D03*
X0196606Y0162122D03*
X0191606Y0169622D03*
X0201606Y0169622D03*
X0206606Y0162122D03*
X0211606Y0154622D03*
X0206606Y0147122D03*
X0216606Y0147122D03*
X0221606Y0154622D03*
X0216606Y0162122D03*
X0211606Y0169622D03*
X0221606Y0169622D03*
X0226606Y0162122D03*
X0231606Y0154622D03*
X0226606Y0147122D03*
X0236606Y0147122D03*
X0241606Y0154622D03*
X0236606Y0162122D03*
X0231606Y0169622D03*
X0241606Y0169622D03*
X0246606Y0162122D03*
X0251606Y0154622D03*
X0246606Y0147122D03*
X0256606Y0147122D03*
X0261606Y0154622D03*
X0256606Y0162122D03*
X0251606Y0169622D03*
X0261606Y0169622D03*
X0375642Y0177102D03*
X0380642Y0177102D03*
X0385642Y0177102D03*
D17*
X0287886Y0161669D03*
X0287886Y0156748D03*
X0287886Y0151827D03*
X0287886Y0146906D03*
X0287886Y0141984D03*
X0370799Y0278598D03*
X0375720Y0278598D03*
X0380642Y0278598D03*
X0385563Y0278598D03*
X0390484Y0278598D03*
D18*
X0334421Y0164740D03*
X0324579Y0164740D03*
X0314736Y0164740D03*
X0304894Y0164740D03*
D19*
X0285657Y0195327D03*
X0301157Y0206327D03*
X0320157Y0200327D03*
X0315157Y0225327D03*
X0330157Y0231827D03*
X0336657Y0231827D03*
X0315157Y0237327D03*
X0348157Y0113827D03*
X0093909Y0223362D03*
X0084657Y0251236D03*
X0084657Y0262220D03*
X0084657Y0306039D03*
X0084657Y0317614D03*
X0045157Y0203327D03*
X0044157Y0183827D03*
X0049157Y0183827D03*
X0050157Y0173327D03*
X0055157Y0163327D03*
X0064445Y0132543D03*
X0084445Y0132543D03*
D20*
X0086323Y0180465D03*
X0074748Y0191843D03*
X0064303Y0193323D03*
X0060957Y0195882D03*
X0064500Y0198441D03*
X0060957Y0201000D03*
X0064500Y0203559D03*
X0060563Y0205921D03*
X0060169Y0210055D03*
X0064500Y0208283D03*
X0064106Y0214976D03*
X0060957Y0217732D03*
X0064500Y0220291D03*
X0061350Y0223047D03*
X0039972Y0226827D03*
X0036823Y0229976D03*
X0039972Y0233126D03*
X0036823Y0236276D03*
X0039933Y0243913D03*
X0036783Y0247063D03*
X0039933Y0250213D03*
X0036783Y0253362D03*
X0039933Y0260803D03*
X0036783Y0263953D03*
X0039933Y0267102D03*
X0036783Y0270252D03*
X0039894Y0277890D03*
X0036744Y0281039D03*
X0039894Y0284189D03*
X0036744Y0287339D03*
X0039894Y0294268D03*
X0061350Y0293677D03*
X0064500Y0296827D03*
X0061350Y0299583D03*
X0064500Y0302732D03*
X0061350Y0305488D03*
X0064500Y0308244D03*
X0061350Y0311000D03*
X0064500Y0313362D03*
X0061350Y0315724D03*
X0064500Y0318480D03*
X0061350Y0321236D03*
X0064500Y0324386D03*
X0061350Y0327142D03*
X0064500Y0330291D03*
X0075130Y0323047D03*
X0094224Y0323047D03*
X0106657Y0332827D03*
X0094224Y0301394D03*
X0075130Y0301394D03*
X0075130Y0267929D03*
X0094224Y0267929D03*
X0094028Y0246079D03*
X0075130Y0246276D03*
X0110476Y0209957D03*
X0124146Y0191591D03*
X0145744Y0220972D03*
X0145291Y0226244D03*
X0151059Y0222472D03*
X0155157Y0220327D03*
X0149697Y0232693D03*
X0144382Y0247047D03*
X0144157Y0253327D03*
X0147657Y0255827D03*
X0144157Y0258327D03*
X0147657Y0260827D03*
X0144382Y0275803D03*
X0144382Y0283480D03*
X0146157Y0287327D03*
X0143157Y0290827D03*
X0146157Y0293827D03*
X0150657Y0293827D03*
X0155012Y0292339D03*
X0159157Y0293827D03*
X0166657Y0293827D03*
X0176272Y0292339D03*
X0182657Y0293827D03*
X0180657Y0306327D03*
X0198122Y0292339D03*
X0202256Y0292339D03*
X0210878Y0294031D03*
X0216469Y0289031D03*
X0216657Y0284827D03*
X0214067Y0281209D03*
X0216657Y0267327D03*
X0213067Y0263992D03*
X0233157Y0241327D03*
X0210130Y0240370D03*
X0214295Y0221472D03*
X0221748Y0219744D03*
X0218004Y0214917D03*
X0208157Y0220327D03*
X0204028Y0221472D03*
X0196657Y0220327D03*
X0194264Y0205114D03*
X0176657Y0220327D03*
X0172622Y0221472D03*
X0168685Y0220472D03*
X0127157Y0235327D03*
X0126157Y0239327D03*
X0119657Y0240827D03*
X0127157Y0287327D03*
X0131157Y0287327D03*
X0202657Y0305827D03*
X0234657Y0301827D03*
X0238657Y0298827D03*
X0238657Y0292327D03*
X0233657Y0291327D03*
X0262657Y0310827D03*
X0269248Y0310744D03*
X0277157Y0302327D03*
X0284748Y0327744D03*
X0284657Y0333827D03*
X0240157Y0325827D03*
X0241157Y0320827D03*
X0226657Y0334827D03*
X0262748Y0204744D03*
X0269157Y0204827D03*
X0368157Y0193327D03*
X0393157Y0193327D03*
X0064500Y0186433D03*
X0061350Y0183677D03*
X0064500Y0180921D03*
X0059972Y0189189D03*
D21*
X0129657Y0329827D03*
X0258657Y0328327D03*
X0308657Y0323327D03*
X0308657Y0313827D03*
X0328157Y0312827D03*
X0334657Y0312327D03*
X0334657Y0324327D03*
X0328157Y0323827D03*
X0331657Y0266827D03*
X0320157Y0252827D03*
X0314157Y0252827D03*
X0314157Y0246827D03*
X0320157Y0246827D03*
X0302657Y0266827D03*
D22*
X0017157Y0130882D02*
X0017157Y0091427D01*
X0393758Y0091427D01*
X0393758Y0150327D01*
X0351657Y0150327D01*
X0351657Y0338132D01*
X0325280Y0338132D01*
X0325280Y0233449D01*
X0318403Y0227363D01*
X0318935Y0226078D01*
X0318935Y0224575D01*
X0318360Y0223187D01*
X0317298Y0222124D01*
X0315909Y0221549D01*
X0314406Y0221549D01*
X0313017Y0222124D01*
X0312767Y0222374D01*
X0255657Y0171827D01*
X0244462Y0171827D01*
X0244640Y0171649D01*
X0245184Y0170334D01*
X0245184Y0168910D01*
X0244640Y0167595D01*
X0243633Y0166589D01*
X0242318Y0166044D01*
X0240895Y0166044D01*
X0239580Y0166589D01*
X0238573Y0167595D01*
X0238028Y0168910D01*
X0238028Y0170334D01*
X0238573Y0171649D01*
X0238751Y0171827D01*
X0234462Y0171827D01*
X0234640Y0171649D01*
X0235184Y0170334D01*
X0235184Y0168910D01*
X0234640Y0167595D01*
X0233633Y0166589D01*
X0232318Y0166044D01*
X0230895Y0166044D01*
X0229580Y0166589D01*
X0228573Y0167595D01*
X0228028Y0168910D01*
X0228028Y0170334D01*
X0228573Y0171649D01*
X0228751Y0171827D01*
X0224462Y0171827D01*
X0224640Y0171649D01*
X0225184Y0170334D01*
X0225184Y0168910D01*
X0224640Y0167595D01*
X0223633Y0166589D01*
X0222318Y0166044D01*
X0220895Y0166044D01*
X0219580Y0166589D01*
X0218573Y0167595D01*
X0218028Y0168910D01*
X0218028Y0170334D01*
X0218573Y0171649D01*
X0218751Y0171827D01*
X0214462Y0171827D01*
X0214640Y0171649D01*
X0215184Y0170334D01*
X0215184Y0168910D01*
X0214640Y0167595D01*
X0213633Y0166589D01*
X0212318Y0166044D01*
X0210895Y0166044D01*
X0209580Y0166589D01*
X0208573Y0167595D01*
X0208028Y0168910D01*
X0208028Y0170334D01*
X0208573Y0171649D01*
X0208751Y0171827D01*
X0204462Y0171827D01*
X0204640Y0171649D01*
X0205184Y0170334D01*
X0205184Y0168910D01*
X0204640Y0167595D01*
X0203633Y0166589D01*
X0202318Y0166044D01*
X0200895Y0166044D01*
X0199580Y0166589D01*
X0198573Y0167595D01*
X0198028Y0168910D01*
X0198028Y0170334D01*
X0198573Y0171649D01*
X0198751Y0171827D01*
X0194462Y0171827D01*
X0194640Y0171649D01*
X0195184Y0170334D01*
X0195184Y0168910D01*
X0194640Y0167595D01*
X0193633Y0166589D01*
X0192318Y0166044D01*
X0190895Y0166044D01*
X0189580Y0166589D01*
X0188573Y0167595D01*
X0188028Y0168910D01*
X0188028Y0170334D01*
X0188573Y0171649D01*
X0188751Y0171827D01*
X0184462Y0171827D01*
X0184640Y0171649D01*
X0185184Y0170334D01*
X0185184Y0168910D01*
X0184640Y0167595D01*
X0183633Y0166589D01*
X0182318Y0166044D01*
X0180895Y0166044D01*
X0179580Y0166589D01*
X0178573Y0167595D01*
X0178028Y0168910D01*
X0178028Y0170334D01*
X0178573Y0171649D01*
X0178751Y0171827D01*
X0174462Y0171827D01*
X0174640Y0171649D01*
X0175184Y0170334D01*
X0175184Y0168910D01*
X0174640Y0167595D01*
X0173633Y0166589D01*
X0172318Y0166044D01*
X0170895Y0166044D01*
X0169580Y0166589D01*
X0168573Y0167595D01*
X0168028Y0168910D01*
X0168028Y0170334D01*
X0168573Y0171649D01*
X0168751Y0171827D01*
X0158553Y0171827D01*
X0158553Y0170112D01*
X0162943Y0165722D01*
X0164044Y0164620D01*
X0164580Y0165155D01*
X0165895Y0165700D01*
X0167318Y0165700D01*
X0168633Y0165155D01*
X0169640Y0164149D01*
X0170184Y0162834D01*
X0170184Y0161410D01*
X0169640Y0160095D01*
X0168633Y0159089D01*
X0167318Y0158544D01*
X0165895Y0158544D01*
X0165427Y0158738D01*
X0165943Y0158222D01*
X0167053Y0157112D01*
X0167053Y0151542D01*
X0166211Y0150700D01*
X0167318Y0150700D01*
X0168633Y0150155D01*
X0169640Y0149149D01*
X0170184Y0147834D01*
X0170184Y0146410D01*
X0169640Y0145095D01*
X0168633Y0144089D01*
X0167318Y0143544D01*
X0165895Y0143544D01*
X0164580Y0144089D01*
X0164553Y0144116D01*
X0164553Y0143612D01*
X0176943Y0131222D01*
X0178053Y0130112D01*
X0178053Y0110908D01*
X0178282Y0111462D01*
X0179353Y0112533D01*
X0180751Y0113112D01*
X0182265Y0113112D01*
X0183663Y0112533D01*
X0184733Y0111462D01*
X0185313Y0110064D01*
X0185313Y0108550D01*
X0184733Y0107152D01*
X0183663Y0106082D01*
X0182265Y0105502D01*
X0180751Y0105502D01*
X0179353Y0106082D01*
X0178282Y0107152D01*
X0177711Y0108531D01*
X0177507Y0108327D01*
X0176969Y0107774D01*
X0176954Y0107773D01*
X0176943Y0107762D01*
X0176171Y0107762D01*
X0174979Y0107745D01*
X0174733Y0107152D01*
X0173663Y0106082D01*
X0172265Y0105502D01*
X0170751Y0105502D01*
X0169353Y0106082D01*
X0168282Y0107152D01*
X0168077Y0107647D01*
X0164920Y0107602D01*
X0164733Y0107152D01*
X0163663Y0106082D01*
X0163553Y0106036D01*
X0163553Y0104382D01*
X0163684Y0103838D01*
X0163553Y0103624D01*
X0163553Y0103372D01*
X0163157Y0102976D01*
X0163042Y0102790D01*
X0163663Y0102533D01*
X0164733Y0101462D01*
X0164870Y0101133D01*
X0168139Y0101116D01*
X0168282Y0101462D01*
X0169353Y0102533D01*
X0170751Y0103112D01*
X0172265Y0103112D01*
X0173663Y0102533D01*
X0174733Y0101462D01*
X0174891Y0101081D01*
X0176436Y0101073D01*
X0177138Y0101129D01*
X0177209Y0101069D01*
X0177303Y0101068D01*
X0177798Y0100568D01*
X0177882Y0100496D01*
X0178282Y0101462D01*
X0179353Y0102533D01*
X0180751Y0103112D01*
X0182265Y0103112D01*
X0183663Y0102533D01*
X0184733Y0101462D01*
X0185313Y0100064D01*
X0185313Y0098550D01*
X0184733Y0097152D01*
X0183663Y0096082D01*
X0182265Y0095502D01*
X0180751Y0095502D01*
X0179353Y0096082D01*
X0178282Y0097152D01*
X0177955Y0097943D01*
X0177899Y0097887D01*
X0175553Y0095130D01*
X0175553Y0095042D01*
X0175052Y0094541D01*
X0174592Y0094001D01*
X0174505Y0093994D01*
X0174443Y0093931D01*
X0173734Y0093931D01*
X0173027Y0093875D01*
X0172960Y0093931D01*
X0153372Y0093931D01*
X0152262Y0095042D01*
X0152262Y0095042D01*
X0151802Y0095502D01*
X0150751Y0095502D01*
X0149353Y0096082D01*
X0148282Y0097152D01*
X0147703Y0098550D01*
X0147703Y0098849D01*
X0145185Y0098243D01*
X0144733Y0097152D01*
X0143663Y0096082D01*
X0142265Y0095502D01*
X0140751Y0095502D01*
X0139353Y0096082D01*
X0138282Y0097152D01*
X0137719Y0098511D01*
X0135099Y0098034D01*
X0134733Y0097152D01*
X0133663Y0096082D01*
X0132265Y0095502D01*
X0130751Y0095502D01*
X0129353Y0096082D01*
X0128282Y0097152D01*
X0127703Y0098550D01*
X0127703Y0100064D01*
X0128282Y0101462D01*
X0129353Y0102533D01*
X0130751Y0103112D01*
X0132265Y0103112D01*
X0133663Y0102533D01*
X0134430Y0101766D01*
X0139909Y0102763D01*
X0140751Y0103112D01*
X0141825Y0103112D01*
X0148762Y0104375D01*
X0148762Y0106672D01*
X0148282Y0107152D01*
X0147703Y0108550D01*
X0147703Y0110064D01*
X0148282Y0111462D01*
X0148762Y0111942D01*
X0148762Y0144218D01*
X0148633Y0144089D01*
X0147318Y0143544D01*
X0145895Y0143544D01*
X0144580Y0144089D01*
X0143573Y0145095D01*
X0143028Y0146410D01*
X0143028Y0147834D01*
X0143573Y0149149D01*
X0144580Y0150155D01*
X0145895Y0150700D01*
X0147318Y0150700D01*
X0147806Y0150498D01*
X0147372Y0150931D01*
X0146262Y0152042D01*
X0146262Y0157612D01*
X0147195Y0158544D01*
X0145895Y0158544D01*
X0144580Y0159089D01*
X0143573Y0160095D01*
X0143028Y0161410D01*
X0143028Y0162834D01*
X0143573Y0164149D01*
X0144580Y0165155D01*
X0145336Y0165468D01*
X0144262Y0166542D01*
X0144262Y0167218D01*
X0143633Y0166589D01*
X0142318Y0166044D01*
X0140895Y0166044D01*
X0139580Y0166589D01*
X0138573Y0167595D01*
X0138028Y0168910D01*
X0138028Y0170334D01*
X0138573Y0171649D01*
X0138751Y0171827D01*
X0134462Y0171827D01*
X0134640Y0171649D01*
X0135184Y0170334D01*
X0135184Y0168910D01*
X0134640Y0167595D01*
X0133633Y0166589D01*
X0132318Y0166044D01*
X0130895Y0166044D01*
X0129580Y0166589D01*
X0128573Y0167595D01*
X0128028Y0168910D01*
X0128028Y0170334D01*
X0128573Y0171649D01*
X0128751Y0171827D01*
X0124462Y0171827D01*
X0124640Y0171649D01*
X0125184Y0170334D01*
X0125184Y0168910D01*
X0124640Y0167595D01*
X0123633Y0166589D01*
X0122318Y0166044D01*
X0120895Y0166044D01*
X0119580Y0166589D01*
X0118573Y0167595D01*
X0118028Y0168910D01*
X0118028Y0170334D01*
X0118573Y0171649D01*
X0118751Y0171827D01*
X0114462Y0171827D01*
X0114640Y0171649D01*
X0115184Y0170334D01*
X0115184Y0168910D01*
X0114640Y0167595D01*
X0113633Y0166589D01*
X0112318Y0166044D01*
X0110895Y0166044D01*
X0109580Y0166589D01*
X0108573Y0167595D01*
X0108028Y0168910D01*
X0108028Y0170334D01*
X0108573Y0171649D01*
X0108751Y0171827D01*
X0104462Y0171827D01*
X0104640Y0171649D01*
X0105184Y0170334D01*
X0105184Y0168910D01*
X0104640Y0167595D01*
X0103633Y0166589D01*
X0102318Y0166044D01*
X0100895Y0166044D01*
X0099580Y0166589D01*
X0098573Y0167595D01*
X0098028Y0168910D01*
X0098028Y0170334D01*
X0098573Y0171649D01*
X0098751Y0171827D01*
X0094462Y0171827D01*
X0094640Y0171649D01*
X0095184Y0170334D01*
X0095184Y0168910D01*
X0094640Y0167595D01*
X0093633Y0166589D01*
X0092318Y0166044D01*
X0090895Y0166044D01*
X0089580Y0166589D01*
X0088573Y0167595D01*
X0088028Y0168910D01*
X0088028Y0170334D01*
X0088573Y0171649D01*
X0088751Y0171827D01*
X0084462Y0171827D01*
X0084640Y0171649D01*
X0085184Y0170334D01*
X0085184Y0168910D01*
X0084640Y0167595D01*
X0083633Y0166589D01*
X0082318Y0166044D01*
X0080895Y0166044D01*
X0079580Y0166589D01*
X0078573Y0167595D01*
X0078028Y0168910D01*
X0078028Y0170334D01*
X0078573Y0171649D01*
X0078751Y0171827D01*
X0074462Y0171827D01*
X0074640Y0171649D01*
X0075184Y0170334D01*
X0075184Y0168910D01*
X0074640Y0167595D01*
X0073633Y0166589D01*
X0072318Y0166044D01*
X0070895Y0166044D01*
X0069580Y0166589D01*
X0068573Y0167595D01*
X0068028Y0168910D01*
X0068028Y0170334D01*
X0068573Y0171649D01*
X0068751Y0171827D01*
X0053625Y0171827D01*
X0053360Y0171187D01*
X0052298Y0170124D01*
X0050909Y0169549D01*
X0049406Y0169549D01*
X0048017Y0170124D01*
X0046955Y0171187D01*
X0046690Y0171827D01*
X0039657Y0171827D01*
X0039657Y0223639D01*
X0039338Y0223639D01*
X0038167Y0224125D01*
X0037270Y0225021D01*
X0036785Y0226193D01*
X0036785Y0226789D01*
X0036189Y0226789D01*
X0035017Y0227274D01*
X0034121Y0228171D01*
X0033635Y0229342D01*
X0033635Y0230610D01*
X0034121Y0231782D01*
X0035017Y0232679D01*
X0036098Y0233126D01*
X0035017Y0233573D01*
X0034121Y0234470D01*
X0033635Y0235642D01*
X0033635Y0236910D01*
X0034121Y0238081D01*
X0035017Y0238978D01*
X0036189Y0239463D01*
X0037457Y0239463D01*
X0038628Y0238978D01*
X0039525Y0238081D01*
X0039657Y0237761D01*
X0039657Y0240726D01*
X0039299Y0240726D01*
X0038128Y0241211D01*
X0037231Y0242108D01*
X0036746Y0243279D01*
X0036746Y0243876D01*
X0036149Y0243876D01*
X0034978Y0244361D01*
X0034081Y0245257D01*
X0033596Y0246429D01*
X0033596Y0247697D01*
X0034081Y0248869D01*
X0034978Y0249765D01*
X0036058Y0250213D01*
X0034978Y0250660D01*
X0034081Y0251557D01*
X0033596Y0252728D01*
X0033596Y0253996D01*
X0034081Y0255168D01*
X0034978Y0256064D01*
X0036149Y0256550D01*
X0037417Y0256550D01*
X0038589Y0256064D01*
X0039486Y0255168D01*
X0039657Y0254753D01*
X0039657Y0257616D01*
X0039299Y0257616D01*
X0038128Y0258101D01*
X0037231Y0258998D01*
X0036746Y0260169D01*
X0036746Y0260765D01*
X0036149Y0260765D01*
X0034978Y0261251D01*
X0034081Y0262147D01*
X0033596Y0263319D01*
X0033596Y0264587D01*
X0034081Y0265758D01*
X0034978Y0266655D01*
X0036058Y0267102D01*
X0034978Y0267550D01*
X0034081Y0268446D01*
X0033596Y0269618D01*
X0033596Y0270886D01*
X0034081Y0272057D01*
X0034978Y0272954D01*
X0036149Y0273439D01*
X0037417Y0273439D01*
X0038589Y0272954D01*
X0039486Y0272057D01*
X0039657Y0271643D01*
X0039657Y0274702D01*
X0039260Y0274702D01*
X0038088Y0275188D01*
X0037192Y0276084D01*
X0036706Y0277256D01*
X0036706Y0277852D01*
X0036110Y0277852D01*
X0034939Y0278337D01*
X0034042Y0279234D01*
X0033557Y0280405D01*
X0033557Y0281673D01*
X0034042Y0282845D01*
X0034939Y0283742D01*
X0036019Y0284189D01*
X0034939Y0284636D01*
X0034042Y0285533D01*
X0033557Y0286705D01*
X0033557Y0287973D01*
X0034042Y0289144D01*
X0034939Y0290041D01*
X0036110Y0290526D01*
X0037378Y0290526D01*
X0038550Y0290041D01*
X0039446Y0289144D01*
X0039657Y0288634D01*
X0039657Y0291080D01*
X0039260Y0291080D01*
X0038088Y0291566D01*
X0037192Y0292462D01*
X0036706Y0293634D01*
X0036706Y0294902D01*
X0037192Y0296073D01*
X0038088Y0296970D01*
X0039260Y0297455D01*
X0039657Y0297455D01*
X0039657Y0338132D01*
X0024788Y0338132D01*
X0024897Y0337869D01*
X0024897Y0335784D01*
X0024100Y0333859D01*
X0022626Y0332385D01*
X0020700Y0331587D01*
X0018615Y0331587D01*
X0016689Y0332385D01*
X0015215Y0333859D01*
X0014417Y0335784D01*
X0014417Y0337869D01*
X0014527Y0338132D01*
X0009257Y0338132D01*
X0009257Y0130882D01*
X0017157Y0130882D01*
X0017157Y0129973D02*
X0061672Y0129973D01*
X0061242Y0130403D02*
X0062305Y0129341D01*
X0063693Y0128765D01*
X0065196Y0128765D01*
X0066585Y0129341D01*
X0067648Y0130403D01*
X0068223Y0131792D01*
X0068223Y0133295D01*
X0067648Y0134683D01*
X0066585Y0135746D01*
X0065196Y0136321D01*
X0063693Y0136321D01*
X0062305Y0135746D01*
X0061242Y0134683D01*
X0060667Y0133295D01*
X0060667Y0131792D01*
X0061242Y0130403D01*
X0060924Y0131172D02*
X0009257Y0131172D01*
X0009257Y0132370D02*
X0060667Y0132370D01*
X0060780Y0133569D02*
X0009257Y0133569D01*
X0009257Y0134767D02*
X0061326Y0134767D01*
X0062835Y0135966D02*
X0009257Y0135966D01*
X0009257Y0137164D02*
X0148762Y0137164D01*
X0148762Y0135966D02*
X0086055Y0135966D01*
X0086585Y0135746D02*
X0085196Y0136321D01*
X0083693Y0136321D01*
X0082305Y0135746D01*
X0081242Y0134683D01*
X0080667Y0133295D01*
X0080667Y0131792D01*
X0081242Y0130403D01*
X0082305Y0129341D01*
X0083693Y0128765D01*
X0085196Y0128765D01*
X0086585Y0129341D01*
X0087648Y0130403D01*
X0088223Y0131792D01*
X0088223Y0133295D01*
X0087648Y0134683D01*
X0086585Y0135746D01*
X0087564Y0134767D02*
X0148762Y0134767D01*
X0148762Y0133569D02*
X0088109Y0133569D01*
X0088223Y0132370D02*
X0148762Y0132370D01*
X0148762Y0131172D02*
X0087966Y0131172D01*
X0087218Y0129973D02*
X0148762Y0129973D01*
X0148762Y0128775D02*
X0085219Y0128775D01*
X0083671Y0128775D02*
X0065219Y0128775D01*
X0063671Y0128775D02*
X0017157Y0128775D01*
X0017157Y0127576D02*
X0148762Y0127576D01*
X0148762Y0126378D02*
X0017157Y0126378D01*
X0017157Y0125179D02*
X0148762Y0125179D01*
X0148762Y0123981D02*
X0017157Y0123981D01*
X0017157Y0122782D02*
X0148762Y0122782D01*
X0148762Y0121584D02*
X0017157Y0121584D01*
X0017157Y0120385D02*
X0148762Y0120385D01*
X0148762Y0119187D02*
X0017157Y0119187D01*
X0017157Y0117988D02*
X0148762Y0117988D01*
X0148762Y0116790D02*
X0017157Y0116790D01*
X0017157Y0115591D02*
X0148762Y0115591D01*
X0148762Y0114393D02*
X0017157Y0114393D01*
X0017157Y0113194D02*
X0148762Y0113194D01*
X0148762Y0111996D02*
X0144200Y0111996D01*
X0144733Y0111462D02*
X0143663Y0112533D01*
X0142265Y0113112D01*
X0140751Y0113112D01*
X0139353Y0112533D01*
X0138282Y0111462D01*
X0137703Y0110064D01*
X0137703Y0108550D01*
X0138282Y0107152D01*
X0139353Y0106082D01*
X0140751Y0105502D01*
X0142265Y0105502D01*
X0143663Y0106082D01*
X0144733Y0107152D01*
X0145313Y0108550D01*
X0145313Y0110064D01*
X0144733Y0111462D01*
X0145009Y0110797D02*
X0148007Y0110797D01*
X0147703Y0109598D02*
X0145313Y0109598D01*
X0145250Y0108400D02*
X0147765Y0108400D01*
X0148262Y0107201D02*
X0144754Y0107201D01*
X0143473Y0106003D02*
X0148762Y0106003D01*
X0148762Y0104804D02*
X0017157Y0104804D01*
X0017157Y0103606D02*
X0144539Y0103606D01*
X0139543Y0106003D02*
X0133473Y0106003D01*
X0133663Y0106082D02*
X0134733Y0107152D01*
X0135313Y0108550D01*
X0135313Y0110064D01*
X0134733Y0111462D01*
X0133663Y0112533D01*
X0132265Y0113112D01*
X0130751Y0113112D01*
X0129353Y0112533D01*
X0128282Y0111462D01*
X0127703Y0110064D01*
X0127703Y0108550D01*
X0128282Y0107152D01*
X0129353Y0106082D01*
X0130751Y0105502D01*
X0132265Y0105502D01*
X0133663Y0106082D01*
X0134754Y0107201D02*
X0138262Y0107201D01*
X0137765Y0108400D02*
X0135250Y0108400D01*
X0135313Y0109598D02*
X0137703Y0109598D01*
X0138007Y0110797D02*
X0135009Y0110797D01*
X0134200Y0111996D02*
X0138816Y0111996D01*
X0137956Y0102407D02*
X0133788Y0102407D01*
X0129228Y0102407D02*
X0123788Y0102407D01*
X0123663Y0102533D02*
X0122265Y0103112D01*
X0120751Y0103112D01*
X0119353Y0102533D01*
X0118282Y0101462D01*
X0117703Y0100064D01*
X0117703Y0098550D01*
X0118282Y0097152D01*
X0119353Y0096082D01*
X0120751Y0095502D01*
X0122265Y0095502D01*
X0123663Y0096082D01*
X0124733Y0097152D01*
X0125313Y0098550D01*
X0125313Y0100064D01*
X0124733Y0101462D01*
X0123663Y0102533D01*
X0124838Y0101209D02*
X0128177Y0101209D01*
X0127703Y0100010D02*
X0125313Y0100010D01*
X0125313Y0098812D02*
X0127703Y0098812D01*
X0128091Y0097613D02*
X0124925Y0097613D01*
X0123996Y0096415D02*
X0129019Y0096415D01*
X0133996Y0096415D02*
X0139019Y0096415D01*
X0138091Y0097613D02*
X0134924Y0097613D01*
X0143996Y0096415D02*
X0149019Y0096415D01*
X0148091Y0097613D02*
X0144924Y0097613D01*
X0147549Y0098812D02*
X0147703Y0098812D01*
X0152088Y0095216D02*
X0017157Y0095216D01*
X0017157Y0094018D02*
X0153286Y0094018D01*
X0163788Y0102407D02*
X0169228Y0102407D01*
X0168177Y0101209D02*
X0164838Y0101209D01*
X0163553Y0103606D02*
X0305298Y0103606D01*
X0304745Y0103835D02*
X0306346Y0103172D01*
X0308079Y0103172D01*
X0309680Y0103835D01*
X0310905Y0105060D01*
X0311568Y0106661D01*
X0311568Y0108394D01*
X0310905Y0109995D01*
X0309680Y0111220D01*
X0308079Y0111883D01*
X0306346Y0111883D01*
X0304745Y0111220D01*
X0303520Y0109995D01*
X0302857Y0108394D01*
X0302857Y0106661D01*
X0303520Y0105060D01*
X0304745Y0103835D01*
X0303776Y0104804D02*
X0163553Y0104804D01*
X0163553Y0106003D02*
X0169543Y0106003D01*
X0168262Y0107201D02*
X0164754Y0107201D01*
X0173473Y0106003D02*
X0179543Y0106003D01*
X0178262Y0107201D02*
X0174754Y0107201D01*
X0177580Y0108400D02*
X0177765Y0108400D01*
X0178053Y0111996D02*
X0178816Y0111996D01*
X0178053Y0113194D02*
X0344380Y0113194D01*
X0344380Y0113075D02*
X0344380Y0114578D01*
X0344955Y0115967D01*
X0346017Y0117030D01*
X0347406Y0117605D01*
X0348909Y0117605D01*
X0350298Y0117030D01*
X0351360Y0115967D01*
X0351935Y0114578D01*
X0351935Y0113075D01*
X0351360Y0111687D01*
X0350298Y0110624D01*
X0348909Y0110049D01*
X0347406Y0110049D01*
X0346017Y0110624D01*
X0344955Y0111687D01*
X0344380Y0113075D01*
X0344827Y0111996D02*
X0274200Y0111996D01*
X0274733Y0111462D02*
X0273663Y0112533D01*
X0272265Y0113112D01*
X0270751Y0113112D01*
X0269353Y0112533D01*
X0268282Y0111462D01*
X0267703Y0110064D01*
X0267703Y0108550D01*
X0268282Y0107152D01*
X0269353Y0106082D01*
X0270751Y0105502D01*
X0272265Y0105502D01*
X0273663Y0106082D01*
X0274733Y0107152D01*
X0275313Y0108550D01*
X0275313Y0110064D01*
X0274733Y0111462D01*
X0275009Y0110797D02*
X0304322Y0110797D01*
X0303356Y0109598D02*
X0275313Y0109598D01*
X0275250Y0108400D02*
X0302859Y0108400D01*
X0302857Y0107201D02*
X0274754Y0107201D01*
X0273473Y0106003D02*
X0303129Y0106003D01*
X0309127Y0103606D02*
X0387187Y0103606D01*
X0386635Y0103835D02*
X0388236Y0103172D01*
X0389969Y0103172D01*
X0391570Y0103835D01*
X0392795Y0105060D01*
X0393458Y0106661D01*
X0393458Y0108394D01*
X0392795Y0109995D01*
X0391570Y0111220D01*
X0389969Y0111883D01*
X0388236Y0111883D01*
X0386635Y0111220D01*
X0385410Y0109995D01*
X0384746Y0108394D01*
X0384746Y0106661D01*
X0385410Y0105060D01*
X0386635Y0103835D01*
X0385665Y0104804D02*
X0310650Y0104804D01*
X0311296Y0106003D02*
X0385019Y0106003D01*
X0384746Y0107201D02*
X0311568Y0107201D01*
X0311566Y0108400D02*
X0384749Y0108400D01*
X0385245Y0109598D02*
X0311070Y0109598D01*
X0310103Y0110797D02*
X0345844Y0110797D01*
X0344380Y0114393D02*
X0178053Y0114393D01*
X0178053Y0115591D02*
X0305828Y0115591D01*
X0306346Y0115376D02*
X0304745Y0116040D01*
X0303520Y0117265D01*
X0302857Y0118866D01*
X0302857Y0120599D01*
X0303520Y0122200D01*
X0304745Y0123425D01*
X0306346Y0124088D01*
X0308079Y0124088D01*
X0309680Y0123425D01*
X0310905Y0122200D01*
X0311568Y0120599D01*
X0311568Y0118866D01*
X0310905Y0117265D01*
X0309680Y0116040D01*
X0308079Y0115376D01*
X0306346Y0115376D01*
X0308597Y0115591D02*
X0344799Y0115591D01*
X0345777Y0116790D02*
X0310430Y0116790D01*
X0311205Y0117988D02*
X0385110Y0117988D01*
X0385410Y0117265D02*
X0386635Y0116040D01*
X0388236Y0115376D01*
X0389969Y0115376D01*
X0391570Y0116040D01*
X0392795Y0117265D01*
X0393458Y0118866D01*
X0393458Y0120599D01*
X0392795Y0122200D01*
X0391570Y0123425D01*
X0389969Y0124088D01*
X0388236Y0124088D01*
X0386635Y0123425D01*
X0385410Y0122200D01*
X0384746Y0120599D01*
X0384746Y0118866D01*
X0385410Y0117265D01*
X0385885Y0116790D02*
X0350538Y0116790D01*
X0351516Y0115591D02*
X0387718Y0115591D01*
X0390487Y0115591D02*
X0393758Y0115591D01*
X0393758Y0114393D02*
X0351935Y0114393D01*
X0351935Y0113194D02*
X0393758Y0113194D01*
X0393758Y0111996D02*
X0351488Y0111996D01*
X0350471Y0110797D02*
X0386212Y0110797D01*
X0391993Y0110797D02*
X0393758Y0110797D01*
X0393758Y0109598D02*
X0392959Y0109598D01*
X0393456Y0108400D02*
X0393758Y0108400D01*
X0393758Y0107201D02*
X0393458Y0107201D01*
X0393186Y0106003D02*
X0393758Y0106003D01*
X0393758Y0104804D02*
X0392539Y0104804D01*
X0393758Y0103606D02*
X0391017Y0103606D01*
X0393758Y0102407D02*
X0273788Y0102407D01*
X0273663Y0102533D02*
X0272265Y0103112D01*
X0270751Y0103112D01*
X0269353Y0102533D01*
X0268282Y0101462D01*
X0267703Y0100064D01*
X0267703Y0098550D01*
X0268282Y0097152D01*
X0269353Y0096082D01*
X0270751Y0095502D01*
X0272265Y0095502D01*
X0273663Y0096082D01*
X0274733Y0097152D01*
X0275313Y0098550D01*
X0275313Y0100064D01*
X0274733Y0101462D01*
X0273663Y0102533D01*
X0274838Y0101209D02*
X0393758Y0101209D01*
X0393758Y0100010D02*
X0275313Y0100010D01*
X0275313Y0098812D02*
X0393758Y0098812D01*
X0393758Y0097613D02*
X0274925Y0097613D01*
X0273996Y0096415D02*
X0393758Y0096415D01*
X0393758Y0095216D02*
X0175627Y0095216D01*
X0176646Y0096415D02*
X0179019Y0096415D01*
X0178091Y0097613D02*
X0177666Y0097613D01*
X0178177Y0101209D02*
X0174838Y0101209D01*
X0173788Y0102407D02*
X0179228Y0102407D01*
X0183788Y0102407D02*
X0189228Y0102407D01*
X0189353Y0102533D02*
X0188282Y0101462D01*
X0187703Y0100064D01*
X0187703Y0098550D01*
X0188282Y0097152D01*
X0189353Y0096082D01*
X0190751Y0095502D01*
X0192265Y0095502D01*
X0193663Y0096082D01*
X0194733Y0097152D01*
X0195313Y0098550D01*
X0195313Y0100064D01*
X0194733Y0101462D01*
X0193663Y0102533D01*
X0192265Y0103112D01*
X0190751Y0103112D01*
X0189353Y0102533D01*
X0188177Y0101209D02*
X0184838Y0101209D01*
X0185313Y0100010D02*
X0187703Y0100010D01*
X0187703Y0098812D02*
X0185313Y0098812D01*
X0184925Y0097613D02*
X0188091Y0097613D01*
X0189019Y0096415D02*
X0183996Y0096415D01*
X0174607Y0094018D02*
X0393758Y0094018D01*
X0393758Y0092819D02*
X0017157Y0092819D01*
X0017157Y0091621D02*
X0393758Y0091621D01*
X0393758Y0116790D02*
X0392320Y0116790D01*
X0393095Y0117988D02*
X0393758Y0117988D01*
X0393758Y0119187D02*
X0393458Y0119187D01*
X0393458Y0120385D02*
X0393758Y0120385D01*
X0393758Y0121584D02*
X0393050Y0121584D01*
X0393758Y0122782D02*
X0392213Y0122782D01*
X0393758Y0123981D02*
X0390228Y0123981D01*
X0387976Y0123981D02*
X0308339Y0123981D01*
X0306086Y0123981D02*
X0178053Y0123981D01*
X0178053Y0125179D02*
X0393758Y0125179D01*
X0393758Y0126378D02*
X0178053Y0126378D01*
X0178053Y0127576D02*
X0393758Y0127576D01*
X0393758Y0128775D02*
X0178053Y0128775D01*
X0178053Y0129973D02*
X0393758Y0129973D01*
X0393758Y0131172D02*
X0176993Y0131172D01*
X0175794Y0132370D02*
X0393758Y0132370D01*
X0393758Y0133569D02*
X0174596Y0133569D01*
X0173397Y0134767D02*
X0393758Y0134767D01*
X0393758Y0135966D02*
X0172199Y0135966D01*
X0171000Y0137164D02*
X0393758Y0137164D01*
X0393758Y0138363D02*
X0169802Y0138363D01*
X0168603Y0139561D02*
X0285806Y0139561D01*
X0286082Y0139285D02*
X0287252Y0138800D01*
X0288519Y0138800D01*
X0289690Y0139285D01*
X0290585Y0140181D01*
X0291070Y0141351D01*
X0291070Y0142618D01*
X0290585Y0143788D01*
X0289928Y0144445D01*
X0290585Y0145102D01*
X0291070Y0146272D01*
X0291070Y0147539D01*
X0290585Y0148709D01*
X0289928Y0149366D01*
X0290585Y0150023D01*
X0291070Y0151193D01*
X0291070Y0152460D01*
X0290585Y0153630D01*
X0289928Y0154287D01*
X0290585Y0154944D01*
X0291070Y0156115D01*
X0291070Y0157381D01*
X0290585Y0158552D01*
X0289928Y0159209D01*
X0290585Y0159866D01*
X0291070Y0161036D01*
X0291070Y0162303D01*
X0290585Y0163473D01*
X0289690Y0164369D01*
X0288519Y0164854D01*
X0287252Y0164854D01*
X0286082Y0164369D01*
X0285186Y0163473D01*
X0284702Y0162303D01*
X0284702Y0161036D01*
X0285186Y0159866D01*
X0285843Y0159209D01*
X0285186Y0158552D01*
X0284702Y0157381D01*
X0284702Y0156115D01*
X0285186Y0154944D01*
X0285843Y0154287D01*
X0285186Y0153630D01*
X0284702Y0152460D01*
X0284702Y0151193D01*
X0285186Y0150023D01*
X0285843Y0149366D01*
X0285186Y0148709D01*
X0284702Y0147539D01*
X0284702Y0146272D01*
X0285186Y0145102D01*
X0285843Y0144445D01*
X0285186Y0143788D01*
X0284702Y0142618D01*
X0284702Y0141351D01*
X0285186Y0140181D01*
X0286082Y0139285D01*
X0284946Y0140760D02*
X0167405Y0140760D01*
X0166206Y0141958D02*
X0284702Y0141958D01*
X0284925Y0143157D02*
X0165008Y0143157D01*
X0168900Y0144355D02*
X0174313Y0144355D01*
X0174580Y0144089D02*
X0175895Y0143544D01*
X0177318Y0143544D01*
X0178633Y0144089D01*
X0179640Y0145095D01*
X0180184Y0146410D01*
X0180184Y0147834D01*
X0179640Y0149149D01*
X0178633Y0150155D01*
X0177318Y0150700D01*
X0175895Y0150700D01*
X0174580Y0150155D01*
X0173573Y0149149D01*
X0173028Y0147834D01*
X0173028Y0146410D01*
X0173573Y0145095D01*
X0174580Y0144089D01*
X0173383Y0145554D02*
X0169829Y0145554D01*
X0170184Y0146752D02*
X0173028Y0146752D01*
X0173077Y0147951D02*
X0170136Y0147951D01*
X0169639Y0149149D02*
X0173574Y0149149D01*
X0175045Y0150348D02*
X0168168Y0150348D01*
X0167053Y0151546D02*
X0169682Y0151546D01*
X0169580Y0151589D02*
X0170895Y0151044D01*
X0172318Y0151044D01*
X0173633Y0151589D01*
X0174640Y0152595D01*
X0175184Y0153910D01*
X0175184Y0155334D01*
X0174640Y0156649D01*
X0173633Y0157655D01*
X0172318Y0158200D01*
X0170895Y0158200D01*
X0169580Y0157655D01*
X0168573Y0156649D01*
X0168028Y0155334D01*
X0168028Y0153910D01*
X0168573Y0152595D01*
X0169580Y0151589D01*
X0168511Y0152745D02*
X0167053Y0152745D01*
X0167053Y0153943D02*
X0168028Y0153943D01*
X0168028Y0155142D02*
X0167053Y0155142D01*
X0167053Y0156340D02*
X0168445Y0156340D01*
X0169463Y0157539D02*
X0166626Y0157539D01*
X0167785Y0158737D02*
X0175428Y0158737D01*
X0175895Y0158544D02*
X0177318Y0158544D01*
X0178633Y0159089D01*
X0179640Y0160095D01*
X0180184Y0161410D01*
X0180184Y0162834D01*
X0179640Y0164149D01*
X0178633Y0165155D01*
X0177318Y0165700D01*
X0175895Y0165700D01*
X0174580Y0165155D01*
X0173573Y0164149D01*
X0173028Y0162834D01*
X0173028Y0161410D01*
X0173573Y0160095D01*
X0174580Y0159089D01*
X0175895Y0158544D01*
X0177785Y0158737D02*
X0185428Y0158737D01*
X0185895Y0158544D02*
X0187318Y0158544D01*
X0188633Y0159089D01*
X0189640Y0160095D01*
X0190184Y0161410D01*
X0190184Y0162834D01*
X0189640Y0164149D01*
X0188633Y0165155D01*
X0187318Y0165700D01*
X0185895Y0165700D01*
X0184580Y0165155D01*
X0183573Y0164149D01*
X0183028Y0162834D01*
X0183028Y0161410D01*
X0183573Y0160095D01*
X0184580Y0159089D01*
X0185895Y0158544D01*
X0187785Y0158737D02*
X0195428Y0158737D01*
X0195895Y0158544D02*
X0197318Y0158544D01*
X0198633Y0159089D01*
X0199640Y0160095D01*
X0200184Y0161410D01*
X0200184Y0162834D01*
X0199640Y0164149D01*
X0198633Y0165155D01*
X0197318Y0165700D01*
X0195895Y0165700D01*
X0194580Y0165155D01*
X0193573Y0164149D01*
X0193028Y0162834D01*
X0193028Y0161410D01*
X0193573Y0160095D01*
X0194580Y0159089D01*
X0195895Y0158544D01*
X0197785Y0158737D02*
X0205428Y0158737D01*
X0205895Y0158544D02*
X0204580Y0159089D01*
X0203573Y0160095D01*
X0203028Y0161410D01*
X0203028Y0162834D01*
X0203573Y0164149D01*
X0204580Y0165155D01*
X0205895Y0165700D01*
X0207318Y0165700D01*
X0208633Y0165155D01*
X0209640Y0164149D01*
X0210184Y0162834D01*
X0210184Y0161410D01*
X0209640Y0160095D01*
X0208633Y0159089D01*
X0207318Y0158544D01*
X0205895Y0158544D01*
X0207785Y0158737D02*
X0215428Y0158737D01*
X0215895Y0158544D02*
X0217318Y0158544D01*
X0218633Y0159089D01*
X0219640Y0160095D01*
X0220184Y0161410D01*
X0220184Y0162834D01*
X0219640Y0164149D01*
X0218633Y0165155D01*
X0217318Y0165700D01*
X0215895Y0165700D01*
X0214580Y0165155D01*
X0213573Y0164149D01*
X0213028Y0162834D01*
X0213028Y0161410D01*
X0213573Y0160095D01*
X0214580Y0159089D01*
X0215895Y0158544D01*
X0217785Y0158737D02*
X0225428Y0158737D01*
X0225895Y0158544D02*
X0227318Y0158544D01*
X0228633Y0159089D01*
X0229640Y0160095D01*
X0230184Y0161410D01*
X0230184Y0162834D01*
X0229640Y0164149D01*
X0228633Y0165155D01*
X0227318Y0165700D01*
X0225895Y0165700D01*
X0224580Y0165155D01*
X0223573Y0164149D01*
X0223028Y0162834D01*
X0223028Y0161410D01*
X0223573Y0160095D01*
X0224580Y0159089D01*
X0225895Y0158544D01*
X0227785Y0158737D02*
X0235428Y0158737D01*
X0235895Y0158544D02*
X0237318Y0158544D01*
X0238633Y0159089D01*
X0239640Y0160095D01*
X0240184Y0161410D01*
X0240184Y0162834D01*
X0239640Y0164149D01*
X0238633Y0165155D01*
X0237318Y0165700D01*
X0235895Y0165700D01*
X0234580Y0165155D01*
X0233573Y0164149D01*
X0233028Y0162834D01*
X0233028Y0161410D01*
X0233573Y0160095D01*
X0234580Y0159089D01*
X0235895Y0158544D01*
X0237785Y0158737D02*
X0245428Y0158737D01*
X0245895Y0158544D02*
X0247318Y0158544D01*
X0248633Y0159089D01*
X0249640Y0160095D01*
X0250184Y0161410D01*
X0250184Y0162834D01*
X0249640Y0164149D01*
X0248633Y0165155D01*
X0247318Y0165700D01*
X0245895Y0165700D01*
X0244580Y0165155D01*
X0243573Y0164149D01*
X0243028Y0162834D01*
X0243028Y0161410D01*
X0243573Y0160095D01*
X0244580Y0159089D01*
X0245895Y0158544D01*
X0247785Y0158737D02*
X0255428Y0158737D01*
X0255895Y0158544D02*
X0257318Y0158544D01*
X0258633Y0159089D01*
X0259640Y0160095D01*
X0260184Y0161410D01*
X0260184Y0162834D01*
X0259640Y0164149D01*
X0258633Y0165155D01*
X0257318Y0165700D01*
X0255895Y0165700D01*
X0254580Y0165155D01*
X0253573Y0164149D01*
X0253028Y0162834D01*
X0253028Y0161410D01*
X0253573Y0160095D01*
X0254580Y0159089D01*
X0255895Y0158544D01*
X0257785Y0158737D02*
X0285372Y0158737D01*
X0285157Y0159936D02*
X0259480Y0159936D01*
X0260070Y0161134D02*
X0284702Y0161134D01*
X0284714Y0162333D02*
X0260184Y0162333D01*
X0259895Y0163531D02*
X0285245Y0163531D01*
X0286954Y0164730D02*
X0259058Y0164730D01*
X0259580Y0166589D02*
X0260895Y0166044D01*
X0262318Y0166044D01*
X0263633Y0166589D01*
X0264640Y0167595D01*
X0265184Y0168910D01*
X0265184Y0170334D01*
X0264640Y0171649D01*
X0263633Y0172655D01*
X0262318Y0173200D01*
X0260895Y0173200D01*
X0259580Y0172655D01*
X0258573Y0171649D01*
X0258028Y0170334D01*
X0258028Y0168910D01*
X0258573Y0167595D01*
X0259580Y0166589D01*
X0259041Y0167127D02*
X0244171Y0167127D01*
X0244942Y0168326D02*
X0258271Y0168326D01*
X0258028Y0169524D02*
X0245184Y0169524D01*
X0245023Y0170723D02*
X0258189Y0170723D01*
X0258845Y0171921D02*
X0255764Y0171921D01*
X0257118Y0173120D02*
X0260700Y0173120D01*
X0262512Y0173120D02*
X0351657Y0173120D01*
X0351657Y0174318D02*
X0258472Y0174318D01*
X0259826Y0175517D02*
X0351657Y0175517D01*
X0351657Y0176715D02*
X0261180Y0176715D01*
X0262535Y0177914D02*
X0301910Y0177914D01*
X0302190Y0177634D02*
X0300965Y0178859D01*
X0300302Y0180460D01*
X0300302Y0182193D01*
X0300965Y0183794D01*
X0302190Y0185020D01*
X0303791Y0185683D01*
X0305524Y0185683D01*
X0307125Y0185020D01*
X0308350Y0183794D01*
X0309013Y0182193D01*
X0309013Y0180460D01*
X0308350Y0178859D01*
X0307125Y0177634D01*
X0305524Y0176971D01*
X0303791Y0176971D01*
X0302190Y0177634D01*
X0300860Y0179112D02*
X0263889Y0179112D01*
X0265243Y0180311D02*
X0300364Y0180311D01*
X0300302Y0181509D02*
X0266597Y0181509D01*
X0267951Y0182708D02*
X0300515Y0182708D01*
X0301077Y0183906D02*
X0269305Y0183906D01*
X0270659Y0185105D02*
X0302396Y0185105D01*
X0306919Y0185105D02*
X0312396Y0185105D01*
X0312190Y0185020D02*
X0310965Y0183794D01*
X0310302Y0182193D01*
X0310302Y0180460D01*
X0310965Y0178859D01*
X0312190Y0177634D01*
X0313791Y0176971D01*
X0315524Y0176971D01*
X0317125Y0177634D01*
X0318350Y0178859D01*
X0319013Y0180460D01*
X0319013Y0182193D01*
X0318350Y0183794D01*
X0317125Y0185020D01*
X0315524Y0185683D01*
X0313791Y0185683D01*
X0312190Y0185020D01*
X0311077Y0183906D02*
X0308238Y0183906D01*
X0308800Y0182708D02*
X0310515Y0182708D01*
X0310302Y0181509D02*
X0309013Y0181509D01*
X0308951Y0180311D02*
X0310364Y0180311D01*
X0310860Y0179112D02*
X0308455Y0179112D01*
X0307405Y0177914D02*
X0311910Y0177914D01*
X0317405Y0177914D02*
X0321910Y0177914D01*
X0322190Y0177634D02*
X0323791Y0176971D01*
X0325524Y0176971D01*
X0327125Y0177634D01*
X0328350Y0178859D01*
X0329013Y0180460D01*
X0329013Y0182193D01*
X0328350Y0183794D01*
X0327125Y0185020D01*
X0325524Y0185683D01*
X0323791Y0185683D01*
X0322190Y0185020D01*
X0320965Y0183794D01*
X0320302Y0182193D01*
X0320302Y0180460D01*
X0320965Y0178859D01*
X0322190Y0177634D01*
X0320860Y0179112D02*
X0318455Y0179112D01*
X0318951Y0180311D02*
X0320364Y0180311D01*
X0320302Y0181509D02*
X0319013Y0181509D01*
X0318800Y0182708D02*
X0320515Y0182708D01*
X0321077Y0183906D02*
X0318238Y0183906D01*
X0316919Y0185105D02*
X0322396Y0185105D01*
X0326919Y0185105D02*
X0332396Y0185105D01*
X0332190Y0185020D02*
X0330965Y0183794D01*
X0330302Y0182193D01*
X0330302Y0180460D01*
X0330965Y0178859D01*
X0332190Y0177634D01*
X0333791Y0176971D01*
X0335524Y0176971D01*
X0337125Y0177634D01*
X0338350Y0178859D01*
X0339013Y0180460D01*
X0339013Y0182193D01*
X0338350Y0183794D01*
X0337125Y0185020D01*
X0335524Y0185683D01*
X0333791Y0185683D01*
X0332190Y0185020D01*
X0331077Y0183906D02*
X0328238Y0183906D01*
X0328800Y0182708D02*
X0330515Y0182708D01*
X0330302Y0181509D02*
X0329013Y0181509D01*
X0328951Y0180311D02*
X0330364Y0180311D01*
X0330860Y0179112D02*
X0328455Y0179112D01*
X0327405Y0177914D02*
X0331910Y0177914D01*
X0337405Y0177914D02*
X0351657Y0177914D01*
X0351657Y0179112D02*
X0338455Y0179112D01*
X0338951Y0180311D02*
X0351657Y0180311D01*
X0351657Y0181509D02*
X0339013Y0181509D01*
X0338800Y0182708D02*
X0351657Y0182708D01*
X0351657Y0183906D02*
X0338238Y0183906D01*
X0336919Y0185105D02*
X0351657Y0185105D01*
X0351657Y0186303D02*
X0272013Y0186303D01*
X0273367Y0187502D02*
X0351657Y0187502D01*
X0351657Y0188700D02*
X0274722Y0188700D01*
X0276076Y0189899D02*
X0351657Y0189899D01*
X0351657Y0191097D02*
X0277430Y0191097D01*
X0278784Y0192296D02*
X0351657Y0192296D01*
X0351657Y0193494D02*
X0280138Y0193494D01*
X0281492Y0194693D02*
X0351657Y0194693D01*
X0351657Y0195891D02*
X0282846Y0195891D01*
X0284200Y0197090D02*
X0351657Y0197090D01*
X0351657Y0198288D02*
X0285554Y0198288D01*
X0286908Y0199487D02*
X0351657Y0199487D01*
X0351657Y0200685D02*
X0288263Y0200685D01*
X0289617Y0201884D02*
X0351657Y0201884D01*
X0351657Y0203082D02*
X0290971Y0203082D01*
X0292325Y0204281D02*
X0351657Y0204281D01*
X0351657Y0205479D02*
X0293679Y0205479D01*
X0295033Y0206678D02*
X0351657Y0206678D01*
X0351657Y0207876D02*
X0296387Y0207876D01*
X0297741Y0209075D02*
X0351657Y0209075D01*
X0351657Y0210273D02*
X0299095Y0210273D01*
X0300450Y0211472D02*
X0351657Y0211472D01*
X0351657Y0212670D02*
X0301804Y0212670D01*
X0303158Y0213869D02*
X0351657Y0213869D01*
X0351657Y0215067D02*
X0304512Y0215067D01*
X0305866Y0216266D02*
X0351657Y0216266D01*
X0351657Y0217465D02*
X0307220Y0217465D01*
X0308574Y0218663D02*
X0351657Y0218663D01*
X0351657Y0219862D02*
X0309928Y0219862D01*
X0311282Y0221060D02*
X0351657Y0221060D01*
X0351657Y0222259D02*
X0317432Y0222259D01*
X0318472Y0223457D02*
X0351657Y0223457D01*
X0351657Y0224656D02*
X0318935Y0224656D01*
X0318935Y0225854D02*
X0351657Y0225854D01*
X0351657Y0227053D02*
X0318532Y0227053D01*
X0319407Y0228251D02*
X0351657Y0228251D01*
X0351657Y0229450D02*
X0320761Y0229450D01*
X0322115Y0230648D02*
X0351657Y0230648D01*
X0351657Y0231847D02*
X0323469Y0231847D01*
X0324823Y0233045D02*
X0351657Y0233045D01*
X0351657Y0234244D02*
X0325280Y0234244D01*
X0325280Y0235442D02*
X0351657Y0235442D01*
X0351657Y0236641D02*
X0325280Y0236641D01*
X0325280Y0237839D02*
X0351657Y0237839D01*
X0351657Y0239038D02*
X0325280Y0239038D01*
X0325280Y0240236D02*
X0351657Y0240236D01*
X0351657Y0241435D02*
X0325280Y0241435D01*
X0325280Y0242633D02*
X0351657Y0242633D01*
X0351657Y0243832D02*
X0325280Y0243832D01*
X0325280Y0245030D02*
X0351657Y0245030D01*
X0351657Y0246229D02*
X0325280Y0246229D01*
X0325280Y0247427D02*
X0351657Y0247427D01*
X0351657Y0248626D02*
X0325280Y0248626D01*
X0325280Y0249824D02*
X0351657Y0249824D01*
X0351657Y0251023D02*
X0325280Y0251023D01*
X0325280Y0252221D02*
X0351657Y0252221D01*
X0351657Y0253420D02*
X0325280Y0253420D01*
X0325280Y0254618D02*
X0351657Y0254618D01*
X0351657Y0255817D02*
X0325280Y0255817D01*
X0325280Y0257015D02*
X0351657Y0257015D01*
X0351657Y0258214D02*
X0325280Y0258214D01*
X0325280Y0259412D02*
X0351657Y0259412D01*
X0351657Y0260611D02*
X0325280Y0260611D01*
X0325280Y0261809D02*
X0351657Y0261809D01*
X0351657Y0263008D02*
X0325280Y0263008D01*
X0325280Y0264206D02*
X0329213Y0264206D01*
X0329629Y0263791D02*
X0330945Y0263246D01*
X0332370Y0263246D01*
X0333686Y0263791D01*
X0334693Y0264798D01*
X0335239Y0266114D01*
X0335239Y0267539D01*
X0334693Y0268855D01*
X0333686Y0269863D01*
X0332370Y0270408D01*
X0330945Y0270408D01*
X0329629Y0269863D01*
X0328622Y0268855D01*
X0328076Y0267539D01*
X0328076Y0266114D01*
X0328622Y0264798D01*
X0329629Y0263791D01*
X0328370Y0265405D02*
X0325280Y0265405D01*
X0325280Y0266603D02*
X0328076Y0266603D01*
X0328185Y0267802D02*
X0325280Y0267802D01*
X0325280Y0269000D02*
X0328767Y0269000D01*
X0330441Y0270199D02*
X0325280Y0270199D01*
X0325280Y0271398D02*
X0351657Y0271398D01*
X0351657Y0272596D02*
X0325280Y0272596D01*
X0325280Y0273795D02*
X0351657Y0273795D01*
X0351657Y0274993D02*
X0325280Y0274993D01*
X0325280Y0276192D02*
X0351657Y0276192D01*
X0351657Y0277390D02*
X0325280Y0277390D01*
X0325280Y0278589D02*
X0351657Y0278589D01*
X0351657Y0279787D02*
X0325280Y0279787D01*
X0325280Y0280986D02*
X0351657Y0280986D01*
X0351657Y0282184D02*
X0325280Y0282184D01*
X0325280Y0283383D02*
X0351657Y0283383D01*
X0351657Y0284581D02*
X0325280Y0284581D01*
X0325280Y0285780D02*
X0351657Y0285780D01*
X0351657Y0286978D02*
X0325280Y0286978D01*
X0325280Y0288177D02*
X0351657Y0288177D01*
X0351657Y0289375D02*
X0325280Y0289375D01*
X0325280Y0290574D02*
X0351657Y0290574D01*
X0351657Y0291772D02*
X0325280Y0291772D01*
X0325280Y0292971D02*
X0351657Y0292971D01*
X0351657Y0294169D02*
X0325280Y0294169D01*
X0325280Y0295368D02*
X0351657Y0295368D01*
X0351657Y0296566D02*
X0325280Y0296566D01*
X0325280Y0297765D02*
X0351657Y0297765D01*
X0351657Y0298963D02*
X0325280Y0298963D01*
X0325280Y0300162D02*
X0351657Y0300162D01*
X0351657Y0301360D02*
X0325280Y0301360D01*
X0325280Y0302559D02*
X0351657Y0302559D01*
X0351657Y0303757D02*
X0325280Y0303757D01*
X0325280Y0304956D02*
X0351657Y0304956D01*
X0351657Y0306154D02*
X0325280Y0306154D01*
X0325280Y0307353D02*
X0351657Y0307353D01*
X0351657Y0308551D02*
X0325280Y0308551D01*
X0325280Y0309750D02*
X0332170Y0309750D01*
X0332629Y0309291D02*
X0333945Y0308746D01*
X0335370Y0308746D01*
X0336686Y0309291D01*
X0337693Y0310298D01*
X0338239Y0311614D01*
X0338239Y0313039D01*
X0337693Y0314355D01*
X0336686Y0315363D01*
X0335370Y0315908D01*
X0333945Y0315908D01*
X0332629Y0315363D01*
X0331622Y0314355D01*
X0331076Y0313039D01*
X0331076Y0311614D01*
X0331622Y0310298D01*
X0332629Y0309291D01*
X0331352Y0310948D02*
X0325280Y0310948D01*
X0325280Y0312147D02*
X0331076Y0312147D01*
X0331203Y0313345D02*
X0325280Y0313345D01*
X0325280Y0314544D02*
X0331810Y0314544D01*
X0333546Y0315742D02*
X0325280Y0315742D01*
X0325280Y0316941D02*
X0351657Y0316941D01*
X0351657Y0318139D02*
X0325280Y0318139D01*
X0325280Y0319338D02*
X0351657Y0319338D01*
X0351657Y0320536D02*
X0325280Y0320536D01*
X0325280Y0321735D02*
X0332185Y0321735D01*
X0332629Y0321291D02*
X0333945Y0320746D01*
X0335370Y0320746D01*
X0336686Y0321291D01*
X0337693Y0322298D01*
X0338239Y0323614D01*
X0338239Y0325039D01*
X0337693Y0326355D01*
X0336686Y0327363D01*
X0335370Y0327908D01*
X0333945Y0327908D01*
X0332629Y0327363D01*
X0331622Y0326355D01*
X0331076Y0325039D01*
X0331076Y0323614D01*
X0331622Y0322298D01*
X0332629Y0321291D01*
X0331358Y0322934D02*
X0325280Y0322934D01*
X0325280Y0324132D02*
X0331076Y0324132D01*
X0331197Y0325331D02*
X0325280Y0325331D01*
X0325280Y0326529D02*
X0331795Y0326529D01*
X0333510Y0327728D02*
X0325280Y0327728D01*
X0325280Y0328926D02*
X0351657Y0328926D01*
X0351657Y0327728D02*
X0335805Y0327728D01*
X0337520Y0326529D02*
X0351657Y0326529D01*
X0351657Y0325331D02*
X0338118Y0325331D01*
X0338239Y0324132D02*
X0351657Y0324132D01*
X0351657Y0322934D02*
X0337957Y0322934D01*
X0337130Y0321735D02*
X0351657Y0321735D01*
X0351657Y0315742D02*
X0335769Y0315742D01*
X0337505Y0314544D02*
X0351657Y0314544D01*
X0351657Y0313345D02*
X0338112Y0313345D01*
X0338239Y0312147D02*
X0351657Y0312147D01*
X0351657Y0310948D02*
X0337963Y0310948D01*
X0337145Y0309750D02*
X0351657Y0309750D01*
X0351657Y0330125D02*
X0325280Y0330125D01*
X0325280Y0331323D02*
X0351657Y0331323D01*
X0351657Y0332522D02*
X0325280Y0332522D01*
X0325280Y0333720D02*
X0351657Y0333720D01*
X0351657Y0334919D02*
X0325280Y0334919D01*
X0325280Y0336117D02*
X0351657Y0336117D01*
X0351657Y0337316D02*
X0325280Y0337316D01*
X0322031Y0337316D02*
X0102657Y0337316D01*
X0102657Y0338132D02*
X0322031Y0338132D01*
X0322031Y0234701D01*
X0315734Y0229105D01*
X0314406Y0229105D01*
X0313017Y0228530D01*
X0311955Y0227467D01*
X0311380Y0226078D01*
X0311380Y0225235D01*
X0254657Y0174827D01*
X0155838Y0174827D01*
X0143553Y0187112D01*
X0143553Y0247655D01*
X0148105Y0249931D01*
X0148443Y0249931D01*
X0148780Y0250269D01*
X0149207Y0250483D01*
X0149314Y0250803D01*
X0149553Y0251042D01*
X0149553Y0251519D01*
X0149704Y0251972D01*
X0149553Y0252274D01*
X0149553Y0253214D01*
X0150360Y0254021D01*
X0150845Y0255193D01*
X0150845Y0256461D01*
X0150360Y0257632D01*
X0149665Y0258327D01*
X0150360Y0259021D01*
X0150845Y0260193D01*
X0150845Y0261461D01*
X0150360Y0262632D01*
X0149463Y0263529D01*
X0148291Y0264014D01*
X0147023Y0264014D01*
X0145852Y0263529D01*
X0145045Y0262722D01*
X0139872Y0262722D01*
X0138762Y0261612D01*
X0135262Y0258112D01*
X0135262Y0180042D01*
X0136372Y0178931D01*
X0140477Y0174827D01*
X0127657Y0174827D01*
X0127657Y0219827D01*
X0102657Y0219827D01*
X0102657Y0338132D01*
X0102657Y0336117D02*
X0282440Y0336117D01*
X0282852Y0336529D02*
X0281955Y0335632D01*
X0281470Y0334461D01*
X0281470Y0333193D01*
X0281955Y0332021D01*
X0282852Y0331125D01*
X0284023Y0330639D01*
X0285291Y0330639D01*
X0286463Y0331125D01*
X0287360Y0332021D01*
X0287845Y0333193D01*
X0287845Y0334461D01*
X0287360Y0335632D01*
X0286463Y0336529D01*
X0285291Y0337014D01*
X0284023Y0337014D01*
X0282852Y0336529D01*
X0281660Y0334919D02*
X0109073Y0334919D01*
X0109360Y0334632D02*
X0108463Y0335529D01*
X0107291Y0336014D01*
X0106023Y0336014D01*
X0104852Y0335529D01*
X0103955Y0334632D01*
X0103470Y0333461D01*
X0103470Y0332193D01*
X0103955Y0331021D01*
X0104852Y0330125D01*
X0106023Y0329639D01*
X0107291Y0329639D01*
X0108463Y0330125D01*
X0109360Y0331021D01*
X0109845Y0332193D01*
X0109845Y0333461D01*
X0109360Y0334632D01*
X0109737Y0333720D02*
X0281470Y0333720D01*
X0281748Y0332522D02*
X0132027Y0332522D01*
X0131686Y0332863D02*
X0130370Y0333408D01*
X0128945Y0333408D01*
X0127629Y0332863D01*
X0126622Y0331855D01*
X0126076Y0330539D01*
X0126076Y0329114D01*
X0126622Y0327798D01*
X0127629Y0326791D01*
X0128945Y0326246D01*
X0130370Y0326246D01*
X0131686Y0326791D01*
X0132693Y0327798D01*
X0133239Y0329114D01*
X0133239Y0330539D01*
X0132693Y0331855D01*
X0131686Y0332863D01*
X0132914Y0331323D02*
X0256589Y0331323D01*
X0256629Y0331363D02*
X0255622Y0330355D01*
X0255076Y0329039D01*
X0255076Y0327614D01*
X0255622Y0326298D01*
X0256629Y0325291D01*
X0257945Y0324746D01*
X0259370Y0324746D01*
X0260686Y0325291D01*
X0261693Y0326298D01*
X0262239Y0327614D01*
X0262239Y0329039D01*
X0261693Y0330355D01*
X0260686Y0331363D01*
X0259370Y0331908D01*
X0257945Y0331908D01*
X0256629Y0331363D01*
X0255526Y0330125D02*
X0133239Y0330125D01*
X0133161Y0328926D02*
X0239311Y0328926D01*
X0239523Y0329014D02*
X0238352Y0328529D01*
X0237455Y0327632D01*
X0236970Y0326461D01*
X0236970Y0325193D01*
X0237455Y0324021D01*
X0238352Y0323125D01*
X0238773Y0322950D01*
X0238455Y0322632D01*
X0237970Y0321461D01*
X0237970Y0320193D01*
X0238455Y0319021D01*
X0239352Y0318125D01*
X0240523Y0317639D01*
X0241791Y0317639D01*
X0242963Y0318125D01*
X0243860Y0319021D01*
X0244345Y0320193D01*
X0244345Y0321461D01*
X0243860Y0322632D01*
X0242963Y0323529D01*
X0242542Y0323703D01*
X0242860Y0324021D01*
X0243345Y0325193D01*
X0243345Y0326461D01*
X0242860Y0327632D01*
X0241963Y0328529D01*
X0240791Y0329014D01*
X0239523Y0329014D01*
X0241004Y0328926D02*
X0255076Y0328926D01*
X0255076Y0327728D02*
X0242764Y0327728D01*
X0243317Y0326529D02*
X0255526Y0326529D01*
X0256589Y0325331D02*
X0243345Y0325331D01*
X0242905Y0324132D02*
X0305115Y0324132D01*
X0305076Y0324039D02*
X0305076Y0322614D01*
X0305622Y0321298D01*
X0306629Y0320291D01*
X0307945Y0319746D01*
X0309370Y0319746D01*
X0310686Y0320291D01*
X0311693Y0321298D01*
X0312239Y0322614D01*
X0312239Y0324039D01*
X0311693Y0325355D01*
X0310686Y0326363D01*
X0309370Y0326908D01*
X0307945Y0326908D01*
X0306629Y0326363D01*
X0305622Y0325355D01*
X0305076Y0324039D01*
X0305076Y0322934D02*
X0243558Y0322934D01*
X0244231Y0321735D02*
X0305441Y0321735D01*
X0306383Y0320536D02*
X0244345Y0320536D01*
X0243991Y0319338D02*
X0322031Y0319338D01*
X0322031Y0320536D02*
X0310932Y0320536D01*
X0311874Y0321735D02*
X0322031Y0321735D01*
X0322031Y0322934D02*
X0312239Y0322934D01*
X0312200Y0324132D02*
X0322031Y0324132D01*
X0322031Y0325331D02*
X0311704Y0325331D01*
X0310284Y0326529D02*
X0322031Y0326529D01*
X0322031Y0327728D02*
X0262239Y0327728D01*
X0262239Y0328926D02*
X0322031Y0328926D01*
X0322031Y0330125D02*
X0261789Y0330125D01*
X0260726Y0331323D02*
X0282653Y0331323D01*
X0286661Y0331323D02*
X0322031Y0331323D01*
X0322031Y0332522D02*
X0287567Y0332522D01*
X0287845Y0333720D02*
X0322031Y0333720D01*
X0322031Y0334919D02*
X0287655Y0334919D01*
X0286875Y0336117D02*
X0322031Y0336117D01*
X0307031Y0326529D02*
X0261789Y0326529D01*
X0260726Y0325331D02*
X0305611Y0325331D01*
X0307945Y0317408D02*
X0306629Y0316863D01*
X0305622Y0315855D01*
X0305076Y0314539D01*
X0305076Y0313114D01*
X0305622Y0311798D01*
X0306629Y0310791D01*
X0307945Y0310246D01*
X0309370Y0310246D01*
X0310686Y0310791D01*
X0311693Y0311798D01*
X0312239Y0313114D01*
X0312239Y0314539D01*
X0311693Y0315855D01*
X0310686Y0316863D01*
X0309370Y0317408D01*
X0307945Y0317408D01*
X0306818Y0316941D02*
X0102657Y0316941D01*
X0102657Y0318139D02*
X0239337Y0318139D01*
X0238324Y0319338D02*
X0102657Y0319338D01*
X0102657Y0320536D02*
X0237970Y0320536D01*
X0238084Y0321735D02*
X0102657Y0321735D01*
X0102657Y0322934D02*
X0238757Y0322934D01*
X0237409Y0324132D02*
X0102657Y0324132D01*
X0102657Y0325331D02*
X0236970Y0325331D01*
X0236998Y0326529D02*
X0131054Y0326529D01*
X0132623Y0327728D02*
X0237551Y0327728D01*
X0242978Y0318139D02*
X0322031Y0318139D01*
X0322031Y0316941D02*
X0310497Y0316941D01*
X0311740Y0315742D02*
X0322031Y0315742D01*
X0322031Y0314544D02*
X0312237Y0314544D01*
X0312239Y0313345D02*
X0322031Y0313345D01*
X0322031Y0312147D02*
X0311838Y0312147D01*
X0310844Y0310948D02*
X0322031Y0310948D01*
X0322031Y0309750D02*
X0265661Y0309750D01*
X0265845Y0310193D02*
X0265360Y0309021D01*
X0264463Y0308125D01*
X0263291Y0307639D01*
X0262023Y0307639D01*
X0260852Y0308125D01*
X0259955Y0309021D01*
X0259470Y0310193D01*
X0259470Y0311461D01*
X0259955Y0312632D01*
X0260852Y0313529D01*
X0262023Y0314014D01*
X0263291Y0314014D01*
X0264463Y0313529D01*
X0265360Y0312632D01*
X0265845Y0311461D01*
X0265845Y0310193D01*
X0265845Y0310948D02*
X0306471Y0310948D01*
X0305477Y0312147D02*
X0265561Y0312147D01*
X0264646Y0313345D02*
X0305076Y0313345D01*
X0305078Y0314544D02*
X0102657Y0314544D01*
X0102657Y0315742D02*
X0305575Y0315742D01*
X0322031Y0308551D02*
X0264890Y0308551D01*
X0260425Y0308551D02*
X0204409Y0308551D01*
X0204463Y0308529D02*
X0203291Y0309014D01*
X0202023Y0309014D01*
X0200852Y0308529D01*
X0199955Y0307632D01*
X0199470Y0306461D01*
X0199470Y0305193D01*
X0199955Y0304021D01*
X0200852Y0303125D01*
X0202023Y0302639D01*
X0203291Y0302639D01*
X0204463Y0303125D01*
X0205360Y0304021D01*
X0205845Y0305193D01*
X0205845Y0306461D01*
X0205360Y0307632D01*
X0204463Y0308529D01*
X0205475Y0307353D02*
X0322031Y0307353D01*
X0322031Y0306154D02*
X0205845Y0306154D01*
X0205747Y0304956D02*
X0233883Y0304956D01*
X0234023Y0305014D02*
X0232852Y0304529D01*
X0231955Y0303632D01*
X0231470Y0302461D01*
X0231470Y0301193D01*
X0231955Y0300021D01*
X0232852Y0299125D01*
X0234023Y0298639D01*
X0235291Y0298639D01*
X0235470Y0298713D01*
X0235470Y0298193D01*
X0235955Y0297021D01*
X0236852Y0296125D01*
X0238023Y0295639D01*
X0239291Y0295639D01*
X0240463Y0296125D01*
X0241360Y0297021D01*
X0241845Y0298193D01*
X0241845Y0299461D01*
X0241360Y0300632D01*
X0240463Y0301529D01*
X0239291Y0302014D01*
X0238023Y0302014D01*
X0237845Y0301940D01*
X0237845Y0302461D01*
X0237360Y0303632D01*
X0236463Y0304529D01*
X0235291Y0305014D01*
X0234023Y0305014D01*
X0235432Y0304956D02*
X0275279Y0304956D01*
X0275352Y0305029D02*
X0274455Y0304132D01*
X0273970Y0302961D01*
X0273970Y0301693D01*
X0274455Y0300521D01*
X0275352Y0299625D01*
X0276523Y0299139D01*
X0277791Y0299139D01*
X0278963Y0299625D01*
X0279860Y0300521D01*
X0280345Y0301693D01*
X0280345Y0302961D01*
X0279860Y0304132D01*
X0278963Y0305029D01*
X0277791Y0305514D01*
X0276523Y0305514D01*
X0275352Y0305029D01*
X0274300Y0303757D02*
X0237235Y0303757D01*
X0237804Y0302559D02*
X0273970Y0302559D01*
X0274108Y0301360D02*
X0240632Y0301360D01*
X0241555Y0300162D02*
X0274815Y0300162D01*
X0279500Y0300162D02*
X0322031Y0300162D01*
X0322031Y0301360D02*
X0280207Y0301360D01*
X0280345Y0302559D02*
X0322031Y0302559D01*
X0322031Y0303757D02*
X0280015Y0303757D01*
X0279036Y0304956D02*
X0322031Y0304956D01*
X0322031Y0298963D02*
X0241845Y0298963D01*
X0241668Y0297765D02*
X0322031Y0297765D01*
X0322031Y0296566D02*
X0240905Y0296566D01*
X0240463Y0295029D02*
X0239291Y0295514D01*
X0238023Y0295514D01*
X0236852Y0295029D01*
X0235955Y0294132D01*
X0235781Y0293711D01*
X0235463Y0294029D01*
X0234291Y0294514D01*
X0233023Y0294514D01*
X0231852Y0294029D01*
X0230955Y0293132D01*
X0230470Y0291961D01*
X0230470Y0290693D01*
X0230955Y0289521D01*
X0231852Y0288625D01*
X0233023Y0288139D01*
X0234291Y0288139D01*
X0235463Y0288625D01*
X0236360Y0289521D01*
X0236534Y0289942D01*
X0236852Y0289625D01*
X0238023Y0289139D01*
X0239291Y0289139D01*
X0240463Y0289625D01*
X0241360Y0290521D01*
X0241845Y0291693D01*
X0241845Y0292961D01*
X0241360Y0294132D01*
X0240463Y0295029D01*
X0239645Y0295368D02*
X0322031Y0295368D01*
X0322031Y0294169D02*
X0241323Y0294169D01*
X0241841Y0292971D02*
X0322031Y0292971D01*
X0322031Y0291772D02*
X0241845Y0291772D01*
X0241381Y0290574D02*
X0322031Y0290574D01*
X0322031Y0289375D02*
X0239861Y0289375D01*
X0237454Y0289375D02*
X0236214Y0289375D01*
X0234382Y0288177D02*
X0322031Y0288177D01*
X0322031Y0286978D02*
X0219014Y0286978D01*
X0219360Y0286632D02*
X0218463Y0287529D01*
X0217291Y0288014D01*
X0216023Y0288014D01*
X0214852Y0287529D01*
X0213955Y0286632D01*
X0213470Y0285461D01*
X0213470Y0284193D01*
X0213955Y0283021D01*
X0214852Y0282125D01*
X0216023Y0281639D01*
X0217291Y0281639D01*
X0218463Y0282125D01*
X0219360Y0283021D01*
X0219845Y0284193D01*
X0219845Y0285461D01*
X0219360Y0286632D01*
X0219713Y0285780D02*
X0322031Y0285780D01*
X0322031Y0284581D02*
X0219845Y0284581D01*
X0219509Y0283383D02*
X0322031Y0283383D01*
X0322031Y0282184D02*
X0218522Y0282184D01*
X0214792Y0282184D02*
X0102657Y0282184D01*
X0102657Y0280986D02*
X0322031Y0280986D01*
X0322031Y0279787D02*
X0102657Y0279787D01*
X0102657Y0278589D02*
X0322031Y0278589D01*
X0322031Y0277390D02*
X0102657Y0277390D01*
X0102657Y0276192D02*
X0322031Y0276192D01*
X0322031Y0274993D02*
X0102657Y0274993D01*
X0102657Y0273795D02*
X0322031Y0273795D01*
X0322031Y0272596D02*
X0102657Y0272596D01*
X0102657Y0271398D02*
X0322031Y0271398D01*
X0322031Y0270199D02*
X0303874Y0270199D01*
X0303370Y0270408D02*
X0301945Y0270408D01*
X0300629Y0269863D01*
X0299622Y0268855D01*
X0299076Y0267539D01*
X0299076Y0266114D01*
X0299622Y0264798D01*
X0300629Y0263791D01*
X0301945Y0263246D01*
X0303370Y0263246D01*
X0304686Y0263791D01*
X0305693Y0264798D01*
X0306239Y0266114D01*
X0306239Y0267539D01*
X0305693Y0268855D01*
X0304686Y0269863D01*
X0303370Y0270408D01*
X0301441Y0270199D02*
X0218052Y0270199D01*
X0218463Y0270029D02*
X0217291Y0270514D01*
X0216023Y0270514D01*
X0214852Y0270029D01*
X0213955Y0269132D01*
X0213470Y0267961D01*
X0213470Y0266693D01*
X0213955Y0265521D01*
X0214852Y0264625D01*
X0216023Y0264139D01*
X0217291Y0264139D01*
X0218463Y0264625D01*
X0219360Y0265521D01*
X0219845Y0266693D01*
X0219845Y0267961D01*
X0219360Y0269132D01*
X0218463Y0270029D01*
X0219414Y0269000D02*
X0299767Y0269000D01*
X0299185Y0267802D02*
X0219845Y0267802D01*
X0219808Y0266603D02*
X0299076Y0266603D01*
X0299370Y0265405D02*
X0219243Y0265405D01*
X0217453Y0264206D02*
X0300213Y0264206D01*
X0305102Y0264206D02*
X0322031Y0264206D01*
X0322031Y0263008D02*
X0187712Y0263008D01*
X0188010Y0262710D02*
X0185226Y0265495D01*
X0181587Y0267002D01*
X0177649Y0267002D01*
X0174011Y0265495D01*
X0171226Y0262710D01*
X0169719Y0259071D01*
X0169719Y0255133D01*
X0171226Y0251495D01*
X0174011Y0248710D01*
X0177649Y0247203D01*
X0181587Y0247203D01*
X0185226Y0248710D01*
X0188010Y0251495D01*
X0189517Y0255133D01*
X0189517Y0259071D01*
X0188010Y0262710D01*
X0188383Y0261809D02*
X0322031Y0261809D01*
X0322031Y0260611D02*
X0188880Y0260611D01*
X0189376Y0259412D02*
X0322031Y0259412D01*
X0322031Y0258214D02*
X0189517Y0258214D01*
X0189517Y0257015D02*
X0322031Y0257015D01*
X0322031Y0255817D02*
X0189517Y0255817D01*
X0189304Y0254618D02*
X0322031Y0254618D01*
X0322031Y0253420D02*
X0188808Y0253420D01*
X0188311Y0252221D02*
X0322031Y0252221D01*
X0322031Y0251023D02*
X0187538Y0251023D01*
X0187926Y0249635D02*
X0187086Y0248795D01*
X0186631Y0247697D01*
X0186631Y0246508D01*
X0187086Y0245410D01*
X0187926Y0244570D01*
X0189024Y0244115D01*
X0190212Y0244115D01*
X0191310Y0244570D01*
X0192151Y0245410D01*
X0192605Y0246508D01*
X0192605Y0247697D01*
X0192151Y0248795D01*
X0191310Y0249635D01*
X0190212Y0250090D01*
X0189024Y0250090D01*
X0187926Y0249635D01*
X0188383Y0249824D02*
X0186340Y0249824D01*
X0187016Y0248626D02*
X0185022Y0248626D01*
X0186631Y0247427D02*
X0182128Y0247427D01*
X0186746Y0246229D02*
X0172490Y0246229D01*
X0172605Y0246508D02*
X0172151Y0245410D01*
X0171310Y0244570D01*
X0170212Y0244115D01*
X0169024Y0244115D01*
X0167926Y0244570D01*
X0167086Y0245410D01*
X0166631Y0246508D01*
X0166631Y0247697D01*
X0167086Y0248795D01*
X0167926Y0249635D01*
X0169024Y0250090D01*
X0170212Y0250090D01*
X0171310Y0249635D01*
X0172151Y0248795D01*
X0172605Y0247697D01*
X0172605Y0246508D01*
X0172605Y0247427D02*
X0177108Y0247427D01*
X0174214Y0248626D02*
X0172221Y0248626D01*
X0172897Y0249824D02*
X0170853Y0249824D01*
X0171698Y0251023D02*
X0149534Y0251023D01*
X0149579Y0252221D02*
X0170925Y0252221D01*
X0170429Y0253420D02*
X0149758Y0253420D01*
X0150607Y0254618D02*
X0169932Y0254618D01*
X0169719Y0255817D02*
X0150845Y0255817D01*
X0150615Y0257015D02*
X0169719Y0257015D01*
X0169719Y0258214D02*
X0149778Y0258214D01*
X0150522Y0259412D02*
X0169860Y0259412D01*
X0170357Y0260611D02*
X0150845Y0260611D01*
X0150700Y0261809D02*
X0170853Y0261809D01*
X0171524Y0263008D02*
X0149984Y0263008D01*
X0145331Y0263008D02*
X0102657Y0263008D01*
X0102657Y0264206D02*
X0168803Y0264206D01*
X0169024Y0264115D02*
X0170212Y0264115D01*
X0171310Y0264570D01*
X0172151Y0265410D01*
X0172605Y0266508D01*
X0172605Y0267697D01*
X0172151Y0268795D01*
X0171310Y0269635D01*
X0170212Y0270090D01*
X0169024Y0270090D01*
X0167926Y0269635D01*
X0167086Y0268795D01*
X0166631Y0267697D01*
X0166631Y0266508D01*
X0167086Y0265410D01*
X0167926Y0264570D01*
X0169024Y0264115D01*
X0170433Y0264206D02*
X0172723Y0264206D01*
X0172146Y0265405D02*
X0173921Y0265405D01*
X0172605Y0266603D02*
X0176688Y0266603D01*
X0172562Y0267802D02*
X0186674Y0267802D01*
X0186631Y0267697D02*
X0186631Y0266508D01*
X0187086Y0265410D01*
X0187926Y0264570D01*
X0189024Y0264115D01*
X0190212Y0264115D01*
X0191310Y0264570D01*
X0192151Y0265410D01*
X0192605Y0266508D01*
X0192605Y0267697D01*
X0192151Y0268795D01*
X0191310Y0269635D01*
X0190212Y0270090D01*
X0189024Y0270090D01*
X0187926Y0269635D01*
X0187086Y0268795D01*
X0186631Y0267697D01*
X0186631Y0266603D02*
X0182548Y0266603D01*
X0185315Y0265405D02*
X0187091Y0265405D01*
X0186514Y0264206D02*
X0188803Y0264206D01*
X0190433Y0264206D02*
X0215862Y0264206D01*
X0214072Y0265405D02*
X0192146Y0265405D01*
X0192605Y0266603D02*
X0213507Y0266603D01*
X0213470Y0267802D02*
X0192562Y0267802D01*
X0191945Y0269000D02*
X0213901Y0269000D01*
X0215263Y0270199D02*
X0102657Y0270199D01*
X0102657Y0269000D02*
X0167291Y0269000D01*
X0166674Y0267802D02*
X0102657Y0267802D01*
X0102657Y0266603D02*
X0166631Y0266603D01*
X0167091Y0265405D02*
X0102657Y0265405D01*
X0099657Y0265405D02*
X0086816Y0265405D01*
X0086798Y0265423D02*
X0085409Y0265998D01*
X0083906Y0265998D01*
X0082517Y0265423D01*
X0081455Y0264361D01*
X0080880Y0262972D01*
X0080880Y0261469D01*
X0081455Y0260080D01*
X0082517Y0259018D01*
X0083906Y0258443D01*
X0085409Y0258443D01*
X0086798Y0259018D01*
X0087860Y0260080D01*
X0088435Y0261469D01*
X0088435Y0262972D01*
X0087860Y0264361D01*
X0086798Y0265423D01*
X0087924Y0264206D02*
X0099657Y0264206D01*
X0099657Y0263008D02*
X0088421Y0263008D01*
X0088435Y0261809D02*
X0099657Y0261809D01*
X0099657Y0260611D02*
X0088080Y0260611D01*
X0087192Y0259412D02*
X0099657Y0259412D01*
X0099657Y0258214D02*
X0042657Y0258214D01*
X0042657Y0259051D02*
X0043120Y0260169D01*
X0043120Y0261437D01*
X0042657Y0262555D01*
X0042657Y0265351D01*
X0043120Y0266468D01*
X0043120Y0267736D01*
X0042657Y0268854D01*
X0042657Y0276233D01*
X0043081Y0277256D01*
X0043081Y0278524D01*
X0042657Y0279546D01*
X0042657Y0282532D01*
X0043081Y0283555D01*
X0043081Y0284823D01*
X0042657Y0285846D01*
X0042657Y0292611D01*
X0043081Y0293634D01*
X0043081Y0294902D01*
X0042657Y0295924D01*
X0042657Y0338132D01*
X0099657Y0338132D01*
X0099657Y0217220D01*
X0124539Y0217220D01*
X0124736Y0212024D01*
X0124736Y0174819D01*
X0099665Y0174819D01*
X0099657Y0174827D01*
X0053625Y0174827D01*
X0053360Y0175467D01*
X0052298Y0176530D01*
X0050909Y0177105D01*
X0049406Y0177105D01*
X0048017Y0176530D01*
X0046955Y0175467D01*
X0046690Y0174827D01*
X0042657Y0174827D01*
X0042657Y0200484D01*
X0043017Y0200124D01*
X0044406Y0199549D01*
X0045909Y0199549D01*
X0047298Y0200124D01*
X0048360Y0201187D01*
X0048935Y0202575D01*
X0048935Y0204078D01*
X0048360Y0205467D01*
X0047298Y0206530D01*
X0045909Y0207105D01*
X0044406Y0207105D01*
X0043017Y0206530D01*
X0042657Y0206170D01*
X0042657Y0225004D01*
X0042675Y0225021D01*
X0043160Y0226193D01*
X0043160Y0227461D01*
X0042675Y0228632D01*
X0042657Y0228649D01*
X0042657Y0231303D01*
X0042675Y0231320D01*
X0043160Y0232492D01*
X0043160Y0233760D01*
X0042675Y0234931D01*
X0042657Y0234949D01*
X0042657Y0242162D01*
X0043120Y0243279D01*
X0043120Y0244547D01*
X0042657Y0245665D01*
X0042657Y0248461D01*
X0043120Y0249579D01*
X0043120Y0250847D01*
X0042657Y0251964D01*
X0042657Y0259051D01*
X0042807Y0259412D02*
X0082123Y0259412D01*
X0081235Y0260611D02*
X0043120Y0260611D01*
X0042966Y0261809D02*
X0080880Y0261809D01*
X0080894Y0263008D02*
X0042657Y0263008D01*
X0042657Y0264206D02*
X0081391Y0264206D01*
X0082499Y0265405D02*
X0042680Y0265405D01*
X0043120Y0266603D02*
X0099657Y0266603D01*
X0099657Y0267802D02*
X0043093Y0267802D01*
X0042657Y0269000D02*
X0099657Y0269000D01*
X0099657Y0270199D02*
X0042657Y0270199D01*
X0042657Y0271398D02*
X0099657Y0271398D01*
X0099657Y0272596D02*
X0042657Y0272596D01*
X0042657Y0273795D02*
X0099657Y0273795D01*
X0099657Y0274993D02*
X0042657Y0274993D01*
X0042657Y0276192D02*
X0099657Y0276192D01*
X0099657Y0277390D02*
X0043081Y0277390D01*
X0043054Y0278589D02*
X0099657Y0278589D01*
X0099657Y0279787D02*
X0042657Y0279787D01*
X0042657Y0280986D02*
X0099657Y0280986D01*
X0099657Y0282184D02*
X0042657Y0282184D01*
X0043010Y0283383D02*
X0099657Y0283383D01*
X0099657Y0284581D02*
X0043081Y0284581D01*
X0042685Y0285780D02*
X0099657Y0285780D01*
X0099657Y0286978D02*
X0042657Y0286978D01*
X0042657Y0288177D02*
X0099657Y0288177D01*
X0099657Y0289375D02*
X0042657Y0289375D01*
X0042657Y0290574D02*
X0060514Y0290574D01*
X0060716Y0290490D02*
X0061984Y0290490D01*
X0063156Y0290975D01*
X0064053Y0291872D01*
X0064538Y0293043D01*
X0064538Y0293639D01*
X0065134Y0293639D01*
X0066306Y0294125D01*
X0067202Y0295021D01*
X0067687Y0296193D01*
X0067687Y0297461D01*
X0067202Y0298632D01*
X0066306Y0299529D01*
X0065700Y0299780D01*
X0066306Y0300030D01*
X0067202Y0300927D01*
X0067687Y0302098D01*
X0067687Y0303366D01*
X0067202Y0304538D01*
X0066306Y0305434D01*
X0066176Y0305488D01*
X0066306Y0305542D01*
X0067202Y0306439D01*
X0067687Y0307610D01*
X0067687Y0308878D01*
X0067202Y0310050D01*
X0066449Y0310803D01*
X0067202Y0311557D01*
X0067687Y0312728D01*
X0067687Y0313996D01*
X0067202Y0315168D01*
X0066449Y0315921D01*
X0067202Y0316675D01*
X0067687Y0317846D01*
X0067687Y0319114D01*
X0067202Y0320286D01*
X0066306Y0321182D01*
X0065700Y0321433D01*
X0066306Y0321684D01*
X0067202Y0322580D01*
X0067687Y0323752D01*
X0067687Y0325020D01*
X0067202Y0326191D01*
X0066306Y0327088D01*
X0065700Y0327339D01*
X0066306Y0327589D01*
X0067202Y0328486D01*
X0067687Y0329657D01*
X0067687Y0330925D01*
X0067202Y0332097D01*
X0066306Y0332993D01*
X0065134Y0333479D01*
X0063866Y0333479D01*
X0062694Y0332993D01*
X0061798Y0332097D01*
X0061313Y0330925D01*
X0061313Y0330329D01*
X0060716Y0330329D01*
X0059545Y0329844D01*
X0058648Y0328947D01*
X0058163Y0327776D01*
X0058163Y0326508D01*
X0058648Y0325336D01*
X0059545Y0324440D01*
X0060150Y0324189D01*
X0059545Y0323938D01*
X0058648Y0323042D01*
X0058163Y0321870D01*
X0058163Y0320602D01*
X0058648Y0319431D01*
X0059545Y0318534D01*
X0059675Y0318480D01*
X0059545Y0318427D01*
X0058648Y0317530D01*
X0058163Y0316358D01*
X0058163Y0315090D01*
X0058648Y0313919D01*
X0059205Y0313362D01*
X0058648Y0312806D01*
X0058163Y0311634D01*
X0058163Y0310366D01*
X0058648Y0309194D01*
X0059545Y0308298D01*
X0059675Y0308244D01*
X0059545Y0308190D01*
X0058648Y0307294D01*
X0058163Y0306122D01*
X0058163Y0304854D01*
X0058648Y0303683D01*
X0059545Y0302786D01*
X0060150Y0302535D01*
X0059545Y0302285D01*
X0058648Y0301388D01*
X0058163Y0300217D01*
X0058163Y0298949D01*
X0058648Y0297777D01*
X0059545Y0296881D01*
X0060150Y0296630D01*
X0059545Y0296379D01*
X0058648Y0295483D01*
X0058163Y0294311D01*
X0058163Y0293043D01*
X0058648Y0291872D01*
X0059545Y0290975D01*
X0060716Y0290490D01*
X0062187Y0290574D02*
X0099657Y0290574D01*
X0099657Y0291772D02*
X0063953Y0291772D01*
X0064508Y0292971D02*
X0099657Y0292971D01*
X0099657Y0294169D02*
X0066350Y0294169D01*
X0067346Y0295368D02*
X0099657Y0295368D01*
X0099657Y0296566D02*
X0067687Y0296566D01*
X0067561Y0297765D02*
X0099657Y0297765D01*
X0099657Y0298963D02*
X0066871Y0298963D01*
X0066437Y0300162D02*
X0099657Y0300162D01*
X0099657Y0301360D02*
X0067382Y0301360D01*
X0067687Y0302559D02*
X0083188Y0302559D01*
X0082517Y0302837D02*
X0083906Y0302261D01*
X0085409Y0302261D01*
X0086798Y0302837D01*
X0087860Y0303899D01*
X0088435Y0305288D01*
X0088435Y0306791D01*
X0087860Y0308179D01*
X0086798Y0309242D01*
X0085409Y0309817D01*
X0083906Y0309817D01*
X0082517Y0309242D01*
X0081455Y0308179D01*
X0080880Y0306791D01*
X0080880Y0305288D01*
X0081455Y0303899D01*
X0082517Y0302837D01*
X0081597Y0303757D02*
X0067525Y0303757D01*
X0066784Y0304956D02*
X0081017Y0304956D01*
X0080880Y0306154D02*
X0066918Y0306154D01*
X0067581Y0307353D02*
X0081112Y0307353D01*
X0081827Y0308551D02*
X0067687Y0308551D01*
X0067326Y0309750D02*
X0083743Y0309750D01*
X0085572Y0309750D02*
X0099657Y0309750D01*
X0099657Y0310948D02*
X0066594Y0310948D01*
X0067447Y0312147D02*
X0099657Y0312147D01*
X0099657Y0313345D02*
X0067687Y0313345D01*
X0067461Y0314544D02*
X0082385Y0314544D01*
X0082517Y0314411D02*
X0083906Y0313836D01*
X0085409Y0313836D01*
X0086798Y0314411D01*
X0087860Y0315474D01*
X0088435Y0316863D01*
X0088435Y0318366D01*
X0087860Y0319754D01*
X0086798Y0320817D01*
X0085409Y0321392D01*
X0083906Y0321392D01*
X0082517Y0320817D01*
X0081455Y0319754D01*
X0080880Y0318366D01*
X0080880Y0316863D01*
X0081455Y0315474D01*
X0082517Y0314411D01*
X0081344Y0315742D02*
X0066627Y0315742D01*
X0067312Y0316941D02*
X0080880Y0316941D01*
X0080880Y0318139D02*
X0067687Y0318139D01*
X0067595Y0319338D02*
X0081282Y0319338D01*
X0082237Y0320536D02*
X0066951Y0320536D01*
X0066357Y0321735D02*
X0099657Y0321735D01*
X0099657Y0322934D02*
X0067348Y0322934D01*
X0067687Y0324132D02*
X0099657Y0324132D01*
X0099657Y0325331D02*
X0067559Y0325331D01*
X0066864Y0326529D02*
X0099657Y0326529D01*
X0099657Y0327728D02*
X0066444Y0327728D01*
X0067384Y0328926D02*
X0099657Y0328926D01*
X0099657Y0330125D02*
X0067687Y0330125D01*
X0067523Y0331323D02*
X0099657Y0331323D01*
X0099657Y0332522D02*
X0066777Y0332522D01*
X0062223Y0332522D02*
X0042657Y0332522D01*
X0042657Y0333720D02*
X0099657Y0333720D01*
X0099657Y0334919D02*
X0042657Y0334919D01*
X0042657Y0336117D02*
X0099657Y0336117D01*
X0099657Y0337316D02*
X0042657Y0337316D01*
X0039657Y0337316D02*
X0024897Y0337316D01*
X0024897Y0336117D02*
X0039657Y0336117D01*
X0039657Y0334919D02*
X0024539Y0334919D01*
X0023961Y0333720D02*
X0039657Y0333720D01*
X0039657Y0332522D02*
X0022763Y0332522D01*
X0016552Y0332522D02*
X0009257Y0332522D01*
X0009257Y0333720D02*
X0015354Y0333720D01*
X0014776Y0334919D02*
X0009257Y0334919D01*
X0009257Y0336117D02*
X0014417Y0336117D01*
X0014417Y0337316D02*
X0009257Y0337316D01*
X0009257Y0331323D02*
X0039657Y0331323D01*
X0039657Y0330125D02*
X0009257Y0330125D01*
X0009257Y0328926D02*
X0039657Y0328926D01*
X0039657Y0327728D02*
X0009257Y0327728D01*
X0009257Y0326529D02*
X0039657Y0326529D01*
X0039657Y0325331D02*
X0009257Y0325331D01*
X0009257Y0324132D02*
X0039657Y0324132D01*
X0039657Y0322934D02*
X0009257Y0322934D01*
X0009257Y0321735D02*
X0039657Y0321735D01*
X0039657Y0320536D02*
X0009257Y0320536D01*
X0009257Y0319338D02*
X0039657Y0319338D01*
X0039657Y0318139D02*
X0009257Y0318139D01*
X0009257Y0316941D02*
X0039657Y0316941D01*
X0039657Y0315742D02*
X0009257Y0315742D01*
X0009257Y0314544D02*
X0039657Y0314544D01*
X0039657Y0313345D02*
X0009257Y0313345D01*
X0009257Y0312147D02*
X0039657Y0312147D01*
X0039657Y0310948D02*
X0009257Y0310948D01*
X0009257Y0309750D02*
X0039657Y0309750D01*
X0039657Y0308551D02*
X0009257Y0308551D01*
X0009257Y0307353D02*
X0039657Y0307353D01*
X0039657Y0306154D02*
X0009257Y0306154D01*
X0009257Y0304956D02*
X0039657Y0304956D01*
X0039657Y0303757D02*
X0009257Y0303757D01*
X0009257Y0302559D02*
X0039657Y0302559D01*
X0039657Y0301360D02*
X0009257Y0301360D01*
X0009257Y0300162D02*
X0039657Y0300162D01*
X0039657Y0298963D02*
X0009257Y0298963D01*
X0009257Y0297765D02*
X0039657Y0297765D01*
X0037685Y0296566D02*
X0009257Y0296566D01*
X0009257Y0295368D02*
X0036899Y0295368D01*
X0036706Y0294169D02*
X0009257Y0294169D01*
X0009257Y0292971D02*
X0036981Y0292971D01*
X0037882Y0291772D02*
X0009257Y0291772D01*
X0009257Y0290574D02*
X0039657Y0290574D01*
X0039657Y0289375D02*
X0039215Y0289375D01*
X0042657Y0291772D02*
X0058748Y0291772D01*
X0058193Y0292971D02*
X0042806Y0292971D01*
X0043081Y0294169D02*
X0058163Y0294169D01*
X0058601Y0295368D02*
X0042888Y0295368D01*
X0042657Y0296566D02*
X0059996Y0296566D01*
X0058661Y0297765D02*
X0042657Y0297765D01*
X0042657Y0298963D02*
X0058163Y0298963D01*
X0058163Y0300162D02*
X0042657Y0300162D01*
X0042657Y0301360D02*
X0058637Y0301360D01*
X0060093Y0302559D02*
X0042657Y0302559D01*
X0042657Y0303757D02*
X0058617Y0303757D01*
X0058163Y0304956D02*
X0042657Y0304956D01*
X0042657Y0306154D02*
X0058176Y0306154D01*
X0058707Y0307353D02*
X0042657Y0307353D01*
X0042657Y0308551D02*
X0059291Y0308551D01*
X0058418Y0309750D02*
X0042657Y0309750D01*
X0042657Y0310948D02*
X0058163Y0310948D01*
X0058375Y0312147D02*
X0042657Y0312147D01*
X0042657Y0313345D02*
X0059188Y0313345D01*
X0058389Y0314544D02*
X0042657Y0314544D01*
X0042657Y0315742D02*
X0058163Y0315742D01*
X0058404Y0316941D02*
X0042657Y0316941D01*
X0042657Y0318139D02*
X0059258Y0318139D01*
X0058741Y0319338D02*
X0042657Y0319338D01*
X0042657Y0320536D02*
X0058190Y0320536D01*
X0058163Y0321735D02*
X0042657Y0321735D01*
X0042657Y0322934D02*
X0058603Y0322934D01*
X0060012Y0324132D02*
X0042657Y0324132D01*
X0042657Y0325331D02*
X0058654Y0325331D01*
X0058163Y0326529D02*
X0042657Y0326529D01*
X0042657Y0327728D02*
X0058163Y0327728D01*
X0058639Y0328926D02*
X0042657Y0328926D01*
X0042657Y0330125D02*
X0060223Y0330125D01*
X0061477Y0331323D02*
X0042657Y0331323D01*
X0087078Y0320536D02*
X0099657Y0320536D01*
X0099657Y0319338D02*
X0088033Y0319338D01*
X0088435Y0318139D02*
X0099657Y0318139D01*
X0099657Y0316941D02*
X0088435Y0316941D01*
X0087971Y0315742D02*
X0099657Y0315742D01*
X0099657Y0314544D02*
X0086930Y0314544D01*
X0087488Y0308551D02*
X0099657Y0308551D01*
X0099657Y0307353D02*
X0088203Y0307353D01*
X0088435Y0306154D02*
X0099657Y0306154D01*
X0099657Y0304956D02*
X0088298Y0304956D01*
X0087718Y0303757D02*
X0099657Y0303757D01*
X0099657Y0302559D02*
X0086127Y0302559D01*
X0102657Y0302559D02*
X0231511Y0302559D01*
X0231470Y0301360D02*
X0102657Y0301360D01*
X0102657Y0300162D02*
X0231897Y0300162D01*
X0233241Y0298963D02*
X0102657Y0298963D01*
X0102657Y0297765D02*
X0235647Y0297765D01*
X0236410Y0296566D02*
X0184373Y0296566D01*
X0184463Y0296529D02*
X0183291Y0297014D01*
X0182023Y0297014D01*
X0180852Y0296529D01*
X0179955Y0295632D01*
X0179470Y0294461D01*
X0179470Y0293193D01*
X0179955Y0292021D01*
X0180852Y0291125D01*
X0182023Y0290639D01*
X0183291Y0290639D01*
X0184463Y0291125D01*
X0185360Y0292021D01*
X0185845Y0293193D01*
X0185845Y0294461D01*
X0185360Y0295632D01*
X0184463Y0296529D01*
X0185469Y0295368D02*
X0237670Y0295368D01*
X0235992Y0294169D02*
X0235124Y0294169D01*
X0232191Y0294169D02*
X0185845Y0294169D01*
X0185753Y0292971D02*
X0230888Y0292971D01*
X0230470Y0291772D02*
X0185111Y0291772D01*
X0180204Y0291772D02*
X0169111Y0291772D01*
X0169360Y0292021D02*
X0168463Y0291125D01*
X0167291Y0290639D01*
X0166023Y0290639D01*
X0164852Y0291125D01*
X0163955Y0292021D01*
X0163470Y0293193D01*
X0163470Y0294461D01*
X0163955Y0295632D01*
X0164852Y0296529D01*
X0166023Y0297014D01*
X0167291Y0297014D01*
X0168463Y0296529D01*
X0169360Y0295632D01*
X0169845Y0294461D01*
X0169845Y0293193D01*
X0169360Y0292021D01*
X0169753Y0292971D02*
X0179562Y0292971D01*
X0179470Y0294169D02*
X0169845Y0294169D01*
X0169469Y0295368D02*
X0179846Y0295368D01*
X0180942Y0296566D02*
X0168373Y0296566D01*
X0164942Y0296566D02*
X0160873Y0296566D01*
X0160963Y0296529D02*
X0159791Y0297014D01*
X0158523Y0297014D01*
X0157352Y0296529D01*
X0156455Y0295632D01*
X0155970Y0294461D01*
X0155970Y0293193D01*
X0156455Y0292021D01*
X0157352Y0291125D01*
X0158523Y0290639D01*
X0159791Y0290639D01*
X0160963Y0291125D01*
X0161860Y0292021D01*
X0162345Y0293193D01*
X0162345Y0294461D01*
X0161860Y0295632D01*
X0160963Y0296529D01*
X0161969Y0295368D02*
X0163846Y0295368D01*
X0163470Y0294169D02*
X0162345Y0294169D01*
X0162253Y0292971D02*
X0163562Y0292971D01*
X0164204Y0291772D02*
X0161611Y0291772D01*
X0156704Y0291772D02*
X0153111Y0291772D01*
X0153360Y0292021D02*
X0152463Y0291125D01*
X0151291Y0290639D01*
X0150023Y0290639D01*
X0148852Y0291125D01*
X0147955Y0292021D01*
X0147470Y0293193D01*
X0147470Y0294461D01*
X0147955Y0295632D01*
X0148852Y0296529D01*
X0150023Y0297014D01*
X0151291Y0297014D01*
X0152463Y0296529D01*
X0153360Y0295632D01*
X0153845Y0294461D01*
X0153845Y0293193D01*
X0153360Y0292021D01*
X0153753Y0292971D02*
X0156062Y0292971D01*
X0155970Y0294169D02*
X0153845Y0294169D01*
X0153469Y0295368D02*
X0156346Y0295368D01*
X0157442Y0296566D02*
X0152373Y0296566D01*
X0148942Y0296566D02*
X0102657Y0296566D01*
X0102657Y0295368D02*
X0147846Y0295368D01*
X0147470Y0294169D02*
X0102657Y0294169D01*
X0102657Y0292971D02*
X0147562Y0292971D01*
X0148204Y0291772D02*
X0102657Y0291772D01*
X0102657Y0290574D02*
X0230519Y0290574D01*
X0231101Y0289375D02*
X0148617Y0289375D01*
X0148860Y0289132D02*
X0147963Y0290029D01*
X0146791Y0290514D01*
X0145523Y0290514D01*
X0144352Y0290029D01*
X0143455Y0289132D01*
X0142970Y0287961D01*
X0142970Y0286693D01*
X0143455Y0285521D01*
X0144352Y0284625D01*
X0145523Y0284139D01*
X0146791Y0284139D01*
X0147963Y0284625D01*
X0148860Y0285521D01*
X0149345Y0286693D01*
X0149345Y0287961D01*
X0148860Y0289132D01*
X0149255Y0288177D02*
X0232933Y0288177D01*
X0214301Y0286978D02*
X0149345Y0286978D01*
X0148967Y0285780D02*
X0213602Y0285780D01*
X0213470Y0284581D02*
X0147858Y0284581D01*
X0144457Y0284581D02*
X0132858Y0284581D01*
X0132963Y0284625D02*
X0133860Y0285521D01*
X0134345Y0286693D01*
X0134345Y0287961D01*
X0133860Y0289132D01*
X0132963Y0290029D01*
X0131791Y0290514D01*
X0130523Y0290514D01*
X0129352Y0290029D01*
X0129157Y0289834D01*
X0128963Y0290029D01*
X0127791Y0290514D01*
X0126523Y0290514D01*
X0125352Y0290029D01*
X0124455Y0289132D01*
X0123970Y0287961D01*
X0123970Y0286693D01*
X0124455Y0285521D01*
X0125352Y0284625D01*
X0126523Y0284139D01*
X0127791Y0284139D01*
X0128963Y0284625D01*
X0129157Y0284819D01*
X0129352Y0284625D01*
X0130523Y0284139D01*
X0131791Y0284139D01*
X0132963Y0284625D01*
X0133967Y0285780D02*
X0143348Y0285780D01*
X0142970Y0286978D02*
X0134345Y0286978D01*
X0134255Y0288177D02*
X0143060Y0288177D01*
X0143698Y0289375D02*
X0133617Y0289375D01*
X0129457Y0284581D02*
X0128858Y0284581D01*
X0125457Y0284581D02*
X0102657Y0284581D01*
X0102657Y0283383D02*
X0213806Y0283383D01*
X0205096Y0303757D02*
X0232080Y0303757D01*
X0259654Y0309750D02*
X0102657Y0309750D01*
X0102657Y0310948D02*
X0259470Y0310948D01*
X0259754Y0312147D02*
X0102657Y0312147D01*
X0102657Y0313345D02*
X0260668Y0313345D01*
X0305548Y0269000D02*
X0322031Y0269000D01*
X0322031Y0267802D02*
X0306130Y0267802D01*
X0306239Y0266603D02*
X0322031Y0266603D01*
X0322031Y0265405D02*
X0305945Y0265405D01*
X0322031Y0249824D02*
X0190853Y0249824D01*
X0192221Y0248626D02*
X0322031Y0248626D01*
X0322031Y0247427D02*
X0192605Y0247427D01*
X0192490Y0246229D02*
X0322031Y0246229D01*
X0322031Y0245030D02*
X0191771Y0245030D01*
X0187465Y0245030D02*
X0171771Y0245030D01*
X0167465Y0245030D02*
X0143553Y0245030D01*
X0143553Y0243832D02*
X0231155Y0243832D01*
X0231352Y0244029D02*
X0230455Y0243132D01*
X0229970Y0241961D01*
X0229970Y0240693D01*
X0230455Y0239521D01*
X0231352Y0238625D01*
X0232523Y0238139D01*
X0233791Y0238139D01*
X0234963Y0238625D01*
X0235860Y0239521D01*
X0236345Y0240693D01*
X0236345Y0241961D01*
X0235860Y0243132D01*
X0234963Y0244029D01*
X0233791Y0244514D01*
X0232523Y0244514D01*
X0231352Y0244029D01*
X0230249Y0242633D02*
X0143553Y0242633D01*
X0143553Y0241435D02*
X0229970Y0241435D01*
X0230159Y0240236D02*
X0143553Y0240236D01*
X0143553Y0239038D02*
X0230939Y0239038D01*
X0235376Y0239038D02*
X0311777Y0239038D01*
X0311955Y0239467D02*
X0311380Y0238078D01*
X0311380Y0236575D01*
X0311955Y0235187D01*
X0313017Y0234124D01*
X0314406Y0233549D01*
X0315909Y0233549D01*
X0317298Y0234124D01*
X0318360Y0235187D01*
X0318935Y0236575D01*
X0318935Y0238078D01*
X0318360Y0239467D01*
X0317298Y0240530D01*
X0315909Y0241105D01*
X0314406Y0241105D01*
X0313017Y0240530D01*
X0311955Y0239467D01*
X0312724Y0240236D02*
X0236156Y0240236D01*
X0236345Y0241435D02*
X0322031Y0241435D01*
X0322031Y0242633D02*
X0236066Y0242633D01*
X0235160Y0243832D02*
X0322031Y0243832D01*
X0322031Y0240236D02*
X0317591Y0240236D01*
X0318538Y0239038D02*
X0322031Y0239038D01*
X0322031Y0237839D02*
X0318935Y0237839D01*
X0318935Y0236641D02*
X0322031Y0236641D01*
X0322031Y0235442D02*
X0318466Y0235442D01*
X0317417Y0234244D02*
X0321517Y0234244D01*
X0320168Y0233045D02*
X0143553Y0233045D01*
X0143553Y0231847D02*
X0318820Y0231847D01*
X0317471Y0230648D02*
X0143553Y0230648D01*
X0143553Y0229450D02*
X0316123Y0229450D01*
X0312739Y0228251D02*
X0143553Y0228251D01*
X0143553Y0227053D02*
X0311783Y0227053D01*
X0311380Y0225854D02*
X0143553Y0225854D01*
X0143553Y0224656D02*
X0310728Y0224656D01*
X0309379Y0223457D02*
X0208929Y0223457D01*
X0208791Y0223514D02*
X0207523Y0223514D01*
X0206352Y0223029D01*
X0205455Y0222132D01*
X0204970Y0220961D01*
X0204970Y0219693D01*
X0205455Y0218521D01*
X0206352Y0217625D01*
X0207523Y0217139D01*
X0208791Y0217139D01*
X0209963Y0217625D01*
X0210860Y0218521D01*
X0211345Y0219693D01*
X0211345Y0220961D01*
X0210860Y0222132D01*
X0209963Y0223029D01*
X0208791Y0223514D01*
X0207386Y0223457D02*
X0197429Y0223457D01*
X0197291Y0223514D02*
X0196023Y0223514D01*
X0194852Y0223029D01*
X0193955Y0222132D01*
X0193470Y0220961D01*
X0193470Y0219693D01*
X0193955Y0218521D01*
X0194852Y0217625D01*
X0196023Y0217139D01*
X0197291Y0217139D01*
X0198463Y0217625D01*
X0199360Y0218521D01*
X0199845Y0219693D01*
X0199845Y0220961D01*
X0199360Y0222132D01*
X0198463Y0223029D01*
X0197291Y0223514D01*
X0195886Y0223457D02*
X0177429Y0223457D01*
X0177291Y0223514D02*
X0176023Y0223514D01*
X0174852Y0223029D01*
X0173955Y0222132D01*
X0173470Y0220961D01*
X0173470Y0219693D01*
X0173955Y0218521D01*
X0174852Y0217625D01*
X0176023Y0217139D01*
X0177291Y0217139D01*
X0178463Y0217625D01*
X0179360Y0218521D01*
X0179845Y0219693D01*
X0179845Y0220961D01*
X0179360Y0222132D01*
X0178463Y0223029D01*
X0177291Y0223514D01*
X0175886Y0223457D02*
X0155929Y0223457D01*
X0155791Y0223514D02*
X0154523Y0223514D01*
X0153352Y0223029D01*
X0152455Y0222132D01*
X0151970Y0220961D01*
X0151970Y0219693D01*
X0152455Y0218521D01*
X0153352Y0217625D01*
X0154523Y0217139D01*
X0155791Y0217139D01*
X0156963Y0217625D01*
X0157860Y0218521D01*
X0158345Y0219693D01*
X0158345Y0220961D01*
X0157860Y0222132D01*
X0156963Y0223029D01*
X0155791Y0223514D01*
X0154386Y0223457D02*
X0143553Y0223457D01*
X0143553Y0222259D02*
X0152582Y0222259D01*
X0152011Y0221060D02*
X0143553Y0221060D01*
X0143553Y0219862D02*
X0151970Y0219862D01*
X0152397Y0218663D02*
X0143553Y0218663D01*
X0143553Y0217465D02*
X0153738Y0217465D01*
X0156576Y0217465D02*
X0175238Y0217465D01*
X0173897Y0218663D02*
X0157918Y0218663D01*
X0158345Y0219862D02*
X0173470Y0219862D01*
X0173511Y0221060D02*
X0158304Y0221060D01*
X0157733Y0222259D02*
X0174082Y0222259D01*
X0179233Y0222259D02*
X0194082Y0222259D01*
X0193511Y0221060D02*
X0179804Y0221060D01*
X0179845Y0219862D02*
X0193470Y0219862D01*
X0193897Y0218663D02*
X0179418Y0218663D01*
X0178076Y0217465D02*
X0195238Y0217465D01*
X0198076Y0217465D02*
X0206738Y0217465D01*
X0205397Y0218663D02*
X0199418Y0218663D01*
X0199845Y0219862D02*
X0204970Y0219862D01*
X0205011Y0221060D02*
X0199804Y0221060D01*
X0199233Y0222259D02*
X0205582Y0222259D01*
X0209576Y0217465D02*
X0216043Y0217465D01*
X0216198Y0217619D02*
X0215302Y0216723D01*
X0214817Y0215551D01*
X0214817Y0214283D01*
X0215302Y0213112D01*
X0216198Y0212215D01*
X0217370Y0211730D01*
X0218638Y0211730D01*
X0219809Y0212215D01*
X0220706Y0213112D01*
X0221191Y0214283D01*
X0221191Y0215551D01*
X0220706Y0216723D01*
X0219809Y0217619D01*
X0218638Y0218105D01*
X0217370Y0218105D01*
X0216198Y0217619D01*
X0215113Y0216266D02*
X0143553Y0216266D01*
X0143553Y0215067D02*
X0214817Y0215067D01*
X0214988Y0213869D02*
X0143553Y0213869D01*
X0143553Y0212670D02*
X0215743Y0212670D01*
X0220265Y0212670D02*
X0297242Y0212670D01*
X0298590Y0213869D02*
X0221020Y0213869D01*
X0221191Y0215067D02*
X0299939Y0215067D01*
X0301288Y0216266D02*
X0220895Y0216266D01*
X0219964Y0217465D02*
X0302636Y0217465D01*
X0303985Y0218663D02*
X0210918Y0218663D01*
X0211345Y0219862D02*
X0305333Y0219862D01*
X0306682Y0221060D02*
X0211304Y0221060D01*
X0210733Y0222259D02*
X0308031Y0222259D01*
X0312637Y0222259D02*
X0312883Y0222259D01*
X0312898Y0234244D02*
X0143553Y0234244D01*
X0143553Y0235442D02*
X0311849Y0235442D01*
X0311380Y0236641D02*
X0143553Y0236641D01*
X0143553Y0237839D02*
X0311380Y0237839D01*
X0334102Y0264206D02*
X0351657Y0264206D01*
X0351657Y0265405D02*
X0334945Y0265405D01*
X0335239Y0266603D02*
X0351657Y0266603D01*
X0351657Y0267802D02*
X0335130Y0267802D01*
X0334548Y0269000D02*
X0351657Y0269000D01*
X0351657Y0270199D02*
X0332874Y0270199D01*
X0295893Y0211472D02*
X0143553Y0211472D01*
X0143553Y0210273D02*
X0294544Y0210273D01*
X0293196Y0209075D02*
X0143553Y0209075D01*
X0143553Y0207876D02*
X0192603Y0207876D01*
X0192458Y0207816D02*
X0191562Y0206920D01*
X0191076Y0205748D01*
X0191076Y0204480D01*
X0191562Y0203309D01*
X0192458Y0202412D01*
X0193630Y0201927D01*
X0194898Y0201927D01*
X0196069Y0202412D01*
X0196966Y0203309D01*
X0197451Y0204480D01*
X0197451Y0205748D01*
X0196966Y0206920D01*
X0196069Y0207816D01*
X0194898Y0208302D01*
X0193630Y0208302D01*
X0192458Y0207816D01*
X0191461Y0206678D02*
X0143553Y0206678D01*
X0143553Y0205479D02*
X0191076Y0205479D01*
X0191159Y0204281D02*
X0143553Y0204281D01*
X0143553Y0203082D02*
X0191788Y0203082D01*
X0196740Y0203082D02*
X0266430Y0203082D01*
X0266455Y0203021D02*
X0267352Y0202125D01*
X0268523Y0201639D01*
X0269791Y0201639D01*
X0270963Y0202125D01*
X0271860Y0203021D01*
X0272345Y0204193D01*
X0272345Y0205461D01*
X0271860Y0206632D01*
X0270963Y0207529D01*
X0269791Y0208014D01*
X0268523Y0208014D01*
X0267352Y0207529D01*
X0266455Y0206632D01*
X0265970Y0205461D01*
X0265970Y0204193D01*
X0266455Y0203021D01*
X0265970Y0204281D02*
X0197369Y0204281D01*
X0197451Y0205479D02*
X0265978Y0205479D01*
X0266501Y0206678D02*
X0197066Y0206678D01*
X0195924Y0207876D02*
X0268191Y0207876D01*
X0270124Y0207876D02*
X0291847Y0207876D01*
X0290498Y0206678D02*
X0271814Y0206678D01*
X0272337Y0205479D02*
X0289150Y0205479D01*
X0287801Y0204281D02*
X0272345Y0204281D01*
X0271885Y0203082D02*
X0286452Y0203082D01*
X0285104Y0201884D02*
X0270382Y0201884D01*
X0267933Y0201884D02*
X0143553Y0201884D01*
X0143553Y0200685D02*
X0283755Y0200685D01*
X0282407Y0199487D02*
X0143553Y0199487D01*
X0143553Y0198288D02*
X0281058Y0198288D01*
X0279709Y0197090D02*
X0143553Y0197090D01*
X0143553Y0195891D02*
X0278361Y0195891D01*
X0277012Y0194693D02*
X0143553Y0194693D01*
X0143553Y0193494D02*
X0275663Y0193494D01*
X0274315Y0192296D02*
X0143553Y0192296D01*
X0143553Y0191097D02*
X0272966Y0191097D01*
X0271617Y0189899D02*
X0143553Y0189899D01*
X0143553Y0188700D02*
X0270269Y0188700D01*
X0268920Y0187502D02*
X0143553Y0187502D01*
X0144361Y0186303D02*
X0267571Y0186303D01*
X0266223Y0185105D02*
X0145560Y0185105D01*
X0146758Y0183906D02*
X0264874Y0183906D01*
X0263526Y0182708D02*
X0147957Y0182708D01*
X0149155Y0181509D02*
X0262177Y0181509D01*
X0260828Y0180311D02*
X0150354Y0180311D01*
X0151552Y0179112D02*
X0259480Y0179112D01*
X0258131Y0177914D02*
X0152751Y0177914D01*
X0153949Y0176715D02*
X0256782Y0176715D01*
X0255434Y0175517D02*
X0155148Y0175517D01*
X0158553Y0170723D02*
X0168189Y0170723D01*
X0168028Y0169524D02*
X0159141Y0169524D01*
X0160339Y0168326D02*
X0168271Y0168326D01*
X0169041Y0167127D02*
X0161538Y0167127D01*
X0162736Y0165929D02*
X0300969Y0165929D01*
X0300813Y0165552D02*
X0300813Y0163929D01*
X0301435Y0162429D01*
X0302582Y0161281D01*
X0304082Y0160660D01*
X0305705Y0160660D01*
X0307205Y0161281D01*
X0308353Y0162429D01*
X0308974Y0163929D01*
X0308974Y0165552D01*
X0308353Y0167051D01*
X0307205Y0168199D01*
X0305705Y0168820D01*
X0304082Y0168820D01*
X0302582Y0168199D01*
X0301435Y0167051D01*
X0300813Y0165552D01*
X0300813Y0164730D02*
X0288817Y0164730D01*
X0290527Y0163531D02*
X0300978Y0163531D01*
X0301530Y0162333D02*
X0291058Y0162333D01*
X0291070Y0161134D02*
X0302936Y0161134D01*
X0306851Y0161134D02*
X0312779Y0161134D01*
X0312425Y0161281D02*
X0313925Y0160660D01*
X0315548Y0160660D01*
X0317048Y0161281D01*
X0318195Y0162429D01*
X0318817Y0163929D01*
X0318817Y0165552D01*
X0318195Y0167051D01*
X0317048Y0168199D01*
X0315548Y0168820D01*
X0313925Y0168820D01*
X0312425Y0168199D01*
X0311277Y0167051D01*
X0310656Y0165552D01*
X0310656Y0163929D01*
X0311277Y0162429D01*
X0312425Y0161281D01*
X0311373Y0162333D02*
X0308257Y0162333D01*
X0308810Y0163531D02*
X0310820Y0163531D01*
X0310656Y0164730D02*
X0308974Y0164730D01*
X0308818Y0165929D02*
X0310812Y0165929D01*
X0311353Y0167127D02*
X0308277Y0167127D01*
X0306900Y0168326D02*
X0312730Y0168326D01*
X0316743Y0168326D02*
X0322572Y0168326D01*
X0322267Y0168199D02*
X0321120Y0167051D01*
X0320498Y0165552D01*
X0320498Y0163929D01*
X0321120Y0162429D01*
X0322267Y0161281D01*
X0323767Y0160660D01*
X0325390Y0160660D01*
X0326890Y0161281D01*
X0328038Y0162429D01*
X0328659Y0163929D01*
X0328659Y0165552D01*
X0328038Y0167051D01*
X0326890Y0168199D01*
X0325390Y0168820D01*
X0323767Y0168820D01*
X0322267Y0168199D01*
X0321195Y0167127D02*
X0318120Y0167127D01*
X0318660Y0165929D02*
X0320654Y0165929D01*
X0320498Y0164730D02*
X0318817Y0164730D01*
X0318652Y0163531D02*
X0320663Y0163531D01*
X0321215Y0162333D02*
X0318099Y0162333D01*
X0316694Y0161134D02*
X0322621Y0161134D01*
X0326536Y0161134D02*
X0332464Y0161134D01*
X0332110Y0161281D02*
X0333610Y0160660D01*
X0335233Y0160660D01*
X0336733Y0161281D01*
X0337880Y0162429D01*
X0338502Y0163929D01*
X0338502Y0165552D01*
X0337880Y0167051D01*
X0336733Y0168199D01*
X0335233Y0168820D01*
X0333610Y0168820D01*
X0332110Y0168199D01*
X0330962Y0167051D01*
X0330341Y0165552D01*
X0330341Y0163929D01*
X0330962Y0162429D01*
X0332110Y0161281D01*
X0331058Y0162333D02*
X0327942Y0162333D01*
X0328495Y0163531D02*
X0330505Y0163531D01*
X0330341Y0164730D02*
X0328659Y0164730D01*
X0328503Y0165929D02*
X0330497Y0165929D01*
X0331038Y0167127D02*
X0327962Y0167127D01*
X0326585Y0168326D02*
X0332415Y0168326D01*
X0336428Y0168326D02*
X0351657Y0168326D01*
X0351657Y0169524D02*
X0265184Y0169524D01*
X0265023Y0170723D02*
X0351657Y0170723D01*
X0351657Y0171921D02*
X0264367Y0171921D01*
X0264942Y0168326D02*
X0302887Y0168326D01*
X0301510Y0167127D02*
X0264171Y0167127D01*
X0262318Y0158200D02*
X0260895Y0158200D01*
X0259580Y0157655D01*
X0258573Y0156649D01*
X0258028Y0155334D01*
X0258028Y0153910D01*
X0258573Y0152595D01*
X0259580Y0151589D01*
X0260895Y0151044D01*
X0262318Y0151044D01*
X0263633Y0151589D01*
X0264640Y0152595D01*
X0265184Y0153910D01*
X0265184Y0155334D01*
X0264640Y0156649D01*
X0263633Y0157655D01*
X0262318Y0158200D01*
X0263749Y0157539D02*
X0284767Y0157539D01*
X0284702Y0156340D02*
X0264767Y0156340D01*
X0265184Y0155142D02*
X0285104Y0155142D01*
X0285499Y0153943D02*
X0265184Y0153943D01*
X0264701Y0152745D02*
X0284820Y0152745D01*
X0284702Y0151546D02*
X0263531Y0151546D01*
X0259682Y0151546D02*
X0253531Y0151546D01*
X0253633Y0151589D02*
X0254640Y0152595D01*
X0255184Y0153910D01*
X0255184Y0155334D01*
X0254640Y0156649D01*
X0253633Y0157655D01*
X0252318Y0158200D01*
X0250895Y0158200D01*
X0249580Y0157655D01*
X0248573Y0156649D01*
X0248028Y0155334D01*
X0248028Y0153910D01*
X0248573Y0152595D01*
X0249580Y0151589D01*
X0250895Y0151044D01*
X0252318Y0151044D01*
X0253633Y0151589D01*
X0254701Y0152745D02*
X0258511Y0152745D01*
X0258028Y0153943D02*
X0255184Y0153943D01*
X0255184Y0155142D02*
X0258028Y0155142D01*
X0258445Y0156340D02*
X0254767Y0156340D01*
X0253749Y0157539D02*
X0259463Y0157539D01*
X0253732Y0159936D02*
X0249480Y0159936D01*
X0250070Y0161134D02*
X0253143Y0161134D01*
X0253028Y0162333D02*
X0250184Y0162333D01*
X0249895Y0163531D02*
X0253317Y0163531D01*
X0254154Y0164730D02*
X0249058Y0164730D01*
X0244154Y0164730D02*
X0239058Y0164730D01*
X0239895Y0163531D02*
X0243317Y0163531D01*
X0243028Y0162333D02*
X0240184Y0162333D01*
X0240070Y0161134D02*
X0243143Y0161134D01*
X0243732Y0159936D02*
X0239480Y0159936D01*
X0240895Y0158200D02*
X0239580Y0157655D01*
X0238573Y0156649D01*
X0238028Y0155334D01*
X0238028Y0153910D01*
X0238573Y0152595D01*
X0239580Y0151589D01*
X0240895Y0151044D01*
X0242318Y0151044D01*
X0243633Y0151589D01*
X0244640Y0152595D01*
X0245184Y0153910D01*
X0245184Y0155334D01*
X0244640Y0156649D01*
X0243633Y0157655D01*
X0242318Y0158200D01*
X0240895Y0158200D01*
X0239463Y0157539D02*
X0233749Y0157539D01*
X0233633Y0157655D02*
X0232318Y0158200D01*
X0230895Y0158200D01*
X0229580Y0157655D01*
X0228573Y0156649D01*
X0228028Y0155334D01*
X0228028Y0153910D01*
X0228573Y0152595D01*
X0229580Y0151589D01*
X0230895Y0151044D01*
X0232318Y0151044D01*
X0233633Y0151589D01*
X0234640Y0152595D01*
X0235184Y0153910D01*
X0235184Y0155334D01*
X0234640Y0156649D01*
X0233633Y0157655D01*
X0234767Y0156340D02*
X0238445Y0156340D01*
X0238028Y0155142D02*
X0235184Y0155142D01*
X0235184Y0153943D02*
X0238028Y0153943D01*
X0238511Y0152745D02*
X0234701Y0152745D01*
X0233531Y0151546D02*
X0239682Y0151546D01*
X0238633Y0150155D02*
X0239640Y0149149D01*
X0240184Y0147834D01*
X0240184Y0146410D01*
X0239640Y0145095D01*
X0238633Y0144089D01*
X0237318Y0143544D01*
X0235895Y0143544D01*
X0234580Y0144089D01*
X0233573Y0145095D01*
X0233028Y0146410D01*
X0233028Y0147834D01*
X0233573Y0149149D01*
X0234580Y0150155D01*
X0235895Y0150700D01*
X0237318Y0150700D01*
X0238633Y0150155D01*
X0238168Y0150348D02*
X0245045Y0150348D01*
X0244580Y0150155D02*
X0243573Y0149149D01*
X0243028Y0147834D01*
X0243028Y0146410D01*
X0243573Y0145095D01*
X0244580Y0144089D01*
X0245895Y0143544D01*
X0247318Y0143544D01*
X0248633Y0144089D01*
X0249640Y0145095D01*
X0250184Y0146410D01*
X0250184Y0147834D01*
X0249640Y0149149D01*
X0248633Y0150155D01*
X0247318Y0150700D01*
X0245895Y0150700D01*
X0244580Y0150155D01*
X0243574Y0149149D02*
X0239639Y0149149D01*
X0240136Y0147951D02*
X0243077Y0147951D01*
X0243028Y0146752D02*
X0240184Y0146752D01*
X0239829Y0145554D02*
X0243383Y0145554D01*
X0244313Y0144355D02*
X0238900Y0144355D01*
X0234313Y0144355D02*
X0228900Y0144355D01*
X0228633Y0144089D02*
X0229640Y0145095D01*
X0230184Y0146410D01*
X0230184Y0147834D01*
X0229640Y0149149D01*
X0228633Y0150155D01*
X0227318Y0150700D01*
X0225895Y0150700D01*
X0224580Y0150155D01*
X0223573Y0149149D01*
X0223028Y0147834D01*
X0223028Y0146410D01*
X0223573Y0145095D01*
X0224580Y0144089D01*
X0225895Y0143544D01*
X0227318Y0143544D01*
X0228633Y0144089D01*
X0229829Y0145554D02*
X0233383Y0145554D01*
X0233028Y0146752D02*
X0230184Y0146752D01*
X0230136Y0147951D02*
X0233077Y0147951D01*
X0233574Y0149149D02*
X0229639Y0149149D01*
X0228168Y0150348D02*
X0235045Y0150348D01*
X0229682Y0151546D02*
X0223531Y0151546D01*
X0223633Y0151589D02*
X0224640Y0152595D01*
X0225184Y0153910D01*
X0225184Y0155334D01*
X0224640Y0156649D01*
X0223633Y0157655D01*
X0222318Y0158200D01*
X0220895Y0158200D01*
X0219580Y0157655D01*
X0218573Y0156649D01*
X0218028Y0155334D01*
X0218028Y0153910D01*
X0218573Y0152595D01*
X0219580Y0151589D01*
X0220895Y0151044D01*
X0222318Y0151044D01*
X0223633Y0151589D01*
X0224701Y0152745D02*
X0228511Y0152745D01*
X0228028Y0153943D02*
X0225184Y0153943D01*
X0225184Y0155142D02*
X0228028Y0155142D01*
X0228445Y0156340D02*
X0224767Y0156340D01*
X0223749Y0157539D02*
X0229463Y0157539D01*
X0229480Y0159936D02*
X0233732Y0159936D01*
X0233143Y0161134D02*
X0230070Y0161134D01*
X0230184Y0162333D02*
X0233028Y0162333D01*
X0233317Y0163531D02*
X0229895Y0163531D01*
X0229058Y0164730D02*
X0234154Y0164730D01*
X0234171Y0167127D02*
X0239041Y0167127D01*
X0238271Y0168326D02*
X0234942Y0168326D01*
X0235184Y0169524D02*
X0238028Y0169524D01*
X0238189Y0170723D02*
X0235023Y0170723D01*
X0228189Y0170723D02*
X0225023Y0170723D01*
X0225184Y0169524D02*
X0228028Y0169524D01*
X0228271Y0168326D02*
X0224942Y0168326D01*
X0224171Y0167127D02*
X0229041Y0167127D01*
X0224154Y0164730D02*
X0219058Y0164730D01*
X0219895Y0163531D02*
X0223317Y0163531D01*
X0223028Y0162333D02*
X0220184Y0162333D01*
X0220070Y0161134D02*
X0223143Y0161134D01*
X0223732Y0159936D02*
X0219480Y0159936D01*
X0219463Y0157539D02*
X0213749Y0157539D01*
X0213633Y0157655D02*
X0212318Y0158200D01*
X0210895Y0158200D01*
X0209580Y0157655D01*
X0208573Y0156649D01*
X0208028Y0155334D01*
X0208028Y0153910D01*
X0208573Y0152595D01*
X0209580Y0151589D01*
X0210895Y0151044D01*
X0212318Y0151044D01*
X0213633Y0151589D01*
X0214640Y0152595D01*
X0215184Y0153910D01*
X0215184Y0155334D01*
X0214640Y0156649D01*
X0213633Y0157655D01*
X0214767Y0156340D02*
X0218445Y0156340D01*
X0218028Y0155142D02*
X0215184Y0155142D01*
X0215184Y0153943D02*
X0218028Y0153943D01*
X0218511Y0152745D02*
X0214701Y0152745D01*
X0213531Y0151546D02*
X0219682Y0151546D01*
X0218633Y0150155D02*
X0217318Y0150700D01*
X0215895Y0150700D01*
X0214580Y0150155D01*
X0213573Y0149149D01*
X0213028Y0147834D01*
X0213028Y0146410D01*
X0213573Y0145095D01*
X0214580Y0144089D01*
X0215895Y0143544D01*
X0217318Y0143544D01*
X0218633Y0144089D01*
X0219640Y0145095D01*
X0220184Y0146410D01*
X0220184Y0147834D01*
X0219640Y0149149D01*
X0218633Y0150155D01*
X0218168Y0150348D02*
X0225045Y0150348D01*
X0223574Y0149149D02*
X0219639Y0149149D01*
X0220136Y0147951D02*
X0223077Y0147951D01*
X0223028Y0146752D02*
X0220184Y0146752D01*
X0219829Y0145554D02*
X0223383Y0145554D01*
X0224313Y0144355D02*
X0218900Y0144355D01*
X0214313Y0144355D02*
X0208900Y0144355D01*
X0208633Y0144089D02*
X0209640Y0145095D01*
X0210184Y0146410D01*
X0210184Y0147834D01*
X0209640Y0149149D01*
X0208633Y0150155D01*
X0207318Y0150700D01*
X0205895Y0150700D01*
X0204580Y0150155D01*
X0203573Y0149149D01*
X0203028Y0147834D01*
X0203028Y0146410D01*
X0203573Y0145095D01*
X0204580Y0144089D01*
X0205895Y0143544D01*
X0207318Y0143544D01*
X0208633Y0144089D01*
X0209829Y0145554D02*
X0213383Y0145554D01*
X0213028Y0146752D02*
X0210184Y0146752D01*
X0210136Y0147951D02*
X0213077Y0147951D01*
X0213574Y0149149D02*
X0209639Y0149149D01*
X0208168Y0150348D02*
X0215045Y0150348D01*
X0209682Y0151546D02*
X0203531Y0151546D01*
X0203633Y0151589D02*
X0204640Y0152595D01*
X0205184Y0153910D01*
X0205184Y0155334D01*
X0204640Y0156649D01*
X0203633Y0157655D01*
X0202318Y0158200D01*
X0200895Y0158200D01*
X0199580Y0157655D01*
X0198573Y0156649D01*
X0198028Y0155334D01*
X0198028Y0153910D01*
X0198573Y0152595D01*
X0199580Y0151589D01*
X0200895Y0151044D01*
X0202318Y0151044D01*
X0203633Y0151589D01*
X0204701Y0152745D02*
X0208511Y0152745D01*
X0208028Y0153943D02*
X0205184Y0153943D01*
X0205184Y0155142D02*
X0208028Y0155142D01*
X0208445Y0156340D02*
X0204767Y0156340D01*
X0203749Y0157539D02*
X0209463Y0157539D01*
X0209480Y0159936D02*
X0213732Y0159936D01*
X0213143Y0161134D02*
X0210070Y0161134D01*
X0210184Y0162333D02*
X0213028Y0162333D01*
X0213317Y0163531D02*
X0209895Y0163531D01*
X0209058Y0164730D02*
X0214154Y0164730D01*
X0214171Y0167127D02*
X0219041Y0167127D01*
X0218271Y0168326D02*
X0214942Y0168326D01*
X0215184Y0169524D02*
X0218028Y0169524D01*
X0218189Y0170723D02*
X0215023Y0170723D01*
X0208189Y0170723D02*
X0205023Y0170723D01*
X0205184Y0169524D02*
X0208028Y0169524D01*
X0208271Y0168326D02*
X0204942Y0168326D01*
X0204171Y0167127D02*
X0209041Y0167127D01*
X0204154Y0164730D02*
X0199058Y0164730D01*
X0199895Y0163531D02*
X0203317Y0163531D01*
X0203028Y0162333D02*
X0200184Y0162333D01*
X0200070Y0161134D02*
X0203143Y0161134D01*
X0203732Y0159936D02*
X0199480Y0159936D01*
X0199463Y0157539D02*
X0193749Y0157539D01*
X0193633Y0157655D02*
X0192318Y0158200D01*
X0190895Y0158200D01*
X0189580Y0157655D01*
X0188573Y0156649D01*
X0188028Y0155334D01*
X0188028Y0153910D01*
X0188573Y0152595D01*
X0189580Y0151589D01*
X0190895Y0151044D01*
X0192318Y0151044D01*
X0193633Y0151589D01*
X0194640Y0152595D01*
X0195184Y0153910D01*
X0195184Y0155334D01*
X0194640Y0156649D01*
X0193633Y0157655D01*
X0194767Y0156340D02*
X0198445Y0156340D01*
X0198028Y0155142D02*
X0195184Y0155142D01*
X0195184Y0153943D02*
X0198028Y0153943D01*
X0198511Y0152745D02*
X0194701Y0152745D01*
X0193531Y0151546D02*
X0199682Y0151546D01*
X0198633Y0150155D02*
X0197318Y0150700D01*
X0195895Y0150700D01*
X0194580Y0150155D01*
X0193573Y0149149D01*
X0193028Y0147834D01*
X0193028Y0146410D01*
X0193573Y0145095D01*
X0194580Y0144089D01*
X0195895Y0143544D01*
X0197318Y0143544D01*
X0198633Y0144089D01*
X0199640Y0145095D01*
X0200184Y0146410D01*
X0200184Y0147834D01*
X0199640Y0149149D01*
X0198633Y0150155D01*
X0198168Y0150348D02*
X0205045Y0150348D01*
X0203574Y0149149D02*
X0199639Y0149149D01*
X0200136Y0147951D02*
X0203077Y0147951D01*
X0203028Y0146752D02*
X0200184Y0146752D01*
X0199829Y0145554D02*
X0203383Y0145554D01*
X0204313Y0144355D02*
X0198900Y0144355D01*
X0194313Y0144355D02*
X0188900Y0144355D01*
X0188633Y0144089D02*
X0189640Y0145095D01*
X0190184Y0146410D01*
X0190184Y0147834D01*
X0189640Y0149149D01*
X0188633Y0150155D01*
X0187318Y0150700D01*
X0185895Y0150700D01*
X0184580Y0150155D01*
X0183573Y0149149D01*
X0183028Y0147834D01*
X0183028Y0146410D01*
X0183573Y0145095D01*
X0184580Y0144089D01*
X0185895Y0143544D01*
X0187318Y0143544D01*
X0188633Y0144089D01*
X0189829Y0145554D02*
X0193383Y0145554D01*
X0193028Y0146752D02*
X0190184Y0146752D01*
X0190136Y0147951D02*
X0193077Y0147951D01*
X0193574Y0149149D02*
X0189639Y0149149D01*
X0188168Y0150348D02*
X0195045Y0150348D01*
X0189682Y0151546D02*
X0183531Y0151546D01*
X0183633Y0151589D02*
X0184640Y0152595D01*
X0185184Y0153910D01*
X0185184Y0155334D01*
X0184640Y0156649D01*
X0183633Y0157655D01*
X0182318Y0158200D01*
X0180895Y0158200D01*
X0179580Y0157655D01*
X0178573Y0156649D01*
X0178028Y0155334D01*
X0178028Y0153910D01*
X0178573Y0152595D01*
X0179580Y0151589D01*
X0180895Y0151044D01*
X0182318Y0151044D01*
X0183633Y0151589D01*
X0184701Y0152745D02*
X0188511Y0152745D01*
X0188028Y0153943D02*
X0185184Y0153943D01*
X0185184Y0155142D02*
X0188028Y0155142D01*
X0188445Y0156340D02*
X0184767Y0156340D01*
X0183749Y0157539D02*
X0189463Y0157539D01*
X0189480Y0159936D02*
X0193732Y0159936D01*
X0193143Y0161134D02*
X0190070Y0161134D01*
X0190184Y0162333D02*
X0193028Y0162333D01*
X0193317Y0163531D02*
X0189895Y0163531D01*
X0189058Y0164730D02*
X0194154Y0164730D01*
X0194171Y0167127D02*
X0199041Y0167127D01*
X0198271Y0168326D02*
X0194942Y0168326D01*
X0195184Y0169524D02*
X0198028Y0169524D01*
X0198189Y0170723D02*
X0195023Y0170723D01*
X0189041Y0167127D02*
X0184171Y0167127D01*
X0184942Y0168326D02*
X0188271Y0168326D01*
X0188028Y0169524D02*
X0185184Y0169524D01*
X0185023Y0170723D02*
X0188189Y0170723D01*
X0184154Y0164730D02*
X0179058Y0164730D01*
X0179895Y0163531D02*
X0183317Y0163531D01*
X0183028Y0162333D02*
X0180184Y0162333D01*
X0180070Y0161134D02*
X0183143Y0161134D01*
X0183732Y0159936D02*
X0179480Y0159936D01*
X0179463Y0157539D02*
X0173749Y0157539D01*
X0174767Y0156340D02*
X0178445Y0156340D01*
X0178028Y0155142D02*
X0175184Y0155142D01*
X0175184Y0153943D02*
X0178028Y0153943D01*
X0178511Y0152745D02*
X0174701Y0152745D01*
X0173531Y0151546D02*
X0179682Y0151546D01*
X0178168Y0150348D02*
X0185045Y0150348D01*
X0183574Y0149149D02*
X0179639Y0149149D01*
X0180136Y0147951D02*
X0183077Y0147951D01*
X0183028Y0146752D02*
X0180184Y0146752D01*
X0179829Y0145554D02*
X0183383Y0145554D01*
X0184313Y0144355D02*
X0178900Y0144355D01*
X0173732Y0159936D02*
X0169480Y0159936D01*
X0170070Y0161134D02*
X0173143Y0161134D01*
X0173028Y0162333D02*
X0170184Y0162333D01*
X0169895Y0163531D02*
X0173317Y0163531D01*
X0174154Y0164730D02*
X0169058Y0164730D01*
X0164154Y0164730D02*
X0163935Y0164730D01*
X0165427Y0158737D02*
X0165428Y0158737D01*
X0174171Y0167127D02*
X0179041Y0167127D01*
X0178271Y0168326D02*
X0174942Y0168326D01*
X0175184Y0169524D02*
X0178028Y0169524D01*
X0178189Y0170723D02*
X0175023Y0170723D01*
X0144875Y0165929D02*
X0009257Y0165929D01*
X0009257Y0167127D02*
X0069041Y0167127D01*
X0068271Y0168326D02*
X0009257Y0168326D01*
X0009257Y0169524D02*
X0068028Y0169524D01*
X0068189Y0170723D02*
X0052896Y0170723D01*
X0047419Y0170723D02*
X0009257Y0170723D01*
X0009257Y0171921D02*
X0039657Y0171921D01*
X0039657Y0173120D02*
X0009257Y0173120D01*
X0009257Y0174318D02*
X0039657Y0174318D01*
X0039657Y0175517D02*
X0009257Y0175517D01*
X0009257Y0176715D02*
X0039657Y0176715D01*
X0039657Y0177914D02*
X0009257Y0177914D01*
X0009257Y0179112D02*
X0039657Y0179112D01*
X0039657Y0180311D02*
X0009257Y0180311D01*
X0009257Y0181509D02*
X0039657Y0181509D01*
X0039657Y0182708D02*
X0009257Y0182708D01*
X0009257Y0183906D02*
X0039657Y0183906D01*
X0039657Y0185105D02*
X0009257Y0185105D01*
X0009257Y0186303D02*
X0039657Y0186303D01*
X0039657Y0187502D02*
X0009257Y0187502D01*
X0009257Y0188700D02*
X0039657Y0188700D01*
X0039657Y0189899D02*
X0009257Y0189899D01*
X0009257Y0191097D02*
X0039657Y0191097D01*
X0039657Y0192296D02*
X0009257Y0192296D01*
X0009257Y0193494D02*
X0039657Y0193494D01*
X0039657Y0194693D02*
X0009257Y0194693D01*
X0009257Y0195891D02*
X0039657Y0195891D01*
X0039657Y0197090D02*
X0009257Y0197090D01*
X0009257Y0198288D02*
X0039657Y0198288D01*
X0039657Y0199487D02*
X0009257Y0199487D01*
X0009257Y0200685D02*
X0039657Y0200685D01*
X0039657Y0201884D02*
X0009257Y0201884D01*
X0009257Y0203082D02*
X0039657Y0203082D01*
X0039657Y0204281D02*
X0009257Y0204281D01*
X0009257Y0205479D02*
X0039657Y0205479D01*
X0039657Y0206678D02*
X0009257Y0206678D01*
X0009257Y0207876D02*
X0039657Y0207876D01*
X0039657Y0209075D02*
X0009257Y0209075D01*
X0009257Y0210273D02*
X0039657Y0210273D01*
X0039657Y0211472D02*
X0009257Y0211472D01*
X0009257Y0212670D02*
X0039657Y0212670D01*
X0039657Y0213869D02*
X0009257Y0213869D01*
X0009257Y0215067D02*
X0039657Y0215067D01*
X0039657Y0216266D02*
X0009257Y0216266D01*
X0009257Y0217465D02*
X0039657Y0217465D01*
X0039657Y0218663D02*
X0009257Y0218663D01*
X0009257Y0219862D02*
X0039657Y0219862D01*
X0039657Y0221060D02*
X0009257Y0221060D01*
X0009257Y0222259D02*
X0039657Y0222259D01*
X0039657Y0223457D02*
X0009257Y0223457D01*
X0009257Y0224656D02*
X0037636Y0224656D01*
X0036925Y0225854D02*
X0009257Y0225854D01*
X0009257Y0227053D02*
X0035552Y0227053D01*
X0034087Y0228251D02*
X0009257Y0228251D01*
X0009257Y0229450D02*
X0033635Y0229450D01*
X0033651Y0230648D02*
X0009257Y0230648D01*
X0009257Y0231847D02*
X0034185Y0231847D01*
X0035902Y0233045D02*
X0009257Y0233045D01*
X0009257Y0234244D02*
X0034347Y0234244D01*
X0033718Y0235442D02*
X0009257Y0235442D01*
X0009257Y0236641D02*
X0033635Y0236641D01*
X0034020Y0237839D02*
X0017381Y0237839D01*
X0016967Y0237425D02*
X0018193Y0238651D01*
X0018856Y0240252D01*
X0018856Y0241985D01*
X0018193Y0243586D01*
X0016967Y0244811D01*
X0015366Y0245474D01*
X0013634Y0245474D01*
X0012033Y0244811D01*
X0010807Y0243586D01*
X0010144Y0241985D01*
X0010144Y0240252D01*
X0010807Y0238651D01*
X0012033Y0237425D01*
X0013634Y0236762D01*
X0015366Y0236762D01*
X0016967Y0237425D01*
X0018353Y0239038D02*
X0035162Y0239038D01*
X0038484Y0239038D02*
X0039657Y0239038D01*
X0039657Y0240236D02*
X0018849Y0240236D01*
X0018856Y0241435D02*
X0037904Y0241435D01*
X0037013Y0242633D02*
X0018587Y0242633D01*
X0017947Y0243832D02*
X0036746Y0243832D01*
X0034309Y0245030D02*
X0016438Y0245030D01*
X0015366Y0246762D02*
X0016967Y0247425D01*
X0018193Y0248651D01*
X0018856Y0250252D01*
X0018856Y0251985D01*
X0018193Y0253586D01*
X0016967Y0254811D01*
X0015366Y0255474D01*
X0013634Y0255474D01*
X0012033Y0254811D01*
X0010807Y0253586D01*
X0010144Y0251985D01*
X0010144Y0250252D01*
X0010807Y0248651D01*
X0012033Y0247425D01*
X0013634Y0246762D01*
X0015366Y0246762D01*
X0016969Y0247427D02*
X0033596Y0247427D01*
X0033679Y0246229D02*
X0009257Y0246229D01*
X0009257Y0247427D02*
X0012031Y0247427D01*
X0010832Y0248626D02*
X0009257Y0248626D01*
X0009257Y0249824D02*
X0010321Y0249824D01*
X0010144Y0251023D02*
X0009257Y0251023D01*
X0009257Y0252221D02*
X0010242Y0252221D01*
X0010739Y0253420D02*
X0009257Y0253420D01*
X0009257Y0254618D02*
X0011840Y0254618D01*
X0013022Y0257015D02*
X0009257Y0257015D01*
X0009257Y0255817D02*
X0034730Y0255817D01*
X0033854Y0254618D02*
X0017160Y0254618D01*
X0018261Y0253420D02*
X0033596Y0253420D01*
X0033806Y0252221D02*
X0018758Y0252221D01*
X0018856Y0251023D02*
X0034615Y0251023D01*
X0035121Y0249824D02*
X0018679Y0249824D01*
X0018168Y0248626D02*
X0033981Y0248626D01*
X0038836Y0255817D02*
X0039657Y0255817D01*
X0039657Y0257015D02*
X0015978Y0257015D01*
X0015366Y0256762D02*
X0016967Y0257425D01*
X0018193Y0258651D01*
X0018856Y0260252D01*
X0018856Y0261985D01*
X0018193Y0263586D01*
X0016967Y0264811D01*
X0015366Y0265474D01*
X0013634Y0265474D01*
X0012033Y0264811D01*
X0010807Y0263586D01*
X0010144Y0261985D01*
X0010144Y0260252D01*
X0010807Y0258651D01*
X0012033Y0257425D01*
X0013634Y0256762D01*
X0015366Y0256762D01*
X0017756Y0258214D02*
X0038015Y0258214D01*
X0037059Y0259412D02*
X0018508Y0259412D01*
X0018856Y0260611D02*
X0036746Y0260611D01*
X0034419Y0261809D02*
X0018856Y0261809D01*
X0018432Y0263008D02*
X0033725Y0263008D01*
X0033596Y0264206D02*
X0017572Y0264206D01*
X0015533Y0265405D02*
X0033935Y0265405D01*
X0034927Y0266603D02*
X0009257Y0266603D01*
X0009257Y0265405D02*
X0013467Y0265405D01*
X0013634Y0266762D02*
X0012033Y0267425D01*
X0010807Y0268651D01*
X0010144Y0270252D01*
X0010144Y0271985D01*
X0010807Y0273586D01*
X0012033Y0274811D01*
X0013634Y0275474D01*
X0015366Y0275474D01*
X0016967Y0274811D01*
X0018193Y0273586D01*
X0018856Y0271985D01*
X0018856Y0270252D01*
X0018193Y0268651D01*
X0016967Y0267425D01*
X0015366Y0266762D01*
X0013634Y0266762D01*
X0011656Y0267802D02*
X0009257Y0267802D01*
X0009257Y0269000D02*
X0010662Y0269000D01*
X0010166Y0270199D02*
X0009257Y0270199D01*
X0009257Y0271398D02*
X0010144Y0271398D01*
X0010397Y0272596D02*
X0009257Y0272596D01*
X0009257Y0273795D02*
X0011016Y0273795D01*
X0012472Y0274993D02*
X0009257Y0274993D01*
X0009257Y0276192D02*
X0037147Y0276192D01*
X0036706Y0277390D02*
X0009257Y0277390D01*
X0009257Y0278589D02*
X0034687Y0278589D01*
X0033813Y0279787D02*
X0009257Y0279787D01*
X0009257Y0280986D02*
X0033557Y0280986D01*
X0033768Y0282184D02*
X0009257Y0282184D01*
X0009257Y0283383D02*
X0034580Y0283383D01*
X0035072Y0284581D02*
X0009257Y0284581D01*
X0009257Y0285780D02*
X0033940Y0285780D01*
X0033557Y0286978D02*
X0009257Y0286978D01*
X0009257Y0288177D02*
X0033641Y0288177D01*
X0034273Y0289375D02*
X0009257Y0289375D01*
X0016528Y0274993D02*
X0038558Y0274993D01*
X0039657Y0273795D02*
X0017984Y0273795D01*
X0018603Y0272596D02*
X0034620Y0272596D01*
X0033808Y0271398D02*
X0018856Y0271398D01*
X0018834Y0270199D02*
X0033596Y0270199D01*
X0033852Y0269000D02*
X0018338Y0269000D01*
X0017344Y0267802D02*
X0034726Y0267802D01*
X0038947Y0272596D02*
X0039657Y0272596D01*
X0042657Y0257015D02*
X0099657Y0257015D01*
X0099657Y0255817D02*
X0042657Y0255817D01*
X0042657Y0254618D02*
X0082950Y0254618D01*
X0082517Y0254439D02*
X0081455Y0253376D01*
X0080880Y0251988D01*
X0080880Y0250485D01*
X0081455Y0249096D01*
X0082517Y0248033D01*
X0083906Y0247458D01*
X0085409Y0247458D01*
X0086798Y0248033D01*
X0087860Y0249096D01*
X0088435Y0250485D01*
X0088435Y0251988D01*
X0087860Y0253376D01*
X0086798Y0254439D01*
X0085409Y0255014D01*
X0083906Y0255014D01*
X0082517Y0254439D01*
X0081498Y0253420D02*
X0042657Y0253420D01*
X0042657Y0252221D02*
X0080976Y0252221D01*
X0080880Y0251023D02*
X0043047Y0251023D01*
X0043120Y0249824D02*
X0081153Y0249824D01*
X0081925Y0248626D02*
X0042726Y0248626D01*
X0042657Y0247427D02*
X0099657Y0247427D01*
X0099657Y0246229D02*
X0042657Y0246229D01*
X0042920Y0245030D02*
X0099657Y0245030D01*
X0099657Y0243832D02*
X0043120Y0243832D01*
X0042853Y0242633D02*
X0099657Y0242633D01*
X0099657Y0241435D02*
X0042657Y0241435D01*
X0042657Y0240236D02*
X0099657Y0240236D01*
X0099657Y0239038D02*
X0042657Y0239038D01*
X0042657Y0237839D02*
X0099657Y0237839D01*
X0099657Y0236641D02*
X0042657Y0236641D01*
X0042657Y0235442D02*
X0099657Y0235442D01*
X0099657Y0234244D02*
X0042959Y0234244D01*
X0043160Y0233045D02*
X0099657Y0233045D01*
X0099657Y0231847D02*
X0042893Y0231847D01*
X0042657Y0230648D02*
X0099657Y0230648D01*
X0099657Y0229450D02*
X0042657Y0229450D01*
X0042832Y0228251D02*
X0099657Y0228251D01*
X0099657Y0227053D02*
X0094872Y0227053D01*
X0094661Y0227140D02*
X0093158Y0227140D01*
X0091769Y0226565D01*
X0090707Y0225502D01*
X0090131Y0224114D01*
X0090131Y0222611D01*
X0090707Y0221222D01*
X0091769Y0220159D01*
X0093158Y0219584D01*
X0094661Y0219584D01*
X0096049Y0220159D01*
X0097112Y0221222D01*
X0097687Y0222611D01*
X0097687Y0224114D01*
X0097112Y0225502D01*
X0096049Y0226565D01*
X0094661Y0227140D01*
X0092947Y0227053D02*
X0043160Y0227053D01*
X0043020Y0225854D02*
X0059798Y0225854D01*
X0059545Y0225749D02*
X0058648Y0224853D01*
X0058163Y0223681D01*
X0058163Y0222413D01*
X0058648Y0221242D01*
X0059366Y0220524D01*
X0059151Y0220434D01*
X0058255Y0219538D01*
X0057769Y0218366D01*
X0057769Y0217098D01*
X0058255Y0215927D01*
X0059151Y0215030D01*
X0060323Y0214545D01*
X0060919Y0214545D01*
X0060919Y0214342D01*
X0061404Y0213171D01*
X0061707Y0212868D01*
X0060803Y0213243D01*
X0059535Y0213243D01*
X0058364Y0212757D01*
X0057467Y0211861D01*
X0056982Y0210689D01*
X0056982Y0209421D01*
X0057467Y0208250D01*
X0057925Y0207791D01*
X0057861Y0207727D01*
X0057376Y0206555D01*
X0057376Y0205287D01*
X0057861Y0204116D01*
X0058713Y0203264D01*
X0058255Y0202806D01*
X0057769Y0201634D01*
X0057769Y0200366D01*
X0058255Y0199194D01*
X0059008Y0198441D01*
X0058255Y0197687D01*
X0057769Y0196516D01*
X0057769Y0195248D01*
X0058255Y0194076D01*
X0059151Y0193180D01*
X0060323Y0192694D01*
X0061116Y0192694D01*
X0061116Y0192689D01*
X0061377Y0192057D01*
X0060606Y0192376D01*
X0059338Y0192376D01*
X0058167Y0191891D01*
X0057270Y0190994D01*
X0056785Y0189823D01*
X0056785Y0188555D01*
X0057270Y0187383D01*
X0058167Y0186487D01*
X0059217Y0186052D01*
X0058648Y0185483D01*
X0058163Y0184311D01*
X0058163Y0183043D01*
X0058648Y0181872D01*
X0059545Y0180975D01*
X0060716Y0180490D01*
X0061313Y0180490D01*
X0061313Y0180287D01*
X0061798Y0179116D01*
X0062694Y0178219D01*
X0063866Y0177734D01*
X0065134Y0177734D01*
X0066306Y0178219D01*
X0067202Y0179116D01*
X0067687Y0180287D01*
X0067687Y0181555D01*
X0067202Y0182727D01*
X0066306Y0183623D01*
X0066176Y0183677D01*
X0066306Y0183731D01*
X0067202Y0184628D01*
X0067687Y0185799D01*
X0067687Y0187067D01*
X0067202Y0188239D01*
X0066306Y0189135D01*
X0065134Y0189620D01*
X0063866Y0189620D01*
X0063160Y0189328D01*
X0063160Y0189823D01*
X0062898Y0190455D01*
X0063669Y0190135D01*
X0064937Y0190135D01*
X0066109Y0190621D01*
X0067005Y0191517D01*
X0067491Y0192689D01*
X0067491Y0193957D01*
X0067005Y0195128D01*
X0066350Y0195783D01*
X0067202Y0196635D01*
X0067687Y0197807D01*
X0067687Y0199075D01*
X0067202Y0200246D01*
X0066449Y0201000D01*
X0067202Y0201754D01*
X0067687Y0202925D01*
X0067687Y0204193D01*
X0067202Y0205365D01*
X0066645Y0205921D01*
X0067202Y0206478D01*
X0067687Y0207649D01*
X0067687Y0208917D01*
X0067202Y0210089D01*
X0066306Y0210986D01*
X0065134Y0211471D01*
X0063866Y0211471D01*
X0063155Y0211176D01*
X0062871Y0211861D01*
X0062569Y0212163D01*
X0063472Y0211789D01*
X0064740Y0211789D01*
X0065912Y0212274D01*
X0066808Y0213171D01*
X0067294Y0214342D01*
X0067294Y0215610D01*
X0066808Y0216782D01*
X0066090Y0217500D01*
X0066306Y0217589D01*
X0067202Y0218486D01*
X0067687Y0219657D01*
X0067687Y0220925D01*
X0067202Y0222097D01*
X0066306Y0222993D01*
X0065134Y0223479D01*
X0064538Y0223479D01*
X0064538Y0223681D01*
X0064053Y0224853D01*
X0063156Y0225749D01*
X0061984Y0226235D01*
X0060716Y0226235D01*
X0059545Y0225749D01*
X0058567Y0224656D02*
X0042657Y0224656D01*
X0042657Y0223457D02*
X0058163Y0223457D01*
X0058227Y0222259D02*
X0042657Y0222259D01*
X0042657Y0221060D02*
X0058830Y0221060D01*
X0058578Y0219862D02*
X0042657Y0219862D01*
X0042657Y0218663D02*
X0057892Y0218663D01*
X0057769Y0217465D02*
X0042657Y0217465D01*
X0042657Y0216266D02*
X0058114Y0216266D01*
X0059114Y0215067D02*
X0042657Y0215067D01*
X0042657Y0213869D02*
X0061115Y0213869D01*
X0063032Y0211472D02*
X0124736Y0211472D01*
X0124736Y0210273D02*
X0067018Y0210273D01*
X0067622Y0209075D02*
X0124736Y0209075D01*
X0124736Y0207876D02*
X0067687Y0207876D01*
X0067285Y0206678D02*
X0124736Y0206678D01*
X0124736Y0205479D02*
X0067087Y0205479D01*
X0067651Y0204281D02*
X0124736Y0204281D01*
X0124736Y0203082D02*
X0067687Y0203082D01*
X0067256Y0201884D02*
X0124736Y0201884D01*
X0124736Y0200685D02*
X0066763Y0200685D01*
X0067517Y0199487D02*
X0124736Y0199487D01*
X0124736Y0198288D02*
X0067687Y0198288D01*
X0067390Y0197090D02*
X0124736Y0197090D01*
X0124736Y0195891D02*
X0066458Y0195891D01*
X0067186Y0194693D02*
X0073300Y0194693D01*
X0072943Y0194545D02*
X0072046Y0193648D01*
X0071561Y0192477D01*
X0071561Y0191209D01*
X0072046Y0190037D01*
X0072943Y0189140D01*
X0074114Y0188655D01*
X0075382Y0188655D01*
X0076554Y0189140D01*
X0077450Y0190037D01*
X0077935Y0191209D01*
X0077935Y0192477D01*
X0077450Y0193648D01*
X0076554Y0194545D01*
X0075382Y0195030D01*
X0074114Y0195030D01*
X0072943Y0194545D01*
X0071982Y0193494D02*
X0067491Y0193494D01*
X0067328Y0192296D02*
X0071561Y0192296D01*
X0071607Y0191097D02*
X0066585Y0191097D01*
X0066740Y0188700D02*
X0074005Y0188700D01*
X0075491Y0188700D02*
X0124736Y0188700D01*
X0124736Y0187502D02*
X0067507Y0187502D01*
X0067687Y0186303D02*
X0124736Y0186303D01*
X0124736Y0185105D02*
X0067400Y0185105D01*
X0066481Y0183906D02*
X0124736Y0183906D01*
X0124736Y0182708D02*
X0088587Y0182708D01*
X0089025Y0182270D02*
X0088128Y0183167D01*
X0086957Y0183652D01*
X0085689Y0183652D01*
X0084517Y0183167D01*
X0083621Y0182270D01*
X0083135Y0181099D01*
X0083135Y0179831D01*
X0083621Y0178659D01*
X0084517Y0177762D01*
X0085689Y0177277D01*
X0086957Y0177277D01*
X0088128Y0177762D01*
X0089025Y0178659D01*
X0089510Y0179831D01*
X0089510Y0181099D01*
X0089025Y0182270D01*
X0089340Y0181509D02*
X0124736Y0181509D01*
X0124736Y0180311D02*
X0089510Y0180311D01*
X0089213Y0179112D02*
X0124736Y0179112D01*
X0124736Y0177914D02*
X0088280Y0177914D01*
X0084366Y0177914D02*
X0065568Y0177914D01*
X0067199Y0179112D02*
X0083433Y0179112D01*
X0083135Y0180311D02*
X0067687Y0180311D01*
X0067687Y0181509D02*
X0083306Y0181509D01*
X0084058Y0182708D02*
X0067210Y0182708D01*
X0063432Y0177914D02*
X0042657Y0177914D01*
X0042657Y0179112D02*
X0061801Y0179112D01*
X0061313Y0180311D02*
X0042657Y0180311D01*
X0042657Y0181509D02*
X0059011Y0181509D01*
X0058302Y0182708D02*
X0042657Y0182708D01*
X0042657Y0183906D02*
X0058163Y0183906D01*
X0058492Y0185105D02*
X0042657Y0185105D01*
X0042657Y0186303D02*
X0058610Y0186303D01*
X0057221Y0187502D02*
X0042657Y0187502D01*
X0042657Y0188700D02*
X0056785Y0188700D01*
X0056816Y0189899D02*
X0042657Y0189899D01*
X0042657Y0191097D02*
X0057373Y0191097D01*
X0059144Y0192296D02*
X0042657Y0192296D01*
X0042657Y0193494D02*
X0058837Y0193494D01*
X0057999Y0194693D02*
X0042657Y0194693D01*
X0042657Y0195891D02*
X0057769Y0195891D01*
X0058007Y0197090D02*
X0042657Y0197090D01*
X0042657Y0198288D02*
X0058855Y0198288D01*
X0058133Y0199487D02*
X0042657Y0199487D01*
X0047859Y0200685D02*
X0057769Y0200685D01*
X0057873Y0201884D02*
X0048649Y0201884D01*
X0048935Y0203082D02*
X0058531Y0203082D01*
X0057792Y0204281D02*
X0048851Y0204281D01*
X0048348Y0205479D02*
X0057376Y0205479D01*
X0057426Y0206678D02*
X0046939Y0206678D01*
X0043376Y0206678D02*
X0042657Y0206678D01*
X0042657Y0207876D02*
X0057840Y0207876D01*
X0057125Y0209075D02*
X0042657Y0209075D01*
X0042657Y0210273D02*
X0056982Y0210273D01*
X0057306Y0211472D02*
X0042657Y0211472D01*
X0042657Y0212670D02*
X0058277Y0212670D01*
X0066308Y0212670D02*
X0124712Y0212670D01*
X0124666Y0213869D02*
X0067098Y0213869D01*
X0067294Y0215067D02*
X0124621Y0215067D01*
X0124576Y0216266D02*
X0067022Y0216266D01*
X0066126Y0217465D02*
X0099657Y0217465D01*
X0099657Y0218663D02*
X0067276Y0218663D01*
X0067687Y0219862D02*
X0092489Y0219862D01*
X0090869Y0221060D02*
X0067632Y0221060D01*
X0067040Y0222259D02*
X0090277Y0222259D01*
X0090131Y0223457D02*
X0065186Y0223457D01*
X0064134Y0224656D02*
X0090356Y0224656D01*
X0091059Y0225854D02*
X0062903Y0225854D01*
X0039657Y0237839D02*
X0039625Y0237839D01*
X0012562Y0245030D02*
X0009257Y0245030D01*
X0009257Y0243832D02*
X0011053Y0243832D01*
X0010413Y0242633D02*
X0009257Y0242633D01*
X0009257Y0241435D02*
X0010144Y0241435D01*
X0010150Y0240236D02*
X0009257Y0240236D01*
X0009257Y0239038D02*
X0010647Y0239038D01*
X0011619Y0237839D02*
X0009257Y0237839D01*
X0009257Y0258214D02*
X0011244Y0258214D01*
X0010492Y0259412D02*
X0009257Y0259412D01*
X0009257Y0260611D02*
X0010144Y0260611D01*
X0010144Y0261809D02*
X0009257Y0261809D01*
X0009257Y0263008D02*
X0010568Y0263008D01*
X0011428Y0264206D02*
X0009257Y0264206D01*
X0086365Y0254618D02*
X0099657Y0254618D01*
X0099657Y0253420D02*
X0087817Y0253420D01*
X0088339Y0252221D02*
X0099657Y0252221D01*
X0099657Y0251023D02*
X0088435Y0251023D01*
X0088162Y0249824D02*
X0099657Y0249824D01*
X0099657Y0248626D02*
X0087390Y0248626D01*
X0102657Y0248626D02*
X0135262Y0248626D01*
X0135262Y0249824D02*
X0102657Y0249824D01*
X0102657Y0251023D02*
X0135262Y0251023D01*
X0135262Y0252221D02*
X0102657Y0252221D01*
X0102657Y0253420D02*
X0135262Y0253420D01*
X0135262Y0254618D02*
X0102657Y0254618D01*
X0102657Y0255817D02*
X0135262Y0255817D01*
X0135262Y0257015D02*
X0102657Y0257015D01*
X0102657Y0258214D02*
X0135364Y0258214D01*
X0136563Y0259412D02*
X0102657Y0259412D01*
X0102657Y0260611D02*
X0137761Y0260611D01*
X0138960Y0261809D02*
X0102657Y0261809D01*
X0102657Y0247427D02*
X0135262Y0247427D01*
X0135262Y0246229D02*
X0102657Y0246229D01*
X0102657Y0245030D02*
X0135262Y0245030D01*
X0135262Y0243832D02*
X0120732Y0243832D01*
X0120291Y0244014D02*
X0119023Y0244014D01*
X0117852Y0243529D01*
X0116955Y0242632D01*
X0116470Y0241461D01*
X0116470Y0240193D01*
X0116955Y0239021D01*
X0117852Y0238125D01*
X0119023Y0237639D01*
X0120291Y0237639D01*
X0121463Y0238125D01*
X0122360Y0239021D01*
X0122845Y0240193D01*
X0122845Y0241461D01*
X0122360Y0242632D01*
X0121463Y0243529D01*
X0120291Y0244014D01*
X0118583Y0243832D02*
X0102657Y0243832D01*
X0102657Y0242633D02*
X0116956Y0242633D01*
X0116470Y0241435D02*
X0102657Y0241435D01*
X0102657Y0240236D02*
X0116470Y0240236D01*
X0116948Y0239038D02*
X0102657Y0239038D01*
X0102657Y0237839D02*
X0118541Y0237839D01*
X0120774Y0237839D02*
X0123324Y0237839D01*
X0123455Y0237521D02*
X0124276Y0236700D01*
X0123970Y0235961D01*
X0123970Y0234693D01*
X0124455Y0233521D01*
X0125352Y0232625D01*
X0126523Y0232139D01*
X0127791Y0232139D01*
X0128963Y0232625D01*
X0129860Y0233521D01*
X0130345Y0234693D01*
X0130345Y0235961D01*
X0129860Y0237132D01*
X0129039Y0237953D01*
X0129345Y0238693D01*
X0129345Y0239961D01*
X0128860Y0241132D01*
X0127963Y0242029D01*
X0126791Y0242514D01*
X0125523Y0242514D01*
X0124352Y0242029D01*
X0123455Y0241132D01*
X0122970Y0239961D01*
X0122970Y0238693D01*
X0123455Y0237521D01*
X0124252Y0236641D02*
X0102657Y0236641D01*
X0102657Y0235442D02*
X0123970Y0235442D01*
X0124156Y0234244D02*
X0102657Y0234244D01*
X0102657Y0233045D02*
X0124931Y0233045D01*
X0129384Y0233045D02*
X0135262Y0233045D01*
X0135262Y0231847D02*
X0102657Y0231847D01*
X0102657Y0230648D02*
X0135262Y0230648D01*
X0135262Y0229450D02*
X0102657Y0229450D01*
X0102657Y0228251D02*
X0135262Y0228251D01*
X0135262Y0227053D02*
X0102657Y0227053D01*
X0102657Y0225854D02*
X0135262Y0225854D01*
X0135262Y0224656D02*
X0102657Y0224656D01*
X0102657Y0223457D02*
X0135262Y0223457D01*
X0135262Y0222259D02*
X0102657Y0222259D01*
X0102657Y0221060D02*
X0135262Y0221060D01*
X0135262Y0219862D02*
X0102657Y0219862D01*
X0099657Y0219862D02*
X0095330Y0219862D01*
X0096950Y0221060D02*
X0099657Y0221060D01*
X0099657Y0222259D02*
X0097542Y0222259D01*
X0097687Y0223457D02*
X0099657Y0223457D01*
X0099657Y0224656D02*
X0097463Y0224656D01*
X0096760Y0225854D02*
X0099657Y0225854D01*
X0122366Y0239038D02*
X0122970Y0239038D01*
X0123084Y0240236D02*
X0122845Y0240236D01*
X0122845Y0241435D02*
X0123758Y0241435D01*
X0122359Y0242633D02*
X0135262Y0242633D01*
X0135262Y0241435D02*
X0128557Y0241435D01*
X0129231Y0240236D02*
X0135262Y0240236D01*
X0135262Y0239038D02*
X0129345Y0239038D01*
X0129153Y0237839D02*
X0135262Y0237839D01*
X0135262Y0236641D02*
X0130063Y0236641D01*
X0130345Y0235442D02*
X0135262Y0235442D01*
X0135262Y0234244D02*
X0130159Y0234244D01*
X0143553Y0246229D02*
X0166746Y0246229D01*
X0166631Y0247427D02*
X0143553Y0247427D01*
X0145493Y0248626D02*
X0167016Y0248626D01*
X0168383Y0249824D02*
X0147891Y0249824D01*
X0171945Y0269000D02*
X0187291Y0269000D01*
X0181291Y0303139D02*
X0180023Y0303139D01*
X0178852Y0303625D01*
X0177955Y0304521D01*
X0177470Y0305693D01*
X0177470Y0306961D01*
X0177955Y0308132D01*
X0178852Y0309029D01*
X0180023Y0309514D01*
X0181291Y0309514D01*
X0182463Y0309029D01*
X0183360Y0308132D01*
X0183845Y0306961D01*
X0183845Y0305693D01*
X0183360Y0304521D01*
X0182463Y0303625D01*
X0181291Y0303139D01*
X0182596Y0303757D02*
X0200219Y0303757D01*
X0199568Y0304956D02*
X0183540Y0304956D01*
X0183845Y0306154D02*
X0199470Y0306154D01*
X0199840Y0307353D02*
X0183682Y0307353D01*
X0182941Y0308551D02*
X0200906Y0308551D01*
X0178374Y0308551D02*
X0102657Y0308551D01*
X0102657Y0307353D02*
X0177632Y0307353D01*
X0177470Y0306154D02*
X0102657Y0306154D01*
X0102657Y0304956D02*
X0177775Y0304956D01*
X0178719Y0303757D02*
X0102657Y0303757D01*
X0102657Y0289375D02*
X0124698Y0289375D01*
X0124060Y0288177D02*
X0102657Y0288177D01*
X0102657Y0286978D02*
X0123970Y0286978D01*
X0124348Y0285780D02*
X0102657Y0285780D01*
X0102657Y0326529D02*
X0128261Y0326529D01*
X0126692Y0327728D02*
X0102657Y0327728D01*
X0102657Y0328926D02*
X0126154Y0328926D01*
X0126076Y0330125D02*
X0108463Y0330125D01*
X0109485Y0331323D02*
X0126401Y0331323D01*
X0127288Y0332522D02*
X0109845Y0332522D01*
X0104852Y0330125D02*
X0102657Y0330125D01*
X0102657Y0331323D02*
X0103830Y0331323D01*
X0103470Y0332522D02*
X0102657Y0332522D01*
X0102657Y0333720D02*
X0103577Y0333720D01*
X0104242Y0334919D02*
X0102657Y0334919D01*
X0127657Y0218663D02*
X0135262Y0218663D01*
X0135262Y0217465D02*
X0127657Y0217465D01*
X0127657Y0216266D02*
X0135262Y0216266D01*
X0135262Y0215067D02*
X0127657Y0215067D01*
X0127657Y0213869D02*
X0135262Y0213869D01*
X0135262Y0212670D02*
X0127657Y0212670D01*
X0127657Y0211472D02*
X0135262Y0211472D01*
X0135262Y0210273D02*
X0127657Y0210273D01*
X0127657Y0209075D02*
X0135262Y0209075D01*
X0135262Y0207876D02*
X0127657Y0207876D01*
X0127657Y0206678D02*
X0135262Y0206678D01*
X0135262Y0205479D02*
X0127657Y0205479D01*
X0127657Y0204281D02*
X0135262Y0204281D01*
X0135262Y0203082D02*
X0127657Y0203082D01*
X0127657Y0201884D02*
X0135262Y0201884D01*
X0135262Y0200685D02*
X0127657Y0200685D01*
X0127657Y0199487D02*
X0135262Y0199487D01*
X0135262Y0198288D02*
X0127657Y0198288D01*
X0127657Y0197090D02*
X0135262Y0197090D01*
X0135262Y0195891D02*
X0127657Y0195891D01*
X0127657Y0194693D02*
X0135262Y0194693D01*
X0135262Y0193494D02*
X0127657Y0193494D01*
X0127657Y0192296D02*
X0135262Y0192296D01*
X0135262Y0191097D02*
X0127657Y0191097D01*
X0127657Y0189899D02*
X0135262Y0189899D01*
X0135262Y0188700D02*
X0127657Y0188700D01*
X0127657Y0187502D02*
X0135262Y0187502D01*
X0135262Y0186303D02*
X0127657Y0186303D01*
X0127657Y0185105D02*
X0135262Y0185105D01*
X0135262Y0183906D02*
X0127657Y0183906D01*
X0127657Y0182708D02*
X0135262Y0182708D01*
X0135262Y0181509D02*
X0127657Y0181509D01*
X0127657Y0180311D02*
X0135262Y0180311D01*
X0136192Y0179112D02*
X0127657Y0179112D01*
X0127657Y0177914D02*
X0137390Y0177914D01*
X0138589Y0176715D02*
X0127657Y0176715D01*
X0127657Y0175517D02*
X0139787Y0175517D01*
X0138189Y0170723D02*
X0135023Y0170723D01*
X0135184Y0169524D02*
X0138028Y0169524D01*
X0138271Y0168326D02*
X0134942Y0168326D01*
X0134171Y0167127D02*
X0139041Y0167127D01*
X0138633Y0165155D02*
X0137318Y0165700D01*
X0135895Y0165700D01*
X0134580Y0165155D01*
X0133573Y0164149D01*
X0133028Y0162834D01*
X0133028Y0161410D01*
X0133573Y0160095D01*
X0134580Y0159089D01*
X0135895Y0158544D01*
X0137318Y0158544D01*
X0138633Y0159089D01*
X0139640Y0160095D01*
X0140184Y0161410D01*
X0140184Y0162834D01*
X0139640Y0164149D01*
X0138633Y0165155D01*
X0139058Y0164730D02*
X0144154Y0164730D01*
X0143317Y0163531D02*
X0139895Y0163531D01*
X0140184Y0162333D02*
X0143028Y0162333D01*
X0143143Y0161134D02*
X0140070Y0161134D01*
X0139480Y0159936D02*
X0143732Y0159936D01*
X0145428Y0158737D02*
X0137785Y0158737D01*
X0139463Y0157539D02*
X0133749Y0157539D01*
X0133633Y0157655D02*
X0132318Y0158200D01*
X0130895Y0158200D01*
X0129580Y0157655D01*
X0128573Y0156649D01*
X0128028Y0155334D01*
X0128028Y0153910D01*
X0128573Y0152595D01*
X0129580Y0151589D01*
X0130895Y0151044D01*
X0132318Y0151044D01*
X0133633Y0151589D01*
X0134640Y0152595D01*
X0135184Y0153910D01*
X0135184Y0155334D01*
X0134640Y0156649D01*
X0133633Y0157655D01*
X0134767Y0156340D02*
X0138445Y0156340D01*
X0138573Y0156649D02*
X0138028Y0155334D01*
X0138028Y0153910D01*
X0138573Y0152595D01*
X0139580Y0151589D01*
X0140895Y0151044D01*
X0142318Y0151044D01*
X0143633Y0151589D01*
X0144640Y0152595D01*
X0145184Y0153910D01*
X0145184Y0155334D01*
X0144640Y0156649D01*
X0143633Y0157655D01*
X0142318Y0158200D01*
X0140895Y0158200D01*
X0139580Y0157655D01*
X0138573Y0156649D01*
X0138028Y0155142D02*
X0135184Y0155142D01*
X0135184Y0153943D02*
X0138028Y0153943D01*
X0138511Y0152745D02*
X0134701Y0152745D01*
X0133531Y0151546D02*
X0139682Y0151546D01*
X0138633Y0150155D02*
X0137318Y0150700D01*
X0135895Y0150700D01*
X0134580Y0150155D01*
X0133573Y0149149D01*
X0133028Y0147834D01*
X0133028Y0146410D01*
X0133573Y0145095D01*
X0134580Y0144089D01*
X0135895Y0143544D01*
X0137318Y0143544D01*
X0138633Y0144089D01*
X0139640Y0145095D01*
X0140184Y0146410D01*
X0140184Y0147834D01*
X0139640Y0149149D01*
X0138633Y0150155D01*
X0138168Y0150348D02*
X0145045Y0150348D01*
X0143574Y0149149D02*
X0139639Y0149149D01*
X0140136Y0147951D02*
X0143077Y0147951D01*
X0143028Y0146752D02*
X0140184Y0146752D01*
X0139829Y0145554D02*
X0143383Y0145554D01*
X0144313Y0144355D02*
X0138900Y0144355D01*
X0134313Y0144355D02*
X0128900Y0144355D01*
X0128633Y0144089D02*
X0129640Y0145095D01*
X0130184Y0146410D01*
X0130184Y0147834D01*
X0129640Y0149149D01*
X0128633Y0150155D01*
X0127318Y0150700D01*
X0125895Y0150700D01*
X0124580Y0150155D01*
X0123573Y0149149D01*
X0123028Y0147834D01*
X0123028Y0146410D01*
X0123573Y0145095D01*
X0124580Y0144089D01*
X0125895Y0143544D01*
X0127318Y0143544D01*
X0128633Y0144089D01*
X0129829Y0145554D02*
X0133383Y0145554D01*
X0133028Y0146752D02*
X0130184Y0146752D01*
X0130136Y0147951D02*
X0133077Y0147951D01*
X0133574Y0149149D02*
X0129639Y0149149D01*
X0128168Y0150348D02*
X0135045Y0150348D01*
X0129682Y0151546D02*
X0123531Y0151546D01*
X0123633Y0151589D02*
X0124640Y0152595D01*
X0125184Y0153910D01*
X0125184Y0155334D01*
X0124640Y0156649D01*
X0123633Y0157655D01*
X0122318Y0158200D01*
X0120895Y0158200D01*
X0119580Y0157655D01*
X0118573Y0156649D01*
X0118028Y0155334D01*
X0118028Y0153910D01*
X0118573Y0152595D01*
X0119580Y0151589D01*
X0120895Y0151044D01*
X0122318Y0151044D01*
X0123633Y0151589D01*
X0124701Y0152745D02*
X0128511Y0152745D01*
X0128028Y0153943D02*
X0125184Y0153943D01*
X0125184Y0155142D02*
X0128028Y0155142D01*
X0128445Y0156340D02*
X0124767Y0156340D01*
X0123749Y0157539D02*
X0129463Y0157539D01*
X0128633Y0159089D02*
X0129640Y0160095D01*
X0130184Y0161410D01*
X0130184Y0162834D01*
X0129640Y0164149D01*
X0128633Y0165155D01*
X0127318Y0165700D01*
X0125895Y0165700D01*
X0124580Y0165155D01*
X0123573Y0164149D01*
X0123028Y0162834D01*
X0123028Y0161410D01*
X0123573Y0160095D01*
X0124580Y0159089D01*
X0125895Y0158544D01*
X0127318Y0158544D01*
X0128633Y0159089D01*
X0127785Y0158737D02*
X0135428Y0158737D01*
X0133732Y0159936D02*
X0129480Y0159936D01*
X0130070Y0161134D02*
X0133143Y0161134D01*
X0133028Y0162333D02*
X0130184Y0162333D01*
X0129895Y0163531D02*
X0133317Y0163531D01*
X0134154Y0164730D02*
X0129058Y0164730D01*
X0129041Y0167127D02*
X0124171Y0167127D01*
X0124942Y0168326D02*
X0128271Y0168326D01*
X0128028Y0169524D02*
X0125184Y0169524D01*
X0125023Y0170723D02*
X0128189Y0170723D01*
X0124154Y0164730D02*
X0119058Y0164730D01*
X0118633Y0165155D02*
X0117318Y0165700D01*
X0115895Y0165700D01*
X0114580Y0165155D01*
X0113573Y0164149D01*
X0113028Y0162834D01*
X0113028Y0161410D01*
X0113573Y0160095D01*
X0114580Y0159089D01*
X0115895Y0158544D01*
X0117318Y0158544D01*
X0118633Y0159089D01*
X0119640Y0160095D01*
X0120184Y0161410D01*
X0120184Y0162834D01*
X0119640Y0164149D01*
X0118633Y0165155D01*
X0119041Y0167127D02*
X0114171Y0167127D01*
X0114942Y0168326D02*
X0118271Y0168326D01*
X0118028Y0169524D02*
X0115184Y0169524D01*
X0115023Y0170723D02*
X0118189Y0170723D01*
X0114154Y0164730D02*
X0109058Y0164730D01*
X0108633Y0165155D02*
X0107318Y0165700D01*
X0105895Y0165700D01*
X0104580Y0165155D01*
X0103573Y0164149D01*
X0103028Y0162834D01*
X0103028Y0161410D01*
X0103573Y0160095D01*
X0104580Y0159089D01*
X0105895Y0158544D01*
X0107318Y0158544D01*
X0108633Y0159089D01*
X0109640Y0160095D01*
X0110184Y0161410D01*
X0110184Y0162834D01*
X0109640Y0164149D01*
X0108633Y0165155D01*
X0109041Y0167127D02*
X0104171Y0167127D01*
X0104942Y0168326D02*
X0108271Y0168326D01*
X0108028Y0169524D02*
X0105184Y0169524D01*
X0105023Y0170723D02*
X0108189Y0170723D01*
X0104154Y0164730D02*
X0099058Y0164730D01*
X0098633Y0165155D02*
X0097318Y0165700D01*
X0095895Y0165700D01*
X0094580Y0165155D01*
X0093573Y0164149D01*
X0093028Y0162834D01*
X0093028Y0161410D01*
X0093573Y0160095D01*
X0094580Y0159089D01*
X0095895Y0158544D01*
X0097318Y0158544D01*
X0098633Y0159089D01*
X0099640Y0160095D01*
X0100184Y0161410D01*
X0100184Y0162834D01*
X0099640Y0164149D01*
X0098633Y0165155D01*
X0099041Y0167127D02*
X0094171Y0167127D01*
X0094942Y0168326D02*
X0098271Y0168326D01*
X0098028Y0169524D02*
X0095184Y0169524D01*
X0095023Y0170723D02*
X0098189Y0170723D01*
X0094154Y0164730D02*
X0089058Y0164730D01*
X0088633Y0165155D02*
X0087318Y0165700D01*
X0085895Y0165700D01*
X0084580Y0165155D01*
X0083573Y0164149D01*
X0083028Y0162834D01*
X0083028Y0161410D01*
X0083573Y0160095D01*
X0084580Y0159089D01*
X0085895Y0158544D01*
X0087318Y0158544D01*
X0088633Y0159089D01*
X0089640Y0160095D01*
X0090184Y0161410D01*
X0090184Y0162834D01*
X0089640Y0164149D01*
X0088633Y0165155D01*
X0089041Y0167127D02*
X0084171Y0167127D01*
X0084942Y0168326D02*
X0088271Y0168326D01*
X0088028Y0169524D02*
X0085184Y0169524D01*
X0085023Y0170723D02*
X0088189Y0170723D01*
X0084154Y0164730D02*
X0079058Y0164730D01*
X0078633Y0165155D02*
X0077318Y0165700D01*
X0075895Y0165700D01*
X0074580Y0165155D01*
X0073573Y0164149D01*
X0073028Y0162834D01*
X0073028Y0161410D01*
X0073573Y0160095D01*
X0074580Y0159089D01*
X0075895Y0158544D01*
X0077318Y0158544D01*
X0078633Y0159089D01*
X0079640Y0160095D01*
X0080184Y0161410D01*
X0080184Y0162834D01*
X0079640Y0164149D01*
X0078633Y0165155D01*
X0079041Y0167127D02*
X0074171Y0167127D01*
X0074942Y0168326D02*
X0078271Y0168326D01*
X0078028Y0169524D02*
X0075184Y0169524D01*
X0075023Y0170723D02*
X0078189Y0170723D01*
X0074154Y0164730D02*
X0009257Y0164730D01*
X0009257Y0163531D02*
X0073317Y0163531D01*
X0073028Y0162333D02*
X0009257Y0162333D01*
X0009257Y0161134D02*
X0073143Y0161134D01*
X0073732Y0159936D02*
X0009257Y0159936D01*
X0009257Y0158737D02*
X0075428Y0158737D01*
X0073749Y0157539D02*
X0079463Y0157539D01*
X0079580Y0157655D02*
X0078573Y0156649D01*
X0078028Y0155334D01*
X0078028Y0153910D01*
X0078573Y0152595D01*
X0079580Y0151589D01*
X0080895Y0151044D01*
X0082318Y0151044D01*
X0083633Y0151589D01*
X0084640Y0152595D01*
X0085184Y0153910D01*
X0085184Y0155334D01*
X0084640Y0156649D01*
X0083633Y0157655D01*
X0082318Y0158200D01*
X0080895Y0158200D01*
X0079580Y0157655D01*
X0078445Y0156340D02*
X0074767Y0156340D01*
X0074640Y0156649D02*
X0073633Y0157655D01*
X0072318Y0158200D01*
X0070895Y0158200D01*
X0069580Y0157655D01*
X0068573Y0156649D01*
X0068028Y0155334D01*
X0068028Y0153910D01*
X0068573Y0152595D01*
X0069580Y0151589D01*
X0070895Y0151044D01*
X0072318Y0151044D01*
X0073633Y0151589D01*
X0074640Y0152595D01*
X0075184Y0153910D01*
X0075184Y0155334D01*
X0074640Y0156649D01*
X0075184Y0155142D02*
X0078028Y0155142D01*
X0078028Y0153943D02*
X0075184Y0153943D01*
X0074701Y0152745D02*
X0078511Y0152745D01*
X0079682Y0151546D02*
X0073531Y0151546D01*
X0074580Y0150155D02*
X0073573Y0149149D01*
X0073028Y0147834D01*
X0073028Y0146410D01*
X0073573Y0145095D01*
X0074580Y0144089D01*
X0075895Y0143544D01*
X0077318Y0143544D01*
X0078633Y0144089D01*
X0079640Y0145095D01*
X0080184Y0146410D01*
X0080184Y0147834D01*
X0079640Y0149149D01*
X0078633Y0150155D01*
X0077318Y0150700D01*
X0075895Y0150700D01*
X0074580Y0150155D01*
X0075045Y0150348D02*
X0009257Y0150348D01*
X0009257Y0151546D02*
X0069682Y0151546D01*
X0068511Y0152745D02*
X0009257Y0152745D01*
X0009257Y0153943D02*
X0068028Y0153943D01*
X0068028Y0155142D02*
X0009257Y0155142D01*
X0009257Y0156340D02*
X0068445Y0156340D01*
X0069463Y0157539D02*
X0009257Y0157539D01*
X0009257Y0149149D02*
X0073574Y0149149D01*
X0073077Y0147951D02*
X0009257Y0147951D01*
X0009257Y0146752D02*
X0073028Y0146752D01*
X0073383Y0145554D02*
X0009257Y0145554D01*
X0009257Y0144355D02*
X0074313Y0144355D01*
X0078900Y0144355D02*
X0084313Y0144355D01*
X0084580Y0144089D02*
X0085895Y0143544D01*
X0087318Y0143544D01*
X0088633Y0144089D01*
X0089640Y0145095D01*
X0090184Y0146410D01*
X0090184Y0147834D01*
X0089640Y0149149D01*
X0088633Y0150155D01*
X0087318Y0150700D01*
X0085895Y0150700D01*
X0084580Y0150155D01*
X0083573Y0149149D01*
X0083028Y0147834D01*
X0083028Y0146410D01*
X0083573Y0145095D01*
X0084580Y0144089D01*
X0083383Y0145554D02*
X0079829Y0145554D01*
X0080184Y0146752D02*
X0083028Y0146752D01*
X0083077Y0147951D02*
X0080136Y0147951D01*
X0079639Y0149149D02*
X0083574Y0149149D01*
X0085045Y0150348D02*
X0078168Y0150348D01*
X0083531Y0151546D02*
X0089682Y0151546D01*
X0089580Y0151589D02*
X0090895Y0151044D01*
X0092318Y0151044D01*
X0093633Y0151589D01*
X0094640Y0152595D01*
X0095184Y0153910D01*
X0095184Y0155334D01*
X0094640Y0156649D01*
X0093633Y0157655D01*
X0092318Y0158200D01*
X0090895Y0158200D01*
X0089580Y0157655D01*
X0088573Y0156649D01*
X0088028Y0155334D01*
X0088028Y0153910D01*
X0088573Y0152595D01*
X0089580Y0151589D01*
X0088511Y0152745D02*
X0084701Y0152745D01*
X0085184Y0153943D02*
X0088028Y0153943D01*
X0088028Y0155142D02*
X0085184Y0155142D01*
X0084767Y0156340D02*
X0088445Y0156340D01*
X0089463Y0157539D02*
X0083749Y0157539D01*
X0085428Y0158737D02*
X0077785Y0158737D01*
X0079480Y0159936D02*
X0083732Y0159936D01*
X0083143Y0161134D02*
X0080070Y0161134D01*
X0080184Y0162333D02*
X0083028Y0162333D01*
X0083317Y0163531D02*
X0079895Y0163531D01*
X0087785Y0158737D02*
X0095428Y0158737D01*
X0093749Y0157539D02*
X0099463Y0157539D01*
X0099580Y0157655D02*
X0098573Y0156649D01*
X0098028Y0155334D01*
X0098028Y0153910D01*
X0098573Y0152595D01*
X0099580Y0151589D01*
X0100895Y0151044D01*
X0102318Y0151044D01*
X0103633Y0151589D01*
X0104640Y0152595D01*
X0105184Y0153910D01*
X0105184Y0155334D01*
X0104640Y0156649D01*
X0103633Y0157655D01*
X0102318Y0158200D01*
X0100895Y0158200D01*
X0099580Y0157655D01*
X0098445Y0156340D02*
X0094767Y0156340D01*
X0095184Y0155142D02*
X0098028Y0155142D01*
X0098028Y0153943D02*
X0095184Y0153943D01*
X0094701Y0152745D02*
X0098511Y0152745D01*
X0099682Y0151546D02*
X0093531Y0151546D01*
X0094580Y0150155D02*
X0093573Y0149149D01*
X0093028Y0147834D01*
X0093028Y0146410D01*
X0093573Y0145095D01*
X0094580Y0144089D01*
X0095895Y0143544D01*
X0097318Y0143544D01*
X0098633Y0144089D01*
X0099640Y0145095D01*
X0100184Y0146410D01*
X0100184Y0147834D01*
X0099640Y0149149D01*
X0098633Y0150155D01*
X0097318Y0150700D01*
X0095895Y0150700D01*
X0094580Y0150155D01*
X0095045Y0150348D02*
X0088168Y0150348D01*
X0089639Y0149149D02*
X0093574Y0149149D01*
X0093077Y0147951D02*
X0090136Y0147951D01*
X0090184Y0146752D02*
X0093028Y0146752D01*
X0093383Y0145554D02*
X0089829Y0145554D01*
X0088900Y0144355D02*
X0094313Y0144355D01*
X0098900Y0144355D02*
X0104313Y0144355D01*
X0104580Y0144089D02*
X0105895Y0143544D01*
X0107318Y0143544D01*
X0108633Y0144089D01*
X0109640Y0145095D01*
X0110184Y0146410D01*
X0110184Y0147834D01*
X0109640Y0149149D01*
X0108633Y0150155D01*
X0107318Y0150700D01*
X0105895Y0150700D01*
X0104580Y0150155D01*
X0103573Y0149149D01*
X0103028Y0147834D01*
X0103028Y0146410D01*
X0103573Y0145095D01*
X0104580Y0144089D01*
X0103383Y0145554D02*
X0099829Y0145554D01*
X0100184Y0146752D02*
X0103028Y0146752D01*
X0103077Y0147951D02*
X0100136Y0147951D01*
X0099639Y0149149D02*
X0103574Y0149149D01*
X0105045Y0150348D02*
X0098168Y0150348D01*
X0103531Y0151546D02*
X0109682Y0151546D01*
X0109580Y0151589D02*
X0110895Y0151044D01*
X0112318Y0151044D01*
X0113633Y0151589D01*
X0114640Y0152595D01*
X0115184Y0153910D01*
X0115184Y0155334D01*
X0114640Y0156649D01*
X0113633Y0157655D01*
X0112318Y0158200D01*
X0110895Y0158200D01*
X0109580Y0157655D01*
X0108573Y0156649D01*
X0108028Y0155334D01*
X0108028Y0153910D01*
X0108573Y0152595D01*
X0109580Y0151589D01*
X0108511Y0152745D02*
X0104701Y0152745D01*
X0105184Y0153943D02*
X0108028Y0153943D01*
X0108028Y0155142D02*
X0105184Y0155142D01*
X0104767Y0156340D02*
X0108445Y0156340D01*
X0109463Y0157539D02*
X0103749Y0157539D01*
X0105428Y0158737D02*
X0097785Y0158737D01*
X0099480Y0159936D02*
X0103732Y0159936D01*
X0103143Y0161134D02*
X0100070Y0161134D01*
X0100184Y0162333D02*
X0103028Y0162333D01*
X0103317Y0163531D02*
X0099895Y0163531D01*
X0093317Y0163531D02*
X0089895Y0163531D01*
X0090184Y0162333D02*
X0093028Y0162333D01*
X0093143Y0161134D02*
X0090070Y0161134D01*
X0089480Y0159936D02*
X0093732Y0159936D01*
X0107785Y0158737D02*
X0115428Y0158737D01*
X0113749Y0157539D02*
X0119463Y0157539D01*
X0118445Y0156340D02*
X0114767Y0156340D01*
X0115184Y0155142D02*
X0118028Y0155142D01*
X0118028Y0153943D02*
X0115184Y0153943D01*
X0114701Y0152745D02*
X0118511Y0152745D01*
X0119682Y0151546D02*
X0113531Y0151546D01*
X0114580Y0150155D02*
X0113573Y0149149D01*
X0113028Y0147834D01*
X0113028Y0146410D01*
X0113573Y0145095D01*
X0114580Y0144089D01*
X0115895Y0143544D01*
X0117318Y0143544D01*
X0118633Y0144089D01*
X0119640Y0145095D01*
X0120184Y0146410D01*
X0120184Y0147834D01*
X0119640Y0149149D01*
X0118633Y0150155D01*
X0117318Y0150700D01*
X0115895Y0150700D01*
X0114580Y0150155D01*
X0115045Y0150348D02*
X0108168Y0150348D01*
X0109639Y0149149D02*
X0113574Y0149149D01*
X0113077Y0147951D02*
X0110136Y0147951D01*
X0110184Y0146752D02*
X0113028Y0146752D01*
X0113383Y0145554D02*
X0109829Y0145554D01*
X0108900Y0144355D02*
X0114313Y0144355D01*
X0118900Y0144355D02*
X0124313Y0144355D01*
X0123383Y0145554D02*
X0119829Y0145554D01*
X0120184Y0146752D02*
X0123028Y0146752D01*
X0123077Y0147951D02*
X0120136Y0147951D01*
X0119639Y0149149D02*
X0123574Y0149149D01*
X0125045Y0150348D02*
X0118168Y0150348D01*
X0117785Y0158737D02*
X0125428Y0158737D01*
X0123732Y0159936D02*
X0119480Y0159936D01*
X0120070Y0161134D02*
X0123143Y0161134D01*
X0123028Y0162333D02*
X0120184Y0162333D01*
X0119895Y0163531D02*
X0123317Y0163531D01*
X0113317Y0163531D02*
X0109895Y0163531D01*
X0110184Y0162333D02*
X0113028Y0162333D01*
X0113143Y0161134D02*
X0110070Y0161134D01*
X0109480Y0159936D02*
X0113732Y0159936D01*
X0124736Y0175517D02*
X0053310Y0175517D01*
X0051850Y0176715D02*
X0124736Y0176715D01*
X0124736Y0189899D02*
X0077312Y0189899D01*
X0077889Y0191097D02*
X0124736Y0191097D01*
X0124736Y0192296D02*
X0077935Y0192296D01*
X0077514Y0193494D02*
X0124736Y0193494D01*
X0124736Y0194693D02*
X0076196Y0194693D01*
X0072184Y0189899D02*
X0063128Y0189899D01*
X0061279Y0192296D02*
X0060801Y0192296D01*
X0048465Y0176715D02*
X0042657Y0176715D01*
X0042657Y0175517D02*
X0047004Y0175517D01*
X0009257Y0143157D02*
X0148762Y0143157D01*
X0148762Y0141958D02*
X0009257Y0141958D01*
X0009257Y0140760D02*
X0148762Y0140760D01*
X0148762Y0139561D02*
X0009257Y0139561D01*
X0009257Y0138363D02*
X0148762Y0138363D01*
X0146758Y0151546D02*
X0143531Y0151546D01*
X0144701Y0152745D02*
X0146262Y0152745D01*
X0146262Y0153943D02*
X0145184Y0153943D01*
X0145184Y0155142D02*
X0146262Y0155142D01*
X0146262Y0156340D02*
X0144767Y0156340D01*
X0143749Y0157539D02*
X0146262Y0157539D01*
X0144262Y0167127D02*
X0144171Y0167127D01*
X0178053Y0122782D02*
X0304102Y0122782D01*
X0303265Y0121584D02*
X0178053Y0121584D01*
X0178053Y0120385D02*
X0302857Y0120385D01*
X0302857Y0119187D02*
X0178053Y0119187D01*
X0178053Y0117988D02*
X0303220Y0117988D01*
X0303995Y0116790D02*
X0178053Y0116790D01*
X0184200Y0111996D02*
X0188816Y0111996D01*
X0188282Y0111462D02*
X0187703Y0110064D01*
X0187703Y0108550D01*
X0188282Y0107152D01*
X0189353Y0106082D01*
X0190751Y0105502D01*
X0192265Y0105502D01*
X0193663Y0106082D01*
X0194733Y0107152D01*
X0195313Y0108550D01*
X0195313Y0110064D01*
X0194733Y0111462D01*
X0193663Y0112533D01*
X0192265Y0113112D01*
X0190751Y0113112D01*
X0189353Y0112533D01*
X0188282Y0111462D01*
X0188007Y0110797D02*
X0185009Y0110797D01*
X0185313Y0109598D02*
X0187703Y0109598D01*
X0187765Y0108400D02*
X0185250Y0108400D01*
X0184754Y0107201D02*
X0188262Y0107201D01*
X0189543Y0106003D02*
X0183473Y0106003D01*
X0193473Y0106003D02*
X0199543Y0106003D01*
X0199353Y0106082D02*
X0200751Y0105502D01*
X0202265Y0105502D01*
X0203663Y0106082D01*
X0204733Y0107152D01*
X0205313Y0108550D01*
X0205313Y0110064D01*
X0204733Y0111462D01*
X0203663Y0112533D01*
X0202265Y0113112D01*
X0200751Y0113112D01*
X0199353Y0112533D01*
X0198282Y0111462D01*
X0197703Y0110064D01*
X0197703Y0108550D01*
X0198282Y0107152D01*
X0199353Y0106082D01*
X0198262Y0107201D02*
X0194754Y0107201D01*
X0195250Y0108400D02*
X0197765Y0108400D01*
X0197703Y0109598D02*
X0195313Y0109598D01*
X0195009Y0110797D02*
X0198007Y0110797D01*
X0198816Y0111996D02*
X0194200Y0111996D01*
X0193788Y0102407D02*
X0199228Y0102407D01*
X0199353Y0102533D02*
X0198282Y0101462D01*
X0197703Y0100064D01*
X0197703Y0098550D01*
X0198282Y0097152D01*
X0199353Y0096082D01*
X0200751Y0095502D01*
X0202265Y0095502D01*
X0203663Y0096082D01*
X0204733Y0097152D01*
X0205313Y0098550D01*
X0205313Y0100064D01*
X0204733Y0101462D01*
X0203663Y0102533D01*
X0202265Y0103112D01*
X0200751Y0103112D01*
X0199353Y0102533D01*
X0198177Y0101209D02*
X0194838Y0101209D01*
X0195313Y0100010D02*
X0197703Y0100010D01*
X0197703Y0098812D02*
X0195313Y0098812D01*
X0194925Y0097613D02*
X0198091Y0097613D01*
X0199019Y0096415D02*
X0193996Y0096415D01*
X0203996Y0096415D02*
X0209019Y0096415D01*
X0209353Y0096082D02*
X0210751Y0095502D01*
X0212265Y0095502D01*
X0213663Y0096082D01*
X0214733Y0097152D01*
X0215313Y0098550D01*
X0215313Y0100064D01*
X0214733Y0101462D01*
X0213663Y0102533D01*
X0212265Y0103112D01*
X0210751Y0103112D01*
X0209353Y0102533D01*
X0208282Y0101462D01*
X0207703Y0100064D01*
X0207703Y0098550D01*
X0208282Y0097152D01*
X0209353Y0096082D01*
X0208091Y0097613D02*
X0204925Y0097613D01*
X0205313Y0098812D02*
X0207703Y0098812D01*
X0207703Y0100010D02*
X0205313Y0100010D01*
X0204838Y0101209D02*
X0208177Y0101209D01*
X0209228Y0102407D02*
X0203788Y0102407D01*
X0203473Y0106003D02*
X0209543Y0106003D01*
X0209353Y0106082D02*
X0210751Y0105502D01*
X0212265Y0105502D01*
X0213663Y0106082D01*
X0214733Y0107152D01*
X0215313Y0108550D01*
X0215313Y0110064D01*
X0214733Y0111462D01*
X0213663Y0112533D01*
X0212265Y0113112D01*
X0210751Y0113112D01*
X0209353Y0112533D01*
X0208282Y0111462D01*
X0207703Y0110064D01*
X0207703Y0108550D01*
X0208282Y0107152D01*
X0209353Y0106082D01*
X0208262Y0107201D02*
X0204754Y0107201D01*
X0205250Y0108400D02*
X0207765Y0108400D01*
X0207703Y0109598D02*
X0205313Y0109598D01*
X0205009Y0110797D02*
X0208007Y0110797D01*
X0208816Y0111996D02*
X0204200Y0111996D01*
X0213473Y0106003D02*
X0219543Y0106003D01*
X0219353Y0106082D02*
X0220751Y0105502D01*
X0222265Y0105502D01*
X0223663Y0106082D01*
X0224733Y0107152D01*
X0225313Y0108550D01*
X0225313Y0110064D01*
X0224733Y0111462D01*
X0223663Y0112533D01*
X0222265Y0113112D01*
X0220751Y0113112D01*
X0219353Y0112533D01*
X0218282Y0111462D01*
X0217703Y0110064D01*
X0217703Y0108550D01*
X0218282Y0107152D01*
X0219353Y0106082D01*
X0218262Y0107201D02*
X0214754Y0107201D01*
X0215250Y0108400D02*
X0217765Y0108400D01*
X0217703Y0109598D02*
X0215313Y0109598D01*
X0215009Y0110797D02*
X0218007Y0110797D01*
X0218816Y0111996D02*
X0214200Y0111996D01*
X0213788Y0102407D02*
X0219228Y0102407D01*
X0219353Y0102533D02*
X0218282Y0101462D01*
X0217703Y0100064D01*
X0217703Y0098550D01*
X0218282Y0097152D01*
X0219353Y0096082D01*
X0220751Y0095502D01*
X0222265Y0095502D01*
X0223663Y0096082D01*
X0224733Y0097152D01*
X0225313Y0098550D01*
X0225313Y0100064D01*
X0224733Y0101462D01*
X0223663Y0102533D01*
X0222265Y0103112D01*
X0220751Y0103112D01*
X0219353Y0102533D01*
X0218177Y0101209D02*
X0214838Y0101209D01*
X0215313Y0100010D02*
X0217703Y0100010D01*
X0217703Y0098812D02*
X0215313Y0098812D01*
X0214925Y0097613D02*
X0218091Y0097613D01*
X0219019Y0096415D02*
X0213996Y0096415D01*
X0223996Y0096415D02*
X0229019Y0096415D01*
X0229353Y0096082D02*
X0230751Y0095502D01*
X0232265Y0095502D01*
X0233663Y0096082D01*
X0234733Y0097152D01*
X0235313Y0098550D01*
X0235313Y0100064D01*
X0234733Y0101462D01*
X0233663Y0102533D01*
X0232265Y0103112D01*
X0230751Y0103112D01*
X0229353Y0102533D01*
X0228282Y0101462D01*
X0227703Y0100064D01*
X0227703Y0098550D01*
X0228282Y0097152D01*
X0229353Y0096082D01*
X0228091Y0097613D02*
X0224925Y0097613D01*
X0225313Y0098812D02*
X0227703Y0098812D01*
X0227703Y0100010D02*
X0225313Y0100010D01*
X0224838Y0101209D02*
X0228177Y0101209D01*
X0229228Y0102407D02*
X0223788Y0102407D01*
X0223473Y0106003D02*
X0229543Y0106003D01*
X0229353Y0106082D02*
X0230751Y0105502D01*
X0232265Y0105502D01*
X0233663Y0106082D01*
X0234733Y0107152D01*
X0235313Y0108550D01*
X0235313Y0110064D01*
X0234733Y0111462D01*
X0233663Y0112533D01*
X0232265Y0113112D01*
X0230751Y0113112D01*
X0229353Y0112533D01*
X0228282Y0111462D01*
X0227703Y0110064D01*
X0227703Y0108550D01*
X0228282Y0107152D01*
X0229353Y0106082D01*
X0228262Y0107201D02*
X0224754Y0107201D01*
X0225250Y0108400D02*
X0227765Y0108400D01*
X0227703Y0109598D02*
X0225313Y0109598D01*
X0225009Y0110797D02*
X0228007Y0110797D01*
X0228816Y0111996D02*
X0224200Y0111996D01*
X0234200Y0111996D02*
X0238816Y0111996D01*
X0238282Y0111462D02*
X0237703Y0110064D01*
X0237703Y0108550D01*
X0238282Y0107152D01*
X0239353Y0106082D01*
X0240751Y0105502D01*
X0242265Y0105502D01*
X0243663Y0106082D01*
X0244733Y0107152D01*
X0245313Y0108550D01*
X0245313Y0110064D01*
X0244733Y0111462D01*
X0243663Y0112533D01*
X0242265Y0113112D01*
X0240751Y0113112D01*
X0239353Y0112533D01*
X0238282Y0111462D01*
X0238007Y0110797D02*
X0235009Y0110797D01*
X0235313Y0109598D02*
X0237703Y0109598D01*
X0237765Y0108400D02*
X0235250Y0108400D01*
X0234754Y0107201D02*
X0238262Y0107201D01*
X0239543Y0106003D02*
X0233473Y0106003D01*
X0233788Y0102407D02*
X0239228Y0102407D01*
X0239353Y0102533D02*
X0238282Y0101462D01*
X0237703Y0100064D01*
X0237703Y0098550D01*
X0238282Y0097152D01*
X0239353Y0096082D01*
X0240751Y0095502D01*
X0242265Y0095502D01*
X0243663Y0096082D01*
X0244733Y0097152D01*
X0245313Y0098550D01*
X0245313Y0100064D01*
X0244733Y0101462D01*
X0243663Y0102533D01*
X0242265Y0103112D01*
X0240751Y0103112D01*
X0239353Y0102533D01*
X0238177Y0101209D02*
X0234838Y0101209D01*
X0235313Y0100010D02*
X0237703Y0100010D01*
X0237703Y0098812D02*
X0235313Y0098812D01*
X0234925Y0097613D02*
X0238091Y0097613D01*
X0239019Y0096415D02*
X0233996Y0096415D01*
X0243996Y0096415D02*
X0249019Y0096415D01*
X0249353Y0096082D02*
X0250751Y0095502D01*
X0252265Y0095502D01*
X0253663Y0096082D01*
X0254733Y0097152D01*
X0255313Y0098550D01*
X0255313Y0100064D01*
X0254733Y0101462D01*
X0253663Y0102533D01*
X0252265Y0103112D01*
X0250751Y0103112D01*
X0249353Y0102533D01*
X0248282Y0101462D01*
X0247703Y0100064D01*
X0247703Y0098550D01*
X0248282Y0097152D01*
X0249353Y0096082D01*
X0248091Y0097613D02*
X0244925Y0097613D01*
X0245313Y0098812D02*
X0247703Y0098812D01*
X0247703Y0100010D02*
X0245313Y0100010D01*
X0244838Y0101209D02*
X0248177Y0101209D01*
X0249228Y0102407D02*
X0243788Y0102407D01*
X0243473Y0106003D02*
X0249543Y0106003D01*
X0249353Y0106082D02*
X0250751Y0105502D01*
X0252265Y0105502D01*
X0253663Y0106082D01*
X0254733Y0107152D01*
X0255313Y0108550D01*
X0255313Y0110064D01*
X0254733Y0111462D01*
X0253663Y0112533D01*
X0252265Y0113112D01*
X0250751Y0113112D01*
X0249353Y0112533D01*
X0248282Y0111462D01*
X0247703Y0110064D01*
X0247703Y0108550D01*
X0248282Y0107152D01*
X0249353Y0106082D01*
X0248262Y0107201D02*
X0244754Y0107201D01*
X0245250Y0108400D02*
X0247765Y0108400D01*
X0247703Y0109598D02*
X0245313Y0109598D01*
X0245009Y0110797D02*
X0248007Y0110797D01*
X0248816Y0111996D02*
X0244200Y0111996D01*
X0254200Y0111996D02*
X0258816Y0111996D01*
X0258282Y0111462D02*
X0257703Y0110064D01*
X0257703Y0108550D01*
X0258282Y0107152D01*
X0259353Y0106082D01*
X0260751Y0105502D01*
X0262265Y0105502D01*
X0263663Y0106082D01*
X0264733Y0107152D01*
X0265313Y0108550D01*
X0265313Y0110064D01*
X0264733Y0111462D01*
X0263663Y0112533D01*
X0262265Y0113112D01*
X0260751Y0113112D01*
X0259353Y0112533D01*
X0258282Y0111462D01*
X0258007Y0110797D02*
X0255009Y0110797D01*
X0255313Y0109598D02*
X0257703Y0109598D01*
X0257765Y0108400D02*
X0255250Y0108400D01*
X0254754Y0107201D02*
X0258262Y0107201D01*
X0259543Y0106003D02*
X0253473Y0106003D01*
X0253788Y0102407D02*
X0259228Y0102407D01*
X0259353Y0102533D02*
X0258282Y0101462D01*
X0257703Y0100064D01*
X0257703Y0098550D01*
X0258282Y0097152D01*
X0259353Y0096082D01*
X0260751Y0095502D01*
X0262265Y0095502D01*
X0263663Y0096082D01*
X0264733Y0097152D01*
X0265313Y0098550D01*
X0265313Y0100064D01*
X0264733Y0101462D01*
X0263663Y0102533D01*
X0262265Y0103112D01*
X0260751Y0103112D01*
X0259353Y0102533D01*
X0258177Y0101209D02*
X0254838Y0101209D01*
X0255313Y0100010D02*
X0257703Y0100010D01*
X0257703Y0098812D02*
X0255313Y0098812D01*
X0254925Y0097613D02*
X0258091Y0097613D01*
X0259019Y0096415D02*
X0253996Y0096415D01*
X0263996Y0096415D02*
X0269019Y0096415D01*
X0268091Y0097613D02*
X0264925Y0097613D01*
X0265313Y0098812D02*
X0267703Y0098812D01*
X0267703Y0100010D02*
X0265313Y0100010D01*
X0264838Y0101209D02*
X0268177Y0101209D01*
X0269228Y0102407D02*
X0263788Y0102407D01*
X0263473Y0106003D02*
X0269543Y0106003D01*
X0268262Y0107201D02*
X0264754Y0107201D01*
X0265250Y0108400D02*
X0267765Y0108400D01*
X0267703Y0109598D02*
X0265313Y0109598D01*
X0265009Y0110797D02*
X0268007Y0110797D01*
X0268816Y0111996D02*
X0264200Y0111996D01*
X0289966Y0139561D02*
X0393758Y0139561D01*
X0393758Y0140760D02*
X0290825Y0140760D01*
X0291070Y0141958D02*
X0393758Y0141958D01*
X0393758Y0143157D02*
X0290847Y0143157D01*
X0290018Y0144355D02*
X0393758Y0144355D01*
X0393758Y0145554D02*
X0290773Y0145554D01*
X0291070Y0146752D02*
X0393758Y0146752D01*
X0393758Y0147951D02*
X0290899Y0147951D01*
X0290145Y0149149D02*
X0393758Y0149149D01*
X0385992Y0122782D02*
X0310323Y0122782D01*
X0311161Y0121584D02*
X0385154Y0121584D01*
X0384746Y0120385D02*
X0311568Y0120385D01*
X0311568Y0119187D02*
X0384746Y0119187D01*
X0351657Y0150348D02*
X0290720Y0150348D01*
X0291070Y0151546D02*
X0351657Y0151546D01*
X0351657Y0152745D02*
X0290952Y0152745D01*
X0290272Y0153943D02*
X0351657Y0153943D01*
X0351657Y0155142D02*
X0290667Y0155142D01*
X0291070Y0156340D02*
X0351657Y0156340D01*
X0351657Y0157539D02*
X0291005Y0157539D01*
X0290400Y0158737D02*
X0351657Y0158737D01*
X0351657Y0159936D02*
X0290614Y0159936D01*
X0285052Y0150348D02*
X0258168Y0150348D01*
X0258633Y0150155D02*
X0257318Y0150700D01*
X0255895Y0150700D01*
X0254580Y0150155D01*
X0253573Y0149149D01*
X0253028Y0147834D01*
X0253028Y0146410D01*
X0253573Y0145095D01*
X0254580Y0144089D01*
X0255895Y0143544D01*
X0257318Y0143544D01*
X0258633Y0144089D01*
X0259640Y0145095D01*
X0260184Y0146410D01*
X0260184Y0147834D01*
X0259640Y0149149D01*
X0258633Y0150155D01*
X0259639Y0149149D02*
X0285626Y0149149D01*
X0284872Y0147951D02*
X0260136Y0147951D01*
X0260184Y0146752D02*
X0284702Y0146752D01*
X0284999Y0145554D02*
X0259829Y0145554D01*
X0258900Y0144355D02*
X0285754Y0144355D01*
X0255045Y0150348D02*
X0248168Y0150348D01*
X0249639Y0149149D02*
X0253574Y0149149D01*
X0253077Y0147951D02*
X0250136Y0147951D01*
X0250184Y0146752D02*
X0253028Y0146752D01*
X0253383Y0145554D02*
X0249829Y0145554D01*
X0248900Y0144355D02*
X0254313Y0144355D01*
X0249682Y0151546D02*
X0243531Y0151546D01*
X0244701Y0152745D02*
X0248511Y0152745D01*
X0248028Y0153943D02*
X0245184Y0153943D01*
X0245184Y0155142D02*
X0248028Y0155142D01*
X0248445Y0156340D02*
X0244767Y0156340D01*
X0243749Y0157539D02*
X0249463Y0157539D01*
X0336379Y0161134D02*
X0351657Y0161134D01*
X0351657Y0162333D02*
X0337785Y0162333D01*
X0338337Y0163531D02*
X0351657Y0163531D01*
X0351657Y0164730D02*
X0338502Y0164730D01*
X0338346Y0165929D02*
X0351657Y0165929D01*
X0351657Y0167127D02*
X0337805Y0167127D01*
X0128816Y0111996D02*
X0124200Y0111996D01*
X0124733Y0111462D02*
X0123663Y0112533D01*
X0122265Y0113112D01*
X0120751Y0113112D01*
X0119353Y0112533D01*
X0118925Y0112105D01*
X0118845Y0112170D01*
X0118826Y0112233D01*
X0118659Y0112322D01*
X0118513Y0112443D01*
X0118446Y0112436D01*
X0118249Y0112542D01*
X0118218Y0112600D01*
X0118036Y0112655D01*
X0117869Y0112745D01*
X0117806Y0112725D01*
X0117591Y0112790D01*
X0117549Y0112842D01*
X0117360Y0112860D01*
X0117179Y0112915D01*
X0117120Y0112884D01*
X0116930Y0112903D01*
X0116906Y0112927D01*
X0116687Y0112927D01*
X0116469Y0112948D01*
X0116443Y0112927D01*
X0112711Y0112927D01*
X0112265Y0113112D01*
X0110751Y0113112D01*
X0110304Y0112927D01*
X0106372Y0112927D01*
X0106346Y0112948D01*
X0106128Y0112927D01*
X0105909Y0112927D01*
X0105885Y0112903D01*
X0105695Y0112884D01*
X0105636Y0112915D01*
X0105455Y0112860D01*
X0105266Y0112842D01*
X0105224Y0112790D01*
X0105009Y0112725D01*
X0104946Y0112745D01*
X0104779Y0112655D01*
X0104597Y0112600D01*
X0104566Y0112542D01*
X0104368Y0112436D01*
X0104302Y0112443D01*
X0104156Y0112322D01*
X0103989Y0112233D01*
X0103983Y0112213D01*
X0103663Y0112533D01*
X0102265Y0113112D01*
X0100751Y0113112D01*
X0099353Y0112533D01*
X0098282Y0111462D01*
X0097703Y0110064D01*
X0097703Y0108550D01*
X0098282Y0107152D01*
X0099353Y0106082D01*
X0100751Y0105502D01*
X0102265Y0105502D01*
X0103663Y0106082D01*
X0103997Y0106416D01*
X0104156Y0106331D01*
X0104302Y0106211D01*
X0104368Y0106217D01*
X0104566Y0106112D01*
X0104597Y0106053D01*
X0104779Y0105998D01*
X0104946Y0105909D01*
X0105009Y0105928D01*
X0105224Y0105863D01*
X0105266Y0105812D01*
X0105455Y0105793D01*
X0105636Y0105738D01*
X0105695Y0105769D01*
X0105885Y0105751D01*
X0105909Y0105727D01*
X0106128Y0105727D01*
X0106346Y0105705D01*
X0106372Y0105727D01*
X0110209Y0105727D01*
X0110751Y0105502D01*
X0112265Y0105502D01*
X0112806Y0105727D01*
X0116443Y0105727D01*
X0116469Y0105705D01*
X0116687Y0105727D01*
X0116906Y0105727D01*
X0116930Y0105751D01*
X0117120Y0105769D01*
X0117179Y0105738D01*
X0117360Y0105793D01*
X0117549Y0105812D01*
X0117591Y0105863D01*
X0117806Y0105928D01*
X0117869Y0105909D01*
X0118036Y0105998D01*
X0118218Y0106053D01*
X0118249Y0106112D01*
X0118447Y0106217D01*
X0118513Y0106211D01*
X0118659Y0106331D01*
X0118826Y0106420D01*
X0118845Y0106484D01*
X0118903Y0106531D01*
X0119353Y0106082D01*
X0120751Y0105502D01*
X0122265Y0105502D01*
X0123663Y0106082D01*
X0124733Y0107152D01*
X0125313Y0108550D01*
X0125313Y0110064D01*
X0124733Y0111462D01*
X0125009Y0110797D02*
X0128007Y0110797D01*
X0127703Y0109598D02*
X0125313Y0109598D01*
X0125250Y0108400D02*
X0127765Y0108400D01*
X0128262Y0107201D02*
X0124754Y0107201D01*
X0123473Y0106003D02*
X0129543Y0106003D01*
X0119543Y0106003D02*
X0118052Y0106003D01*
X0119228Y0102407D02*
X0113788Y0102407D01*
X0113663Y0102533D02*
X0112265Y0103112D01*
X0110751Y0103112D01*
X0109353Y0102533D01*
X0108282Y0101462D01*
X0107703Y0100064D01*
X0107703Y0098550D01*
X0108282Y0097152D01*
X0109353Y0096082D01*
X0110751Y0095502D01*
X0112265Y0095502D01*
X0113663Y0096082D01*
X0114733Y0097152D01*
X0115313Y0098550D01*
X0115313Y0100064D01*
X0114733Y0101462D01*
X0113663Y0102533D01*
X0114838Y0101209D02*
X0118177Y0101209D01*
X0117703Y0100010D02*
X0115313Y0100010D01*
X0115313Y0098812D02*
X0117703Y0098812D01*
X0118091Y0097613D02*
X0114925Y0097613D01*
X0113996Y0096415D02*
X0119019Y0096415D01*
X0109228Y0102407D02*
X0103788Y0102407D01*
X0103663Y0102533D02*
X0102265Y0103112D01*
X0100751Y0103112D01*
X0099353Y0102533D01*
X0098282Y0101462D01*
X0097703Y0100064D01*
X0097703Y0098550D01*
X0098282Y0097152D01*
X0099353Y0096082D01*
X0100751Y0095502D01*
X0102265Y0095502D01*
X0103663Y0096082D01*
X0104733Y0097152D01*
X0105313Y0098550D01*
X0105313Y0100064D01*
X0104733Y0101462D01*
X0103663Y0102533D01*
X0104838Y0101209D02*
X0108177Y0101209D01*
X0107703Y0100010D02*
X0105313Y0100010D01*
X0105313Y0098812D02*
X0107703Y0098812D01*
X0108091Y0097613D02*
X0104925Y0097613D01*
X0103996Y0096415D02*
X0109019Y0096415D01*
X0099019Y0096415D02*
X0093996Y0096415D01*
X0093663Y0096082D02*
X0094733Y0097152D01*
X0095313Y0098550D01*
X0095313Y0100064D01*
X0094733Y0101462D01*
X0093663Y0102533D01*
X0092265Y0103112D01*
X0090751Y0103112D01*
X0089353Y0102533D01*
X0088282Y0101462D01*
X0087703Y0100064D01*
X0087703Y0098550D01*
X0088282Y0097152D01*
X0089353Y0096082D01*
X0090751Y0095502D01*
X0092265Y0095502D01*
X0093663Y0096082D01*
X0094925Y0097613D02*
X0098091Y0097613D01*
X0097703Y0098812D02*
X0095313Y0098812D01*
X0095313Y0100010D02*
X0097703Y0100010D01*
X0098177Y0101209D02*
X0094838Y0101209D01*
X0093788Y0102407D02*
X0099228Y0102407D01*
X0099543Y0106003D02*
X0017157Y0106003D01*
X0017157Y0107201D02*
X0098262Y0107201D01*
X0097765Y0108400D02*
X0017157Y0108400D01*
X0017157Y0109598D02*
X0097703Y0109598D01*
X0098007Y0110797D02*
X0017157Y0110797D01*
X0017157Y0111996D02*
X0098816Y0111996D01*
X0103473Y0106003D02*
X0104763Y0106003D01*
X0089228Y0102407D02*
X0083788Y0102407D01*
X0083663Y0102533D02*
X0082265Y0103112D01*
X0080751Y0103112D01*
X0079353Y0102533D01*
X0078282Y0101462D01*
X0077703Y0100064D01*
X0077703Y0098550D01*
X0078282Y0097152D01*
X0079353Y0096082D01*
X0080751Y0095502D01*
X0082265Y0095502D01*
X0083663Y0096082D01*
X0084733Y0097152D01*
X0085313Y0098550D01*
X0085313Y0100064D01*
X0084733Y0101462D01*
X0083663Y0102533D01*
X0084838Y0101209D02*
X0088177Y0101209D01*
X0087703Y0100010D02*
X0085313Y0100010D01*
X0085313Y0098812D02*
X0087703Y0098812D01*
X0088091Y0097613D02*
X0084925Y0097613D01*
X0083996Y0096415D02*
X0089019Y0096415D01*
X0079019Y0096415D02*
X0017157Y0096415D01*
X0017157Y0097613D02*
X0078091Y0097613D01*
X0077703Y0098812D02*
X0017157Y0098812D01*
X0017157Y0100010D02*
X0077703Y0100010D01*
X0078177Y0101209D02*
X0017157Y0101209D01*
X0017157Y0102407D02*
X0079228Y0102407D01*
X0081672Y0129973D02*
X0067218Y0129973D01*
X0067966Y0131172D02*
X0080924Y0131172D01*
X0080667Y0132370D02*
X0068223Y0132370D01*
X0068109Y0133569D02*
X0080780Y0133569D01*
X0081326Y0134767D02*
X0067564Y0134767D01*
X0066055Y0135966D02*
X0082835Y0135966D01*
D23*
X0057657Y0110827D03*
X0051657Y0117327D03*
D24*
X0131508Y0099307D02*
X0152657Y0103157D01*
X0152657Y0150327D01*
X0155157Y0152827D01*
X0155157Y0156827D01*
X0152657Y0159327D01*
X0152657Y0163327D01*
X0147657Y0168327D01*
X0147657Y0172327D01*
X0138657Y0181327D01*
X0138657Y0255827D01*
X0141157Y0258327D01*
X0144157Y0258327D01*
X0140657Y0260827D02*
X0147657Y0260827D01*
X0147657Y0255827D02*
X0147657Y0251827D01*
X0141657Y0248827D01*
X0141657Y0186327D01*
X0156657Y0171327D01*
X0156657Y0169327D01*
X0162157Y0163827D01*
X0162157Y0159327D01*
X0165157Y0156327D01*
X0165157Y0152327D01*
X0162657Y0149827D01*
X0162657Y0142827D01*
X0176157Y0129327D01*
X0176157Y0109657D01*
X0151508Y0109307D01*
X0151508Y0099307D02*
X0176508Y0099177D01*
X0173657Y0095827D01*
X0154157Y0095827D01*
X0150657Y0099327D01*
X0150657Y0150327D01*
X0148157Y0152827D01*
X0148157Y0156827D01*
X0150657Y0159327D01*
X0150657Y0162827D01*
X0146157Y0167327D01*
X0146157Y0171827D01*
X0137157Y0180827D01*
X0137157Y0257327D01*
X0140657Y0260827D01*
X0142157Y0253327D02*
X0140157Y0251327D01*
X0140157Y0185827D01*
X0155157Y0170827D01*
X0155157Y0168327D01*
X0160157Y0163327D01*
X0160157Y0158827D01*
X0158157Y0156827D01*
X0158157Y0152327D01*
X0160657Y0149827D01*
X0160657Y0141827D01*
X0161657Y0140827D01*
X0161657Y0104157D01*
X0141508Y0099307D01*
X0142157Y0253327D02*
X0144157Y0253327D01*
D25*
X0367657Y0253072D02*
X0371676Y0253072D01*
X0371637Y0252978D02*
X0371637Y0251384D01*
X0372247Y0249913D01*
X0373373Y0248786D01*
X0374845Y0248176D01*
X0376438Y0248176D01*
X0377910Y0248786D01*
X0379037Y0249913D01*
X0379646Y0251384D01*
X0379646Y0252978D01*
X0379037Y0254450D01*
X0377910Y0255576D01*
X0376438Y0256186D01*
X0374845Y0256186D01*
X0373373Y0255576D01*
X0372247Y0254450D01*
X0371637Y0252978D01*
X0371637Y0251473D02*
X0367657Y0251473D01*
X0367657Y0249875D02*
X0372284Y0249875D01*
X0374604Y0248276D02*
X0367657Y0248276D01*
X0367657Y0246678D02*
X0393558Y0246678D01*
X0393558Y0248276D02*
X0386680Y0248276D01*
X0386438Y0248176D02*
X0387910Y0248786D01*
X0389037Y0249913D01*
X0389646Y0251384D01*
X0389646Y0252978D01*
X0389037Y0254450D01*
X0387910Y0255576D01*
X0386438Y0256186D01*
X0384845Y0256186D01*
X0383373Y0255576D01*
X0382247Y0254450D01*
X0381637Y0252978D01*
X0381637Y0251384D01*
X0382247Y0249913D01*
X0383373Y0248786D01*
X0384845Y0248176D01*
X0386438Y0248176D01*
X0384604Y0248276D02*
X0376680Y0248276D01*
X0378999Y0249875D02*
X0382284Y0249875D01*
X0381637Y0251473D02*
X0379646Y0251473D01*
X0379607Y0253072D02*
X0381676Y0253072D01*
X0382468Y0254670D02*
X0378816Y0254670D01*
X0372468Y0254670D02*
X0367657Y0254670D01*
X0367657Y0256269D02*
X0393558Y0256269D01*
X0393558Y0257867D02*
X0367657Y0257867D01*
X0367657Y0259466D02*
X0393558Y0259466D01*
X0393558Y0261065D02*
X0367657Y0261065D01*
X0367657Y0262663D02*
X0393558Y0262663D01*
X0393558Y0264262D02*
X0367657Y0264262D01*
X0367657Y0265860D02*
X0393558Y0265860D01*
X0393558Y0267459D02*
X0367657Y0267459D01*
X0367657Y0269057D02*
X0393558Y0269057D01*
X0393558Y0270656D02*
X0367657Y0270656D01*
X0367657Y0272254D02*
X0393558Y0272254D01*
X0393558Y0273853D02*
X0367657Y0273853D01*
X0367657Y0275451D02*
X0369554Y0275451D01*
X0370126Y0275214D02*
X0371472Y0275214D01*
X0372716Y0275729D01*
X0373260Y0276273D01*
X0373803Y0275729D01*
X0375047Y0275214D01*
X0376394Y0275214D01*
X0377637Y0275729D01*
X0378181Y0276273D01*
X0378725Y0275729D01*
X0379969Y0275214D01*
X0381315Y0275214D01*
X0382559Y0275729D01*
X0383102Y0276273D01*
X0383646Y0275729D01*
X0384890Y0275214D01*
X0386236Y0275214D01*
X0387480Y0275729D01*
X0388024Y0276273D01*
X0388567Y0275729D01*
X0389811Y0275214D01*
X0391157Y0275214D01*
X0392401Y0275729D01*
X0393353Y0276681D01*
X0393558Y0277176D01*
X0393558Y0196714D01*
X0392484Y0196714D01*
X0391239Y0196198D01*
X0390286Y0195246D01*
X0389770Y0194001D01*
X0389770Y0192653D01*
X0390286Y0191408D01*
X0391239Y0190455D01*
X0392484Y0189939D01*
X0393558Y0189939D01*
X0393558Y0166827D01*
X0367657Y0166827D01*
X0367657Y0189939D01*
X0368831Y0189939D01*
X0370076Y0190455D01*
X0371029Y0191408D01*
X0371545Y0192653D01*
X0371545Y0194001D01*
X0371029Y0195246D01*
X0370076Y0196198D01*
X0368831Y0196714D01*
X0367657Y0196714D01*
X0367657Y0204812D01*
X0368048Y0205755D01*
X0368048Y0211899D01*
X0367657Y0212842D01*
X0367657Y0277340D01*
X0367930Y0276681D01*
X0368882Y0275729D01*
X0370126Y0275214D01*
X0372044Y0275451D02*
X0374475Y0275451D01*
X0376966Y0275451D02*
X0379397Y0275451D01*
X0381887Y0275451D02*
X0384318Y0275451D01*
X0386808Y0275451D02*
X0389239Y0275451D01*
X0391729Y0275451D02*
X0393558Y0275451D01*
X0393506Y0277050D02*
X0393558Y0277050D01*
X0393558Y0280021D02*
X0393353Y0280515D01*
X0392401Y0281467D01*
X0391157Y0281983D01*
X0389811Y0281983D01*
X0388567Y0281467D01*
X0388024Y0280924D01*
X0387480Y0281467D01*
X0386236Y0281983D01*
X0384890Y0281983D01*
X0383646Y0281467D01*
X0383102Y0280924D01*
X0382559Y0281467D01*
X0381315Y0281983D01*
X0379969Y0281983D01*
X0378725Y0281467D01*
X0378181Y0280924D01*
X0377637Y0281467D01*
X0376394Y0281983D01*
X0375047Y0281983D01*
X0373803Y0281467D01*
X0373260Y0280924D01*
X0372716Y0281467D01*
X0371472Y0281983D01*
X0370126Y0281983D01*
X0368882Y0281467D01*
X0367930Y0280515D01*
X0367657Y0279857D01*
X0367657Y0335812D01*
X0368048Y0336755D01*
X0368048Y0337932D01*
X0393558Y0337932D01*
X0393558Y0280021D01*
X0393558Y0280247D02*
X0393465Y0280247D01*
X0393558Y0281845D02*
X0391489Y0281845D01*
X0389479Y0281845D02*
X0386568Y0281845D01*
X0384558Y0281845D02*
X0381647Y0281845D01*
X0379637Y0281845D02*
X0376726Y0281845D01*
X0374715Y0281845D02*
X0371804Y0281845D01*
X0369794Y0281845D02*
X0367657Y0281845D01*
X0367657Y0280247D02*
X0367819Y0280247D01*
X0367778Y0277050D02*
X0367657Y0277050D01*
X0367657Y0283444D02*
X0393558Y0283444D01*
X0393558Y0285042D02*
X0367657Y0285042D01*
X0367657Y0286641D02*
X0393558Y0286641D01*
X0393558Y0288239D02*
X0367657Y0288239D01*
X0367657Y0289838D02*
X0393558Y0289838D01*
X0393558Y0291436D02*
X0367657Y0291436D01*
X0367657Y0293035D02*
X0393558Y0293035D01*
X0393558Y0294633D02*
X0367657Y0294633D01*
X0367657Y0296232D02*
X0393558Y0296232D01*
X0393558Y0297830D02*
X0367657Y0297830D01*
X0367657Y0299429D02*
X0393558Y0299429D01*
X0393558Y0301027D02*
X0367657Y0301027D01*
X0367657Y0302626D02*
X0393558Y0302626D01*
X0393558Y0304224D02*
X0367657Y0304224D01*
X0367657Y0305823D02*
X0393558Y0305823D01*
X0393558Y0307421D02*
X0367657Y0307421D01*
X0367657Y0309020D02*
X0393558Y0309020D01*
X0393558Y0310618D02*
X0367657Y0310618D01*
X0367657Y0312217D02*
X0393558Y0312217D01*
X0393558Y0313815D02*
X0367657Y0313815D01*
X0367657Y0315414D02*
X0393558Y0315414D01*
X0393558Y0317012D02*
X0367657Y0317012D01*
X0367657Y0318611D02*
X0393558Y0318611D01*
X0393558Y0320209D02*
X0367657Y0320209D01*
X0367657Y0321808D02*
X0393558Y0321808D01*
X0393558Y0323406D02*
X0386804Y0323406D01*
X0386438Y0323255D02*
X0387910Y0323865D01*
X0389037Y0324991D01*
X0389646Y0326463D01*
X0389646Y0328056D01*
X0389037Y0329528D01*
X0387910Y0330655D01*
X0386438Y0331265D01*
X0384845Y0331265D01*
X0383373Y0330655D01*
X0382247Y0329528D01*
X0381637Y0328056D01*
X0381637Y0326463D01*
X0382247Y0324991D01*
X0383373Y0323865D01*
X0384845Y0323255D01*
X0386438Y0323255D01*
X0384480Y0323406D02*
X0376804Y0323406D01*
X0376438Y0323255D02*
X0377910Y0323865D01*
X0379037Y0324991D01*
X0379646Y0326463D01*
X0379646Y0328056D01*
X0379037Y0329528D01*
X0377910Y0330655D01*
X0376438Y0331265D01*
X0374845Y0331265D01*
X0373373Y0330655D01*
X0372247Y0329528D01*
X0371637Y0328056D01*
X0371637Y0326463D01*
X0372247Y0324991D01*
X0373373Y0323865D01*
X0374845Y0323255D01*
X0376438Y0323255D01*
X0374480Y0323406D02*
X0367657Y0323406D01*
X0367657Y0325005D02*
X0372241Y0325005D01*
X0371637Y0326603D02*
X0367657Y0326603D01*
X0367657Y0328202D02*
X0371697Y0328202D01*
X0372519Y0329800D02*
X0367657Y0329800D01*
X0367657Y0331399D02*
X0393558Y0331399D01*
X0393558Y0329800D02*
X0388765Y0329800D01*
X0389586Y0328202D02*
X0393558Y0328202D01*
X0393558Y0326603D02*
X0389646Y0326603D01*
X0389042Y0325005D02*
X0393558Y0325005D01*
X0393558Y0332998D02*
X0367657Y0332998D01*
X0367657Y0334596D02*
X0393558Y0334596D01*
X0393558Y0336195D02*
X0367816Y0336195D01*
X0368048Y0337793D02*
X0393558Y0337793D01*
X0382519Y0329800D02*
X0378765Y0329800D01*
X0379586Y0328202D02*
X0381697Y0328202D01*
X0381637Y0326603D02*
X0379646Y0326603D01*
X0379042Y0325005D02*
X0382241Y0325005D01*
X0388816Y0254670D02*
X0393558Y0254670D01*
X0393558Y0253072D02*
X0389607Y0253072D01*
X0389646Y0251473D02*
X0393558Y0251473D01*
X0393558Y0249875D02*
X0388999Y0249875D01*
X0393558Y0245079D02*
X0367657Y0245079D01*
X0367657Y0243481D02*
X0393558Y0243481D01*
X0393558Y0241882D02*
X0367657Y0241882D01*
X0367657Y0240284D02*
X0393558Y0240284D01*
X0393558Y0238685D02*
X0367657Y0238685D01*
X0367657Y0237087D02*
X0393558Y0237087D01*
X0393558Y0235488D02*
X0367657Y0235488D01*
X0367657Y0233890D02*
X0393558Y0233890D01*
X0393558Y0232291D02*
X0367657Y0232291D01*
X0367657Y0230693D02*
X0393558Y0230693D01*
X0393558Y0229094D02*
X0367657Y0229094D01*
X0367657Y0227496D02*
X0393558Y0227496D01*
X0393558Y0225897D02*
X0367657Y0225897D01*
X0367657Y0224299D02*
X0393558Y0224299D01*
X0393558Y0222700D02*
X0385302Y0222700D01*
X0384926Y0222918D02*
X0382103Y0223674D01*
X0379180Y0223674D01*
X0376358Y0222918D01*
X0373827Y0221456D01*
X0371760Y0219390D01*
X0370299Y0216859D01*
X0369543Y0214036D01*
X0369543Y0211114D01*
X0370299Y0208291D01*
X0371760Y0205760D01*
X0373827Y0203693D01*
X0376358Y0202232D01*
X0379180Y0201476D01*
X0382103Y0201476D01*
X0384926Y0202232D01*
X0387457Y0203693D01*
X0389523Y0205760D01*
X0390985Y0208291D01*
X0391741Y0211114D01*
X0391741Y0214036D01*
X0390985Y0216859D01*
X0389523Y0219390D01*
X0387457Y0221456D01*
X0384926Y0222918D01*
X0387811Y0221102D02*
X0393558Y0221102D01*
X0393558Y0219503D02*
X0389410Y0219503D01*
X0390381Y0217905D02*
X0393558Y0217905D01*
X0393558Y0216306D02*
X0391133Y0216306D01*
X0391561Y0214708D02*
X0393558Y0214708D01*
X0393558Y0213109D02*
X0391741Y0213109D01*
X0391741Y0211511D02*
X0393558Y0211511D01*
X0393558Y0209912D02*
X0391419Y0209912D01*
X0390991Y0208314D02*
X0393558Y0208314D01*
X0393558Y0206715D02*
X0390075Y0206715D01*
X0388880Y0205117D02*
X0393558Y0205117D01*
X0393558Y0203518D02*
X0387153Y0203518D01*
X0383760Y0201920D02*
X0393558Y0201920D01*
X0393558Y0200321D02*
X0367657Y0200321D01*
X0367657Y0198723D02*
X0393558Y0198723D01*
X0393558Y0197124D02*
X0367657Y0197124D01*
X0370749Y0195526D02*
X0390566Y0195526D01*
X0389770Y0193927D02*
X0371545Y0193927D01*
X0371410Y0192329D02*
X0389904Y0192329D01*
X0390964Y0190730D02*
X0370351Y0190730D01*
X0367657Y0189131D02*
X0393558Y0189131D01*
X0393558Y0187533D02*
X0367657Y0187533D01*
X0367657Y0185934D02*
X0393558Y0185934D01*
X0393558Y0184336D02*
X0367657Y0184336D01*
X0367657Y0182737D02*
X0393558Y0182737D01*
X0393558Y0181139D02*
X0367657Y0181139D01*
X0367657Y0179540D02*
X0372737Y0179540D01*
X0372439Y0179242D02*
X0371864Y0177854D01*
X0371864Y0176351D01*
X0372439Y0174962D01*
X0373502Y0173900D01*
X0374890Y0173324D01*
X0376393Y0173324D01*
X0377782Y0173900D01*
X0378142Y0174260D01*
X0378502Y0173900D01*
X0379890Y0173324D01*
X0381393Y0173324D01*
X0382782Y0173900D01*
X0383142Y0174260D01*
X0383502Y0173900D01*
X0384890Y0173324D01*
X0386393Y0173324D01*
X0387782Y0173900D01*
X0388845Y0174962D01*
X0389420Y0176351D01*
X0389420Y0177854D01*
X0388845Y0179242D01*
X0387782Y0180305D01*
X0386393Y0180880D01*
X0384890Y0180880D01*
X0383502Y0180305D01*
X0383142Y0179945D01*
X0382782Y0180305D01*
X0381393Y0180880D01*
X0379890Y0180880D01*
X0378502Y0180305D01*
X0378142Y0179945D01*
X0377782Y0180305D01*
X0376393Y0180880D01*
X0374890Y0180880D01*
X0373502Y0180305D01*
X0372439Y0179242D01*
X0371900Y0177942D02*
X0367657Y0177942D01*
X0367657Y0176343D02*
X0371867Y0176343D01*
X0372656Y0174745D02*
X0367657Y0174745D01*
X0367657Y0173146D02*
X0393558Y0173146D01*
X0393558Y0171548D02*
X0367657Y0171548D01*
X0367657Y0169949D02*
X0393558Y0169949D01*
X0393558Y0168351D02*
X0367657Y0168351D01*
X0388627Y0174745D02*
X0393558Y0174745D01*
X0393558Y0176343D02*
X0389417Y0176343D01*
X0389383Y0177942D02*
X0393558Y0177942D01*
X0393558Y0179540D02*
X0388546Y0179540D01*
X0377523Y0201920D02*
X0367657Y0201920D01*
X0367657Y0203518D02*
X0374130Y0203518D01*
X0372403Y0205117D02*
X0367784Y0205117D01*
X0368048Y0206715D02*
X0371209Y0206715D01*
X0370293Y0208314D02*
X0368048Y0208314D01*
X0368048Y0209912D02*
X0369864Y0209912D01*
X0369543Y0211511D02*
X0368048Y0211511D01*
X0367657Y0213109D02*
X0369543Y0213109D01*
X0369722Y0214708D02*
X0367657Y0214708D01*
X0367657Y0216306D02*
X0370151Y0216306D01*
X0370903Y0217905D02*
X0367657Y0217905D01*
X0367657Y0219503D02*
X0371873Y0219503D01*
X0373472Y0221102D02*
X0367657Y0221102D01*
X0367657Y0222700D02*
X0375981Y0222700D01*
M02*
