G75*
%MOIN*%
%OFA0B0*%
%FSLAX25Y25*%
%IPPOS*%
%LPD*%
%AMOC8*
5,1,8,0,0,1.08239X$1,22.5*
%
%ADD10C,0.00900*%
%ADD11C,0.09055*%
%ADD12R,0.03937X0.03543*%
%ADD13R,0.03543X0.03937*%
%ADD14R,0.05118X0.05906*%
%ADD15R,0.05118X0.01260*%
%ADD16R,0.08661X0.02362*%
%ADD17R,0.06299X0.01181*%
%ADD18R,0.01181X0.06299*%
%ADD19C,0.02775*%
%ADD20C,0.00500*%
%ADD21C,0.16598*%
%ADD22R,0.02362X0.04331*%
%ADD23R,0.18110X0.07087*%
%ADD24R,0.04331X0.03937*%
%ADD25R,0.01260X0.04724*%
%ADD26R,0.04409X0.04409*%
%ADD27C,0.04409*%
%ADD28R,0.03543X0.01969*%
%ADD29R,0.02165X0.04724*%
%ADD30R,0.02362X0.08661*%
%ADD31R,0.03937X0.04331*%
%ADD32OC8,0.08500*%
%ADD33C,0.03956*%
%ADD34R,0.03956X0.03956*%
%ADD35R,0.05512X0.05512*%
%ADD36C,0.05512*%
%ADD37C,0.04000*%
%ADD38R,0.04000X0.07000*%
%ADD39C,0.03169*%
%ADD40R,0.04961X0.04961*%
%ADD41C,0.04961*%
%ADD42R,0.06600X0.06600*%
%ADD43C,0.06600*%
%ADD44R,0.03937X0.05512*%
%ADD45R,0.05906X0.05118*%
%ADD46C,0.04356*%
%ADD47C,0.01200*%
%ADD48C,0.03175*%
%ADD49C,0.03962*%
%ADD50C,0.05000*%
%ADD51C,0.01000*%
%ADD52C,0.02400*%
%ADD53C,0.01600*%
%ADD54C,0.00591*%
%ADD55C,0.04750*%
%ADD56C,0.06600*%
%ADD57C,0.00787*%
%ADD58C,0.03200*%
D10*
X0010637Y0095335D02*
X0008602Y0097370D01*
X0014707Y0097370D01*
X0014707Y0095335D02*
X0014707Y0099405D01*
D11*
X0307213Y0107528D03*
X0307213Y0119732D03*
X0389102Y0119732D03*
X0389102Y0107528D03*
D12*
X0234657Y0124783D03*
X0234657Y0131870D03*
X0107846Y0184583D03*
X0107846Y0191669D03*
X0107846Y0212220D03*
X0107846Y0219307D03*
X0278657Y0327283D03*
X0278657Y0334370D03*
X0302157Y0328370D03*
X0302157Y0321283D03*
D13*
X0327614Y0318327D03*
X0334701Y0318327D03*
X0269461Y0305454D03*
X0262374Y0305454D03*
X0262374Y0209871D03*
X0269461Y0209871D03*
X0053083Y0213402D03*
X0045996Y0213402D03*
X0045917Y0192732D03*
X0053004Y0192732D03*
D14*
X0302917Y0259827D03*
X0310398Y0259827D03*
X0323917Y0259827D03*
X0331398Y0259827D03*
X0329398Y0237827D03*
X0321917Y0237827D03*
X0321917Y0225827D03*
X0329398Y0225827D03*
D15*
X0099421Y0224622D03*
X0099421Y0222654D03*
X0099421Y0220685D03*
X0099421Y0218717D03*
X0099421Y0216748D03*
X0099421Y0214780D03*
X0099421Y0212811D03*
X0099421Y0210843D03*
X0099421Y0208874D03*
X0099421Y0206906D03*
X0099421Y0204937D03*
X0099421Y0202969D03*
X0099421Y0201000D03*
X0099421Y0199031D03*
X0099421Y0197063D03*
X0099421Y0195094D03*
X0099421Y0193126D03*
X0099421Y0191157D03*
X0099421Y0189189D03*
X0099421Y0187220D03*
X0099421Y0185252D03*
X0099421Y0183283D03*
X0099421Y0181315D03*
X0099421Y0179346D03*
X0069894Y0179346D03*
X0069894Y0181315D03*
X0069894Y0183283D03*
X0069894Y0185252D03*
X0069894Y0187220D03*
X0069894Y0189189D03*
X0069894Y0191157D03*
X0069894Y0193126D03*
X0069894Y0195094D03*
X0069894Y0197063D03*
X0069894Y0199031D03*
X0069894Y0201000D03*
X0069894Y0202969D03*
X0069894Y0204937D03*
X0069894Y0206906D03*
X0069894Y0208874D03*
X0069894Y0210843D03*
X0069894Y0212811D03*
X0069894Y0214780D03*
X0069894Y0216748D03*
X0069894Y0218717D03*
X0069894Y0220685D03*
X0069894Y0222654D03*
X0069894Y0224622D03*
X0069894Y0234465D03*
X0069894Y0236433D03*
X0069894Y0238402D03*
X0069894Y0240370D03*
X0069894Y0242339D03*
X0069894Y0244307D03*
X0069894Y0246276D03*
X0069894Y0248244D03*
X0069894Y0250213D03*
X0069894Y0252181D03*
X0069894Y0254150D03*
X0069894Y0256118D03*
X0069894Y0258087D03*
X0069894Y0260055D03*
X0069894Y0262024D03*
X0069894Y0263992D03*
X0069894Y0265961D03*
X0069894Y0267929D03*
X0069894Y0269898D03*
X0069894Y0271866D03*
X0069894Y0273835D03*
X0069894Y0275803D03*
X0069894Y0277772D03*
X0069894Y0279740D03*
X0069894Y0289583D03*
X0069894Y0291551D03*
X0069894Y0293520D03*
X0069894Y0295488D03*
X0069894Y0297457D03*
X0069894Y0299425D03*
X0069894Y0301394D03*
X0069894Y0303362D03*
X0069894Y0305331D03*
X0069894Y0307299D03*
X0069894Y0309268D03*
X0069894Y0311236D03*
X0069894Y0313205D03*
X0069894Y0315173D03*
X0069894Y0317142D03*
X0069894Y0319110D03*
X0069894Y0321079D03*
X0069894Y0323047D03*
X0069894Y0325016D03*
X0069894Y0326984D03*
X0069894Y0328953D03*
X0069894Y0330921D03*
X0069894Y0332890D03*
X0069894Y0334858D03*
X0099421Y0334858D03*
X0099421Y0332890D03*
X0099421Y0330921D03*
X0099421Y0328953D03*
X0099421Y0326984D03*
X0099421Y0325016D03*
X0099421Y0323047D03*
X0099421Y0321079D03*
X0099421Y0319110D03*
X0099421Y0317142D03*
X0099421Y0315173D03*
X0099421Y0313205D03*
X0099421Y0311236D03*
X0099421Y0309268D03*
X0099421Y0307299D03*
X0099421Y0305331D03*
X0099421Y0303362D03*
X0099421Y0301394D03*
X0099421Y0299425D03*
X0099421Y0297457D03*
X0099421Y0295488D03*
X0099421Y0293520D03*
X0099421Y0291551D03*
X0099421Y0289583D03*
X0099421Y0279740D03*
X0099421Y0277772D03*
X0099421Y0275803D03*
X0099421Y0273835D03*
X0099421Y0271866D03*
X0099421Y0269898D03*
X0099421Y0267929D03*
X0099421Y0265961D03*
X0099421Y0263992D03*
X0099421Y0262024D03*
X0099421Y0260055D03*
X0099421Y0258087D03*
X0099421Y0256118D03*
X0099421Y0254150D03*
X0099421Y0252181D03*
X0099421Y0250213D03*
X0099421Y0248244D03*
X0099421Y0246276D03*
X0099421Y0244307D03*
X0099421Y0242339D03*
X0099421Y0240370D03*
X0099421Y0238402D03*
X0099421Y0236433D03*
X0099421Y0234465D03*
D16*
X0247921Y0320827D03*
X0247921Y0325827D03*
X0247921Y0330827D03*
X0247921Y0335827D03*
X0268394Y0335827D03*
X0268394Y0330827D03*
X0268394Y0325827D03*
X0268394Y0320827D03*
D17*
X0222335Y0291551D03*
X0222335Y0289583D03*
X0222335Y0287614D03*
X0222335Y0285646D03*
X0222335Y0283677D03*
X0222335Y0281709D03*
X0222335Y0279740D03*
X0222335Y0277772D03*
X0222335Y0275803D03*
X0222335Y0273835D03*
X0222335Y0271866D03*
X0222335Y0269898D03*
X0222335Y0267929D03*
X0222335Y0265961D03*
X0222335Y0263992D03*
X0222335Y0262024D03*
X0222335Y0260055D03*
X0222335Y0258087D03*
X0222335Y0256118D03*
X0222335Y0254150D03*
X0222335Y0252181D03*
X0222335Y0250213D03*
X0222335Y0248244D03*
X0222335Y0246276D03*
X0222335Y0244307D03*
X0222335Y0242339D03*
X0222335Y0240370D03*
X0222335Y0238402D03*
X0222335Y0236433D03*
X0222335Y0234465D03*
X0222335Y0232496D03*
X0222335Y0230528D03*
X0222335Y0228559D03*
X0222335Y0226591D03*
X0222335Y0224622D03*
X0222335Y0222654D03*
X0136902Y0222654D03*
X0136902Y0224622D03*
X0136902Y0226591D03*
X0136902Y0228559D03*
X0136902Y0230528D03*
X0136902Y0232496D03*
X0136902Y0234465D03*
X0136902Y0236433D03*
X0136902Y0238402D03*
X0136902Y0240370D03*
X0136902Y0242339D03*
X0136902Y0244307D03*
X0136902Y0246276D03*
X0136902Y0248244D03*
X0136902Y0250213D03*
X0136902Y0252181D03*
X0136902Y0254150D03*
X0136902Y0256118D03*
X0136902Y0258087D03*
X0136902Y0260055D03*
X0136902Y0262024D03*
X0136902Y0263992D03*
X0136902Y0265961D03*
X0136902Y0267929D03*
X0136902Y0269898D03*
X0136902Y0271866D03*
X0136902Y0273835D03*
X0136902Y0275803D03*
X0136902Y0277772D03*
X0136902Y0279740D03*
X0136902Y0281709D03*
X0136902Y0283677D03*
X0136902Y0285646D03*
X0136902Y0287614D03*
X0136902Y0289583D03*
X0136902Y0291551D03*
D18*
X0145169Y0299819D03*
X0147138Y0299819D03*
X0149106Y0299819D03*
X0151075Y0299819D03*
X0153043Y0299819D03*
X0155012Y0299819D03*
X0156980Y0299819D03*
X0158949Y0299819D03*
X0160917Y0299819D03*
X0162886Y0299819D03*
X0164854Y0299819D03*
X0166823Y0299819D03*
X0168791Y0299819D03*
X0170760Y0299819D03*
X0172728Y0299819D03*
X0174697Y0299819D03*
X0176665Y0299819D03*
X0178634Y0299819D03*
X0180602Y0299819D03*
X0182571Y0299819D03*
X0184539Y0299819D03*
X0186508Y0299819D03*
X0188476Y0299819D03*
X0190445Y0299819D03*
X0192413Y0299819D03*
X0194382Y0299819D03*
X0196350Y0299819D03*
X0198319Y0299819D03*
X0200287Y0299819D03*
X0202256Y0299819D03*
X0204224Y0299819D03*
X0206193Y0299819D03*
X0208161Y0299819D03*
X0210130Y0299819D03*
X0212098Y0299819D03*
X0214067Y0299819D03*
X0214067Y0214386D03*
X0212098Y0214386D03*
X0210130Y0214386D03*
X0208161Y0214386D03*
X0206193Y0214386D03*
X0204224Y0214386D03*
X0202256Y0214386D03*
X0200287Y0214386D03*
X0198319Y0214386D03*
X0196350Y0214386D03*
X0194382Y0214386D03*
X0192413Y0214386D03*
X0190445Y0214386D03*
X0188476Y0214386D03*
X0186508Y0214386D03*
X0184539Y0214386D03*
X0182571Y0214386D03*
X0180602Y0214386D03*
X0178634Y0214386D03*
X0176665Y0214386D03*
X0174697Y0214386D03*
X0172728Y0214386D03*
X0170760Y0214386D03*
X0168791Y0214386D03*
X0166823Y0214386D03*
X0164854Y0214386D03*
X0162886Y0214386D03*
X0160917Y0214386D03*
X0158949Y0214386D03*
X0156980Y0214386D03*
X0155012Y0214386D03*
X0153043Y0214386D03*
X0151075Y0214386D03*
X0149106Y0214386D03*
X0147138Y0214386D03*
X0145169Y0214386D03*
D19*
X0169618Y0247102D03*
X0189618Y0247102D03*
X0189618Y0267102D03*
X0169618Y0267102D03*
D20*
X0189618Y0267102D01*
X0189618Y0247102D01*
X0169618Y0247102D01*
X0169618Y0267102D01*
X0169618Y0266789D02*
X0189618Y0266789D01*
X0189618Y0266291D02*
X0169618Y0266291D01*
X0169618Y0265792D02*
X0189618Y0265792D01*
X0189618Y0265294D02*
X0169618Y0265294D01*
X0169618Y0264795D02*
X0189618Y0264795D01*
X0189618Y0264297D02*
X0169618Y0264297D01*
X0169618Y0263798D02*
X0189618Y0263798D01*
X0189618Y0263300D02*
X0169618Y0263300D01*
X0169618Y0262801D02*
X0189618Y0262801D01*
X0189618Y0262303D02*
X0169618Y0262303D01*
X0169618Y0261804D02*
X0189618Y0261804D01*
X0189618Y0261306D02*
X0169618Y0261306D01*
X0169618Y0260807D02*
X0189618Y0260807D01*
X0189618Y0260309D02*
X0169618Y0260309D01*
X0169618Y0259810D02*
X0189618Y0259810D01*
X0189618Y0259312D02*
X0169618Y0259312D01*
X0169618Y0258813D02*
X0189618Y0258813D01*
X0189618Y0258315D02*
X0169618Y0258315D01*
X0169618Y0257816D02*
X0189618Y0257816D01*
X0189618Y0257318D02*
X0169618Y0257318D01*
X0169618Y0256819D02*
X0189618Y0256819D01*
X0189618Y0256321D02*
X0169618Y0256321D01*
X0169618Y0255822D02*
X0189618Y0255822D01*
X0189618Y0255324D02*
X0169618Y0255324D01*
X0169618Y0254825D02*
X0189618Y0254825D01*
X0189618Y0254327D02*
X0169618Y0254327D01*
X0169618Y0253828D02*
X0189618Y0253828D01*
X0189618Y0253330D02*
X0169618Y0253330D01*
X0169618Y0252831D02*
X0189618Y0252831D01*
X0189618Y0252333D02*
X0169618Y0252333D01*
X0169618Y0251834D02*
X0189618Y0251834D01*
X0189618Y0251336D02*
X0169618Y0251336D01*
X0169618Y0250837D02*
X0189618Y0250837D01*
X0189618Y0250338D02*
X0169618Y0250338D01*
X0169618Y0249840D02*
X0189618Y0249840D01*
X0189618Y0249341D02*
X0169618Y0249341D01*
X0169618Y0248843D02*
X0189618Y0248843D01*
X0189618Y0248344D02*
X0169618Y0248344D01*
X0169618Y0247846D02*
X0189618Y0247846D01*
X0189618Y0247347D02*
X0169618Y0247347D01*
D21*
X0179618Y0257102D03*
D22*
X0313417Y0318528D03*
X0317157Y0318528D03*
X0320898Y0318528D03*
X0320898Y0331126D03*
X0317157Y0331126D03*
X0313417Y0331126D03*
D23*
X0317157Y0304543D03*
X0317157Y0269110D03*
D24*
X0307504Y0246827D03*
X0300811Y0246827D03*
X0301311Y0232827D03*
X0308004Y0232827D03*
X0309811Y0207827D03*
X0316504Y0207827D03*
X0293004Y0189327D03*
X0286311Y0189327D03*
X0241504Y0116827D03*
X0234811Y0116827D03*
X0205004Y0115327D03*
X0198311Y0115327D03*
X0053004Y0294327D03*
X0046311Y0294327D03*
X0226811Y0322327D03*
X0226811Y0328327D03*
X0233504Y0328327D03*
X0233504Y0322327D03*
X0327811Y0331327D03*
X0334504Y0331327D03*
D25*
X0288555Y0296472D03*
X0286587Y0296472D03*
X0284618Y0296472D03*
X0282650Y0296472D03*
X0280681Y0296472D03*
X0278713Y0296472D03*
X0276744Y0296472D03*
X0274776Y0296472D03*
X0272807Y0296472D03*
X0270839Y0296472D03*
X0268870Y0296472D03*
X0266902Y0296472D03*
X0264933Y0296472D03*
X0262965Y0296472D03*
X0260996Y0296472D03*
X0259028Y0296472D03*
X0257059Y0296472D03*
X0255091Y0296472D03*
X0253122Y0296472D03*
X0251154Y0296472D03*
X0249185Y0296472D03*
X0247217Y0296472D03*
X0245248Y0296472D03*
X0243280Y0296472D03*
X0243280Y0219701D03*
X0245248Y0219701D03*
X0247217Y0219701D03*
X0249185Y0219701D03*
X0251154Y0219701D03*
X0253122Y0219701D03*
X0255091Y0219701D03*
X0257059Y0219701D03*
X0259028Y0219701D03*
X0260996Y0219701D03*
X0262965Y0219701D03*
X0264933Y0219701D03*
X0266902Y0219701D03*
X0268870Y0219701D03*
X0270839Y0219701D03*
X0272807Y0219701D03*
X0274776Y0219701D03*
X0276744Y0219701D03*
X0278713Y0219701D03*
X0280681Y0219701D03*
X0282650Y0219701D03*
X0284618Y0219701D03*
X0286587Y0219701D03*
X0288555Y0219701D03*
D26*
X0385642Y0252181D03*
X0385642Y0327260D03*
X0081508Y0099307D03*
D27*
X0091508Y0099307D03*
X0091508Y0109307D03*
X0081508Y0109307D03*
X0101508Y0109307D03*
X0111508Y0109307D03*
X0121508Y0109307D03*
X0121508Y0099307D03*
X0111508Y0099307D03*
X0101508Y0099307D03*
X0131508Y0099307D03*
X0141508Y0099307D03*
X0141508Y0109307D03*
X0131508Y0109307D03*
X0151508Y0109307D03*
X0161508Y0109307D03*
X0171508Y0109307D03*
X0171508Y0099307D03*
X0161508Y0099307D03*
X0151508Y0099307D03*
X0181508Y0099307D03*
X0191508Y0099307D03*
X0191508Y0109307D03*
X0181508Y0109307D03*
X0201508Y0109307D03*
X0211508Y0109307D03*
X0221508Y0109307D03*
X0221508Y0099307D03*
X0211508Y0099307D03*
X0201508Y0099307D03*
X0231508Y0099307D03*
X0241508Y0099307D03*
X0251508Y0099307D03*
X0251508Y0109307D03*
X0241508Y0109307D03*
X0231508Y0109307D03*
X0261508Y0109307D03*
X0271508Y0109307D03*
X0271508Y0099307D03*
X0261508Y0099307D03*
X0375642Y0252181D03*
X0375642Y0327260D03*
D28*
X0052780Y0287244D03*
X0052780Y0284094D03*
X0052780Y0280945D03*
X0052780Y0277795D03*
X0046480Y0277795D03*
X0046480Y0280945D03*
X0046480Y0284094D03*
X0046480Y0287244D03*
X0046480Y0270244D03*
X0046480Y0267094D03*
X0046480Y0263945D03*
X0046480Y0260795D03*
X0052780Y0260795D03*
X0052780Y0263945D03*
X0052780Y0267094D03*
X0052780Y0270244D03*
X0052780Y0253244D03*
X0052780Y0250094D03*
X0052780Y0246945D03*
X0052780Y0243795D03*
X0046480Y0243795D03*
X0046480Y0246945D03*
X0046480Y0250094D03*
X0046480Y0253244D03*
X0046480Y0236244D03*
X0046480Y0233094D03*
X0046480Y0229945D03*
X0046480Y0226795D03*
X0052780Y0226795D03*
X0052780Y0229945D03*
X0052780Y0233094D03*
X0052780Y0236244D03*
D29*
X0053898Y0178445D03*
X0046417Y0178445D03*
X0046417Y0168209D03*
X0050157Y0168209D03*
X0053898Y0168209D03*
D30*
X0211657Y0138563D03*
X0216657Y0138563D03*
X0221657Y0138563D03*
X0226657Y0138563D03*
X0226657Y0118091D03*
X0221657Y0118091D03*
X0216657Y0118091D03*
X0211657Y0118091D03*
D31*
X0204157Y0123480D03*
X0204157Y0130173D03*
X0278657Y0197480D03*
X0278657Y0204173D03*
X0294657Y0216980D03*
X0294657Y0223673D03*
X0329657Y0198673D03*
X0329657Y0191980D03*
X0041657Y0101984D03*
X0041657Y0095291D03*
X0034657Y0099980D03*
X0034657Y0106673D03*
D32*
X0034657Y0336827D03*
X0049657Y0336827D03*
X0019657Y0336827D03*
X0119657Y0336827D03*
D33*
X0121606Y0169622D03*
X0116606Y0162122D03*
X0111606Y0154622D03*
X0106606Y0147122D03*
X0101606Y0154622D03*
X0096606Y0147122D03*
X0091606Y0154622D03*
X0086606Y0147122D03*
X0081606Y0154622D03*
X0076606Y0147122D03*
X0071606Y0154622D03*
X0066606Y0162122D03*
X0071606Y0169622D03*
X0076606Y0162122D03*
X0081606Y0169622D03*
X0086606Y0162122D03*
X0091606Y0169622D03*
X0096606Y0162122D03*
X0101606Y0169622D03*
X0106606Y0162122D03*
X0111606Y0169622D03*
X0126606Y0162122D03*
X0121606Y0154622D03*
X0116606Y0147122D03*
X0126606Y0147122D03*
X0131606Y0154622D03*
X0136606Y0147122D03*
X0141606Y0154622D03*
X0136606Y0162122D03*
X0131606Y0169622D03*
X0141606Y0169622D03*
X0146606Y0162122D03*
X0151606Y0154622D03*
X0146606Y0147122D03*
X0156606Y0147122D03*
X0161606Y0154622D03*
X0156606Y0162122D03*
X0151606Y0169622D03*
X0161606Y0169622D03*
X0166606Y0162122D03*
X0171606Y0154622D03*
X0166606Y0147122D03*
X0176606Y0147122D03*
X0181606Y0154622D03*
X0176606Y0162122D03*
X0171606Y0169622D03*
X0181606Y0169622D03*
X0186606Y0162122D03*
X0191606Y0154622D03*
X0186606Y0147122D03*
X0196606Y0147122D03*
X0201606Y0154622D03*
X0196606Y0162122D03*
X0191606Y0169622D03*
X0201606Y0169622D03*
X0206606Y0162122D03*
X0211606Y0154622D03*
X0206606Y0147122D03*
X0216606Y0147122D03*
X0221606Y0154622D03*
X0216606Y0162122D03*
X0211606Y0169622D03*
X0221606Y0169622D03*
X0226606Y0162122D03*
X0231606Y0154622D03*
X0226606Y0147122D03*
X0236606Y0147122D03*
X0241606Y0154622D03*
X0236606Y0162122D03*
X0231606Y0169622D03*
X0241606Y0169622D03*
X0246606Y0162122D03*
X0251606Y0154622D03*
X0246606Y0147122D03*
X0256606Y0147122D03*
X0261606Y0154622D03*
X0256606Y0162122D03*
X0251606Y0169622D03*
X0261606Y0169622D03*
D34*
X0066606Y0147122D03*
D35*
X0014500Y0271118D03*
D36*
X0014500Y0261118D03*
X0014500Y0251118D03*
X0014500Y0241118D03*
D37*
X0375642Y0177102D03*
X0380642Y0177102D03*
X0385642Y0177102D03*
D38*
X0385642Y0177102D03*
X0380642Y0177102D03*
X0375642Y0177102D03*
D39*
X0289470Y0161669D02*
X0286302Y0161669D01*
X0286302Y0156748D02*
X0289470Y0156748D01*
X0289470Y0151827D02*
X0286302Y0151827D01*
X0286302Y0146906D02*
X0289470Y0146906D01*
X0289470Y0141984D02*
X0286302Y0141984D01*
X0370799Y0277014D02*
X0370799Y0280183D01*
X0375720Y0280183D02*
X0375720Y0277014D01*
X0380642Y0277014D02*
X0380642Y0280183D01*
X0385563Y0280183D02*
X0385563Y0277014D01*
X0390484Y0277014D02*
X0390484Y0280183D01*
D40*
X0334421Y0164740D03*
D41*
X0324579Y0164740D03*
X0314736Y0164740D03*
X0304894Y0164740D03*
D42*
X0334657Y0181327D03*
D43*
X0324657Y0181327D03*
X0314657Y0181327D03*
X0304657Y0181327D03*
D44*
X0294398Y0182157D03*
X0286917Y0182157D03*
X0290657Y0173496D03*
X0304657Y0191496D03*
X0300917Y0200157D03*
X0308398Y0200157D03*
X0294398Y0205157D03*
X0286917Y0205157D03*
X0290657Y0196496D03*
X0304657Y0215996D03*
X0300917Y0224657D03*
X0308398Y0224657D03*
X0329657Y0216157D03*
X0325917Y0207496D03*
X0333398Y0207496D03*
D45*
X0089657Y0125567D03*
X0089657Y0118087D03*
X0079657Y0118087D03*
X0079657Y0125567D03*
X0069657Y0125567D03*
X0069657Y0118087D03*
X0059657Y0118087D03*
X0059657Y0125567D03*
D46*
X0064445Y0132543D03*
X0084445Y0132543D03*
X0055157Y0163327D03*
X0050157Y0173327D03*
X0049157Y0183827D03*
X0044157Y0183827D03*
X0045157Y0203327D03*
X0093909Y0223362D03*
X0084657Y0251236D03*
X0084657Y0262220D03*
X0084657Y0306039D03*
X0084657Y0317614D03*
X0285657Y0195327D03*
X0301157Y0206327D03*
X0320157Y0200327D03*
X0315157Y0225327D03*
X0330157Y0231827D03*
X0336657Y0231827D03*
X0315157Y0237327D03*
X0348157Y0113827D03*
D47*
X0368157Y0193327D02*
X0368157Y0224827D01*
X0390657Y0247327D01*
X0390657Y0266327D01*
X0385657Y0271327D01*
X0385657Y0278504D01*
X0385563Y0278598D01*
X0390484Y0278598D02*
X0390657Y0278425D01*
X0390657Y0270327D01*
X0393157Y0267827D01*
X0393157Y0193327D01*
X0339157Y0223327D02*
X0339157Y0240327D01*
X0327657Y0240327D01*
X0327657Y0223327D01*
X0339157Y0223327D01*
X0339157Y0223457D02*
X0327657Y0223457D01*
X0327657Y0224656D02*
X0339157Y0224656D01*
X0339157Y0225854D02*
X0327657Y0225854D01*
X0327657Y0227053D02*
X0339157Y0227053D01*
X0339157Y0228251D02*
X0327657Y0228251D01*
X0327657Y0229450D02*
X0339157Y0229450D01*
X0339157Y0230648D02*
X0327657Y0230648D01*
X0327657Y0231847D02*
X0339157Y0231847D01*
X0339157Y0233045D02*
X0327657Y0233045D01*
X0327657Y0234244D02*
X0339157Y0234244D01*
X0339157Y0235442D02*
X0327657Y0235442D01*
X0327657Y0236641D02*
X0339157Y0236641D01*
X0339157Y0237839D02*
X0327657Y0237839D01*
X0327657Y0239038D02*
X0339157Y0239038D01*
X0339157Y0240236D02*
X0327657Y0240236D01*
X0322059Y0246229D02*
X0312255Y0246229D01*
X0312157Y0246327D02*
X0312157Y0253827D01*
X0308657Y0257327D01*
X0308657Y0271827D01*
X0325657Y0271827D01*
X0325657Y0257327D01*
X0322157Y0253827D01*
X0322157Y0246327D01*
X0320657Y0244827D01*
X0313657Y0244827D01*
X0312157Y0246327D01*
X0312157Y0247427D02*
X0322157Y0247427D01*
X0322157Y0248626D02*
X0312157Y0248626D01*
X0312157Y0249824D02*
X0322157Y0249824D01*
X0322157Y0251023D02*
X0312157Y0251023D01*
X0312157Y0252221D02*
X0322157Y0252221D01*
X0322157Y0253420D02*
X0312157Y0253420D01*
X0311366Y0254618D02*
X0322949Y0254618D01*
X0324148Y0255817D02*
X0310167Y0255817D01*
X0308969Y0257015D02*
X0325346Y0257015D01*
X0325657Y0258214D02*
X0308657Y0258214D01*
X0308657Y0259412D02*
X0325657Y0259412D01*
X0325657Y0260611D02*
X0308657Y0260611D01*
X0308657Y0261809D02*
X0325657Y0261809D01*
X0325657Y0263008D02*
X0308657Y0263008D01*
X0308657Y0264206D02*
X0325657Y0264206D01*
X0325657Y0265405D02*
X0308657Y0265405D01*
X0308657Y0266603D02*
X0325657Y0266603D01*
X0325657Y0267802D02*
X0308657Y0267802D01*
X0308657Y0269000D02*
X0325657Y0269000D01*
X0325657Y0270199D02*
X0308657Y0270199D01*
X0308657Y0271398D02*
X0325657Y0271398D01*
X0320861Y0245030D02*
X0313454Y0245030D01*
X0314157Y0246827D02*
X0307504Y0246827D01*
X0300811Y0246827D02*
X0300157Y0246827D01*
X0294657Y0251827D01*
X0294657Y0331827D01*
X0299657Y0336827D01*
X0319657Y0336827D01*
X0320898Y0335587D01*
X0320898Y0331126D01*
X0326610Y0331126D01*
X0327811Y0331327D01*
X0329157Y0325827D02*
X0326157Y0325827D01*
X0320657Y0320327D01*
X0320657Y0316327D01*
X0326157Y0310827D01*
X0329157Y0310827D01*
X0330157Y0311827D01*
X0330157Y0324827D01*
X0329157Y0325827D01*
X0329654Y0325331D02*
X0325661Y0325331D01*
X0324463Y0324132D02*
X0330157Y0324132D01*
X0330157Y0322934D02*
X0323264Y0322934D01*
X0322157Y0321827D02*
X0322157Y0319787D01*
X0320898Y0318528D01*
X0320657Y0318139D02*
X0330157Y0318139D01*
X0330157Y0316941D02*
X0320657Y0316941D01*
X0321242Y0315742D02*
X0330157Y0315742D01*
X0330157Y0314544D02*
X0322440Y0314544D01*
X0323639Y0313345D02*
X0330157Y0313345D01*
X0330157Y0312147D02*
X0324837Y0312147D01*
X0326036Y0310948D02*
X0329279Y0310948D01*
X0325657Y0307827D02*
X0325657Y0301827D01*
X0308657Y0301827D01*
X0308657Y0307827D01*
X0316157Y0315327D01*
X0316157Y0320327D01*
X0318157Y0320327D01*
X0318157Y0315327D01*
X0325657Y0307827D01*
X0325657Y0307353D02*
X0308657Y0307353D01*
X0308657Y0306154D02*
X0325657Y0306154D01*
X0325657Y0304956D02*
X0308657Y0304956D01*
X0308657Y0303757D02*
X0325657Y0303757D01*
X0325657Y0302559D02*
X0308657Y0302559D01*
X0311441Y0304543D02*
X0302157Y0313827D01*
X0302157Y0321283D01*
X0306157Y0321735D02*
X0313249Y0321735D01*
X0313657Y0321327D02*
X0313657Y0316327D01*
X0308657Y0311327D01*
X0306157Y0313827D01*
X0306157Y0324327D01*
X0307157Y0325327D01*
X0309657Y0325327D01*
X0313657Y0321327D01*
X0313657Y0320536D02*
X0306157Y0320536D01*
X0306157Y0319338D02*
X0313657Y0319338D01*
X0313657Y0318139D02*
X0306157Y0318139D01*
X0306157Y0316941D02*
X0313657Y0316941D01*
X0313073Y0315742D02*
X0306157Y0315742D01*
X0306157Y0314544D02*
X0311875Y0314544D01*
X0310676Y0313345D02*
X0306639Y0313345D01*
X0307837Y0312147D02*
X0309478Y0312147D01*
X0311779Y0310948D02*
X0322536Y0310948D01*
X0323734Y0309750D02*
X0310581Y0309750D01*
X0309382Y0308551D02*
X0324933Y0308551D01*
X0321337Y0312147D02*
X0312978Y0312147D01*
X0314176Y0313345D02*
X0320139Y0313345D01*
X0318940Y0314544D02*
X0315375Y0314544D01*
X0316157Y0315742D02*
X0318157Y0315742D01*
X0318157Y0316941D02*
X0316157Y0316941D01*
X0316157Y0318139D02*
X0318157Y0318139D01*
X0318157Y0319338D02*
X0316157Y0319338D01*
X0320657Y0319338D02*
X0330157Y0319338D01*
X0330157Y0320536D02*
X0320867Y0320536D01*
X0322066Y0321735D02*
X0330157Y0321735D01*
X0334657Y0324327D02*
X0334504Y0325480D01*
X0334504Y0331327D01*
X0334701Y0318327D02*
X0333701Y0317783D01*
X0334657Y0316827D01*
X0322157Y0321827D02*
X0317157Y0326827D01*
X0317157Y0331126D01*
X0313417Y0331126D02*
X0304913Y0331126D01*
X0302157Y0328370D01*
X0306157Y0324132D02*
X0310852Y0324132D01*
X0312051Y0322934D02*
X0306157Y0322934D01*
X0311441Y0304543D02*
X0317157Y0304543D01*
X0284748Y0327744D02*
X0284287Y0327283D01*
X0278657Y0327283D01*
X0277201Y0325827D01*
X0268394Y0325827D01*
X0260657Y0333327D02*
X0277614Y0333327D01*
X0278657Y0334370D01*
X0284114Y0334370D01*
X0284657Y0333827D01*
X0260657Y0333327D02*
X0258157Y0335827D01*
X0247921Y0335827D01*
X0226657Y0334827D02*
X0226657Y0328480D01*
X0226811Y0328327D01*
X0226811Y0322327D01*
X0214067Y0299819D02*
X0214067Y0295882D01*
X0212098Y0293913D01*
X0210996Y0293913D01*
X0210878Y0294031D01*
X0216469Y0289031D02*
X0218988Y0291551D01*
X0222335Y0291551D01*
X0222335Y0289583D02*
X0217020Y0289583D01*
X0216469Y0289031D01*
X0216657Y0284827D02*
X0217807Y0283677D01*
X0222335Y0283677D01*
X0222335Y0281709D02*
X0214567Y0281709D01*
X0214067Y0281209D01*
X0202256Y0292339D02*
X0202256Y0299819D01*
X0200287Y0299819D02*
X0200287Y0303457D01*
X0202657Y0305827D01*
X0198319Y0299819D02*
X0198319Y0292535D01*
X0198122Y0292339D01*
X0182657Y0293827D02*
X0182571Y0293913D01*
X0182571Y0299819D01*
X0176665Y0299819D02*
X0176665Y0292732D01*
X0176272Y0292339D01*
X0166823Y0293992D02*
X0166657Y0293827D01*
X0166823Y0293992D02*
X0166823Y0299819D01*
X0158949Y0299819D02*
X0158949Y0294035D01*
X0159157Y0293827D01*
X0155012Y0292339D02*
X0155012Y0299819D01*
X0149106Y0299819D02*
X0149106Y0295378D01*
X0150657Y0293827D01*
X0147138Y0294807D02*
X0146157Y0293827D01*
X0145169Y0294815D01*
X0145169Y0299819D01*
X0147138Y0299819D02*
X0147138Y0294807D01*
X0143157Y0290827D02*
X0141913Y0289583D01*
X0136902Y0289583D01*
X0136902Y0291551D02*
X0142433Y0291551D01*
X0143157Y0290827D01*
X0142157Y0286827D02*
X0145657Y0286827D01*
X0146157Y0287327D01*
X0145870Y0287614D01*
X0136902Y0287614D01*
X0136902Y0285646D02*
X0140976Y0285646D01*
X0142157Y0286827D01*
X0144185Y0283677D02*
X0136902Y0283677D01*
X0144185Y0283677D02*
X0144382Y0283480D01*
X0144382Y0275803D02*
X0136902Y0275803D01*
X0136902Y0248244D02*
X0143185Y0248244D01*
X0144382Y0247047D01*
X0149697Y0232693D02*
X0149500Y0232496D01*
X0136902Y0232496D01*
X0136902Y0226591D02*
X0144945Y0226591D01*
X0145291Y0226244D01*
X0143413Y0224622D01*
X0136902Y0224622D01*
X0136902Y0222654D02*
X0144063Y0222654D01*
X0145744Y0220972D01*
X0145169Y0219898D01*
X0145169Y0214386D01*
X0151075Y0214386D02*
X0151075Y0222457D01*
X0151059Y0222472D01*
X0155012Y0220181D02*
X0155157Y0220327D01*
X0155012Y0220181D02*
X0155012Y0214386D01*
X0168791Y0214386D02*
X0168791Y0220366D01*
X0168685Y0220472D01*
X0172622Y0221472D02*
X0172728Y0221366D01*
X0172728Y0214386D01*
X0176665Y0214386D02*
X0176665Y0220319D01*
X0176657Y0220327D01*
X0196350Y0220020D02*
X0196350Y0214386D01*
X0196350Y0220020D02*
X0196657Y0220327D01*
X0204028Y0221472D02*
X0204224Y0221276D01*
X0204224Y0214386D01*
X0206193Y0214386D02*
X0206193Y0218362D01*
X0208157Y0220327D01*
X0212098Y0219276D02*
X0214295Y0221472D01*
X0214067Y0221244D01*
X0214067Y0214386D01*
X0212098Y0214386D02*
X0212098Y0219276D01*
X0221748Y0219744D02*
X0222335Y0220331D01*
X0222335Y0222654D01*
X0222335Y0240370D02*
X0210130Y0240370D01*
X0222335Y0242339D02*
X0232146Y0242339D01*
X0233157Y0241327D01*
X0222335Y0263992D02*
X0213067Y0263992D01*
X0216657Y0267327D02*
X0218024Y0265961D01*
X0222335Y0265961D01*
X0264933Y0296472D02*
X0264933Y0302895D01*
X0262374Y0305454D01*
X0262374Y0310543D01*
X0262657Y0310827D01*
X0269248Y0310744D02*
X0269461Y0310531D01*
X0269461Y0305454D01*
X0266902Y0302895D01*
X0266902Y0296472D01*
X0266902Y0219701D02*
X0266902Y0212430D01*
X0269461Y0209871D01*
X0269461Y0205130D01*
X0269157Y0204827D01*
X0262748Y0204744D02*
X0262374Y0205118D01*
X0262374Y0209871D01*
X0264933Y0212430D01*
X0264933Y0219701D01*
X0107846Y0219307D02*
X0107256Y0218717D01*
X0099421Y0218717D01*
X0099421Y0212811D02*
X0107256Y0212811D01*
X0107846Y0212220D01*
X0107846Y0191669D02*
X0107335Y0191157D01*
X0099421Y0191157D01*
X0099421Y0185252D02*
X0107177Y0185252D01*
X0107846Y0184583D01*
X0069894Y0191157D02*
X0066862Y0191157D01*
X0066272Y0190567D01*
X0062728Y0190567D01*
X0060563Y0192732D01*
X0051157Y0184327D02*
X0051157Y0180827D01*
X0047157Y0176827D01*
X0045657Y0176827D01*
X0042157Y0180327D01*
X0042157Y0184327D01*
X0043657Y0185827D01*
X0049657Y0185827D01*
X0051157Y0184327D01*
X0051157Y0183906D02*
X0042157Y0183906D01*
X0042157Y0182708D02*
X0051157Y0182708D01*
X0051157Y0181509D02*
X0042157Y0181509D01*
X0042174Y0180311D02*
X0050641Y0180311D01*
X0049443Y0179112D02*
X0043372Y0179112D01*
X0044571Y0177914D02*
X0048244Y0177914D01*
X0050380Y0185105D02*
X0042935Y0185105D01*
X0046417Y0168209D02*
X0046417Y0164067D01*
X0048157Y0162327D01*
X0053657Y0162327D01*
X0056157Y0164827D01*
X0053898Y0168209D02*
X0055157Y0169469D01*
X0055157Y0169827D01*
X0053083Y0211827D02*
X0053083Y0213205D01*
X0053870Y0213992D01*
X0060957Y0213992D02*
X0062728Y0212220D01*
X0066272Y0212220D01*
X0066862Y0212811D01*
X0069894Y0212811D01*
X0069894Y0246276D02*
X0075130Y0246276D01*
X0094028Y0246079D02*
X0094224Y0246276D01*
X0099421Y0246276D01*
X0099421Y0267929D02*
X0094224Y0267929D01*
X0075130Y0267929D02*
X0069894Y0267929D01*
X0069894Y0301394D02*
X0075130Y0301394D01*
X0094224Y0301394D02*
X0099421Y0301394D01*
X0099421Y0323047D02*
X0094224Y0323047D01*
X0075130Y0323047D02*
X0069894Y0323047D01*
D48*
X0075130Y0323047D03*
X0064500Y0324386D03*
X0061350Y0327142D03*
X0064500Y0330291D03*
X0061350Y0321236D03*
X0064500Y0318480D03*
X0061350Y0315724D03*
X0064500Y0313362D03*
X0061350Y0311000D03*
X0064500Y0308244D03*
X0061350Y0305488D03*
X0064500Y0302732D03*
X0061350Y0299583D03*
X0064500Y0296827D03*
X0061350Y0293677D03*
X0075130Y0301394D03*
X0094224Y0301394D03*
X0094224Y0323047D03*
X0106657Y0332827D03*
X0146157Y0293827D03*
X0143157Y0290827D03*
X0146157Y0287327D03*
X0144382Y0283480D03*
X0144382Y0275803D03*
X0131157Y0287327D03*
X0127157Y0287327D03*
X0150657Y0293827D03*
X0155012Y0292339D03*
X0159157Y0293827D03*
X0166657Y0293827D03*
X0176272Y0292339D03*
X0182657Y0293827D03*
X0180657Y0306327D03*
X0198122Y0292339D03*
X0202256Y0292339D03*
X0210878Y0294031D03*
X0216469Y0289031D03*
X0216657Y0284827D03*
X0214067Y0281209D03*
X0216657Y0267327D03*
X0213067Y0263992D03*
X0233157Y0241327D03*
X0210130Y0240370D03*
X0214295Y0221472D03*
X0221748Y0219744D03*
X0218004Y0214917D03*
X0208157Y0220327D03*
X0204028Y0221472D03*
X0196657Y0220327D03*
X0194264Y0205114D03*
X0176657Y0220327D03*
X0172622Y0221472D03*
X0168685Y0220472D03*
X0155157Y0220327D03*
X0151059Y0222472D03*
X0145744Y0220972D03*
X0145291Y0226244D03*
X0149697Y0232693D03*
X0144382Y0247047D03*
X0144157Y0253327D03*
X0147657Y0255827D03*
X0144157Y0258327D03*
X0147657Y0260827D03*
X0126157Y0239327D03*
X0127157Y0235327D03*
X0119657Y0240827D03*
X0094028Y0246079D03*
X0075130Y0246276D03*
X0075130Y0267929D03*
X0094224Y0267929D03*
X0061350Y0223047D03*
X0064500Y0220291D03*
X0060957Y0217732D03*
X0064106Y0214976D03*
X0060169Y0210055D03*
X0060563Y0205921D03*
X0064500Y0203559D03*
X0060957Y0201000D03*
X0064500Y0198441D03*
X0060957Y0195882D03*
X0064303Y0193323D03*
X0059972Y0189189D03*
X0064500Y0186433D03*
X0061350Y0183677D03*
X0064500Y0180921D03*
X0074748Y0191843D03*
X0086323Y0180465D03*
X0064500Y0208283D03*
X0039972Y0226827D03*
X0036823Y0229976D03*
X0039972Y0233126D03*
X0036823Y0236276D03*
X0039933Y0243913D03*
X0036783Y0247063D03*
X0039933Y0250213D03*
X0036783Y0253362D03*
X0039933Y0260803D03*
X0036783Y0263953D03*
X0039933Y0267102D03*
X0036783Y0270252D03*
X0039894Y0277890D03*
X0036744Y0281039D03*
X0039894Y0284189D03*
X0036744Y0287339D03*
X0039894Y0294268D03*
X0110476Y0209957D03*
X0124146Y0191591D03*
X0233657Y0291327D03*
X0238657Y0292327D03*
X0238657Y0298827D03*
X0234657Y0301827D03*
X0241157Y0320827D03*
X0240157Y0325827D03*
X0226657Y0334827D03*
X0202657Y0305827D03*
X0262657Y0310827D03*
X0269248Y0310744D03*
X0277157Y0302327D03*
X0284748Y0327744D03*
X0284657Y0333827D03*
X0269157Y0204827D03*
X0262748Y0204744D03*
X0368157Y0193327D03*
X0393157Y0193327D03*
D49*
X0320157Y0246827D03*
X0314157Y0246827D03*
X0314157Y0252827D03*
X0320157Y0252827D03*
X0331657Y0266827D03*
X0302657Y0266827D03*
X0308657Y0313827D03*
X0308657Y0323327D03*
X0328157Y0323827D03*
X0334657Y0324327D03*
X0334657Y0312327D03*
X0328157Y0312827D03*
X0258657Y0328327D03*
X0129657Y0329827D03*
D50*
X0053083Y0213402D02*
X0053083Y0211827D01*
X0053083Y0192811D01*
X0053004Y0192732D01*
X0053004Y0187673D01*
X0049157Y0183827D01*
X0045917Y0192732D02*
X0045157Y0193492D01*
X0045157Y0203327D01*
X0045157Y0212563D01*
X0045996Y0213402D01*
X0055157Y0169827D02*
X0055157Y0165827D01*
X0056157Y0164827D01*
X0058862Y0162122D01*
X0066606Y0162122D01*
X0302917Y0259827D02*
X0302917Y0266567D01*
X0302657Y0266827D01*
X0331398Y0266087D02*
X0331398Y0265827D01*
X0331398Y0259827D01*
X0321917Y0237827D02*
X0321417Y0237327D01*
X0315157Y0237327D01*
X0315157Y0225327D02*
X0321417Y0225327D01*
X0321917Y0225827D01*
X0334657Y0312327D02*
X0334657Y0316827D01*
X0334657Y0324327D01*
D51*
X0218657Y0123827D02*
X0214157Y0123827D01*
X0211657Y0121327D01*
X0211657Y0118091D01*
X0218657Y0123827D02*
X0219157Y0123327D01*
X0221657Y0118091D02*
X0221657Y0114827D01*
X0224657Y0111827D01*
X0228657Y0111827D01*
X0230657Y0113827D01*
X0231657Y0113827D01*
X0233657Y0115827D01*
X0233657Y0116827D01*
X0234811Y0116827D01*
X0219157Y0112827D02*
X0216657Y0110327D01*
X0216657Y0104327D01*
X0211638Y0099307D01*
X0211508Y0099307D01*
X0097657Y0179327D02*
X0071657Y0179327D01*
X0071657Y0179476D01*
X0072953Y0179476D01*
X0073661Y0180184D01*
X0073661Y0184414D01*
X0072953Y0185122D01*
X0071657Y0185122D01*
X0071657Y0185382D01*
X0072953Y0185382D01*
X0073661Y0186090D01*
X0073661Y0196225D01*
X0072953Y0196933D01*
X0071657Y0196933D01*
X0071657Y0197193D01*
X0072953Y0197193D01*
X0073661Y0197901D01*
X0073661Y0206068D01*
X0072953Y0206776D01*
X0071657Y0206776D01*
X0071657Y0207035D01*
X0072953Y0207035D01*
X0073661Y0207743D01*
X0073661Y0217879D01*
X0072953Y0218587D01*
X0071657Y0218587D01*
X0071657Y0218846D01*
X0072953Y0218846D01*
X0073661Y0219554D01*
X0073661Y0223784D01*
X0072953Y0224492D01*
X0071657Y0224492D01*
X0071657Y0224827D01*
X0097657Y0224827D01*
X0097657Y0224492D01*
X0096362Y0224492D01*
X0095654Y0223784D01*
X0095654Y0219554D01*
X0096362Y0218846D01*
X0097657Y0218846D01*
X0097657Y0218587D01*
X0096362Y0218587D01*
X0095654Y0217879D01*
X0095654Y0207743D01*
X0096362Y0207035D01*
X0097657Y0207035D01*
X0097657Y0206776D01*
X0096362Y0206776D01*
X0095654Y0206068D01*
X0095654Y0197901D01*
X0096362Y0197193D01*
X0097657Y0197193D01*
X0097657Y0196933D01*
X0096362Y0196933D01*
X0095654Y0196225D01*
X0095654Y0186090D01*
X0096362Y0185382D01*
X0097657Y0185382D01*
X0097657Y0185122D01*
X0096362Y0185122D01*
X0095654Y0184414D01*
X0095654Y0180184D01*
X0096362Y0179476D01*
X0097657Y0179476D01*
X0097657Y0179327D01*
X0096150Y0179688D02*
X0073165Y0179688D01*
X0073661Y0180687D02*
X0095654Y0180687D01*
X0095654Y0181685D02*
X0073661Y0181685D01*
X0073661Y0182684D02*
X0095654Y0182684D01*
X0095654Y0183682D02*
X0073661Y0183682D01*
X0073395Y0184681D02*
X0095920Y0184681D01*
X0096064Y0185679D02*
X0073251Y0185679D01*
X0073661Y0186678D02*
X0095654Y0186678D01*
X0095654Y0187676D02*
X0073661Y0187676D01*
X0073661Y0188675D02*
X0095654Y0188675D01*
X0095654Y0189673D02*
X0073661Y0189673D01*
X0073661Y0190672D02*
X0095654Y0190672D01*
X0095654Y0191670D02*
X0073661Y0191670D01*
X0073661Y0192669D02*
X0095654Y0192669D01*
X0095654Y0193667D02*
X0073661Y0193667D01*
X0073661Y0194666D02*
X0095654Y0194666D01*
X0095654Y0195665D02*
X0073661Y0195665D01*
X0073223Y0196663D02*
X0096092Y0196663D01*
X0095893Y0197662D02*
X0073422Y0197662D01*
X0073661Y0198660D02*
X0095654Y0198660D01*
X0095654Y0199659D02*
X0073661Y0199659D01*
X0073661Y0200657D02*
X0095654Y0200657D01*
X0095654Y0201656D02*
X0073661Y0201656D01*
X0073661Y0202654D02*
X0095654Y0202654D01*
X0095654Y0203653D02*
X0073661Y0203653D01*
X0073661Y0204651D02*
X0095654Y0204651D01*
X0095654Y0205650D02*
X0073661Y0205650D01*
X0073081Y0206648D02*
X0096234Y0206648D01*
X0095750Y0207647D02*
X0073565Y0207647D01*
X0073661Y0208645D02*
X0095654Y0208645D01*
X0095654Y0209644D02*
X0073661Y0209644D01*
X0073661Y0210642D02*
X0095654Y0210642D01*
X0095654Y0211641D02*
X0073661Y0211641D01*
X0073661Y0212639D02*
X0095654Y0212639D01*
X0095654Y0213638D02*
X0073661Y0213638D01*
X0073661Y0214636D02*
X0095654Y0214636D01*
X0095654Y0215635D02*
X0073661Y0215635D01*
X0073661Y0216633D02*
X0095654Y0216633D01*
X0095654Y0217632D02*
X0073661Y0217632D01*
X0073661Y0219629D02*
X0095654Y0219629D01*
X0095654Y0220627D02*
X0073661Y0220627D01*
X0073661Y0221626D02*
X0095654Y0221626D01*
X0095654Y0222624D02*
X0073661Y0222624D01*
X0073661Y0223623D02*
X0095654Y0223623D01*
X0097657Y0224621D02*
X0071657Y0224621D01*
X0071657Y0218630D02*
X0097657Y0218630D01*
X0097657Y0234327D02*
X0071657Y0234327D01*
X0071657Y0234594D01*
X0072953Y0234594D01*
X0073661Y0235302D01*
X0073661Y0239532D01*
X0072953Y0240240D01*
X0071657Y0240240D01*
X0071657Y0240500D01*
X0072953Y0240500D01*
X0073661Y0241208D01*
X0073661Y0243857D01*
X0074574Y0243480D01*
X0075686Y0243480D01*
X0076714Y0243905D01*
X0077500Y0244692D01*
X0077926Y0245719D01*
X0077926Y0246832D01*
X0077500Y0247859D01*
X0076714Y0248646D01*
X0075686Y0249072D01*
X0074574Y0249072D01*
X0073661Y0248694D01*
X0073661Y0251343D01*
X0072953Y0252051D01*
X0071657Y0252051D01*
X0071657Y0252311D01*
X0072953Y0252311D01*
X0073661Y0253019D01*
X0073661Y0261186D01*
X0072953Y0261894D01*
X0071657Y0261894D01*
X0071657Y0262154D01*
X0072953Y0262154D01*
X0073661Y0262862D01*
X0073661Y0265511D01*
X0074574Y0265133D01*
X0075686Y0265133D01*
X0076714Y0265559D01*
X0077500Y0266345D01*
X0077926Y0267373D01*
X0077926Y0268485D01*
X0077500Y0269513D01*
X0076714Y0270300D01*
X0075686Y0270725D01*
X0074574Y0270725D01*
X0073661Y0270347D01*
X0073661Y0272997D01*
X0072953Y0273705D01*
X0071657Y0273705D01*
X0071657Y0273965D01*
X0072953Y0273965D01*
X0073661Y0274673D01*
X0073661Y0278902D01*
X0072953Y0279610D01*
X0071657Y0279610D01*
X0071657Y0279827D01*
X0097657Y0279827D01*
X0097657Y0279610D01*
X0096362Y0279610D01*
X0095654Y0278902D01*
X0095654Y0274673D01*
X0096362Y0273965D01*
X0097657Y0273965D01*
X0097657Y0273705D01*
X0096362Y0273705D01*
X0095654Y0272997D01*
X0095654Y0270364D01*
X0094781Y0270725D01*
X0093668Y0270725D01*
X0092641Y0270300D01*
X0091854Y0269513D01*
X0091428Y0268485D01*
X0091428Y0267373D01*
X0091854Y0266345D01*
X0092641Y0265559D01*
X0093668Y0265133D01*
X0094781Y0265133D01*
X0095654Y0265495D01*
X0095654Y0262862D01*
X0096362Y0262154D01*
X0097657Y0262154D01*
X0097657Y0261894D01*
X0096362Y0261894D01*
X0095654Y0261186D01*
X0095654Y0253019D01*
X0096362Y0252311D01*
X0097657Y0252311D01*
X0097657Y0252051D01*
X0096362Y0252051D01*
X0095654Y0251343D01*
X0095654Y0248407D01*
X0095611Y0248449D01*
X0094584Y0248875D01*
X0093471Y0248875D01*
X0092444Y0248449D01*
X0091657Y0247663D01*
X0091231Y0246635D01*
X0091231Y0245523D01*
X0091657Y0244495D01*
X0092444Y0243708D01*
X0093471Y0243283D01*
X0094584Y0243283D01*
X0095611Y0243708D01*
X0095654Y0243751D01*
X0095654Y0241208D01*
X0096362Y0240500D01*
X0097657Y0240500D01*
X0097657Y0240240D01*
X0096362Y0240240D01*
X0095654Y0239532D01*
X0095654Y0235302D01*
X0096362Y0234594D01*
X0097657Y0234594D01*
X0097657Y0234327D01*
X0096350Y0234606D02*
X0072965Y0234606D01*
X0073661Y0235605D02*
X0095654Y0235605D01*
X0095654Y0236603D02*
X0073661Y0236603D01*
X0073661Y0237602D02*
X0095654Y0237602D01*
X0095654Y0238600D02*
X0073661Y0238600D01*
X0073595Y0239599D02*
X0095720Y0239599D01*
X0096264Y0240598D02*
X0073051Y0240598D01*
X0073661Y0241596D02*
X0095654Y0241596D01*
X0095654Y0242595D02*
X0073661Y0242595D01*
X0073661Y0243593D02*
X0074300Y0243593D01*
X0075960Y0243593D02*
X0092722Y0243593D01*
X0091617Y0244592D02*
X0077400Y0244592D01*
X0077872Y0245590D02*
X0091231Y0245590D01*
X0091231Y0246589D02*
X0077926Y0246589D01*
X0077613Y0247587D02*
X0091626Y0247587D01*
X0092773Y0248586D02*
X0076774Y0248586D01*
X0073661Y0249584D02*
X0095654Y0249584D01*
X0095654Y0248586D02*
X0095282Y0248586D01*
X0095654Y0250583D02*
X0073661Y0250583D01*
X0073423Y0251581D02*
X0095892Y0251581D01*
X0096093Y0252580D02*
X0073222Y0252580D01*
X0073661Y0253578D02*
X0095654Y0253578D01*
X0095654Y0254577D02*
X0073661Y0254577D01*
X0073661Y0255575D02*
X0095654Y0255575D01*
X0095654Y0256574D02*
X0073661Y0256574D01*
X0073661Y0257572D02*
X0095654Y0257572D01*
X0095654Y0258571D02*
X0073661Y0258571D01*
X0073661Y0259569D02*
X0095654Y0259569D01*
X0095654Y0260568D02*
X0073661Y0260568D01*
X0073281Y0261566D02*
X0096034Y0261566D01*
X0095950Y0262565D02*
X0073365Y0262565D01*
X0073661Y0263563D02*
X0095654Y0263563D01*
X0095654Y0264562D02*
X0073661Y0264562D01*
X0076715Y0265560D02*
X0092639Y0265560D01*
X0091766Y0266559D02*
X0077589Y0266559D01*
X0077926Y0267557D02*
X0091428Y0267557D01*
X0091458Y0268556D02*
X0077897Y0268556D01*
X0077459Y0269554D02*
X0091895Y0269554D01*
X0093252Y0270553D02*
X0076102Y0270553D01*
X0074158Y0270553D02*
X0073661Y0270553D01*
X0073661Y0271551D02*
X0095654Y0271551D01*
X0095654Y0270553D02*
X0095197Y0270553D01*
X0095654Y0272550D02*
X0073661Y0272550D01*
X0073110Y0273548D02*
X0096205Y0273548D01*
X0095779Y0274547D02*
X0073536Y0274547D01*
X0073661Y0275545D02*
X0095654Y0275545D01*
X0095654Y0276544D02*
X0073661Y0276544D01*
X0073661Y0277542D02*
X0095654Y0277542D01*
X0095654Y0278541D02*
X0073661Y0278541D01*
X0073024Y0279539D02*
X0096291Y0279539D01*
X0097657Y0289327D02*
X0071657Y0289327D01*
X0071657Y0289713D01*
X0072953Y0289713D01*
X0073661Y0290421D01*
X0073661Y0294650D01*
X0072953Y0295358D01*
X0071657Y0295358D01*
X0071657Y0295618D01*
X0072953Y0295618D01*
X0073661Y0296326D01*
X0073661Y0298976D01*
X0074574Y0298598D01*
X0075686Y0298598D01*
X0076714Y0299023D01*
X0077500Y0299810D01*
X0077926Y0300838D01*
X0077926Y0301950D01*
X0077500Y0302978D01*
X0076714Y0303764D01*
X0075686Y0304190D01*
X0074574Y0304190D01*
X0073661Y0303812D01*
X0073661Y0306461D01*
X0072953Y0307169D01*
X0071657Y0307169D01*
X0071657Y0307429D01*
X0072953Y0307429D01*
X0073661Y0308137D01*
X0073661Y0316304D01*
X0072953Y0317012D01*
X0071657Y0317012D01*
X0071657Y0317272D01*
X0072953Y0317272D01*
X0073661Y0317980D01*
X0073661Y0320629D01*
X0074574Y0320251D01*
X0075686Y0320251D01*
X0076714Y0320677D01*
X0077500Y0321463D01*
X0077926Y0322491D01*
X0077926Y0323603D01*
X0077500Y0324631D01*
X0076714Y0325418D01*
X0075686Y0325843D01*
X0074574Y0325843D01*
X0073661Y0325465D01*
X0073661Y0326146D01*
X0072953Y0326854D01*
X0071657Y0326854D01*
X0071657Y0331051D01*
X0072953Y0331051D01*
X0073661Y0331759D01*
X0073661Y0334020D01*
X0072953Y0334728D01*
X0071657Y0334728D01*
X0071657Y0335327D01*
X0097657Y0335327D01*
X0097657Y0334728D01*
X0096362Y0334728D01*
X0095654Y0334020D01*
X0095654Y0329791D01*
X0096362Y0329083D01*
X0097657Y0329083D01*
X0097657Y0328823D01*
X0096362Y0328823D01*
X0095654Y0328115D01*
X0095654Y0325482D01*
X0094781Y0325843D01*
X0093668Y0325843D01*
X0092641Y0325418D01*
X0091854Y0324631D01*
X0091428Y0323603D01*
X0091428Y0322491D01*
X0091854Y0321463D01*
X0092641Y0320677D01*
X0093668Y0320251D01*
X0094781Y0320251D01*
X0095654Y0320613D01*
X0095654Y0317980D01*
X0096362Y0317272D01*
X0097657Y0317272D01*
X0097657Y0317012D01*
X0096362Y0317012D01*
X0095654Y0316304D01*
X0095654Y0308137D01*
X0096362Y0307429D01*
X0097657Y0307429D01*
X0097657Y0307169D01*
X0096362Y0307169D01*
X0095654Y0306461D01*
X0095654Y0303828D01*
X0094781Y0304190D01*
X0093668Y0304190D01*
X0092641Y0303764D01*
X0091854Y0302978D01*
X0091428Y0301950D01*
X0091428Y0300838D01*
X0091854Y0299810D01*
X0092641Y0299023D01*
X0093668Y0298598D01*
X0094781Y0298598D01*
X0095654Y0298959D01*
X0095654Y0296326D01*
X0096362Y0295618D01*
X0097657Y0295618D01*
X0097657Y0295358D01*
X0096362Y0295358D01*
X0095654Y0294650D01*
X0095654Y0290421D01*
X0096362Y0289713D01*
X0097657Y0289713D01*
X0097657Y0289327D01*
X0097657Y0289525D02*
X0071657Y0289525D01*
X0073661Y0290523D02*
X0095654Y0290523D01*
X0095654Y0291522D02*
X0073661Y0291522D01*
X0073661Y0292520D02*
X0095654Y0292520D01*
X0095654Y0293519D02*
X0073661Y0293519D01*
X0073661Y0294517D02*
X0095654Y0294517D01*
X0095654Y0296514D02*
X0073661Y0296514D01*
X0073661Y0297513D02*
X0095654Y0297513D01*
X0095654Y0298511D02*
X0073661Y0298511D01*
X0071657Y0295516D02*
X0097657Y0295516D01*
X0092154Y0299510D02*
X0077200Y0299510D01*
X0077790Y0300508D02*
X0091565Y0300508D01*
X0091428Y0301507D02*
X0077926Y0301507D01*
X0077696Y0302505D02*
X0091658Y0302505D01*
X0092380Y0303504D02*
X0076974Y0303504D01*
X0073661Y0304502D02*
X0095654Y0304502D01*
X0095654Y0305501D02*
X0073661Y0305501D01*
X0073623Y0306499D02*
X0095692Y0306499D01*
X0096293Y0307498D02*
X0073022Y0307498D01*
X0073661Y0308496D02*
X0095654Y0308496D01*
X0095654Y0309495D02*
X0073661Y0309495D01*
X0073661Y0310493D02*
X0095654Y0310493D01*
X0095654Y0311492D02*
X0073661Y0311492D01*
X0073661Y0312490D02*
X0095654Y0312490D01*
X0095654Y0313489D02*
X0073661Y0313489D01*
X0073661Y0314487D02*
X0095654Y0314487D01*
X0095654Y0315486D02*
X0073661Y0315486D01*
X0073481Y0316484D02*
X0095834Y0316484D01*
X0096150Y0317483D02*
X0073165Y0317483D01*
X0073661Y0318481D02*
X0095654Y0318481D01*
X0095654Y0319480D02*
X0073661Y0319480D01*
X0073661Y0320478D02*
X0074025Y0320478D01*
X0076235Y0320478D02*
X0093120Y0320478D01*
X0091848Y0321477D02*
X0077506Y0321477D01*
X0077919Y0322475D02*
X0091435Y0322475D01*
X0091428Y0323474D02*
X0077926Y0323474D01*
X0077566Y0324472D02*
X0091788Y0324472D01*
X0092769Y0325471D02*
X0076585Y0325471D01*
X0073675Y0325471D02*
X0073661Y0325471D01*
X0073338Y0326469D02*
X0095654Y0326469D01*
X0095654Y0327468D02*
X0071657Y0327468D01*
X0071657Y0328467D02*
X0096005Y0328467D01*
X0095979Y0329465D02*
X0071657Y0329465D01*
X0071657Y0330464D02*
X0095654Y0330464D01*
X0095654Y0331462D02*
X0073364Y0331462D01*
X0073661Y0332461D02*
X0095654Y0332461D01*
X0095654Y0333459D02*
X0073661Y0333459D01*
X0073224Y0334458D02*
X0096091Y0334458D01*
X0095654Y0320478D02*
X0095329Y0320478D01*
X0095333Y0243593D02*
X0095654Y0243593D01*
D52*
X0081508Y0099307D02*
X0088988Y0091827D01*
X0154657Y0091827D01*
X0161508Y0098677D01*
X0161508Y0099307D01*
X0168988Y0091827D01*
X0196657Y0091827D01*
X0244657Y0091827D01*
X0246657Y0093827D01*
X0246657Y0114827D01*
X0244657Y0116827D01*
X0241504Y0116827D01*
X0241504Y0117937D01*
X0234657Y0124783D01*
X0226657Y0124783D01*
X0226657Y0118091D01*
X0226657Y0131870D02*
X0226657Y0138563D01*
X0226657Y0142827D01*
X0221657Y0142827D01*
X0221657Y0138563D01*
X0216657Y0138563D02*
X0216657Y0142827D01*
X0211657Y0142827D01*
X0211657Y0138563D01*
X0216657Y0142827D02*
X0221657Y0142827D01*
X0226657Y0142827D02*
X0253157Y0142827D01*
X0256606Y0146276D01*
X0256606Y0147122D01*
X0234657Y0131870D02*
X0226657Y0131870D01*
X0124146Y0191591D02*
X0107925Y0191591D01*
X0107846Y0191669D01*
X0110476Y0209957D02*
X0108083Y0212457D01*
X0107846Y0212220D01*
X0050157Y0173327D02*
X0050157Y0168209D01*
X0050138Y0099307D02*
X0046157Y0095327D01*
X0041693Y0095327D01*
X0041657Y0095291D01*
X0040193Y0095291D01*
X0037157Y0098327D01*
X0036311Y0098327D01*
X0034657Y0099980D01*
X0050138Y0099307D02*
X0081508Y0099307D01*
X0258657Y0328327D02*
X0256157Y0330827D01*
X0247921Y0330827D01*
D53*
X0331657Y0266827D02*
X0331398Y0265827D01*
X0315157Y0237327D02*
X0312504Y0237327D01*
X0308004Y0232827D01*
X0301311Y0232827D02*
X0301311Y0225051D01*
X0300917Y0224657D01*
X0298157Y0220327D02*
X0294811Y0216980D01*
X0294657Y0216980D01*
X0294657Y0205417D01*
X0294398Y0205157D01*
X0300917Y0206087D02*
X0301157Y0206327D01*
X0300917Y0206087D02*
X0300917Y0200157D01*
X0308398Y0200157D02*
X0308398Y0206827D01*
X0309398Y0207827D01*
X0309811Y0207827D01*
X0308398Y0206827D02*
X0308398Y0212256D01*
X0304657Y0215996D01*
X0308157Y0220327D02*
X0298157Y0220327D01*
X0308157Y0220327D02*
X0315157Y0213327D01*
X0323157Y0213327D01*
X0324657Y0211827D01*
X0329067Y0211827D01*
X0333398Y0207496D01*
X0329657Y0203756D02*
X0329657Y0198673D01*
X0329657Y0203756D02*
X0325917Y0207496D01*
X0320157Y0200327D02*
X0316504Y0203980D01*
X0316504Y0207827D01*
X0316898Y0216157D02*
X0308398Y0224657D01*
X0316898Y0216157D02*
X0329657Y0216157D01*
X0329657Y0191980D02*
X0315311Y0191980D01*
X0304657Y0181327D01*
X0309365Y0176620D01*
X0309657Y0175913D02*
X0309657Y0161827D01*
X0304872Y0157041D01*
X0304165Y0156748D02*
X0287886Y0156748D01*
X0287886Y0151827D02*
X0304243Y0151827D01*
X0304950Y0152120D02*
X0314657Y0161827D01*
X0314657Y0164550D01*
X0314659Y0164580D01*
X0314664Y0164610D01*
X0314672Y0164639D01*
X0314684Y0164667D01*
X0314698Y0164693D01*
X0314716Y0164718D01*
X0314736Y0164740D01*
X0322278Y0164447D02*
X0305029Y0147198D01*
X0304322Y0146906D02*
X0287886Y0146906D01*
X0287886Y0161669D02*
X0287886Y0170310D01*
X0288179Y0171017D02*
X0290657Y0173496D01*
X0288179Y0171017D02*
X0288137Y0170973D01*
X0288099Y0170927D01*
X0288063Y0170878D01*
X0288030Y0170827D01*
X0288001Y0170775D01*
X0287974Y0170720D01*
X0287951Y0170665D01*
X0287931Y0170608D01*
X0287915Y0170549D01*
X0287902Y0170490D01*
X0287893Y0170431D01*
X0287888Y0170370D01*
X0287886Y0170310D01*
X0298657Y0170976D02*
X0304894Y0164740D01*
X0298657Y0170976D02*
X0298657Y0184827D01*
X0304657Y0190827D01*
X0304657Y0191496D01*
X0294398Y0192756D02*
X0294398Y0189327D01*
X0293004Y0189327D01*
X0294398Y0189327D02*
X0294398Y0182157D01*
X0286917Y0182157D02*
X0284157Y0184917D01*
X0284157Y0189327D01*
X0286311Y0189327D01*
X0284157Y0189327D02*
X0284157Y0193827D01*
X0285657Y0195327D01*
X0290657Y0196496D02*
X0294398Y0192756D01*
X0285933Y0204173D02*
X0286917Y0205157D01*
X0286835Y0204657D01*
X0285933Y0204173D02*
X0278657Y0204173D01*
X0278657Y0197480D02*
X0272504Y0197480D01*
X0269157Y0200827D01*
X0269157Y0204827D01*
X0309364Y0176620D02*
X0309406Y0176576D01*
X0309444Y0176530D01*
X0309480Y0176481D01*
X0309513Y0176430D01*
X0309542Y0176378D01*
X0309569Y0176323D01*
X0309592Y0176268D01*
X0309612Y0176211D01*
X0309628Y0176152D01*
X0309641Y0176093D01*
X0309650Y0176034D01*
X0309655Y0175973D01*
X0309657Y0175913D01*
X0322985Y0164740D02*
X0324579Y0164740D01*
X0322985Y0164740D02*
X0322925Y0164738D01*
X0322864Y0164733D01*
X0322805Y0164724D01*
X0322746Y0164711D01*
X0322687Y0164695D01*
X0322630Y0164675D01*
X0322575Y0164652D01*
X0322520Y0164625D01*
X0322468Y0164596D01*
X0322417Y0164563D01*
X0322368Y0164527D01*
X0322322Y0164489D01*
X0322278Y0164447D01*
X0304872Y0157041D02*
X0304828Y0156999D01*
X0304782Y0156961D01*
X0304733Y0156925D01*
X0304682Y0156892D01*
X0304630Y0156863D01*
X0304575Y0156836D01*
X0304520Y0156813D01*
X0304463Y0156793D01*
X0304404Y0156777D01*
X0304345Y0156764D01*
X0304286Y0156755D01*
X0304225Y0156750D01*
X0304165Y0156748D01*
X0304950Y0152120D02*
X0304906Y0152078D01*
X0304860Y0152040D01*
X0304811Y0152004D01*
X0304760Y0151971D01*
X0304708Y0151942D01*
X0304653Y0151915D01*
X0304598Y0151892D01*
X0304541Y0151872D01*
X0304482Y0151856D01*
X0304423Y0151843D01*
X0304364Y0151834D01*
X0304303Y0151829D01*
X0304243Y0151827D01*
X0305029Y0147198D02*
X0304985Y0147156D01*
X0304939Y0147118D01*
X0304890Y0147082D01*
X0304839Y0147049D01*
X0304787Y0147020D01*
X0304732Y0146993D01*
X0304677Y0146970D01*
X0304620Y0146950D01*
X0304561Y0146934D01*
X0304502Y0146921D01*
X0304443Y0146912D01*
X0304382Y0146907D01*
X0304322Y0146905D01*
X0389102Y0117382D02*
X0389102Y0107528D01*
X0216657Y0114871D02*
X0216657Y0118091D01*
X0216657Y0114871D02*
X0216655Y0114811D01*
X0216650Y0114750D01*
X0216641Y0114691D01*
X0216628Y0114632D01*
X0216612Y0114573D01*
X0216592Y0114516D01*
X0216569Y0114461D01*
X0216542Y0114406D01*
X0216513Y0114354D01*
X0216480Y0114303D01*
X0216444Y0114254D01*
X0216406Y0114208D01*
X0216364Y0114164D01*
X0216365Y0114164D02*
X0211508Y0109307D01*
X0211438Y0109307D01*
X0210731Y0109600D02*
X0205004Y0115327D01*
X0209254Y0118383D02*
X0204157Y0123480D01*
X0198604Y0124620D02*
X0198562Y0124576D01*
X0198524Y0124530D01*
X0198488Y0124481D01*
X0198455Y0124430D01*
X0198426Y0124378D01*
X0198399Y0124323D01*
X0198376Y0124268D01*
X0198356Y0124211D01*
X0198340Y0124152D01*
X0198327Y0124093D01*
X0198318Y0124034D01*
X0198313Y0123973D01*
X0198311Y0123913D01*
X0198311Y0115327D01*
X0198311Y0114480D01*
X0196657Y0112827D01*
X0196657Y0091827D01*
X0210731Y0109600D02*
X0210775Y0109558D01*
X0210821Y0109520D01*
X0210870Y0109484D01*
X0210921Y0109451D01*
X0210973Y0109422D01*
X0211028Y0109395D01*
X0211083Y0109372D01*
X0211140Y0109352D01*
X0211199Y0109336D01*
X0211258Y0109323D01*
X0211317Y0109314D01*
X0211378Y0109309D01*
X0211438Y0109307D01*
X0211657Y0118091D02*
X0209961Y0118091D01*
X0209901Y0118093D01*
X0209840Y0118098D01*
X0209781Y0118107D01*
X0209722Y0118120D01*
X0209663Y0118136D01*
X0209606Y0118156D01*
X0209551Y0118179D01*
X0209496Y0118206D01*
X0209444Y0118235D01*
X0209393Y0118268D01*
X0209344Y0118304D01*
X0209298Y0118342D01*
X0209254Y0118384D01*
X0198604Y0124620D02*
X0204157Y0130173D01*
X0093657Y0129827D02*
X0093657Y0123327D01*
X0055657Y0123327D01*
X0055657Y0129327D01*
X0060657Y0134327D01*
X0089157Y0134327D01*
X0093657Y0129827D01*
X0093498Y0129987D02*
X0056317Y0129987D01*
X0055657Y0128388D02*
X0093657Y0128388D01*
X0093657Y0126790D02*
X0055657Y0126790D01*
X0055657Y0125191D02*
X0093657Y0125191D01*
X0093657Y0123593D02*
X0055657Y0123593D01*
X0052157Y0120291D02*
X0093657Y0120291D01*
X0093657Y0108827D01*
X0092657Y0107827D01*
X0080657Y0107827D01*
X0073157Y0115327D01*
X0062657Y0115327D01*
X0060157Y0112827D01*
X0060157Y0110327D01*
X0058657Y0108827D01*
X0056657Y0108827D01*
X0049657Y0115827D01*
X0049657Y0118827D01*
X0051157Y0120327D01*
X0052157Y0120291D01*
X0049657Y0118797D02*
X0093657Y0118797D01*
X0093657Y0117198D02*
X0049657Y0117198D01*
X0049884Y0115600D02*
X0093657Y0115600D01*
X0093657Y0114001D02*
X0074483Y0114001D01*
X0076081Y0112403D02*
X0093657Y0112403D01*
X0093657Y0110804D02*
X0077680Y0110804D01*
X0079278Y0109206D02*
X0093657Y0109206D01*
X0091899Y0131585D02*
X0057916Y0131585D01*
X0059514Y0133184D02*
X0090301Y0133184D01*
X0061332Y0114001D02*
X0051483Y0114001D01*
X0053081Y0112403D02*
X0060157Y0112403D01*
X0060157Y0110804D02*
X0054680Y0110804D01*
X0056278Y0109206D02*
X0059037Y0109206D01*
X0060563Y0192732D02*
X0053004Y0192732D01*
X0053870Y0213992D02*
X0060957Y0213992D01*
D54*
X0064106Y0214976D02*
X0064894Y0214780D01*
X0069894Y0214780D01*
X0069894Y0216748D02*
X0066075Y0216748D01*
X0065091Y0217732D01*
X0060957Y0217732D01*
X0064500Y0220291D02*
X0064894Y0220685D01*
X0069894Y0220685D01*
X0069894Y0222654D02*
X0066272Y0222654D01*
X0065878Y0223047D01*
X0061350Y0223047D01*
X0055945Y0226795D02*
X0065583Y0236433D01*
X0069894Y0236433D01*
X0069894Y0238402D02*
X0064461Y0238402D01*
X0056004Y0229945D01*
X0052780Y0229945D01*
X0052780Y0233094D02*
X0056063Y0233094D01*
X0065307Y0242339D01*
X0069894Y0242339D01*
X0069894Y0244307D02*
X0069874Y0244327D01*
X0064402Y0244327D01*
X0056319Y0236244D01*
X0052780Y0236244D01*
X0046480Y0236244D02*
X0036854Y0236244D01*
X0036823Y0236276D01*
X0039972Y0233126D02*
X0040004Y0233094D01*
X0046480Y0233094D01*
X0046480Y0229945D02*
X0036854Y0229945D01*
X0036823Y0229976D01*
X0039972Y0226827D02*
X0040004Y0226795D01*
X0046480Y0226795D01*
X0052780Y0226795D02*
X0055945Y0226795D01*
X0056626Y0243795D02*
X0052780Y0243795D01*
X0052780Y0246945D02*
X0057276Y0246945D01*
X0060543Y0250213D01*
X0069894Y0250213D01*
X0069894Y0248244D02*
X0061075Y0248244D01*
X0056626Y0243795D01*
X0057925Y0250094D02*
X0052780Y0250094D01*
X0052780Y0253244D02*
X0058575Y0253244D01*
X0061449Y0256118D01*
X0069894Y0256118D01*
X0069894Y0254150D02*
X0061980Y0254150D01*
X0057925Y0250094D01*
X0061488Y0258087D02*
X0069894Y0258087D01*
X0069894Y0260055D02*
X0062020Y0260055D01*
X0058130Y0263945D01*
X0052780Y0263945D01*
X0052780Y0267094D02*
X0057480Y0267094D01*
X0060583Y0263992D01*
X0069894Y0263992D01*
X0069894Y0265961D02*
X0061114Y0265961D01*
X0056831Y0270244D01*
X0052780Y0270244D01*
X0046480Y0270244D02*
X0036791Y0270244D01*
X0036783Y0270252D01*
X0039933Y0267102D02*
X0039941Y0267094D01*
X0046480Y0267094D01*
X0046480Y0263945D02*
X0036791Y0263945D01*
X0036783Y0263953D01*
X0039933Y0260803D02*
X0039941Y0260795D01*
X0046480Y0260795D01*
X0052780Y0260795D02*
X0058780Y0260795D01*
X0061488Y0258087D01*
X0064087Y0269898D02*
X0069894Y0269898D01*
X0069894Y0271866D02*
X0065406Y0271866D01*
X0056327Y0280945D01*
X0052780Y0280945D01*
X0052780Y0284094D02*
X0056661Y0283898D01*
X0064953Y0275606D01*
X0069894Y0275803D01*
X0069894Y0277772D02*
X0066075Y0277772D01*
X0056602Y0287244D01*
X0052780Y0287244D01*
X0046480Y0287244D02*
X0036839Y0287244D01*
X0036744Y0287339D01*
X0039894Y0284189D02*
X0039988Y0284094D01*
X0046480Y0284094D01*
X0046480Y0280945D02*
X0036839Y0280945D01*
X0036744Y0281039D01*
X0039894Y0277890D02*
X0039988Y0277795D01*
X0046480Y0277795D01*
X0052780Y0277795D02*
X0056189Y0277795D01*
X0064087Y0269898D01*
X0046480Y0253244D02*
X0036902Y0253244D01*
X0036783Y0253362D01*
X0039933Y0250213D02*
X0040051Y0250094D01*
X0046480Y0250094D01*
X0046480Y0246945D02*
X0036902Y0246945D01*
X0036783Y0247063D01*
X0039933Y0243913D02*
X0040051Y0243795D01*
X0046480Y0243795D01*
X0060760Y0210646D02*
X0060169Y0210055D01*
X0060760Y0210646D02*
X0066862Y0210646D01*
X0067059Y0210843D01*
X0069894Y0210843D01*
X0069894Y0208874D02*
X0064894Y0208874D01*
X0064500Y0208283D01*
X0065878Y0205921D02*
X0060563Y0205921D01*
X0064500Y0203559D02*
X0064894Y0202969D01*
X0069894Y0202969D01*
X0069894Y0204937D02*
X0066862Y0204937D01*
X0065878Y0205921D01*
X0069894Y0201000D02*
X0060957Y0201000D01*
X0064500Y0198441D02*
X0065091Y0199031D01*
X0069894Y0199031D01*
X0069894Y0195094D02*
X0066665Y0195094D01*
X0065878Y0195882D01*
X0060957Y0195882D01*
X0064303Y0193323D02*
X0064894Y0193126D01*
X0069894Y0193126D01*
X0069894Y0189189D02*
X0069697Y0188992D01*
X0060169Y0188992D01*
X0059972Y0189189D01*
X0064500Y0186433D02*
X0064894Y0187220D01*
X0069894Y0187220D01*
X0069894Y0183283D02*
X0065878Y0183283D01*
X0065484Y0183677D01*
X0061350Y0183677D01*
X0064500Y0180921D02*
X0064894Y0181315D01*
X0069894Y0181315D01*
X0099421Y0181315D02*
X0102689Y0181315D01*
X0104461Y0179543D01*
X0148374Y0179543D01*
X0178657Y0209827D01*
X0178657Y0214362D01*
X0178634Y0214386D01*
X0180602Y0214386D02*
X0180602Y0181453D01*
X0182592Y0181217D02*
X0182571Y0182171D01*
X0182571Y0214386D01*
X0184539Y0214386D02*
X0184539Y0176818D01*
X0181170Y0175847D02*
X0180657Y0174827D01*
X0178834Y0171595D01*
X0185168Y0172230D02*
X0185215Y0172055D01*
X0185259Y0171880D01*
X0185297Y0171703D01*
X0185332Y0171525D01*
X0185362Y0171347D01*
X0185388Y0171168D01*
X0185410Y0170988D01*
X0185427Y0170808D01*
X0185439Y0170627D01*
X0185448Y0170446D01*
X0185452Y0170265D01*
X0185451Y0170084D01*
X0185446Y0169903D01*
X0185437Y0169723D01*
X0185423Y0169542D01*
X0185405Y0169362D01*
X0185383Y0169183D01*
X0185356Y0169004D01*
X0185325Y0168825D01*
X0185290Y0168648D01*
X0185250Y0168471D01*
X0185206Y0168296D01*
X0185157Y0168121D01*
X0185105Y0167948D01*
X0185048Y0167776D01*
X0184987Y0167606D01*
X0184922Y0167437D01*
X0184853Y0167270D01*
X0184780Y0167104D01*
X0184703Y0166940D01*
X0184622Y0166779D01*
X0184536Y0166619D01*
X0184448Y0166461D01*
X0184355Y0166306D01*
X0184258Y0166153D01*
X0184158Y0166002D01*
X0184054Y0165854D01*
X0183947Y0165708D01*
X0183836Y0165565D01*
X0183722Y0165425D01*
X0178968Y0166808D02*
X0178903Y0166942D01*
X0178841Y0167079D01*
X0178783Y0167217D01*
X0178729Y0167357D01*
X0178678Y0167498D01*
X0178631Y0167640D01*
X0178588Y0167783D01*
X0178548Y0167928D01*
X0178513Y0168073D01*
X0178481Y0168220D01*
X0178453Y0168367D01*
X0178429Y0168515D01*
X0178409Y0168664D01*
X0178393Y0168812D01*
X0178381Y0168962D01*
X0178373Y0169111D01*
X0178369Y0169261D01*
X0178368Y0169411D01*
X0178372Y0169561D01*
X0178380Y0169710D01*
X0178391Y0169860D01*
X0178407Y0170009D01*
X0178426Y0170157D01*
X0178450Y0170305D01*
X0178477Y0170453D01*
X0178508Y0170599D01*
X0178543Y0170745D01*
X0178582Y0170890D01*
X0178625Y0171033D01*
X0178672Y0171176D01*
X0178722Y0171317D01*
X0178776Y0171457D01*
X0178833Y0171595D01*
X0178791Y0175003D02*
X0169052Y0159408D01*
X0178759Y0157979D02*
X0178870Y0158149D01*
X0178976Y0158321D01*
X0179077Y0158496D01*
X0179175Y0158674D01*
X0179268Y0158854D01*
X0179357Y0159036D01*
X0179441Y0159220D01*
X0179520Y0159406D01*
X0179595Y0159595D01*
X0179666Y0159784D01*
X0179732Y0159976D01*
X0179793Y0160169D01*
X0179849Y0160364D01*
X0179900Y0160560D01*
X0179947Y0160757D01*
X0179989Y0160955D01*
X0180026Y0161154D01*
X0180058Y0161354D01*
X0180085Y0161555D01*
X0180107Y0161756D01*
X0180124Y0161958D01*
X0180136Y0162160D01*
X0180144Y0162363D01*
X0180146Y0162565D01*
X0180143Y0162768D01*
X0180136Y0162970D01*
X0180123Y0163172D01*
X0180106Y0163374D01*
X0180083Y0163575D01*
X0180056Y0163776D01*
X0180024Y0163976D01*
X0179986Y0164175D01*
X0179944Y0164373D01*
X0179897Y0164570D01*
X0179846Y0164766D01*
X0179789Y0164961D01*
X0179728Y0165154D01*
X0179662Y0165345D01*
X0179591Y0165535D01*
X0179516Y0165723D01*
X0179436Y0165909D01*
X0179351Y0166093D01*
X0179263Y0166275D01*
X0179169Y0166455D01*
X0179071Y0166632D01*
X0178969Y0166807D01*
X0185169Y0172230D02*
X0184937Y0173025D01*
X0183722Y0165425D02*
X0183648Y0165289D01*
X0183577Y0165151D01*
X0183510Y0165012D01*
X0183446Y0164871D01*
X0183386Y0164728D01*
X0183330Y0164584D01*
X0183277Y0164439D01*
X0183229Y0164292D01*
X0183183Y0164144D01*
X0183142Y0163995D01*
X0183104Y0163845D01*
X0183071Y0163694D01*
X0183041Y0163542D01*
X0183015Y0163390D01*
X0182993Y0163236D01*
X0182975Y0163083D01*
X0182961Y0162929D01*
X0182951Y0162774D01*
X0182944Y0162620D01*
X0182942Y0162465D01*
X0182944Y0162310D01*
X0182949Y0162156D01*
X0182959Y0162001D01*
X0182972Y0161847D01*
X0182990Y0161693D01*
X0183011Y0161540D01*
X0183036Y0161388D01*
X0183066Y0161236D01*
X0183099Y0161084D01*
X0183135Y0160934D01*
X0183176Y0160785D01*
X0183221Y0160637D01*
X0183269Y0160490D01*
X0183321Y0160344D01*
X0183377Y0160200D01*
X0183436Y0160057D01*
X0183499Y0159916D01*
X0183566Y0159776D01*
X0183636Y0159638D01*
X0183710Y0159502D01*
X0183787Y0159368D01*
X0183867Y0159236D01*
X0183951Y0159106D01*
X0184038Y0158978D01*
X0184129Y0158852D01*
X0184222Y0158729D01*
X0178759Y0157979D02*
X0178675Y0157851D01*
X0178596Y0157720D01*
X0178519Y0157588D01*
X0178446Y0157453D01*
X0178377Y0157317D01*
X0178311Y0157179D01*
X0178249Y0157039D01*
X0178191Y0156898D01*
X0178136Y0156755D01*
X0178085Y0156611D01*
X0178037Y0156466D01*
X0177994Y0156319D01*
X0177954Y0156171D01*
X0177919Y0156023D01*
X0177887Y0155873D01*
X0177859Y0155723D01*
X0177835Y0155572D01*
X0177814Y0155420D01*
X0177798Y0155268D01*
X0177786Y0155116D01*
X0177778Y0154963D01*
X0177774Y0154810D01*
X0177773Y0154657D01*
X0177777Y0154504D01*
X0177785Y0154352D01*
X0177797Y0154199D01*
X0177812Y0154047D01*
X0177832Y0153896D01*
X0177855Y0153744D01*
X0177883Y0153594D01*
X0177914Y0153444D01*
X0177950Y0153296D01*
X0177989Y0153148D01*
X0178032Y0153001D01*
X0178078Y0152855D01*
X0178129Y0152711D01*
X0178183Y0152568D01*
X0178241Y0152427D01*
X0178303Y0152287D01*
X0178368Y0152149D01*
X0178437Y0152012D01*
X0178510Y0151877D01*
X0178586Y0151745D01*
X0178665Y0151614D01*
X0169666Y0149312D02*
X0169534Y0149514D01*
X0169408Y0149719D01*
X0169286Y0149927D01*
X0169169Y0150138D01*
X0169058Y0150351D01*
X0168951Y0150568D01*
X0168850Y0150786D01*
X0168754Y0151007D01*
X0168663Y0151230D01*
X0168578Y0151456D01*
X0168498Y0151683D01*
X0168424Y0151912D01*
X0168355Y0152143D01*
X0168292Y0152376D01*
X0168235Y0152610D01*
X0168183Y0152845D01*
X0168137Y0153082D01*
X0168096Y0153319D01*
X0168061Y0153558D01*
X0168032Y0153797D01*
X0168009Y0154037D01*
X0167991Y0154277D01*
X0167980Y0154518D01*
X0167974Y0154758D01*
X0167974Y0154999D01*
X0167979Y0155240D01*
X0167991Y0155481D01*
X0168008Y0155721D01*
X0168031Y0155961D01*
X0168060Y0156200D01*
X0168094Y0156439D01*
X0168134Y0156676D01*
X0168180Y0156913D01*
X0168232Y0157148D01*
X0168289Y0157382D01*
X0168352Y0157615D01*
X0168421Y0157846D01*
X0168495Y0158075D01*
X0168574Y0158303D01*
X0168659Y0158528D01*
X0168749Y0158751D01*
X0168845Y0158973D01*
X0168946Y0159191D01*
X0169052Y0159408D01*
X0184222Y0158729D02*
X0184310Y0158592D01*
X0184396Y0158452D01*
X0184477Y0158311D01*
X0184556Y0158167D01*
X0184630Y0158022D01*
X0184702Y0157875D01*
X0184769Y0157726D01*
X0184833Y0157576D01*
X0184893Y0157424D01*
X0184950Y0157271D01*
X0185003Y0157116D01*
X0185052Y0156960D01*
X0185097Y0156803D01*
X0185138Y0156645D01*
X0185175Y0156486D01*
X0185209Y0156326D01*
X0185238Y0156165D01*
X0185264Y0156004D01*
X0185286Y0155842D01*
X0185304Y0155680D01*
X0185317Y0155517D01*
X0185327Y0155354D01*
X0185333Y0155191D01*
X0185335Y0155027D01*
X0185333Y0154864D01*
X0185327Y0154701D01*
X0185317Y0154537D01*
X0185303Y0154375D01*
X0185284Y0154212D01*
X0185262Y0154050D01*
X0185237Y0153889D01*
X0185207Y0153728D01*
X0185173Y0153569D01*
X0185135Y0153410D01*
X0185094Y0153252D01*
X0185048Y0153095D01*
X0184999Y0152939D01*
X0184946Y0152784D01*
X0184889Y0152631D01*
X0184829Y0152479D01*
X0184764Y0152329D01*
X0184697Y0152181D01*
X0184625Y0152034D01*
X0184550Y0151888D01*
X0184472Y0151745D01*
X0184390Y0151604D01*
X0184304Y0151465D01*
X0184215Y0151327D01*
X0184123Y0151193D01*
X0184028Y0151060D01*
X0183934Y0150908D01*
X0183843Y0150754D01*
X0183755Y0150598D01*
X0183672Y0150440D01*
X0183592Y0150280D01*
X0183517Y0150118D01*
X0183445Y0149955D01*
X0183377Y0149789D01*
X0183313Y0149622D01*
X0183254Y0149454D01*
X0183198Y0149284D01*
X0183147Y0149113D01*
X0183099Y0148941D01*
X0183056Y0148767D01*
X0183017Y0148593D01*
X0182982Y0148417D01*
X0182952Y0148241D01*
X0182926Y0148064D01*
X0182904Y0147887D01*
X0182886Y0147709D01*
X0182873Y0147531D01*
X0182864Y0147353D01*
X0182860Y0147174D01*
X0182859Y0146995D01*
X0182863Y0146817D01*
X0182872Y0146638D01*
X0182885Y0146460D01*
X0182902Y0146282D01*
X0182923Y0146104D01*
X0182948Y0145928D01*
X0182978Y0145751D01*
X0183012Y0145576D01*
X0183051Y0145401D01*
X0183093Y0145228D01*
X0183140Y0145055D01*
X0183191Y0144884D01*
X0183246Y0144714D01*
X0183305Y0144545D01*
X0183369Y0144378D01*
X0183436Y0144213D01*
X0183507Y0144049D01*
X0183582Y0143887D01*
X0183661Y0143726D01*
X0183744Y0143568D01*
X0183831Y0143412D01*
X0183922Y0143258D01*
X0184016Y0143106D01*
X0184114Y0142956D01*
X0184215Y0142809D01*
X0184320Y0142665D01*
X0184429Y0142523D01*
X0184898Y0141886D01*
X0186657Y0136221D02*
X0186657Y0108469D01*
X0179586Y0101898D02*
X0179420Y0102068D01*
X0179257Y0102242D01*
X0179100Y0102420D01*
X0178946Y0102602D01*
X0178796Y0102787D01*
X0178652Y0102976D01*
X0178511Y0103168D01*
X0178376Y0103364D01*
X0178244Y0103563D01*
X0178118Y0103764D01*
X0177997Y0103969D01*
X0177880Y0104177D01*
X0177769Y0104387D01*
X0177662Y0104600D01*
X0177561Y0104815D01*
X0177464Y0105032D01*
X0177373Y0105252D01*
X0177288Y0105474D01*
X0177207Y0105698D01*
X0177132Y0105924D01*
X0177062Y0106152D01*
X0176998Y0106381D01*
X0176939Y0106611D01*
X0176886Y0106843D01*
X0176838Y0107076D01*
X0176795Y0107311D01*
X0176759Y0107546D01*
X0176728Y0107782D01*
X0176702Y0108018D01*
X0176682Y0108256D01*
X0176668Y0108493D01*
X0176660Y0108731D01*
X0176657Y0108969D01*
X0176657Y0134576D01*
X0186657Y0136221D02*
X0186654Y0136462D01*
X0186645Y0136703D01*
X0186631Y0136943D01*
X0186611Y0137183D01*
X0186585Y0137423D01*
X0186553Y0137661D01*
X0186515Y0137899D01*
X0186472Y0138136D01*
X0186423Y0138372D01*
X0186368Y0138607D01*
X0186308Y0138840D01*
X0186242Y0139072D01*
X0186171Y0139302D01*
X0186094Y0139530D01*
X0186011Y0139757D01*
X0185923Y0139981D01*
X0185830Y0140203D01*
X0185731Y0140423D01*
X0185628Y0140640D01*
X0185518Y0140855D01*
X0185404Y0141067D01*
X0185285Y0141276D01*
X0185161Y0141483D01*
X0185031Y0141686D01*
X0184897Y0141886D01*
X0179104Y0141792D02*
X0177739Y0139098D01*
X0168082Y0141702D02*
X0167964Y0141499D01*
X0167850Y0141293D01*
X0167741Y0141085D01*
X0167637Y0140875D01*
X0167538Y0140661D01*
X0167444Y0140446D01*
X0167355Y0140229D01*
X0167272Y0140009D01*
X0167193Y0139788D01*
X0167120Y0139564D01*
X0167052Y0139339D01*
X0166989Y0139113D01*
X0166932Y0138885D01*
X0166880Y0138656D01*
X0166833Y0138426D01*
X0166792Y0138194D01*
X0166756Y0137962D01*
X0166726Y0137729D01*
X0166701Y0137495D01*
X0166682Y0137261D01*
X0166668Y0137027D01*
X0166660Y0136792D01*
X0166657Y0136557D01*
X0166657Y0108469D01*
X0169586Y0101398D02*
X0171508Y0099476D01*
X0171508Y0099307D01*
X0179586Y0101898D02*
X0181508Y0099976D01*
X0181508Y0099307D01*
X0189586Y0101398D02*
X0191508Y0099476D01*
X0191508Y0099307D01*
X0189586Y0101398D02*
X0189420Y0101568D01*
X0189257Y0101742D01*
X0189100Y0101920D01*
X0188946Y0102102D01*
X0188796Y0102287D01*
X0188652Y0102476D01*
X0188511Y0102668D01*
X0188376Y0102864D01*
X0188244Y0103063D01*
X0188118Y0103264D01*
X0187997Y0103469D01*
X0187880Y0103677D01*
X0187769Y0103887D01*
X0187662Y0104100D01*
X0187561Y0104315D01*
X0187464Y0104532D01*
X0187373Y0104752D01*
X0187288Y0104974D01*
X0187207Y0105198D01*
X0187132Y0105424D01*
X0187062Y0105652D01*
X0186998Y0105881D01*
X0186939Y0106111D01*
X0186886Y0106343D01*
X0186838Y0106576D01*
X0186795Y0106811D01*
X0186759Y0107046D01*
X0186728Y0107282D01*
X0186702Y0107518D01*
X0186682Y0107756D01*
X0186668Y0107993D01*
X0186660Y0108231D01*
X0186657Y0108469D01*
X0169586Y0101398D02*
X0169420Y0101568D01*
X0169257Y0101742D01*
X0169100Y0101920D01*
X0168946Y0102102D01*
X0168796Y0102287D01*
X0168652Y0102476D01*
X0168511Y0102668D01*
X0168376Y0102864D01*
X0168244Y0103063D01*
X0168118Y0103264D01*
X0167997Y0103469D01*
X0167880Y0103677D01*
X0167769Y0103887D01*
X0167662Y0104100D01*
X0167561Y0104315D01*
X0167464Y0104532D01*
X0167373Y0104752D01*
X0167288Y0104974D01*
X0167207Y0105198D01*
X0167132Y0105424D01*
X0167062Y0105652D01*
X0166998Y0105881D01*
X0166939Y0106111D01*
X0166886Y0106343D01*
X0166838Y0106576D01*
X0166795Y0106811D01*
X0166759Y0107046D01*
X0166728Y0107282D01*
X0166702Y0107518D01*
X0166682Y0107756D01*
X0166668Y0107993D01*
X0166660Y0108231D01*
X0166657Y0108469D01*
X0176657Y0134576D02*
X0176660Y0134811D01*
X0176668Y0135045D01*
X0176682Y0135279D01*
X0176701Y0135513D01*
X0176726Y0135747D01*
X0176756Y0135979D01*
X0176792Y0136211D01*
X0176833Y0136442D01*
X0176879Y0136672D01*
X0176931Y0136901D01*
X0176988Y0137128D01*
X0177051Y0137355D01*
X0177119Y0137579D01*
X0177192Y0137802D01*
X0177270Y0138023D01*
X0177353Y0138243D01*
X0177442Y0138460D01*
X0177536Y0138675D01*
X0177634Y0138888D01*
X0177738Y0139098D01*
X0169666Y0144341D02*
X0168083Y0141702D01*
X0179104Y0141792D02*
X0179212Y0142011D01*
X0179315Y0142233D01*
X0179412Y0142458D01*
X0179503Y0142685D01*
X0179589Y0142914D01*
X0179670Y0143145D01*
X0179744Y0143378D01*
X0179813Y0143613D01*
X0179877Y0143849D01*
X0179934Y0144087D01*
X0179986Y0144327D01*
X0180031Y0144567D01*
X0180071Y0144808D01*
X0180105Y0145051D01*
X0180133Y0145294D01*
X0180155Y0145538D01*
X0180171Y0145782D01*
X0180181Y0146026D01*
X0180185Y0146271D01*
X0180183Y0146516D01*
X0180175Y0146760D01*
X0180161Y0147005D01*
X0180141Y0147249D01*
X0180115Y0147492D01*
X0180084Y0147735D01*
X0180046Y0147976D01*
X0180002Y0148217D01*
X0179953Y0148457D01*
X0179897Y0148695D01*
X0179836Y0148932D01*
X0179769Y0149168D01*
X0179696Y0149401D01*
X0179618Y0149633D01*
X0179534Y0149863D01*
X0179444Y0150091D01*
X0179349Y0150316D01*
X0179249Y0150539D01*
X0179142Y0150760D01*
X0179031Y0150978D01*
X0178914Y0151193D01*
X0178792Y0151405D01*
X0178665Y0151614D01*
X0169666Y0149313D02*
X0169735Y0149194D01*
X0169800Y0149073D01*
X0169862Y0148950D01*
X0169921Y0148826D01*
X0169976Y0148700D01*
X0170027Y0148573D01*
X0170075Y0148444D01*
X0170119Y0148314D01*
X0170160Y0148183D01*
X0170197Y0148050D01*
X0170229Y0147917D01*
X0170259Y0147783D01*
X0170284Y0147647D01*
X0170305Y0147512D01*
X0170323Y0147375D01*
X0170336Y0147239D01*
X0170346Y0147102D01*
X0170352Y0146964D01*
X0170354Y0146827D01*
X0170352Y0146690D01*
X0170346Y0146552D01*
X0170336Y0146415D01*
X0170323Y0146279D01*
X0170305Y0146142D01*
X0170284Y0146007D01*
X0170259Y0145871D01*
X0170229Y0145737D01*
X0170197Y0145604D01*
X0170160Y0145471D01*
X0170119Y0145340D01*
X0170075Y0145210D01*
X0170027Y0145081D01*
X0169976Y0144954D01*
X0169921Y0144828D01*
X0169862Y0144704D01*
X0169800Y0144581D01*
X0169735Y0144460D01*
X0169666Y0144341D01*
X0184937Y0173024D02*
X0184863Y0173335D01*
X0184797Y0173646D01*
X0184737Y0173960D01*
X0184685Y0174275D01*
X0184641Y0174590D01*
X0184604Y0174907D01*
X0184574Y0175225D01*
X0184552Y0175543D01*
X0184538Y0175861D01*
X0184531Y0176180D01*
X0184531Y0176499D01*
X0184539Y0176818D01*
X0181170Y0175847D02*
X0181293Y0176058D01*
X0181411Y0176273D01*
X0181524Y0176490D01*
X0181632Y0176710D01*
X0181734Y0176932D01*
X0181830Y0177157D01*
X0181922Y0177384D01*
X0182007Y0177614D01*
X0182087Y0177845D01*
X0182161Y0178078D01*
X0182230Y0178313D01*
X0182292Y0178550D01*
X0182349Y0178788D01*
X0182400Y0179027D01*
X0182445Y0179268D01*
X0182484Y0179509D01*
X0182518Y0179752D01*
X0182545Y0179995D01*
X0182567Y0180239D01*
X0182582Y0180483D01*
X0182592Y0180728D01*
X0182595Y0180972D01*
X0182592Y0181217D01*
X0180603Y0181453D02*
X0180594Y0181145D01*
X0180579Y0180838D01*
X0180556Y0180531D01*
X0180526Y0180224D01*
X0180489Y0179918D01*
X0180445Y0179614D01*
X0180394Y0179310D01*
X0180335Y0179008D01*
X0180269Y0178707D01*
X0180197Y0178408D01*
X0180117Y0178110D01*
X0180030Y0177815D01*
X0179936Y0177521D01*
X0179836Y0177230D01*
X0179729Y0176942D01*
X0179614Y0176656D01*
X0179494Y0176372D01*
X0179366Y0176092D01*
X0179232Y0175815D01*
X0179092Y0175541D01*
X0178945Y0175270D01*
X0178791Y0175003D01*
X0151783Y0195094D02*
X0164854Y0208165D01*
X0164854Y0214386D01*
X0162886Y0214386D02*
X0162886Y0208555D01*
X0151394Y0197063D01*
X0105248Y0197063D01*
X0103280Y0195094D01*
X0099421Y0195094D01*
X0099421Y0193126D02*
X0103476Y0193126D01*
X0105445Y0195094D01*
X0151783Y0195094D01*
X0150862Y0199031D02*
X0160917Y0209087D01*
X0160917Y0214386D01*
X0158949Y0214386D02*
X0158949Y0209618D01*
X0150331Y0201000D01*
X0099421Y0201000D01*
X0099421Y0202969D02*
X0149799Y0202969D01*
X0156980Y0210150D01*
X0156980Y0214386D01*
X0153043Y0214386D02*
X0153043Y0210213D01*
X0147268Y0204327D01*
X0104157Y0204327D01*
X0103547Y0204937D01*
X0099421Y0204937D01*
X0099421Y0208874D02*
X0102610Y0208874D01*
X0105657Y0205827D01*
X0145469Y0205827D01*
X0149106Y0209465D01*
X0149106Y0214386D01*
X0147138Y0214386D02*
X0147138Y0210252D01*
X0144063Y0207177D01*
X0106945Y0207177D01*
X0103280Y0210843D01*
X0099421Y0210843D01*
X0099421Y0214780D02*
X0103280Y0214780D01*
X0103673Y0215173D01*
X0112504Y0215173D01*
X0123657Y0226327D01*
X0131157Y0226327D01*
X0133390Y0228559D01*
X0136902Y0228559D01*
X0136902Y0230528D02*
X0132358Y0230528D01*
X0130157Y0228327D01*
X0122657Y0228327D01*
X0110685Y0216354D01*
X0103673Y0216354D01*
X0103280Y0216748D01*
X0099421Y0216748D01*
X0099469Y0214827D02*
X0099421Y0214780D01*
X0099421Y0220685D02*
X0100720Y0220685D01*
X0103484Y0220685D01*
X0113126Y0230327D01*
X0129157Y0230327D01*
X0133295Y0234465D01*
X0136902Y0234465D01*
X0136902Y0236433D02*
X0132264Y0236433D01*
X0128157Y0232327D01*
X0112559Y0232327D01*
X0102886Y0222654D01*
X0099421Y0222654D01*
X0099421Y0236433D02*
X0106264Y0236433D01*
X0106657Y0236827D01*
X0114138Y0244307D01*
X0136902Y0244307D01*
X0136902Y0246276D02*
X0113106Y0246276D01*
X0105657Y0238827D01*
X0105232Y0238402D01*
X0099421Y0238402D01*
X0099433Y0242327D02*
X0099421Y0242339D01*
X0099433Y0242327D02*
X0106157Y0242327D01*
X0114043Y0250213D01*
X0136902Y0250213D01*
X0136902Y0252181D02*
X0113012Y0252181D01*
X0105157Y0244327D01*
X0099441Y0244327D01*
X0099421Y0244307D01*
X0099421Y0248244D02*
X0106075Y0248244D01*
X0106157Y0248327D01*
X0117886Y0260055D01*
X0136902Y0260055D01*
X0136902Y0258087D02*
X0143917Y0258087D01*
X0144157Y0258327D01*
X0143335Y0254150D02*
X0144157Y0253327D01*
X0143335Y0254150D02*
X0136902Y0254150D01*
X0137193Y0255827D02*
X0136902Y0256118D01*
X0137193Y0255827D02*
X0147657Y0255827D01*
X0147657Y0260827D02*
X0146461Y0262024D01*
X0136902Y0262024D01*
X0136902Y0263992D02*
X0118823Y0263992D01*
X0105157Y0250327D01*
X0105043Y0250213D01*
X0099421Y0250213D01*
X0099421Y0254150D02*
X0105980Y0254150D01*
X0106157Y0254327D01*
X0117791Y0265961D01*
X0136902Y0265961D01*
X0136902Y0267929D02*
X0116760Y0267929D01*
X0105157Y0256327D01*
X0104949Y0256118D01*
X0099421Y0256118D01*
X0099421Y0258087D02*
X0103917Y0258087D01*
X0104157Y0258327D01*
X0115728Y0269898D01*
X0136902Y0269898D01*
X0136902Y0271866D02*
X0114697Y0271866D01*
X0103157Y0260327D01*
X0102886Y0260055D01*
X0099421Y0260055D01*
X0099421Y0263992D02*
X0103823Y0263992D01*
X0104157Y0264327D01*
X0113665Y0273835D01*
X0136902Y0273835D01*
X0136902Y0277772D02*
X0114602Y0277772D01*
X0103157Y0266327D01*
X0102791Y0265961D01*
X0099421Y0265961D01*
X0099492Y0269827D02*
X0099421Y0269898D01*
X0099492Y0269827D02*
X0103657Y0269827D01*
X0113571Y0279740D01*
X0136902Y0279740D01*
X0136902Y0281709D02*
X0112539Y0281709D01*
X0102657Y0271827D01*
X0099461Y0271827D01*
X0099421Y0271866D01*
X0099421Y0275803D02*
X0103634Y0275803D01*
X0131157Y0303327D01*
X0132157Y0304327D01*
X0150157Y0304327D01*
X0151075Y0303409D01*
X0151075Y0299819D01*
X0153043Y0299819D02*
X0153043Y0303941D01*
X0151157Y0305827D01*
X0130657Y0305827D01*
X0102602Y0277772D01*
X0099421Y0277772D01*
X0099421Y0291551D02*
X0113382Y0291551D01*
X0129157Y0307327D01*
X0153657Y0307327D01*
X0156980Y0304004D01*
X0156980Y0299819D01*
X0160917Y0299819D02*
X0160917Y0304067D01*
X0160657Y0304327D01*
X0156157Y0308827D01*
X0127657Y0308827D01*
X0112350Y0293520D01*
X0099421Y0293520D01*
X0099421Y0297457D02*
X0113287Y0297457D01*
X0126157Y0310327D01*
X0157157Y0310327D01*
X0162657Y0304827D01*
X0162886Y0304598D01*
X0162886Y0299819D01*
X0164854Y0299819D02*
X0164854Y0305130D01*
X0164657Y0305327D01*
X0158157Y0311827D01*
X0124657Y0311827D01*
X0112256Y0299425D01*
X0099421Y0299425D01*
X0099421Y0303362D02*
X0113193Y0303362D01*
X0122657Y0312827D01*
X0123157Y0313327D01*
X0160157Y0313327D01*
X0168657Y0304827D01*
X0168791Y0304693D01*
X0168791Y0299819D01*
X0170760Y0299819D02*
X0170760Y0305224D01*
X0170157Y0305827D01*
X0161157Y0314827D01*
X0121657Y0314827D01*
X0112161Y0305331D01*
X0099421Y0305331D01*
X0099421Y0309268D02*
X0113098Y0309268D01*
X0120157Y0316327D01*
X0162157Y0316327D01*
X0172157Y0306327D01*
X0172728Y0305756D01*
X0172728Y0299819D01*
X0174697Y0299819D02*
X0174697Y0306287D01*
X0174157Y0306827D01*
X0163157Y0317827D01*
X0118657Y0317827D01*
X0112067Y0311236D01*
X0099421Y0311236D01*
X0099421Y0313205D02*
X0111035Y0313205D01*
X0117157Y0319327D01*
X0164157Y0319327D01*
X0177157Y0306327D01*
X0177157Y0305327D01*
X0178657Y0303827D01*
X0178657Y0299843D01*
X0178634Y0299819D01*
X0180602Y0299819D02*
X0180657Y0299874D01*
X0180657Y0306327D01*
X0184539Y0306945D02*
X0184539Y0299819D01*
X0186508Y0299819D02*
X0186508Y0307476D01*
X0171657Y0322327D01*
X0114157Y0322327D01*
X0110941Y0319110D01*
X0099421Y0319110D01*
X0099421Y0321079D02*
X0109909Y0321079D01*
X0112657Y0323827D01*
X0172657Y0323827D01*
X0188476Y0308008D01*
X0188476Y0299819D01*
X0190445Y0299819D02*
X0190445Y0308539D01*
X0173657Y0325327D01*
X0111157Y0325327D01*
X0110846Y0325016D01*
X0099421Y0325016D01*
X0099484Y0332827D02*
X0099421Y0332890D01*
X0099484Y0332827D02*
X0106657Y0332827D01*
X0115657Y0320827D02*
X0170657Y0320827D01*
X0184539Y0306945D01*
X0192413Y0303559D02*
X0192413Y0299819D01*
X0194382Y0299819D02*
X0194382Y0303551D01*
X0203157Y0312327D01*
X0240657Y0312327D01*
X0252657Y0300327D01*
X0254157Y0300327D01*
X0255157Y0299327D01*
X0255157Y0296539D01*
X0255091Y0296472D01*
X0257059Y0296472D02*
X0257059Y0293228D01*
X0256657Y0292827D01*
X0251445Y0287614D01*
X0222335Y0287614D01*
X0222335Y0285646D02*
X0251476Y0285646D01*
X0258657Y0292827D01*
X0259028Y0293197D01*
X0259028Y0296472D01*
X0260996Y0296472D02*
X0260996Y0285165D01*
X0255571Y0279740D01*
X0222335Y0279740D01*
X0222335Y0277772D02*
X0255602Y0277772D01*
X0262965Y0285134D01*
X0262965Y0296472D01*
X0268870Y0296472D02*
X0268870Y0289039D01*
X0255634Y0275803D01*
X0222335Y0275803D01*
X0222335Y0273835D02*
X0255665Y0273835D01*
X0270839Y0289008D01*
X0270839Y0296472D01*
X0272807Y0296472D02*
X0272807Y0288976D01*
X0255697Y0271866D01*
X0222335Y0271866D01*
X0222335Y0269898D02*
X0215087Y0269898D01*
X0211157Y0273827D01*
X0211157Y0287827D01*
X0220657Y0297327D01*
X0233657Y0297327D01*
X0238657Y0292327D01*
X0243280Y0296472D02*
X0243280Y0299705D01*
X0243157Y0299827D01*
X0238157Y0304827D01*
X0213157Y0304827D01*
X0212098Y0303768D01*
X0212098Y0299819D01*
X0210130Y0299819D02*
X0210130Y0303799D01*
X0212657Y0306327D01*
X0238657Y0306327D01*
X0245157Y0299827D01*
X0245248Y0299736D01*
X0245248Y0296472D01*
X0247217Y0296472D02*
X0247217Y0299768D01*
X0246657Y0300327D01*
X0239157Y0307827D01*
X0210657Y0307827D01*
X0210157Y0307327D01*
X0206193Y0303362D01*
X0206193Y0299819D01*
X0208161Y0299819D02*
X0208161Y0290823D01*
X0209157Y0289827D01*
X0210657Y0289827D01*
X0219657Y0298827D01*
X0235657Y0298827D01*
X0238657Y0298827D01*
X0248657Y0300327D02*
X0239657Y0309327D01*
X0210157Y0309327D01*
X0204224Y0303394D01*
X0204224Y0299819D01*
X0196350Y0299819D02*
X0196350Y0303520D01*
X0203657Y0310827D01*
X0240157Y0310827D01*
X0250657Y0300327D01*
X0251154Y0299831D01*
X0251154Y0296472D01*
X0249185Y0296472D02*
X0249185Y0299799D01*
X0248657Y0300327D01*
X0247921Y0320827D02*
X0241157Y0320827D01*
X0235004Y0320827D01*
X0233504Y0322327D01*
X0233504Y0328327D02*
X0237657Y0328327D01*
X0240157Y0325827D01*
X0247921Y0325827D01*
X0277059Y0313795D02*
X0292020Y0298835D01*
X0292020Y0226311D01*
X0294657Y0223673D01*
X0288555Y0226429D02*
X0288555Y0219701D01*
X0286587Y0219701D02*
X0286587Y0226398D01*
X0262772Y0250213D01*
X0222335Y0250213D01*
X0222335Y0252181D02*
X0262803Y0252181D01*
X0288555Y0226429D01*
X0284618Y0226366D02*
X0284618Y0219701D01*
X0282650Y0219701D02*
X0282650Y0226335D01*
X0262709Y0246276D01*
X0222335Y0246276D01*
X0222335Y0248244D02*
X0262740Y0248244D01*
X0284618Y0226366D01*
X0280681Y0226303D02*
X0280681Y0219701D01*
X0278713Y0219701D02*
X0278713Y0226272D01*
X0268583Y0236402D01*
X0232732Y0236402D01*
X0230732Y0238402D01*
X0222335Y0238402D01*
X0222335Y0236433D02*
X0218791Y0236433D01*
X0218004Y0235646D01*
X0218004Y0214917D01*
X0210130Y0214386D02*
X0210130Y0210354D01*
X0210657Y0209827D01*
X0240157Y0209827D01*
X0242157Y0211827D01*
X0243280Y0212949D01*
X0243280Y0219701D01*
X0245248Y0219701D02*
X0245248Y0212917D01*
X0244657Y0212327D01*
X0240657Y0208327D01*
X0210157Y0208327D01*
X0208161Y0210323D01*
X0208161Y0214386D01*
X0202256Y0214386D02*
X0202256Y0207728D01*
X0203157Y0206827D01*
X0205657Y0206827D01*
X0241157Y0206827D01*
X0245657Y0211327D01*
X0247217Y0212886D01*
X0247217Y0219701D01*
X0249185Y0219701D02*
X0249185Y0212854D01*
X0247157Y0210827D01*
X0241657Y0205327D01*
X0205157Y0205327D01*
X0202657Y0205327D01*
X0200287Y0207697D01*
X0200287Y0214386D01*
X0198319Y0214386D02*
X0198319Y0207665D01*
X0202157Y0203827D01*
X0204657Y0203827D01*
X0242157Y0203827D01*
X0248657Y0210327D01*
X0251154Y0212823D01*
X0251154Y0219701D01*
X0253122Y0219701D02*
X0253122Y0212791D01*
X0249657Y0209327D01*
X0242657Y0202327D01*
X0201657Y0202327D01*
X0194382Y0209602D01*
X0194382Y0214386D01*
X0192413Y0214386D02*
X0192413Y0206965D01*
X0194264Y0205114D01*
X0190445Y0204539D02*
X0190445Y0211539D01*
X0190445Y0214386D01*
X0188476Y0214386D02*
X0188476Y0204508D01*
X0193657Y0199327D01*
X0243657Y0199327D01*
X0252657Y0208327D01*
X0259028Y0214697D01*
X0259028Y0219701D01*
X0260996Y0219701D02*
X0260996Y0214665D01*
X0254157Y0207827D01*
X0244157Y0197827D01*
X0193157Y0197827D01*
X0186508Y0204476D01*
X0186508Y0214386D01*
X0190445Y0204539D02*
X0194157Y0200827D01*
X0243157Y0200827D01*
X0251157Y0208827D01*
X0257059Y0214728D01*
X0257059Y0219701D01*
X0262965Y0219701D02*
X0262965Y0223020D01*
X0261362Y0224622D01*
X0222335Y0224622D01*
X0222335Y0226591D02*
X0268394Y0226591D01*
X0268870Y0226114D01*
X0268870Y0219701D01*
X0270839Y0219701D02*
X0270839Y0226146D01*
X0268425Y0228559D01*
X0222335Y0228559D01*
X0222335Y0230528D02*
X0268457Y0230528D01*
X0272807Y0226177D01*
X0272807Y0219701D01*
X0274776Y0219701D02*
X0274776Y0226209D01*
X0268488Y0232496D01*
X0222335Y0232496D01*
X0222335Y0234465D02*
X0268520Y0234465D01*
X0276744Y0226240D01*
X0276744Y0219701D01*
X0280681Y0226303D02*
X0262677Y0244307D01*
X0222335Y0244307D01*
X0222335Y0254150D02*
X0249980Y0254150D01*
X0288555Y0292724D01*
X0288555Y0296472D01*
X0286587Y0296472D02*
X0286587Y0292756D01*
X0249949Y0256118D01*
X0222335Y0256118D01*
X0222335Y0258087D02*
X0249917Y0258087D01*
X0284618Y0292787D01*
X0284618Y0296472D01*
X0282650Y0296472D02*
X0282650Y0292835D01*
X0282657Y0292827D01*
X0249886Y0260055D01*
X0222335Y0260055D01*
X0222335Y0262024D02*
X0249854Y0262024D01*
X0280681Y0292850D01*
X0280681Y0296472D01*
X0276744Y0296472D02*
X0276744Y0301913D01*
X0277157Y0302327D01*
X0274776Y0296472D02*
X0274776Y0288945D01*
X0253760Y0267929D01*
X0222335Y0267929D01*
X0192413Y0303559D02*
X0202650Y0313795D01*
X0277059Y0313795D01*
X0174697Y0214386D02*
X0174697Y0210366D01*
X0145646Y0181315D01*
X0105051Y0181315D01*
X0103083Y0183283D01*
X0099421Y0183283D01*
X0099421Y0187220D02*
X0103280Y0187220D01*
X0103673Y0187614D01*
X0111941Y0187614D01*
X0112335Y0187220D01*
X0149051Y0187220D01*
X0149445Y0187614D01*
X0170760Y0208929D01*
X0170760Y0214386D01*
X0166823Y0214386D02*
X0166823Y0207492D01*
X0148126Y0188795D01*
X0103673Y0188795D01*
X0103280Y0189189D01*
X0099421Y0189189D01*
X0099421Y0199031D02*
X0150862Y0199031D01*
X0136902Y0240370D02*
X0131114Y0240370D01*
X0129657Y0241827D01*
X0129157Y0242327D01*
X0121157Y0242327D01*
X0119657Y0240827D01*
X0069894Y0291551D02*
X0063713Y0291551D01*
X0063319Y0291157D01*
X0063122Y0290961D01*
X0059776Y0290961D01*
X0056429Y0294307D01*
X0053024Y0294307D01*
X0053004Y0294327D01*
X0046311Y0294327D02*
X0039953Y0294327D01*
X0039894Y0294268D01*
X0061350Y0293677D02*
X0061508Y0293520D01*
X0069894Y0293520D01*
X0069894Y0297457D02*
X0065130Y0297457D01*
X0064500Y0296827D01*
X0066469Y0299425D02*
X0066311Y0299583D01*
X0061350Y0299583D01*
X0064500Y0302732D02*
X0065130Y0303362D01*
X0069894Y0303362D01*
X0069894Y0305331D02*
X0069736Y0305488D01*
X0061350Y0305488D01*
X0064500Y0308244D02*
X0065524Y0309268D01*
X0069894Y0309268D01*
X0069894Y0311236D02*
X0067000Y0310843D01*
X0062157Y0310843D01*
X0061508Y0310843D01*
X0061350Y0311000D01*
X0064500Y0313362D02*
X0064657Y0313205D01*
X0069894Y0313205D01*
X0069894Y0315173D02*
X0066945Y0315173D01*
X0066157Y0315961D01*
X0061587Y0315961D01*
X0061350Y0315724D01*
X0064500Y0318480D02*
X0065130Y0319110D01*
X0069894Y0319110D01*
X0069894Y0321079D02*
X0066315Y0321079D01*
X0066157Y0321236D01*
X0061350Y0321236D01*
X0064500Y0324386D02*
X0065130Y0325016D01*
X0069894Y0325016D01*
X0064500Y0330291D02*
X0064502Y0330391D01*
X0064508Y0330490D01*
X0064517Y0330589D01*
X0064530Y0330688D01*
X0064548Y0330786D01*
X0064568Y0330883D01*
X0064593Y0330979D01*
X0064621Y0331075D01*
X0064653Y0331169D01*
X0064688Y0331262D01*
X0064727Y0331354D01*
X0064770Y0331444D01*
X0064816Y0331532D01*
X0064865Y0331619D01*
X0064917Y0331703D01*
X0064973Y0331786D01*
X0065032Y0331866D01*
X0065094Y0331944D01*
X0065158Y0332020D01*
X0065226Y0332093D01*
X0065296Y0332163D01*
X0065369Y0332231D01*
X0065445Y0332295D01*
X0065523Y0332357D01*
X0065603Y0332416D01*
X0065686Y0332472D01*
X0065770Y0332524D01*
X0065857Y0332573D01*
X0065945Y0332619D01*
X0066035Y0332662D01*
X0066127Y0332701D01*
X0066220Y0332736D01*
X0066314Y0332768D01*
X0066410Y0332796D01*
X0066506Y0332821D01*
X0066603Y0332841D01*
X0066701Y0332859D01*
X0066800Y0332872D01*
X0066899Y0332881D01*
X0066998Y0332887D01*
X0067098Y0332889D01*
X0067098Y0332890D02*
X0069894Y0332890D01*
X0099421Y0315173D02*
X0110004Y0315173D01*
X0115657Y0320827D01*
X0069894Y0299425D02*
X0066469Y0299425D01*
X0034657Y0106673D02*
X0034657Y0105327D01*
X0041157Y0103327D02*
X0041657Y0102827D01*
X0041657Y0101984D01*
D55*
X0057657Y0110827D03*
X0051657Y0117327D03*
D56*
X0307213Y0119732D02*
X0307213Y0122260D01*
X0315681Y0122260D01*
X0342563Y0121858D01*
X0344657Y0123953D01*
X0351157Y0123953D01*
X0353657Y0121453D01*
X0388697Y0121453D01*
X0389102Y0119732D01*
D57*
X0219157Y0123327D02*
X0219157Y0112827D01*
X0101508Y0099307D02*
X0095488Y0105327D01*
X0034657Y0105327D01*
X0027657Y0105327D01*
X0019657Y0113327D01*
X0019657Y0245961D01*
X0014500Y0251118D01*
X0014500Y0241118D02*
X0014500Y0115484D01*
X0026657Y0103327D01*
X0041157Y0103327D01*
X0087488Y0103327D01*
X0091508Y0099307D01*
D58*
X0044657Y0141827D02*
X0140157Y0141827D01*
X0156657Y0125327D01*
X0156657Y0104157D01*
X0161508Y0099307D01*
X0044657Y0141827D02*
X0024657Y0161827D01*
X0024657Y0256827D01*
X0020366Y0261118D01*
X0014500Y0261118D01*
M02*
