G75*
%MOIN*%
%OFA0B0*%
%FSLAX25Y25*%
%IPPOS*%
%LPD*%
%AMOC8*
5,1,8,0,0,1.08239X$1,22.5*
%
%ADD10C,0.00800*%
%ADD11C,0.05512*%
%ADD12C,0.02775*%
%ADD13C,0.16598*%
%ADD14C,0.04409*%
%ADD15C,0.07280*%
%ADD16C,0.03956*%
%ADD17C,0.03169*%
%ADD18C,0.04961*%
%ADD19C,0.04356*%
%ADD20C,0.03175*%
%ADD21C,0.01200*%
%ADD22C,0.03962*%
%ADD23C,0.04750*%
D10*
X0009586Y0103857D02*
X0008552Y0104891D01*
X0008552Y0106959D01*
X0009586Y0107994D01*
X0010621Y0107994D01*
X0014757Y0103857D01*
X0014757Y0107994D01*
D11*
X0014500Y0241118D03*
X0014500Y0251118D03*
X0014500Y0261118D03*
X0014500Y0271118D03*
X0304657Y0181327D03*
X0314657Y0181327D03*
X0324657Y0181327D03*
X0334657Y0181327D03*
X0307213Y0119732D03*
X0307213Y0107528D03*
X0389102Y0107528D03*
X0389102Y0119732D03*
D12*
X0189618Y0247102D03*
X0169618Y0247102D03*
X0169618Y0267102D03*
X0189618Y0267102D03*
D13*
X0179618Y0257102D03*
D14*
X0181508Y0109307D03*
X0191508Y0109307D03*
X0191508Y0099307D03*
X0181508Y0099307D03*
X0171508Y0099307D03*
X0171508Y0109307D03*
X0161508Y0109307D03*
X0161508Y0099307D03*
X0151508Y0099307D03*
X0151508Y0109307D03*
X0141508Y0109307D03*
X0141508Y0099307D03*
X0131508Y0099307D03*
X0131508Y0109307D03*
X0121508Y0109307D03*
X0121508Y0099307D03*
X0111508Y0099307D03*
X0111508Y0109307D03*
X0101508Y0109307D03*
X0101508Y0099307D03*
X0091508Y0099307D03*
X0091508Y0109307D03*
X0081508Y0109307D03*
X0081508Y0099307D03*
X0201508Y0099307D03*
X0211508Y0099307D03*
X0221508Y0099307D03*
X0221508Y0109307D03*
X0211508Y0109307D03*
X0201508Y0109307D03*
X0231508Y0109307D03*
X0241508Y0109307D03*
X0251508Y0109307D03*
X0251508Y0099307D03*
X0241508Y0099307D03*
X0231508Y0099307D03*
X0261508Y0099307D03*
X0271508Y0099307D03*
X0271508Y0109307D03*
X0261508Y0109307D03*
X0375642Y0252181D03*
X0385642Y0252181D03*
X0385642Y0327260D03*
X0375642Y0327260D03*
D15*
X0119657Y0336827D03*
X0049657Y0336827D03*
X0034657Y0336827D03*
X0019657Y0336827D03*
D16*
X0071606Y0169622D03*
X0066606Y0162122D03*
X0071606Y0154622D03*
X0066606Y0147122D03*
X0076606Y0147122D03*
X0081606Y0154622D03*
X0076606Y0162122D03*
X0081606Y0169622D03*
X0086606Y0162122D03*
X0091606Y0154622D03*
X0086606Y0147122D03*
X0096606Y0147122D03*
X0101606Y0154622D03*
X0096606Y0162122D03*
X0091606Y0169622D03*
X0101606Y0169622D03*
X0106606Y0162122D03*
X0111606Y0154622D03*
X0106606Y0147122D03*
X0116606Y0147122D03*
X0121606Y0154622D03*
X0116606Y0162122D03*
X0111606Y0169622D03*
X0121606Y0169622D03*
X0126606Y0162122D03*
X0131606Y0154622D03*
X0126606Y0147122D03*
X0136606Y0147122D03*
X0141606Y0154622D03*
X0136606Y0162122D03*
X0131606Y0169622D03*
X0141606Y0169622D03*
X0146606Y0162122D03*
X0151606Y0154622D03*
X0146606Y0147122D03*
X0156606Y0147122D03*
X0161606Y0154622D03*
X0156606Y0162122D03*
X0151606Y0169622D03*
X0161606Y0169622D03*
X0166606Y0162122D03*
X0171606Y0154622D03*
X0166606Y0147122D03*
X0176606Y0147122D03*
X0181606Y0154622D03*
X0176606Y0162122D03*
X0171606Y0169622D03*
X0181606Y0169622D03*
X0186606Y0162122D03*
X0191606Y0154622D03*
X0186606Y0147122D03*
X0196606Y0147122D03*
X0201606Y0154622D03*
X0196606Y0162122D03*
X0191606Y0169622D03*
X0201606Y0169622D03*
X0206606Y0162122D03*
X0211606Y0154622D03*
X0206606Y0147122D03*
X0216606Y0147122D03*
X0221606Y0154622D03*
X0216606Y0162122D03*
X0211606Y0169622D03*
X0221606Y0169622D03*
X0226606Y0162122D03*
X0231606Y0154622D03*
X0226606Y0147122D03*
X0236606Y0147122D03*
X0241606Y0154622D03*
X0236606Y0162122D03*
X0231606Y0169622D03*
X0241606Y0169622D03*
X0246606Y0162122D03*
X0251606Y0154622D03*
X0246606Y0147122D03*
X0256606Y0147122D03*
X0261606Y0154622D03*
X0256606Y0162122D03*
X0251606Y0169622D03*
X0261606Y0169622D03*
X0375642Y0177102D03*
X0380642Y0177102D03*
X0385642Y0177102D03*
D17*
X0287886Y0161669D03*
X0287886Y0156748D03*
X0287886Y0151827D03*
X0287886Y0146906D03*
X0287886Y0141984D03*
X0370799Y0278598D03*
X0375720Y0278598D03*
X0380642Y0278598D03*
X0385563Y0278598D03*
X0390484Y0278598D03*
D18*
X0334421Y0164740D03*
X0324579Y0164740D03*
X0314736Y0164740D03*
X0304894Y0164740D03*
D19*
X0285657Y0195327D03*
X0301157Y0206327D03*
X0320157Y0200327D03*
X0315157Y0225327D03*
X0330157Y0231827D03*
X0336657Y0231827D03*
X0315157Y0237327D03*
X0348157Y0113827D03*
X0093909Y0223362D03*
X0084657Y0251236D03*
X0084657Y0262220D03*
X0084657Y0306039D03*
X0084657Y0317614D03*
X0045157Y0203327D03*
X0044157Y0183827D03*
X0049157Y0183827D03*
X0050157Y0173327D03*
X0055157Y0163327D03*
X0064445Y0132543D03*
X0084445Y0132543D03*
D20*
X0086323Y0180465D03*
X0074748Y0191843D03*
X0064303Y0193323D03*
X0060957Y0195882D03*
X0064500Y0198441D03*
X0060957Y0201000D03*
X0064500Y0203559D03*
X0060563Y0205921D03*
X0060169Y0210055D03*
X0064500Y0208283D03*
X0064106Y0214976D03*
X0060957Y0217732D03*
X0064500Y0220291D03*
X0061350Y0223047D03*
X0039972Y0226827D03*
X0036823Y0229976D03*
X0039972Y0233126D03*
X0036823Y0236276D03*
X0039933Y0243913D03*
X0036783Y0247063D03*
X0039933Y0250213D03*
X0036783Y0253362D03*
X0039933Y0260803D03*
X0036783Y0263953D03*
X0039933Y0267102D03*
X0036783Y0270252D03*
X0039894Y0277890D03*
X0036744Y0281039D03*
X0039894Y0284189D03*
X0036744Y0287339D03*
X0039894Y0294268D03*
X0061350Y0293677D03*
X0064500Y0296827D03*
X0061350Y0299583D03*
X0064500Y0302732D03*
X0061350Y0305488D03*
X0064500Y0308244D03*
X0061350Y0311000D03*
X0064500Y0313362D03*
X0061350Y0315724D03*
X0064500Y0318480D03*
X0061350Y0321236D03*
X0064500Y0324386D03*
X0061350Y0327142D03*
X0064500Y0330291D03*
X0075130Y0323047D03*
X0094224Y0323047D03*
X0106657Y0332827D03*
X0094224Y0301394D03*
X0075130Y0301394D03*
X0075130Y0267929D03*
X0094224Y0267929D03*
X0094028Y0246079D03*
X0075130Y0246276D03*
X0110476Y0209957D03*
X0124146Y0191591D03*
X0145744Y0220972D03*
X0145291Y0226244D03*
X0151059Y0222472D03*
X0155157Y0220327D03*
X0149697Y0232693D03*
X0144382Y0247047D03*
X0144157Y0253327D03*
X0147657Y0255827D03*
X0144157Y0258327D03*
X0147657Y0260827D03*
X0144382Y0275803D03*
X0144382Y0283480D03*
X0146157Y0287327D03*
X0143157Y0290827D03*
X0146157Y0293827D03*
X0150657Y0293827D03*
X0155012Y0292339D03*
X0159157Y0293827D03*
X0166657Y0293827D03*
X0176272Y0292339D03*
X0182657Y0293827D03*
X0180657Y0306327D03*
X0198122Y0292339D03*
X0202256Y0292339D03*
X0210878Y0294031D03*
X0216469Y0289031D03*
X0216657Y0284827D03*
X0214067Y0281209D03*
X0216657Y0267327D03*
X0213067Y0263992D03*
X0233157Y0241327D03*
X0210130Y0240370D03*
X0214295Y0221472D03*
X0221748Y0219744D03*
X0218004Y0214917D03*
X0208157Y0220327D03*
X0204028Y0221472D03*
X0196657Y0220327D03*
X0194264Y0205114D03*
X0176657Y0220327D03*
X0172622Y0221472D03*
X0168685Y0220472D03*
X0127157Y0235327D03*
X0126157Y0239327D03*
X0119657Y0240827D03*
X0127157Y0287327D03*
X0131157Y0287327D03*
X0202657Y0305827D03*
X0234657Y0301827D03*
X0238657Y0298827D03*
X0238657Y0292327D03*
X0233657Y0291327D03*
X0262657Y0310827D03*
X0269248Y0310744D03*
X0277157Y0302327D03*
X0284748Y0327744D03*
X0284657Y0333827D03*
X0240157Y0325827D03*
X0241157Y0320827D03*
X0226657Y0334827D03*
X0262748Y0204744D03*
X0269157Y0204827D03*
X0368157Y0193327D03*
X0393157Y0193327D03*
X0064500Y0186433D03*
X0061350Y0183677D03*
X0064500Y0180921D03*
X0059972Y0189189D03*
D21*
X0017157Y0130882D02*
X0017157Y0091427D01*
X0393758Y0091427D01*
X0393758Y0150282D01*
X0351929Y0150282D01*
X0351577Y0150633D01*
X0351577Y0338132D01*
X0124788Y0338132D01*
X0124897Y0337869D01*
X0124897Y0335784D01*
X0124100Y0333859D01*
X0122626Y0332385D01*
X0120700Y0331587D01*
X0118615Y0331587D01*
X0116689Y0332385D01*
X0115215Y0333859D01*
X0114417Y0335784D01*
X0114417Y0337869D01*
X0114527Y0338132D01*
X0054788Y0338132D01*
X0054897Y0337869D01*
X0054897Y0335784D01*
X0054100Y0333859D01*
X0052626Y0332385D01*
X0050700Y0331587D01*
X0048615Y0331587D01*
X0046689Y0332385D01*
X0045215Y0333859D01*
X0044417Y0335784D01*
X0044417Y0337869D01*
X0044527Y0338132D01*
X0039788Y0338132D01*
X0039897Y0337869D01*
X0039897Y0335784D01*
X0039100Y0333859D01*
X0037626Y0332385D01*
X0035700Y0331587D01*
X0033615Y0331587D01*
X0031689Y0332385D01*
X0030215Y0333859D01*
X0029417Y0335784D01*
X0029417Y0337869D01*
X0029527Y0338132D01*
X0024743Y0338132D01*
X0024768Y0338054D01*
X0024868Y0337427D01*
X0020258Y0337427D01*
X0020258Y0336227D01*
X0024868Y0336227D01*
X0024768Y0335600D01*
X0024514Y0334815D01*
X0024139Y0334080D01*
X0023654Y0333413D01*
X0023071Y0332830D01*
X0022404Y0332345D01*
X0021669Y0331971D01*
X0020885Y0331716D01*
X0020257Y0331616D01*
X0020257Y0336227D01*
X0019057Y0336227D01*
X0014447Y0336227D01*
X0014547Y0335600D01*
X0014801Y0334815D01*
X0015176Y0334080D01*
X0015661Y0333413D01*
X0016244Y0332830D01*
X0016911Y0332345D01*
X0017646Y0331971D01*
X0018430Y0331716D01*
X0019057Y0331616D01*
X0019057Y0336227D01*
X0019057Y0337427D01*
X0014447Y0337427D01*
X0014547Y0338054D01*
X0014572Y0338132D01*
X0009257Y0338132D01*
X0009257Y0130882D01*
X0017157Y0130882D01*
X0017157Y0129973D02*
X0393758Y0129973D01*
X0393758Y0128775D02*
X0017157Y0128775D01*
X0017157Y0127576D02*
X0393758Y0127576D01*
X0393758Y0126378D02*
X0017157Y0126378D01*
X0017157Y0125179D02*
X0393758Y0125179D01*
X0393758Y0123981D02*
X0390228Y0123981D01*
X0389969Y0124088D02*
X0388236Y0124088D01*
X0386635Y0123425D01*
X0385410Y0122200D01*
X0384746Y0120599D01*
X0384746Y0118866D01*
X0385410Y0117265D01*
X0386635Y0116040D01*
X0388236Y0115376D01*
X0389969Y0115376D01*
X0391570Y0116040D01*
X0392795Y0117265D01*
X0393458Y0118866D01*
X0393458Y0120599D01*
X0392795Y0122200D01*
X0391570Y0123425D01*
X0389969Y0124088D01*
X0387976Y0123981D02*
X0308339Y0123981D01*
X0308079Y0124088D02*
X0306346Y0124088D01*
X0304745Y0123425D01*
X0303520Y0122200D01*
X0302857Y0120599D01*
X0302857Y0118866D01*
X0303520Y0117265D01*
X0304745Y0116040D01*
X0306346Y0115376D01*
X0308079Y0115376D01*
X0309680Y0116040D01*
X0310905Y0117265D01*
X0311568Y0118866D01*
X0311568Y0120599D01*
X0310905Y0122200D01*
X0309680Y0123425D01*
X0308079Y0124088D01*
X0306086Y0123981D02*
X0017157Y0123981D01*
X0017157Y0122782D02*
X0304102Y0122782D01*
X0303265Y0121584D02*
X0017157Y0121584D01*
X0017157Y0120385D02*
X0049095Y0120385D01*
X0049406Y0120696D02*
X0048288Y0119578D01*
X0047683Y0118117D01*
X0047683Y0116536D01*
X0048288Y0115075D01*
X0049406Y0113957D01*
X0050867Y0113352D01*
X0052448Y0113352D01*
X0053909Y0113957D01*
X0055027Y0115075D01*
X0055632Y0116536D01*
X0055632Y0118117D01*
X0055027Y0119578D01*
X0053909Y0120696D01*
X0052448Y0121302D01*
X0050867Y0121302D01*
X0049406Y0120696D01*
X0048126Y0119187D02*
X0017157Y0119187D01*
X0017157Y0117988D02*
X0047683Y0117988D01*
X0047683Y0116790D02*
X0017157Y0116790D01*
X0017157Y0115591D02*
X0048074Y0115591D01*
X0048970Y0114393D02*
X0017157Y0114393D01*
X0017157Y0113194D02*
X0054404Y0113194D01*
X0054288Y0113078D02*
X0053683Y0111617D01*
X0053683Y0110036D01*
X0054288Y0108575D01*
X0055406Y0107457D01*
X0056867Y0106852D01*
X0058448Y0106852D01*
X0059909Y0107457D01*
X0061027Y0108575D01*
X0061632Y0110036D01*
X0061632Y0111617D01*
X0061027Y0113078D01*
X0059909Y0114196D01*
X0058448Y0114802D01*
X0056867Y0114802D01*
X0055406Y0114196D01*
X0054288Y0113078D01*
X0053839Y0111996D02*
X0017157Y0111996D01*
X0017157Y0110797D02*
X0053683Y0110797D01*
X0053864Y0109598D02*
X0017157Y0109598D01*
X0017157Y0108400D02*
X0054463Y0108400D01*
X0056023Y0107201D02*
X0017157Y0107201D01*
X0017157Y0106003D02*
X0079543Y0106003D01*
X0079353Y0106082D02*
X0080751Y0105502D01*
X0082265Y0105502D01*
X0083663Y0106082D01*
X0084733Y0107152D01*
X0085313Y0108550D01*
X0085313Y0110064D01*
X0084733Y0111462D01*
X0083663Y0112533D01*
X0082265Y0113112D01*
X0080751Y0113112D01*
X0079353Y0112533D01*
X0078282Y0111462D01*
X0077703Y0110064D01*
X0077703Y0108550D01*
X0078282Y0107152D01*
X0079353Y0106082D01*
X0078262Y0107201D02*
X0059292Y0107201D01*
X0060852Y0108400D02*
X0077765Y0108400D01*
X0077703Y0109598D02*
X0061451Y0109598D01*
X0061632Y0110797D02*
X0078007Y0110797D01*
X0078816Y0111996D02*
X0061476Y0111996D01*
X0060911Y0113194D02*
X0393758Y0113194D01*
X0393758Y0111996D02*
X0274200Y0111996D01*
X0274733Y0111462D02*
X0273663Y0112533D01*
X0272265Y0113112D01*
X0270751Y0113112D01*
X0269353Y0112533D01*
X0268282Y0111462D01*
X0267703Y0110064D01*
X0267703Y0108550D01*
X0268282Y0107152D01*
X0269353Y0106082D01*
X0270751Y0105502D01*
X0272265Y0105502D01*
X0273663Y0106082D01*
X0274733Y0107152D01*
X0275313Y0108550D01*
X0275313Y0110064D01*
X0274733Y0111462D01*
X0275009Y0110797D02*
X0304322Y0110797D01*
X0304745Y0111220D02*
X0303520Y0109995D01*
X0302857Y0108394D01*
X0302857Y0106661D01*
X0303520Y0105060D01*
X0304745Y0103835D01*
X0306346Y0103172D01*
X0308079Y0103172D01*
X0309680Y0103835D01*
X0310905Y0105060D01*
X0311568Y0106661D01*
X0311568Y0108394D01*
X0310905Y0109995D01*
X0309680Y0111220D01*
X0308079Y0111883D01*
X0306346Y0111883D01*
X0304745Y0111220D01*
X0303356Y0109598D02*
X0275313Y0109598D01*
X0275250Y0108400D02*
X0302859Y0108400D01*
X0302857Y0107201D02*
X0274754Y0107201D01*
X0273473Y0106003D02*
X0303129Y0106003D01*
X0303776Y0104804D02*
X0017157Y0104804D01*
X0017157Y0103606D02*
X0305298Y0103606D01*
X0309127Y0103606D02*
X0387187Y0103606D01*
X0386635Y0103835D02*
X0388236Y0103172D01*
X0389969Y0103172D01*
X0391570Y0103835D01*
X0392795Y0105060D01*
X0393458Y0106661D01*
X0393458Y0108394D01*
X0392795Y0109995D01*
X0391570Y0111220D01*
X0389969Y0111883D01*
X0388236Y0111883D01*
X0386635Y0111220D01*
X0385410Y0109995D01*
X0384746Y0108394D01*
X0384746Y0106661D01*
X0385410Y0105060D01*
X0386635Y0103835D01*
X0385665Y0104804D02*
X0310650Y0104804D01*
X0311296Y0106003D02*
X0385019Y0106003D01*
X0384746Y0107201D02*
X0311568Y0107201D01*
X0311566Y0108400D02*
X0384749Y0108400D01*
X0385245Y0109598D02*
X0311070Y0109598D01*
X0310103Y0110797D02*
X0386212Y0110797D01*
X0387718Y0115591D02*
X0308597Y0115591D01*
X0310430Y0116790D02*
X0385885Y0116790D01*
X0385110Y0117988D02*
X0311205Y0117988D01*
X0311568Y0119187D02*
X0384746Y0119187D01*
X0384746Y0120385D02*
X0311568Y0120385D01*
X0311161Y0121584D02*
X0385154Y0121584D01*
X0385992Y0122782D02*
X0310323Y0122782D01*
X0302857Y0120385D02*
X0054220Y0120385D01*
X0055189Y0119187D02*
X0302857Y0119187D01*
X0303220Y0117988D02*
X0055632Y0117988D01*
X0055632Y0116790D02*
X0303995Y0116790D01*
X0305828Y0115591D02*
X0055241Y0115591D01*
X0055879Y0114393D02*
X0054344Y0114393D01*
X0059436Y0114393D02*
X0393758Y0114393D01*
X0393758Y0115591D02*
X0390487Y0115591D01*
X0392320Y0116790D02*
X0393758Y0116790D01*
X0393758Y0117988D02*
X0393095Y0117988D01*
X0393458Y0119187D02*
X0393758Y0119187D01*
X0393758Y0120385D02*
X0393458Y0120385D01*
X0393758Y0121584D02*
X0393050Y0121584D01*
X0393758Y0122782D02*
X0392213Y0122782D01*
X0393758Y0131172D02*
X0009257Y0131172D01*
X0009257Y0132370D02*
X0393758Y0132370D01*
X0393758Y0133569D02*
X0009257Y0133569D01*
X0009257Y0134767D02*
X0393758Y0134767D01*
X0393758Y0135966D02*
X0009257Y0135966D01*
X0009257Y0137164D02*
X0393758Y0137164D01*
X0393758Y0138363D02*
X0009257Y0138363D01*
X0009257Y0139561D02*
X0285806Y0139561D01*
X0285856Y0139511D02*
X0286378Y0139162D01*
X0286957Y0138922D01*
X0287572Y0138800D01*
X0287886Y0138800D01*
X0288199Y0138800D01*
X0288815Y0138922D01*
X0289394Y0139162D01*
X0289916Y0139511D01*
X0290359Y0139954D01*
X0290708Y0140476D01*
X0290948Y0141055D01*
X0291070Y0141671D01*
X0291070Y0141984D01*
X0287886Y0141984D01*
X0287886Y0138800D01*
X0287886Y0141984D01*
X0287886Y0141984D01*
X0287886Y0141984D01*
X0291070Y0141984D01*
X0291070Y0142298D01*
X0290948Y0142913D01*
X0290708Y0143493D01*
X0290359Y0144014D01*
X0289928Y0144445D01*
X0290585Y0145102D01*
X0291070Y0146272D01*
X0291070Y0147539D01*
X0290585Y0148709D01*
X0289928Y0149366D01*
X0290585Y0150023D01*
X0291070Y0151193D01*
X0291070Y0152460D01*
X0290585Y0153630D01*
X0289928Y0154287D01*
X0290585Y0154944D01*
X0291070Y0156115D01*
X0291070Y0157381D01*
X0290585Y0158552D01*
X0289928Y0159209D01*
X0290585Y0159866D01*
X0291070Y0161036D01*
X0291070Y0162303D01*
X0290585Y0163473D01*
X0289690Y0164369D01*
X0288519Y0164854D01*
X0287252Y0164854D01*
X0286082Y0164369D01*
X0285186Y0163473D01*
X0284702Y0162303D01*
X0284702Y0161036D01*
X0285186Y0159866D01*
X0285843Y0159209D01*
X0285186Y0158552D01*
X0284702Y0157381D01*
X0284702Y0156115D01*
X0285186Y0154944D01*
X0285843Y0154287D01*
X0285186Y0153630D01*
X0284702Y0152460D01*
X0284702Y0151193D01*
X0285186Y0150023D01*
X0285843Y0149366D01*
X0285186Y0148709D01*
X0284702Y0147539D01*
X0284702Y0146272D01*
X0285186Y0145102D01*
X0285843Y0144445D01*
X0285412Y0144014D01*
X0285064Y0143493D01*
X0284824Y0142913D01*
X0284702Y0142298D01*
X0284702Y0141984D01*
X0284702Y0141671D01*
X0284824Y0141055D01*
X0285064Y0140476D01*
X0285412Y0139954D01*
X0285856Y0139511D01*
X0284946Y0140760D02*
X0009257Y0140760D01*
X0009257Y0141958D02*
X0284702Y0141958D01*
X0284702Y0141984D02*
X0287886Y0141984D01*
X0287886Y0141984D01*
X0284702Y0141984D01*
X0284925Y0143157D02*
X0009257Y0143157D01*
X0009257Y0144355D02*
X0064313Y0144355D01*
X0064580Y0144089D02*
X0065895Y0143544D01*
X0067318Y0143544D01*
X0068633Y0144089D01*
X0069640Y0145095D01*
X0070184Y0146410D01*
X0070184Y0147834D01*
X0069640Y0149149D01*
X0068633Y0150155D01*
X0067318Y0150700D01*
X0065895Y0150700D01*
X0064580Y0150155D01*
X0063573Y0149149D01*
X0063028Y0147834D01*
X0063028Y0146410D01*
X0063573Y0145095D01*
X0064580Y0144089D01*
X0063383Y0145554D02*
X0009257Y0145554D01*
X0009257Y0146752D02*
X0063028Y0146752D01*
X0063077Y0147951D02*
X0009257Y0147951D01*
X0009257Y0149149D02*
X0063574Y0149149D01*
X0065045Y0150348D02*
X0009257Y0150348D01*
X0009257Y0151546D02*
X0069769Y0151546D01*
X0069911Y0151451D02*
X0070563Y0151182D01*
X0071254Y0151044D01*
X0071517Y0151044D01*
X0071517Y0154533D01*
X0068028Y0154533D01*
X0068028Y0154270D01*
X0068166Y0153578D01*
X0068436Y0152927D01*
X0068827Y0152341D01*
X0069325Y0151843D01*
X0069911Y0151451D01*
X0071517Y0151546D02*
X0071695Y0151546D01*
X0071695Y0151044D02*
X0071959Y0151044D01*
X0072650Y0151182D01*
X0073301Y0151451D01*
X0073887Y0151843D01*
X0074385Y0152341D01*
X0074777Y0152927D01*
X0075047Y0153578D01*
X0075184Y0154270D01*
X0075184Y0154533D01*
X0071695Y0154533D01*
X0071695Y0151044D01*
X0071695Y0152745D02*
X0071517Y0152745D01*
X0071517Y0153943D02*
X0071695Y0153943D01*
X0071695Y0154533D02*
X0071517Y0154533D01*
X0071517Y0154711D01*
X0068028Y0154711D01*
X0068028Y0154974D01*
X0068166Y0155666D01*
X0068436Y0156317D01*
X0068827Y0156903D01*
X0069325Y0157401D01*
X0069911Y0157793D01*
X0070563Y0158062D01*
X0071254Y0158200D01*
X0071517Y0158200D01*
X0071517Y0154711D01*
X0071695Y0154711D01*
X0071695Y0158200D01*
X0071959Y0158200D01*
X0072650Y0158062D01*
X0073301Y0157793D01*
X0073887Y0157401D01*
X0074385Y0156903D01*
X0074777Y0156317D01*
X0075047Y0155666D01*
X0075184Y0154974D01*
X0075184Y0154711D01*
X0071695Y0154711D01*
X0071695Y0154533D01*
X0071695Y0155142D02*
X0071517Y0155142D01*
X0071517Y0156340D02*
X0071695Y0156340D01*
X0071695Y0157539D02*
X0071517Y0157539D01*
X0069532Y0157539D02*
X0009257Y0157539D01*
X0009257Y0158737D02*
X0065428Y0158737D01*
X0065895Y0158544D02*
X0067318Y0158544D01*
X0068633Y0159089D01*
X0069640Y0160095D01*
X0070184Y0161410D01*
X0070184Y0162834D01*
X0069640Y0164149D01*
X0068633Y0165155D01*
X0067318Y0165700D01*
X0065895Y0165700D01*
X0064580Y0165155D01*
X0063573Y0164149D01*
X0063028Y0162834D01*
X0063028Y0161410D01*
X0063573Y0160095D01*
X0064580Y0159089D01*
X0065895Y0158544D01*
X0067785Y0158737D02*
X0075428Y0158737D01*
X0075895Y0158544D02*
X0074580Y0159089D01*
X0073573Y0160095D01*
X0073028Y0161410D01*
X0073028Y0162834D01*
X0073573Y0164149D01*
X0074580Y0165155D01*
X0075895Y0165700D01*
X0077318Y0165700D01*
X0078633Y0165155D01*
X0079640Y0164149D01*
X0080184Y0162834D01*
X0080184Y0161410D01*
X0079640Y0160095D01*
X0078633Y0159089D01*
X0077318Y0158544D01*
X0075895Y0158544D01*
X0077785Y0158737D02*
X0085428Y0158737D01*
X0085895Y0158544D02*
X0087318Y0158544D01*
X0088633Y0159089D01*
X0089640Y0160095D01*
X0090184Y0161410D01*
X0090184Y0162834D01*
X0089640Y0164149D01*
X0088633Y0165155D01*
X0087318Y0165700D01*
X0085895Y0165700D01*
X0084580Y0165155D01*
X0083573Y0164149D01*
X0083028Y0162834D01*
X0083028Y0161410D01*
X0083573Y0160095D01*
X0084580Y0159089D01*
X0085895Y0158544D01*
X0087785Y0158737D02*
X0095428Y0158737D01*
X0095895Y0158544D02*
X0097318Y0158544D01*
X0098633Y0159089D01*
X0099640Y0160095D01*
X0100184Y0161410D01*
X0100184Y0162834D01*
X0099640Y0164149D01*
X0098633Y0165155D01*
X0097318Y0165700D01*
X0095895Y0165700D01*
X0094580Y0165155D01*
X0093573Y0164149D01*
X0093028Y0162834D01*
X0093028Y0161410D01*
X0093573Y0160095D01*
X0094580Y0159089D01*
X0095895Y0158544D01*
X0097785Y0158737D02*
X0105428Y0158737D01*
X0105895Y0158544D02*
X0107318Y0158544D01*
X0108633Y0159089D01*
X0109640Y0160095D01*
X0110184Y0161410D01*
X0110184Y0162834D01*
X0109640Y0164149D01*
X0108633Y0165155D01*
X0107318Y0165700D01*
X0105895Y0165700D01*
X0104580Y0165155D01*
X0103573Y0164149D01*
X0103028Y0162834D01*
X0103028Y0161410D01*
X0103573Y0160095D01*
X0104580Y0159089D01*
X0105895Y0158544D01*
X0107785Y0158737D02*
X0115428Y0158737D01*
X0115563Y0158682D02*
X0116254Y0158544D01*
X0116517Y0158544D01*
X0116517Y0162033D01*
X0113028Y0162033D01*
X0113028Y0161770D01*
X0113166Y0161078D01*
X0113436Y0160427D01*
X0113827Y0159841D01*
X0114325Y0159343D01*
X0114911Y0158951D01*
X0115563Y0158682D01*
X0116517Y0158737D02*
X0116695Y0158737D01*
X0116695Y0158544D02*
X0116959Y0158544D01*
X0117650Y0158682D01*
X0118301Y0158951D01*
X0118887Y0159343D01*
X0119385Y0159841D01*
X0119777Y0160427D01*
X0120047Y0161078D01*
X0120184Y0161770D01*
X0120184Y0162033D01*
X0116695Y0162033D01*
X0116695Y0158544D01*
X0117785Y0158737D02*
X0125428Y0158737D01*
X0125895Y0158544D02*
X0124580Y0159089D01*
X0123573Y0160095D01*
X0123028Y0161410D01*
X0123028Y0162834D01*
X0123573Y0164149D01*
X0124580Y0165155D01*
X0125895Y0165700D01*
X0127318Y0165700D01*
X0128633Y0165155D01*
X0129640Y0164149D01*
X0130184Y0162834D01*
X0130184Y0161410D01*
X0129640Y0160095D01*
X0128633Y0159089D01*
X0127318Y0158544D01*
X0125895Y0158544D01*
X0127785Y0158737D02*
X0135428Y0158737D01*
X0135895Y0158544D02*
X0137318Y0158544D01*
X0138633Y0159089D01*
X0139640Y0160095D01*
X0140184Y0161410D01*
X0140184Y0162834D01*
X0139640Y0164149D01*
X0138633Y0165155D01*
X0137318Y0165700D01*
X0135895Y0165700D01*
X0134580Y0165155D01*
X0133573Y0164149D01*
X0133028Y0162834D01*
X0133028Y0161410D01*
X0133573Y0160095D01*
X0134580Y0159089D01*
X0135895Y0158544D01*
X0137785Y0158737D02*
X0145428Y0158737D01*
X0145895Y0158544D02*
X0147318Y0158544D01*
X0148633Y0159089D01*
X0149640Y0160095D01*
X0150184Y0161410D01*
X0150184Y0162834D01*
X0149640Y0164149D01*
X0148633Y0165155D01*
X0147318Y0165700D01*
X0145895Y0165700D01*
X0144580Y0165155D01*
X0143573Y0164149D01*
X0143028Y0162834D01*
X0143028Y0161410D01*
X0143573Y0160095D01*
X0144580Y0159089D01*
X0145895Y0158544D01*
X0147785Y0158737D02*
X0155428Y0158737D01*
X0155895Y0158544D02*
X0157318Y0158544D01*
X0158633Y0159089D01*
X0159640Y0160095D01*
X0160184Y0161410D01*
X0160184Y0162834D01*
X0159640Y0164149D01*
X0158633Y0165155D01*
X0157318Y0165700D01*
X0155895Y0165700D01*
X0154580Y0165155D01*
X0153573Y0164149D01*
X0153028Y0162834D01*
X0153028Y0161410D01*
X0153573Y0160095D01*
X0154580Y0159089D01*
X0155895Y0158544D01*
X0157785Y0158737D02*
X0165428Y0158737D01*
X0165895Y0158544D02*
X0167318Y0158544D01*
X0168633Y0159089D01*
X0169640Y0160095D01*
X0170184Y0161410D01*
X0170184Y0162834D01*
X0169640Y0164149D01*
X0168633Y0165155D01*
X0167318Y0165700D01*
X0165895Y0165700D01*
X0164580Y0165155D01*
X0163573Y0164149D01*
X0163028Y0162834D01*
X0163028Y0161410D01*
X0163573Y0160095D01*
X0164580Y0159089D01*
X0165895Y0158544D01*
X0167785Y0158737D02*
X0175428Y0158737D01*
X0175895Y0158544D02*
X0177318Y0158544D01*
X0178633Y0159089D01*
X0179640Y0160095D01*
X0180184Y0161410D01*
X0180184Y0162834D01*
X0179640Y0164149D01*
X0178633Y0165155D01*
X0177318Y0165700D01*
X0175895Y0165700D01*
X0174580Y0165155D01*
X0173573Y0164149D01*
X0173028Y0162834D01*
X0173028Y0161410D01*
X0173573Y0160095D01*
X0174580Y0159089D01*
X0175895Y0158544D01*
X0177785Y0158737D02*
X0185428Y0158737D01*
X0185895Y0158544D02*
X0187318Y0158544D01*
X0188633Y0159089D01*
X0189640Y0160095D01*
X0190184Y0161410D01*
X0190184Y0162834D01*
X0189640Y0164149D01*
X0188633Y0165155D01*
X0187318Y0165700D01*
X0185895Y0165700D01*
X0184580Y0165155D01*
X0183573Y0164149D01*
X0183028Y0162834D01*
X0183028Y0161410D01*
X0183573Y0160095D01*
X0184580Y0159089D01*
X0185895Y0158544D01*
X0187785Y0158737D02*
X0195428Y0158737D01*
X0195895Y0158544D02*
X0197318Y0158544D01*
X0198633Y0159089D01*
X0199640Y0160095D01*
X0200184Y0161410D01*
X0200184Y0162834D01*
X0199640Y0164149D01*
X0198633Y0165155D01*
X0197318Y0165700D01*
X0195895Y0165700D01*
X0194580Y0165155D01*
X0193573Y0164149D01*
X0193028Y0162834D01*
X0193028Y0161410D01*
X0193573Y0160095D01*
X0194580Y0159089D01*
X0195895Y0158544D01*
X0197785Y0158737D02*
X0205428Y0158737D01*
X0205895Y0158544D02*
X0204580Y0159089D01*
X0203573Y0160095D01*
X0203028Y0161410D01*
X0203028Y0162834D01*
X0203573Y0164149D01*
X0204580Y0165155D01*
X0205895Y0165700D01*
X0207318Y0165700D01*
X0208633Y0165155D01*
X0209640Y0164149D01*
X0210184Y0162834D01*
X0210184Y0161410D01*
X0209640Y0160095D01*
X0208633Y0159089D01*
X0207318Y0158544D01*
X0205895Y0158544D01*
X0207785Y0158737D02*
X0215428Y0158737D01*
X0215895Y0158544D02*
X0217318Y0158544D01*
X0218633Y0159089D01*
X0219640Y0160095D01*
X0220184Y0161410D01*
X0220184Y0162834D01*
X0219640Y0164149D01*
X0218633Y0165155D01*
X0217318Y0165700D01*
X0215895Y0165700D01*
X0214580Y0165155D01*
X0213573Y0164149D01*
X0213028Y0162834D01*
X0213028Y0161410D01*
X0213573Y0160095D01*
X0214580Y0159089D01*
X0215895Y0158544D01*
X0217785Y0158737D02*
X0225428Y0158737D01*
X0225895Y0158544D02*
X0227318Y0158544D01*
X0228633Y0159089D01*
X0229640Y0160095D01*
X0230184Y0161410D01*
X0230184Y0162834D01*
X0229640Y0164149D01*
X0228633Y0165155D01*
X0227318Y0165700D01*
X0225895Y0165700D01*
X0224580Y0165155D01*
X0223573Y0164149D01*
X0223028Y0162834D01*
X0223028Y0161410D01*
X0223573Y0160095D01*
X0224580Y0159089D01*
X0225895Y0158544D01*
X0227785Y0158737D02*
X0235428Y0158737D01*
X0235895Y0158544D02*
X0237318Y0158544D01*
X0238633Y0159089D01*
X0239640Y0160095D01*
X0240184Y0161410D01*
X0240184Y0162834D01*
X0239640Y0164149D01*
X0238633Y0165155D01*
X0237318Y0165700D01*
X0235895Y0165700D01*
X0234580Y0165155D01*
X0233573Y0164149D01*
X0233028Y0162834D01*
X0233028Y0161410D01*
X0233573Y0160095D01*
X0234580Y0159089D01*
X0235895Y0158544D01*
X0237785Y0158737D02*
X0245428Y0158737D01*
X0245895Y0158544D02*
X0247318Y0158544D01*
X0248633Y0159089D01*
X0249640Y0160095D01*
X0250184Y0161410D01*
X0250184Y0162834D01*
X0249640Y0164149D01*
X0248633Y0165155D01*
X0247318Y0165700D01*
X0245895Y0165700D01*
X0244580Y0165155D01*
X0243573Y0164149D01*
X0243028Y0162834D01*
X0243028Y0161410D01*
X0243573Y0160095D01*
X0244580Y0159089D01*
X0245895Y0158544D01*
X0247785Y0158737D02*
X0255428Y0158737D01*
X0255563Y0158682D02*
X0256254Y0158544D01*
X0256517Y0158544D01*
X0256517Y0162033D01*
X0253028Y0162033D01*
X0253028Y0161770D01*
X0253166Y0161078D01*
X0253436Y0160427D01*
X0253827Y0159841D01*
X0254325Y0159343D01*
X0254911Y0158951D01*
X0255563Y0158682D01*
X0256517Y0158737D02*
X0256695Y0158737D01*
X0256695Y0158544D02*
X0256959Y0158544D01*
X0257650Y0158682D01*
X0258301Y0158951D01*
X0258887Y0159343D01*
X0259385Y0159841D01*
X0259777Y0160427D01*
X0260047Y0161078D01*
X0260184Y0161770D01*
X0260184Y0162033D01*
X0256695Y0162033D01*
X0256695Y0158544D01*
X0257785Y0158737D02*
X0285372Y0158737D01*
X0285157Y0159936D02*
X0259449Y0159936D01*
X0260058Y0161134D02*
X0284702Y0161134D01*
X0284714Y0162333D02*
X0260184Y0162333D01*
X0260184Y0162211D02*
X0260184Y0162474D01*
X0260047Y0163166D01*
X0259777Y0163817D01*
X0259385Y0164403D01*
X0258887Y0164901D01*
X0258301Y0165293D01*
X0257650Y0165562D01*
X0256959Y0165700D01*
X0256695Y0165700D01*
X0256695Y0162211D01*
X0256517Y0162211D01*
X0256517Y0162033D01*
X0256695Y0162033D01*
X0256695Y0162211D01*
X0260184Y0162211D01*
X0259895Y0163531D02*
X0285245Y0163531D01*
X0286954Y0164730D02*
X0259058Y0164730D01*
X0259580Y0166589D02*
X0260895Y0166044D01*
X0262318Y0166044D01*
X0263633Y0166589D01*
X0264640Y0167595D01*
X0265184Y0168910D01*
X0265184Y0170334D01*
X0264640Y0171649D01*
X0263633Y0172655D01*
X0262318Y0173200D01*
X0260895Y0173200D01*
X0259580Y0172655D01*
X0258573Y0171649D01*
X0258028Y0170334D01*
X0258028Y0168910D01*
X0258573Y0167595D01*
X0259580Y0166589D01*
X0259041Y0167127D02*
X0254171Y0167127D01*
X0254640Y0167595D02*
X0255184Y0168910D01*
X0255184Y0170334D01*
X0254640Y0171649D01*
X0253633Y0172655D01*
X0252318Y0173200D01*
X0250895Y0173200D01*
X0249580Y0172655D01*
X0248573Y0171649D01*
X0248028Y0170334D01*
X0248028Y0168910D01*
X0248573Y0167595D01*
X0249580Y0166589D01*
X0250895Y0166044D01*
X0252318Y0166044D01*
X0253633Y0166589D01*
X0254640Y0167595D01*
X0254942Y0168326D02*
X0258271Y0168326D01*
X0258028Y0169524D02*
X0255184Y0169524D01*
X0255023Y0170723D02*
X0258189Y0170723D01*
X0258845Y0171921D02*
X0254367Y0171921D01*
X0252512Y0173120D02*
X0260700Y0173120D01*
X0262512Y0173120D02*
X0351577Y0173120D01*
X0351577Y0174318D02*
X0009257Y0174318D01*
X0009257Y0173120D02*
X0070850Y0173120D01*
X0070563Y0173062D02*
X0069911Y0172793D01*
X0069325Y0172401D01*
X0068827Y0171903D01*
X0068436Y0171317D01*
X0068166Y0170666D01*
X0068028Y0169974D01*
X0068028Y0169711D01*
X0071517Y0169711D01*
X0071517Y0169533D01*
X0068028Y0169533D01*
X0068028Y0169270D01*
X0068166Y0168578D01*
X0068436Y0167927D01*
X0068827Y0167341D01*
X0069325Y0166843D01*
X0069911Y0166451D01*
X0070563Y0166182D01*
X0071254Y0166044D01*
X0071517Y0166044D01*
X0071517Y0169533D01*
X0071695Y0169533D01*
X0071695Y0166044D01*
X0071959Y0166044D01*
X0072650Y0166182D01*
X0073301Y0166451D01*
X0073887Y0166843D01*
X0074385Y0167341D01*
X0074777Y0167927D01*
X0075047Y0168578D01*
X0075184Y0169270D01*
X0075184Y0169533D01*
X0071695Y0169533D01*
X0071695Y0169711D01*
X0071517Y0169711D01*
X0071517Y0173200D01*
X0071254Y0173200D01*
X0070563Y0173062D01*
X0071517Y0173120D02*
X0071695Y0173120D01*
X0071695Y0173200D02*
X0071959Y0173200D01*
X0072650Y0173062D01*
X0073301Y0172793D01*
X0073887Y0172401D01*
X0074385Y0171903D01*
X0074777Y0171317D01*
X0075047Y0170666D01*
X0075184Y0169974D01*
X0075184Y0169711D01*
X0071695Y0169711D01*
X0071695Y0173200D01*
X0072363Y0173120D02*
X0080700Y0173120D01*
X0080895Y0173200D02*
X0079580Y0172655D01*
X0078573Y0171649D01*
X0078028Y0170334D01*
X0078028Y0168910D01*
X0078573Y0167595D01*
X0079580Y0166589D01*
X0080895Y0166044D01*
X0082318Y0166044D01*
X0083633Y0166589D01*
X0084640Y0167595D01*
X0085184Y0168910D01*
X0085184Y0170334D01*
X0084640Y0171649D01*
X0083633Y0172655D01*
X0082318Y0173200D01*
X0080895Y0173200D01*
X0082512Y0173120D02*
X0090700Y0173120D01*
X0090895Y0173200D02*
X0089580Y0172655D01*
X0088573Y0171649D01*
X0088028Y0170334D01*
X0088028Y0168910D01*
X0088573Y0167595D01*
X0089580Y0166589D01*
X0090895Y0166044D01*
X0092318Y0166044D01*
X0093633Y0166589D01*
X0094640Y0167595D01*
X0095184Y0168910D01*
X0095184Y0170334D01*
X0094640Y0171649D01*
X0093633Y0172655D01*
X0092318Y0173200D01*
X0090895Y0173200D01*
X0092512Y0173120D02*
X0100700Y0173120D01*
X0100895Y0173200D02*
X0099580Y0172655D01*
X0098573Y0171649D01*
X0098028Y0170334D01*
X0098028Y0168910D01*
X0098573Y0167595D01*
X0099580Y0166589D01*
X0100895Y0166044D01*
X0102318Y0166044D01*
X0103633Y0166589D01*
X0104640Y0167595D01*
X0105184Y0168910D01*
X0105184Y0170334D01*
X0104640Y0171649D01*
X0103633Y0172655D01*
X0102318Y0173200D01*
X0100895Y0173200D01*
X0102512Y0173120D02*
X0110700Y0173120D01*
X0110895Y0173200D02*
X0109580Y0172655D01*
X0108573Y0171649D01*
X0108028Y0170334D01*
X0108028Y0168910D01*
X0108573Y0167595D01*
X0109580Y0166589D01*
X0110895Y0166044D01*
X0112318Y0166044D01*
X0113633Y0166589D01*
X0114640Y0167595D01*
X0115184Y0168910D01*
X0115184Y0170334D01*
X0114640Y0171649D01*
X0113633Y0172655D01*
X0112318Y0173200D01*
X0110895Y0173200D01*
X0112512Y0173120D02*
X0120700Y0173120D01*
X0120895Y0173200D02*
X0119580Y0172655D01*
X0118573Y0171649D01*
X0118028Y0170334D01*
X0118028Y0168910D01*
X0118573Y0167595D01*
X0119580Y0166589D01*
X0120895Y0166044D01*
X0122318Y0166044D01*
X0123633Y0166589D01*
X0124640Y0167595D01*
X0125184Y0168910D01*
X0125184Y0170334D01*
X0124640Y0171649D01*
X0123633Y0172655D01*
X0122318Y0173200D01*
X0120895Y0173200D01*
X0122512Y0173120D02*
X0130700Y0173120D01*
X0130895Y0173200D02*
X0129580Y0172655D01*
X0128573Y0171649D01*
X0128028Y0170334D01*
X0128028Y0168910D01*
X0128573Y0167595D01*
X0129580Y0166589D01*
X0130895Y0166044D01*
X0132318Y0166044D01*
X0133633Y0166589D01*
X0134640Y0167595D01*
X0135184Y0168910D01*
X0135184Y0170334D01*
X0134640Y0171649D01*
X0133633Y0172655D01*
X0132318Y0173200D01*
X0130895Y0173200D01*
X0132512Y0173120D02*
X0140700Y0173120D01*
X0140895Y0173200D02*
X0139580Y0172655D01*
X0138573Y0171649D01*
X0138028Y0170334D01*
X0138028Y0168910D01*
X0138573Y0167595D01*
X0139580Y0166589D01*
X0140895Y0166044D01*
X0142318Y0166044D01*
X0143633Y0166589D01*
X0144640Y0167595D01*
X0145184Y0168910D01*
X0145184Y0170334D01*
X0144640Y0171649D01*
X0143633Y0172655D01*
X0142318Y0173200D01*
X0140895Y0173200D01*
X0142512Y0173120D02*
X0150700Y0173120D01*
X0150895Y0173200D02*
X0149580Y0172655D01*
X0148573Y0171649D01*
X0148028Y0170334D01*
X0148028Y0168910D01*
X0148573Y0167595D01*
X0149580Y0166589D01*
X0150895Y0166044D01*
X0152318Y0166044D01*
X0153633Y0166589D01*
X0154640Y0167595D01*
X0155184Y0168910D01*
X0155184Y0170334D01*
X0154640Y0171649D01*
X0153633Y0172655D01*
X0152318Y0173200D01*
X0150895Y0173200D01*
X0152512Y0173120D02*
X0160700Y0173120D01*
X0160895Y0173200D02*
X0159580Y0172655D01*
X0158573Y0171649D01*
X0158028Y0170334D01*
X0158028Y0168910D01*
X0158573Y0167595D01*
X0159580Y0166589D01*
X0160895Y0166044D01*
X0162318Y0166044D01*
X0163633Y0166589D01*
X0164640Y0167595D01*
X0165184Y0168910D01*
X0165184Y0170334D01*
X0164640Y0171649D01*
X0163633Y0172655D01*
X0162318Y0173200D01*
X0160895Y0173200D01*
X0162512Y0173120D02*
X0170700Y0173120D01*
X0170895Y0173200D02*
X0169580Y0172655D01*
X0168573Y0171649D01*
X0168028Y0170334D01*
X0168028Y0168910D01*
X0168573Y0167595D01*
X0169580Y0166589D01*
X0170895Y0166044D01*
X0172318Y0166044D01*
X0173633Y0166589D01*
X0174640Y0167595D01*
X0175184Y0168910D01*
X0175184Y0170334D01*
X0174640Y0171649D01*
X0173633Y0172655D01*
X0172318Y0173200D01*
X0170895Y0173200D01*
X0172512Y0173120D02*
X0180700Y0173120D01*
X0180895Y0173200D02*
X0179580Y0172655D01*
X0178573Y0171649D01*
X0178028Y0170334D01*
X0178028Y0168910D01*
X0178573Y0167595D01*
X0179580Y0166589D01*
X0180895Y0166044D01*
X0182318Y0166044D01*
X0183633Y0166589D01*
X0184640Y0167595D01*
X0185184Y0168910D01*
X0185184Y0170334D01*
X0184640Y0171649D01*
X0183633Y0172655D01*
X0182318Y0173200D01*
X0180895Y0173200D01*
X0182512Y0173120D02*
X0190700Y0173120D01*
X0190895Y0173200D02*
X0189580Y0172655D01*
X0188573Y0171649D01*
X0188028Y0170334D01*
X0188028Y0168910D01*
X0188573Y0167595D01*
X0189580Y0166589D01*
X0190895Y0166044D01*
X0192318Y0166044D01*
X0193633Y0166589D01*
X0194640Y0167595D01*
X0195184Y0168910D01*
X0195184Y0170334D01*
X0194640Y0171649D01*
X0193633Y0172655D01*
X0192318Y0173200D01*
X0190895Y0173200D01*
X0192512Y0173120D02*
X0200700Y0173120D01*
X0200895Y0173200D02*
X0199580Y0172655D01*
X0198573Y0171649D01*
X0198028Y0170334D01*
X0198028Y0168910D01*
X0198573Y0167595D01*
X0199580Y0166589D01*
X0200895Y0166044D01*
X0202318Y0166044D01*
X0203633Y0166589D01*
X0204640Y0167595D01*
X0205184Y0168910D01*
X0205184Y0170334D01*
X0204640Y0171649D01*
X0203633Y0172655D01*
X0202318Y0173200D01*
X0200895Y0173200D01*
X0202512Y0173120D02*
X0210700Y0173120D01*
X0210895Y0173200D02*
X0209580Y0172655D01*
X0208573Y0171649D01*
X0208028Y0170334D01*
X0208028Y0168910D01*
X0208573Y0167595D01*
X0209580Y0166589D01*
X0210895Y0166044D01*
X0212318Y0166044D01*
X0213633Y0166589D01*
X0214640Y0167595D01*
X0215184Y0168910D01*
X0215184Y0170334D01*
X0214640Y0171649D01*
X0213633Y0172655D01*
X0212318Y0173200D01*
X0210895Y0173200D01*
X0212512Y0173120D02*
X0220700Y0173120D01*
X0220895Y0173200D02*
X0219580Y0172655D01*
X0218573Y0171649D01*
X0218028Y0170334D01*
X0218028Y0168910D01*
X0218573Y0167595D01*
X0219580Y0166589D01*
X0220895Y0166044D01*
X0222318Y0166044D01*
X0223633Y0166589D01*
X0224640Y0167595D01*
X0225184Y0168910D01*
X0225184Y0170334D01*
X0224640Y0171649D01*
X0223633Y0172655D01*
X0222318Y0173200D01*
X0220895Y0173200D01*
X0222512Y0173120D02*
X0230700Y0173120D01*
X0230895Y0173200D02*
X0229580Y0172655D01*
X0228573Y0171649D01*
X0228028Y0170334D01*
X0228028Y0168910D01*
X0228573Y0167595D01*
X0229580Y0166589D01*
X0230895Y0166044D01*
X0232318Y0166044D01*
X0233633Y0166589D01*
X0234640Y0167595D01*
X0235184Y0168910D01*
X0235184Y0170334D01*
X0234640Y0171649D01*
X0233633Y0172655D01*
X0232318Y0173200D01*
X0230895Y0173200D01*
X0232512Y0173120D02*
X0240700Y0173120D01*
X0240895Y0173200D02*
X0239580Y0172655D01*
X0238573Y0171649D01*
X0238028Y0170334D01*
X0238028Y0168910D01*
X0238573Y0167595D01*
X0239580Y0166589D01*
X0240895Y0166044D01*
X0242318Y0166044D01*
X0243633Y0166589D01*
X0244640Y0167595D01*
X0245184Y0168910D01*
X0245184Y0170334D01*
X0244640Y0171649D01*
X0243633Y0172655D01*
X0242318Y0173200D01*
X0240895Y0173200D01*
X0242512Y0173120D02*
X0250700Y0173120D01*
X0248845Y0171921D02*
X0244367Y0171921D01*
X0245023Y0170723D02*
X0248189Y0170723D01*
X0248028Y0169524D02*
X0245184Y0169524D01*
X0244942Y0168326D02*
X0248271Y0168326D01*
X0249041Y0167127D02*
X0244171Y0167127D01*
X0244154Y0164730D02*
X0239058Y0164730D01*
X0239895Y0163531D02*
X0243317Y0163531D01*
X0243028Y0162333D02*
X0240184Y0162333D01*
X0240070Y0161134D02*
X0243143Y0161134D01*
X0243732Y0159936D02*
X0239480Y0159936D01*
X0240895Y0158200D02*
X0239580Y0157655D01*
X0238573Y0156649D01*
X0238028Y0155334D01*
X0238028Y0153910D01*
X0238573Y0152595D01*
X0239580Y0151589D01*
X0240895Y0151044D01*
X0242318Y0151044D01*
X0243633Y0151589D01*
X0244640Y0152595D01*
X0245184Y0153910D01*
X0245184Y0155334D01*
X0244640Y0156649D01*
X0243633Y0157655D01*
X0242318Y0158200D01*
X0240895Y0158200D01*
X0239463Y0157539D02*
X0233749Y0157539D01*
X0233633Y0157655D02*
X0232318Y0158200D01*
X0230895Y0158200D01*
X0229580Y0157655D01*
X0228573Y0156649D01*
X0228028Y0155334D01*
X0228028Y0153910D01*
X0228573Y0152595D01*
X0229580Y0151589D01*
X0230895Y0151044D01*
X0232318Y0151044D01*
X0233633Y0151589D01*
X0234640Y0152595D01*
X0235184Y0153910D01*
X0235184Y0155334D01*
X0234640Y0156649D01*
X0233633Y0157655D01*
X0234767Y0156340D02*
X0238445Y0156340D01*
X0238028Y0155142D02*
X0235184Y0155142D01*
X0235184Y0153943D02*
X0238028Y0153943D01*
X0238511Y0152745D02*
X0234701Y0152745D01*
X0233531Y0151546D02*
X0239682Y0151546D01*
X0238633Y0150155D02*
X0239640Y0149149D01*
X0240184Y0147834D01*
X0240184Y0146410D01*
X0239640Y0145095D01*
X0238633Y0144089D01*
X0237318Y0143544D01*
X0235895Y0143544D01*
X0234580Y0144089D01*
X0233573Y0145095D01*
X0233028Y0146410D01*
X0233028Y0147834D01*
X0233573Y0149149D01*
X0234580Y0150155D01*
X0235895Y0150700D01*
X0237318Y0150700D01*
X0238633Y0150155D01*
X0238168Y0150348D02*
X0245045Y0150348D01*
X0244580Y0150155D02*
X0243573Y0149149D01*
X0243028Y0147834D01*
X0243028Y0146410D01*
X0243573Y0145095D01*
X0244580Y0144089D01*
X0245895Y0143544D01*
X0247318Y0143544D01*
X0248633Y0144089D01*
X0249640Y0145095D01*
X0250184Y0146410D01*
X0250184Y0147834D01*
X0249640Y0149149D01*
X0248633Y0150155D01*
X0247318Y0150700D01*
X0245895Y0150700D01*
X0244580Y0150155D01*
X0243574Y0149149D02*
X0239639Y0149149D01*
X0240136Y0147951D02*
X0243077Y0147951D01*
X0243028Y0146752D02*
X0240184Y0146752D01*
X0239829Y0145554D02*
X0243383Y0145554D01*
X0244313Y0144355D02*
X0238900Y0144355D01*
X0234313Y0144355D02*
X0228900Y0144355D01*
X0228633Y0144089D02*
X0229640Y0145095D01*
X0230184Y0146410D01*
X0230184Y0147834D01*
X0229640Y0149149D01*
X0228633Y0150155D01*
X0227318Y0150700D01*
X0225895Y0150700D01*
X0224580Y0150155D01*
X0223573Y0149149D01*
X0223028Y0147834D01*
X0223028Y0146410D01*
X0223573Y0145095D01*
X0224580Y0144089D01*
X0225895Y0143544D01*
X0227318Y0143544D01*
X0228633Y0144089D01*
X0229829Y0145554D02*
X0233383Y0145554D01*
X0233028Y0146752D02*
X0230184Y0146752D01*
X0230136Y0147951D02*
X0233077Y0147951D01*
X0233574Y0149149D02*
X0229639Y0149149D01*
X0228168Y0150348D02*
X0235045Y0150348D01*
X0229682Y0151546D02*
X0223531Y0151546D01*
X0223633Y0151589D02*
X0224640Y0152595D01*
X0225184Y0153910D01*
X0225184Y0155334D01*
X0224640Y0156649D01*
X0223633Y0157655D01*
X0222318Y0158200D01*
X0220895Y0158200D01*
X0219580Y0157655D01*
X0218573Y0156649D01*
X0218028Y0155334D01*
X0218028Y0153910D01*
X0218573Y0152595D01*
X0219580Y0151589D01*
X0220895Y0151044D01*
X0222318Y0151044D01*
X0223633Y0151589D01*
X0224701Y0152745D02*
X0228511Y0152745D01*
X0228028Y0153943D02*
X0225184Y0153943D01*
X0225184Y0155142D02*
X0228028Y0155142D01*
X0228445Y0156340D02*
X0224767Y0156340D01*
X0223749Y0157539D02*
X0229463Y0157539D01*
X0229480Y0159936D02*
X0233732Y0159936D01*
X0233143Y0161134D02*
X0230070Y0161134D01*
X0230184Y0162333D02*
X0233028Y0162333D01*
X0233317Y0163531D02*
X0229895Y0163531D01*
X0229058Y0164730D02*
X0234154Y0164730D01*
X0234171Y0167127D02*
X0239041Y0167127D01*
X0238271Y0168326D02*
X0234942Y0168326D01*
X0235184Y0169524D02*
X0238028Y0169524D01*
X0238189Y0170723D02*
X0235023Y0170723D01*
X0234367Y0171921D02*
X0238845Y0171921D01*
X0228845Y0171921D02*
X0224367Y0171921D01*
X0225023Y0170723D02*
X0228189Y0170723D01*
X0228028Y0169524D02*
X0225184Y0169524D01*
X0224942Y0168326D02*
X0228271Y0168326D01*
X0229041Y0167127D02*
X0224171Y0167127D01*
X0224154Y0164730D02*
X0219058Y0164730D01*
X0219895Y0163531D02*
X0223317Y0163531D01*
X0223028Y0162333D02*
X0220184Y0162333D01*
X0220070Y0161134D02*
X0223143Y0161134D01*
X0223732Y0159936D02*
X0219480Y0159936D01*
X0219463Y0157539D02*
X0213749Y0157539D01*
X0213633Y0157655D02*
X0212318Y0158200D01*
X0210895Y0158200D01*
X0209580Y0157655D01*
X0208573Y0156649D01*
X0208028Y0155334D01*
X0208028Y0153910D01*
X0208573Y0152595D01*
X0209580Y0151589D01*
X0210895Y0151044D01*
X0212318Y0151044D01*
X0213633Y0151589D01*
X0214640Y0152595D01*
X0215184Y0153910D01*
X0215184Y0155334D01*
X0214640Y0156649D01*
X0213633Y0157655D01*
X0214767Y0156340D02*
X0218445Y0156340D01*
X0218028Y0155142D02*
X0215184Y0155142D01*
X0215184Y0153943D02*
X0218028Y0153943D01*
X0218511Y0152745D02*
X0214701Y0152745D01*
X0213531Y0151546D02*
X0219682Y0151546D01*
X0218633Y0150155D02*
X0217318Y0150700D01*
X0215895Y0150700D01*
X0214580Y0150155D01*
X0213573Y0149149D01*
X0213028Y0147834D01*
X0213028Y0146410D01*
X0213573Y0145095D01*
X0214580Y0144089D01*
X0215895Y0143544D01*
X0217318Y0143544D01*
X0218633Y0144089D01*
X0219640Y0145095D01*
X0220184Y0146410D01*
X0220184Y0147834D01*
X0219640Y0149149D01*
X0218633Y0150155D01*
X0218168Y0150348D02*
X0225045Y0150348D01*
X0223574Y0149149D02*
X0219639Y0149149D01*
X0220136Y0147951D02*
X0223077Y0147951D01*
X0223028Y0146752D02*
X0220184Y0146752D01*
X0219829Y0145554D02*
X0223383Y0145554D01*
X0224313Y0144355D02*
X0218900Y0144355D01*
X0214313Y0144355D02*
X0208900Y0144355D01*
X0208633Y0144089D02*
X0209640Y0145095D01*
X0210184Y0146410D01*
X0210184Y0147834D01*
X0209640Y0149149D01*
X0208633Y0150155D01*
X0207318Y0150700D01*
X0205895Y0150700D01*
X0204580Y0150155D01*
X0203573Y0149149D01*
X0203028Y0147834D01*
X0203028Y0146410D01*
X0203573Y0145095D01*
X0204580Y0144089D01*
X0205895Y0143544D01*
X0207318Y0143544D01*
X0208633Y0144089D01*
X0209829Y0145554D02*
X0213383Y0145554D01*
X0213028Y0146752D02*
X0210184Y0146752D01*
X0210136Y0147951D02*
X0213077Y0147951D01*
X0213574Y0149149D02*
X0209639Y0149149D01*
X0208168Y0150348D02*
X0215045Y0150348D01*
X0209682Y0151546D02*
X0203531Y0151546D01*
X0203633Y0151589D02*
X0204640Y0152595D01*
X0205184Y0153910D01*
X0205184Y0155334D01*
X0204640Y0156649D01*
X0203633Y0157655D01*
X0202318Y0158200D01*
X0200895Y0158200D01*
X0199580Y0157655D01*
X0198573Y0156649D01*
X0198028Y0155334D01*
X0198028Y0153910D01*
X0198573Y0152595D01*
X0199580Y0151589D01*
X0200895Y0151044D01*
X0202318Y0151044D01*
X0203633Y0151589D01*
X0204701Y0152745D02*
X0208511Y0152745D01*
X0208028Y0153943D02*
X0205184Y0153943D01*
X0205184Y0155142D02*
X0208028Y0155142D01*
X0208445Y0156340D02*
X0204767Y0156340D01*
X0203749Y0157539D02*
X0209463Y0157539D01*
X0209480Y0159936D02*
X0213732Y0159936D01*
X0213143Y0161134D02*
X0210070Y0161134D01*
X0210184Y0162333D02*
X0213028Y0162333D01*
X0213317Y0163531D02*
X0209895Y0163531D01*
X0209058Y0164730D02*
X0214154Y0164730D01*
X0214171Y0167127D02*
X0219041Y0167127D01*
X0218271Y0168326D02*
X0214942Y0168326D01*
X0215184Y0169524D02*
X0218028Y0169524D01*
X0218189Y0170723D02*
X0215023Y0170723D01*
X0214367Y0171921D02*
X0218845Y0171921D01*
X0208845Y0171921D02*
X0204367Y0171921D01*
X0205023Y0170723D02*
X0208189Y0170723D01*
X0208028Y0169524D02*
X0205184Y0169524D01*
X0204942Y0168326D02*
X0208271Y0168326D01*
X0209041Y0167127D02*
X0204171Y0167127D01*
X0204154Y0164730D02*
X0199058Y0164730D01*
X0199895Y0163531D02*
X0203317Y0163531D01*
X0203028Y0162333D02*
X0200184Y0162333D01*
X0200070Y0161134D02*
X0203143Y0161134D01*
X0203732Y0159936D02*
X0199480Y0159936D01*
X0199463Y0157539D02*
X0193749Y0157539D01*
X0193633Y0157655D02*
X0192318Y0158200D01*
X0190895Y0158200D01*
X0189580Y0157655D01*
X0188573Y0156649D01*
X0188028Y0155334D01*
X0188028Y0153910D01*
X0188573Y0152595D01*
X0189580Y0151589D01*
X0190895Y0151044D01*
X0192318Y0151044D01*
X0193633Y0151589D01*
X0194640Y0152595D01*
X0195184Y0153910D01*
X0195184Y0155334D01*
X0194640Y0156649D01*
X0193633Y0157655D01*
X0194767Y0156340D02*
X0198445Y0156340D01*
X0198028Y0155142D02*
X0195184Y0155142D01*
X0195184Y0153943D02*
X0198028Y0153943D01*
X0198511Y0152745D02*
X0194701Y0152745D01*
X0193531Y0151546D02*
X0199682Y0151546D01*
X0198633Y0150155D02*
X0197318Y0150700D01*
X0195895Y0150700D01*
X0194580Y0150155D01*
X0193573Y0149149D01*
X0193028Y0147834D01*
X0193028Y0146410D01*
X0193573Y0145095D01*
X0194580Y0144089D01*
X0195895Y0143544D01*
X0197318Y0143544D01*
X0198633Y0144089D01*
X0199640Y0145095D01*
X0200184Y0146410D01*
X0200184Y0147834D01*
X0199640Y0149149D01*
X0198633Y0150155D01*
X0198168Y0150348D02*
X0205045Y0150348D01*
X0203574Y0149149D02*
X0199639Y0149149D01*
X0200136Y0147951D02*
X0203077Y0147951D01*
X0203028Y0146752D02*
X0200184Y0146752D01*
X0199829Y0145554D02*
X0203383Y0145554D01*
X0204313Y0144355D02*
X0198900Y0144355D01*
X0194313Y0144355D02*
X0188900Y0144355D01*
X0188633Y0144089D02*
X0189640Y0145095D01*
X0190184Y0146410D01*
X0190184Y0147834D01*
X0189640Y0149149D01*
X0188633Y0150155D01*
X0187318Y0150700D01*
X0185895Y0150700D01*
X0184580Y0150155D01*
X0183573Y0149149D01*
X0183028Y0147834D01*
X0183028Y0146410D01*
X0183573Y0145095D01*
X0184580Y0144089D01*
X0185895Y0143544D01*
X0187318Y0143544D01*
X0188633Y0144089D01*
X0189829Y0145554D02*
X0193383Y0145554D01*
X0193028Y0146752D02*
X0190184Y0146752D01*
X0190136Y0147951D02*
X0193077Y0147951D01*
X0193574Y0149149D02*
X0189639Y0149149D01*
X0188168Y0150348D02*
X0195045Y0150348D01*
X0189682Y0151546D02*
X0183531Y0151546D01*
X0183633Y0151589D02*
X0184640Y0152595D01*
X0185184Y0153910D01*
X0185184Y0155334D01*
X0184640Y0156649D01*
X0183633Y0157655D01*
X0182318Y0158200D01*
X0180895Y0158200D01*
X0179580Y0157655D01*
X0178573Y0156649D01*
X0178028Y0155334D01*
X0178028Y0153910D01*
X0178573Y0152595D01*
X0179580Y0151589D01*
X0180895Y0151044D01*
X0182318Y0151044D01*
X0183633Y0151589D01*
X0184701Y0152745D02*
X0188511Y0152745D01*
X0188028Y0153943D02*
X0185184Y0153943D01*
X0185184Y0155142D02*
X0188028Y0155142D01*
X0188445Y0156340D02*
X0184767Y0156340D01*
X0183749Y0157539D02*
X0189463Y0157539D01*
X0189480Y0159936D02*
X0193732Y0159936D01*
X0193143Y0161134D02*
X0190070Y0161134D01*
X0190184Y0162333D02*
X0193028Y0162333D01*
X0193317Y0163531D02*
X0189895Y0163531D01*
X0189058Y0164730D02*
X0194154Y0164730D01*
X0194171Y0167127D02*
X0199041Y0167127D01*
X0198271Y0168326D02*
X0194942Y0168326D01*
X0195184Y0169524D02*
X0198028Y0169524D01*
X0198189Y0170723D02*
X0195023Y0170723D01*
X0194367Y0171921D02*
X0198845Y0171921D01*
X0188845Y0171921D02*
X0184367Y0171921D01*
X0185023Y0170723D02*
X0188189Y0170723D01*
X0188028Y0169524D02*
X0185184Y0169524D01*
X0184942Y0168326D02*
X0188271Y0168326D01*
X0189041Y0167127D02*
X0184171Y0167127D01*
X0184154Y0164730D02*
X0179058Y0164730D01*
X0179895Y0163531D02*
X0183317Y0163531D01*
X0183028Y0162333D02*
X0180184Y0162333D01*
X0180070Y0161134D02*
X0183143Y0161134D01*
X0183732Y0159936D02*
X0179480Y0159936D01*
X0179463Y0157539D02*
X0173749Y0157539D01*
X0173633Y0157655D02*
X0172318Y0158200D01*
X0170895Y0158200D01*
X0169580Y0157655D01*
X0168573Y0156649D01*
X0168028Y0155334D01*
X0168028Y0153910D01*
X0168573Y0152595D01*
X0169580Y0151589D01*
X0170895Y0151044D01*
X0172318Y0151044D01*
X0173633Y0151589D01*
X0174640Y0152595D01*
X0175184Y0153910D01*
X0175184Y0155334D01*
X0174640Y0156649D01*
X0173633Y0157655D01*
X0174767Y0156340D02*
X0178445Y0156340D01*
X0178028Y0155142D02*
X0175184Y0155142D01*
X0175184Y0153943D02*
X0178028Y0153943D01*
X0178511Y0152745D02*
X0174701Y0152745D01*
X0173531Y0151546D02*
X0179682Y0151546D01*
X0178633Y0150155D02*
X0177318Y0150700D01*
X0175895Y0150700D01*
X0174580Y0150155D01*
X0173573Y0149149D01*
X0173028Y0147834D01*
X0173028Y0146410D01*
X0173573Y0145095D01*
X0174580Y0144089D01*
X0175895Y0143544D01*
X0177318Y0143544D01*
X0178633Y0144089D01*
X0179640Y0145095D01*
X0180184Y0146410D01*
X0180184Y0147834D01*
X0179640Y0149149D01*
X0178633Y0150155D01*
X0178168Y0150348D02*
X0185045Y0150348D01*
X0183574Y0149149D02*
X0179639Y0149149D01*
X0180136Y0147951D02*
X0183077Y0147951D01*
X0183028Y0146752D02*
X0180184Y0146752D01*
X0179829Y0145554D02*
X0183383Y0145554D01*
X0184313Y0144355D02*
X0178900Y0144355D01*
X0174313Y0144355D02*
X0168900Y0144355D01*
X0168633Y0144089D02*
X0169640Y0145095D01*
X0170184Y0146410D01*
X0170184Y0147834D01*
X0169640Y0149149D01*
X0168633Y0150155D01*
X0167318Y0150700D01*
X0165895Y0150700D01*
X0164580Y0150155D01*
X0163573Y0149149D01*
X0163028Y0147834D01*
X0163028Y0146410D01*
X0163573Y0145095D01*
X0164580Y0144089D01*
X0165895Y0143544D01*
X0167318Y0143544D01*
X0168633Y0144089D01*
X0169829Y0145554D02*
X0173383Y0145554D01*
X0173028Y0146752D02*
X0170184Y0146752D01*
X0170136Y0147951D02*
X0173077Y0147951D01*
X0173574Y0149149D02*
X0169639Y0149149D01*
X0168168Y0150348D02*
X0175045Y0150348D01*
X0169682Y0151546D02*
X0163531Y0151546D01*
X0163633Y0151589D02*
X0164640Y0152595D01*
X0165184Y0153910D01*
X0165184Y0155334D01*
X0164640Y0156649D01*
X0163633Y0157655D01*
X0162318Y0158200D01*
X0160895Y0158200D01*
X0159580Y0157655D01*
X0158573Y0156649D01*
X0158028Y0155334D01*
X0158028Y0153910D01*
X0158573Y0152595D01*
X0159580Y0151589D01*
X0160895Y0151044D01*
X0162318Y0151044D01*
X0163633Y0151589D01*
X0164701Y0152745D02*
X0168511Y0152745D01*
X0168028Y0153943D02*
X0165184Y0153943D01*
X0165184Y0155142D02*
X0168028Y0155142D01*
X0168445Y0156340D02*
X0164767Y0156340D01*
X0163749Y0157539D02*
X0169463Y0157539D01*
X0169480Y0159936D02*
X0173732Y0159936D01*
X0173143Y0161134D02*
X0170070Y0161134D01*
X0170184Y0162333D02*
X0173028Y0162333D01*
X0173317Y0163531D02*
X0169895Y0163531D01*
X0169058Y0164730D02*
X0174154Y0164730D01*
X0174171Y0167127D02*
X0179041Y0167127D01*
X0178271Y0168326D02*
X0174942Y0168326D01*
X0175184Y0169524D02*
X0178028Y0169524D01*
X0178189Y0170723D02*
X0175023Y0170723D01*
X0174367Y0171921D02*
X0178845Y0171921D01*
X0168845Y0171921D02*
X0164367Y0171921D01*
X0165023Y0170723D02*
X0168189Y0170723D01*
X0168028Y0169524D02*
X0165184Y0169524D01*
X0164942Y0168326D02*
X0168271Y0168326D01*
X0169041Y0167127D02*
X0164171Y0167127D01*
X0164154Y0164730D02*
X0159058Y0164730D01*
X0159895Y0163531D02*
X0163317Y0163531D01*
X0163028Y0162333D02*
X0160184Y0162333D01*
X0160070Y0161134D02*
X0163143Y0161134D01*
X0163732Y0159936D02*
X0159480Y0159936D01*
X0159463Y0157539D02*
X0153749Y0157539D01*
X0153633Y0157655D02*
X0152318Y0158200D01*
X0150895Y0158200D01*
X0149580Y0157655D01*
X0148573Y0156649D01*
X0148028Y0155334D01*
X0148028Y0153910D01*
X0148573Y0152595D01*
X0149580Y0151589D01*
X0150895Y0151044D01*
X0152318Y0151044D01*
X0153633Y0151589D01*
X0154640Y0152595D01*
X0155184Y0153910D01*
X0155184Y0155334D01*
X0154640Y0156649D01*
X0153633Y0157655D01*
X0154767Y0156340D02*
X0158445Y0156340D01*
X0158028Y0155142D02*
X0155184Y0155142D01*
X0155184Y0153943D02*
X0158028Y0153943D01*
X0158511Y0152745D02*
X0154701Y0152745D01*
X0153531Y0151546D02*
X0159682Y0151546D01*
X0158633Y0150155D02*
X0159640Y0149149D01*
X0160184Y0147834D01*
X0160184Y0146410D01*
X0159640Y0145095D01*
X0158633Y0144089D01*
X0157318Y0143544D01*
X0155895Y0143544D01*
X0154580Y0144089D01*
X0153573Y0145095D01*
X0153028Y0146410D01*
X0153028Y0147834D01*
X0153573Y0149149D01*
X0154580Y0150155D01*
X0155895Y0150700D01*
X0157318Y0150700D01*
X0158633Y0150155D01*
X0158168Y0150348D02*
X0165045Y0150348D01*
X0163574Y0149149D02*
X0159639Y0149149D01*
X0160136Y0147951D02*
X0163077Y0147951D01*
X0163028Y0146752D02*
X0160184Y0146752D01*
X0159829Y0145554D02*
X0163383Y0145554D01*
X0164313Y0144355D02*
X0158900Y0144355D01*
X0154313Y0144355D02*
X0148900Y0144355D01*
X0148633Y0144089D02*
X0149640Y0145095D01*
X0150184Y0146410D01*
X0150184Y0147834D01*
X0149640Y0149149D01*
X0148633Y0150155D01*
X0147318Y0150700D01*
X0145895Y0150700D01*
X0144580Y0150155D01*
X0143573Y0149149D01*
X0143028Y0147834D01*
X0143028Y0146410D01*
X0143573Y0145095D01*
X0144580Y0144089D01*
X0145895Y0143544D01*
X0147318Y0143544D01*
X0148633Y0144089D01*
X0149829Y0145554D02*
X0153383Y0145554D01*
X0153028Y0146752D02*
X0150184Y0146752D01*
X0150136Y0147951D02*
X0153077Y0147951D01*
X0153574Y0149149D02*
X0149639Y0149149D01*
X0148168Y0150348D02*
X0155045Y0150348D01*
X0149682Y0151546D02*
X0143531Y0151546D01*
X0143633Y0151589D02*
X0144640Y0152595D01*
X0145184Y0153910D01*
X0145184Y0155334D01*
X0144640Y0156649D01*
X0143633Y0157655D01*
X0142318Y0158200D01*
X0140895Y0158200D01*
X0139580Y0157655D01*
X0138573Y0156649D01*
X0138028Y0155334D01*
X0138028Y0153910D01*
X0138573Y0152595D01*
X0139580Y0151589D01*
X0140895Y0151044D01*
X0142318Y0151044D01*
X0143633Y0151589D01*
X0144701Y0152745D02*
X0148511Y0152745D01*
X0148028Y0153943D02*
X0145184Y0153943D01*
X0145184Y0155142D02*
X0148028Y0155142D01*
X0148445Y0156340D02*
X0144767Y0156340D01*
X0143749Y0157539D02*
X0149463Y0157539D01*
X0149480Y0159936D02*
X0153732Y0159936D01*
X0153143Y0161134D02*
X0150070Y0161134D01*
X0150184Y0162333D02*
X0153028Y0162333D01*
X0153317Y0163531D02*
X0149895Y0163531D01*
X0149058Y0164730D02*
X0154154Y0164730D01*
X0154171Y0167127D02*
X0159041Y0167127D01*
X0158271Y0168326D02*
X0154942Y0168326D01*
X0155184Y0169524D02*
X0158028Y0169524D01*
X0158189Y0170723D02*
X0155023Y0170723D01*
X0154367Y0171921D02*
X0158845Y0171921D01*
X0148845Y0171921D02*
X0144367Y0171921D01*
X0145023Y0170723D02*
X0148189Y0170723D01*
X0148028Y0169524D02*
X0145184Y0169524D01*
X0144942Y0168326D02*
X0148271Y0168326D01*
X0149041Y0167127D02*
X0144171Y0167127D01*
X0144154Y0164730D02*
X0139058Y0164730D01*
X0139895Y0163531D02*
X0143317Y0163531D01*
X0143028Y0162333D02*
X0140184Y0162333D01*
X0140070Y0161134D02*
X0143143Y0161134D01*
X0143732Y0159936D02*
X0139480Y0159936D01*
X0139463Y0157539D02*
X0133749Y0157539D01*
X0133633Y0157655D02*
X0132318Y0158200D01*
X0130895Y0158200D01*
X0129580Y0157655D01*
X0128573Y0156649D01*
X0128028Y0155334D01*
X0128028Y0153910D01*
X0128573Y0152595D01*
X0129580Y0151589D01*
X0130895Y0151044D01*
X0132318Y0151044D01*
X0133633Y0151589D01*
X0134640Y0152595D01*
X0135184Y0153910D01*
X0135184Y0155334D01*
X0134640Y0156649D01*
X0133633Y0157655D01*
X0134767Y0156340D02*
X0138445Y0156340D01*
X0138028Y0155142D02*
X0135184Y0155142D01*
X0135184Y0153943D02*
X0138028Y0153943D01*
X0138511Y0152745D02*
X0134701Y0152745D01*
X0133531Y0151546D02*
X0139682Y0151546D01*
X0138633Y0150155D02*
X0137318Y0150700D01*
X0135895Y0150700D01*
X0134580Y0150155D01*
X0133573Y0149149D01*
X0133028Y0147834D01*
X0133028Y0146410D01*
X0133573Y0145095D01*
X0134580Y0144089D01*
X0135895Y0143544D01*
X0137318Y0143544D01*
X0138633Y0144089D01*
X0139640Y0145095D01*
X0140184Y0146410D01*
X0140184Y0147834D01*
X0139640Y0149149D01*
X0138633Y0150155D01*
X0138168Y0150348D02*
X0145045Y0150348D01*
X0143574Y0149149D02*
X0139639Y0149149D01*
X0140136Y0147951D02*
X0143077Y0147951D01*
X0143028Y0146752D02*
X0140184Y0146752D01*
X0139829Y0145554D02*
X0143383Y0145554D01*
X0144313Y0144355D02*
X0138900Y0144355D01*
X0134313Y0144355D02*
X0128900Y0144355D01*
X0128633Y0144089D02*
X0129640Y0145095D01*
X0130184Y0146410D01*
X0130184Y0147834D01*
X0129640Y0149149D01*
X0128633Y0150155D01*
X0127318Y0150700D01*
X0125895Y0150700D01*
X0124580Y0150155D01*
X0123573Y0149149D01*
X0123028Y0147834D01*
X0123028Y0146410D01*
X0123573Y0145095D01*
X0124580Y0144089D01*
X0125895Y0143544D01*
X0127318Y0143544D01*
X0128633Y0144089D01*
X0129829Y0145554D02*
X0133383Y0145554D01*
X0133028Y0146752D02*
X0130184Y0146752D01*
X0130136Y0147951D02*
X0133077Y0147951D01*
X0133574Y0149149D02*
X0129639Y0149149D01*
X0128168Y0150348D02*
X0135045Y0150348D01*
X0129682Y0151546D02*
X0123531Y0151546D01*
X0123633Y0151589D02*
X0124640Y0152595D01*
X0125184Y0153910D01*
X0125184Y0155334D01*
X0124640Y0156649D01*
X0123633Y0157655D01*
X0122318Y0158200D01*
X0120895Y0158200D01*
X0119580Y0157655D01*
X0118573Y0156649D01*
X0118028Y0155334D01*
X0118028Y0153910D01*
X0118573Y0152595D01*
X0119580Y0151589D01*
X0120895Y0151044D01*
X0122318Y0151044D01*
X0123633Y0151589D01*
X0124701Y0152745D02*
X0128511Y0152745D01*
X0128028Y0153943D02*
X0125184Y0153943D01*
X0125184Y0155142D02*
X0128028Y0155142D01*
X0128445Y0156340D02*
X0124767Y0156340D01*
X0123749Y0157539D02*
X0129463Y0157539D01*
X0129480Y0159936D02*
X0133732Y0159936D01*
X0133143Y0161134D02*
X0130070Y0161134D01*
X0130184Y0162333D02*
X0133028Y0162333D01*
X0133317Y0163531D02*
X0129895Y0163531D01*
X0129058Y0164730D02*
X0134154Y0164730D01*
X0134171Y0167127D02*
X0139041Y0167127D01*
X0138271Y0168326D02*
X0134942Y0168326D01*
X0135184Y0169524D02*
X0138028Y0169524D01*
X0138189Y0170723D02*
X0135023Y0170723D01*
X0134367Y0171921D02*
X0138845Y0171921D01*
X0128845Y0171921D02*
X0124367Y0171921D01*
X0125023Y0170723D02*
X0128189Y0170723D01*
X0128028Y0169524D02*
X0125184Y0169524D01*
X0124942Y0168326D02*
X0128271Y0168326D01*
X0129041Y0167127D02*
X0124171Y0167127D01*
X0124154Y0164730D02*
X0119058Y0164730D01*
X0118887Y0164901D02*
X0118301Y0165293D01*
X0117650Y0165562D01*
X0116959Y0165700D01*
X0116695Y0165700D01*
X0116695Y0162211D01*
X0116517Y0162211D01*
X0116517Y0162033D01*
X0116695Y0162033D01*
X0116695Y0162211D01*
X0120184Y0162211D01*
X0120184Y0162474D01*
X0120047Y0163166D01*
X0119777Y0163817D01*
X0119385Y0164403D01*
X0118887Y0164901D01*
X0119895Y0163531D02*
X0123317Y0163531D01*
X0123028Y0162333D02*
X0120184Y0162333D01*
X0120058Y0161134D02*
X0123143Y0161134D01*
X0123732Y0159936D02*
X0119449Y0159936D01*
X0119463Y0157539D02*
X0113749Y0157539D01*
X0113633Y0157655D02*
X0112318Y0158200D01*
X0110895Y0158200D01*
X0109580Y0157655D01*
X0108573Y0156649D01*
X0108028Y0155334D01*
X0108028Y0153910D01*
X0108573Y0152595D01*
X0109580Y0151589D01*
X0110895Y0151044D01*
X0112318Y0151044D01*
X0113633Y0151589D01*
X0114640Y0152595D01*
X0115184Y0153910D01*
X0115184Y0155334D01*
X0114640Y0156649D01*
X0113633Y0157655D01*
X0114767Y0156340D02*
X0118445Y0156340D01*
X0118028Y0155142D02*
X0115184Y0155142D01*
X0115184Y0153943D02*
X0118028Y0153943D01*
X0118511Y0152745D02*
X0114701Y0152745D01*
X0113531Y0151546D02*
X0119682Y0151546D01*
X0118887Y0149901D02*
X0118301Y0150293D01*
X0117650Y0150562D01*
X0116959Y0150700D01*
X0116695Y0150700D01*
X0116695Y0147211D01*
X0116517Y0147211D01*
X0116517Y0147033D01*
X0113028Y0147033D01*
X0113028Y0146770D01*
X0113166Y0146078D01*
X0113436Y0145427D01*
X0113827Y0144841D01*
X0114325Y0144343D01*
X0114911Y0143951D01*
X0115563Y0143682D01*
X0116254Y0143544D01*
X0116517Y0143544D01*
X0116517Y0147033D01*
X0116695Y0147033D01*
X0116695Y0143544D01*
X0116959Y0143544D01*
X0117650Y0143682D01*
X0118301Y0143951D01*
X0118887Y0144343D01*
X0119385Y0144841D01*
X0119777Y0145427D01*
X0120047Y0146078D01*
X0120184Y0146770D01*
X0120184Y0147033D01*
X0116695Y0147033D01*
X0116695Y0147211D01*
X0120184Y0147211D01*
X0120184Y0147474D01*
X0120047Y0148166D01*
X0119777Y0148817D01*
X0119385Y0149403D01*
X0118887Y0149901D01*
X0118168Y0150348D02*
X0125045Y0150348D01*
X0123574Y0149149D02*
X0119555Y0149149D01*
X0120089Y0147951D02*
X0123077Y0147951D01*
X0123028Y0146752D02*
X0120181Y0146752D01*
X0119829Y0145554D02*
X0123383Y0145554D01*
X0124313Y0144355D02*
X0118900Y0144355D01*
X0116695Y0144355D02*
X0116517Y0144355D01*
X0116517Y0145554D02*
X0116695Y0145554D01*
X0116695Y0146752D02*
X0116517Y0146752D01*
X0116517Y0147211D02*
X0113028Y0147211D01*
X0113028Y0147474D01*
X0113166Y0148166D01*
X0113436Y0148817D01*
X0113827Y0149403D01*
X0114325Y0149901D01*
X0114911Y0150293D01*
X0115563Y0150562D01*
X0116254Y0150700D01*
X0116517Y0150700D01*
X0116517Y0147211D01*
X0116517Y0147951D02*
X0116695Y0147951D01*
X0116695Y0149149D02*
X0116517Y0149149D01*
X0116517Y0150348D02*
X0116695Y0150348D01*
X0115045Y0150348D02*
X0108168Y0150348D01*
X0108633Y0150155D02*
X0107318Y0150700D01*
X0105895Y0150700D01*
X0104580Y0150155D01*
X0103573Y0149149D01*
X0103028Y0147834D01*
X0103028Y0146410D01*
X0103573Y0145095D01*
X0104580Y0144089D01*
X0105895Y0143544D01*
X0107318Y0143544D01*
X0108633Y0144089D01*
X0109640Y0145095D01*
X0110184Y0146410D01*
X0110184Y0147834D01*
X0109640Y0149149D01*
X0108633Y0150155D01*
X0109639Y0149149D02*
X0113658Y0149149D01*
X0113123Y0147951D02*
X0110136Y0147951D01*
X0110184Y0146752D02*
X0113032Y0146752D01*
X0113383Y0145554D02*
X0109829Y0145554D01*
X0108900Y0144355D02*
X0114313Y0144355D01*
X0109682Y0151546D02*
X0103531Y0151546D01*
X0103633Y0151589D02*
X0104640Y0152595D01*
X0105184Y0153910D01*
X0105184Y0155334D01*
X0104640Y0156649D01*
X0103633Y0157655D01*
X0102318Y0158200D01*
X0100895Y0158200D01*
X0099580Y0157655D01*
X0098573Y0156649D01*
X0098028Y0155334D01*
X0098028Y0153910D01*
X0098573Y0152595D01*
X0099580Y0151589D01*
X0100895Y0151044D01*
X0102318Y0151044D01*
X0103633Y0151589D01*
X0104701Y0152745D02*
X0108511Y0152745D01*
X0108028Y0153943D02*
X0105184Y0153943D01*
X0105184Y0155142D02*
X0108028Y0155142D01*
X0108445Y0156340D02*
X0104767Y0156340D01*
X0103749Y0157539D02*
X0109463Y0157539D01*
X0109480Y0159936D02*
X0113764Y0159936D01*
X0113155Y0161134D02*
X0110070Y0161134D01*
X0110184Y0162333D02*
X0113028Y0162333D01*
X0113028Y0162211D02*
X0116517Y0162211D01*
X0116517Y0165700D01*
X0116254Y0165700D01*
X0115563Y0165562D01*
X0114911Y0165293D01*
X0114325Y0164901D01*
X0113827Y0164403D01*
X0113436Y0163817D01*
X0113166Y0163166D01*
X0113028Y0162474D01*
X0113028Y0162211D01*
X0113317Y0163531D02*
X0109895Y0163531D01*
X0109058Y0164730D02*
X0114154Y0164730D01*
X0116517Y0164730D02*
X0116695Y0164730D01*
X0116695Y0163531D02*
X0116517Y0163531D01*
X0116517Y0162333D02*
X0116695Y0162333D01*
X0116695Y0161134D02*
X0116517Y0161134D01*
X0116517Y0159936D02*
X0116695Y0159936D01*
X0119041Y0167127D02*
X0114171Y0167127D01*
X0114942Y0168326D02*
X0118271Y0168326D01*
X0118028Y0169524D02*
X0115184Y0169524D01*
X0115023Y0170723D02*
X0118189Y0170723D01*
X0118845Y0171921D02*
X0114367Y0171921D01*
X0108845Y0171921D02*
X0104367Y0171921D01*
X0105023Y0170723D02*
X0108189Y0170723D01*
X0108028Y0169524D02*
X0105184Y0169524D01*
X0104942Y0168326D02*
X0108271Y0168326D01*
X0109041Y0167127D02*
X0104171Y0167127D01*
X0104154Y0164730D02*
X0099058Y0164730D01*
X0099895Y0163531D02*
X0103317Y0163531D01*
X0103028Y0162333D02*
X0100184Y0162333D01*
X0100070Y0161134D02*
X0103143Y0161134D01*
X0103732Y0159936D02*
X0099480Y0159936D01*
X0099463Y0157539D02*
X0093749Y0157539D01*
X0093633Y0157655D02*
X0092318Y0158200D01*
X0090895Y0158200D01*
X0089580Y0157655D01*
X0088573Y0156649D01*
X0088028Y0155334D01*
X0088028Y0153910D01*
X0088573Y0152595D01*
X0089580Y0151589D01*
X0090895Y0151044D01*
X0092318Y0151044D01*
X0093633Y0151589D01*
X0094640Y0152595D01*
X0095184Y0153910D01*
X0095184Y0155334D01*
X0094640Y0156649D01*
X0093633Y0157655D01*
X0094767Y0156340D02*
X0098445Y0156340D01*
X0098028Y0155142D02*
X0095184Y0155142D01*
X0095184Y0153943D02*
X0098028Y0153943D01*
X0098511Y0152745D02*
X0094701Y0152745D01*
X0093531Y0151546D02*
X0099682Y0151546D01*
X0098633Y0150155D02*
X0097318Y0150700D01*
X0095895Y0150700D01*
X0094580Y0150155D01*
X0093573Y0149149D01*
X0093028Y0147834D01*
X0093028Y0146410D01*
X0093573Y0145095D01*
X0094580Y0144089D01*
X0095895Y0143544D01*
X0097318Y0143544D01*
X0098633Y0144089D01*
X0099640Y0145095D01*
X0100184Y0146410D01*
X0100184Y0147834D01*
X0099640Y0149149D01*
X0098633Y0150155D01*
X0098168Y0150348D02*
X0105045Y0150348D01*
X0103574Y0149149D02*
X0099639Y0149149D01*
X0100136Y0147951D02*
X0103077Y0147951D01*
X0103028Y0146752D02*
X0100184Y0146752D01*
X0099829Y0145554D02*
X0103383Y0145554D01*
X0104313Y0144355D02*
X0098900Y0144355D01*
X0094313Y0144355D02*
X0088900Y0144355D01*
X0088633Y0144089D02*
X0089640Y0145095D01*
X0090184Y0146410D01*
X0090184Y0147834D01*
X0089640Y0149149D01*
X0088633Y0150155D01*
X0087318Y0150700D01*
X0085895Y0150700D01*
X0084580Y0150155D01*
X0083573Y0149149D01*
X0083028Y0147834D01*
X0083028Y0146410D01*
X0083573Y0145095D01*
X0084580Y0144089D01*
X0085895Y0143544D01*
X0087318Y0143544D01*
X0088633Y0144089D01*
X0089829Y0145554D02*
X0093383Y0145554D01*
X0093028Y0146752D02*
X0090184Y0146752D01*
X0090136Y0147951D02*
X0093077Y0147951D01*
X0093574Y0149149D02*
X0089639Y0149149D01*
X0088168Y0150348D02*
X0095045Y0150348D01*
X0089682Y0151546D02*
X0083531Y0151546D01*
X0083633Y0151589D02*
X0084640Y0152595D01*
X0085184Y0153910D01*
X0085184Y0155334D01*
X0084640Y0156649D01*
X0083633Y0157655D01*
X0082318Y0158200D01*
X0080895Y0158200D01*
X0079580Y0157655D01*
X0078573Y0156649D01*
X0078028Y0155334D01*
X0078028Y0153910D01*
X0078573Y0152595D01*
X0079580Y0151589D01*
X0080895Y0151044D01*
X0082318Y0151044D01*
X0083633Y0151589D01*
X0084701Y0152745D02*
X0088511Y0152745D01*
X0088028Y0153943D02*
X0085184Y0153943D01*
X0085184Y0155142D02*
X0088028Y0155142D01*
X0088445Y0156340D02*
X0084767Y0156340D01*
X0083749Y0157539D02*
X0089463Y0157539D01*
X0089480Y0159936D02*
X0093732Y0159936D01*
X0093143Y0161134D02*
X0090070Y0161134D01*
X0090184Y0162333D02*
X0093028Y0162333D01*
X0093317Y0163531D02*
X0089895Y0163531D01*
X0089058Y0164730D02*
X0094154Y0164730D01*
X0094171Y0167127D02*
X0099041Y0167127D01*
X0098271Y0168326D02*
X0094942Y0168326D01*
X0095184Y0169524D02*
X0098028Y0169524D01*
X0098189Y0170723D02*
X0095023Y0170723D01*
X0094367Y0171921D02*
X0098845Y0171921D01*
X0088845Y0171921D02*
X0084367Y0171921D01*
X0085023Y0170723D02*
X0088189Y0170723D01*
X0088028Y0169524D02*
X0085184Y0169524D01*
X0084942Y0168326D02*
X0088271Y0168326D01*
X0089041Y0167127D02*
X0084171Y0167127D01*
X0084154Y0164730D02*
X0079058Y0164730D01*
X0079895Y0163531D02*
X0083317Y0163531D01*
X0083028Y0162333D02*
X0080184Y0162333D01*
X0080070Y0161134D02*
X0083143Y0161134D01*
X0083732Y0159936D02*
X0079480Y0159936D01*
X0079463Y0157539D02*
X0073681Y0157539D01*
X0074761Y0156340D02*
X0078445Y0156340D01*
X0078028Y0155142D02*
X0075151Y0155142D01*
X0075119Y0153943D02*
X0078028Y0153943D01*
X0078511Y0152745D02*
X0074655Y0152745D01*
X0073443Y0151546D02*
X0079682Y0151546D01*
X0078633Y0150155D02*
X0077318Y0150700D01*
X0075895Y0150700D01*
X0074580Y0150155D01*
X0073573Y0149149D01*
X0073028Y0147834D01*
X0073028Y0146410D01*
X0073573Y0145095D01*
X0074580Y0144089D01*
X0075895Y0143544D01*
X0077318Y0143544D01*
X0078633Y0144089D01*
X0079640Y0145095D01*
X0080184Y0146410D01*
X0080184Y0147834D01*
X0079640Y0149149D01*
X0078633Y0150155D01*
X0078168Y0150348D02*
X0085045Y0150348D01*
X0083574Y0149149D02*
X0079639Y0149149D01*
X0080136Y0147951D02*
X0083077Y0147951D01*
X0083028Y0146752D02*
X0080184Y0146752D01*
X0079829Y0145554D02*
X0083383Y0145554D01*
X0084313Y0144355D02*
X0078900Y0144355D01*
X0074313Y0144355D02*
X0068900Y0144355D01*
X0069829Y0145554D02*
X0073383Y0145554D01*
X0073028Y0146752D02*
X0070184Y0146752D01*
X0070136Y0147951D02*
X0073077Y0147951D01*
X0073574Y0149149D02*
X0069639Y0149149D01*
X0068168Y0150348D02*
X0075045Y0150348D01*
X0068557Y0152745D02*
X0009257Y0152745D01*
X0009257Y0153943D02*
X0068093Y0153943D01*
X0068062Y0155142D02*
X0009257Y0155142D01*
X0009257Y0156340D02*
X0068451Y0156340D01*
X0069480Y0159936D02*
X0073732Y0159936D01*
X0073143Y0161134D02*
X0070070Y0161134D01*
X0070184Y0162333D02*
X0073028Y0162333D01*
X0073317Y0163531D02*
X0069895Y0163531D01*
X0069058Y0164730D02*
X0074154Y0164730D01*
X0074171Y0167127D02*
X0079041Y0167127D01*
X0078271Y0168326D02*
X0074942Y0168326D01*
X0075184Y0169524D02*
X0078028Y0169524D01*
X0078189Y0170723D02*
X0075023Y0170723D01*
X0074367Y0171921D02*
X0078845Y0171921D01*
X0071695Y0171921D02*
X0071517Y0171921D01*
X0071517Y0170723D02*
X0071695Y0170723D01*
X0071695Y0169524D02*
X0071517Y0169524D01*
X0071517Y0168326D02*
X0071695Y0168326D01*
X0071695Y0167127D02*
X0071517Y0167127D01*
X0069041Y0167127D02*
X0009257Y0167127D01*
X0009257Y0165929D02*
X0052416Y0165929D01*
X0051955Y0165467D02*
X0051380Y0164078D01*
X0051380Y0162575D01*
X0051955Y0161187D01*
X0053017Y0160124D01*
X0054406Y0159549D01*
X0055909Y0159549D01*
X0057298Y0160124D01*
X0058360Y0161187D01*
X0058935Y0162575D01*
X0058935Y0164078D01*
X0058360Y0165467D01*
X0057298Y0166530D01*
X0055909Y0167105D01*
X0054406Y0167105D01*
X0053017Y0166530D01*
X0051955Y0165467D01*
X0051649Y0164730D02*
X0009257Y0164730D01*
X0009257Y0163531D02*
X0051380Y0163531D01*
X0051480Y0162333D02*
X0009257Y0162333D01*
X0009257Y0161134D02*
X0052007Y0161134D01*
X0053471Y0159936D02*
X0009257Y0159936D01*
X0009257Y0168326D02*
X0068271Y0168326D01*
X0068028Y0169524D02*
X0009257Y0169524D01*
X0009257Y0170723D02*
X0068189Y0170723D01*
X0068845Y0171921D02*
X0009257Y0171921D01*
X0009257Y0175517D02*
X0351577Y0175517D01*
X0351577Y0176715D02*
X0009257Y0176715D01*
X0009257Y0177914D02*
X0063432Y0177914D01*
X0063866Y0177734D02*
X0065134Y0177734D01*
X0066306Y0178219D01*
X0067202Y0179116D01*
X0067687Y0180287D01*
X0067687Y0181555D01*
X0067202Y0182727D01*
X0066306Y0183623D01*
X0066176Y0183677D01*
X0066306Y0183731D01*
X0067202Y0184628D01*
X0067687Y0185799D01*
X0067687Y0187067D01*
X0067202Y0188239D01*
X0066306Y0189135D01*
X0065134Y0189620D01*
X0063866Y0189620D01*
X0063160Y0189328D01*
X0063160Y0189823D01*
X0062898Y0190455D01*
X0063669Y0190135D01*
X0064937Y0190135D01*
X0066109Y0190621D01*
X0067005Y0191517D01*
X0067491Y0192689D01*
X0067491Y0193957D01*
X0067005Y0195128D01*
X0066350Y0195783D01*
X0067202Y0196635D01*
X0067687Y0197807D01*
X0067687Y0199075D01*
X0067202Y0200246D01*
X0066449Y0201000D01*
X0067202Y0201754D01*
X0067687Y0202925D01*
X0067687Y0204193D01*
X0067202Y0205365D01*
X0066645Y0205921D01*
X0067202Y0206478D01*
X0067687Y0207649D01*
X0067687Y0208917D01*
X0067202Y0210089D01*
X0066306Y0210986D01*
X0065134Y0211471D01*
X0063866Y0211471D01*
X0063155Y0211176D01*
X0062871Y0211861D01*
X0062569Y0212163D01*
X0063472Y0211789D01*
X0064740Y0211789D01*
X0065912Y0212274D01*
X0066808Y0213171D01*
X0067294Y0214342D01*
X0067294Y0215610D01*
X0066808Y0216782D01*
X0066090Y0217500D01*
X0066306Y0217589D01*
X0067202Y0218486D01*
X0067687Y0219657D01*
X0067687Y0220925D01*
X0067202Y0222097D01*
X0066306Y0222993D01*
X0065134Y0223479D01*
X0064538Y0223479D01*
X0064538Y0223681D01*
X0064053Y0224853D01*
X0063156Y0225749D01*
X0061984Y0226235D01*
X0060716Y0226235D01*
X0059545Y0225749D01*
X0058648Y0224853D01*
X0058163Y0223681D01*
X0058163Y0222413D01*
X0058648Y0221242D01*
X0059366Y0220524D01*
X0059151Y0220434D01*
X0058255Y0219538D01*
X0057769Y0218366D01*
X0057769Y0217098D01*
X0058255Y0215927D01*
X0059151Y0215030D01*
X0060323Y0214545D01*
X0060919Y0214545D01*
X0060919Y0214342D01*
X0061404Y0213171D01*
X0061707Y0212868D01*
X0060803Y0213243D01*
X0059535Y0213243D01*
X0058364Y0212757D01*
X0057467Y0211861D01*
X0056982Y0210689D01*
X0056982Y0209421D01*
X0057467Y0208250D01*
X0057925Y0207791D01*
X0057861Y0207727D01*
X0057376Y0206555D01*
X0057376Y0205287D01*
X0057861Y0204116D01*
X0058713Y0203264D01*
X0058255Y0202806D01*
X0057769Y0201634D01*
X0057769Y0200366D01*
X0058255Y0199194D01*
X0059008Y0198441D01*
X0058255Y0197687D01*
X0057769Y0196516D01*
X0057769Y0195248D01*
X0058255Y0194076D01*
X0059151Y0193180D01*
X0060323Y0192694D01*
X0061116Y0192694D01*
X0061116Y0192689D01*
X0061377Y0192057D01*
X0060606Y0192376D01*
X0059338Y0192376D01*
X0058167Y0191891D01*
X0057270Y0190994D01*
X0056785Y0189823D01*
X0056785Y0188555D01*
X0057270Y0187383D01*
X0058167Y0186487D01*
X0059217Y0186052D01*
X0058648Y0185483D01*
X0058163Y0184311D01*
X0058163Y0183043D01*
X0058648Y0181872D01*
X0059545Y0180975D01*
X0060716Y0180490D01*
X0061313Y0180490D01*
X0061313Y0180287D01*
X0061798Y0179116D01*
X0062694Y0178219D01*
X0063866Y0177734D01*
X0065568Y0177914D02*
X0301910Y0177914D01*
X0302190Y0177634D02*
X0300965Y0178859D01*
X0300302Y0180460D01*
X0300302Y0182193D01*
X0300965Y0183794D01*
X0302190Y0185020D01*
X0303791Y0185683D01*
X0305524Y0185683D01*
X0307125Y0185020D01*
X0308350Y0183794D01*
X0309013Y0182193D01*
X0309013Y0180460D01*
X0308350Y0178859D01*
X0307125Y0177634D01*
X0305524Y0176971D01*
X0303791Y0176971D01*
X0302190Y0177634D01*
X0300860Y0179112D02*
X0067199Y0179112D01*
X0067687Y0180311D02*
X0300364Y0180311D01*
X0300302Y0181509D02*
X0067687Y0181509D01*
X0067210Y0182708D02*
X0300515Y0182708D01*
X0301077Y0183906D02*
X0066481Y0183906D01*
X0067400Y0185105D02*
X0302396Y0185105D01*
X0306919Y0185105D02*
X0312396Y0185105D01*
X0312190Y0185020D02*
X0310965Y0183794D01*
X0310302Y0182193D01*
X0310302Y0180460D01*
X0310965Y0178859D01*
X0312190Y0177634D01*
X0313791Y0176971D01*
X0315524Y0176971D01*
X0317125Y0177634D01*
X0318350Y0178859D01*
X0319013Y0180460D01*
X0319013Y0182193D01*
X0318350Y0183794D01*
X0317125Y0185020D01*
X0315524Y0185683D01*
X0313791Y0185683D01*
X0312190Y0185020D01*
X0311077Y0183906D02*
X0308238Y0183906D01*
X0308800Y0182708D02*
X0310515Y0182708D01*
X0310302Y0181509D02*
X0309013Y0181509D01*
X0308951Y0180311D02*
X0310364Y0180311D01*
X0310860Y0179112D02*
X0308455Y0179112D01*
X0307405Y0177914D02*
X0311910Y0177914D01*
X0317405Y0177914D02*
X0321910Y0177914D01*
X0322190Y0177634D02*
X0323791Y0176971D01*
X0325524Y0176971D01*
X0327125Y0177634D01*
X0328350Y0178859D01*
X0329013Y0180460D01*
X0329013Y0182193D01*
X0328350Y0183794D01*
X0327125Y0185020D01*
X0325524Y0185683D01*
X0323791Y0185683D01*
X0322190Y0185020D01*
X0320965Y0183794D01*
X0320302Y0182193D01*
X0320302Y0180460D01*
X0320965Y0178859D01*
X0322190Y0177634D01*
X0320860Y0179112D02*
X0318455Y0179112D01*
X0318951Y0180311D02*
X0320364Y0180311D01*
X0320302Y0181509D02*
X0319013Y0181509D01*
X0318800Y0182708D02*
X0320515Y0182708D01*
X0321077Y0183906D02*
X0318238Y0183906D01*
X0316919Y0185105D02*
X0322396Y0185105D01*
X0326919Y0185105D02*
X0332477Y0185105D01*
X0332374Y0185052D02*
X0331820Y0184649D01*
X0331335Y0184164D01*
X0330932Y0183610D01*
X0330621Y0182999D01*
X0330409Y0182347D01*
X0330308Y0181711D01*
X0334273Y0181711D01*
X0334273Y0180942D01*
X0335042Y0180942D01*
X0335042Y0176977D01*
X0335677Y0177078D01*
X0336330Y0177290D01*
X0336940Y0177601D01*
X0337495Y0178004D01*
X0337980Y0178489D01*
X0338383Y0179044D01*
X0338694Y0179655D01*
X0338906Y0180307D01*
X0339007Y0180942D01*
X0335042Y0180942D01*
X0335042Y0181711D01*
X0339007Y0181711D01*
X0338906Y0182347D01*
X0338694Y0182999D01*
X0338383Y0183610D01*
X0337980Y0184164D01*
X0337495Y0184649D01*
X0336940Y0185052D01*
X0336330Y0185364D01*
X0335677Y0185575D01*
X0335042Y0185676D01*
X0335042Y0181711D01*
X0334273Y0181711D01*
X0334273Y0185676D01*
X0333637Y0185575D01*
X0332985Y0185364D01*
X0332374Y0185052D01*
X0331147Y0183906D02*
X0328238Y0183906D01*
X0328800Y0182708D02*
X0330526Y0182708D01*
X0330308Y0180942D02*
X0330409Y0180307D01*
X0330621Y0179655D01*
X0330932Y0179044D01*
X0331335Y0178489D01*
X0331820Y0178004D01*
X0332374Y0177601D01*
X0332985Y0177290D01*
X0333637Y0177078D01*
X0334273Y0176977D01*
X0334273Y0180942D01*
X0330308Y0180942D01*
X0330408Y0180311D02*
X0328951Y0180311D01*
X0329013Y0181509D02*
X0334273Y0181509D01*
X0335042Y0181509D02*
X0351577Y0181509D01*
X0351577Y0180311D02*
X0338907Y0180311D01*
X0338418Y0179112D02*
X0351577Y0179112D01*
X0351577Y0177914D02*
X0337370Y0177914D01*
X0335042Y0177914D02*
X0334273Y0177914D01*
X0334273Y0179112D02*
X0335042Y0179112D01*
X0335042Y0180311D02*
X0334273Y0180311D01*
X0334273Y0182708D02*
X0335042Y0182708D01*
X0335042Y0183906D02*
X0334273Y0183906D01*
X0334273Y0185105D02*
X0335042Y0185105D01*
X0336838Y0185105D02*
X0351577Y0185105D01*
X0351577Y0186303D02*
X0067687Y0186303D01*
X0067507Y0187502D02*
X0351577Y0187502D01*
X0351577Y0188700D02*
X0125497Y0188700D01*
X0125951Y0188888D02*
X0124780Y0188403D01*
X0123512Y0188403D01*
X0122340Y0188888D01*
X0121444Y0189785D01*
X0120958Y0190957D01*
X0120958Y0192225D01*
X0121444Y0193396D01*
X0122340Y0194293D01*
X0123512Y0194778D01*
X0124780Y0194778D01*
X0125951Y0194293D01*
X0126848Y0193396D01*
X0127333Y0192225D01*
X0127333Y0190957D01*
X0126848Y0189785D01*
X0125951Y0188888D01*
X0126895Y0189899D02*
X0351577Y0189899D01*
X0351577Y0191097D02*
X0127333Y0191097D01*
X0127304Y0192296D02*
X0283346Y0192296D01*
X0283517Y0192124D02*
X0284906Y0191549D01*
X0286409Y0191549D01*
X0287798Y0192124D01*
X0288860Y0193187D01*
X0289435Y0194575D01*
X0289435Y0196078D01*
X0288860Y0197467D01*
X0287798Y0198530D01*
X0286409Y0199105D01*
X0284906Y0199105D01*
X0283517Y0198530D01*
X0282455Y0197467D01*
X0281880Y0196078D01*
X0281880Y0194575D01*
X0282455Y0193187D01*
X0283517Y0192124D01*
X0282327Y0193494D02*
X0126750Y0193494D01*
X0124985Y0194693D02*
X0281880Y0194693D01*
X0281880Y0195891D02*
X0066458Y0195891D01*
X0067186Y0194693D02*
X0123306Y0194693D01*
X0121542Y0193494D02*
X0067491Y0193494D01*
X0067328Y0192296D02*
X0120988Y0192296D01*
X0120958Y0191097D02*
X0066585Y0191097D01*
X0066740Y0188700D02*
X0122794Y0188700D01*
X0121396Y0189899D02*
X0063128Y0189899D01*
X0061279Y0192296D02*
X0060801Y0192296D01*
X0059144Y0192296D02*
X0009257Y0192296D01*
X0009257Y0193494D02*
X0058837Y0193494D01*
X0057999Y0194693D02*
X0009257Y0194693D01*
X0009257Y0195891D02*
X0057769Y0195891D01*
X0058007Y0197090D02*
X0009257Y0197090D01*
X0009257Y0198288D02*
X0058855Y0198288D01*
X0058133Y0199487D02*
X0009257Y0199487D01*
X0009257Y0200685D02*
X0057769Y0200685D01*
X0057873Y0201884D02*
X0009257Y0201884D01*
X0009257Y0203082D02*
X0058531Y0203082D01*
X0057792Y0204281D02*
X0009257Y0204281D01*
X0009257Y0205479D02*
X0057376Y0205479D01*
X0057426Y0206678D02*
X0009257Y0206678D01*
X0009257Y0207876D02*
X0057840Y0207876D01*
X0057125Y0209075D02*
X0009257Y0209075D01*
X0009257Y0210273D02*
X0056982Y0210273D01*
X0057306Y0211472D02*
X0009257Y0211472D01*
X0009257Y0212670D02*
X0058277Y0212670D01*
X0059114Y0215067D02*
X0009257Y0215067D01*
X0009257Y0213869D02*
X0061115Y0213869D01*
X0063032Y0211472D02*
X0107654Y0211472D01*
X0107774Y0211762D02*
X0107289Y0210591D01*
X0107289Y0209323D01*
X0107774Y0208151D01*
X0108671Y0207255D01*
X0109842Y0206769D01*
X0111110Y0206769D01*
X0112282Y0207255D01*
X0113179Y0208151D01*
X0113664Y0209323D01*
X0113664Y0210591D01*
X0113179Y0211762D01*
X0112282Y0212659D01*
X0111110Y0213144D01*
X0109842Y0213144D01*
X0108671Y0212659D01*
X0107774Y0211762D01*
X0108699Y0212670D02*
X0066308Y0212670D01*
X0067098Y0213869D02*
X0214988Y0213869D01*
X0214817Y0214283D02*
X0215302Y0213112D01*
X0216198Y0212215D01*
X0217370Y0211730D01*
X0218638Y0211730D01*
X0219809Y0212215D01*
X0220706Y0213112D01*
X0221191Y0214283D01*
X0221191Y0215551D01*
X0220706Y0216723D01*
X0220701Y0216728D01*
X0221114Y0216557D01*
X0222382Y0216557D01*
X0223554Y0217042D01*
X0224450Y0217939D01*
X0224935Y0219110D01*
X0224935Y0220378D01*
X0224450Y0221550D01*
X0223554Y0222446D01*
X0222382Y0222931D01*
X0221114Y0222931D01*
X0219943Y0222446D01*
X0219046Y0221550D01*
X0218561Y0220378D01*
X0218561Y0219110D01*
X0219046Y0217939D01*
X0219051Y0217934D01*
X0218638Y0218105D01*
X0217370Y0218105D01*
X0216198Y0217619D01*
X0215302Y0216723D01*
X0214817Y0215551D01*
X0214817Y0214283D01*
X0214817Y0215067D02*
X0067294Y0215067D01*
X0067022Y0216266D02*
X0215113Y0216266D01*
X0216043Y0217465D02*
X0169752Y0217465D01*
X0169319Y0217285D02*
X0170491Y0217770D01*
X0171293Y0218573D01*
X0171988Y0218285D01*
X0173256Y0218285D01*
X0174428Y0218770D01*
X0175324Y0219667D01*
X0175809Y0220838D01*
X0175809Y0222106D01*
X0175324Y0223278D01*
X0174428Y0224175D01*
X0173256Y0224660D01*
X0171988Y0224660D01*
X0170817Y0224175D01*
X0170014Y0223372D01*
X0169319Y0223660D01*
X0168051Y0223660D01*
X0166880Y0223175D01*
X0165983Y0222278D01*
X0165498Y0221106D01*
X0165498Y0219838D01*
X0165983Y0218667D01*
X0166880Y0217770D01*
X0168051Y0217285D01*
X0169319Y0217285D01*
X0167618Y0217465D02*
X0066126Y0217465D01*
X0067276Y0218663D02*
X0143546Y0218663D01*
X0143939Y0218270D02*
X0145110Y0217785D01*
X0146378Y0217785D01*
X0147550Y0218270D01*
X0148446Y0219167D01*
X0148859Y0220164D01*
X0149254Y0219770D01*
X0150425Y0219285D01*
X0151693Y0219285D01*
X0152865Y0219770D01*
X0153761Y0220667D01*
X0154246Y0221838D01*
X0154246Y0223106D01*
X0153761Y0224278D01*
X0152865Y0225175D01*
X0151693Y0225660D01*
X0150425Y0225660D01*
X0149254Y0225175D01*
X0148357Y0224278D01*
X0147944Y0223280D01*
X0147550Y0223675D01*
X0147323Y0223768D01*
X0147993Y0224439D01*
X0148479Y0225610D01*
X0148479Y0226878D01*
X0147993Y0228050D01*
X0147097Y0228946D01*
X0145925Y0229431D01*
X0144657Y0229431D01*
X0143486Y0228946D01*
X0142589Y0228050D01*
X0142104Y0226878D01*
X0142104Y0225610D01*
X0142589Y0224439D01*
X0143486Y0223542D01*
X0143712Y0223448D01*
X0143042Y0222778D01*
X0142557Y0221606D01*
X0142557Y0220338D01*
X0143042Y0219167D01*
X0143939Y0218270D01*
X0142754Y0219862D02*
X0067687Y0219862D01*
X0067632Y0221060D02*
X0142557Y0221060D01*
X0142827Y0222259D02*
X0067040Y0222259D01*
X0065186Y0223457D02*
X0143691Y0223457D01*
X0142499Y0224656D02*
X0064134Y0224656D01*
X0062903Y0225854D02*
X0142104Y0225854D01*
X0142176Y0227053D02*
X0043160Y0227053D01*
X0043160Y0227461D02*
X0042675Y0228632D01*
X0041778Y0229529D01*
X0040698Y0229976D01*
X0041778Y0230424D01*
X0042675Y0231320D01*
X0043160Y0232492D01*
X0043160Y0233760D01*
X0042675Y0234931D01*
X0041778Y0235828D01*
X0040606Y0236313D01*
X0040010Y0236313D01*
X0040010Y0236910D01*
X0039525Y0238081D01*
X0038628Y0238978D01*
X0037457Y0239463D01*
X0036189Y0239463D01*
X0035017Y0238978D01*
X0034121Y0238081D01*
X0033635Y0236910D01*
X0033635Y0235642D01*
X0034121Y0234470D01*
X0035017Y0233573D01*
X0036098Y0233126D01*
X0035017Y0232679D01*
X0034121Y0231782D01*
X0033635Y0230610D01*
X0033635Y0229342D01*
X0034121Y0228171D01*
X0035017Y0227274D01*
X0036189Y0226789D01*
X0036785Y0226789D01*
X0036785Y0226193D01*
X0037270Y0225021D01*
X0038167Y0224125D01*
X0039338Y0223639D01*
X0040606Y0223639D01*
X0041778Y0224125D01*
X0042675Y0225021D01*
X0043160Y0226193D01*
X0043160Y0227461D01*
X0042832Y0228251D02*
X0142791Y0228251D01*
X0146995Y0230887D02*
X0146509Y0232059D01*
X0146509Y0233327D01*
X0146995Y0234498D01*
X0147891Y0235395D01*
X0149063Y0235880D01*
X0150331Y0235880D01*
X0151502Y0235395D01*
X0152399Y0234498D01*
X0152884Y0233327D01*
X0152884Y0232059D01*
X0152399Y0230887D01*
X0151502Y0229991D01*
X0150331Y0229506D01*
X0149063Y0229506D01*
X0147891Y0229991D01*
X0146995Y0230887D01*
X0147234Y0230648D02*
X0042002Y0230648D01*
X0041857Y0229450D02*
X0327192Y0229450D01*
X0326955Y0229687D02*
X0328017Y0228624D01*
X0329406Y0228049D01*
X0330909Y0228049D01*
X0332298Y0228624D01*
X0333360Y0229687D01*
X0333407Y0229801D01*
X0333455Y0229687D01*
X0334517Y0228624D01*
X0335906Y0228049D01*
X0337409Y0228049D01*
X0338798Y0228624D01*
X0339860Y0229687D01*
X0340435Y0231075D01*
X0340435Y0232578D01*
X0339860Y0233967D01*
X0338798Y0235030D01*
X0337409Y0235605D01*
X0335906Y0235605D01*
X0334517Y0235030D01*
X0333455Y0233967D01*
X0333407Y0233853D01*
X0333360Y0233967D01*
X0332298Y0235030D01*
X0330909Y0235605D01*
X0329406Y0235605D01*
X0328017Y0235030D01*
X0326955Y0233967D01*
X0326380Y0232578D01*
X0326380Y0231075D01*
X0326955Y0229687D01*
X0326556Y0230648D02*
X0152160Y0230648D01*
X0152796Y0231847D02*
X0326380Y0231847D01*
X0326573Y0233045D02*
X0152884Y0233045D01*
X0152505Y0234244D02*
X0327232Y0234244D01*
X0329014Y0235442D02*
X0151389Y0235442D01*
X0148005Y0235442D02*
X0042164Y0235442D01*
X0042959Y0234244D02*
X0146889Y0234244D01*
X0146509Y0233045D02*
X0043160Y0233045D01*
X0042893Y0231847D02*
X0146597Y0231847D01*
X0147792Y0228251D02*
X0328918Y0228251D01*
X0331397Y0228251D02*
X0335418Y0228251D01*
X0333692Y0229450D02*
X0333123Y0229450D01*
X0337897Y0228251D02*
X0351577Y0228251D01*
X0351577Y0227053D02*
X0148406Y0227053D01*
X0148479Y0225854D02*
X0351577Y0225854D01*
X0351577Y0224656D02*
X0214940Y0224656D01*
X0214929Y0224660D02*
X0213661Y0224660D01*
X0212490Y0224175D01*
X0211593Y0223278D01*
X0211108Y0222106D01*
X0211108Y0220838D01*
X0211593Y0219667D01*
X0212490Y0218770D01*
X0213661Y0218285D01*
X0214929Y0218285D01*
X0216101Y0218770D01*
X0216997Y0219667D01*
X0217483Y0220838D01*
X0217483Y0222106D01*
X0216997Y0223278D01*
X0216101Y0224175D01*
X0214929Y0224660D01*
X0213651Y0224656D02*
X0204672Y0224656D01*
X0204662Y0224660D02*
X0203394Y0224660D01*
X0202222Y0224175D01*
X0201325Y0223278D01*
X0200840Y0222106D01*
X0200840Y0220838D01*
X0201325Y0219667D01*
X0202222Y0218770D01*
X0203394Y0218285D01*
X0204662Y0218285D01*
X0205833Y0218770D01*
X0206730Y0219667D01*
X0207215Y0220838D01*
X0207215Y0222106D01*
X0206730Y0223278D01*
X0205833Y0224175D01*
X0204662Y0224660D01*
X0203383Y0224656D02*
X0173266Y0224656D01*
X0171978Y0224656D02*
X0153384Y0224656D01*
X0154101Y0223457D02*
X0167561Y0223457D01*
X0165975Y0222259D02*
X0154246Y0222259D01*
X0153924Y0221060D02*
X0165498Y0221060D01*
X0165498Y0219862D02*
X0152956Y0219862D01*
X0149162Y0219862D02*
X0148734Y0219862D01*
X0147942Y0218663D02*
X0165987Y0218663D01*
X0169809Y0223457D02*
X0170099Y0223457D01*
X0175145Y0223457D02*
X0201505Y0223457D01*
X0200903Y0222259D02*
X0175746Y0222259D01*
X0175809Y0221060D02*
X0200840Y0221060D01*
X0201245Y0219862D02*
X0175405Y0219862D01*
X0174169Y0218663D02*
X0202481Y0218663D01*
X0205574Y0218663D02*
X0212749Y0218663D01*
X0211513Y0219862D02*
X0206810Y0219862D01*
X0207215Y0221060D02*
X0211108Y0221060D01*
X0211171Y0222259D02*
X0207152Y0222259D01*
X0206551Y0223457D02*
X0211772Y0223457D01*
X0216818Y0223457D02*
X0351577Y0223457D01*
X0351577Y0222259D02*
X0223741Y0222259D01*
X0224653Y0221060D02*
X0351577Y0221060D01*
X0351577Y0219862D02*
X0224935Y0219862D01*
X0224750Y0218663D02*
X0351577Y0218663D01*
X0351577Y0217465D02*
X0223976Y0217465D01*
X0220895Y0216266D02*
X0351577Y0216266D01*
X0351577Y0215067D02*
X0221191Y0215067D01*
X0221020Y0213869D02*
X0351577Y0213869D01*
X0351577Y0212670D02*
X0220265Y0212670D01*
X0215743Y0212670D02*
X0112254Y0212670D01*
X0113299Y0211472D02*
X0351577Y0211472D01*
X0351577Y0210273D02*
X0113664Y0210273D01*
X0113561Y0209075D02*
X0298563Y0209075D01*
X0299017Y0209530D02*
X0297955Y0208467D01*
X0297380Y0207078D01*
X0297380Y0205575D01*
X0297955Y0204187D01*
X0299017Y0203124D01*
X0300406Y0202549D01*
X0301909Y0202549D01*
X0303298Y0203124D01*
X0304360Y0204187D01*
X0304935Y0205575D01*
X0304935Y0207078D01*
X0304360Y0208467D01*
X0303298Y0209530D01*
X0301909Y0210105D01*
X0300406Y0210105D01*
X0299017Y0209530D01*
X0297710Y0207876D02*
X0263515Y0207876D01*
X0263382Y0207931D02*
X0262114Y0207931D01*
X0260943Y0207446D01*
X0260046Y0206550D01*
X0259561Y0205378D01*
X0259561Y0204110D01*
X0260046Y0202939D01*
X0260943Y0202042D01*
X0262114Y0201557D01*
X0263382Y0201557D01*
X0264554Y0202042D01*
X0265450Y0202939D01*
X0265935Y0204110D01*
X0265935Y0205378D01*
X0265450Y0206550D01*
X0264554Y0207446D01*
X0263382Y0207931D01*
X0261981Y0207876D02*
X0195924Y0207876D01*
X0196069Y0207816D02*
X0194898Y0208302D01*
X0193630Y0208302D01*
X0192458Y0207816D01*
X0191562Y0206920D01*
X0191076Y0205748D01*
X0191076Y0204480D01*
X0191562Y0203309D01*
X0192458Y0202412D01*
X0193630Y0201927D01*
X0194898Y0201927D01*
X0196069Y0202412D01*
X0196966Y0203309D01*
X0197451Y0204480D01*
X0197451Y0205748D01*
X0196966Y0206920D01*
X0196069Y0207816D01*
X0197066Y0206678D02*
X0260174Y0206678D01*
X0259603Y0205479D02*
X0197451Y0205479D01*
X0197369Y0204281D02*
X0259561Y0204281D01*
X0259986Y0203082D02*
X0196740Y0203082D01*
X0191788Y0203082D02*
X0067687Y0203082D01*
X0067651Y0204281D02*
X0191159Y0204281D01*
X0191076Y0205479D02*
X0067087Y0205479D01*
X0067285Y0206678D02*
X0191461Y0206678D01*
X0192603Y0207876D02*
X0112904Y0207876D01*
X0108049Y0207876D02*
X0067687Y0207876D01*
X0067622Y0209075D02*
X0107392Y0209075D01*
X0107289Y0210273D02*
X0067018Y0210273D01*
X0067256Y0201884D02*
X0261324Y0201884D01*
X0264172Y0201884D02*
X0316713Y0201884D01*
X0316955Y0202467D02*
X0316380Y0201078D01*
X0316380Y0199575D01*
X0316955Y0198187D01*
X0318017Y0197124D01*
X0319406Y0196549D01*
X0320909Y0196549D01*
X0322298Y0197124D01*
X0323360Y0198187D01*
X0323935Y0199575D01*
X0323935Y0201078D01*
X0323360Y0202467D01*
X0322298Y0203530D01*
X0320909Y0204105D01*
X0319406Y0204105D01*
X0318017Y0203530D01*
X0316955Y0202467D01*
X0317570Y0203082D02*
X0303197Y0203082D01*
X0304399Y0204281D02*
X0351577Y0204281D01*
X0351577Y0205479D02*
X0304896Y0205479D01*
X0304935Y0206678D02*
X0351577Y0206678D01*
X0351577Y0207876D02*
X0304605Y0207876D01*
X0303752Y0209075D02*
X0351577Y0209075D01*
X0351577Y0203082D02*
X0322745Y0203082D01*
X0323602Y0201884D02*
X0351577Y0201884D01*
X0351577Y0200685D02*
X0323935Y0200685D01*
X0323899Y0199487D02*
X0351577Y0199487D01*
X0351577Y0198288D02*
X0323402Y0198288D01*
X0322215Y0197090D02*
X0351577Y0197090D01*
X0351577Y0195891D02*
X0289435Y0195891D01*
X0289435Y0194693D02*
X0351577Y0194693D01*
X0351577Y0193494D02*
X0288988Y0193494D01*
X0287969Y0192296D02*
X0351577Y0192296D01*
X0351577Y0183906D02*
X0338168Y0183906D01*
X0338789Y0182708D02*
X0351577Y0182708D01*
X0351577Y0171921D02*
X0264367Y0171921D01*
X0265023Y0170723D02*
X0351577Y0170723D01*
X0351577Y0169524D02*
X0265184Y0169524D01*
X0264942Y0168326D02*
X0302887Y0168326D01*
X0302582Y0168199D02*
X0301435Y0167051D01*
X0300813Y0165552D01*
X0300813Y0163929D01*
X0301435Y0162429D01*
X0302582Y0161281D01*
X0304082Y0160660D01*
X0305705Y0160660D01*
X0307205Y0161281D01*
X0308353Y0162429D01*
X0308974Y0163929D01*
X0308974Y0165552D01*
X0308353Y0167051D01*
X0307205Y0168199D01*
X0305705Y0168820D01*
X0304082Y0168820D01*
X0302582Y0168199D01*
X0301510Y0167127D02*
X0264171Y0167127D01*
X0256517Y0165700D02*
X0256517Y0162211D01*
X0253028Y0162211D01*
X0253028Y0162474D01*
X0253166Y0163166D01*
X0253436Y0163817D01*
X0253827Y0164403D01*
X0254325Y0164901D01*
X0254911Y0165293D01*
X0255563Y0165562D01*
X0256254Y0165700D01*
X0256517Y0165700D01*
X0256517Y0164730D02*
X0256695Y0164730D01*
X0256695Y0163531D02*
X0256517Y0163531D01*
X0256517Y0162333D02*
X0256695Y0162333D01*
X0256695Y0161134D02*
X0256517Y0161134D01*
X0256517Y0159936D02*
X0256695Y0159936D01*
X0253764Y0159936D02*
X0249480Y0159936D01*
X0250070Y0161134D02*
X0253155Y0161134D01*
X0253028Y0162333D02*
X0250184Y0162333D01*
X0249895Y0163531D02*
X0253317Y0163531D01*
X0254154Y0164730D02*
X0249058Y0164730D01*
X0250895Y0158200D02*
X0249580Y0157655D01*
X0248573Y0156649D01*
X0248028Y0155334D01*
X0248028Y0153910D01*
X0248573Y0152595D01*
X0249580Y0151589D01*
X0250895Y0151044D01*
X0252318Y0151044D01*
X0253633Y0151589D01*
X0254640Y0152595D01*
X0255184Y0153910D01*
X0255184Y0155334D01*
X0254640Y0156649D01*
X0253633Y0157655D01*
X0252318Y0158200D01*
X0250895Y0158200D01*
X0249463Y0157539D02*
X0243749Y0157539D01*
X0244767Y0156340D02*
X0248445Y0156340D01*
X0248028Y0155142D02*
X0245184Y0155142D01*
X0245184Y0153943D02*
X0248028Y0153943D01*
X0248511Y0152745D02*
X0244701Y0152745D01*
X0243531Y0151546D02*
X0249682Y0151546D01*
X0248168Y0150348D02*
X0255045Y0150348D01*
X0254911Y0150293D02*
X0254325Y0149901D01*
X0253827Y0149403D01*
X0253436Y0148817D01*
X0253166Y0148166D01*
X0253028Y0147474D01*
X0253028Y0147211D01*
X0256517Y0147211D01*
X0256517Y0147033D01*
X0253028Y0147033D01*
X0253028Y0146770D01*
X0253166Y0146078D01*
X0253436Y0145427D01*
X0253827Y0144841D01*
X0254325Y0144343D01*
X0254911Y0143951D01*
X0255563Y0143682D01*
X0256254Y0143544D01*
X0256517Y0143544D01*
X0256517Y0147033D01*
X0256695Y0147033D01*
X0256695Y0143544D01*
X0256959Y0143544D01*
X0257650Y0143682D01*
X0258301Y0143951D01*
X0258887Y0144343D01*
X0259385Y0144841D01*
X0259777Y0145427D01*
X0260047Y0146078D01*
X0260184Y0146770D01*
X0260184Y0147033D01*
X0256695Y0147033D01*
X0256695Y0147211D01*
X0256517Y0147211D01*
X0256517Y0150700D01*
X0256254Y0150700D01*
X0255563Y0150562D01*
X0254911Y0150293D01*
X0256517Y0150348D02*
X0256695Y0150348D01*
X0256695Y0150700D02*
X0256959Y0150700D01*
X0257650Y0150562D01*
X0258301Y0150293D01*
X0258887Y0149901D01*
X0259385Y0149403D01*
X0259777Y0148817D01*
X0260047Y0148166D01*
X0260184Y0147474D01*
X0260184Y0147211D01*
X0256695Y0147211D01*
X0256695Y0150700D01*
X0258168Y0150348D02*
X0285052Y0150348D01*
X0284702Y0151546D02*
X0263531Y0151546D01*
X0263633Y0151589D02*
X0264640Y0152595D01*
X0265184Y0153910D01*
X0265184Y0155334D01*
X0264640Y0156649D01*
X0263633Y0157655D01*
X0262318Y0158200D01*
X0260895Y0158200D01*
X0259580Y0157655D01*
X0258573Y0156649D01*
X0258028Y0155334D01*
X0258028Y0153910D01*
X0258573Y0152595D01*
X0259580Y0151589D01*
X0260895Y0151044D01*
X0262318Y0151044D01*
X0263633Y0151589D01*
X0264701Y0152745D02*
X0284820Y0152745D01*
X0285499Y0153943D02*
X0265184Y0153943D01*
X0265184Y0155142D02*
X0285104Y0155142D01*
X0284702Y0156340D02*
X0264767Y0156340D01*
X0263749Y0157539D02*
X0284767Y0157539D01*
X0290400Y0158737D02*
X0351577Y0158737D01*
X0351577Y0157539D02*
X0291005Y0157539D01*
X0291070Y0156340D02*
X0351577Y0156340D01*
X0351577Y0155142D02*
X0290667Y0155142D01*
X0290272Y0153943D02*
X0351577Y0153943D01*
X0351577Y0152745D02*
X0290952Y0152745D01*
X0291070Y0151546D02*
X0351577Y0151546D01*
X0351863Y0150348D02*
X0290720Y0150348D01*
X0290145Y0149149D02*
X0393758Y0149149D01*
X0393758Y0147951D02*
X0290899Y0147951D01*
X0291070Y0146752D02*
X0393758Y0146752D01*
X0393758Y0145554D02*
X0290773Y0145554D01*
X0290018Y0144355D02*
X0393758Y0144355D01*
X0393758Y0143157D02*
X0290847Y0143157D01*
X0291070Y0141958D02*
X0393758Y0141958D01*
X0393758Y0140760D02*
X0290825Y0140760D01*
X0289966Y0139561D02*
X0393758Y0139561D01*
X0393758Y0166667D02*
X0367462Y0166667D01*
X0367462Y0190165D01*
X0367523Y0190139D01*
X0368791Y0190139D01*
X0369963Y0190625D01*
X0370860Y0191521D01*
X0371345Y0192693D01*
X0371345Y0193961D01*
X0370860Y0195132D01*
X0369963Y0196029D01*
X0368791Y0196514D01*
X0367523Y0196514D01*
X0367462Y0196489D01*
X0367462Y0204863D01*
X0367848Y0205794D01*
X0367848Y0211859D01*
X0367462Y0212791D01*
X0367462Y0335863D01*
X0367848Y0336794D01*
X0367848Y0338132D01*
X0393758Y0338132D01*
X0393758Y0196514D01*
X0392523Y0196514D01*
X0391352Y0196029D01*
X0390455Y0195132D01*
X0389970Y0193961D01*
X0389970Y0192693D01*
X0390455Y0191521D01*
X0391352Y0190625D01*
X0392523Y0190139D01*
X0393758Y0190139D01*
X0393758Y0166667D01*
X0393758Y0167127D02*
X0367462Y0167127D01*
X0367462Y0168326D02*
X0393758Y0168326D01*
X0393758Y0169524D02*
X0367462Y0169524D01*
X0367462Y0170723D02*
X0393758Y0170723D01*
X0393758Y0171921D02*
X0367462Y0171921D01*
X0367462Y0173120D02*
X0393758Y0173120D01*
X0393758Y0174318D02*
X0387917Y0174318D01*
X0387668Y0174069D02*
X0388675Y0175076D01*
X0389220Y0176391D01*
X0389220Y0177814D01*
X0388675Y0179129D01*
X0387668Y0180136D01*
X0386353Y0180680D01*
X0384930Y0180680D01*
X0383615Y0180136D01*
X0383142Y0179662D01*
X0382923Y0179882D01*
X0382337Y0180273D01*
X0381685Y0180543D01*
X0380994Y0180680D01*
X0380731Y0180680D01*
X0380731Y0177191D01*
X0380553Y0177191D01*
X0380553Y0180680D01*
X0380289Y0180680D01*
X0379598Y0180543D01*
X0378947Y0180273D01*
X0378361Y0179882D01*
X0378142Y0179662D01*
X0377668Y0180136D01*
X0376353Y0180680D01*
X0374930Y0180680D01*
X0373615Y0180136D01*
X0372608Y0179129D01*
X0372064Y0177814D01*
X0372064Y0176391D01*
X0372608Y0175076D01*
X0373615Y0174069D01*
X0374930Y0173524D01*
X0376353Y0173524D01*
X0377668Y0174069D01*
X0378142Y0174542D01*
X0378361Y0174323D01*
X0378947Y0173932D01*
X0379598Y0173662D01*
X0380289Y0173524D01*
X0380553Y0173524D01*
X0380553Y0177013D01*
X0380731Y0177013D01*
X0380731Y0173524D01*
X0380994Y0173524D01*
X0381685Y0173662D01*
X0382337Y0173932D01*
X0382923Y0174323D01*
X0383142Y0174542D01*
X0383615Y0174069D01*
X0384930Y0173524D01*
X0386353Y0173524D01*
X0387668Y0174069D01*
X0388858Y0175517D02*
X0393758Y0175517D01*
X0393758Y0176715D02*
X0389220Y0176715D01*
X0389178Y0177914D02*
X0393758Y0177914D01*
X0393758Y0179112D02*
X0388682Y0179112D01*
X0387246Y0180311D02*
X0393758Y0180311D01*
X0393758Y0181509D02*
X0367462Y0181509D01*
X0367462Y0180311D02*
X0374038Y0180311D01*
X0372601Y0179112D02*
X0367462Y0179112D01*
X0367462Y0177914D02*
X0372105Y0177914D01*
X0372064Y0176715D02*
X0367462Y0176715D01*
X0367462Y0175517D02*
X0372426Y0175517D01*
X0373366Y0174318D02*
X0367462Y0174318D01*
X0377246Y0180311D02*
X0379038Y0180311D01*
X0380553Y0180311D02*
X0380731Y0180311D01*
X0380731Y0179112D02*
X0380553Y0179112D01*
X0380553Y0177914D02*
X0380731Y0177914D01*
X0380731Y0176715D02*
X0380553Y0176715D01*
X0380553Y0175517D02*
X0380731Y0175517D01*
X0380731Y0174318D02*
X0380553Y0174318D01*
X0378369Y0174318D02*
X0377917Y0174318D01*
X0382915Y0174318D02*
X0383366Y0174318D01*
X0384038Y0180311D02*
X0382246Y0180311D01*
X0393758Y0182708D02*
X0367462Y0182708D01*
X0367462Y0183906D02*
X0393758Y0183906D01*
X0393758Y0185105D02*
X0367462Y0185105D01*
X0367462Y0186303D02*
X0393758Y0186303D01*
X0393758Y0187502D02*
X0367462Y0187502D01*
X0367462Y0188700D02*
X0393758Y0188700D01*
X0393758Y0189899D02*
X0367462Y0189899D01*
X0370436Y0191097D02*
X0390879Y0191097D01*
X0390135Y0192296D02*
X0371180Y0192296D01*
X0371345Y0193494D02*
X0389970Y0193494D01*
X0390273Y0194693D02*
X0371042Y0194693D01*
X0370101Y0195891D02*
X0391214Y0195891D01*
X0393758Y0197090D02*
X0367462Y0197090D01*
X0367462Y0198288D02*
X0393758Y0198288D01*
X0393758Y0199487D02*
X0367462Y0199487D01*
X0367462Y0200685D02*
X0393758Y0200685D01*
X0393758Y0201884D02*
X0382854Y0201884D01*
X0382077Y0201676D02*
X0384849Y0202418D01*
X0387334Y0203853D01*
X0389363Y0205883D01*
X0390798Y0208368D01*
X0391541Y0211140D01*
X0391541Y0214010D01*
X0390798Y0216782D01*
X0389363Y0219267D01*
X0387334Y0221296D01*
X0384849Y0222731D01*
X0382077Y0223474D01*
X0379207Y0223474D01*
X0376435Y0222731D01*
X0373949Y0221296D01*
X0371920Y0219267D01*
X0370485Y0216782D01*
X0369743Y0214010D01*
X0369743Y0211140D01*
X0370485Y0208368D01*
X0371920Y0205883D01*
X0373949Y0203853D01*
X0376435Y0202418D01*
X0379207Y0201676D01*
X0382077Y0201676D01*
X0378430Y0201884D02*
X0367462Y0201884D01*
X0367462Y0203082D02*
X0375285Y0203082D01*
X0373522Y0204281D02*
X0367462Y0204281D01*
X0367718Y0205479D02*
X0372323Y0205479D01*
X0371461Y0206678D02*
X0367848Y0206678D01*
X0367848Y0207876D02*
X0370769Y0207876D01*
X0370296Y0209075D02*
X0367848Y0209075D01*
X0367848Y0210273D02*
X0369975Y0210273D01*
X0369743Y0211472D02*
X0367848Y0211472D01*
X0367512Y0212670D02*
X0369743Y0212670D01*
X0369743Y0213869D02*
X0367462Y0213869D01*
X0367462Y0215067D02*
X0370026Y0215067D01*
X0370347Y0216266D02*
X0367462Y0216266D01*
X0367462Y0217465D02*
X0370879Y0217465D01*
X0371571Y0218663D02*
X0367462Y0218663D01*
X0367462Y0219862D02*
X0372515Y0219862D01*
X0373713Y0221060D02*
X0367462Y0221060D01*
X0367462Y0222259D02*
X0375616Y0222259D01*
X0379144Y0223457D02*
X0367462Y0223457D01*
X0367462Y0224656D02*
X0393758Y0224656D01*
X0393758Y0225854D02*
X0367462Y0225854D01*
X0367462Y0227053D02*
X0393758Y0227053D01*
X0393758Y0228251D02*
X0367462Y0228251D01*
X0367462Y0229450D02*
X0393758Y0229450D01*
X0393758Y0230648D02*
X0367462Y0230648D01*
X0367462Y0231847D02*
X0393758Y0231847D01*
X0393758Y0233045D02*
X0367462Y0233045D01*
X0367462Y0234244D02*
X0393758Y0234244D01*
X0393758Y0235442D02*
X0367462Y0235442D01*
X0367462Y0236641D02*
X0393758Y0236641D01*
X0393758Y0237839D02*
X0367462Y0237839D01*
X0367462Y0239038D02*
X0393758Y0239038D01*
X0393758Y0240236D02*
X0367462Y0240236D01*
X0367462Y0241435D02*
X0393758Y0241435D01*
X0393758Y0242633D02*
X0367462Y0242633D01*
X0367462Y0243832D02*
X0393758Y0243832D01*
X0393758Y0245030D02*
X0367462Y0245030D01*
X0367462Y0246229D02*
X0393758Y0246229D01*
X0393758Y0247427D02*
X0367462Y0247427D01*
X0367462Y0248626D02*
X0374283Y0248626D01*
X0374885Y0248376D02*
X0376399Y0248376D01*
X0377797Y0248956D01*
X0378867Y0250026D01*
X0379446Y0251424D01*
X0379446Y0252938D01*
X0378867Y0254336D01*
X0377797Y0255407D01*
X0376399Y0255986D01*
X0374885Y0255986D01*
X0373487Y0255407D01*
X0372416Y0254336D01*
X0371837Y0252938D01*
X0371837Y0251424D01*
X0372416Y0250026D01*
X0373487Y0248956D01*
X0374885Y0248376D01*
X0377001Y0248626D02*
X0384283Y0248626D01*
X0384532Y0248523D02*
X0385267Y0248376D01*
X0385454Y0248376D01*
X0385454Y0251994D01*
X0381837Y0251994D01*
X0381837Y0251806D01*
X0381983Y0251071D01*
X0382270Y0250379D01*
X0382686Y0249756D01*
X0383216Y0249226D01*
X0383840Y0248809D01*
X0384532Y0248523D01*
X0385454Y0248626D02*
X0385829Y0248626D01*
X0385829Y0248376D02*
X0386016Y0248376D01*
X0386752Y0248523D01*
X0387444Y0248809D01*
X0388067Y0249226D01*
X0388597Y0249756D01*
X0389013Y0250379D01*
X0389300Y0251071D01*
X0389446Y0251806D01*
X0389446Y0251994D01*
X0385829Y0251994D01*
X0385829Y0252369D01*
X0385454Y0252369D01*
X0385454Y0255986D01*
X0385267Y0255986D01*
X0384532Y0255840D01*
X0383840Y0255553D01*
X0383216Y0255136D01*
X0382686Y0254606D01*
X0382270Y0253983D01*
X0381983Y0253291D01*
X0381837Y0252556D01*
X0381837Y0252369D01*
X0385454Y0252369D01*
X0385454Y0251994D01*
X0385829Y0251994D01*
X0385829Y0248376D01*
X0387001Y0248626D02*
X0393758Y0248626D01*
X0393758Y0249824D02*
X0388643Y0249824D01*
X0389280Y0251023D02*
X0393758Y0251023D01*
X0393758Y0252221D02*
X0385829Y0252221D01*
X0385829Y0252369D02*
X0389446Y0252369D01*
X0389446Y0252556D01*
X0389300Y0253291D01*
X0389013Y0253983D01*
X0388597Y0254606D01*
X0388067Y0255136D01*
X0387444Y0255553D01*
X0386752Y0255840D01*
X0386016Y0255986D01*
X0385829Y0255986D01*
X0385829Y0252369D01*
X0385454Y0252221D02*
X0379446Y0252221D01*
X0379280Y0251023D02*
X0382003Y0251023D01*
X0382641Y0249824D02*
X0378666Y0249824D01*
X0379247Y0253420D02*
X0382037Y0253420D01*
X0382698Y0254618D02*
X0378585Y0254618D01*
X0376806Y0255817D02*
X0384477Y0255817D01*
X0385454Y0255817D02*
X0385829Y0255817D01*
X0386806Y0255817D02*
X0393758Y0255817D01*
X0393758Y0257015D02*
X0367462Y0257015D01*
X0367462Y0255817D02*
X0374477Y0255817D01*
X0372698Y0254618D02*
X0367462Y0254618D01*
X0367462Y0253420D02*
X0372037Y0253420D01*
X0371837Y0252221D02*
X0367462Y0252221D01*
X0367462Y0251023D02*
X0372003Y0251023D01*
X0372618Y0249824D02*
X0367462Y0249824D01*
X0367462Y0258214D02*
X0393758Y0258214D01*
X0393758Y0259412D02*
X0367462Y0259412D01*
X0367462Y0260611D02*
X0393758Y0260611D01*
X0393758Y0261809D02*
X0367462Y0261809D01*
X0367462Y0263008D02*
X0393758Y0263008D01*
X0393758Y0264206D02*
X0367462Y0264206D01*
X0367462Y0265405D02*
X0393758Y0265405D01*
X0393758Y0266603D02*
X0367462Y0266603D01*
X0367462Y0267802D02*
X0393758Y0267802D01*
X0393758Y0269000D02*
X0367462Y0269000D01*
X0367462Y0270199D02*
X0393758Y0270199D01*
X0393758Y0271398D02*
X0367462Y0271398D01*
X0367462Y0272596D02*
X0393758Y0272596D01*
X0393758Y0273795D02*
X0367462Y0273795D01*
X0367462Y0274993D02*
X0393758Y0274993D01*
X0393758Y0276192D02*
X0392581Y0276192D01*
X0392288Y0275899D02*
X0393184Y0276795D01*
X0393668Y0277965D01*
X0393668Y0279232D01*
X0393184Y0280402D01*
X0392288Y0281298D01*
X0391118Y0281783D01*
X0389851Y0281783D01*
X0388681Y0281298D01*
X0388024Y0280641D01*
X0387367Y0281298D01*
X0386196Y0281783D01*
X0384930Y0281783D01*
X0383759Y0281298D01*
X0383102Y0280641D01*
X0382445Y0281298D01*
X0381275Y0281783D01*
X0380008Y0281783D01*
X0378838Y0281298D01*
X0378181Y0280641D01*
X0377524Y0281298D01*
X0376354Y0281783D01*
X0375087Y0281783D01*
X0373917Y0281298D01*
X0373260Y0280641D01*
X0372829Y0281072D01*
X0372308Y0281420D01*
X0371728Y0281660D01*
X0371113Y0281783D01*
X0370799Y0281783D01*
X0370486Y0281783D01*
X0369870Y0281660D01*
X0369291Y0281420D01*
X0368769Y0281072D01*
X0368326Y0280628D01*
X0367977Y0280107D01*
X0367737Y0279527D01*
X0367615Y0278912D01*
X0367615Y0278598D01*
X0367615Y0278285D01*
X0367737Y0277670D01*
X0367977Y0277090D01*
X0368326Y0276569D01*
X0368769Y0276125D01*
X0369291Y0275777D01*
X0369870Y0275537D01*
X0370486Y0275414D01*
X0370799Y0275414D01*
X0370799Y0278598D01*
X0370799Y0278598D01*
X0367615Y0278598D01*
X0370799Y0278598D01*
X0370799Y0278598D01*
X0370799Y0275414D01*
X0371113Y0275414D01*
X0371728Y0275537D01*
X0372308Y0275777D01*
X0372829Y0276125D01*
X0373260Y0276556D01*
X0373917Y0275899D01*
X0375087Y0275414D01*
X0376354Y0275414D01*
X0377524Y0275899D01*
X0378181Y0276556D01*
X0378838Y0275899D01*
X0380008Y0275414D01*
X0381275Y0275414D01*
X0382445Y0275899D01*
X0383102Y0276556D01*
X0383759Y0275899D01*
X0384930Y0275414D01*
X0386196Y0275414D01*
X0387367Y0275899D01*
X0388024Y0276556D01*
X0388681Y0275899D01*
X0389851Y0275414D01*
X0391118Y0275414D01*
X0392288Y0275899D01*
X0393430Y0277390D02*
X0393758Y0277390D01*
X0393758Y0278589D02*
X0393668Y0278589D01*
X0393758Y0279787D02*
X0393438Y0279787D01*
X0393758Y0280986D02*
X0392600Y0280986D01*
X0393758Y0282184D02*
X0367462Y0282184D01*
X0367462Y0280986D02*
X0368683Y0280986D01*
X0367845Y0279787D02*
X0367462Y0279787D01*
X0367462Y0278589D02*
X0367615Y0278589D01*
X0367462Y0277390D02*
X0367853Y0277390D01*
X0367462Y0276192D02*
X0368703Y0276192D01*
X0370799Y0276192D02*
X0370799Y0276192D01*
X0370799Y0277390D02*
X0370799Y0277390D01*
X0370799Y0278589D02*
X0370799Y0278589D01*
X0370799Y0278599D02*
X0370799Y0281783D01*
X0370799Y0278599D01*
X0370799Y0278599D01*
X0370799Y0279787D02*
X0370799Y0279787D01*
X0370799Y0280986D02*
X0370799Y0280986D01*
X0372915Y0280986D02*
X0373604Y0280986D01*
X0377836Y0280986D02*
X0378526Y0280986D01*
X0382758Y0280986D02*
X0383447Y0280986D01*
X0387679Y0280986D02*
X0388368Y0280986D01*
X0388388Y0276192D02*
X0387659Y0276192D01*
X0383467Y0276192D02*
X0382738Y0276192D01*
X0378545Y0276192D02*
X0377817Y0276192D01*
X0373624Y0276192D02*
X0372896Y0276192D01*
X0367462Y0283383D02*
X0393758Y0283383D01*
X0393758Y0284581D02*
X0367462Y0284581D01*
X0367462Y0285780D02*
X0393758Y0285780D01*
X0393758Y0286978D02*
X0367462Y0286978D01*
X0367462Y0288177D02*
X0393758Y0288177D01*
X0393758Y0289375D02*
X0367462Y0289375D01*
X0367462Y0290574D02*
X0393758Y0290574D01*
X0393758Y0291772D02*
X0367462Y0291772D01*
X0367462Y0292971D02*
X0393758Y0292971D01*
X0393758Y0294169D02*
X0367462Y0294169D01*
X0367462Y0295368D02*
X0393758Y0295368D01*
X0393758Y0296566D02*
X0367462Y0296566D01*
X0367462Y0297765D02*
X0393758Y0297765D01*
X0393758Y0298963D02*
X0367462Y0298963D01*
X0367462Y0300162D02*
X0393758Y0300162D01*
X0393758Y0301360D02*
X0367462Y0301360D01*
X0367462Y0302559D02*
X0393758Y0302559D01*
X0393758Y0303757D02*
X0367462Y0303757D01*
X0367462Y0304956D02*
X0393758Y0304956D01*
X0393758Y0306154D02*
X0367462Y0306154D01*
X0367462Y0307353D02*
X0393758Y0307353D01*
X0393758Y0308551D02*
X0367462Y0308551D01*
X0367462Y0309750D02*
X0393758Y0309750D01*
X0393758Y0310948D02*
X0367462Y0310948D01*
X0367462Y0312147D02*
X0393758Y0312147D01*
X0393758Y0313345D02*
X0367462Y0313345D01*
X0367462Y0314544D02*
X0393758Y0314544D01*
X0393758Y0315742D02*
X0367462Y0315742D01*
X0367462Y0316941D02*
X0393758Y0316941D01*
X0393758Y0318139D02*
X0367462Y0318139D01*
X0367462Y0319338D02*
X0393758Y0319338D01*
X0393758Y0320536D02*
X0367462Y0320536D01*
X0367462Y0321735D02*
X0393758Y0321735D01*
X0393758Y0322934D02*
X0367462Y0322934D01*
X0367462Y0324132D02*
X0373389Y0324132D01*
X0373487Y0324034D02*
X0372416Y0325105D01*
X0371837Y0326503D01*
X0371837Y0328017D01*
X0372416Y0329415D01*
X0373487Y0330485D01*
X0374885Y0331065D01*
X0376399Y0331065D01*
X0377797Y0330485D01*
X0378867Y0329415D01*
X0379446Y0328017D01*
X0379446Y0326503D01*
X0378867Y0325105D01*
X0377797Y0324034D01*
X0376399Y0323455D01*
X0374885Y0323455D01*
X0373487Y0324034D01*
X0372323Y0325331D02*
X0367462Y0325331D01*
X0367462Y0326529D02*
X0371837Y0326529D01*
X0371837Y0327728D02*
X0367462Y0327728D01*
X0367462Y0328926D02*
X0372214Y0328926D01*
X0373126Y0330125D02*
X0367462Y0330125D01*
X0367462Y0331323D02*
X0393758Y0331323D01*
X0393758Y0330125D02*
X0388158Y0330125D01*
X0388067Y0330215D02*
X0387444Y0330632D01*
X0386752Y0330918D01*
X0386016Y0331065D01*
X0385829Y0331065D01*
X0385829Y0327447D01*
X0389446Y0327447D01*
X0389446Y0327635D01*
X0389300Y0328370D01*
X0389013Y0329062D01*
X0388597Y0329685D01*
X0388067Y0330215D01*
X0389070Y0328926D02*
X0393758Y0328926D01*
X0393758Y0327728D02*
X0389428Y0327728D01*
X0389446Y0327072D02*
X0385829Y0327072D01*
X0385829Y0323455D01*
X0386016Y0323455D01*
X0386752Y0323601D01*
X0387444Y0323888D01*
X0388067Y0324305D01*
X0388597Y0324834D01*
X0389013Y0325458D01*
X0389300Y0326150D01*
X0389446Y0326885D01*
X0389446Y0327072D01*
X0389376Y0326529D02*
X0393758Y0326529D01*
X0393758Y0325331D02*
X0388928Y0325331D01*
X0387809Y0324132D02*
X0393758Y0324132D01*
X0385829Y0324132D02*
X0385454Y0324132D01*
X0385454Y0323455D02*
X0385454Y0327072D01*
X0385829Y0327072D01*
X0385829Y0327447D01*
X0385454Y0327447D01*
X0385454Y0327072D01*
X0381837Y0327072D01*
X0381837Y0326885D01*
X0381983Y0326150D01*
X0382270Y0325458D01*
X0382686Y0324834D01*
X0383216Y0324305D01*
X0383840Y0323888D01*
X0384532Y0323601D01*
X0385267Y0323455D01*
X0385454Y0323455D01*
X0385454Y0325331D02*
X0385829Y0325331D01*
X0385829Y0326529D02*
X0385454Y0326529D01*
X0385454Y0327447D02*
X0381837Y0327447D01*
X0381837Y0327635D01*
X0381983Y0328370D01*
X0382270Y0329062D01*
X0382686Y0329685D01*
X0383216Y0330215D01*
X0383840Y0330632D01*
X0384532Y0330918D01*
X0385267Y0331065D01*
X0385454Y0331065D01*
X0385454Y0327447D01*
X0385454Y0327728D02*
X0385829Y0327728D01*
X0385829Y0328926D02*
X0385454Y0328926D01*
X0385454Y0330125D02*
X0385829Y0330125D01*
X0383126Y0330125D02*
X0378158Y0330125D01*
X0379070Y0328926D02*
X0382214Y0328926D01*
X0381856Y0327728D02*
X0379446Y0327728D01*
X0379446Y0326529D02*
X0381908Y0326529D01*
X0382355Y0325331D02*
X0378961Y0325331D01*
X0377895Y0324132D02*
X0383475Y0324132D01*
X0393758Y0332522D02*
X0367462Y0332522D01*
X0367462Y0333720D02*
X0393758Y0333720D01*
X0393758Y0334919D02*
X0367462Y0334919D01*
X0367568Y0336117D02*
X0393758Y0336117D01*
X0393758Y0337316D02*
X0367848Y0337316D01*
X0351577Y0337316D02*
X0228676Y0337316D01*
X0228463Y0337529D02*
X0227291Y0338014D01*
X0226023Y0338014D01*
X0224852Y0337529D01*
X0223955Y0336632D01*
X0223470Y0335461D01*
X0223470Y0334193D01*
X0223955Y0333021D01*
X0224852Y0332125D01*
X0226023Y0331639D01*
X0227291Y0331639D01*
X0228463Y0332125D01*
X0229360Y0333021D01*
X0229845Y0334193D01*
X0229845Y0335461D01*
X0229360Y0336632D01*
X0228463Y0337529D01*
X0229573Y0336117D02*
X0351577Y0336117D01*
X0351577Y0334919D02*
X0229845Y0334919D01*
X0229649Y0333720D02*
X0351577Y0333720D01*
X0351577Y0332522D02*
X0228860Y0332522D01*
X0224455Y0332522D02*
X0122763Y0332522D01*
X0123961Y0333720D02*
X0223666Y0333720D01*
X0223470Y0334919D02*
X0124539Y0334919D01*
X0124897Y0336117D02*
X0223742Y0336117D01*
X0224639Y0337316D02*
X0124897Y0337316D01*
X0116552Y0332522D02*
X0109845Y0332522D01*
X0109845Y0332193D02*
X0109360Y0331021D01*
X0108463Y0330125D01*
X0107291Y0329639D01*
X0106023Y0329639D01*
X0104852Y0330125D01*
X0103955Y0331021D01*
X0103470Y0332193D01*
X0103470Y0333461D01*
X0103955Y0334632D01*
X0104852Y0335529D01*
X0106023Y0336014D01*
X0107291Y0336014D01*
X0108463Y0335529D01*
X0109360Y0334632D01*
X0109845Y0333461D01*
X0109845Y0332193D01*
X0109485Y0331323D02*
X0256589Y0331323D01*
X0256629Y0331363D02*
X0255622Y0330355D01*
X0255076Y0329039D01*
X0255076Y0327614D01*
X0255622Y0326298D01*
X0256629Y0325291D01*
X0257945Y0324746D01*
X0259370Y0324746D01*
X0260686Y0325291D01*
X0261693Y0326298D01*
X0262239Y0327614D01*
X0262239Y0329039D01*
X0261693Y0330355D01*
X0260686Y0331363D01*
X0259370Y0331908D01*
X0257945Y0331908D01*
X0256629Y0331363D01*
X0255526Y0330125D02*
X0108463Y0330125D01*
X0104852Y0330125D02*
X0067687Y0330125D01*
X0067687Y0329657D02*
X0067687Y0330925D01*
X0067202Y0332097D01*
X0066306Y0332993D01*
X0065134Y0333479D01*
X0063866Y0333479D01*
X0062694Y0332993D01*
X0061798Y0332097D01*
X0061313Y0330925D01*
X0061313Y0329657D01*
X0061798Y0328486D01*
X0062694Y0327589D01*
X0063300Y0327339D01*
X0062694Y0327088D01*
X0061798Y0326191D01*
X0061313Y0325020D01*
X0061313Y0324424D01*
X0060716Y0324424D01*
X0059545Y0323938D01*
X0058648Y0323042D01*
X0058163Y0321870D01*
X0058163Y0320602D01*
X0058648Y0319431D01*
X0059545Y0318534D01*
X0059675Y0318480D01*
X0059545Y0318427D01*
X0058648Y0317530D01*
X0058163Y0316358D01*
X0058163Y0315090D01*
X0058648Y0313919D01*
X0059205Y0313362D01*
X0058648Y0312806D01*
X0058163Y0311634D01*
X0058163Y0310366D01*
X0058648Y0309194D01*
X0059545Y0308298D01*
X0059675Y0308244D01*
X0059545Y0308190D01*
X0058648Y0307294D01*
X0058163Y0306122D01*
X0058163Y0304854D01*
X0058648Y0303683D01*
X0059545Y0302786D01*
X0060150Y0302535D01*
X0059545Y0302285D01*
X0058648Y0301388D01*
X0058163Y0300217D01*
X0058163Y0298949D01*
X0058648Y0297777D01*
X0059545Y0296881D01*
X0060150Y0296630D01*
X0059545Y0296379D01*
X0058648Y0295483D01*
X0058163Y0294311D01*
X0058163Y0293043D01*
X0058648Y0291872D01*
X0059545Y0290975D01*
X0060716Y0290490D01*
X0061984Y0290490D01*
X0063156Y0290975D01*
X0064053Y0291872D01*
X0064538Y0293043D01*
X0064538Y0293639D01*
X0065134Y0293639D01*
X0066306Y0294125D01*
X0067202Y0295021D01*
X0067687Y0296193D01*
X0067687Y0297461D01*
X0067202Y0298632D01*
X0066306Y0299529D01*
X0065700Y0299780D01*
X0066306Y0300030D01*
X0067202Y0300927D01*
X0067687Y0302098D01*
X0067687Y0303366D01*
X0067202Y0304538D01*
X0066306Y0305434D01*
X0066176Y0305488D01*
X0066306Y0305542D01*
X0067202Y0306439D01*
X0067687Y0307610D01*
X0067687Y0308878D01*
X0067202Y0310050D01*
X0066449Y0310803D01*
X0067202Y0311557D01*
X0067687Y0312728D01*
X0067687Y0313996D01*
X0067202Y0315168D01*
X0066449Y0315921D01*
X0067202Y0316675D01*
X0067687Y0317846D01*
X0067687Y0319114D01*
X0067202Y0320286D01*
X0066306Y0321182D01*
X0065700Y0321433D01*
X0066306Y0321684D01*
X0067202Y0322580D01*
X0067687Y0323752D01*
X0067687Y0325020D01*
X0067202Y0326191D01*
X0066306Y0327088D01*
X0065700Y0327339D01*
X0066306Y0327589D01*
X0067202Y0328486D01*
X0067687Y0329657D01*
X0067384Y0328926D02*
X0239311Y0328926D01*
X0239523Y0329014D02*
X0238352Y0328529D01*
X0237455Y0327632D01*
X0236970Y0326461D01*
X0236970Y0325193D01*
X0237455Y0324021D01*
X0238352Y0323125D01*
X0238773Y0322950D01*
X0238455Y0322632D01*
X0237970Y0321461D01*
X0237970Y0320193D01*
X0238455Y0319021D01*
X0239352Y0318125D01*
X0240523Y0317639D01*
X0241791Y0317639D01*
X0242963Y0318125D01*
X0243860Y0319021D01*
X0244345Y0320193D01*
X0244345Y0321461D01*
X0243860Y0322632D01*
X0242963Y0323529D01*
X0242542Y0323703D01*
X0242860Y0324021D01*
X0243345Y0325193D01*
X0243345Y0326461D01*
X0242860Y0327632D01*
X0241963Y0328529D01*
X0240791Y0329014D01*
X0239523Y0329014D01*
X0241004Y0328926D02*
X0255076Y0328926D01*
X0255076Y0327728D02*
X0242764Y0327728D01*
X0243317Y0326529D02*
X0255526Y0326529D01*
X0256589Y0325331D02*
X0243345Y0325331D01*
X0242905Y0324132D02*
X0324576Y0324132D01*
X0324576Y0324539D02*
X0324576Y0323114D01*
X0325122Y0321798D01*
X0326129Y0320791D01*
X0327445Y0320246D01*
X0328870Y0320246D01*
X0330186Y0320791D01*
X0331193Y0321798D01*
X0331739Y0323114D01*
X0331739Y0324539D01*
X0331193Y0325855D01*
X0330186Y0326863D01*
X0328870Y0327408D01*
X0327445Y0327408D01*
X0326129Y0326863D01*
X0325122Y0325855D01*
X0324576Y0324539D01*
X0324904Y0325331D02*
X0286842Y0325331D01*
X0286554Y0325042D02*
X0287450Y0325939D01*
X0287935Y0327110D01*
X0287935Y0328378D01*
X0287450Y0329550D01*
X0286554Y0330446D01*
X0285382Y0330931D01*
X0284114Y0330931D01*
X0282943Y0330446D01*
X0282046Y0329550D01*
X0281561Y0328378D01*
X0281561Y0327110D01*
X0282046Y0325939D01*
X0282943Y0325042D01*
X0284114Y0324557D01*
X0285382Y0324557D01*
X0286554Y0325042D01*
X0287695Y0326529D02*
X0325795Y0326529D01*
X0324651Y0322934D02*
X0243558Y0322934D01*
X0244231Y0321735D02*
X0325185Y0321735D01*
X0326743Y0320536D02*
X0244345Y0320536D01*
X0243991Y0319338D02*
X0351577Y0319338D01*
X0351577Y0320536D02*
X0329572Y0320536D01*
X0331130Y0321735D02*
X0351577Y0321735D01*
X0351577Y0322934D02*
X0331664Y0322934D01*
X0331739Y0324132D02*
X0351577Y0324132D01*
X0351577Y0325331D02*
X0331411Y0325331D01*
X0330520Y0326529D02*
X0351577Y0326529D01*
X0351577Y0327728D02*
X0287935Y0327728D01*
X0287708Y0328926D02*
X0351577Y0328926D01*
X0351577Y0330125D02*
X0286875Y0330125D01*
X0282621Y0330125D02*
X0261789Y0330125D01*
X0262239Y0328926D02*
X0281788Y0328926D01*
X0281561Y0327728D02*
X0262239Y0327728D01*
X0261789Y0326529D02*
X0281801Y0326529D01*
X0282654Y0325331D02*
X0260726Y0325331D01*
X0260726Y0331323D02*
X0351577Y0331323D01*
X0351577Y0318139D02*
X0242978Y0318139D01*
X0239337Y0318139D02*
X0067687Y0318139D01*
X0067595Y0319338D02*
X0238324Y0319338D01*
X0237970Y0320536D02*
X0096221Y0320536D01*
X0096030Y0320345D02*
X0096927Y0321242D01*
X0097412Y0322413D01*
X0097412Y0323681D01*
X0096927Y0324853D01*
X0096030Y0325749D01*
X0094858Y0326235D01*
X0093590Y0326235D01*
X0092419Y0325749D01*
X0091522Y0324853D01*
X0091037Y0323681D01*
X0091037Y0322413D01*
X0091522Y0321242D01*
X0092419Y0320345D01*
X0093590Y0319860D01*
X0094858Y0319860D01*
X0096030Y0320345D01*
X0097131Y0321735D02*
X0238084Y0321735D01*
X0238757Y0322934D02*
X0097412Y0322934D01*
X0097225Y0324132D02*
X0237409Y0324132D01*
X0236970Y0325331D02*
X0096449Y0325331D01*
X0092000Y0325331D02*
X0077354Y0325331D01*
X0076935Y0325749D02*
X0075764Y0326235D01*
X0074496Y0326235D01*
X0073324Y0325749D01*
X0072428Y0324853D01*
X0071943Y0323681D01*
X0071943Y0322413D01*
X0072428Y0321242D01*
X0073324Y0320345D01*
X0074496Y0319860D01*
X0075764Y0319860D01*
X0076935Y0320345D01*
X0077832Y0321242D01*
X0078317Y0322413D01*
X0078317Y0323681D01*
X0077832Y0324853D01*
X0076935Y0325749D01*
X0078131Y0324132D02*
X0091224Y0324132D01*
X0091037Y0322934D02*
X0078317Y0322934D01*
X0078036Y0321735D02*
X0091318Y0321735D01*
X0092227Y0320536D02*
X0077127Y0320536D01*
X0073133Y0320536D02*
X0066951Y0320536D01*
X0066357Y0321735D02*
X0072223Y0321735D01*
X0071943Y0322934D02*
X0067348Y0322934D01*
X0067687Y0324132D02*
X0072129Y0324132D01*
X0072906Y0325331D02*
X0067559Y0325331D01*
X0066864Y0326529D02*
X0236998Y0326529D01*
X0237551Y0327728D02*
X0066444Y0327728D01*
X0067523Y0331323D02*
X0103830Y0331323D01*
X0103470Y0332522D02*
X0066777Y0332522D01*
X0062223Y0332522D02*
X0052763Y0332522D01*
X0053961Y0333720D02*
X0103577Y0333720D01*
X0104242Y0334919D02*
X0054539Y0334919D01*
X0054897Y0336117D02*
X0114417Y0336117D01*
X0114417Y0337316D02*
X0054897Y0337316D01*
X0061477Y0331323D02*
X0009257Y0331323D01*
X0009257Y0330125D02*
X0061313Y0330125D01*
X0061615Y0328926D02*
X0009257Y0328926D01*
X0009257Y0327728D02*
X0062556Y0327728D01*
X0062136Y0326529D02*
X0009257Y0326529D01*
X0009257Y0325331D02*
X0061441Y0325331D01*
X0060012Y0324132D02*
X0009257Y0324132D01*
X0009257Y0322934D02*
X0058603Y0322934D01*
X0058163Y0321735D02*
X0009257Y0321735D01*
X0009257Y0320536D02*
X0058190Y0320536D01*
X0058741Y0319338D02*
X0009257Y0319338D01*
X0009257Y0318139D02*
X0059258Y0318139D01*
X0058404Y0316941D02*
X0009257Y0316941D01*
X0009257Y0315742D02*
X0058163Y0315742D01*
X0058389Y0314544D02*
X0009257Y0314544D01*
X0009257Y0313345D02*
X0059188Y0313345D01*
X0058375Y0312147D02*
X0009257Y0312147D01*
X0009257Y0310948D02*
X0058163Y0310948D01*
X0058418Y0309750D02*
X0009257Y0309750D01*
X0009257Y0308551D02*
X0059291Y0308551D01*
X0058707Y0307353D02*
X0009257Y0307353D01*
X0009257Y0306154D02*
X0058176Y0306154D01*
X0058163Y0304956D02*
X0009257Y0304956D01*
X0009257Y0303757D02*
X0058617Y0303757D01*
X0060093Y0302559D02*
X0009257Y0302559D01*
X0009257Y0301360D02*
X0058637Y0301360D01*
X0058163Y0300162D02*
X0009257Y0300162D01*
X0009257Y0298963D02*
X0058163Y0298963D01*
X0058661Y0297765D02*
X0009257Y0297765D01*
X0009257Y0296566D02*
X0037685Y0296566D01*
X0038088Y0296970D02*
X0037192Y0296073D01*
X0036706Y0294902D01*
X0036706Y0293634D01*
X0037192Y0292462D01*
X0038088Y0291566D01*
X0039260Y0291080D01*
X0040528Y0291080D01*
X0041699Y0291566D01*
X0042596Y0292462D01*
X0043081Y0293634D01*
X0043081Y0294902D01*
X0042596Y0296073D01*
X0041699Y0296970D01*
X0040528Y0297455D01*
X0039260Y0297455D01*
X0038088Y0296970D01*
X0036899Y0295368D02*
X0009257Y0295368D01*
X0009257Y0294169D02*
X0036706Y0294169D01*
X0036981Y0292971D02*
X0009257Y0292971D01*
X0009257Y0291772D02*
X0037882Y0291772D01*
X0037378Y0290526D02*
X0038550Y0290041D01*
X0039446Y0289144D01*
X0039931Y0287973D01*
X0039931Y0287376D01*
X0040528Y0287376D01*
X0041699Y0286891D01*
X0042596Y0285994D01*
X0043081Y0284823D01*
X0043081Y0283555D01*
X0042596Y0282383D01*
X0041699Y0281487D01*
X0040619Y0281039D01*
X0041699Y0280592D01*
X0042596Y0279695D01*
X0043081Y0278524D01*
X0043081Y0277256D01*
X0042596Y0276084D01*
X0041699Y0275188D01*
X0040528Y0274702D01*
X0039260Y0274702D01*
X0038088Y0275188D01*
X0037192Y0276084D01*
X0036706Y0277256D01*
X0036706Y0277852D01*
X0036110Y0277852D01*
X0034939Y0278337D01*
X0034042Y0279234D01*
X0033557Y0280405D01*
X0033557Y0281673D01*
X0034042Y0282845D01*
X0034939Y0283742D01*
X0036019Y0284189D01*
X0034939Y0284636D01*
X0034042Y0285533D01*
X0033557Y0286705D01*
X0033557Y0287973D01*
X0034042Y0289144D01*
X0034939Y0290041D01*
X0036110Y0290526D01*
X0037378Y0290526D01*
X0039215Y0289375D02*
X0140309Y0289375D01*
X0140455Y0289021D02*
X0141352Y0288125D01*
X0142523Y0287639D01*
X0143791Y0287639D01*
X0144963Y0288125D01*
X0145860Y0289021D01*
X0146345Y0290193D01*
X0146345Y0290639D01*
X0146791Y0290639D01*
X0147963Y0291125D01*
X0148860Y0292021D01*
X0149345Y0293193D01*
X0149345Y0294461D01*
X0148860Y0295632D01*
X0147963Y0296529D01*
X0146791Y0297014D01*
X0145523Y0297014D01*
X0144352Y0296529D01*
X0143455Y0295632D01*
X0142970Y0294461D01*
X0142970Y0294014D01*
X0142523Y0294014D01*
X0141352Y0293529D01*
X0140455Y0292632D01*
X0139970Y0291461D01*
X0139970Y0290193D01*
X0140455Y0289021D01*
X0141300Y0288177D02*
X0039847Y0288177D01*
X0041489Y0286978D02*
X0214014Y0286978D01*
X0213766Y0287226D02*
X0214663Y0286329D01*
X0215834Y0285844D01*
X0217103Y0285844D01*
X0218274Y0286329D01*
X0219171Y0287226D01*
X0219656Y0288397D01*
X0219656Y0289666D01*
X0219171Y0290837D01*
X0218274Y0291734D01*
X0217103Y0292219D01*
X0215834Y0292219D01*
X0214663Y0291734D01*
X0213766Y0290837D01*
X0213281Y0289666D01*
X0213281Y0288397D01*
X0213766Y0287226D01*
X0213373Y0288177D02*
X0145015Y0288177D01*
X0145016Y0286668D02*
X0143748Y0286668D01*
X0142576Y0286182D01*
X0141680Y0285286D01*
X0141194Y0284114D01*
X0141194Y0282846D01*
X0141680Y0281675D01*
X0142576Y0280778D01*
X0143748Y0280293D01*
X0145016Y0280293D01*
X0146187Y0280778D01*
X0147084Y0281675D01*
X0147569Y0282846D01*
X0147569Y0284114D01*
X0147084Y0285286D01*
X0146187Y0286182D01*
X0145016Y0286668D01*
X0146590Y0285780D02*
X0351577Y0285780D01*
X0351577Y0286978D02*
X0218923Y0286978D01*
X0219564Y0288177D02*
X0351577Y0288177D01*
X0351577Y0289375D02*
X0239861Y0289375D01*
X0239291Y0289139D02*
X0240463Y0289625D01*
X0241360Y0290521D01*
X0241845Y0291693D01*
X0241845Y0292961D01*
X0241360Y0294132D01*
X0240463Y0295029D01*
X0239291Y0295514D01*
X0238023Y0295514D01*
X0236852Y0295029D01*
X0235955Y0294132D01*
X0235470Y0292961D01*
X0235470Y0291693D01*
X0235955Y0290521D01*
X0236852Y0289625D01*
X0238023Y0289139D01*
X0239291Y0289139D01*
X0237454Y0289375D02*
X0219656Y0289375D01*
X0219280Y0290574D02*
X0235934Y0290574D01*
X0235470Y0291772D02*
X0218181Y0291772D01*
X0214756Y0291772D02*
X0213126Y0291772D01*
X0212683Y0291329D02*
X0213580Y0292226D01*
X0214065Y0293397D01*
X0214065Y0294666D01*
X0213580Y0295837D01*
X0212683Y0296734D01*
X0211512Y0297219D01*
X0210244Y0297219D01*
X0209072Y0296734D01*
X0208176Y0295837D01*
X0207691Y0294666D01*
X0207691Y0293397D01*
X0208176Y0292226D01*
X0209072Y0291329D01*
X0210244Y0290844D01*
X0211512Y0290844D01*
X0212683Y0291329D01*
X0213657Y0290574D02*
X0204975Y0290574D01*
X0204958Y0290533D02*
X0205443Y0291705D01*
X0205443Y0292973D01*
X0204958Y0294144D01*
X0204061Y0295041D01*
X0202890Y0295526D01*
X0201622Y0295526D01*
X0200450Y0295041D01*
X0200189Y0294779D01*
X0199928Y0295041D01*
X0198756Y0295526D01*
X0197488Y0295526D01*
X0196317Y0295041D01*
X0195420Y0294144D01*
X0194935Y0292973D01*
X0194935Y0291705D01*
X0195420Y0290533D01*
X0196317Y0289636D01*
X0197488Y0289151D01*
X0198756Y0289151D01*
X0199928Y0289636D01*
X0200189Y0289898D01*
X0200450Y0289636D01*
X0201622Y0289151D01*
X0202890Y0289151D01*
X0204061Y0289636D01*
X0204958Y0290533D01*
X0205443Y0291772D02*
X0208630Y0291772D01*
X0207867Y0292971D02*
X0205443Y0292971D01*
X0204933Y0294169D02*
X0207691Y0294169D01*
X0207981Y0295368D02*
X0203272Y0295368D01*
X0201240Y0295368D02*
X0199138Y0295368D01*
X0197106Y0295368D02*
X0177288Y0295368D01*
X0176906Y0295526D02*
X0175638Y0295526D01*
X0174466Y0295041D01*
X0173570Y0294144D01*
X0173084Y0292973D01*
X0173084Y0291705D01*
X0173570Y0290533D01*
X0174466Y0289636D01*
X0175638Y0289151D01*
X0176906Y0289151D01*
X0178077Y0289636D01*
X0178974Y0290533D01*
X0179459Y0291705D01*
X0179459Y0292973D01*
X0178974Y0294144D01*
X0178077Y0295041D01*
X0176906Y0295526D01*
X0175256Y0295368D02*
X0156028Y0295368D01*
X0155646Y0295526D02*
X0154378Y0295526D01*
X0153206Y0295041D01*
X0152310Y0294144D01*
X0151824Y0292973D01*
X0151824Y0291705D01*
X0152310Y0290533D01*
X0153206Y0289636D01*
X0154378Y0289151D01*
X0155646Y0289151D01*
X0156817Y0289636D01*
X0157714Y0290533D01*
X0158199Y0291705D01*
X0158199Y0292973D01*
X0157714Y0294144D01*
X0156817Y0295041D01*
X0155646Y0295526D01*
X0153996Y0295368D02*
X0148969Y0295368D01*
X0149345Y0294169D02*
X0152335Y0294169D01*
X0151824Y0292971D02*
X0149253Y0292971D01*
X0148611Y0291772D02*
X0151824Y0291772D01*
X0152293Y0290574D02*
X0146345Y0290574D01*
X0146006Y0289375D02*
X0153837Y0289375D01*
X0156187Y0289375D02*
X0175097Y0289375D01*
X0173553Y0290574D02*
X0157731Y0290574D01*
X0158199Y0291772D02*
X0173084Y0291772D01*
X0173084Y0292971D02*
X0158199Y0292971D01*
X0157689Y0294169D02*
X0173595Y0294169D01*
X0178949Y0294169D02*
X0195445Y0294169D01*
X0194935Y0292971D02*
X0179459Y0292971D01*
X0179459Y0291772D02*
X0194935Y0291772D01*
X0195403Y0290574D02*
X0178991Y0290574D01*
X0177446Y0289375D02*
X0196947Y0289375D01*
X0199297Y0289375D02*
X0201081Y0289375D01*
X0203431Y0289375D02*
X0213281Y0289375D01*
X0213889Y0292971D02*
X0235474Y0292971D01*
X0235992Y0294169D02*
X0214065Y0294169D01*
X0213774Y0295368D02*
X0237670Y0295368D01*
X0238023Y0295639D02*
X0239291Y0295639D01*
X0240463Y0296125D01*
X0241360Y0297021D01*
X0241845Y0298193D01*
X0241845Y0299461D01*
X0241360Y0300632D01*
X0240463Y0301529D01*
X0239291Y0302014D01*
X0238023Y0302014D01*
X0236852Y0301529D01*
X0235955Y0300632D01*
X0235470Y0299461D01*
X0235470Y0298193D01*
X0235955Y0297021D01*
X0236852Y0296125D01*
X0238023Y0295639D01*
X0239645Y0295368D02*
X0351577Y0295368D01*
X0351577Y0296566D02*
X0240905Y0296566D01*
X0241668Y0297765D02*
X0351577Y0297765D01*
X0351577Y0298963D02*
X0241845Y0298963D01*
X0241555Y0300162D02*
X0351577Y0300162D01*
X0351577Y0301360D02*
X0240632Y0301360D01*
X0236683Y0301360D02*
X0097412Y0301360D01*
X0097412Y0300760D02*
X0096927Y0299588D01*
X0096030Y0298692D01*
X0094858Y0298206D01*
X0093590Y0298206D01*
X0092419Y0298692D01*
X0091522Y0299588D01*
X0091037Y0300760D01*
X0091037Y0302028D01*
X0091522Y0303199D01*
X0092419Y0304096D01*
X0093590Y0304581D01*
X0094858Y0304581D01*
X0096030Y0304096D01*
X0096927Y0303199D01*
X0097412Y0302028D01*
X0097412Y0300760D01*
X0097164Y0300162D02*
X0235760Y0300162D01*
X0235470Y0298963D02*
X0096302Y0298963D01*
X0097192Y0302559D02*
X0351577Y0302559D01*
X0351577Y0303757D02*
X0182596Y0303757D01*
X0182463Y0303625D02*
X0183360Y0304521D01*
X0183845Y0305693D01*
X0183845Y0306961D01*
X0183360Y0308132D01*
X0182463Y0309029D01*
X0181291Y0309514D01*
X0180023Y0309514D01*
X0178852Y0309029D01*
X0177955Y0308132D01*
X0177470Y0306961D01*
X0177470Y0305693D01*
X0177955Y0304521D01*
X0178852Y0303625D01*
X0180023Y0303139D01*
X0181291Y0303139D01*
X0182463Y0303625D01*
X0183540Y0304956D02*
X0351577Y0304956D01*
X0351577Y0306154D02*
X0183845Y0306154D01*
X0183682Y0307353D02*
X0351577Y0307353D01*
X0351577Y0308551D02*
X0271563Y0308551D01*
X0271950Y0308939D02*
X0272435Y0310110D01*
X0272435Y0311378D01*
X0271950Y0312550D01*
X0271054Y0313446D01*
X0269882Y0313931D01*
X0268614Y0313931D01*
X0267443Y0313446D01*
X0266546Y0312550D01*
X0266061Y0311378D01*
X0266061Y0310110D01*
X0266546Y0308939D01*
X0267443Y0308042D01*
X0268614Y0307557D01*
X0269882Y0307557D01*
X0271054Y0308042D01*
X0271950Y0308939D01*
X0272286Y0309750D02*
X0326228Y0309750D01*
X0326129Y0309791D02*
X0327445Y0309246D01*
X0328870Y0309246D01*
X0330186Y0309791D01*
X0331193Y0310798D01*
X0331739Y0312114D01*
X0331739Y0313539D01*
X0331193Y0314855D01*
X0330186Y0315863D01*
X0328870Y0316408D01*
X0327445Y0316408D01*
X0326129Y0315863D01*
X0325122Y0314855D01*
X0324576Y0313539D01*
X0324576Y0312114D01*
X0325122Y0310798D01*
X0326129Y0309791D01*
X0325059Y0310948D02*
X0272435Y0310948D01*
X0272117Y0312147D02*
X0324576Y0312147D01*
X0324576Y0313345D02*
X0271154Y0313345D01*
X0267342Y0313345D02*
X0067687Y0313345D01*
X0067461Y0314544D02*
X0324993Y0314544D01*
X0326009Y0315742D02*
X0066627Y0315742D01*
X0067312Y0316941D02*
X0351577Y0316941D01*
X0351577Y0315742D02*
X0330306Y0315742D01*
X0331322Y0314544D02*
X0351577Y0314544D01*
X0351577Y0313345D02*
X0331739Y0313345D01*
X0331739Y0312147D02*
X0351577Y0312147D01*
X0351577Y0310948D02*
X0331256Y0310948D01*
X0330087Y0309750D02*
X0351577Y0309750D01*
X0351577Y0294169D02*
X0241323Y0294169D01*
X0241841Y0292971D02*
X0351577Y0292971D01*
X0351577Y0291772D02*
X0241845Y0291772D01*
X0241381Y0290574D02*
X0351577Y0290574D01*
X0351577Y0284581D02*
X0147376Y0284581D01*
X0147569Y0283383D02*
X0211733Y0283383D01*
X0211365Y0283014D02*
X0210880Y0281843D01*
X0210880Y0280575D01*
X0211365Y0279403D01*
X0212261Y0278507D01*
X0213433Y0278021D01*
X0214701Y0278021D01*
X0215872Y0278507D01*
X0216769Y0279403D01*
X0217254Y0280575D01*
X0217254Y0281843D01*
X0216769Y0283014D01*
X0215872Y0283911D01*
X0214701Y0284396D01*
X0213433Y0284396D01*
X0212261Y0283911D01*
X0211365Y0283014D01*
X0211021Y0282184D02*
X0147295Y0282184D01*
X0146395Y0280986D02*
X0210880Y0280986D01*
X0211206Y0279787D02*
X0042504Y0279787D01*
X0043054Y0278589D02*
X0142777Y0278589D01*
X0142576Y0278505D02*
X0143748Y0278991D01*
X0145016Y0278991D01*
X0146187Y0278505D01*
X0147084Y0277609D01*
X0147569Y0276437D01*
X0147569Y0275169D01*
X0147084Y0273998D01*
X0146187Y0273101D01*
X0145016Y0272616D01*
X0143748Y0272616D01*
X0142576Y0273101D01*
X0141680Y0273998D01*
X0141194Y0275169D01*
X0141194Y0276437D01*
X0141680Y0277609D01*
X0142576Y0278505D01*
X0141589Y0277390D02*
X0043081Y0277390D01*
X0042640Y0276192D02*
X0141194Y0276192D01*
X0141267Y0274993D02*
X0041229Y0274993D01*
X0038558Y0274993D02*
X0016490Y0274993D01*
X0016783Y0274844D02*
X0016172Y0275155D01*
X0015520Y0275367D01*
X0014884Y0275467D01*
X0014884Y0271502D01*
X0018849Y0271502D01*
X0018749Y0272138D01*
X0018537Y0272790D01*
X0018225Y0273401D01*
X0017822Y0273956D01*
X0017338Y0274441D01*
X0016783Y0274844D01*
X0017940Y0273795D02*
X0141883Y0273795D01*
X0145986Y0278589D02*
X0212179Y0278589D01*
X0215955Y0278589D02*
X0351577Y0278589D01*
X0351577Y0279787D02*
X0216928Y0279787D01*
X0217254Y0280986D02*
X0351577Y0280986D01*
X0351577Y0282184D02*
X0217113Y0282184D01*
X0216401Y0283383D02*
X0351577Y0283383D01*
X0351577Y0277390D02*
X0147175Y0277390D01*
X0147569Y0276192D02*
X0351577Y0276192D01*
X0351577Y0274993D02*
X0147496Y0274993D01*
X0146881Y0273795D02*
X0351577Y0273795D01*
X0351577Y0272596D02*
X0038947Y0272596D01*
X0038589Y0272954D02*
X0037417Y0273439D01*
X0036149Y0273439D01*
X0034978Y0272954D01*
X0034081Y0272057D01*
X0033596Y0270886D01*
X0033596Y0269618D01*
X0034081Y0268446D01*
X0034978Y0267550D01*
X0036058Y0267102D01*
X0034978Y0266655D01*
X0034081Y0265758D01*
X0033596Y0264587D01*
X0033596Y0263319D01*
X0034081Y0262147D01*
X0034978Y0261251D01*
X0036149Y0260765D01*
X0036746Y0260765D01*
X0036746Y0260169D01*
X0037231Y0258998D01*
X0038128Y0258101D01*
X0039299Y0257616D01*
X0040567Y0257616D01*
X0041739Y0258101D01*
X0042635Y0258998D01*
X0043120Y0260169D01*
X0043120Y0261437D01*
X0042635Y0262609D01*
X0041739Y0263505D01*
X0040658Y0263953D01*
X0041739Y0264400D01*
X0042635Y0265297D01*
X0043120Y0266468D01*
X0043120Y0267736D01*
X0042635Y0268908D01*
X0041739Y0269805D01*
X0040567Y0270290D01*
X0039971Y0270290D01*
X0039971Y0270886D01*
X0039486Y0272057D01*
X0038589Y0272954D01*
X0039759Y0271398D02*
X0351577Y0271398D01*
X0351577Y0270199D02*
X0096462Y0270199D01*
X0096030Y0270631D02*
X0094858Y0271117D01*
X0093590Y0271117D01*
X0092419Y0270631D01*
X0091522Y0269735D01*
X0091037Y0268563D01*
X0091037Y0267295D01*
X0091522Y0266124D01*
X0092419Y0265227D01*
X0093590Y0264742D01*
X0094858Y0264742D01*
X0096030Y0265227D01*
X0096927Y0266124D01*
X0097412Y0267295D01*
X0097412Y0268563D01*
X0096927Y0269735D01*
X0096030Y0270631D01*
X0097231Y0269000D02*
X0351577Y0269000D01*
X0351577Y0267802D02*
X0097412Y0267802D01*
X0097125Y0266603D02*
X0211171Y0266603D01*
X0211261Y0266694D02*
X0210365Y0265798D01*
X0209880Y0264626D01*
X0209880Y0263358D01*
X0210365Y0262187D01*
X0211261Y0261290D01*
X0212433Y0260805D01*
X0213701Y0260805D01*
X0214872Y0261290D01*
X0215769Y0262187D01*
X0216254Y0263358D01*
X0216254Y0264626D01*
X0215769Y0265798D01*
X0214872Y0266694D01*
X0213701Y0267180D01*
X0212433Y0267180D01*
X0211261Y0266694D01*
X0210202Y0265405D02*
X0096208Y0265405D01*
X0092241Y0265405D02*
X0077113Y0265405D01*
X0076935Y0265227D02*
X0077832Y0266124D01*
X0078317Y0267295D01*
X0078317Y0268563D01*
X0077832Y0269735D01*
X0076935Y0270631D01*
X0075764Y0271117D01*
X0074496Y0271117D01*
X0073324Y0270631D01*
X0072428Y0269735D01*
X0071943Y0268563D01*
X0071943Y0267295D01*
X0072428Y0266124D01*
X0073324Y0265227D01*
X0074496Y0264742D01*
X0075764Y0264742D01*
X0076935Y0265227D01*
X0078031Y0266603D02*
X0091323Y0266603D01*
X0091037Y0267802D02*
X0078317Y0267802D01*
X0078136Y0269000D02*
X0091218Y0269000D01*
X0091987Y0270199D02*
X0077368Y0270199D01*
X0072892Y0270199D02*
X0040786Y0270199D01*
X0042543Y0269000D02*
X0072124Y0269000D01*
X0071943Y0267802D02*
X0043093Y0267802D01*
X0043120Y0266603D02*
X0072229Y0266603D01*
X0073146Y0265405D02*
X0042680Y0265405D01*
X0041271Y0264206D02*
X0209880Y0264206D01*
X0210025Y0263008D02*
X0149984Y0263008D01*
X0150360Y0262632D02*
X0149463Y0263529D01*
X0148291Y0264014D01*
X0147023Y0264014D01*
X0145852Y0263529D01*
X0144955Y0262632D01*
X0144492Y0261514D01*
X0143523Y0261514D01*
X0142352Y0261029D01*
X0141455Y0260132D01*
X0140970Y0258961D01*
X0140970Y0257693D01*
X0141455Y0256521D01*
X0142150Y0255827D01*
X0141455Y0255132D01*
X0140970Y0253961D01*
X0140970Y0252693D01*
X0141455Y0251521D01*
X0142352Y0250625D01*
X0143521Y0250141D01*
X0142576Y0249749D01*
X0141680Y0248853D01*
X0141194Y0247681D01*
X0141194Y0246413D01*
X0141680Y0245242D01*
X0142576Y0244345D01*
X0143748Y0243860D01*
X0145016Y0243860D01*
X0146187Y0244345D01*
X0147084Y0245242D01*
X0147569Y0246413D01*
X0147569Y0247681D01*
X0147084Y0248853D01*
X0146187Y0249749D01*
X0145019Y0250233D01*
X0145963Y0250625D01*
X0146860Y0251521D01*
X0147323Y0252639D01*
X0148291Y0252639D01*
X0149463Y0253125D01*
X0150360Y0254021D01*
X0150845Y0255193D01*
X0150845Y0256461D01*
X0150360Y0257632D01*
X0149665Y0258327D01*
X0150360Y0259021D01*
X0150845Y0260193D01*
X0150845Y0261461D01*
X0150360Y0262632D01*
X0150700Y0261809D02*
X0210742Y0261809D01*
X0215392Y0261809D02*
X0351577Y0261809D01*
X0351577Y0260611D02*
X0150845Y0260611D01*
X0150522Y0259412D02*
X0351577Y0259412D01*
X0351577Y0258214D02*
X0149778Y0258214D01*
X0150615Y0257015D02*
X0351577Y0257015D01*
X0351577Y0255817D02*
X0322232Y0255817D01*
X0322186Y0255863D02*
X0320870Y0256408D01*
X0319445Y0256408D01*
X0318129Y0255863D01*
X0317157Y0254891D01*
X0316186Y0255863D01*
X0314870Y0256408D01*
X0313445Y0256408D01*
X0312129Y0255863D01*
X0311122Y0254855D01*
X0310576Y0253539D01*
X0310576Y0252114D01*
X0311122Y0250798D01*
X0312093Y0249827D01*
X0311122Y0248855D01*
X0310576Y0247539D01*
X0310576Y0246114D01*
X0311122Y0244798D01*
X0312129Y0243791D01*
X0313445Y0243246D01*
X0314870Y0243246D01*
X0316186Y0243791D01*
X0317157Y0244762D01*
X0318129Y0243791D01*
X0319445Y0243246D01*
X0320870Y0243246D01*
X0322186Y0243791D01*
X0323193Y0244798D01*
X0323739Y0246114D01*
X0323739Y0247539D01*
X0323193Y0248855D01*
X0322222Y0249827D01*
X0323193Y0250798D01*
X0323739Y0252114D01*
X0323739Y0253539D01*
X0323193Y0254855D01*
X0322186Y0255863D01*
X0323292Y0254618D02*
X0351577Y0254618D01*
X0351577Y0253420D02*
X0323739Y0253420D01*
X0323739Y0252221D02*
X0351577Y0252221D01*
X0351577Y0251023D02*
X0323286Y0251023D01*
X0322224Y0249824D02*
X0351577Y0249824D01*
X0351577Y0248626D02*
X0323288Y0248626D01*
X0323739Y0247427D02*
X0351577Y0247427D01*
X0351577Y0246229D02*
X0323739Y0246229D01*
X0323289Y0245030D02*
X0351577Y0245030D01*
X0351577Y0243832D02*
X0322227Y0243832D01*
X0318088Y0243832D02*
X0316227Y0243832D01*
X0312088Y0243832D02*
X0120732Y0243832D01*
X0120291Y0244014D02*
X0119023Y0244014D01*
X0117852Y0243529D01*
X0116955Y0242632D01*
X0116470Y0241461D01*
X0116470Y0240193D01*
X0116955Y0239021D01*
X0117852Y0238125D01*
X0119023Y0237639D01*
X0120291Y0237639D01*
X0121463Y0238125D01*
X0122360Y0239021D01*
X0122845Y0240193D01*
X0122845Y0241461D01*
X0122360Y0242632D01*
X0121463Y0243529D01*
X0120291Y0244014D01*
X0118583Y0243832D02*
X0096288Y0243832D01*
X0096730Y0244273D02*
X0095833Y0243377D01*
X0094662Y0242891D01*
X0093394Y0242891D01*
X0092222Y0243377D01*
X0091325Y0244273D01*
X0090840Y0245445D01*
X0090840Y0246713D01*
X0091325Y0247884D01*
X0092222Y0248781D01*
X0093394Y0249266D01*
X0094662Y0249266D01*
X0095833Y0248781D01*
X0096730Y0247884D01*
X0097215Y0246713D01*
X0097215Y0245445D01*
X0096730Y0244273D01*
X0097043Y0245030D02*
X0141891Y0245030D01*
X0141271Y0246229D02*
X0097215Y0246229D01*
X0096919Y0247427D02*
X0141194Y0247427D01*
X0141586Y0248626D02*
X0095988Y0248626D01*
X0092067Y0248626D02*
X0077287Y0248626D01*
X0076935Y0248978D02*
X0075764Y0249463D01*
X0074496Y0249463D01*
X0073324Y0248978D01*
X0072428Y0248081D01*
X0071943Y0246910D01*
X0071943Y0245642D01*
X0072428Y0244470D01*
X0073324Y0243573D01*
X0074496Y0243088D01*
X0075764Y0243088D01*
X0076935Y0243573D01*
X0077832Y0244470D01*
X0078317Y0245642D01*
X0078317Y0246910D01*
X0077832Y0248081D01*
X0076935Y0248978D01*
X0078103Y0247427D02*
X0091136Y0247427D01*
X0090840Y0246229D02*
X0078317Y0246229D01*
X0078064Y0245030D02*
X0091012Y0245030D01*
X0091767Y0243832D02*
X0077194Y0243832D01*
X0073066Y0243832D02*
X0043120Y0243832D01*
X0043120Y0243279D02*
X0043120Y0244547D01*
X0042635Y0245719D01*
X0041739Y0246616D01*
X0040658Y0247063D01*
X0041739Y0247510D01*
X0042635Y0248407D01*
X0043120Y0249579D01*
X0043120Y0250847D01*
X0042635Y0252018D01*
X0041739Y0252915D01*
X0040567Y0253400D01*
X0039971Y0253400D01*
X0039971Y0253996D01*
X0039486Y0255168D01*
X0038589Y0256064D01*
X0037417Y0256550D01*
X0036149Y0256550D01*
X0034978Y0256064D01*
X0034081Y0255168D01*
X0033596Y0253996D01*
X0033596Y0252728D01*
X0034081Y0251557D01*
X0034978Y0250660D01*
X0036058Y0250213D01*
X0034978Y0249765D01*
X0034081Y0248869D01*
X0033596Y0247697D01*
X0033596Y0246429D01*
X0034081Y0245257D01*
X0034978Y0244361D01*
X0036149Y0243876D01*
X0036746Y0243876D01*
X0036746Y0243279D01*
X0037231Y0242108D01*
X0038128Y0241211D01*
X0039299Y0240726D01*
X0040567Y0240726D01*
X0041739Y0241211D01*
X0042635Y0242108D01*
X0043120Y0243279D01*
X0042853Y0242633D02*
X0116956Y0242633D01*
X0116470Y0241435D02*
X0041962Y0241435D01*
X0042920Y0245030D02*
X0072196Y0245030D01*
X0071943Y0246229D02*
X0042125Y0246229D01*
X0041538Y0247427D02*
X0072157Y0247427D01*
X0072972Y0248626D02*
X0042726Y0248626D01*
X0043120Y0249824D02*
X0142757Y0249824D01*
X0141954Y0251023D02*
X0043047Y0251023D01*
X0042432Y0252221D02*
X0141165Y0252221D01*
X0140970Y0253420D02*
X0039971Y0253420D01*
X0039713Y0254618D02*
X0141242Y0254618D01*
X0142140Y0255817D02*
X0038836Y0255817D01*
X0038015Y0258214D02*
X0017756Y0258214D01*
X0018193Y0258651D02*
X0018856Y0260252D01*
X0018856Y0261985D01*
X0018193Y0263586D01*
X0016967Y0264811D01*
X0015366Y0265474D01*
X0013634Y0265474D01*
X0012033Y0264811D01*
X0010807Y0263586D01*
X0010144Y0261985D01*
X0010144Y0260252D01*
X0010807Y0258651D01*
X0012033Y0257425D01*
X0013634Y0256762D01*
X0015366Y0256762D01*
X0016967Y0257425D01*
X0018193Y0258651D01*
X0018508Y0259412D02*
X0037059Y0259412D01*
X0036746Y0260611D02*
X0018856Y0260611D01*
X0018856Y0261809D02*
X0034419Y0261809D01*
X0033725Y0263008D02*
X0018432Y0263008D01*
X0017572Y0264206D02*
X0033596Y0264206D01*
X0033935Y0265405D02*
X0015533Y0265405D01*
X0015520Y0266869D02*
X0016172Y0267081D01*
X0016783Y0267393D01*
X0017338Y0267796D01*
X0017822Y0268280D01*
X0018225Y0268835D01*
X0018537Y0269446D01*
X0018749Y0270098D01*
X0018849Y0270734D01*
X0014884Y0270734D01*
X0014884Y0266769D01*
X0015520Y0266869D01*
X0014884Y0267802D02*
X0014116Y0267802D01*
X0014116Y0266769D02*
X0014116Y0270734D01*
X0014884Y0270734D01*
X0014884Y0271502D01*
X0014116Y0271502D01*
X0014116Y0270734D01*
X0010151Y0270734D01*
X0010251Y0270098D01*
X0010463Y0269446D01*
X0010774Y0268835D01*
X0011177Y0268280D01*
X0011662Y0267796D01*
X0012217Y0267393D01*
X0012828Y0267081D01*
X0013480Y0266869D01*
X0014116Y0266769D01*
X0013467Y0265405D02*
X0009257Y0265405D01*
X0009257Y0266603D02*
X0034927Y0266603D01*
X0034726Y0267802D02*
X0017344Y0267802D01*
X0018310Y0269000D02*
X0033852Y0269000D01*
X0033596Y0270199D02*
X0018765Y0270199D01*
X0018600Y0272596D02*
X0034620Y0272596D01*
X0033808Y0271398D02*
X0014884Y0271398D01*
X0014116Y0271398D02*
X0009257Y0271398D01*
X0010151Y0271502D02*
X0014116Y0271502D01*
X0014116Y0275467D01*
X0013480Y0275367D01*
X0012828Y0275155D01*
X0012217Y0274844D01*
X0011662Y0274441D01*
X0011177Y0273956D01*
X0010774Y0273401D01*
X0010463Y0272790D01*
X0010251Y0272138D01*
X0010151Y0271502D01*
X0010400Y0272596D02*
X0009257Y0272596D01*
X0009257Y0273795D02*
X0011060Y0273795D01*
X0012510Y0274993D02*
X0009257Y0274993D01*
X0009257Y0276192D02*
X0037147Y0276192D01*
X0036706Y0277390D02*
X0009257Y0277390D01*
X0009257Y0278589D02*
X0034687Y0278589D01*
X0033813Y0279787D02*
X0009257Y0279787D01*
X0009257Y0280986D02*
X0033557Y0280986D01*
X0033768Y0282184D02*
X0009257Y0282184D01*
X0009257Y0283383D02*
X0034580Y0283383D01*
X0035072Y0284581D02*
X0009257Y0284581D01*
X0009257Y0285780D02*
X0033940Y0285780D01*
X0033557Y0286978D02*
X0009257Y0286978D01*
X0009257Y0288177D02*
X0033641Y0288177D01*
X0034273Y0289375D02*
X0009257Y0289375D01*
X0009257Y0290574D02*
X0060514Y0290574D01*
X0062187Y0290574D02*
X0139970Y0290574D01*
X0140099Y0291772D02*
X0063953Y0291772D01*
X0064508Y0292971D02*
X0140794Y0292971D01*
X0142970Y0294169D02*
X0066350Y0294169D01*
X0067346Y0295368D02*
X0143346Y0295368D01*
X0144442Y0296566D02*
X0067687Y0296566D01*
X0067561Y0297765D02*
X0235647Y0297765D01*
X0236410Y0296566D02*
X0212851Y0296566D01*
X0208905Y0296566D02*
X0147873Y0296566D01*
X0142174Y0285780D02*
X0042685Y0285780D01*
X0043081Y0284581D02*
X0141388Y0284581D01*
X0141194Y0283383D02*
X0043010Y0283383D01*
X0042397Y0282184D02*
X0141469Y0282184D01*
X0142369Y0280986D02*
X0040749Y0280986D01*
X0041906Y0291772D02*
X0058748Y0291772D01*
X0058193Y0292971D02*
X0042806Y0292971D01*
X0043081Y0294169D02*
X0058163Y0294169D01*
X0058601Y0295368D02*
X0042888Y0295368D01*
X0042103Y0296566D02*
X0059996Y0296566D01*
X0066871Y0298963D02*
X0073053Y0298963D01*
X0073324Y0298692D02*
X0074496Y0298206D01*
X0075764Y0298206D01*
X0076935Y0298692D01*
X0077832Y0299588D01*
X0078317Y0300760D01*
X0078317Y0302028D01*
X0077832Y0303199D01*
X0076935Y0304096D01*
X0075764Y0304581D01*
X0074496Y0304581D01*
X0073324Y0304096D01*
X0072428Y0303199D01*
X0071943Y0302028D01*
X0071943Y0300760D01*
X0072428Y0299588D01*
X0073324Y0298692D01*
X0072190Y0300162D02*
X0066437Y0300162D01*
X0067382Y0301360D02*
X0071943Y0301360D01*
X0072163Y0302559D02*
X0067687Y0302559D01*
X0067525Y0303757D02*
X0072986Y0303757D01*
X0077274Y0303757D02*
X0092080Y0303757D01*
X0091257Y0302559D02*
X0078097Y0302559D01*
X0078317Y0301360D02*
X0091037Y0301360D01*
X0091285Y0300162D02*
X0078070Y0300162D01*
X0077207Y0298963D02*
X0092147Y0298963D01*
X0096368Y0303757D02*
X0178719Y0303757D01*
X0177775Y0304956D02*
X0066784Y0304956D01*
X0066918Y0306154D02*
X0177470Y0306154D01*
X0177632Y0307353D02*
X0067581Y0307353D01*
X0067687Y0308551D02*
X0178374Y0308551D01*
X0182941Y0308551D02*
X0266933Y0308551D01*
X0266210Y0309750D02*
X0067326Y0309750D01*
X0066594Y0310948D02*
X0266061Y0310948D01*
X0266379Y0312147D02*
X0067447Y0312147D01*
X0046552Y0332522D02*
X0037763Y0332522D01*
X0038961Y0333720D02*
X0045354Y0333720D01*
X0044776Y0334919D02*
X0039539Y0334919D01*
X0039897Y0336117D02*
X0044417Y0336117D01*
X0044417Y0337316D02*
X0039897Y0337316D01*
X0031552Y0332522D02*
X0022647Y0332522D01*
X0023877Y0333720D02*
X0030354Y0333720D01*
X0029776Y0334919D02*
X0024547Y0334919D01*
X0024850Y0336117D02*
X0029417Y0336117D01*
X0029417Y0337316D02*
X0020258Y0337316D01*
X0020257Y0336117D02*
X0019057Y0336117D01*
X0019057Y0334919D02*
X0020257Y0334919D01*
X0020257Y0333720D02*
X0019057Y0333720D01*
X0019057Y0332522D02*
X0020257Y0332522D01*
X0016668Y0332522D02*
X0009257Y0332522D01*
X0009257Y0333720D02*
X0015438Y0333720D01*
X0014768Y0334919D02*
X0009257Y0334919D01*
X0009257Y0336117D02*
X0014465Y0336117D01*
X0019057Y0337316D02*
X0009257Y0337316D01*
X0014116Y0274993D02*
X0014884Y0274993D01*
X0014884Y0273795D02*
X0014116Y0273795D01*
X0014116Y0272596D02*
X0014884Y0272596D01*
X0014884Y0270199D02*
X0014116Y0270199D01*
X0014116Y0269000D02*
X0014884Y0269000D01*
X0011656Y0267802D02*
X0009257Y0267802D01*
X0009257Y0269000D02*
X0010690Y0269000D01*
X0010235Y0270199D02*
X0009257Y0270199D01*
X0009257Y0264206D02*
X0011428Y0264206D01*
X0010568Y0263008D02*
X0009257Y0263008D01*
X0009257Y0261809D02*
X0010144Y0261809D01*
X0010144Y0260611D02*
X0009257Y0260611D01*
X0009257Y0259412D02*
X0010492Y0259412D01*
X0011244Y0258214D02*
X0009257Y0258214D01*
X0009257Y0257015D02*
X0013022Y0257015D01*
X0013634Y0255474D02*
X0012033Y0254811D01*
X0010807Y0253586D01*
X0010144Y0251985D01*
X0010144Y0250252D01*
X0010807Y0248651D01*
X0012033Y0247425D01*
X0013634Y0246762D01*
X0015366Y0246762D01*
X0016967Y0247425D01*
X0018193Y0248651D01*
X0018856Y0250252D01*
X0018856Y0251985D01*
X0018193Y0253586D01*
X0016967Y0254811D01*
X0015366Y0255474D01*
X0013634Y0255474D01*
X0011840Y0254618D02*
X0009257Y0254618D01*
X0009257Y0253420D02*
X0010739Y0253420D01*
X0010242Y0252221D02*
X0009257Y0252221D01*
X0009257Y0251023D02*
X0010144Y0251023D01*
X0010321Y0249824D02*
X0009257Y0249824D01*
X0009257Y0248626D02*
X0010832Y0248626D01*
X0012031Y0247427D02*
X0009257Y0247427D01*
X0009257Y0246229D02*
X0033679Y0246229D01*
X0033596Y0247427D02*
X0016969Y0247427D01*
X0018168Y0248626D02*
X0033981Y0248626D01*
X0035121Y0249824D02*
X0018679Y0249824D01*
X0018856Y0251023D02*
X0034615Y0251023D01*
X0033806Y0252221D02*
X0018758Y0252221D01*
X0018261Y0253420D02*
X0033596Y0253420D01*
X0033854Y0254618D02*
X0017160Y0254618D01*
X0015978Y0257015D02*
X0141251Y0257015D01*
X0140970Y0258214D02*
X0041851Y0258214D01*
X0042807Y0259412D02*
X0141157Y0259412D01*
X0141934Y0260611D02*
X0043120Y0260611D01*
X0042966Y0261809D02*
X0144614Y0261809D01*
X0145331Y0263008D02*
X0042236Y0263008D01*
X0034730Y0255817D02*
X0009257Y0255817D01*
X0009257Y0245030D02*
X0012562Y0245030D01*
X0012033Y0244811D02*
X0010807Y0243586D01*
X0010144Y0241985D01*
X0010144Y0240252D01*
X0010807Y0238651D01*
X0012033Y0237425D01*
X0013634Y0236762D01*
X0015366Y0236762D01*
X0016967Y0237425D01*
X0018193Y0238651D01*
X0018856Y0240252D01*
X0018856Y0241985D01*
X0018193Y0243586D01*
X0016967Y0244811D01*
X0015366Y0245474D01*
X0013634Y0245474D01*
X0012033Y0244811D01*
X0011053Y0243832D02*
X0009257Y0243832D01*
X0009257Y0242633D02*
X0010413Y0242633D01*
X0010144Y0241435D02*
X0009257Y0241435D01*
X0009257Y0240236D02*
X0010150Y0240236D01*
X0010647Y0239038D02*
X0009257Y0239038D01*
X0009257Y0237839D02*
X0011619Y0237839D01*
X0009257Y0236641D02*
X0033635Y0236641D01*
X0033718Y0235442D02*
X0009257Y0235442D01*
X0009257Y0234244D02*
X0034347Y0234244D01*
X0035902Y0233045D02*
X0009257Y0233045D01*
X0009257Y0231847D02*
X0034185Y0231847D01*
X0033651Y0230648D02*
X0009257Y0230648D01*
X0009257Y0229450D02*
X0033635Y0229450D01*
X0034087Y0228251D02*
X0009257Y0228251D01*
X0009257Y0227053D02*
X0035552Y0227053D01*
X0036925Y0225854D02*
X0009257Y0225854D01*
X0009257Y0224656D02*
X0037636Y0224656D01*
X0042309Y0224656D02*
X0058567Y0224656D01*
X0058163Y0223457D02*
X0009257Y0223457D01*
X0009257Y0222259D02*
X0058227Y0222259D01*
X0058830Y0221060D02*
X0009257Y0221060D01*
X0009257Y0219862D02*
X0058578Y0219862D01*
X0057892Y0218663D02*
X0009257Y0218663D01*
X0009257Y0217465D02*
X0057769Y0217465D01*
X0058114Y0216266D02*
X0009257Y0216266D01*
X0017381Y0237839D02*
X0034020Y0237839D01*
X0035162Y0239038D02*
X0018353Y0239038D01*
X0018849Y0240236D02*
X0116470Y0240236D01*
X0116948Y0239038D02*
X0038484Y0239038D01*
X0039625Y0237839D02*
X0118541Y0237839D01*
X0120774Y0237839D02*
X0208153Y0237839D01*
X0208324Y0237668D02*
X0209496Y0237183D01*
X0210764Y0237183D01*
X0211935Y0237668D01*
X0212832Y0238565D01*
X0213317Y0239736D01*
X0213317Y0241004D01*
X0212832Y0242176D01*
X0211935Y0243072D01*
X0210764Y0243557D01*
X0209496Y0243557D01*
X0208324Y0243072D01*
X0207428Y0242176D01*
X0206943Y0241004D01*
X0206943Y0239736D01*
X0207428Y0238565D01*
X0208324Y0237668D01*
X0207232Y0239038D02*
X0122366Y0239038D01*
X0122845Y0240236D02*
X0206943Y0240236D01*
X0207121Y0241435D02*
X0122845Y0241435D01*
X0122359Y0242633D02*
X0207885Y0242633D01*
X0212374Y0242633D02*
X0351577Y0242633D01*
X0351577Y0241435D02*
X0213139Y0241435D01*
X0213317Y0240236D02*
X0351577Y0240236D01*
X0351577Y0239038D02*
X0213028Y0239038D01*
X0212107Y0237839D02*
X0351577Y0237839D01*
X0351577Y0236641D02*
X0040010Y0236641D01*
X0037904Y0241435D02*
X0018856Y0241435D01*
X0018587Y0242633D02*
X0037013Y0242633D01*
X0036746Y0243832D02*
X0017947Y0243832D01*
X0016438Y0245030D02*
X0034309Y0245030D01*
X0043020Y0225854D02*
X0059798Y0225854D01*
X0066763Y0200685D02*
X0316380Y0200685D01*
X0316416Y0199487D02*
X0067517Y0199487D01*
X0067687Y0198288D02*
X0283276Y0198288D01*
X0282299Y0197090D02*
X0067390Y0197090D01*
X0057373Y0191097D02*
X0009257Y0191097D01*
X0009257Y0189899D02*
X0056816Y0189899D01*
X0056785Y0188700D02*
X0009257Y0188700D01*
X0009257Y0187502D02*
X0043157Y0187502D01*
X0043406Y0187605D02*
X0042017Y0187030D01*
X0040955Y0185967D01*
X0040380Y0184578D01*
X0040380Y0183075D01*
X0040955Y0181687D01*
X0042017Y0180624D01*
X0043406Y0180049D01*
X0044909Y0180049D01*
X0046298Y0180624D01*
X0046657Y0180984D01*
X0047017Y0180624D01*
X0048406Y0180049D01*
X0049909Y0180049D01*
X0051298Y0180624D01*
X0052360Y0181687D01*
X0052935Y0183075D01*
X0052935Y0184578D01*
X0052360Y0185967D01*
X0051298Y0187030D01*
X0049909Y0187605D01*
X0048406Y0187605D01*
X0047017Y0187030D01*
X0046657Y0186670D01*
X0046298Y0187030D01*
X0044909Y0187605D01*
X0043406Y0187605D01*
X0045158Y0187502D02*
X0048157Y0187502D01*
X0050158Y0187502D02*
X0057221Y0187502D01*
X0058610Y0186303D02*
X0052024Y0186303D01*
X0052717Y0185105D02*
X0058492Y0185105D01*
X0058163Y0183906D02*
X0052935Y0183906D01*
X0052783Y0182708D02*
X0058302Y0182708D01*
X0059011Y0181509D02*
X0052183Y0181509D01*
X0050541Y0180311D02*
X0061313Y0180311D01*
X0061801Y0179112D02*
X0009257Y0179112D01*
X0009257Y0180311D02*
X0042774Y0180311D01*
X0041132Y0181509D02*
X0009257Y0181509D01*
X0009257Y0182708D02*
X0040532Y0182708D01*
X0040380Y0183906D02*
X0009257Y0183906D01*
X0009257Y0185105D02*
X0040598Y0185105D01*
X0041291Y0186303D02*
X0009257Y0186303D01*
X0045541Y0180311D02*
X0047774Y0180311D01*
X0057899Y0165929D02*
X0300969Y0165929D01*
X0300813Y0164730D02*
X0288817Y0164730D01*
X0290527Y0163531D02*
X0300978Y0163531D01*
X0301530Y0162333D02*
X0291058Y0162333D01*
X0291070Y0161134D02*
X0302936Y0161134D01*
X0306851Y0161134D02*
X0312779Y0161134D01*
X0312425Y0161281D02*
X0313925Y0160660D01*
X0315548Y0160660D01*
X0317048Y0161281D01*
X0318195Y0162429D01*
X0318817Y0163929D01*
X0318817Y0165552D01*
X0318195Y0167051D01*
X0317048Y0168199D01*
X0315548Y0168820D01*
X0313925Y0168820D01*
X0312425Y0168199D01*
X0311277Y0167051D01*
X0310656Y0165552D01*
X0310656Y0163929D01*
X0311277Y0162429D01*
X0312425Y0161281D01*
X0311373Y0162333D02*
X0308257Y0162333D01*
X0308810Y0163531D02*
X0310820Y0163531D01*
X0310656Y0164730D02*
X0308974Y0164730D01*
X0308818Y0165929D02*
X0310812Y0165929D01*
X0311353Y0167127D02*
X0308277Y0167127D01*
X0306900Y0168326D02*
X0312730Y0168326D01*
X0316743Y0168326D02*
X0322572Y0168326D01*
X0322267Y0168199D02*
X0321120Y0167051D01*
X0320498Y0165552D01*
X0320498Y0163929D01*
X0321120Y0162429D01*
X0322267Y0161281D01*
X0323767Y0160660D01*
X0325390Y0160660D01*
X0326890Y0161281D01*
X0328038Y0162429D01*
X0328659Y0163929D01*
X0328659Y0165552D01*
X0328038Y0167051D01*
X0326890Y0168199D01*
X0325390Y0168820D01*
X0323767Y0168820D01*
X0322267Y0168199D01*
X0321195Y0167127D02*
X0318120Y0167127D01*
X0318660Y0165929D02*
X0320654Y0165929D01*
X0320498Y0164730D02*
X0318817Y0164730D01*
X0318652Y0163531D02*
X0320663Y0163531D01*
X0321215Y0162333D02*
X0318099Y0162333D01*
X0316694Y0161134D02*
X0322621Y0161134D01*
X0326536Y0161134D02*
X0332510Y0161134D01*
X0332283Y0161250D02*
X0332855Y0160959D01*
X0333466Y0160760D01*
X0334100Y0160660D01*
X0334135Y0160660D01*
X0334135Y0164454D01*
X0330341Y0164454D01*
X0330341Y0164419D01*
X0330441Y0163785D01*
X0330640Y0163174D01*
X0330931Y0162602D01*
X0331309Y0162082D01*
X0331763Y0161628D01*
X0332283Y0161250D01*
X0331127Y0162333D02*
X0327942Y0162333D01*
X0328495Y0163531D02*
X0330524Y0163531D01*
X0330341Y0165026D02*
X0334135Y0165026D01*
X0334135Y0164454D01*
X0334707Y0164454D01*
X0334707Y0160660D01*
X0334742Y0160660D01*
X0335377Y0160760D01*
X0335988Y0160959D01*
X0336560Y0161250D01*
X0337079Y0161628D01*
X0337534Y0162082D01*
X0337911Y0162602D01*
X0338203Y0163174D01*
X0338401Y0163785D01*
X0338502Y0164419D01*
X0338502Y0164454D01*
X0334707Y0164454D01*
X0334707Y0165026D01*
X0334135Y0165026D01*
X0334135Y0168820D01*
X0334100Y0168820D01*
X0333466Y0168720D01*
X0332855Y0168522D01*
X0332283Y0168230D01*
X0331763Y0167852D01*
X0331309Y0167398D01*
X0330931Y0166879D01*
X0330640Y0166306D01*
X0330441Y0165696D01*
X0330341Y0165061D01*
X0330341Y0165026D01*
X0330517Y0165929D02*
X0328503Y0165929D01*
X0328659Y0164730D02*
X0334135Y0164730D01*
X0334707Y0164730D02*
X0351577Y0164730D01*
X0351577Y0163531D02*
X0338319Y0163531D01*
X0337716Y0162333D02*
X0351577Y0162333D01*
X0351577Y0161134D02*
X0336332Y0161134D01*
X0334707Y0161134D02*
X0334135Y0161134D01*
X0334135Y0162333D02*
X0334707Y0162333D01*
X0334707Y0163531D02*
X0334135Y0163531D01*
X0334707Y0165026D02*
X0338502Y0165026D01*
X0338502Y0165061D01*
X0338401Y0165696D01*
X0338203Y0166306D01*
X0337911Y0166879D01*
X0337534Y0167398D01*
X0337079Y0167852D01*
X0336560Y0168230D01*
X0335988Y0168522D01*
X0335377Y0168720D01*
X0334742Y0168820D01*
X0334707Y0168820D01*
X0334707Y0165026D01*
X0334707Y0165929D02*
X0334135Y0165929D01*
X0334135Y0167127D02*
X0334707Y0167127D01*
X0334707Y0168326D02*
X0334135Y0168326D01*
X0332470Y0168326D02*
X0326585Y0168326D01*
X0327962Y0167127D02*
X0331112Y0167127D01*
X0336372Y0168326D02*
X0351577Y0168326D01*
X0351577Y0167127D02*
X0337731Y0167127D01*
X0338325Y0165929D02*
X0351577Y0165929D01*
X0351577Y0159936D02*
X0290614Y0159936D01*
X0285626Y0149149D02*
X0259555Y0149149D01*
X0260089Y0147951D02*
X0284872Y0147951D01*
X0284702Y0146752D02*
X0260181Y0146752D01*
X0259829Y0145554D02*
X0284999Y0145554D01*
X0285754Y0144355D02*
X0258900Y0144355D01*
X0256695Y0144355D02*
X0256517Y0144355D01*
X0256517Y0145554D02*
X0256695Y0145554D01*
X0256695Y0146752D02*
X0256517Y0146752D01*
X0256517Y0147951D02*
X0256695Y0147951D01*
X0256695Y0149149D02*
X0256517Y0149149D01*
X0253658Y0149149D02*
X0249639Y0149149D01*
X0250136Y0147951D02*
X0253123Y0147951D01*
X0253032Y0146752D02*
X0250184Y0146752D01*
X0249829Y0145554D02*
X0253383Y0145554D01*
X0254313Y0144355D02*
X0248900Y0144355D01*
X0253531Y0151546D02*
X0259682Y0151546D01*
X0258511Y0152745D02*
X0254701Y0152745D01*
X0255184Y0153943D02*
X0258028Y0153943D01*
X0258028Y0155142D02*
X0255184Y0155142D01*
X0254767Y0156340D02*
X0258445Y0156340D01*
X0259463Y0157539D02*
X0253749Y0157539D01*
X0287886Y0141958D02*
X0287886Y0141958D01*
X0287886Y0140760D02*
X0287886Y0140760D01*
X0287886Y0139561D02*
X0287886Y0139561D01*
X0268816Y0111996D02*
X0264200Y0111996D01*
X0264733Y0111462D02*
X0263663Y0112533D01*
X0262265Y0113112D01*
X0260751Y0113112D01*
X0259353Y0112533D01*
X0258282Y0111462D01*
X0257703Y0110064D01*
X0257703Y0108550D01*
X0258282Y0107152D01*
X0259353Y0106082D01*
X0260751Y0105502D01*
X0262265Y0105502D01*
X0263663Y0106082D01*
X0264733Y0107152D01*
X0265313Y0108550D01*
X0265313Y0110064D01*
X0264733Y0111462D01*
X0265009Y0110797D02*
X0268007Y0110797D01*
X0267703Y0109598D02*
X0265313Y0109598D01*
X0265250Y0108400D02*
X0267765Y0108400D01*
X0268262Y0107201D02*
X0264754Y0107201D01*
X0263473Y0106003D02*
X0269543Y0106003D01*
X0270398Y0102966D02*
X0269706Y0102679D01*
X0269083Y0102262D01*
X0268553Y0101732D01*
X0268136Y0101109D01*
X0267849Y0100417D01*
X0267703Y0099682D01*
X0267703Y0099494D01*
X0271320Y0099494D01*
X0271320Y0099120D01*
X0267703Y0099120D01*
X0267703Y0098932D01*
X0267849Y0098197D01*
X0268136Y0097505D01*
X0268553Y0096882D01*
X0269083Y0096352D01*
X0269706Y0095935D01*
X0270398Y0095649D01*
X0271133Y0095502D01*
X0271320Y0095502D01*
X0271320Y0099120D01*
X0271695Y0099120D01*
X0271695Y0099494D01*
X0275313Y0099494D01*
X0275313Y0099682D01*
X0275166Y0100417D01*
X0274880Y0101109D01*
X0274463Y0101732D01*
X0273933Y0102262D01*
X0273310Y0102679D01*
X0272618Y0102966D01*
X0271883Y0103112D01*
X0271695Y0103112D01*
X0271695Y0099495D01*
X0271320Y0099495D01*
X0271320Y0103112D01*
X0271133Y0103112D01*
X0270398Y0102966D01*
X0271320Y0102407D02*
X0271695Y0102407D01*
X0271695Y0101209D02*
X0271320Y0101209D01*
X0271320Y0100010D02*
X0271695Y0100010D01*
X0271695Y0099120D02*
X0275313Y0099120D01*
X0275313Y0098932D01*
X0275166Y0098197D01*
X0274880Y0097505D01*
X0274463Y0096882D01*
X0273933Y0096352D01*
X0273310Y0095935D01*
X0272618Y0095649D01*
X0271883Y0095502D01*
X0271695Y0095502D01*
X0271695Y0099120D01*
X0271695Y0098812D02*
X0271320Y0098812D01*
X0271320Y0097613D02*
X0271695Y0097613D01*
X0271695Y0096415D02*
X0271320Y0096415D01*
X0269019Y0096415D02*
X0263996Y0096415D01*
X0263663Y0096082D02*
X0264733Y0097152D01*
X0265313Y0098550D01*
X0265313Y0100064D01*
X0264733Y0101462D01*
X0263663Y0102533D01*
X0262265Y0103112D01*
X0260751Y0103112D01*
X0259353Y0102533D01*
X0258282Y0101462D01*
X0257703Y0100064D01*
X0257703Y0098550D01*
X0258282Y0097152D01*
X0259353Y0096082D01*
X0260751Y0095502D01*
X0262265Y0095502D01*
X0263663Y0096082D01*
X0264925Y0097613D02*
X0268091Y0097613D01*
X0267727Y0098812D02*
X0265313Y0098812D01*
X0265313Y0100010D02*
X0267769Y0100010D01*
X0268203Y0101209D02*
X0264838Y0101209D01*
X0263788Y0102407D02*
X0269300Y0102407D01*
X0273716Y0102407D02*
X0393758Y0102407D01*
X0393758Y0101209D02*
X0274813Y0101209D01*
X0275247Y0100010D02*
X0393758Y0100010D01*
X0393758Y0098812D02*
X0275289Y0098812D01*
X0274925Y0097613D02*
X0393758Y0097613D01*
X0393758Y0096415D02*
X0273996Y0096415D01*
X0259019Y0096415D02*
X0253996Y0096415D01*
X0253663Y0096082D02*
X0254733Y0097152D01*
X0255313Y0098550D01*
X0255313Y0100064D01*
X0254733Y0101462D01*
X0253663Y0102533D01*
X0252265Y0103112D01*
X0250751Y0103112D01*
X0249353Y0102533D01*
X0248282Y0101462D01*
X0247703Y0100064D01*
X0247703Y0098550D01*
X0248282Y0097152D01*
X0249353Y0096082D01*
X0250751Y0095502D01*
X0252265Y0095502D01*
X0253663Y0096082D01*
X0254925Y0097613D02*
X0258091Y0097613D01*
X0257703Y0098812D02*
X0255313Y0098812D01*
X0255313Y0100010D02*
X0257703Y0100010D01*
X0258177Y0101209D02*
X0254838Y0101209D01*
X0253788Y0102407D02*
X0259228Y0102407D01*
X0259543Y0106003D02*
X0253473Y0106003D01*
X0253663Y0106082D02*
X0254733Y0107152D01*
X0255313Y0108550D01*
X0255313Y0110064D01*
X0254733Y0111462D01*
X0253663Y0112533D01*
X0252265Y0113112D01*
X0250751Y0113112D01*
X0249353Y0112533D01*
X0248282Y0111462D01*
X0247703Y0110064D01*
X0247703Y0108550D01*
X0248282Y0107152D01*
X0249353Y0106082D01*
X0250751Y0105502D01*
X0252265Y0105502D01*
X0253663Y0106082D01*
X0254754Y0107201D02*
X0258262Y0107201D01*
X0257765Y0108400D02*
X0255250Y0108400D01*
X0255313Y0109598D02*
X0257703Y0109598D01*
X0258007Y0110797D02*
X0255009Y0110797D01*
X0254200Y0111996D02*
X0258816Y0111996D01*
X0248816Y0111996D02*
X0244200Y0111996D01*
X0244463Y0111732D02*
X0243933Y0112262D01*
X0243310Y0112679D01*
X0242618Y0112966D01*
X0241883Y0113112D01*
X0241695Y0113112D01*
X0241695Y0109495D01*
X0241320Y0109495D01*
X0241320Y0113112D01*
X0241133Y0113112D01*
X0240398Y0112966D01*
X0239706Y0112679D01*
X0239083Y0112262D01*
X0238553Y0111732D01*
X0238136Y0111109D01*
X0237849Y0110417D01*
X0237703Y0109682D01*
X0237703Y0109494D01*
X0241320Y0109494D01*
X0241320Y0109120D01*
X0237703Y0109120D01*
X0237703Y0108932D01*
X0237849Y0108197D01*
X0238136Y0107505D01*
X0238553Y0106882D01*
X0239083Y0106352D01*
X0239706Y0105935D01*
X0240398Y0105649D01*
X0241133Y0105502D01*
X0241320Y0105502D01*
X0241320Y0109120D01*
X0241695Y0109120D01*
X0241695Y0109494D01*
X0245313Y0109494D01*
X0245313Y0109682D01*
X0245166Y0110417D01*
X0244880Y0111109D01*
X0244463Y0111732D01*
X0245009Y0110797D02*
X0248007Y0110797D01*
X0247703Y0109598D02*
X0245313Y0109598D01*
X0245313Y0109120D02*
X0241695Y0109120D01*
X0241695Y0105502D01*
X0241883Y0105502D01*
X0242618Y0105649D01*
X0243310Y0105935D01*
X0243933Y0106352D01*
X0244463Y0106882D01*
X0244880Y0107505D01*
X0245166Y0108197D01*
X0245313Y0108932D01*
X0245313Y0109120D01*
X0245207Y0108400D02*
X0247765Y0108400D01*
X0248262Y0107201D02*
X0244677Y0107201D01*
X0243411Y0106003D02*
X0249543Y0106003D01*
X0249228Y0102407D02*
X0243788Y0102407D01*
X0243663Y0102533D02*
X0242265Y0103112D01*
X0240751Y0103112D01*
X0239353Y0102533D01*
X0238282Y0101462D01*
X0237703Y0100064D01*
X0237703Y0098550D01*
X0238282Y0097152D01*
X0239353Y0096082D01*
X0240751Y0095502D01*
X0242265Y0095502D01*
X0243663Y0096082D01*
X0244733Y0097152D01*
X0245313Y0098550D01*
X0245313Y0100064D01*
X0244733Y0101462D01*
X0243663Y0102533D01*
X0244838Y0101209D02*
X0248177Y0101209D01*
X0247703Y0100010D02*
X0245313Y0100010D01*
X0245313Y0098812D02*
X0247703Y0098812D01*
X0248091Y0097613D02*
X0244925Y0097613D01*
X0243996Y0096415D02*
X0249019Y0096415D01*
X0239228Y0102407D02*
X0233788Y0102407D01*
X0233663Y0102533D02*
X0232265Y0103112D01*
X0230751Y0103112D01*
X0229353Y0102533D01*
X0228282Y0101462D01*
X0227703Y0100064D01*
X0227703Y0098550D01*
X0228282Y0097152D01*
X0229353Y0096082D01*
X0230751Y0095502D01*
X0232265Y0095502D01*
X0233663Y0096082D01*
X0234733Y0097152D01*
X0235313Y0098550D01*
X0235313Y0100064D01*
X0234733Y0101462D01*
X0233663Y0102533D01*
X0234838Y0101209D02*
X0238177Y0101209D01*
X0237703Y0100010D02*
X0235313Y0100010D01*
X0235313Y0098812D02*
X0237703Y0098812D01*
X0238091Y0097613D02*
X0234925Y0097613D01*
X0233996Y0096415D02*
X0239019Y0096415D01*
X0229019Y0096415D02*
X0223996Y0096415D01*
X0223663Y0096082D02*
X0224733Y0097152D01*
X0225313Y0098550D01*
X0225313Y0100064D01*
X0224733Y0101462D01*
X0223663Y0102533D01*
X0222265Y0103112D01*
X0220751Y0103112D01*
X0219353Y0102533D01*
X0218282Y0101462D01*
X0217703Y0100064D01*
X0217703Y0098550D01*
X0218282Y0097152D01*
X0219353Y0096082D01*
X0220751Y0095502D01*
X0222265Y0095502D01*
X0223663Y0096082D01*
X0224925Y0097613D02*
X0228091Y0097613D01*
X0227703Y0098812D02*
X0225313Y0098812D01*
X0225313Y0100010D02*
X0227703Y0100010D01*
X0228177Y0101209D02*
X0224838Y0101209D01*
X0223788Y0102407D02*
X0229228Y0102407D01*
X0230751Y0105502D02*
X0232265Y0105502D01*
X0233663Y0106082D01*
X0234733Y0107152D01*
X0235313Y0108550D01*
X0235313Y0110064D01*
X0234733Y0111462D01*
X0233663Y0112533D01*
X0232265Y0113112D01*
X0230751Y0113112D01*
X0229353Y0112533D01*
X0228282Y0111462D01*
X0227703Y0110064D01*
X0227703Y0108550D01*
X0228282Y0107152D01*
X0229353Y0106082D01*
X0230751Y0105502D01*
X0229543Y0106003D02*
X0223411Y0106003D01*
X0223310Y0105935D02*
X0223933Y0106352D01*
X0224463Y0106882D01*
X0224880Y0107505D01*
X0225166Y0108197D01*
X0225313Y0108932D01*
X0225313Y0109120D01*
X0221695Y0109120D01*
X0221695Y0109494D01*
X0225313Y0109494D01*
X0225313Y0109682D01*
X0225166Y0110417D01*
X0224880Y0111109D01*
X0224463Y0111732D01*
X0223933Y0112262D01*
X0223310Y0112679D01*
X0222618Y0112966D01*
X0221883Y0113112D01*
X0221695Y0113112D01*
X0221695Y0109495D01*
X0221320Y0109495D01*
X0221320Y0113112D01*
X0221133Y0113112D01*
X0220398Y0112966D01*
X0219706Y0112679D01*
X0219083Y0112262D01*
X0218553Y0111732D01*
X0218136Y0111109D01*
X0217849Y0110417D01*
X0217703Y0109682D01*
X0217703Y0109494D01*
X0221320Y0109494D01*
X0221320Y0109120D01*
X0217703Y0109120D01*
X0217703Y0108932D01*
X0217849Y0108197D01*
X0218136Y0107505D01*
X0218553Y0106882D01*
X0219083Y0106352D01*
X0219706Y0105935D01*
X0220398Y0105649D01*
X0221133Y0105502D01*
X0221320Y0105502D01*
X0221320Y0109120D01*
X0221695Y0109120D01*
X0221695Y0105502D01*
X0221883Y0105502D01*
X0222618Y0105649D01*
X0223310Y0105935D01*
X0221695Y0106003D02*
X0221320Y0106003D01*
X0221320Y0107201D02*
X0221695Y0107201D01*
X0221695Y0108400D02*
X0221320Y0108400D01*
X0221320Y0109598D02*
X0221695Y0109598D01*
X0221695Y0110797D02*
X0221320Y0110797D01*
X0221320Y0111996D02*
X0221695Y0111996D01*
X0224200Y0111996D02*
X0228816Y0111996D01*
X0228007Y0110797D02*
X0225009Y0110797D01*
X0225313Y0109598D02*
X0227703Y0109598D01*
X0227765Y0108400D02*
X0225207Y0108400D01*
X0224677Y0107201D02*
X0228262Y0107201D01*
X0233473Y0106003D02*
X0239605Y0106003D01*
X0241320Y0106003D02*
X0241695Y0106003D01*
X0241695Y0107201D02*
X0241320Y0107201D01*
X0241320Y0108400D02*
X0241695Y0108400D01*
X0241695Y0109598D02*
X0241320Y0109598D01*
X0241320Y0110797D02*
X0241695Y0110797D01*
X0241695Y0111996D02*
X0241320Y0111996D01*
X0238816Y0111996D02*
X0234200Y0111996D01*
X0235009Y0110797D02*
X0238007Y0110797D01*
X0237703Y0109598D02*
X0235313Y0109598D01*
X0235250Y0108400D02*
X0237809Y0108400D01*
X0238339Y0107201D02*
X0234754Y0107201D01*
X0219605Y0106003D02*
X0213473Y0106003D01*
X0213663Y0106082D02*
X0214733Y0107152D01*
X0215313Y0108550D01*
X0215313Y0110064D01*
X0214733Y0111462D01*
X0213663Y0112533D01*
X0212265Y0113112D01*
X0210751Y0113112D01*
X0209353Y0112533D01*
X0208282Y0111462D01*
X0207703Y0110064D01*
X0207703Y0108550D01*
X0208282Y0107152D01*
X0209353Y0106082D01*
X0210751Y0105502D01*
X0212265Y0105502D01*
X0213663Y0106082D01*
X0214754Y0107201D02*
X0218339Y0107201D01*
X0217809Y0108400D02*
X0215250Y0108400D01*
X0215313Y0109598D02*
X0217703Y0109598D01*
X0218007Y0110797D02*
X0215009Y0110797D01*
X0214200Y0111996D02*
X0218816Y0111996D01*
X0219228Y0102407D02*
X0213788Y0102407D01*
X0213663Y0102533D02*
X0212265Y0103112D01*
X0210751Y0103112D01*
X0209353Y0102533D01*
X0208282Y0101462D01*
X0207703Y0100064D01*
X0207703Y0098550D01*
X0208282Y0097152D01*
X0209353Y0096082D01*
X0210751Y0095502D01*
X0212265Y0095502D01*
X0213663Y0096082D01*
X0214733Y0097152D01*
X0215313Y0098550D01*
X0215313Y0100064D01*
X0214733Y0101462D01*
X0213663Y0102533D01*
X0214838Y0101209D02*
X0218177Y0101209D01*
X0217703Y0100010D02*
X0215313Y0100010D01*
X0215313Y0098812D02*
X0217703Y0098812D01*
X0218091Y0097613D02*
X0214925Y0097613D01*
X0213996Y0096415D02*
X0219019Y0096415D01*
X0209019Y0096415D02*
X0203996Y0096415D01*
X0203933Y0096352D02*
X0204463Y0096882D01*
X0204880Y0097505D01*
X0205166Y0098197D01*
X0205313Y0098932D01*
X0205313Y0099120D01*
X0201695Y0099120D01*
X0201695Y0099494D01*
X0205313Y0099494D01*
X0205313Y0099682D01*
X0205166Y0100417D01*
X0204880Y0101109D01*
X0204463Y0101732D01*
X0203933Y0102262D01*
X0203310Y0102679D01*
X0202618Y0102966D01*
X0201883Y0103112D01*
X0201695Y0103112D01*
X0201695Y0099495D01*
X0201320Y0099495D01*
X0201320Y0103112D01*
X0201133Y0103112D01*
X0200398Y0102966D01*
X0199706Y0102679D01*
X0199083Y0102262D01*
X0198553Y0101732D01*
X0198136Y0101109D01*
X0197849Y0100417D01*
X0197703Y0099682D01*
X0197703Y0099494D01*
X0201320Y0099494D01*
X0201320Y0099120D01*
X0197703Y0099120D01*
X0197703Y0098932D01*
X0197849Y0098197D01*
X0198136Y0097505D01*
X0198553Y0096882D01*
X0199083Y0096352D01*
X0199706Y0095935D01*
X0200398Y0095649D01*
X0201133Y0095502D01*
X0201320Y0095502D01*
X0201320Y0099120D01*
X0201695Y0099120D01*
X0201695Y0095502D01*
X0201883Y0095502D01*
X0202618Y0095649D01*
X0203310Y0095935D01*
X0203933Y0096352D01*
X0204925Y0097613D02*
X0208091Y0097613D01*
X0207703Y0098812D02*
X0205289Y0098812D01*
X0205247Y0100010D02*
X0207703Y0100010D01*
X0208177Y0101209D02*
X0204813Y0101209D01*
X0203716Y0102407D02*
X0209228Y0102407D01*
X0209543Y0106003D02*
X0203473Y0106003D01*
X0203663Y0106082D02*
X0204733Y0107152D01*
X0205313Y0108550D01*
X0205313Y0110064D01*
X0204733Y0111462D01*
X0203663Y0112533D01*
X0202265Y0113112D01*
X0200751Y0113112D01*
X0199353Y0112533D01*
X0198282Y0111462D01*
X0197703Y0110064D01*
X0197703Y0108550D01*
X0198282Y0107152D01*
X0199353Y0106082D01*
X0200751Y0105502D01*
X0202265Y0105502D01*
X0203663Y0106082D01*
X0204754Y0107201D02*
X0208262Y0107201D01*
X0207765Y0108400D02*
X0205250Y0108400D01*
X0205313Y0109598D02*
X0207703Y0109598D01*
X0208007Y0110797D02*
X0205009Y0110797D01*
X0204200Y0111996D02*
X0208816Y0111996D01*
X0198816Y0111996D02*
X0194200Y0111996D01*
X0194733Y0111462D02*
X0193663Y0112533D01*
X0192265Y0113112D01*
X0190751Y0113112D01*
X0189353Y0112533D01*
X0188282Y0111462D01*
X0187703Y0110064D01*
X0187703Y0108550D01*
X0188282Y0107152D01*
X0189353Y0106082D01*
X0190751Y0105502D01*
X0192265Y0105502D01*
X0193663Y0106082D01*
X0194733Y0107152D01*
X0195313Y0108550D01*
X0195313Y0110064D01*
X0194733Y0111462D01*
X0195009Y0110797D02*
X0198007Y0110797D01*
X0197703Y0109598D02*
X0195313Y0109598D01*
X0195250Y0108400D02*
X0197765Y0108400D01*
X0198262Y0107201D02*
X0194754Y0107201D01*
X0193473Y0106003D02*
X0199543Y0106003D01*
X0199300Y0102407D02*
X0193788Y0102407D01*
X0193663Y0102533D02*
X0192265Y0103112D01*
X0190751Y0103112D01*
X0189353Y0102533D01*
X0188282Y0101462D01*
X0187703Y0100064D01*
X0187703Y0098550D01*
X0188282Y0097152D01*
X0189353Y0096082D01*
X0190751Y0095502D01*
X0192265Y0095502D01*
X0193663Y0096082D01*
X0194733Y0097152D01*
X0195313Y0098550D01*
X0195313Y0100064D01*
X0194733Y0101462D01*
X0193663Y0102533D01*
X0194838Y0101209D02*
X0198203Y0101209D01*
X0197769Y0100010D02*
X0195313Y0100010D01*
X0195313Y0098812D02*
X0197727Y0098812D01*
X0198091Y0097613D02*
X0194925Y0097613D01*
X0193996Y0096415D02*
X0199019Y0096415D01*
X0201320Y0096415D02*
X0201695Y0096415D01*
X0201695Y0097613D02*
X0201320Y0097613D01*
X0201320Y0098812D02*
X0201695Y0098812D01*
X0201695Y0100010D02*
X0201320Y0100010D01*
X0201320Y0101209D02*
X0201695Y0101209D01*
X0201695Y0102407D02*
X0201320Y0102407D01*
X0189228Y0102407D02*
X0183788Y0102407D01*
X0183663Y0102533D02*
X0182265Y0103112D01*
X0180751Y0103112D01*
X0179353Y0102533D01*
X0178282Y0101462D01*
X0177703Y0100064D01*
X0177703Y0098550D01*
X0178282Y0097152D01*
X0179353Y0096082D01*
X0180751Y0095502D01*
X0182265Y0095502D01*
X0183663Y0096082D01*
X0184733Y0097152D01*
X0185313Y0098550D01*
X0185313Y0100064D01*
X0184733Y0101462D01*
X0183663Y0102533D01*
X0184838Y0101209D02*
X0188177Y0101209D01*
X0187703Y0100010D02*
X0185313Y0100010D01*
X0185313Y0098812D02*
X0187703Y0098812D01*
X0188091Y0097613D02*
X0184925Y0097613D01*
X0183996Y0096415D02*
X0189019Y0096415D01*
X0183663Y0106082D02*
X0182265Y0105502D01*
X0180751Y0105502D01*
X0179353Y0106082D01*
X0178282Y0107152D01*
X0177703Y0108550D01*
X0177703Y0110064D01*
X0178282Y0111462D01*
X0179353Y0112533D01*
X0180751Y0113112D01*
X0182265Y0113112D01*
X0183663Y0112533D01*
X0184733Y0111462D01*
X0185313Y0110064D01*
X0185313Y0108550D01*
X0184733Y0107152D01*
X0183663Y0106082D01*
X0183473Y0106003D02*
X0189543Y0106003D01*
X0188262Y0107201D02*
X0184754Y0107201D01*
X0185250Y0108400D02*
X0187765Y0108400D01*
X0187703Y0109598D02*
X0185313Y0109598D01*
X0185009Y0110797D02*
X0188007Y0110797D01*
X0188816Y0111996D02*
X0184200Y0111996D01*
X0178816Y0111996D02*
X0174200Y0111996D01*
X0174463Y0111732D02*
X0173933Y0112262D01*
X0173310Y0112679D01*
X0172618Y0112966D01*
X0171883Y0113112D01*
X0171695Y0113112D01*
X0171695Y0109495D01*
X0171320Y0109495D01*
X0171320Y0113112D01*
X0171133Y0113112D01*
X0170398Y0112966D01*
X0169706Y0112679D01*
X0169083Y0112262D01*
X0168553Y0111732D01*
X0168136Y0111109D01*
X0167849Y0110417D01*
X0167703Y0109682D01*
X0167703Y0109494D01*
X0171320Y0109494D01*
X0171320Y0109120D01*
X0167703Y0109120D01*
X0167703Y0108932D01*
X0167849Y0108197D01*
X0168136Y0107505D01*
X0168553Y0106882D01*
X0169083Y0106352D01*
X0169706Y0105935D01*
X0170398Y0105649D01*
X0171133Y0105502D01*
X0171320Y0105502D01*
X0171320Y0109120D01*
X0171695Y0109120D01*
X0171695Y0109494D01*
X0175313Y0109494D01*
X0175313Y0109682D01*
X0175166Y0110417D01*
X0174880Y0111109D01*
X0174463Y0111732D01*
X0175009Y0110797D02*
X0178007Y0110797D01*
X0177703Y0109598D02*
X0175313Y0109598D01*
X0175313Y0109120D02*
X0171695Y0109120D01*
X0171695Y0105502D01*
X0171883Y0105502D01*
X0172618Y0105649D01*
X0173310Y0105935D01*
X0173933Y0106352D01*
X0174463Y0106882D01*
X0174880Y0107505D01*
X0175166Y0108197D01*
X0175313Y0108932D01*
X0175313Y0109120D01*
X0175207Y0108400D02*
X0177765Y0108400D01*
X0178262Y0107201D02*
X0174677Y0107201D01*
X0173411Y0106003D02*
X0179543Y0106003D01*
X0179228Y0102407D02*
X0173788Y0102407D01*
X0173663Y0102533D02*
X0172265Y0103112D01*
X0170751Y0103112D01*
X0169353Y0102533D01*
X0168282Y0101462D01*
X0167703Y0100064D01*
X0167703Y0098550D01*
X0168282Y0097152D01*
X0169353Y0096082D01*
X0170751Y0095502D01*
X0172265Y0095502D01*
X0173663Y0096082D01*
X0174733Y0097152D01*
X0175313Y0098550D01*
X0175313Y0100064D01*
X0174733Y0101462D01*
X0173663Y0102533D01*
X0174838Y0101209D02*
X0178177Y0101209D01*
X0177703Y0100010D02*
X0175313Y0100010D01*
X0175313Y0098812D02*
X0177703Y0098812D01*
X0178091Y0097613D02*
X0174925Y0097613D01*
X0173996Y0096415D02*
X0179019Y0096415D01*
X0169019Y0096415D02*
X0163996Y0096415D01*
X0163663Y0096082D02*
X0164733Y0097152D01*
X0165313Y0098550D01*
X0165313Y0100064D01*
X0164733Y0101462D01*
X0163663Y0102533D01*
X0162265Y0103112D01*
X0160751Y0103112D01*
X0159353Y0102533D01*
X0158282Y0101462D01*
X0157703Y0100064D01*
X0157703Y0098550D01*
X0158282Y0097152D01*
X0159353Y0096082D01*
X0160751Y0095502D01*
X0162265Y0095502D01*
X0163663Y0096082D01*
X0164925Y0097613D02*
X0168091Y0097613D01*
X0167703Y0098812D02*
X0165313Y0098812D01*
X0165313Y0100010D02*
X0167703Y0100010D01*
X0168177Y0101209D02*
X0164838Y0101209D01*
X0163788Y0102407D02*
X0169228Y0102407D01*
X0169605Y0106003D02*
X0163473Y0106003D01*
X0163663Y0106082D02*
X0162265Y0105502D01*
X0160751Y0105502D01*
X0159353Y0106082D01*
X0158282Y0107152D01*
X0157703Y0108550D01*
X0157703Y0110064D01*
X0158282Y0111462D01*
X0159353Y0112533D01*
X0160751Y0113112D01*
X0162265Y0113112D01*
X0163663Y0112533D01*
X0164733Y0111462D01*
X0165313Y0110064D01*
X0165313Y0108550D01*
X0164733Y0107152D01*
X0163663Y0106082D01*
X0164754Y0107201D02*
X0168339Y0107201D01*
X0167809Y0108400D02*
X0165250Y0108400D01*
X0165313Y0109598D02*
X0167703Y0109598D01*
X0168007Y0110797D02*
X0165009Y0110797D01*
X0164200Y0111996D02*
X0168816Y0111996D01*
X0171320Y0111996D02*
X0171695Y0111996D01*
X0171695Y0110797D02*
X0171320Y0110797D01*
X0171320Y0109598D02*
X0171695Y0109598D01*
X0171695Y0108400D02*
X0171320Y0108400D01*
X0171320Y0107201D02*
X0171695Y0107201D01*
X0171695Y0106003D02*
X0171320Y0106003D01*
X0159543Y0106003D02*
X0153473Y0106003D01*
X0153663Y0106082D02*
X0154733Y0107152D01*
X0155313Y0108550D01*
X0155313Y0110064D01*
X0154733Y0111462D01*
X0153663Y0112533D01*
X0152265Y0113112D01*
X0150751Y0113112D01*
X0149353Y0112533D01*
X0148282Y0111462D01*
X0147703Y0110064D01*
X0147703Y0108550D01*
X0148282Y0107152D01*
X0149353Y0106082D01*
X0150751Y0105502D01*
X0152265Y0105502D01*
X0153663Y0106082D01*
X0154754Y0107201D02*
X0158262Y0107201D01*
X0157765Y0108400D02*
X0155250Y0108400D01*
X0155313Y0109598D02*
X0157703Y0109598D01*
X0158007Y0110797D02*
X0155009Y0110797D01*
X0154200Y0111996D02*
X0158816Y0111996D01*
X0159228Y0102407D02*
X0153788Y0102407D01*
X0153663Y0102533D02*
X0152265Y0103112D01*
X0150751Y0103112D01*
X0149353Y0102533D01*
X0148282Y0101462D01*
X0147703Y0100064D01*
X0147703Y0098550D01*
X0148282Y0097152D01*
X0149353Y0096082D01*
X0150751Y0095502D01*
X0152265Y0095502D01*
X0153663Y0096082D01*
X0154733Y0097152D01*
X0155313Y0098550D01*
X0155313Y0100064D01*
X0154733Y0101462D01*
X0153663Y0102533D01*
X0154838Y0101209D02*
X0158177Y0101209D01*
X0157703Y0100010D02*
X0155313Y0100010D01*
X0155313Y0098812D02*
X0157703Y0098812D01*
X0158091Y0097613D02*
X0154925Y0097613D01*
X0153996Y0096415D02*
X0159019Y0096415D01*
X0149019Y0096415D02*
X0143996Y0096415D01*
X0143663Y0096082D02*
X0144733Y0097152D01*
X0145313Y0098550D01*
X0145313Y0100064D01*
X0144733Y0101462D01*
X0143663Y0102533D01*
X0142265Y0103112D01*
X0140751Y0103112D01*
X0139353Y0102533D01*
X0138282Y0101462D01*
X0137703Y0100064D01*
X0137703Y0098550D01*
X0138282Y0097152D01*
X0139353Y0096082D01*
X0140751Y0095502D01*
X0142265Y0095502D01*
X0143663Y0096082D01*
X0144925Y0097613D02*
X0148091Y0097613D01*
X0147703Y0098812D02*
X0145313Y0098812D01*
X0145313Y0100010D02*
X0147703Y0100010D01*
X0148177Y0101209D02*
X0144838Y0101209D01*
X0143788Y0102407D02*
X0149228Y0102407D01*
X0149543Y0106003D02*
X0143411Y0106003D01*
X0143310Y0105935D02*
X0143933Y0106352D01*
X0144463Y0106882D01*
X0144880Y0107505D01*
X0145166Y0108197D01*
X0145313Y0108932D01*
X0145313Y0109120D01*
X0141695Y0109120D01*
X0141695Y0109494D01*
X0145313Y0109494D01*
X0145313Y0109682D01*
X0145166Y0110417D01*
X0144880Y0111109D01*
X0144463Y0111732D01*
X0143933Y0112262D01*
X0143310Y0112679D01*
X0142618Y0112966D01*
X0141883Y0113112D01*
X0141695Y0113112D01*
X0141695Y0109495D01*
X0141320Y0109495D01*
X0141320Y0113112D01*
X0141133Y0113112D01*
X0140398Y0112966D01*
X0139706Y0112679D01*
X0139083Y0112262D01*
X0138553Y0111732D01*
X0138136Y0111109D01*
X0137849Y0110417D01*
X0137703Y0109682D01*
X0137703Y0109494D01*
X0141320Y0109494D01*
X0141320Y0109120D01*
X0137703Y0109120D01*
X0137703Y0108932D01*
X0137849Y0108197D01*
X0138136Y0107505D01*
X0138553Y0106882D01*
X0139083Y0106352D01*
X0139706Y0105935D01*
X0140398Y0105649D01*
X0141133Y0105502D01*
X0141320Y0105502D01*
X0141320Y0109120D01*
X0141695Y0109120D01*
X0141695Y0105502D01*
X0141883Y0105502D01*
X0142618Y0105649D01*
X0143310Y0105935D01*
X0141695Y0106003D02*
X0141320Y0106003D01*
X0141320Y0107201D02*
X0141695Y0107201D01*
X0141695Y0108400D02*
X0141320Y0108400D01*
X0141320Y0109598D02*
X0141695Y0109598D01*
X0141695Y0110797D02*
X0141320Y0110797D01*
X0141320Y0111996D02*
X0141695Y0111996D01*
X0144200Y0111996D02*
X0148816Y0111996D01*
X0148007Y0110797D02*
X0145009Y0110797D01*
X0145313Y0109598D02*
X0147703Y0109598D01*
X0147765Y0108400D02*
X0145207Y0108400D01*
X0144677Y0107201D02*
X0148262Y0107201D01*
X0139605Y0106003D02*
X0133473Y0106003D01*
X0133663Y0106082D02*
X0134733Y0107152D01*
X0135313Y0108550D01*
X0135313Y0110064D01*
X0134733Y0111462D01*
X0133663Y0112533D01*
X0132265Y0113112D01*
X0130751Y0113112D01*
X0129353Y0112533D01*
X0128282Y0111462D01*
X0127703Y0110064D01*
X0127703Y0108550D01*
X0128282Y0107152D01*
X0129353Y0106082D01*
X0130751Y0105502D01*
X0132265Y0105502D01*
X0133663Y0106082D01*
X0134754Y0107201D02*
X0138339Y0107201D01*
X0137809Y0108400D02*
X0135250Y0108400D01*
X0135313Y0109598D02*
X0137703Y0109598D01*
X0138007Y0110797D02*
X0135009Y0110797D01*
X0134200Y0111996D02*
X0138816Y0111996D01*
X0139228Y0102407D02*
X0133788Y0102407D01*
X0133663Y0102533D02*
X0132265Y0103112D01*
X0130751Y0103112D01*
X0129353Y0102533D01*
X0128282Y0101462D01*
X0127703Y0100064D01*
X0127703Y0098550D01*
X0128282Y0097152D01*
X0129353Y0096082D01*
X0130751Y0095502D01*
X0132265Y0095502D01*
X0133663Y0096082D01*
X0134733Y0097152D01*
X0135313Y0098550D01*
X0135313Y0100064D01*
X0134733Y0101462D01*
X0133663Y0102533D01*
X0134838Y0101209D02*
X0138177Y0101209D01*
X0137703Y0100010D02*
X0135313Y0100010D01*
X0135313Y0098812D02*
X0137703Y0098812D01*
X0138091Y0097613D02*
X0134925Y0097613D01*
X0133996Y0096415D02*
X0139019Y0096415D01*
X0129019Y0096415D02*
X0123996Y0096415D01*
X0123933Y0096352D02*
X0124463Y0096882D01*
X0124880Y0097505D01*
X0125166Y0098197D01*
X0125313Y0098932D01*
X0125313Y0099120D01*
X0121695Y0099120D01*
X0121695Y0099494D01*
X0125313Y0099494D01*
X0125313Y0099682D01*
X0125166Y0100417D01*
X0124880Y0101109D01*
X0124463Y0101732D01*
X0123933Y0102262D01*
X0123310Y0102679D01*
X0122618Y0102966D01*
X0121883Y0103112D01*
X0121695Y0103112D01*
X0121695Y0099495D01*
X0121320Y0099495D01*
X0121320Y0103112D01*
X0121133Y0103112D01*
X0120398Y0102966D01*
X0119706Y0102679D01*
X0119083Y0102262D01*
X0118553Y0101732D01*
X0118136Y0101109D01*
X0117849Y0100417D01*
X0117703Y0099682D01*
X0117703Y0099494D01*
X0121320Y0099494D01*
X0121320Y0099120D01*
X0117703Y0099120D01*
X0117703Y0098932D01*
X0117849Y0098197D01*
X0118136Y0097505D01*
X0118553Y0096882D01*
X0119083Y0096352D01*
X0119706Y0095935D01*
X0120398Y0095649D01*
X0121133Y0095502D01*
X0121320Y0095502D01*
X0121320Y0099120D01*
X0121695Y0099120D01*
X0121695Y0095502D01*
X0121883Y0095502D01*
X0122618Y0095649D01*
X0123310Y0095935D01*
X0123933Y0096352D01*
X0124925Y0097613D02*
X0128091Y0097613D01*
X0127703Y0098812D02*
X0125289Y0098812D01*
X0125247Y0100010D02*
X0127703Y0100010D01*
X0128177Y0101209D02*
X0124813Y0101209D01*
X0123716Y0102407D02*
X0129228Y0102407D01*
X0129543Y0106003D02*
X0123473Y0106003D01*
X0123663Y0106082D02*
X0124733Y0107152D01*
X0125313Y0108550D01*
X0125313Y0110064D01*
X0124733Y0111462D01*
X0123663Y0112533D01*
X0122265Y0113112D01*
X0120751Y0113112D01*
X0119353Y0112533D01*
X0118282Y0111462D01*
X0117703Y0110064D01*
X0117703Y0108550D01*
X0118282Y0107152D01*
X0119353Y0106082D01*
X0120751Y0105502D01*
X0122265Y0105502D01*
X0123663Y0106082D01*
X0124754Y0107201D02*
X0128262Y0107201D01*
X0127765Y0108400D02*
X0125250Y0108400D01*
X0125313Y0109598D02*
X0127703Y0109598D01*
X0128007Y0110797D02*
X0125009Y0110797D01*
X0124200Y0111996D02*
X0128816Y0111996D01*
X0118816Y0111996D02*
X0114200Y0111996D01*
X0114733Y0111462D02*
X0113663Y0112533D01*
X0112265Y0113112D01*
X0110751Y0113112D01*
X0109353Y0112533D01*
X0108282Y0111462D01*
X0107703Y0110064D01*
X0107703Y0108550D01*
X0108282Y0107152D01*
X0109353Y0106082D01*
X0110751Y0105502D01*
X0112265Y0105502D01*
X0113663Y0106082D01*
X0114733Y0107152D01*
X0115313Y0108550D01*
X0115313Y0110064D01*
X0114733Y0111462D01*
X0115009Y0110797D02*
X0118007Y0110797D01*
X0117703Y0109598D02*
X0115313Y0109598D01*
X0115250Y0108400D02*
X0117765Y0108400D01*
X0118262Y0107201D02*
X0114754Y0107201D01*
X0113473Y0106003D02*
X0119543Y0106003D01*
X0119300Y0102407D02*
X0113788Y0102407D01*
X0113663Y0102533D02*
X0112265Y0103112D01*
X0110751Y0103112D01*
X0109353Y0102533D01*
X0108282Y0101462D01*
X0107703Y0100064D01*
X0107703Y0098550D01*
X0108282Y0097152D01*
X0109353Y0096082D01*
X0110751Y0095502D01*
X0112265Y0095502D01*
X0113663Y0096082D01*
X0114733Y0097152D01*
X0115313Y0098550D01*
X0115313Y0100064D01*
X0114733Y0101462D01*
X0113663Y0102533D01*
X0114838Y0101209D02*
X0118203Y0101209D01*
X0117769Y0100010D02*
X0115313Y0100010D01*
X0115313Y0098812D02*
X0117727Y0098812D01*
X0118091Y0097613D02*
X0114925Y0097613D01*
X0113996Y0096415D02*
X0119019Y0096415D01*
X0121320Y0096415D02*
X0121695Y0096415D01*
X0121695Y0097613D02*
X0121320Y0097613D01*
X0121320Y0098812D02*
X0121695Y0098812D01*
X0121695Y0100010D02*
X0121320Y0100010D01*
X0121320Y0101209D02*
X0121695Y0101209D01*
X0121695Y0102407D02*
X0121320Y0102407D01*
X0109228Y0102407D02*
X0103788Y0102407D01*
X0103663Y0102533D02*
X0102265Y0103112D01*
X0100751Y0103112D01*
X0099353Y0102533D01*
X0098282Y0101462D01*
X0097703Y0100064D01*
X0097703Y0098550D01*
X0098282Y0097152D01*
X0099353Y0096082D01*
X0100751Y0095502D01*
X0102265Y0095502D01*
X0103663Y0096082D01*
X0104733Y0097152D01*
X0105313Y0098550D01*
X0105313Y0100064D01*
X0104733Y0101462D01*
X0103663Y0102533D01*
X0104838Y0101209D02*
X0108177Y0101209D01*
X0107703Y0100010D02*
X0105313Y0100010D01*
X0105313Y0098812D02*
X0107703Y0098812D01*
X0108091Y0097613D02*
X0104925Y0097613D01*
X0103996Y0096415D02*
X0109019Y0096415D01*
X0099019Y0096415D02*
X0093996Y0096415D01*
X0093663Y0096082D02*
X0094733Y0097152D01*
X0095313Y0098550D01*
X0095313Y0100064D01*
X0094733Y0101462D01*
X0093663Y0102533D01*
X0092265Y0103112D01*
X0090751Y0103112D01*
X0089353Y0102533D01*
X0088282Y0101462D01*
X0087703Y0100064D01*
X0087703Y0098550D01*
X0088282Y0097152D01*
X0089353Y0096082D01*
X0090751Y0095502D01*
X0092265Y0095502D01*
X0093663Y0096082D01*
X0094925Y0097613D02*
X0098091Y0097613D01*
X0097703Y0098812D02*
X0095313Y0098812D01*
X0095313Y0100010D02*
X0097703Y0100010D01*
X0098177Y0101209D02*
X0094838Y0101209D01*
X0093788Y0102407D02*
X0099228Y0102407D01*
X0100398Y0105649D02*
X0101133Y0105502D01*
X0101320Y0105502D01*
X0101320Y0109120D01*
X0097703Y0109120D01*
X0097703Y0108932D01*
X0097849Y0108197D01*
X0098136Y0107505D01*
X0098553Y0106882D01*
X0099083Y0106352D01*
X0099706Y0105935D01*
X0100398Y0105649D01*
X0099605Y0106003D02*
X0093473Y0106003D01*
X0093663Y0106082D02*
X0094733Y0107152D01*
X0095313Y0108550D01*
X0095313Y0110064D01*
X0094733Y0111462D01*
X0093663Y0112533D01*
X0092265Y0113112D01*
X0090751Y0113112D01*
X0089353Y0112533D01*
X0088282Y0111462D01*
X0087703Y0110064D01*
X0087703Y0108550D01*
X0088282Y0107152D01*
X0089353Y0106082D01*
X0090751Y0105502D01*
X0092265Y0105502D01*
X0093663Y0106082D01*
X0094754Y0107201D02*
X0098339Y0107201D01*
X0097809Y0108400D02*
X0095250Y0108400D01*
X0095313Y0109598D02*
X0097703Y0109598D01*
X0097703Y0109682D02*
X0097703Y0109494D01*
X0101320Y0109494D01*
X0101320Y0109120D01*
X0101695Y0109120D01*
X0101695Y0109494D01*
X0105313Y0109494D01*
X0105313Y0109682D01*
X0105166Y0110417D01*
X0104880Y0111109D01*
X0104463Y0111732D01*
X0103933Y0112262D01*
X0103310Y0112679D01*
X0102618Y0112966D01*
X0101883Y0113112D01*
X0101695Y0113112D01*
X0101695Y0109495D01*
X0101320Y0109495D01*
X0101320Y0113112D01*
X0101133Y0113112D01*
X0100398Y0112966D01*
X0099706Y0112679D01*
X0099083Y0112262D01*
X0098553Y0111732D01*
X0098136Y0111109D01*
X0097849Y0110417D01*
X0097703Y0109682D01*
X0098007Y0110797D02*
X0095009Y0110797D01*
X0094200Y0111996D02*
X0098816Y0111996D01*
X0101320Y0111996D02*
X0101695Y0111996D01*
X0101695Y0110797D02*
X0101320Y0110797D01*
X0101320Y0109598D02*
X0101695Y0109598D01*
X0101695Y0109120D02*
X0105313Y0109120D01*
X0105313Y0108932D01*
X0105166Y0108197D01*
X0104880Y0107505D01*
X0104463Y0106882D01*
X0103933Y0106352D01*
X0103310Y0105935D01*
X0102618Y0105649D01*
X0101883Y0105502D01*
X0101695Y0105502D01*
X0101695Y0109120D01*
X0101695Y0108400D02*
X0101320Y0108400D01*
X0101320Y0107201D02*
X0101695Y0107201D01*
X0101695Y0106003D02*
X0101320Y0106003D01*
X0103411Y0106003D02*
X0109543Y0106003D01*
X0108262Y0107201D02*
X0104677Y0107201D01*
X0105207Y0108400D02*
X0107765Y0108400D01*
X0107703Y0109598D02*
X0105313Y0109598D01*
X0105009Y0110797D02*
X0108007Y0110797D01*
X0108816Y0111996D02*
X0104200Y0111996D01*
X0088816Y0111996D02*
X0084200Y0111996D01*
X0085009Y0110797D02*
X0088007Y0110797D01*
X0087703Y0109598D02*
X0085313Y0109598D01*
X0085250Y0108400D02*
X0087765Y0108400D01*
X0088262Y0107201D02*
X0084754Y0107201D01*
X0083473Y0106003D02*
X0089543Y0106003D01*
X0089228Y0102407D02*
X0083788Y0102407D01*
X0083663Y0102533D02*
X0082265Y0103112D01*
X0080751Y0103112D01*
X0079353Y0102533D01*
X0078282Y0101462D01*
X0077703Y0100064D01*
X0077703Y0098550D01*
X0078282Y0097152D01*
X0079353Y0096082D01*
X0080751Y0095502D01*
X0082265Y0095502D01*
X0083663Y0096082D01*
X0084733Y0097152D01*
X0085313Y0098550D01*
X0085313Y0100064D01*
X0084733Y0101462D01*
X0083663Y0102533D01*
X0084838Y0101209D02*
X0088177Y0101209D01*
X0087703Y0100010D02*
X0085313Y0100010D01*
X0085313Y0098812D02*
X0087703Y0098812D01*
X0088091Y0097613D02*
X0084925Y0097613D01*
X0083996Y0096415D02*
X0089019Y0096415D01*
X0079019Y0096415D02*
X0017157Y0096415D01*
X0017157Y0097613D02*
X0078091Y0097613D01*
X0077703Y0098812D02*
X0017157Y0098812D01*
X0017157Y0100010D02*
X0077703Y0100010D01*
X0078177Y0101209D02*
X0017157Y0101209D01*
X0017157Y0102407D02*
X0079228Y0102407D01*
X0017157Y0095216D02*
X0393758Y0095216D01*
X0393758Y0094018D02*
X0017157Y0094018D01*
X0017157Y0092819D02*
X0393758Y0092819D01*
X0393758Y0091621D02*
X0017157Y0091621D01*
X0056844Y0159936D02*
X0063732Y0159936D01*
X0063143Y0161134D02*
X0058308Y0161134D01*
X0058835Y0162333D02*
X0063028Y0162333D01*
X0063317Y0163531D02*
X0058935Y0163531D01*
X0058665Y0164730D02*
X0064154Y0164730D01*
X0147767Y0223457D02*
X0148017Y0223457D01*
X0148083Y0224656D02*
X0148735Y0224656D01*
X0146873Y0245030D02*
X0311025Y0245030D01*
X0310576Y0246229D02*
X0147493Y0246229D01*
X0147569Y0247427D02*
X0310576Y0247427D01*
X0311027Y0248626D02*
X0147178Y0248626D01*
X0146007Y0249824D02*
X0312091Y0249824D01*
X0311029Y0251023D02*
X0146361Y0251023D01*
X0147150Y0252221D02*
X0310576Y0252221D01*
X0310576Y0253420D02*
X0149758Y0253420D01*
X0150607Y0254618D02*
X0311023Y0254618D01*
X0312083Y0255817D02*
X0150845Y0255817D01*
X0214963Y0266603D02*
X0351577Y0266603D01*
X0351577Y0265405D02*
X0215932Y0265405D01*
X0216254Y0264206D02*
X0351577Y0264206D01*
X0351577Y0263008D02*
X0216109Y0263008D01*
X0217420Y0222259D02*
X0219755Y0222259D01*
X0218843Y0221060D02*
X0217483Y0221060D01*
X0217078Y0219862D02*
X0218561Y0219862D01*
X0218746Y0218663D02*
X0215842Y0218663D01*
X0265322Y0206678D02*
X0297380Y0206678D01*
X0297419Y0205479D02*
X0265893Y0205479D01*
X0265935Y0204281D02*
X0297916Y0204281D01*
X0299118Y0203082D02*
X0265510Y0203082D01*
X0288039Y0198288D02*
X0316913Y0198288D01*
X0318100Y0197090D02*
X0289016Y0197090D01*
X0327405Y0177914D02*
X0331945Y0177914D01*
X0330897Y0179112D02*
X0328455Y0179112D01*
X0339623Y0229450D02*
X0351577Y0229450D01*
X0351577Y0230648D02*
X0340258Y0230648D01*
X0340435Y0231847D02*
X0351577Y0231847D01*
X0351577Y0233045D02*
X0340242Y0233045D01*
X0339583Y0234244D02*
X0351577Y0234244D01*
X0351577Y0235442D02*
X0337801Y0235442D01*
X0335514Y0235442D02*
X0331301Y0235442D01*
X0333083Y0234244D02*
X0333732Y0234244D01*
X0318091Y0249824D02*
X0316224Y0249824D01*
X0316222Y0249827D02*
X0317157Y0250762D01*
X0318093Y0249827D01*
X0317157Y0248891D01*
X0316222Y0249827D01*
X0316232Y0255817D02*
X0318083Y0255817D01*
X0385454Y0254618D02*
X0385829Y0254618D01*
X0385829Y0253420D02*
X0385454Y0253420D01*
X0385454Y0251023D02*
X0385829Y0251023D01*
X0385829Y0249824D02*
X0385454Y0249824D01*
X0389247Y0253420D02*
X0393758Y0253420D01*
X0393758Y0254618D02*
X0388585Y0254618D01*
X0393758Y0223457D02*
X0382140Y0223457D01*
X0385667Y0222259D02*
X0393758Y0222259D01*
X0393758Y0221060D02*
X0387570Y0221060D01*
X0388769Y0219862D02*
X0393758Y0219862D01*
X0393758Y0218663D02*
X0389712Y0218663D01*
X0390404Y0217465D02*
X0393758Y0217465D01*
X0393758Y0216266D02*
X0390936Y0216266D01*
X0391258Y0215067D02*
X0393758Y0215067D01*
X0393758Y0213869D02*
X0391541Y0213869D01*
X0391541Y0212670D02*
X0393758Y0212670D01*
X0393758Y0211472D02*
X0391541Y0211472D01*
X0391309Y0210273D02*
X0393758Y0210273D01*
X0393758Y0209075D02*
X0390988Y0209075D01*
X0390514Y0207876D02*
X0393758Y0207876D01*
X0393758Y0206678D02*
X0389822Y0206678D01*
X0388960Y0205479D02*
X0393758Y0205479D01*
X0393758Y0204281D02*
X0387762Y0204281D01*
X0385999Y0203082D02*
X0393758Y0203082D01*
X0393758Y0110797D02*
X0391993Y0110797D01*
X0392959Y0109598D02*
X0393758Y0109598D01*
X0393758Y0108400D02*
X0393456Y0108400D01*
X0393458Y0107201D02*
X0393758Y0107201D01*
X0393758Y0106003D02*
X0393186Y0106003D01*
X0393758Y0104804D02*
X0392539Y0104804D01*
X0393758Y0103606D02*
X0391017Y0103606D01*
X0115354Y0333720D02*
X0109737Y0333720D01*
X0109073Y0334919D02*
X0114776Y0334919D01*
D22*
X0129657Y0329827D03*
X0258657Y0328327D03*
X0308657Y0323327D03*
X0308657Y0313827D03*
X0328157Y0312827D03*
X0334657Y0312327D03*
X0334657Y0324327D03*
X0328157Y0323827D03*
X0331657Y0266827D03*
X0320157Y0252827D03*
X0314157Y0252827D03*
X0314157Y0246827D03*
X0320157Y0246827D03*
X0302657Y0266827D03*
D23*
X0057657Y0110827D03*
X0051657Y0117327D03*
M02*
