G75*
%MOIN*%
%OFA0B0*%
%FSLAX25Y25*%
%IPPOS*%
%LPD*%
%AMOC8*
5,1,8,0,0,1.08239X$1,22.5*
%
%ADD10C,0.00000*%
D10*
X0004657Y0086827D02*
X0004657Y0342732D01*
X0398358Y0342732D01*
X0398358Y0086827D01*
X0004657Y0086827D01*
X0357020Y0157693D02*
X0357020Y0204937D01*
X0356566Y0206827D02*
X0356568Y0206875D01*
X0356574Y0206923D01*
X0356584Y0206970D01*
X0356597Y0207016D01*
X0356615Y0207061D01*
X0356635Y0207105D01*
X0356660Y0207147D01*
X0356688Y0207186D01*
X0356718Y0207223D01*
X0356752Y0207257D01*
X0356789Y0207289D01*
X0356827Y0207318D01*
X0356868Y0207343D01*
X0356911Y0207365D01*
X0356956Y0207383D01*
X0357002Y0207397D01*
X0357049Y0207408D01*
X0357097Y0207415D01*
X0357145Y0207418D01*
X0357193Y0207417D01*
X0357241Y0207412D01*
X0357289Y0207403D01*
X0357335Y0207391D01*
X0357380Y0207374D01*
X0357424Y0207354D01*
X0357466Y0207331D01*
X0357506Y0207304D01*
X0357544Y0207274D01*
X0357579Y0207241D01*
X0357611Y0207205D01*
X0357641Y0207167D01*
X0357667Y0207126D01*
X0357689Y0207083D01*
X0357709Y0207039D01*
X0357724Y0206994D01*
X0357736Y0206947D01*
X0357744Y0206899D01*
X0357748Y0206851D01*
X0357748Y0206803D01*
X0357744Y0206755D01*
X0357736Y0206707D01*
X0357724Y0206660D01*
X0357709Y0206615D01*
X0357689Y0206571D01*
X0357667Y0206528D01*
X0357641Y0206487D01*
X0357611Y0206449D01*
X0357579Y0206413D01*
X0357544Y0206380D01*
X0357506Y0206350D01*
X0357466Y0206323D01*
X0357424Y0206300D01*
X0357380Y0206280D01*
X0357335Y0206263D01*
X0357289Y0206251D01*
X0357241Y0206242D01*
X0357193Y0206237D01*
X0357145Y0206236D01*
X0357097Y0206239D01*
X0357049Y0206246D01*
X0357002Y0206257D01*
X0356956Y0206271D01*
X0356911Y0206289D01*
X0356868Y0206311D01*
X0356827Y0206336D01*
X0356789Y0206365D01*
X0356752Y0206397D01*
X0356718Y0206431D01*
X0356688Y0206468D01*
X0356660Y0206507D01*
X0356635Y0206549D01*
X0356615Y0206593D01*
X0356597Y0206638D01*
X0356584Y0206684D01*
X0356574Y0206731D01*
X0356568Y0206779D01*
X0356566Y0206827D01*
X0356566Y0208827D02*
X0356568Y0208875D01*
X0356574Y0208923D01*
X0356584Y0208970D01*
X0356597Y0209016D01*
X0356615Y0209061D01*
X0356635Y0209105D01*
X0356660Y0209147D01*
X0356688Y0209186D01*
X0356718Y0209223D01*
X0356752Y0209257D01*
X0356789Y0209289D01*
X0356827Y0209318D01*
X0356868Y0209343D01*
X0356911Y0209365D01*
X0356956Y0209383D01*
X0357002Y0209397D01*
X0357049Y0209408D01*
X0357097Y0209415D01*
X0357145Y0209418D01*
X0357193Y0209417D01*
X0357241Y0209412D01*
X0357289Y0209403D01*
X0357335Y0209391D01*
X0357380Y0209374D01*
X0357424Y0209354D01*
X0357466Y0209331D01*
X0357506Y0209304D01*
X0357544Y0209274D01*
X0357579Y0209241D01*
X0357611Y0209205D01*
X0357641Y0209167D01*
X0357667Y0209126D01*
X0357689Y0209083D01*
X0357709Y0209039D01*
X0357724Y0208994D01*
X0357736Y0208947D01*
X0357744Y0208899D01*
X0357748Y0208851D01*
X0357748Y0208803D01*
X0357744Y0208755D01*
X0357736Y0208707D01*
X0357724Y0208660D01*
X0357709Y0208615D01*
X0357689Y0208571D01*
X0357667Y0208528D01*
X0357641Y0208487D01*
X0357611Y0208449D01*
X0357579Y0208413D01*
X0357544Y0208380D01*
X0357506Y0208350D01*
X0357466Y0208323D01*
X0357424Y0208300D01*
X0357380Y0208280D01*
X0357335Y0208263D01*
X0357289Y0208251D01*
X0357241Y0208242D01*
X0357193Y0208237D01*
X0357145Y0208236D01*
X0357097Y0208239D01*
X0357049Y0208246D01*
X0357002Y0208257D01*
X0356956Y0208271D01*
X0356911Y0208289D01*
X0356868Y0208311D01*
X0356827Y0208336D01*
X0356789Y0208365D01*
X0356752Y0208397D01*
X0356718Y0208431D01*
X0356688Y0208468D01*
X0356660Y0208507D01*
X0356635Y0208549D01*
X0356615Y0208593D01*
X0356597Y0208638D01*
X0356584Y0208684D01*
X0356574Y0208731D01*
X0356568Y0208779D01*
X0356566Y0208827D01*
X0356566Y0210827D02*
X0356568Y0210875D01*
X0356574Y0210923D01*
X0356584Y0210970D01*
X0356597Y0211016D01*
X0356615Y0211061D01*
X0356635Y0211105D01*
X0356660Y0211147D01*
X0356688Y0211186D01*
X0356718Y0211223D01*
X0356752Y0211257D01*
X0356789Y0211289D01*
X0356827Y0211318D01*
X0356868Y0211343D01*
X0356911Y0211365D01*
X0356956Y0211383D01*
X0357002Y0211397D01*
X0357049Y0211408D01*
X0357097Y0211415D01*
X0357145Y0211418D01*
X0357193Y0211417D01*
X0357241Y0211412D01*
X0357289Y0211403D01*
X0357335Y0211391D01*
X0357380Y0211374D01*
X0357424Y0211354D01*
X0357466Y0211331D01*
X0357506Y0211304D01*
X0357544Y0211274D01*
X0357579Y0211241D01*
X0357611Y0211205D01*
X0357641Y0211167D01*
X0357667Y0211126D01*
X0357689Y0211083D01*
X0357709Y0211039D01*
X0357724Y0210994D01*
X0357736Y0210947D01*
X0357744Y0210899D01*
X0357748Y0210851D01*
X0357748Y0210803D01*
X0357744Y0210755D01*
X0357736Y0210707D01*
X0357724Y0210660D01*
X0357709Y0210615D01*
X0357689Y0210571D01*
X0357667Y0210528D01*
X0357641Y0210487D01*
X0357611Y0210449D01*
X0357579Y0210413D01*
X0357544Y0210380D01*
X0357506Y0210350D01*
X0357466Y0210323D01*
X0357424Y0210300D01*
X0357380Y0210280D01*
X0357335Y0210263D01*
X0357289Y0210251D01*
X0357241Y0210242D01*
X0357193Y0210237D01*
X0357145Y0210236D01*
X0357097Y0210239D01*
X0357049Y0210246D01*
X0357002Y0210257D01*
X0356956Y0210271D01*
X0356911Y0210289D01*
X0356868Y0210311D01*
X0356827Y0210336D01*
X0356789Y0210365D01*
X0356752Y0210397D01*
X0356718Y0210431D01*
X0356688Y0210468D01*
X0356660Y0210507D01*
X0356635Y0210549D01*
X0356615Y0210593D01*
X0356597Y0210638D01*
X0356584Y0210684D01*
X0356574Y0210731D01*
X0356568Y0210779D01*
X0356566Y0210827D01*
X0357020Y0212811D02*
X0357020Y0334858D01*
X0357019Y0334858D02*
X0357021Y0334944D01*
X0357026Y0335030D01*
X0357036Y0335115D01*
X0357049Y0335200D01*
X0357066Y0335284D01*
X0357086Y0335368D01*
X0357110Y0335450D01*
X0357138Y0335531D01*
X0357169Y0335612D01*
X0357203Y0335690D01*
X0357241Y0335767D01*
X0357283Y0335843D01*
X0357327Y0335916D01*
X0357375Y0335987D01*
X0357426Y0336057D01*
X0357480Y0336124D01*
X0357536Y0336188D01*
X0357596Y0336250D01*
X0357658Y0336310D01*
X0357722Y0336366D01*
X0357789Y0336420D01*
X0357859Y0336471D01*
X0357930Y0336519D01*
X0358004Y0336563D01*
X0358079Y0336605D01*
X0358156Y0336643D01*
X0358234Y0336677D01*
X0358315Y0336708D01*
X0358396Y0336736D01*
X0358478Y0336760D01*
X0358562Y0336780D01*
X0358646Y0336797D01*
X0358731Y0336810D01*
X0358816Y0336820D01*
X0358902Y0336825D01*
X0358988Y0336827D01*
X0360957Y0336827D01*
X0361043Y0336825D01*
X0361129Y0336820D01*
X0361214Y0336810D01*
X0361299Y0336797D01*
X0361383Y0336780D01*
X0361467Y0336760D01*
X0361549Y0336736D01*
X0361630Y0336708D01*
X0361711Y0336677D01*
X0361789Y0336643D01*
X0361866Y0336605D01*
X0361942Y0336563D01*
X0362015Y0336519D01*
X0362086Y0336471D01*
X0362156Y0336420D01*
X0362223Y0336366D01*
X0362287Y0336310D01*
X0362349Y0336250D01*
X0362409Y0336188D01*
X0362465Y0336124D01*
X0362519Y0336057D01*
X0362570Y0335987D01*
X0362618Y0335916D01*
X0362662Y0335843D01*
X0362704Y0335767D01*
X0362742Y0335690D01*
X0362776Y0335612D01*
X0362807Y0335531D01*
X0362835Y0335450D01*
X0362859Y0335368D01*
X0362879Y0335284D01*
X0362896Y0335200D01*
X0362909Y0335115D01*
X0362919Y0335030D01*
X0362924Y0334944D01*
X0362926Y0334858D01*
X0362925Y0334858D02*
X0362925Y0212811D01*
X0362926Y0212811D02*
X0362924Y0212725D01*
X0362919Y0212639D01*
X0362909Y0212554D01*
X0362896Y0212469D01*
X0362879Y0212385D01*
X0362859Y0212301D01*
X0362835Y0212219D01*
X0362807Y0212138D01*
X0362776Y0212057D01*
X0362742Y0211979D01*
X0362704Y0211902D01*
X0362662Y0211827D01*
X0362618Y0211753D01*
X0362570Y0211682D01*
X0362519Y0211612D01*
X0362465Y0211545D01*
X0362409Y0211481D01*
X0362349Y0211419D01*
X0362287Y0211359D01*
X0362223Y0211303D01*
X0362156Y0211249D01*
X0362086Y0211198D01*
X0362015Y0211150D01*
X0361942Y0211106D01*
X0361866Y0211064D01*
X0361789Y0211026D01*
X0361711Y0210992D01*
X0361630Y0210961D01*
X0361549Y0210933D01*
X0361467Y0210909D01*
X0361383Y0210889D01*
X0361299Y0210872D01*
X0361214Y0210859D01*
X0361129Y0210849D01*
X0361043Y0210844D01*
X0360957Y0210842D01*
X0360957Y0210843D02*
X0358988Y0210843D01*
X0358988Y0210842D02*
X0358902Y0210844D01*
X0358816Y0210849D01*
X0358731Y0210859D01*
X0358646Y0210872D01*
X0358562Y0210889D01*
X0358478Y0210909D01*
X0358396Y0210933D01*
X0358315Y0210961D01*
X0358234Y0210992D01*
X0358156Y0211026D01*
X0358079Y0211064D01*
X0358004Y0211106D01*
X0357930Y0211150D01*
X0357859Y0211198D01*
X0357789Y0211249D01*
X0357722Y0211303D01*
X0357658Y0211359D01*
X0357596Y0211419D01*
X0357536Y0211481D01*
X0357480Y0211545D01*
X0357426Y0211612D01*
X0357375Y0211682D01*
X0357327Y0211753D01*
X0357283Y0211827D01*
X0357241Y0211902D01*
X0357203Y0211979D01*
X0357169Y0212057D01*
X0357138Y0212138D01*
X0357110Y0212219D01*
X0357086Y0212301D01*
X0357066Y0212385D01*
X0357049Y0212469D01*
X0357036Y0212554D01*
X0357026Y0212639D01*
X0357021Y0212725D01*
X0357019Y0212811D01*
X0362066Y0210827D02*
X0362068Y0210875D01*
X0362074Y0210923D01*
X0362084Y0210970D01*
X0362097Y0211016D01*
X0362115Y0211061D01*
X0362135Y0211105D01*
X0362160Y0211147D01*
X0362188Y0211186D01*
X0362218Y0211223D01*
X0362252Y0211257D01*
X0362289Y0211289D01*
X0362327Y0211318D01*
X0362368Y0211343D01*
X0362411Y0211365D01*
X0362456Y0211383D01*
X0362502Y0211397D01*
X0362549Y0211408D01*
X0362597Y0211415D01*
X0362645Y0211418D01*
X0362693Y0211417D01*
X0362741Y0211412D01*
X0362789Y0211403D01*
X0362835Y0211391D01*
X0362880Y0211374D01*
X0362924Y0211354D01*
X0362966Y0211331D01*
X0363006Y0211304D01*
X0363044Y0211274D01*
X0363079Y0211241D01*
X0363111Y0211205D01*
X0363141Y0211167D01*
X0363167Y0211126D01*
X0363189Y0211083D01*
X0363209Y0211039D01*
X0363224Y0210994D01*
X0363236Y0210947D01*
X0363244Y0210899D01*
X0363248Y0210851D01*
X0363248Y0210803D01*
X0363244Y0210755D01*
X0363236Y0210707D01*
X0363224Y0210660D01*
X0363209Y0210615D01*
X0363189Y0210571D01*
X0363167Y0210528D01*
X0363141Y0210487D01*
X0363111Y0210449D01*
X0363079Y0210413D01*
X0363044Y0210380D01*
X0363006Y0210350D01*
X0362966Y0210323D01*
X0362924Y0210300D01*
X0362880Y0210280D01*
X0362835Y0210263D01*
X0362789Y0210251D01*
X0362741Y0210242D01*
X0362693Y0210237D01*
X0362645Y0210236D01*
X0362597Y0210239D01*
X0362549Y0210246D01*
X0362502Y0210257D01*
X0362456Y0210271D01*
X0362411Y0210289D01*
X0362368Y0210311D01*
X0362327Y0210336D01*
X0362289Y0210365D01*
X0362252Y0210397D01*
X0362218Y0210431D01*
X0362188Y0210468D01*
X0362160Y0210507D01*
X0362135Y0210549D01*
X0362115Y0210593D01*
X0362097Y0210638D01*
X0362084Y0210684D01*
X0362074Y0210731D01*
X0362068Y0210779D01*
X0362066Y0210827D01*
X0362066Y0208827D02*
X0362068Y0208875D01*
X0362074Y0208923D01*
X0362084Y0208970D01*
X0362097Y0209016D01*
X0362115Y0209061D01*
X0362135Y0209105D01*
X0362160Y0209147D01*
X0362188Y0209186D01*
X0362218Y0209223D01*
X0362252Y0209257D01*
X0362289Y0209289D01*
X0362327Y0209318D01*
X0362368Y0209343D01*
X0362411Y0209365D01*
X0362456Y0209383D01*
X0362502Y0209397D01*
X0362549Y0209408D01*
X0362597Y0209415D01*
X0362645Y0209418D01*
X0362693Y0209417D01*
X0362741Y0209412D01*
X0362789Y0209403D01*
X0362835Y0209391D01*
X0362880Y0209374D01*
X0362924Y0209354D01*
X0362966Y0209331D01*
X0363006Y0209304D01*
X0363044Y0209274D01*
X0363079Y0209241D01*
X0363111Y0209205D01*
X0363141Y0209167D01*
X0363167Y0209126D01*
X0363189Y0209083D01*
X0363209Y0209039D01*
X0363224Y0208994D01*
X0363236Y0208947D01*
X0363244Y0208899D01*
X0363248Y0208851D01*
X0363248Y0208803D01*
X0363244Y0208755D01*
X0363236Y0208707D01*
X0363224Y0208660D01*
X0363209Y0208615D01*
X0363189Y0208571D01*
X0363167Y0208528D01*
X0363141Y0208487D01*
X0363111Y0208449D01*
X0363079Y0208413D01*
X0363044Y0208380D01*
X0363006Y0208350D01*
X0362966Y0208323D01*
X0362924Y0208300D01*
X0362880Y0208280D01*
X0362835Y0208263D01*
X0362789Y0208251D01*
X0362741Y0208242D01*
X0362693Y0208237D01*
X0362645Y0208236D01*
X0362597Y0208239D01*
X0362549Y0208246D01*
X0362502Y0208257D01*
X0362456Y0208271D01*
X0362411Y0208289D01*
X0362368Y0208311D01*
X0362327Y0208336D01*
X0362289Y0208365D01*
X0362252Y0208397D01*
X0362218Y0208431D01*
X0362188Y0208468D01*
X0362160Y0208507D01*
X0362135Y0208549D01*
X0362115Y0208593D01*
X0362097Y0208638D01*
X0362084Y0208684D01*
X0362074Y0208731D01*
X0362068Y0208779D01*
X0362066Y0208827D01*
X0362066Y0206827D02*
X0362068Y0206875D01*
X0362074Y0206923D01*
X0362084Y0206970D01*
X0362097Y0207016D01*
X0362115Y0207061D01*
X0362135Y0207105D01*
X0362160Y0207147D01*
X0362188Y0207186D01*
X0362218Y0207223D01*
X0362252Y0207257D01*
X0362289Y0207289D01*
X0362327Y0207318D01*
X0362368Y0207343D01*
X0362411Y0207365D01*
X0362456Y0207383D01*
X0362502Y0207397D01*
X0362549Y0207408D01*
X0362597Y0207415D01*
X0362645Y0207418D01*
X0362693Y0207417D01*
X0362741Y0207412D01*
X0362789Y0207403D01*
X0362835Y0207391D01*
X0362880Y0207374D01*
X0362924Y0207354D01*
X0362966Y0207331D01*
X0363006Y0207304D01*
X0363044Y0207274D01*
X0363079Y0207241D01*
X0363111Y0207205D01*
X0363141Y0207167D01*
X0363167Y0207126D01*
X0363189Y0207083D01*
X0363209Y0207039D01*
X0363224Y0206994D01*
X0363236Y0206947D01*
X0363244Y0206899D01*
X0363248Y0206851D01*
X0363248Y0206803D01*
X0363244Y0206755D01*
X0363236Y0206707D01*
X0363224Y0206660D01*
X0363209Y0206615D01*
X0363189Y0206571D01*
X0363167Y0206528D01*
X0363141Y0206487D01*
X0363111Y0206449D01*
X0363079Y0206413D01*
X0363044Y0206380D01*
X0363006Y0206350D01*
X0362966Y0206323D01*
X0362924Y0206300D01*
X0362880Y0206280D01*
X0362835Y0206263D01*
X0362789Y0206251D01*
X0362741Y0206242D01*
X0362693Y0206237D01*
X0362645Y0206236D01*
X0362597Y0206239D01*
X0362549Y0206246D01*
X0362502Y0206257D01*
X0362456Y0206271D01*
X0362411Y0206289D01*
X0362368Y0206311D01*
X0362327Y0206336D01*
X0362289Y0206365D01*
X0362252Y0206397D01*
X0362218Y0206431D01*
X0362188Y0206468D01*
X0362160Y0206507D01*
X0362135Y0206549D01*
X0362115Y0206593D01*
X0362097Y0206638D01*
X0362084Y0206684D01*
X0362074Y0206731D01*
X0362068Y0206779D01*
X0362066Y0206827D01*
X0360957Y0206906D02*
X0358988Y0206906D01*
X0358902Y0206904D01*
X0358816Y0206899D01*
X0358731Y0206889D01*
X0358646Y0206876D01*
X0358562Y0206859D01*
X0358478Y0206839D01*
X0358396Y0206815D01*
X0358315Y0206787D01*
X0358234Y0206756D01*
X0358156Y0206722D01*
X0358079Y0206684D01*
X0358004Y0206642D01*
X0357930Y0206598D01*
X0357859Y0206550D01*
X0357789Y0206499D01*
X0357722Y0206445D01*
X0357658Y0206389D01*
X0357596Y0206329D01*
X0357536Y0206267D01*
X0357480Y0206203D01*
X0357426Y0206136D01*
X0357375Y0206066D01*
X0357327Y0205995D01*
X0357283Y0205922D01*
X0357241Y0205846D01*
X0357203Y0205769D01*
X0357169Y0205691D01*
X0357138Y0205610D01*
X0357110Y0205529D01*
X0357086Y0205447D01*
X0357066Y0205363D01*
X0357049Y0205279D01*
X0357036Y0205194D01*
X0357026Y0205109D01*
X0357021Y0205023D01*
X0357019Y0204937D01*
X0360957Y0206906D02*
X0361043Y0206904D01*
X0361129Y0206899D01*
X0361214Y0206889D01*
X0361299Y0206876D01*
X0361383Y0206859D01*
X0361467Y0206839D01*
X0361549Y0206815D01*
X0361630Y0206787D01*
X0361711Y0206756D01*
X0361789Y0206722D01*
X0361866Y0206684D01*
X0361942Y0206642D01*
X0362015Y0206598D01*
X0362086Y0206550D01*
X0362156Y0206499D01*
X0362223Y0206445D01*
X0362287Y0206389D01*
X0362349Y0206329D01*
X0362409Y0206267D01*
X0362465Y0206203D01*
X0362519Y0206136D01*
X0362570Y0206066D01*
X0362618Y0205995D01*
X0362662Y0205922D01*
X0362704Y0205846D01*
X0362742Y0205769D01*
X0362776Y0205691D01*
X0362807Y0205610D01*
X0362835Y0205529D01*
X0362859Y0205447D01*
X0362879Y0205363D01*
X0362896Y0205279D01*
X0362909Y0205194D01*
X0362919Y0205109D01*
X0362924Y0205023D01*
X0362926Y0204937D01*
X0362925Y0204937D02*
X0362925Y0161630D01*
X0390484Y0161630D01*
X0390570Y0161628D01*
X0390656Y0161623D01*
X0390741Y0161613D01*
X0390826Y0161600D01*
X0390910Y0161583D01*
X0390994Y0161563D01*
X0391076Y0161539D01*
X0391157Y0161511D01*
X0391238Y0161480D01*
X0391316Y0161446D01*
X0391393Y0161408D01*
X0391469Y0161366D01*
X0391542Y0161322D01*
X0391613Y0161274D01*
X0391683Y0161223D01*
X0391750Y0161169D01*
X0391814Y0161113D01*
X0391876Y0161053D01*
X0391936Y0160991D01*
X0391992Y0160927D01*
X0392046Y0160860D01*
X0392097Y0160790D01*
X0392145Y0160719D01*
X0392189Y0160646D01*
X0392231Y0160570D01*
X0392269Y0160493D01*
X0392303Y0160415D01*
X0392334Y0160334D01*
X0392362Y0160253D01*
X0392386Y0160171D01*
X0392406Y0160087D01*
X0392423Y0160003D01*
X0392436Y0159918D01*
X0392446Y0159833D01*
X0392451Y0159747D01*
X0392453Y0159661D01*
X0392453Y0157693D01*
X0392566Y0156327D02*
X0392568Y0156375D01*
X0392574Y0156423D01*
X0392584Y0156470D01*
X0392597Y0156516D01*
X0392615Y0156561D01*
X0392635Y0156605D01*
X0392660Y0156647D01*
X0392688Y0156686D01*
X0392718Y0156723D01*
X0392752Y0156757D01*
X0392789Y0156789D01*
X0392827Y0156818D01*
X0392868Y0156843D01*
X0392911Y0156865D01*
X0392956Y0156883D01*
X0393002Y0156897D01*
X0393049Y0156908D01*
X0393097Y0156915D01*
X0393145Y0156918D01*
X0393193Y0156917D01*
X0393241Y0156912D01*
X0393289Y0156903D01*
X0393335Y0156891D01*
X0393380Y0156874D01*
X0393424Y0156854D01*
X0393466Y0156831D01*
X0393506Y0156804D01*
X0393544Y0156774D01*
X0393579Y0156741D01*
X0393611Y0156705D01*
X0393641Y0156667D01*
X0393667Y0156626D01*
X0393689Y0156583D01*
X0393709Y0156539D01*
X0393724Y0156494D01*
X0393736Y0156447D01*
X0393744Y0156399D01*
X0393748Y0156351D01*
X0393748Y0156303D01*
X0393744Y0156255D01*
X0393736Y0156207D01*
X0393724Y0156160D01*
X0393709Y0156115D01*
X0393689Y0156071D01*
X0393667Y0156028D01*
X0393641Y0155987D01*
X0393611Y0155949D01*
X0393579Y0155913D01*
X0393544Y0155880D01*
X0393506Y0155850D01*
X0393466Y0155823D01*
X0393424Y0155800D01*
X0393380Y0155780D01*
X0393335Y0155763D01*
X0393289Y0155751D01*
X0393241Y0155742D01*
X0393193Y0155737D01*
X0393145Y0155736D01*
X0393097Y0155739D01*
X0393049Y0155746D01*
X0393002Y0155757D01*
X0392956Y0155771D01*
X0392911Y0155789D01*
X0392868Y0155811D01*
X0392827Y0155836D01*
X0392789Y0155865D01*
X0392752Y0155897D01*
X0392718Y0155931D01*
X0392688Y0155968D01*
X0392660Y0156007D01*
X0392635Y0156049D01*
X0392615Y0156093D01*
X0392597Y0156138D01*
X0392584Y0156184D01*
X0392574Y0156231D01*
X0392568Y0156279D01*
X0392566Y0156327D01*
X0390484Y0155724D02*
X0358988Y0155724D01*
X0358902Y0155726D01*
X0358816Y0155731D01*
X0358731Y0155741D01*
X0358646Y0155754D01*
X0358562Y0155771D01*
X0358478Y0155791D01*
X0358396Y0155815D01*
X0358315Y0155843D01*
X0358234Y0155874D01*
X0358156Y0155908D01*
X0358079Y0155946D01*
X0358004Y0155988D01*
X0357930Y0156032D01*
X0357859Y0156080D01*
X0357789Y0156131D01*
X0357722Y0156185D01*
X0357658Y0156241D01*
X0357596Y0156301D01*
X0357536Y0156363D01*
X0357480Y0156427D01*
X0357426Y0156494D01*
X0357375Y0156564D01*
X0357327Y0156635D01*
X0357283Y0156709D01*
X0357241Y0156784D01*
X0357203Y0156861D01*
X0357169Y0156939D01*
X0357138Y0157020D01*
X0357110Y0157101D01*
X0357086Y0157183D01*
X0357066Y0157267D01*
X0357049Y0157351D01*
X0357036Y0157436D01*
X0357026Y0157521D01*
X0357021Y0157607D01*
X0357019Y0157693D01*
X0390484Y0155724D02*
X0390570Y0155726D01*
X0390656Y0155731D01*
X0390741Y0155741D01*
X0390826Y0155754D01*
X0390910Y0155771D01*
X0390994Y0155791D01*
X0391076Y0155815D01*
X0391157Y0155843D01*
X0391238Y0155874D01*
X0391316Y0155908D01*
X0391393Y0155946D01*
X0391469Y0155988D01*
X0391542Y0156032D01*
X0391613Y0156080D01*
X0391683Y0156131D01*
X0391750Y0156185D01*
X0391814Y0156241D01*
X0391876Y0156301D01*
X0391936Y0156363D01*
X0391992Y0156427D01*
X0392046Y0156494D01*
X0392097Y0156564D01*
X0392145Y0156635D01*
X0392189Y0156709D01*
X0392231Y0156784D01*
X0392269Y0156861D01*
X0392303Y0156939D01*
X0392334Y0157020D01*
X0392362Y0157101D01*
X0392386Y0157183D01*
X0392406Y0157267D01*
X0392423Y0157351D01*
X0392436Y0157436D01*
X0392446Y0157521D01*
X0392451Y0157607D01*
X0392453Y0157693D01*
X0394566Y0156327D02*
X0394568Y0156375D01*
X0394574Y0156423D01*
X0394584Y0156470D01*
X0394597Y0156516D01*
X0394615Y0156561D01*
X0394635Y0156605D01*
X0394660Y0156647D01*
X0394688Y0156686D01*
X0394718Y0156723D01*
X0394752Y0156757D01*
X0394789Y0156789D01*
X0394827Y0156818D01*
X0394868Y0156843D01*
X0394911Y0156865D01*
X0394956Y0156883D01*
X0395002Y0156897D01*
X0395049Y0156908D01*
X0395097Y0156915D01*
X0395145Y0156918D01*
X0395193Y0156917D01*
X0395241Y0156912D01*
X0395289Y0156903D01*
X0395335Y0156891D01*
X0395380Y0156874D01*
X0395424Y0156854D01*
X0395466Y0156831D01*
X0395506Y0156804D01*
X0395544Y0156774D01*
X0395579Y0156741D01*
X0395611Y0156705D01*
X0395641Y0156667D01*
X0395667Y0156626D01*
X0395689Y0156583D01*
X0395709Y0156539D01*
X0395724Y0156494D01*
X0395736Y0156447D01*
X0395744Y0156399D01*
X0395748Y0156351D01*
X0395748Y0156303D01*
X0395744Y0156255D01*
X0395736Y0156207D01*
X0395724Y0156160D01*
X0395709Y0156115D01*
X0395689Y0156071D01*
X0395667Y0156028D01*
X0395641Y0155987D01*
X0395611Y0155949D01*
X0395579Y0155913D01*
X0395544Y0155880D01*
X0395506Y0155850D01*
X0395466Y0155823D01*
X0395424Y0155800D01*
X0395380Y0155780D01*
X0395335Y0155763D01*
X0395289Y0155751D01*
X0395241Y0155742D01*
X0395193Y0155737D01*
X0395145Y0155736D01*
X0395097Y0155739D01*
X0395049Y0155746D01*
X0395002Y0155757D01*
X0394956Y0155771D01*
X0394911Y0155789D01*
X0394868Y0155811D01*
X0394827Y0155836D01*
X0394789Y0155865D01*
X0394752Y0155897D01*
X0394718Y0155931D01*
X0394688Y0155968D01*
X0394660Y0156007D01*
X0394635Y0156049D01*
X0394615Y0156093D01*
X0394597Y0156138D01*
X0394584Y0156184D01*
X0394574Y0156231D01*
X0394568Y0156279D01*
X0394566Y0156327D01*
X0396566Y0156327D02*
X0396568Y0156375D01*
X0396574Y0156423D01*
X0396584Y0156470D01*
X0396597Y0156516D01*
X0396615Y0156561D01*
X0396635Y0156605D01*
X0396660Y0156647D01*
X0396688Y0156686D01*
X0396718Y0156723D01*
X0396752Y0156757D01*
X0396789Y0156789D01*
X0396827Y0156818D01*
X0396868Y0156843D01*
X0396911Y0156865D01*
X0396956Y0156883D01*
X0397002Y0156897D01*
X0397049Y0156908D01*
X0397097Y0156915D01*
X0397145Y0156918D01*
X0397193Y0156917D01*
X0397241Y0156912D01*
X0397289Y0156903D01*
X0397335Y0156891D01*
X0397380Y0156874D01*
X0397424Y0156854D01*
X0397466Y0156831D01*
X0397506Y0156804D01*
X0397544Y0156774D01*
X0397579Y0156741D01*
X0397611Y0156705D01*
X0397641Y0156667D01*
X0397667Y0156626D01*
X0397689Y0156583D01*
X0397709Y0156539D01*
X0397724Y0156494D01*
X0397736Y0156447D01*
X0397744Y0156399D01*
X0397748Y0156351D01*
X0397748Y0156303D01*
X0397744Y0156255D01*
X0397736Y0156207D01*
X0397724Y0156160D01*
X0397709Y0156115D01*
X0397689Y0156071D01*
X0397667Y0156028D01*
X0397641Y0155987D01*
X0397611Y0155949D01*
X0397579Y0155913D01*
X0397544Y0155880D01*
X0397506Y0155850D01*
X0397466Y0155823D01*
X0397424Y0155800D01*
X0397380Y0155780D01*
X0397335Y0155763D01*
X0397289Y0155751D01*
X0397241Y0155742D01*
X0397193Y0155737D01*
X0397145Y0155736D01*
X0397097Y0155739D01*
X0397049Y0155746D01*
X0397002Y0155757D01*
X0396956Y0155771D01*
X0396911Y0155789D01*
X0396868Y0155811D01*
X0396827Y0155836D01*
X0396789Y0155865D01*
X0396752Y0155897D01*
X0396718Y0155931D01*
X0396688Y0155968D01*
X0396660Y0156007D01*
X0396635Y0156049D01*
X0396615Y0156093D01*
X0396597Y0156138D01*
X0396584Y0156184D01*
X0396574Y0156231D01*
X0396568Y0156279D01*
X0396566Y0156327D01*
X0396566Y0161327D02*
X0396568Y0161375D01*
X0396574Y0161423D01*
X0396584Y0161470D01*
X0396597Y0161516D01*
X0396615Y0161561D01*
X0396635Y0161605D01*
X0396660Y0161647D01*
X0396688Y0161686D01*
X0396718Y0161723D01*
X0396752Y0161757D01*
X0396789Y0161789D01*
X0396827Y0161818D01*
X0396868Y0161843D01*
X0396911Y0161865D01*
X0396956Y0161883D01*
X0397002Y0161897D01*
X0397049Y0161908D01*
X0397097Y0161915D01*
X0397145Y0161918D01*
X0397193Y0161917D01*
X0397241Y0161912D01*
X0397289Y0161903D01*
X0397335Y0161891D01*
X0397380Y0161874D01*
X0397424Y0161854D01*
X0397466Y0161831D01*
X0397506Y0161804D01*
X0397544Y0161774D01*
X0397579Y0161741D01*
X0397611Y0161705D01*
X0397641Y0161667D01*
X0397667Y0161626D01*
X0397689Y0161583D01*
X0397709Y0161539D01*
X0397724Y0161494D01*
X0397736Y0161447D01*
X0397744Y0161399D01*
X0397748Y0161351D01*
X0397748Y0161303D01*
X0397744Y0161255D01*
X0397736Y0161207D01*
X0397724Y0161160D01*
X0397709Y0161115D01*
X0397689Y0161071D01*
X0397667Y0161028D01*
X0397641Y0160987D01*
X0397611Y0160949D01*
X0397579Y0160913D01*
X0397544Y0160880D01*
X0397506Y0160850D01*
X0397466Y0160823D01*
X0397424Y0160800D01*
X0397380Y0160780D01*
X0397335Y0160763D01*
X0397289Y0160751D01*
X0397241Y0160742D01*
X0397193Y0160737D01*
X0397145Y0160736D01*
X0397097Y0160739D01*
X0397049Y0160746D01*
X0397002Y0160757D01*
X0396956Y0160771D01*
X0396911Y0160789D01*
X0396868Y0160811D01*
X0396827Y0160836D01*
X0396789Y0160865D01*
X0396752Y0160897D01*
X0396718Y0160931D01*
X0396688Y0160968D01*
X0396660Y0161007D01*
X0396635Y0161049D01*
X0396615Y0161093D01*
X0396597Y0161138D01*
X0396584Y0161184D01*
X0396574Y0161231D01*
X0396568Y0161279D01*
X0396566Y0161327D01*
X0394566Y0161327D02*
X0394568Y0161375D01*
X0394574Y0161423D01*
X0394584Y0161470D01*
X0394597Y0161516D01*
X0394615Y0161561D01*
X0394635Y0161605D01*
X0394660Y0161647D01*
X0394688Y0161686D01*
X0394718Y0161723D01*
X0394752Y0161757D01*
X0394789Y0161789D01*
X0394827Y0161818D01*
X0394868Y0161843D01*
X0394911Y0161865D01*
X0394956Y0161883D01*
X0395002Y0161897D01*
X0395049Y0161908D01*
X0395097Y0161915D01*
X0395145Y0161918D01*
X0395193Y0161917D01*
X0395241Y0161912D01*
X0395289Y0161903D01*
X0395335Y0161891D01*
X0395380Y0161874D01*
X0395424Y0161854D01*
X0395466Y0161831D01*
X0395506Y0161804D01*
X0395544Y0161774D01*
X0395579Y0161741D01*
X0395611Y0161705D01*
X0395641Y0161667D01*
X0395667Y0161626D01*
X0395689Y0161583D01*
X0395709Y0161539D01*
X0395724Y0161494D01*
X0395736Y0161447D01*
X0395744Y0161399D01*
X0395748Y0161351D01*
X0395748Y0161303D01*
X0395744Y0161255D01*
X0395736Y0161207D01*
X0395724Y0161160D01*
X0395709Y0161115D01*
X0395689Y0161071D01*
X0395667Y0161028D01*
X0395641Y0160987D01*
X0395611Y0160949D01*
X0395579Y0160913D01*
X0395544Y0160880D01*
X0395506Y0160850D01*
X0395466Y0160823D01*
X0395424Y0160800D01*
X0395380Y0160780D01*
X0395335Y0160763D01*
X0395289Y0160751D01*
X0395241Y0160742D01*
X0395193Y0160737D01*
X0395145Y0160736D01*
X0395097Y0160739D01*
X0395049Y0160746D01*
X0395002Y0160757D01*
X0394956Y0160771D01*
X0394911Y0160789D01*
X0394868Y0160811D01*
X0394827Y0160836D01*
X0394789Y0160865D01*
X0394752Y0160897D01*
X0394718Y0160931D01*
X0394688Y0160968D01*
X0394660Y0161007D01*
X0394635Y0161049D01*
X0394615Y0161093D01*
X0394597Y0161138D01*
X0394584Y0161184D01*
X0394574Y0161231D01*
X0394568Y0161279D01*
X0394566Y0161327D01*
X0392566Y0161327D02*
X0392568Y0161375D01*
X0392574Y0161423D01*
X0392584Y0161470D01*
X0392597Y0161516D01*
X0392615Y0161561D01*
X0392635Y0161605D01*
X0392660Y0161647D01*
X0392688Y0161686D01*
X0392718Y0161723D01*
X0392752Y0161757D01*
X0392789Y0161789D01*
X0392827Y0161818D01*
X0392868Y0161843D01*
X0392911Y0161865D01*
X0392956Y0161883D01*
X0393002Y0161897D01*
X0393049Y0161908D01*
X0393097Y0161915D01*
X0393145Y0161918D01*
X0393193Y0161917D01*
X0393241Y0161912D01*
X0393289Y0161903D01*
X0393335Y0161891D01*
X0393380Y0161874D01*
X0393424Y0161854D01*
X0393466Y0161831D01*
X0393506Y0161804D01*
X0393544Y0161774D01*
X0393579Y0161741D01*
X0393611Y0161705D01*
X0393641Y0161667D01*
X0393667Y0161626D01*
X0393689Y0161583D01*
X0393709Y0161539D01*
X0393724Y0161494D01*
X0393736Y0161447D01*
X0393744Y0161399D01*
X0393748Y0161351D01*
X0393748Y0161303D01*
X0393744Y0161255D01*
X0393736Y0161207D01*
X0393724Y0161160D01*
X0393709Y0161115D01*
X0393689Y0161071D01*
X0393667Y0161028D01*
X0393641Y0160987D01*
X0393611Y0160949D01*
X0393579Y0160913D01*
X0393544Y0160880D01*
X0393506Y0160850D01*
X0393466Y0160823D01*
X0393424Y0160800D01*
X0393380Y0160780D01*
X0393335Y0160763D01*
X0393289Y0160751D01*
X0393241Y0160742D01*
X0393193Y0160737D01*
X0393145Y0160736D01*
X0393097Y0160739D01*
X0393049Y0160746D01*
X0393002Y0160757D01*
X0392956Y0160771D01*
X0392911Y0160789D01*
X0392868Y0160811D01*
X0392827Y0160836D01*
X0392789Y0160865D01*
X0392752Y0160897D01*
X0392718Y0160931D01*
X0392688Y0160968D01*
X0392660Y0161007D01*
X0392635Y0161049D01*
X0392615Y0161093D01*
X0392597Y0161138D01*
X0392584Y0161184D01*
X0392574Y0161231D01*
X0392568Y0161279D01*
X0392566Y0161327D01*
X0374343Y0212575D02*
X0374345Y0212733D01*
X0374351Y0212891D01*
X0374361Y0213049D01*
X0374375Y0213207D01*
X0374393Y0213364D01*
X0374414Y0213521D01*
X0374440Y0213677D01*
X0374470Y0213833D01*
X0374503Y0213988D01*
X0374541Y0214141D01*
X0374582Y0214294D01*
X0374627Y0214446D01*
X0374676Y0214597D01*
X0374729Y0214746D01*
X0374785Y0214894D01*
X0374845Y0215040D01*
X0374909Y0215185D01*
X0374977Y0215328D01*
X0375048Y0215470D01*
X0375122Y0215610D01*
X0375200Y0215747D01*
X0375282Y0215883D01*
X0375366Y0216017D01*
X0375455Y0216148D01*
X0375546Y0216277D01*
X0375641Y0216404D01*
X0375738Y0216529D01*
X0375839Y0216651D01*
X0375943Y0216770D01*
X0376050Y0216887D01*
X0376160Y0217001D01*
X0376273Y0217112D01*
X0376388Y0217221D01*
X0376506Y0217326D01*
X0376627Y0217428D01*
X0376750Y0217528D01*
X0376876Y0217624D01*
X0377004Y0217717D01*
X0377134Y0217807D01*
X0377267Y0217893D01*
X0377402Y0217977D01*
X0377538Y0218056D01*
X0377677Y0218133D01*
X0377818Y0218205D01*
X0377960Y0218275D01*
X0378104Y0218340D01*
X0378250Y0218402D01*
X0378397Y0218460D01*
X0378546Y0218515D01*
X0378696Y0218566D01*
X0378847Y0218613D01*
X0378999Y0218656D01*
X0379152Y0218695D01*
X0379307Y0218731D01*
X0379462Y0218762D01*
X0379618Y0218790D01*
X0379774Y0218814D01*
X0379931Y0218834D01*
X0380089Y0218850D01*
X0380246Y0218862D01*
X0380405Y0218870D01*
X0380563Y0218874D01*
X0380721Y0218874D01*
X0380879Y0218870D01*
X0381038Y0218862D01*
X0381195Y0218850D01*
X0381353Y0218834D01*
X0381510Y0218814D01*
X0381666Y0218790D01*
X0381822Y0218762D01*
X0381977Y0218731D01*
X0382132Y0218695D01*
X0382285Y0218656D01*
X0382437Y0218613D01*
X0382588Y0218566D01*
X0382738Y0218515D01*
X0382887Y0218460D01*
X0383034Y0218402D01*
X0383180Y0218340D01*
X0383324Y0218275D01*
X0383466Y0218205D01*
X0383607Y0218133D01*
X0383746Y0218056D01*
X0383882Y0217977D01*
X0384017Y0217893D01*
X0384150Y0217807D01*
X0384280Y0217717D01*
X0384408Y0217624D01*
X0384534Y0217528D01*
X0384657Y0217428D01*
X0384778Y0217326D01*
X0384896Y0217221D01*
X0385011Y0217112D01*
X0385124Y0217001D01*
X0385234Y0216887D01*
X0385341Y0216770D01*
X0385445Y0216651D01*
X0385546Y0216529D01*
X0385643Y0216404D01*
X0385738Y0216277D01*
X0385829Y0216148D01*
X0385918Y0216017D01*
X0386002Y0215883D01*
X0386084Y0215747D01*
X0386162Y0215610D01*
X0386236Y0215470D01*
X0386307Y0215328D01*
X0386375Y0215185D01*
X0386439Y0215040D01*
X0386499Y0214894D01*
X0386555Y0214746D01*
X0386608Y0214597D01*
X0386657Y0214446D01*
X0386702Y0214294D01*
X0386743Y0214141D01*
X0386781Y0213988D01*
X0386814Y0213833D01*
X0386844Y0213677D01*
X0386870Y0213521D01*
X0386891Y0213364D01*
X0386909Y0213207D01*
X0386923Y0213049D01*
X0386933Y0212891D01*
X0386939Y0212733D01*
X0386941Y0212575D01*
X0386939Y0212417D01*
X0386933Y0212259D01*
X0386923Y0212101D01*
X0386909Y0211943D01*
X0386891Y0211786D01*
X0386870Y0211629D01*
X0386844Y0211473D01*
X0386814Y0211317D01*
X0386781Y0211162D01*
X0386743Y0211009D01*
X0386702Y0210856D01*
X0386657Y0210704D01*
X0386608Y0210553D01*
X0386555Y0210404D01*
X0386499Y0210256D01*
X0386439Y0210110D01*
X0386375Y0209965D01*
X0386307Y0209822D01*
X0386236Y0209680D01*
X0386162Y0209540D01*
X0386084Y0209403D01*
X0386002Y0209267D01*
X0385918Y0209133D01*
X0385829Y0209002D01*
X0385738Y0208873D01*
X0385643Y0208746D01*
X0385546Y0208621D01*
X0385445Y0208499D01*
X0385341Y0208380D01*
X0385234Y0208263D01*
X0385124Y0208149D01*
X0385011Y0208038D01*
X0384896Y0207929D01*
X0384778Y0207824D01*
X0384657Y0207722D01*
X0384534Y0207622D01*
X0384408Y0207526D01*
X0384280Y0207433D01*
X0384150Y0207343D01*
X0384017Y0207257D01*
X0383882Y0207173D01*
X0383746Y0207094D01*
X0383607Y0207017D01*
X0383466Y0206945D01*
X0383324Y0206875D01*
X0383180Y0206810D01*
X0383034Y0206748D01*
X0382887Y0206690D01*
X0382738Y0206635D01*
X0382588Y0206584D01*
X0382437Y0206537D01*
X0382285Y0206494D01*
X0382132Y0206455D01*
X0381977Y0206419D01*
X0381822Y0206388D01*
X0381666Y0206360D01*
X0381510Y0206336D01*
X0381353Y0206316D01*
X0381195Y0206300D01*
X0381038Y0206288D01*
X0380879Y0206280D01*
X0380721Y0206276D01*
X0380563Y0206276D01*
X0380405Y0206280D01*
X0380246Y0206288D01*
X0380089Y0206300D01*
X0379931Y0206316D01*
X0379774Y0206336D01*
X0379618Y0206360D01*
X0379462Y0206388D01*
X0379307Y0206419D01*
X0379152Y0206455D01*
X0378999Y0206494D01*
X0378847Y0206537D01*
X0378696Y0206584D01*
X0378546Y0206635D01*
X0378397Y0206690D01*
X0378250Y0206748D01*
X0378104Y0206810D01*
X0377960Y0206875D01*
X0377818Y0206945D01*
X0377677Y0207017D01*
X0377538Y0207094D01*
X0377402Y0207173D01*
X0377267Y0207257D01*
X0377134Y0207343D01*
X0377004Y0207433D01*
X0376876Y0207526D01*
X0376750Y0207622D01*
X0376627Y0207722D01*
X0376506Y0207824D01*
X0376388Y0207929D01*
X0376273Y0208038D01*
X0376160Y0208149D01*
X0376050Y0208263D01*
X0375943Y0208380D01*
X0375839Y0208499D01*
X0375738Y0208621D01*
X0375641Y0208746D01*
X0375546Y0208873D01*
X0375455Y0209002D01*
X0375366Y0209133D01*
X0375282Y0209267D01*
X0375200Y0209403D01*
X0375122Y0209540D01*
X0375048Y0209680D01*
X0374977Y0209822D01*
X0374909Y0209965D01*
X0374845Y0210110D01*
X0374785Y0210256D01*
X0374729Y0210404D01*
X0374676Y0210553D01*
X0374627Y0210704D01*
X0374582Y0210856D01*
X0374541Y0211009D01*
X0374503Y0211162D01*
X0374470Y0211317D01*
X0374440Y0211473D01*
X0374414Y0211629D01*
X0374393Y0211786D01*
X0374375Y0211943D01*
X0374361Y0212101D01*
X0374351Y0212259D01*
X0374345Y0212417D01*
X0374343Y0212575D01*
X0362066Y0337827D02*
X0362068Y0337875D01*
X0362074Y0337923D01*
X0362084Y0337970D01*
X0362097Y0338016D01*
X0362115Y0338061D01*
X0362135Y0338105D01*
X0362160Y0338147D01*
X0362188Y0338186D01*
X0362218Y0338223D01*
X0362252Y0338257D01*
X0362289Y0338289D01*
X0362327Y0338318D01*
X0362368Y0338343D01*
X0362411Y0338365D01*
X0362456Y0338383D01*
X0362502Y0338397D01*
X0362549Y0338408D01*
X0362597Y0338415D01*
X0362645Y0338418D01*
X0362693Y0338417D01*
X0362741Y0338412D01*
X0362789Y0338403D01*
X0362835Y0338391D01*
X0362880Y0338374D01*
X0362924Y0338354D01*
X0362966Y0338331D01*
X0363006Y0338304D01*
X0363044Y0338274D01*
X0363079Y0338241D01*
X0363111Y0338205D01*
X0363141Y0338167D01*
X0363167Y0338126D01*
X0363189Y0338083D01*
X0363209Y0338039D01*
X0363224Y0337994D01*
X0363236Y0337947D01*
X0363244Y0337899D01*
X0363248Y0337851D01*
X0363248Y0337803D01*
X0363244Y0337755D01*
X0363236Y0337707D01*
X0363224Y0337660D01*
X0363209Y0337615D01*
X0363189Y0337571D01*
X0363167Y0337528D01*
X0363141Y0337487D01*
X0363111Y0337449D01*
X0363079Y0337413D01*
X0363044Y0337380D01*
X0363006Y0337350D01*
X0362966Y0337323D01*
X0362924Y0337300D01*
X0362880Y0337280D01*
X0362835Y0337263D01*
X0362789Y0337251D01*
X0362741Y0337242D01*
X0362693Y0337237D01*
X0362645Y0337236D01*
X0362597Y0337239D01*
X0362549Y0337246D01*
X0362502Y0337257D01*
X0362456Y0337271D01*
X0362411Y0337289D01*
X0362368Y0337311D01*
X0362327Y0337336D01*
X0362289Y0337365D01*
X0362252Y0337397D01*
X0362218Y0337431D01*
X0362188Y0337468D01*
X0362160Y0337507D01*
X0362135Y0337549D01*
X0362115Y0337593D01*
X0362097Y0337638D01*
X0362084Y0337684D01*
X0362074Y0337731D01*
X0362068Y0337779D01*
X0362066Y0337827D01*
X0362066Y0339827D02*
X0362068Y0339875D01*
X0362074Y0339923D01*
X0362084Y0339970D01*
X0362097Y0340016D01*
X0362115Y0340061D01*
X0362135Y0340105D01*
X0362160Y0340147D01*
X0362188Y0340186D01*
X0362218Y0340223D01*
X0362252Y0340257D01*
X0362289Y0340289D01*
X0362327Y0340318D01*
X0362368Y0340343D01*
X0362411Y0340365D01*
X0362456Y0340383D01*
X0362502Y0340397D01*
X0362549Y0340408D01*
X0362597Y0340415D01*
X0362645Y0340418D01*
X0362693Y0340417D01*
X0362741Y0340412D01*
X0362789Y0340403D01*
X0362835Y0340391D01*
X0362880Y0340374D01*
X0362924Y0340354D01*
X0362966Y0340331D01*
X0363006Y0340304D01*
X0363044Y0340274D01*
X0363079Y0340241D01*
X0363111Y0340205D01*
X0363141Y0340167D01*
X0363167Y0340126D01*
X0363189Y0340083D01*
X0363209Y0340039D01*
X0363224Y0339994D01*
X0363236Y0339947D01*
X0363244Y0339899D01*
X0363248Y0339851D01*
X0363248Y0339803D01*
X0363244Y0339755D01*
X0363236Y0339707D01*
X0363224Y0339660D01*
X0363209Y0339615D01*
X0363189Y0339571D01*
X0363167Y0339528D01*
X0363141Y0339487D01*
X0363111Y0339449D01*
X0363079Y0339413D01*
X0363044Y0339380D01*
X0363006Y0339350D01*
X0362966Y0339323D01*
X0362924Y0339300D01*
X0362880Y0339280D01*
X0362835Y0339263D01*
X0362789Y0339251D01*
X0362741Y0339242D01*
X0362693Y0339237D01*
X0362645Y0339236D01*
X0362597Y0339239D01*
X0362549Y0339246D01*
X0362502Y0339257D01*
X0362456Y0339271D01*
X0362411Y0339289D01*
X0362368Y0339311D01*
X0362327Y0339336D01*
X0362289Y0339365D01*
X0362252Y0339397D01*
X0362218Y0339431D01*
X0362188Y0339468D01*
X0362160Y0339507D01*
X0362135Y0339549D01*
X0362115Y0339593D01*
X0362097Y0339638D01*
X0362084Y0339684D01*
X0362074Y0339731D01*
X0362068Y0339779D01*
X0362066Y0339827D01*
X0362066Y0341827D02*
X0362068Y0341875D01*
X0362074Y0341923D01*
X0362084Y0341970D01*
X0362097Y0342016D01*
X0362115Y0342061D01*
X0362135Y0342105D01*
X0362160Y0342147D01*
X0362188Y0342186D01*
X0362218Y0342223D01*
X0362252Y0342257D01*
X0362289Y0342289D01*
X0362327Y0342318D01*
X0362368Y0342343D01*
X0362411Y0342365D01*
X0362456Y0342383D01*
X0362502Y0342397D01*
X0362549Y0342408D01*
X0362597Y0342415D01*
X0362645Y0342418D01*
X0362693Y0342417D01*
X0362741Y0342412D01*
X0362789Y0342403D01*
X0362835Y0342391D01*
X0362880Y0342374D01*
X0362924Y0342354D01*
X0362966Y0342331D01*
X0363006Y0342304D01*
X0363044Y0342274D01*
X0363079Y0342241D01*
X0363111Y0342205D01*
X0363141Y0342167D01*
X0363167Y0342126D01*
X0363189Y0342083D01*
X0363209Y0342039D01*
X0363224Y0341994D01*
X0363236Y0341947D01*
X0363244Y0341899D01*
X0363248Y0341851D01*
X0363248Y0341803D01*
X0363244Y0341755D01*
X0363236Y0341707D01*
X0363224Y0341660D01*
X0363209Y0341615D01*
X0363189Y0341571D01*
X0363167Y0341528D01*
X0363141Y0341487D01*
X0363111Y0341449D01*
X0363079Y0341413D01*
X0363044Y0341380D01*
X0363006Y0341350D01*
X0362966Y0341323D01*
X0362924Y0341300D01*
X0362880Y0341280D01*
X0362835Y0341263D01*
X0362789Y0341251D01*
X0362741Y0341242D01*
X0362693Y0341237D01*
X0362645Y0341236D01*
X0362597Y0341239D01*
X0362549Y0341246D01*
X0362502Y0341257D01*
X0362456Y0341271D01*
X0362411Y0341289D01*
X0362368Y0341311D01*
X0362327Y0341336D01*
X0362289Y0341365D01*
X0362252Y0341397D01*
X0362218Y0341431D01*
X0362188Y0341468D01*
X0362160Y0341507D01*
X0362135Y0341549D01*
X0362115Y0341593D01*
X0362097Y0341638D01*
X0362084Y0341684D01*
X0362074Y0341731D01*
X0362068Y0341779D01*
X0362066Y0341827D01*
X0357066Y0341827D02*
X0357068Y0341875D01*
X0357074Y0341923D01*
X0357084Y0341970D01*
X0357097Y0342016D01*
X0357115Y0342061D01*
X0357135Y0342105D01*
X0357160Y0342147D01*
X0357188Y0342186D01*
X0357218Y0342223D01*
X0357252Y0342257D01*
X0357289Y0342289D01*
X0357327Y0342318D01*
X0357368Y0342343D01*
X0357411Y0342365D01*
X0357456Y0342383D01*
X0357502Y0342397D01*
X0357549Y0342408D01*
X0357597Y0342415D01*
X0357645Y0342418D01*
X0357693Y0342417D01*
X0357741Y0342412D01*
X0357789Y0342403D01*
X0357835Y0342391D01*
X0357880Y0342374D01*
X0357924Y0342354D01*
X0357966Y0342331D01*
X0358006Y0342304D01*
X0358044Y0342274D01*
X0358079Y0342241D01*
X0358111Y0342205D01*
X0358141Y0342167D01*
X0358167Y0342126D01*
X0358189Y0342083D01*
X0358209Y0342039D01*
X0358224Y0341994D01*
X0358236Y0341947D01*
X0358244Y0341899D01*
X0358248Y0341851D01*
X0358248Y0341803D01*
X0358244Y0341755D01*
X0358236Y0341707D01*
X0358224Y0341660D01*
X0358209Y0341615D01*
X0358189Y0341571D01*
X0358167Y0341528D01*
X0358141Y0341487D01*
X0358111Y0341449D01*
X0358079Y0341413D01*
X0358044Y0341380D01*
X0358006Y0341350D01*
X0357966Y0341323D01*
X0357924Y0341300D01*
X0357880Y0341280D01*
X0357835Y0341263D01*
X0357789Y0341251D01*
X0357741Y0341242D01*
X0357693Y0341237D01*
X0357645Y0341236D01*
X0357597Y0341239D01*
X0357549Y0341246D01*
X0357502Y0341257D01*
X0357456Y0341271D01*
X0357411Y0341289D01*
X0357368Y0341311D01*
X0357327Y0341336D01*
X0357289Y0341365D01*
X0357252Y0341397D01*
X0357218Y0341431D01*
X0357188Y0341468D01*
X0357160Y0341507D01*
X0357135Y0341549D01*
X0357115Y0341593D01*
X0357097Y0341638D01*
X0357084Y0341684D01*
X0357074Y0341731D01*
X0357068Y0341779D01*
X0357066Y0341827D01*
X0357066Y0339827D02*
X0357068Y0339875D01*
X0357074Y0339923D01*
X0357084Y0339970D01*
X0357097Y0340016D01*
X0357115Y0340061D01*
X0357135Y0340105D01*
X0357160Y0340147D01*
X0357188Y0340186D01*
X0357218Y0340223D01*
X0357252Y0340257D01*
X0357289Y0340289D01*
X0357327Y0340318D01*
X0357368Y0340343D01*
X0357411Y0340365D01*
X0357456Y0340383D01*
X0357502Y0340397D01*
X0357549Y0340408D01*
X0357597Y0340415D01*
X0357645Y0340418D01*
X0357693Y0340417D01*
X0357741Y0340412D01*
X0357789Y0340403D01*
X0357835Y0340391D01*
X0357880Y0340374D01*
X0357924Y0340354D01*
X0357966Y0340331D01*
X0358006Y0340304D01*
X0358044Y0340274D01*
X0358079Y0340241D01*
X0358111Y0340205D01*
X0358141Y0340167D01*
X0358167Y0340126D01*
X0358189Y0340083D01*
X0358209Y0340039D01*
X0358224Y0339994D01*
X0358236Y0339947D01*
X0358244Y0339899D01*
X0358248Y0339851D01*
X0358248Y0339803D01*
X0358244Y0339755D01*
X0358236Y0339707D01*
X0358224Y0339660D01*
X0358209Y0339615D01*
X0358189Y0339571D01*
X0358167Y0339528D01*
X0358141Y0339487D01*
X0358111Y0339449D01*
X0358079Y0339413D01*
X0358044Y0339380D01*
X0358006Y0339350D01*
X0357966Y0339323D01*
X0357924Y0339300D01*
X0357880Y0339280D01*
X0357835Y0339263D01*
X0357789Y0339251D01*
X0357741Y0339242D01*
X0357693Y0339237D01*
X0357645Y0339236D01*
X0357597Y0339239D01*
X0357549Y0339246D01*
X0357502Y0339257D01*
X0357456Y0339271D01*
X0357411Y0339289D01*
X0357368Y0339311D01*
X0357327Y0339336D01*
X0357289Y0339365D01*
X0357252Y0339397D01*
X0357218Y0339431D01*
X0357188Y0339468D01*
X0357160Y0339507D01*
X0357135Y0339549D01*
X0357115Y0339593D01*
X0357097Y0339638D01*
X0357084Y0339684D01*
X0357074Y0339731D01*
X0357068Y0339779D01*
X0357066Y0339827D01*
X0357066Y0337827D02*
X0357068Y0337875D01*
X0357074Y0337923D01*
X0357084Y0337970D01*
X0357097Y0338016D01*
X0357115Y0338061D01*
X0357135Y0338105D01*
X0357160Y0338147D01*
X0357188Y0338186D01*
X0357218Y0338223D01*
X0357252Y0338257D01*
X0357289Y0338289D01*
X0357327Y0338318D01*
X0357368Y0338343D01*
X0357411Y0338365D01*
X0357456Y0338383D01*
X0357502Y0338397D01*
X0357549Y0338408D01*
X0357597Y0338415D01*
X0357645Y0338418D01*
X0357693Y0338417D01*
X0357741Y0338412D01*
X0357789Y0338403D01*
X0357835Y0338391D01*
X0357880Y0338374D01*
X0357924Y0338354D01*
X0357966Y0338331D01*
X0358006Y0338304D01*
X0358044Y0338274D01*
X0358079Y0338241D01*
X0358111Y0338205D01*
X0358141Y0338167D01*
X0358167Y0338126D01*
X0358189Y0338083D01*
X0358209Y0338039D01*
X0358224Y0337994D01*
X0358236Y0337947D01*
X0358244Y0337899D01*
X0358248Y0337851D01*
X0358248Y0337803D01*
X0358244Y0337755D01*
X0358236Y0337707D01*
X0358224Y0337660D01*
X0358209Y0337615D01*
X0358189Y0337571D01*
X0358167Y0337528D01*
X0358141Y0337487D01*
X0358111Y0337449D01*
X0358079Y0337413D01*
X0358044Y0337380D01*
X0358006Y0337350D01*
X0357966Y0337323D01*
X0357924Y0337300D01*
X0357880Y0337280D01*
X0357835Y0337263D01*
X0357789Y0337251D01*
X0357741Y0337242D01*
X0357693Y0337237D01*
X0357645Y0337236D01*
X0357597Y0337239D01*
X0357549Y0337246D01*
X0357502Y0337257D01*
X0357456Y0337271D01*
X0357411Y0337289D01*
X0357368Y0337311D01*
X0357327Y0337336D01*
X0357289Y0337365D01*
X0357252Y0337397D01*
X0357218Y0337431D01*
X0357188Y0337468D01*
X0357160Y0337507D01*
X0357135Y0337549D01*
X0357115Y0337593D01*
X0357097Y0337638D01*
X0357084Y0337684D01*
X0357074Y0337731D01*
X0357068Y0337779D01*
X0357066Y0337827D01*
M02*
