G75*
%MOIN*%
%OFA0B0*%
%FSLAX25Y25*%
%IPPOS*%
%LPD*%
%AMOC8*
5,1,8,0,0,1.08239X$1,22.5*
%
%ADD10C,0.00900*%
%ADD11C,0.04000*%
%ADD12C,0.09055*%
%ADD13R,0.39370X0.39370*%
%ADD14C,0.00500*%
%ADD15R,0.03937X0.03543*%
%ADD16R,0.03543X0.03937*%
%ADD17R,0.05118X0.05906*%
%ADD18C,0.02775*%
%ADD19C,0.16598*%
%ADD20R,0.02362X0.08661*%
%ADD21R,0.04331X0.03937*%
%ADD22R,0.04409X0.04409*%
%ADD23C,0.04409*%
%ADD24OC8,0.08500*%
%ADD25C,0.03956*%
%ADD26R,0.03956X0.03956*%
%ADD27R,0.05512X0.05512*%
%ADD28C,0.05512*%
%ADD29C,0.04000*%
%ADD30R,0.04000X0.07000*%
%ADD31R,0.03937X0.04331*%
%ADD32C,0.03169*%
%ADD33R,0.04961X0.04961*%
%ADD34C,0.04961*%
%ADD35R,0.06600X0.06600*%
%ADD36C,0.06600*%
%ADD37C,0.01000*%
%ADD38C,0.04356*%
%ADD39C,0.03175*%
%ADD40C,0.01200*%
%ADD41C,0.03962*%
%ADD42C,0.01600*%
%ADD43C,0.04750*%
%ADD44C,0.00591*%
%ADD45C,0.06600*%
D10*
X0011482Y0117852D02*
X0011482Y0121922D01*
X0014534Y0120904D02*
X0008429Y0120904D01*
X0011482Y0117852D01*
D11*
X0370799Y0212575D02*
X0370802Y0212817D01*
X0370811Y0213058D01*
X0370826Y0213299D01*
X0370846Y0213540D01*
X0370873Y0213780D01*
X0370906Y0214019D01*
X0370944Y0214258D01*
X0370988Y0214495D01*
X0371038Y0214732D01*
X0371094Y0214967D01*
X0371156Y0215200D01*
X0371223Y0215432D01*
X0371296Y0215663D01*
X0371374Y0215891D01*
X0371459Y0216117D01*
X0371548Y0216342D01*
X0371643Y0216564D01*
X0371744Y0216783D01*
X0371850Y0217001D01*
X0371961Y0217215D01*
X0372078Y0217427D01*
X0372199Y0217635D01*
X0372326Y0217841D01*
X0372458Y0218043D01*
X0372595Y0218243D01*
X0372736Y0218438D01*
X0372882Y0218631D01*
X0373033Y0218819D01*
X0373189Y0219004D01*
X0373349Y0219185D01*
X0373513Y0219362D01*
X0373682Y0219535D01*
X0373855Y0219704D01*
X0374032Y0219868D01*
X0374213Y0220028D01*
X0374398Y0220184D01*
X0374586Y0220335D01*
X0374779Y0220481D01*
X0374974Y0220622D01*
X0375174Y0220759D01*
X0375376Y0220891D01*
X0375582Y0221018D01*
X0375790Y0221139D01*
X0376002Y0221256D01*
X0376216Y0221367D01*
X0376434Y0221473D01*
X0376653Y0221574D01*
X0376875Y0221669D01*
X0377100Y0221758D01*
X0377326Y0221843D01*
X0377554Y0221921D01*
X0377785Y0221994D01*
X0378017Y0222061D01*
X0378250Y0222123D01*
X0378485Y0222179D01*
X0378722Y0222229D01*
X0378959Y0222273D01*
X0379198Y0222311D01*
X0379437Y0222344D01*
X0379677Y0222371D01*
X0379918Y0222391D01*
X0380159Y0222406D01*
X0380400Y0222415D01*
X0380642Y0222418D01*
X0380884Y0222415D01*
X0381125Y0222406D01*
X0381366Y0222391D01*
X0381607Y0222371D01*
X0381847Y0222344D01*
X0382086Y0222311D01*
X0382325Y0222273D01*
X0382562Y0222229D01*
X0382799Y0222179D01*
X0383034Y0222123D01*
X0383267Y0222061D01*
X0383499Y0221994D01*
X0383730Y0221921D01*
X0383958Y0221843D01*
X0384184Y0221758D01*
X0384409Y0221669D01*
X0384631Y0221574D01*
X0384850Y0221473D01*
X0385068Y0221367D01*
X0385282Y0221256D01*
X0385494Y0221139D01*
X0385702Y0221018D01*
X0385908Y0220891D01*
X0386110Y0220759D01*
X0386310Y0220622D01*
X0386505Y0220481D01*
X0386698Y0220335D01*
X0386886Y0220184D01*
X0387071Y0220028D01*
X0387252Y0219868D01*
X0387429Y0219704D01*
X0387602Y0219535D01*
X0387771Y0219362D01*
X0387935Y0219185D01*
X0388095Y0219004D01*
X0388251Y0218819D01*
X0388402Y0218631D01*
X0388548Y0218438D01*
X0388689Y0218243D01*
X0388826Y0218043D01*
X0388958Y0217841D01*
X0389085Y0217635D01*
X0389206Y0217427D01*
X0389323Y0217215D01*
X0389434Y0217001D01*
X0389540Y0216783D01*
X0389641Y0216564D01*
X0389736Y0216342D01*
X0389825Y0216117D01*
X0389910Y0215891D01*
X0389988Y0215663D01*
X0390061Y0215432D01*
X0390128Y0215200D01*
X0390190Y0214967D01*
X0390246Y0214732D01*
X0390296Y0214495D01*
X0390340Y0214258D01*
X0390378Y0214019D01*
X0390411Y0213780D01*
X0390438Y0213540D01*
X0390458Y0213299D01*
X0390473Y0213058D01*
X0390482Y0212817D01*
X0390485Y0212575D01*
X0390482Y0212333D01*
X0390473Y0212092D01*
X0390458Y0211851D01*
X0390438Y0211610D01*
X0390411Y0211370D01*
X0390378Y0211131D01*
X0390340Y0210892D01*
X0390296Y0210655D01*
X0390246Y0210418D01*
X0390190Y0210183D01*
X0390128Y0209950D01*
X0390061Y0209718D01*
X0389988Y0209487D01*
X0389910Y0209259D01*
X0389825Y0209033D01*
X0389736Y0208808D01*
X0389641Y0208586D01*
X0389540Y0208367D01*
X0389434Y0208149D01*
X0389323Y0207935D01*
X0389206Y0207723D01*
X0389085Y0207515D01*
X0388958Y0207309D01*
X0388826Y0207107D01*
X0388689Y0206907D01*
X0388548Y0206712D01*
X0388402Y0206519D01*
X0388251Y0206331D01*
X0388095Y0206146D01*
X0387935Y0205965D01*
X0387771Y0205788D01*
X0387602Y0205615D01*
X0387429Y0205446D01*
X0387252Y0205282D01*
X0387071Y0205122D01*
X0386886Y0204966D01*
X0386698Y0204815D01*
X0386505Y0204669D01*
X0386310Y0204528D01*
X0386110Y0204391D01*
X0385908Y0204259D01*
X0385702Y0204132D01*
X0385494Y0204011D01*
X0385282Y0203894D01*
X0385068Y0203783D01*
X0384850Y0203677D01*
X0384631Y0203576D01*
X0384409Y0203481D01*
X0384184Y0203392D01*
X0383958Y0203307D01*
X0383730Y0203229D01*
X0383499Y0203156D01*
X0383267Y0203089D01*
X0383034Y0203027D01*
X0382799Y0202971D01*
X0382562Y0202921D01*
X0382325Y0202877D01*
X0382086Y0202839D01*
X0381847Y0202806D01*
X0381607Y0202779D01*
X0381366Y0202759D01*
X0381125Y0202744D01*
X0380884Y0202735D01*
X0380642Y0202732D01*
X0380400Y0202735D01*
X0380159Y0202744D01*
X0379918Y0202759D01*
X0379677Y0202779D01*
X0379437Y0202806D01*
X0379198Y0202839D01*
X0378959Y0202877D01*
X0378722Y0202921D01*
X0378485Y0202971D01*
X0378250Y0203027D01*
X0378017Y0203089D01*
X0377785Y0203156D01*
X0377554Y0203229D01*
X0377326Y0203307D01*
X0377100Y0203392D01*
X0376875Y0203481D01*
X0376653Y0203576D01*
X0376434Y0203677D01*
X0376216Y0203783D01*
X0376002Y0203894D01*
X0375790Y0204011D01*
X0375582Y0204132D01*
X0375376Y0204259D01*
X0375174Y0204391D01*
X0374974Y0204528D01*
X0374779Y0204669D01*
X0374586Y0204815D01*
X0374398Y0204966D01*
X0374213Y0205122D01*
X0374032Y0205282D01*
X0373855Y0205446D01*
X0373682Y0205615D01*
X0373513Y0205788D01*
X0373349Y0205965D01*
X0373189Y0206146D01*
X0373033Y0206331D01*
X0372882Y0206519D01*
X0372736Y0206712D01*
X0372595Y0206907D01*
X0372458Y0207107D01*
X0372326Y0207309D01*
X0372199Y0207515D01*
X0372078Y0207723D01*
X0371961Y0207935D01*
X0371850Y0208149D01*
X0371744Y0208367D01*
X0371643Y0208586D01*
X0371548Y0208808D01*
X0371459Y0209033D01*
X0371374Y0209259D01*
X0371296Y0209487D01*
X0371223Y0209718D01*
X0371156Y0209950D01*
X0371094Y0210183D01*
X0371038Y0210418D01*
X0370988Y0210655D01*
X0370944Y0210892D01*
X0370906Y0211131D01*
X0370873Y0211370D01*
X0370846Y0211610D01*
X0370826Y0211851D01*
X0370811Y0212092D01*
X0370802Y0212333D01*
X0370799Y0212575D01*
D12*
X0389102Y0119732D03*
X0389102Y0107528D03*
X0307213Y0107528D03*
X0307213Y0119732D03*
D13*
X0348157Y0113827D03*
D14*
X0325995Y0136026D02*
X0323579Y0133570D01*
X0321458Y0130855D01*
X0319659Y0127917D01*
X0318205Y0124793D01*
X0317116Y0121525D01*
X0316405Y0118154D01*
X0316081Y0114724D01*
X0316149Y0111280D01*
X0316608Y0107865D01*
X0317451Y0104525D01*
X0318669Y0101302D01*
X0320245Y0098238D01*
X0322158Y0095374D01*
X0324384Y0092745D01*
X0326895Y0090385D01*
X0329657Y0088327D01*
X0366657Y0088327D01*
X0369420Y0090385D01*
X0371930Y0092745D01*
X0374157Y0095374D01*
X0376070Y0098238D01*
X0377646Y0101302D01*
X0378864Y0104525D01*
X0379707Y0107865D01*
X0380166Y0111280D01*
X0380234Y0114724D01*
X0379910Y0118154D01*
X0379199Y0121525D01*
X0378110Y0124793D01*
X0376656Y0127917D01*
X0374857Y0130855D01*
X0372736Y0133570D01*
X0370320Y0136026D01*
X0367641Y0138192D01*
X0364734Y0140040D01*
X0361635Y0141545D01*
X0358385Y0142689D01*
X0355027Y0143456D01*
X0351603Y0143837D01*
X0348157Y0143827D01*
X0344712Y0143837D01*
X0341288Y0143456D01*
X0337930Y0142689D01*
X0334680Y0141545D01*
X0331581Y0140040D01*
X0328674Y0138192D01*
X0325995Y0136026D01*
X0328674Y0138192D01*
X0331581Y0140040D01*
X0334680Y0141545D01*
X0337930Y0142689D01*
X0341288Y0143456D01*
X0344712Y0143837D01*
X0348157Y0143827D01*
X0351603Y0143837D01*
X0355027Y0143456D01*
X0358385Y0142689D01*
X0361635Y0141545D01*
X0364734Y0140040D01*
X0367641Y0138192D01*
X0370320Y0136026D01*
X0372736Y0133570D01*
X0374857Y0130855D01*
X0376656Y0127917D01*
X0378110Y0124793D01*
X0379199Y0121525D01*
X0379910Y0118154D01*
X0380234Y0114724D01*
X0380166Y0111280D01*
X0379707Y0107865D01*
X0378864Y0104525D01*
X0377646Y0101302D01*
X0376070Y0098238D01*
X0374157Y0095374D01*
X0371930Y0092745D01*
X0369420Y0090385D01*
X0366657Y0088327D01*
X0329657Y0088327D01*
X0326895Y0090385D01*
X0324384Y0092745D01*
X0322158Y0095374D01*
X0320245Y0098238D01*
X0318669Y0101302D01*
X0317451Y0104525D01*
X0316608Y0107865D01*
X0316149Y0111280D01*
X0316081Y0114724D01*
X0316405Y0118154D01*
X0317116Y0121525D01*
X0318205Y0124793D01*
X0319659Y0127917D01*
X0321458Y0130855D01*
X0323579Y0133570D01*
X0325995Y0136026D01*
X0326185Y0136179D02*
X0370130Y0136179D01*
X0326185Y0136179D01*
X0325655Y0135681D02*
X0370660Y0135681D01*
X0325655Y0135681D01*
X0325165Y0135182D02*
X0371150Y0135182D01*
X0325165Y0135182D01*
X0324675Y0134684D02*
X0371640Y0134684D01*
X0324675Y0134684D01*
X0324185Y0134185D02*
X0372130Y0134185D01*
X0324185Y0134185D01*
X0323694Y0133687D02*
X0372621Y0133687D01*
X0323694Y0133687D01*
X0323281Y0133188D02*
X0373034Y0133188D01*
X0323281Y0133188D01*
X0322892Y0132690D02*
X0373423Y0132690D01*
X0322892Y0132690D01*
X0322502Y0132191D02*
X0373813Y0132191D01*
X0322502Y0132191D01*
X0322113Y0131693D02*
X0374202Y0131693D01*
X0322113Y0131693D01*
X0321723Y0131194D02*
X0374592Y0131194D01*
X0321723Y0131194D01*
X0321361Y0130696D02*
X0374954Y0130696D01*
X0321361Y0130696D01*
X0321055Y0130197D02*
X0375260Y0130197D01*
X0321055Y0130197D01*
X0320750Y0129699D02*
X0375565Y0129699D01*
X0320750Y0129699D01*
X0320445Y0129200D02*
X0375870Y0129200D01*
X0320445Y0129200D01*
X0320140Y0128702D02*
X0376175Y0128702D01*
X0320140Y0128702D01*
X0319834Y0128203D02*
X0376480Y0128203D01*
X0319834Y0128203D01*
X0319560Y0127705D02*
X0376755Y0127705D01*
X0319560Y0127705D01*
X0319328Y0127206D02*
X0376987Y0127206D01*
X0319328Y0127206D01*
X0319096Y0126708D02*
X0377219Y0126708D01*
X0319096Y0126708D01*
X0318864Y0126209D02*
X0377451Y0126209D01*
X0318864Y0126209D01*
X0318632Y0125711D02*
X0377683Y0125711D01*
X0318632Y0125711D01*
X0318400Y0125212D02*
X0377915Y0125212D01*
X0318400Y0125212D01*
X0318179Y0124714D02*
X0378136Y0124714D01*
X0318179Y0124714D01*
X0318013Y0124215D02*
X0378302Y0124215D01*
X0318013Y0124215D01*
X0317847Y0123717D02*
X0378468Y0123717D01*
X0317847Y0123717D01*
X0317680Y0123218D02*
X0378635Y0123218D01*
X0317680Y0123218D01*
X0317514Y0122720D02*
X0378801Y0122720D01*
X0317514Y0122720D01*
X0317348Y0122221D02*
X0378967Y0122221D01*
X0317348Y0122221D01*
X0317182Y0121723D02*
X0379133Y0121723D01*
X0317182Y0121723D01*
X0317052Y0121224D02*
X0379262Y0121224D01*
X0317052Y0121224D01*
X0316947Y0120726D02*
X0379368Y0120726D01*
X0316947Y0120726D01*
X0316842Y0120227D02*
X0379473Y0120227D01*
X0316842Y0120227D01*
X0316737Y0119729D02*
X0379578Y0119729D01*
X0316737Y0119729D01*
X0316632Y0119230D02*
X0379683Y0119230D01*
X0316632Y0119230D01*
X0316527Y0118731D02*
X0379788Y0118731D01*
X0316527Y0118731D01*
X0316421Y0118233D02*
X0379894Y0118233D01*
X0316421Y0118233D01*
X0316365Y0117734D02*
X0379950Y0117734D01*
X0316365Y0117734D01*
X0316318Y0117236D02*
X0379997Y0117236D01*
X0316318Y0117236D01*
X0316271Y0116737D02*
X0380044Y0116737D01*
X0316271Y0116737D01*
X0316224Y0116239D02*
X0380091Y0116239D01*
X0316224Y0116239D01*
X0316177Y0115740D02*
X0380138Y0115740D01*
X0316177Y0115740D01*
X0316130Y0115242D02*
X0380185Y0115242D01*
X0316130Y0115242D01*
X0316083Y0114743D02*
X0380232Y0114743D01*
X0316083Y0114743D01*
X0316091Y0114245D02*
X0380224Y0114245D01*
X0316091Y0114245D01*
X0316100Y0113746D02*
X0380215Y0113746D01*
X0316100Y0113746D01*
X0316110Y0113248D02*
X0380205Y0113248D01*
X0316110Y0113248D01*
X0316120Y0112749D02*
X0380195Y0112749D01*
X0316120Y0112749D01*
X0316130Y0112251D02*
X0380185Y0112251D01*
X0316130Y0112251D01*
X0316140Y0111752D02*
X0380175Y0111752D01*
X0316140Y0111752D01*
X0316152Y0111254D02*
X0380162Y0111254D01*
X0316152Y0111254D01*
X0316219Y0110755D02*
X0380095Y0110755D01*
X0316219Y0110755D01*
X0316286Y0110257D02*
X0380029Y0110257D01*
X0316286Y0110257D01*
X0316353Y0109758D02*
X0379962Y0109758D01*
X0316353Y0109758D01*
X0316420Y0109260D02*
X0379895Y0109260D01*
X0316420Y0109260D01*
X0316487Y0108761D02*
X0379828Y0108761D01*
X0316487Y0108761D01*
X0316554Y0108263D02*
X0379761Y0108263D01*
X0316554Y0108263D01*
X0316633Y0107764D02*
X0379682Y0107764D01*
X0316633Y0107764D01*
X0316759Y0107266D02*
X0379556Y0107266D01*
X0316759Y0107266D01*
X0316885Y0106767D02*
X0379430Y0106767D01*
X0316885Y0106767D01*
X0317011Y0106269D02*
X0379304Y0106269D01*
X0317011Y0106269D01*
X0317137Y0105770D02*
X0379178Y0105770D01*
X0317137Y0105770D01*
X0317263Y0105272D02*
X0379052Y0105272D01*
X0317263Y0105272D01*
X0317389Y0104773D02*
X0378926Y0104773D01*
X0317389Y0104773D01*
X0317546Y0104275D02*
X0378769Y0104275D01*
X0317546Y0104275D01*
X0317734Y0103776D02*
X0378581Y0103776D01*
X0317734Y0103776D01*
X0317923Y0103278D02*
X0378392Y0103278D01*
X0317923Y0103278D01*
X0318111Y0102779D02*
X0378204Y0102779D01*
X0318111Y0102779D01*
X0318299Y0102281D02*
X0378016Y0102281D01*
X0318299Y0102281D01*
X0318488Y0101782D02*
X0377827Y0101782D01*
X0318488Y0101782D01*
X0318678Y0101284D02*
X0377637Y0101284D01*
X0318678Y0101284D01*
X0318935Y0100785D02*
X0377380Y0100785D01*
X0318935Y0100785D01*
X0319191Y0100287D02*
X0377124Y0100287D01*
X0319191Y0100287D01*
X0319448Y0099788D02*
X0376867Y0099788D01*
X0319448Y0099788D01*
X0319704Y0099290D02*
X0376611Y0099290D01*
X0319704Y0099290D01*
X0319960Y0098791D02*
X0376355Y0098791D01*
X0319960Y0098791D01*
X0320217Y0098293D02*
X0376098Y0098293D01*
X0320217Y0098293D01*
X0320541Y0097794D02*
X0375774Y0097794D01*
X0320541Y0097794D01*
X0320874Y0097296D02*
X0375441Y0097296D01*
X0320874Y0097296D01*
X0321207Y0096797D02*
X0375108Y0096797D01*
X0321207Y0096797D01*
X0321540Y0096298D02*
X0374775Y0096298D01*
X0321540Y0096298D01*
X0321873Y0095800D02*
X0374442Y0095800D01*
X0321873Y0095800D01*
X0322219Y0095301D02*
X0374096Y0095301D01*
X0322219Y0095301D01*
X0322641Y0094803D02*
X0373674Y0094803D01*
X0322641Y0094803D01*
X0323063Y0094304D02*
X0373252Y0094304D01*
X0323063Y0094304D01*
X0323486Y0093806D02*
X0372829Y0093806D01*
X0323486Y0093806D01*
X0323908Y0093307D02*
X0372407Y0093307D01*
X0323908Y0093307D01*
X0324330Y0092809D02*
X0371985Y0092809D01*
X0324330Y0092809D01*
X0324847Y0092310D02*
X0371468Y0092310D01*
X0324847Y0092310D01*
X0325377Y0091812D02*
X0370938Y0091812D01*
X0325377Y0091812D01*
X0325908Y0091313D02*
X0370407Y0091313D01*
X0325908Y0091313D01*
X0326438Y0090815D02*
X0369877Y0090815D01*
X0326438Y0090815D01*
X0326988Y0090316D02*
X0369327Y0090316D01*
X0326988Y0090316D01*
X0327657Y0089818D02*
X0368658Y0089818D01*
X0327657Y0089818D01*
X0328326Y0089319D02*
X0367989Y0089319D01*
X0328326Y0089319D01*
X0328995Y0088821D02*
X0367320Y0088821D01*
X0328995Y0088821D01*
X0326801Y0136678D02*
X0369514Y0136678D01*
X0326801Y0136678D01*
X0327418Y0137176D02*
X0368897Y0137176D01*
X0327418Y0137176D01*
X0328034Y0137675D02*
X0368281Y0137675D01*
X0328034Y0137675D01*
X0328651Y0138173D02*
X0367664Y0138173D01*
X0328651Y0138173D01*
X0329429Y0138672D02*
X0366886Y0138672D01*
X0329429Y0138672D01*
X0330214Y0139170D02*
X0366101Y0139170D01*
X0330214Y0139170D01*
X0330998Y0139669D02*
X0365317Y0139669D01*
X0330998Y0139669D01*
X0331844Y0140167D02*
X0364470Y0140167D01*
X0331844Y0140167D01*
X0332871Y0140666D02*
X0363444Y0140666D01*
X0332871Y0140666D01*
X0333897Y0141165D02*
X0362418Y0141165D01*
X0333897Y0141165D01*
X0335015Y0141663D02*
X0361300Y0141663D01*
X0335015Y0141663D01*
X0336431Y0142162D02*
X0359884Y0142162D01*
X0336431Y0142162D01*
X0337847Y0142660D02*
X0358467Y0142660D01*
X0337847Y0142660D01*
X0339985Y0143159D02*
X0356330Y0143159D01*
X0339985Y0143159D01*
X0343093Y0143657D02*
X0353222Y0143657D01*
X0343093Y0143657D01*
D15*
X0202157Y0228283D03*
X0202157Y0235370D03*
X0176657Y0235370D03*
X0170657Y0235370D03*
X0164657Y0235370D03*
X0164657Y0228283D03*
X0170657Y0228283D03*
X0176657Y0228283D03*
X0176657Y0278283D03*
X0176657Y0285370D03*
X0164657Y0285370D03*
X0164657Y0278283D03*
X0193657Y0278283D03*
X0199657Y0278283D03*
X0199657Y0285370D03*
X0193657Y0285370D03*
X0089657Y0298283D03*
X0089657Y0305370D03*
X0079657Y0305370D03*
X0079657Y0298283D03*
X0079657Y0318283D03*
X0079657Y0325370D03*
X0089657Y0325370D03*
X0089657Y0318283D03*
X0089657Y0270370D03*
X0089657Y0263283D03*
X0079657Y0263283D03*
X0079657Y0270370D03*
X0079657Y0250370D03*
X0079657Y0243283D03*
X0089657Y0243283D03*
X0089657Y0250370D03*
D16*
X0133614Y0230827D03*
X0140701Y0230827D03*
X0151114Y0241827D03*
X0151114Y0247827D03*
X0158201Y0247827D03*
X0158201Y0241827D03*
X0158201Y0265827D03*
X0151114Y0265827D03*
X0151114Y0271827D03*
X0158201Y0271827D03*
X0138201Y0291827D03*
X0131114Y0291827D03*
X0118451Y0322327D03*
X0111364Y0322327D03*
X0200614Y0271327D03*
X0207701Y0271327D03*
X0207701Y0263327D03*
X0200614Y0263327D03*
X0201114Y0246827D03*
X0208201Y0246827D03*
X0221114Y0238327D03*
X0228201Y0238327D03*
X0228201Y0291827D03*
X0221114Y0291827D03*
D17*
X0220917Y0301827D03*
X0228398Y0301827D03*
X0228398Y0229327D03*
X0220917Y0229327D03*
X0140898Y0238827D03*
X0133417Y0238827D03*
X0130917Y0301827D03*
X0138398Y0301827D03*
D18*
X0169618Y0267102D03*
X0189618Y0267102D03*
X0189618Y0247102D03*
X0169618Y0247102D03*
D19*
X0179618Y0257102D03*
D20*
X0122407Y0292341D03*
X0117407Y0292341D03*
X0112407Y0292341D03*
X0107407Y0292341D03*
X0107407Y0312813D03*
X0112407Y0312813D03*
X0117407Y0312813D03*
X0122407Y0312813D03*
D21*
X0126561Y0265827D03*
X0133254Y0265827D03*
X0133254Y0258327D03*
X0126561Y0258327D03*
X0126561Y0250827D03*
X0133254Y0250827D03*
X0180311Y0311827D03*
X0187004Y0311827D03*
X0374811Y0260327D03*
X0381504Y0260327D03*
D22*
X0081508Y0099307D03*
X0385642Y0252181D03*
X0385642Y0327260D03*
D23*
X0375642Y0327260D03*
X0375642Y0252181D03*
X0271508Y0109307D03*
X0271508Y0099307D03*
X0261508Y0099307D03*
X0261508Y0109307D03*
X0251508Y0109307D03*
X0251508Y0099307D03*
X0241508Y0099307D03*
X0241508Y0109307D03*
X0231508Y0109307D03*
X0231508Y0099307D03*
X0221508Y0099307D03*
X0221508Y0109307D03*
X0211508Y0109307D03*
X0211508Y0099307D03*
X0201508Y0099307D03*
X0201508Y0109307D03*
X0191508Y0109307D03*
X0191508Y0099307D03*
X0181508Y0099307D03*
X0181508Y0109307D03*
X0171508Y0109307D03*
X0171508Y0099307D03*
X0161508Y0099307D03*
X0161508Y0109307D03*
X0151508Y0109307D03*
X0151508Y0099307D03*
X0141508Y0099307D03*
X0141508Y0109307D03*
X0131508Y0109307D03*
X0131508Y0099307D03*
X0121508Y0099307D03*
X0121508Y0109307D03*
X0111508Y0109307D03*
X0111508Y0099307D03*
X0101508Y0099307D03*
X0101508Y0109307D03*
X0091508Y0109307D03*
X0091508Y0099307D03*
X0081508Y0109307D03*
D24*
X0049657Y0336827D03*
X0034657Y0336827D03*
X0019657Y0336827D03*
X0119657Y0336827D03*
D25*
X0121606Y0169622D03*
X0116606Y0162122D03*
X0111606Y0154622D03*
X0106606Y0147122D03*
X0101606Y0154622D03*
X0096606Y0147122D03*
X0091606Y0154622D03*
X0086606Y0147122D03*
X0081606Y0154622D03*
X0076606Y0147122D03*
X0071606Y0154622D03*
X0066606Y0162122D03*
X0071606Y0169622D03*
X0076606Y0162122D03*
X0081606Y0169622D03*
X0086606Y0162122D03*
X0091606Y0169622D03*
X0096606Y0162122D03*
X0101606Y0169622D03*
X0106606Y0162122D03*
X0111606Y0169622D03*
X0126606Y0162122D03*
X0121606Y0154622D03*
X0116606Y0147122D03*
X0126606Y0147122D03*
X0131606Y0154622D03*
X0136606Y0147122D03*
X0141606Y0154622D03*
X0136606Y0162122D03*
X0131606Y0169622D03*
X0141606Y0169622D03*
X0146606Y0162122D03*
X0151606Y0154622D03*
X0146606Y0147122D03*
X0156606Y0147122D03*
X0161606Y0154622D03*
X0156606Y0162122D03*
X0151606Y0169622D03*
X0161606Y0169622D03*
X0166606Y0162122D03*
X0171606Y0154622D03*
X0166606Y0147122D03*
X0176606Y0147122D03*
X0181606Y0154622D03*
X0176606Y0162122D03*
X0171606Y0169622D03*
X0181606Y0169622D03*
X0186606Y0162122D03*
X0191606Y0154622D03*
X0186606Y0147122D03*
X0196606Y0147122D03*
X0201606Y0154622D03*
X0196606Y0162122D03*
X0191606Y0169622D03*
X0201606Y0169622D03*
X0206606Y0162122D03*
X0211606Y0154622D03*
X0206606Y0147122D03*
X0216606Y0147122D03*
X0221606Y0154622D03*
X0216606Y0162122D03*
X0211606Y0169622D03*
X0221606Y0169622D03*
X0226606Y0162122D03*
X0231606Y0154622D03*
X0226606Y0147122D03*
X0236606Y0147122D03*
X0241606Y0154622D03*
X0236606Y0162122D03*
X0231606Y0169622D03*
X0241606Y0169622D03*
X0246606Y0162122D03*
X0251606Y0154622D03*
X0246606Y0147122D03*
X0256606Y0147122D03*
X0261606Y0154622D03*
X0256606Y0162122D03*
X0251606Y0169622D03*
X0261606Y0169622D03*
D26*
X0066606Y0147122D03*
D27*
X0014500Y0271118D03*
D28*
X0014500Y0261118D03*
X0014500Y0251118D03*
X0014500Y0241118D03*
D29*
X0375642Y0177102D03*
X0380642Y0177102D03*
X0385642Y0177102D03*
D30*
X0385642Y0177102D03*
X0380642Y0177102D03*
X0375642Y0177102D03*
D31*
X0375657Y0186480D03*
X0375657Y0193173D03*
X0385657Y0193173D03*
X0385657Y0186480D03*
X0375657Y0311480D03*
X0375657Y0318173D03*
D32*
X0375720Y0280183D02*
X0375720Y0277014D01*
X0370799Y0277014D02*
X0370799Y0280183D01*
X0380642Y0280183D02*
X0380642Y0277014D01*
X0385563Y0277014D02*
X0385563Y0280183D01*
X0390484Y0280183D02*
X0390484Y0277014D01*
X0289470Y0161669D02*
X0286302Y0161669D01*
X0286302Y0156748D02*
X0289470Y0156748D01*
X0289470Y0151827D02*
X0286302Y0151827D01*
X0286302Y0146906D02*
X0289470Y0146906D01*
X0289470Y0141984D02*
X0286302Y0141984D01*
D33*
X0334421Y0164740D03*
D34*
X0324579Y0164740D03*
X0314736Y0164740D03*
X0304894Y0164740D03*
D35*
X0334657Y0181327D03*
D36*
X0324657Y0181327D03*
X0314657Y0181327D03*
X0304657Y0181327D03*
D37*
X0234657Y0221949D02*
X0234657Y0242752D01*
X0226157Y0242752D01*
X0226157Y0221949D01*
X0234657Y0221949D01*
X0234657Y0222624D02*
X0226157Y0222624D01*
X0226157Y0223623D02*
X0234657Y0223623D01*
X0234657Y0224621D02*
X0226157Y0224621D01*
X0226157Y0225620D02*
X0234657Y0225620D01*
X0234657Y0226618D02*
X0226157Y0226618D01*
X0226157Y0227617D02*
X0234657Y0227617D01*
X0234657Y0228615D02*
X0226157Y0228615D01*
X0226157Y0229614D02*
X0234657Y0229614D01*
X0234657Y0230612D02*
X0226157Y0230612D01*
X0226157Y0231611D02*
X0234657Y0231611D01*
X0234657Y0232609D02*
X0226157Y0232609D01*
X0226157Y0233608D02*
X0234657Y0233608D01*
X0234657Y0234606D02*
X0226157Y0234606D01*
X0226157Y0235605D02*
X0234657Y0235605D01*
X0234657Y0236603D02*
X0226157Y0236603D01*
X0226157Y0237602D02*
X0234657Y0237602D01*
X0234657Y0238600D02*
X0226157Y0238600D01*
X0226157Y0239599D02*
X0234657Y0239599D01*
X0234657Y0240598D02*
X0226157Y0240598D01*
X0226157Y0241596D02*
X0234657Y0241596D01*
X0234657Y0242595D02*
X0226157Y0242595D01*
X0223157Y0242595D02*
X0213157Y0242595D01*
X0213157Y0242752D02*
X0223157Y0242752D01*
X0223157Y0218358D01*
X0213157Y0218358D01*
X0213157Y0242752D01*
X0213157Y0241596D02*
X0223157Y0241596D01*
X0223157Y0240598D02*
X0213157Y0240598D01*
X0213157Y0239599D02*
X0223157Y0239599D01*
X0223157Y0238600D02*
X0213157Y0238600D01*
X0213157Y0237602D02*
X0223157Y0237602D01*
X0223157Y0236603D02*
X0213157Y0236603D01*
X0213157Y0235605D02*
X0223157Y0235605D01*
X0223157Y0234606D02*
X0213157Y0234606D01*
X0213157Y0233608D02*
X0223157Y0233608D01*
X0223157Y0232609D02*
X0213157Y0232609D01*
X0213157Y0231611D02*
X0223157Y0231611D01*
X0223157Y0230612D02*
X0213157Y0230612D01*
X0213157Y0229614D02*
X0223157Y0229614D01*
X0223157Y0228615D02*
X0213157Y0228615D01*
X0213157Y0227617D02*
X0223157Y0227617D01*
X0223157Y0226618D02*
X0213157Y0226618D01*
X0213157Y0225620D02*
X0223157Y0225620D01*
X0223157Y0224621D02*
X0213157Y0224621D01*
X0213157Y0223623D02*
X0223157Y0223623D01*
X0223157Y0222624D02*
X0213157Y0222624D01*
X0213157Y0221626D02*
X0223157Y0221626D01*
X0223157Y0220627D02*
X0213157Y0220627D01*
X0213157Y0219629D02*
X0223157Y0219629D01*
X0223157Y0218630D02*
X0213157Y0218630D01*
X0204157Y0232327D02*
X0155157Y0232327D01*
X0155157Y0281327D01*
X0204157Y0281327D01*
X0204157Y0232327D01*
X0204157Y0232609D02*
X0155157Y0232609D01*
X0155157Y0233608D02*
X0204157Y0233608D01*
X0204157Y0234606D02*
X0155157Y0234606D01*
X0155157Y0235605D02*
X0204157Y0235605D01*
X0204157Y0236603D02*
X0155157Y0236603D01*
X0155157Y0237602D02*
X0204157Y0237602D01*
X0204157Y0238600D02*
X0155157Y0238600D01*
X0155157Y0239599D02*
X0204157Y0239599D01*
X0204157Y0240598D02*
X0155157Y0240598D01*
X0155157Y0241596D02*
X0204157Y0241596D01*
X0204157Y0242595D02*
X0155157Y0242595D01*
X0155157Y0243593D02*
X0204157Y0243593D01*
X0204157Y0244592D02*
X0155157Y0244592D01*
X0155157Y0245590D02*
X0204157Y0245590D01*
X0204157Y0246589D02*
X0155157Y0246589D01*
X0155157Y0247587D02*
X0204157Y0247587D01*
X0204157Y0248586D02*
X0155157Y0248586D01*
X0155157Y0249584D02*
X0204157Y0249584D01*
X0204157Y0250583D02*
X0155157Y0250583D01*
X0155157Y0251581D02*
X0204157Y0251581D01*
X0204157Y0252580D02*
X0155157Y0252580D01*
X0155157Y0253578D02*
X0204157Y0253578D01*
X0204157Y0254577D02*
X0155157Y0254577D01*
X0155157Y0255575D02*
X0204157Y0255575D01*
X0204157Y0256574D02*
X0155157Y0256574D01*
X0155157Y0257572D02*
X0204157Y0257572D01*
X0204157Y0258571D02*
X0155157Y0258571D01*
X0155157Y0259569D02*
X0204157Y0259569D01*
X0204157Y0260568D02*
X0155157Y0260568D01*
X0155157Y0261566D02*
X0204157Y0261566D01*
X0204157Y0262565D02*
X0155157Y0262565D01*
X0155157Y0263563D02*
X0204157Y0263563D01*
X0204157Y0264562D02*
X0155157Y0264562D01*
X0155157Y0265560D02*
X0204157Y0265560D01*
X0204157Y0266559D02*
X0155157Y0266559D01*
X0155157Y0267557D02*
X0204157Y0267557D01*
X0204157Y0268556D02*
X0155157Y0268556D01*
X0155157Y0269554D02*
X0204157Y0269554D01*
X0204157Y0270553D02*
X0155157Y0270553D01*
X0155157Y0271551D02*
X0204157Y0271551D01*
X0204157Y0272550D02*
X0155157Y0272550D01*
X0155157Y0273548D02*
X0204157Y0273548D01*
X0204157Y0274547D02*
X0155157Y0274547D01*
X0155157Y0275545D02*
X0204157Y0275545D01*
X0204157Y0276544D02*
X0155157Y0276544D01*
X0155157Y0277542D02*
X0204157Y0277542D01*
X0204157Y0278541D02*
X0155157Y0278541D01*
X0155157Y0279539D02*
X0204157Y0279539D01*
X0204157Y0280538D02*
X0155157Y0280538D01*
X0145020Y0290523D02*
X0136157Y0290523D01*
X0136157Y0289525D02*
X0144093Y0289525D01*
X0143657Y0289055D02*
X0136157Y0289055D01*
X0136157Y0307689D01*
X0147157Y0307689D01*
X0147157Y0292827D01*
X0143657Y0289055D01*
X0145946Y0291522D02*
X0136157Y0291522D01*
X0136157Y0292520D02*
X0146873Y0292520D01*
X0147157Y0293519D02*
X0136157Y0293519D01*
X0136157Y0294517D02*
X0147157Y0294517D01*
X0147157Y0295516D02*
X0136157Y0295516D01*
X0136157Y0296514D02*
X0147157Y0296514D01*
X0147157Y0297513D02*
X0136157Y0297513D01*
X0136157Y0298511D02*
X0147157Y0298511D01*
X0147157Y0299510D02*
X0136157Y0299510D01*
X0136157Y0300508D02*
X0147157Y0300508D01*
X0147157Y0301507D02*
X0136157Y0301507D01*
X0136157Y0302505D02*
X0147157Y0302505D01*
X0147157Y0303504D02*
X0136157Y0303504D01*
X0136157Y0304502D02*
X0147157Y0304502D01*
X0147157Y0305501D02*
X0136157Y0305501D01*
X0136157Y0306499D02*
X0147157Y0306499D01*
X0147157Y0307498D02*
X0136157Y0307498D01*
X0133157Y0307492D02*
X0133157Y0286598D01*
X0125657Y0286598D01*
X0125657Y0307492D01*
X0133157Y0307492D01*
X0133157Y0306499D02*
X0125657Y0306499D01*
X0125657Y0305501D02*
X0133157Y0305501D01*
X0133157Y0304502D02*
X0125657Y0304502D01*
X0125657Y0303504D02*
X0133157Y0303504D01*
X0133157Y0302505D02*
X0125657Y0302505D01*
X0125657Y0301507D02*
X0133157Y0301507D01*
X0133157Y0300508D02*
X0125657Y0300508D01*
X0125657Y0299510D02*
X0133157Y0299510D01*
X0133157Y0298511D02*
X0125657Y0298511D01*
X0125657Y0297513D02*
X0133157Y0297513D01*
X0133157Y0296514D02*
X0125657Y0296514D01*
X0125657Y0295516D02*
X0133157Y0295516D01*
X0133157Y0294517D02*
X0125657Y0294517D01*
X0125657Y0293519D02*
X0133157Y0293519D01*
X0133157Y0292520D02*
X0125657Y0292520D01*
X0125657Y0291522D02*
X0133157Y0291522D01*
X0133157Y0290523D02*
X0125657Y0290523D01*
X0125657Y0289525D02*
X0133157Y0289525D01*
X0133157Y0288526D02*
X0125657Y0288526D01*
X0125657Y0287528D02*
X0133157Y0287528D01*
X0135657Y0244327D02*
X0128657Y0244327D01*
X0125177Y0240846D01*
X0125177Y0234307D01*
X0132157Y0226827D01*
X0135657Y0226941D01*
X0135657Y0244327D01*
X0135657Y0243593D02*
X0127924Y0243593D01*
X0126925Y0242595D02*
X0135657Y0242595D01*
X0135657Y0241596D02*
X0125927Y0241596D01*
X0125177Y0240598D02*
X0135657Y0240598D01*
X0135657Y0239599D02*
X0125177Y0239599D01*
X0125177Y0238600D02*
X0135657Y0238600D01*
X0135657Y0237602D02*
X0125177Y0237602D01*
X0125177Y0236603D02*
X0135657Y0236603D01*
X0135657Y0235605D02*
X0125177Y0235605D01*
X0125177Y0234606D02*
X0135657Y0234606D01*
X0135657Y0233608D02*
X0125830Y0233608D01*
X0126761Y0232609D02*
X0135657Y0232609D01*
X0135657Y0231611D02*
X0127693Y0231611D01*
X0128625Y0230612D02*
X0135657Y0230612D01*
X0135657Y0229614D02*
X0129557Y0229614D01*
X0130488Y0228615D02*
X0135657Y0228615D01*
X0135657Y0227617D02*
X0131420Y0227617D01*
X0138649Y0227617D02*
X0146657Y0227617D01*
X0146657Y0228615D02*
X0138650Y0228615D01*
X0138650Y0229614D02*
X0146657Y0229614D01*
X0146657Y0230612D02*
X0138651Y0230612D01*
X0138651Y0231611D02*
X0146657Y0231611D01*
X0146657Y0232609D02*
X0138652Y0232609D01*
X0138652Y0233608D02*
X0146657Y0233608D01*
X0146657Y0234606D02*
X0138653Y0234606D01*
X0138653Y0235605D02*
X0146657Y0235605D01*
X0146657Y0236603D02*
X0138654Y0236603D01*
X0138654Y0237602D02*
X0146657Y0237602D01*
X0146657Y0238600D02*
X0138655Y0238600D01*
X0138655Y0239599D02*
X0146657Y0239599D01*
X0146657Y0240598D02*
X0138656Y0240598D01*
X0138656Y0241596D02*
X0146657Y0241596D01*
X0146657Y0242595D02*
X0138657Y0242595D01*
X0138657Y0243593D02*
X0146657Y0243593D01*
X0146657Y0244327D02*
X0146657Y0219886D01*
X0138646Y0220004D01*
X0138657Y0244327D01*
X0146657Y0244327D01*
X0146657Y0226618D02*
X0138649Y0226618D01*
X0138648Y0225620D02*
X0146657Y0225620D01*
X0146657Y0224621D02*
X0138648Y0224621D01*
X0138647Y0223623D02*
X0146657Y0223623D01*
X0146657Y0222624D02*
X0138647Y0222624D01*
X0138646Y0221626D02*
X0146657Y0221626D01*
X0146657Y0220627D02*
X0138646Y0220627D01*
X0209646Y0287827D02*
X0223157Y0287827D01*
X0223157Y0307327D01*
X0209646Y0307327D01*
X0209646Y0287827D01*
X0209646Y0288526D02*
X0223157Y0288526D01*
X0223157Y0289525D02*
X0209646Y0289525D01*
X0209646Y0290523D02*
X0223157Y0290523D01*
X0223157Y0291522D02*
X0209646Y0291522D01*
X0209646Y0292520D02*
X0223157Y0292520D01*
X0223157Y0293519D02*
X0209646Y0293519D01*
X0209646Y0294517D02*
X0223157Y0294517D01*
X0223157Y0295516D02*
X0209646Y0295516D01*
X0209646Y0296514D02*
X0223157Y0296514D01*
X0223157Y0297513D02*
X0209646Y0297513D01*
X0209646Y0298511D02*
X0223157Y0298511D01*
X0223157Y0299510D02*
X0209646Y0299510D01*
X0209646Y0300508D02*
X0223157Y0300508D01*
X0223157Y0301507D02*
X0209646Y0301507D01*
X0209646Y0302505D02*
X0223157Y0302505D01*
X0223157Y0303504D02*
X0209646Y0303504D01*
X0209646Y0304502D02*
X0223157Y0304502D01*
X0223157Y0305501D02*
X0209646Y0305501D01*
X0209646Y0306499D02*
X0223157Y0306499D01*
X0226157Y0306499D02*
X0235642Y0306499D01*
X0235642Y0307327D02*
X0235642Y0287827D01*
X0226157Y0287827D01*
X0226157Y0307327D01*
X0235642Y0307327D01*
X0235642Y0305501D02*
X0226157Y0305501D01*
X0226157Y0304502D02*
X0235642Y0304502D01*
X0235642Y0303504D02*
X0226157Y0303504D01*
X0226157Y0302505D02*
X0235642Y0302505D01*
X0235642Y0301507D02*
X0226157Y0301507D01*
X0226157Y0300508D02*
X0235642Y0300508D01*
X0235642Y0299510D02*
X0226157Y0299510D01*
X0226157Y0298511D02*
X0235642Y0298511D01*
X0235642Y0297513D02*
X0226157Y0297513D01*
X0226157Y0296514D02*
X0235642Y0296514D01*
X0235642Y0295516D02*
X0226157Y0295516D01*
X0226157Y0294517D02*
X0235642Y0294517D01*
X0235642Y0293519D02*
X0226157Y0293519D01*
X0226157Y0292520D02*
X0235642Y0292520D01*
X0235642Y0291522D02*
X0226157Y0291522D01*
X0226157Y0290523D02*
X0235642Y0290523D01*
X0235642Y0289525D02*
X0226157Y0289525D01*
X0226157Y0288526D02*
X0235642Y0288526D01*
X0014657Y0240961D02*
X0014500Y0241118D01*
D38*
X0045157Y0203327D03*
X0044157Y0183827D03*
X0049157Y0183827D03*
X0050157Y0173327D03*
X0055157Y0163327D03*
X0064445Y0132543D03*
X0084445Y0132543D03*
X0093909Y0223362D03*
X0084657Y0251236D03*
X0084657Y0262220D03*
X0084657Y0306039D03*
X0084657Y0317614D03*
X0285657Y0195327D03*
X0301157Y0206327D03*
X0320157Y0200327D03*
X0315157Y0225327D03*
X0330157Y0231827D03*
X0336657Y0231827D03*
X0315157Y0237327D03*
X0348157Y0113827D03*
D39*
X0368157Y0193327D03*
X0393157Y0193327D03*
X0269157Y0204827D03*
X0262748Y0204744D03*
X0221748Y0219744D03*
X0214295Y0221472D03*
X0208157Y0220327D03*
X0204028Y0221472D03*
X0196657Y0220327D03*
X0194264Y0205114D03*
X0176657Y0220327D03*
X0172622Y0221472D03*
X0168685Y0220472D03*
X0155157Y0220327D03*
X0151059Y0222472D03*
X0145744Y0220972D03*
X0145291Y0226244D03*
X0149697Y0232693D03*
X0144382Y0247047D03*
X0144157Y0253327D03*
X0147657Y0255827D03*
X0144157Y0258327D03*
X0147657Y0260827D03*
X0144382Y0275803D03*
X0144382Y0283480D03*
X0146157Y0287327D03*
X0143157Y0290827D03*
X0146157Y0293827D03*
X0150657Y0293827D03*
X0155012Y0292339D03*
X0159157Y0293827D03*
X0166657Y0293827D03*
X0176272Y0292339D03*
X0182657Y0293827D03*
X0180657Y0306327D03*
X0198122Y0292339D03*
X0202256Y0292339D03*
X0210878Y0294031D03*
X0216469Y0289031D03*
X0216657Y0284827D03*
X0214067Y0281209D03*
X0216657Y0267327D03*
X0213067Y0263992D03*
X0233157Y0241327D03*
X0210130Y0240370D03*
X0218004Y0214917D03*
X0131157Y0287327D03*
X0127157Y0287327D03*
X0094224Y0301394D03*
X0075130Y0301394D03*
X0064500Y0302732D03*
X0061350Y0305488D03*
X0064500Y0308244D03*
X0061350Y0311000D03*
X0064500Y0313362D03*
X0061350Y0315724D03*
X0064500Y0318480D03*
X0061350Y0321236D03*
X0064500Y0324386D03*
X0061350Y0327142D03*
X0064500Y0330291D03*
X0075130Y0323047D03*
X0094224Y0323047D03*
X0106657Y0332827D03*
X0064500Y0296827D03*
X0061350Y0299583D03*
X0061350Y0293677D03*
X0039894Y0294268D03*
X0036744Y0287339D03*
X0039894Y0284189D03*
X0036744Y0281039D03*
X0039894Y0277890D03*
X0036783Y0270252D03*
X0039933Y0267102D03*
X0036783Y0263953D03*
X0039933Y0260803D03*
X0036783Y0253362D03*
X0039933Y0250213D03*
X0036783Y0247063D03*
X0039933Y0243913D03*
X0036823Y0236276D03*
X0039972Y0233126D03*
X0036823Y0229976D03*
X0039972Y0226827D03*
X0061350Y0223047D03*
X0064500Y0220291D03*
X0060957Y0217732D03*
X0064106Y0214976D03*
X0060169Y0210055D03*
X0060563Y0205921D03*
X0064500Y0203559D03*
X0060957Y0201000D03*
X0064500Y0198441D03*
X0060957Y0195882D03*
X0064303Y0193323D03*
X0059972Y0189189D03*
X0064500Y0186433D03*
X0061350Y0183677D03*
X0064500Y0180921D03*
X0074748Y0191843D03*
X0086323Y0180465D03*
X0064500Y0208283D03*
X0075130Y0246276D03*
X0094028Y0246079D03*
X0094224Y0267929D03*
X0075130Y0267929D03*
X0119657Y0240827D03*
X0126157Y0239327D03*
X0127157Y0235327D03*
X0110476Y0209957D03*
X0124146Y0191591D03*
X0233657Y0291327D03*
X0238657Y0292327D03*
X0238657Y0298827D03*
X0234657Y0301827D03*
X0241157Y0320827D03*
X0240157Y0325827D03*
X0226657Y0334827D03*
X0202657Y0305827D03*
X0262657Y0310827D03*
X0269248Y0310744D03*
X0277157Y0302327D03*
X0284748Y0327744D03*
X0284657Y0333827D03*
D40*
X0193657Y0285827D02*
X0193657Y0285370D01*
X0182657Y0293827D02*
X0187004Y0298173D01*
X0187004Y0311827D01*
X0144657Y0275528D02*
X0144382Y0275803D01*
X0144358Y0275827D01*
X0130157Y0275827D01*
X0126561Y0272230D01*
X0126561Y0265827D01*
X0133254Y0265827D02*
X0142657Y0265827D01*
X0147657Y0260827D01*
X0144157Y0258327D02*
X0133254Y0258327D01*
X0126561Y0258327D02*
X0123157Y0258327D01*
X0121657Y0256827D01*
X0121657Y0246827D01*
X0126157Y0242327D01*
X0126157Y0239327D01*
X0127657Y0246827D02*
X0144161Y0246827D01*
X0144382Y0247047D01*
X0142157Y0250327D02*
X0146657Y0250327D01*
X0147657Y0251327D01*
X0147657Y0255827D01*
X0142157Y0250327D02*
X0141657Y0250827D01*
X0133254Y0250827D01*
X0126561Y0250827D02*
X0126561Y0247923D01*
X0127657Y0246827D01*
X0150657Y0265827D02*
X0151114Y0265827D01*
X0117407Y0292341D02*
X0117407Y0312813D01*
X0117407Y0321283D01*
X0118451Y0322327D01*
X0112407Y0321283D02*
X0111364Y0322327D01*
X0111364Y0333533D01*
X0119657Y0336827D01*
X0112407Y0321283D02*
X0112407Y0312813D01*
X0112407Y0292341D01*
X0094224Y0301394D02*
X0092768Y0301394D01*
X0089657Y0298283D01*
X0089657Y0305370D02*
X0085327Y0305370D01*
X0084657Y0306039D01*
X0083988Y0305370D01*
X0079657Y0305370D01*
X0076547Y0301394D02*
X0075130Y0301394D01*
X0076547Y0301394D02*
X0079657Y0298283D01*
X0084657Y0317614D02*
X0083988Y0318283D01*
X0079657Y0318283D01*
X0077335Y0323047D02*
X0075130Y0323047D01*
X0077335Y0323047D02*
X0079657Y0325370D01*
X0085327Y0318283D02*
X0084657Y0317614D01*
X0085327Y0318283D02*
X0089657Y0318283D01*
X0091980Y0323047D02*
X0094224Y0323047D01*
X0091980Y0323047D02*
X0089657Y0325370D01*
X0089657Y0270370D02*
X0092098Y0267929D01*
X0094224Y0267929D01*
X0089657Y0263283D02*
X0085720Y0263283D01*
X0084657Y0262220D01*
X0083594Y0263283D01*
X0079657Y0263283D01*
X0077217Y0267929D02*
X0075130Y0267929D01*
X0077217Y0267929D02*
X0079657Y0270370D01*
X0084657Y0251236D02*
X0083791Y0250370D01*
X0079657Y0250370D01*
X0076665Y0246276D02*
X0075130Y0246276D01*
X0076665Y0246276D02*
X0079657Y0243283D01*
X0085524Y0250370D02*
X0084657Y0251236D01*
X0085524Y0250370D02*
X0089657Y0250370D01*
X0092453Y0246079D02*
X0094028Y0246079D01*
X0092453Y0246079D02*
X0089657Y0243283D01*
X0368157Y0193327D02*
X0369504Y0193173D01*
X0375657Y0193173D01*
X0375657Y0186480D02*
X0375657Y0177118D01*
X0375642Y0177102D01*
X0385642Y0177102D02*
X0385657Y0177118D01*
X0385657Y0186480D01*
X0385657Y0193173D02*
X0391311Y0193173D01*
X0393157Y0193327D01*
X0375642Y0252181D02*
X0375642Y0259496D01*
X0374811Y0260327D01*
X0380642Y0261189D02*
X0381504Y0260327D01*
X0380642Y0261189D02*
X0380642Y0278598D01*
X0375720Y0278598D02*
X0375657Y0278661D01*
X0375657Y0311480D01*
X0375657Y0318173D02*
X0375657Y0327244D01*
X0375642Y0327260D01*
D41*
X0334657Y0324327D03*
X0328157Y0323827D03*
X0328157Y0312827D03*
X0334657Y0312327D03*
X0308657Y0313827D03*
X0308657Y0323327D03*
X0258657Y0328327D03*
X0302657Y0266827D03*
X0314157Y0252827D03*
X0314157Y0246827D03*
X0320157Y0246827D03*
X0320157Y0252827D03*
X0331657Y0266827D03*
X0129657Y0329827D03*
D42*
X0129657Y0324327D01*
X0127657Y0322327D01*
X0118451Y0322327D01*
X0155012Y0292339D02*
X0161980Y0285370D01*
X0164657Y0285370D01*
X0176657Y0285370D02*
X0176657Y0291953D01*
X0176272Y0292339D01*
X0193657Y0287827D02*
X0198169Y0292339D01*
X0198122Y0292339D01*
X0202256Y0292339D02*
X0202256Y0287969D01*
X0199657Y0285370D01*
X0193657Y0285827D02*
X0193657Y0287827D01*
X0207701Y0271327D02*
X0214067Y0276693D01*
X0214067Y0281209D01*
X0213067Y0263992D02*
X0208366Y0263992D01*
X0207701Y0263327D01*
X0208201Y0246827D02*
X0210130Y0244898D01*
X0210130Y0240370D01*
X0202157Y0228283D02*
X0204028Y0226413D01*
X0204028Y0221472D01*
X0176657Y0228283D02*
X0175346Y0225972D01*
X0172622Y0221472D01*
X0168685Y0220472D02*
X0168685Y0226311D01*
X0170657Y0228283D01*
X0164657Y0228283D02*
X0156870Y0228283D01*
X0151059Y0222472D01*
X0149697Y0232693D02*
X0151114Y0234110D01*
X0151114Y0241827D01*
X0151114Y0247827D02*
X0144661Y0247827D01*
X0144382Y0247047D01*
X0150657Y0265827D02*
X0144657Y0271327D01*
X0144657Y0275528D01*
X0151114Y0276748D02*
X0144382Y0283480D01*
X0151114Y0276748D02*
X0151114Y0271827D01*
X0314657Y0181327D02*
X0314657Y0164819D01*
X0314736Y0164740D01*
X0324579Y0164740D02*
X0324657Y0164819D01*
X0324657Y0181327D01*
D43*
X0057657Y0110827D03*
X0051657Y0117327D03*
D44*
X0071094Y0139327D02*
X0228811Y0139327D01*
X0228999Y0139329D01*
X0229188Y0139336D01*
X0229376Y0139347D01*
X0229563Y0139363D01*
X0229751Y0139384D01*
X0229937Y0139409D01*
X0230123Y0139438D01*
X0230309Y0139472D01*
X0230493Y0139511D01*
X0230676Y0139554D01*
X0230859Y0139601D01*
X0231040Y0139652D01*
X0231220Y0139709D01*
X0231398Y0139769D01*
X0231575Y0139834D01*
X0231750Y0139902D01*
X0231924Y0139976D01*
X0232096Y0140053D01*
X0232266Y0140134D01*
X0232434Y0140220D01*
X0232599Y0140309D01*
X0232763Y0140403D01*
X0232924Y0140500D01*
X0233083Y0140602D01*
X0233239Y0140707D01*
X0233393Y0140816D01*
X0233544Y0140928D01*
X0233692Y0141044D01*
X0233838Y0141164D01*
X0233980Y0141287D01*
X0234120Y0141414D01*
X0234256Y0141544D01*
X0234389Y0141677D01*
X0234519Y0141813D01*
X0234646Y0141953D01*
X0234769Y0142095D01*
X0234889Y0142241D01*
X0235005Y0142389D01*
X0235117Y0142540D01*
X0235226Y0142694D01*
X0235331Y0142850D01*
X0235433Y0143009D01*
X0235530Y0143170D01*
X0235624Y0143334D01*
X0235713Y0143499D01*
X0235799Y0143667D01*
X0235880Y0143837D01*
X0235957Y0144009D01*
X0236031Y0144183D01*
X0236099Y0144358D01*
X0236164Y0144535D01*
X0236224Y0144713D01*
X0236281Y0144893D01*
X0236332Y0145074D01*
X0236379Y0145257D01*
X0236422Y0145440D01*
X0236461Y0145624D01*
X0236495Y0145810D01*
X0236524Y0145996D01*
X0236549Y0146182D01*
X0236570Y0146370D01*
X0236586Y0146557D01*
X0236597Y0146745D01*
X0236604Y0146934D01*
X0236606Y0147122D01*
X0244165Y0147122D02*
X0230248Y0161039D01*
X0230248Y0163598D01*
X0225720Y0168126D01*
X0225720Y0171138D01*
X0207669Y0189189D01*
X0161508Y0189189D01*
X0113713Y0236984D01*
X0113713Y0273047D01*
X0100720Y0286039D01*
X0100720Y0306118D01*
X0093240Y0313598D01*
X0071390Y0313598D01*
X0066508Y0318480D01*
X0064500Y0318480D01*
X0067059Y0315961D02*
X0061587Y0315961D01*
X0061350Y0315724D01*
X0064500Y0313362D02*
X0067689Y0313362D01*
X0069815Y0311236D01*
X0092059Y0311236D01*
X0098358Y0304937D01*
X0098358Y0284858D01*
X0111350Y0271866D01*
X0111350Y0235409D01*
X0160327Y0186433D01*
X0198752Y0186433D01*
X0211606Y0173579D01*
X0211606Y0169622D01*
X0207886Y0167142D02*
X0207886Y0175488D01*
X0199972Y0183402D01*
X0198319Y0185055D01*
X0159736Y0185055D01*
X0110169Y0234622D01*
X0110169Y0271276D01*
X0097157Y0284287D01*
X0097157Y0304327D01*
X0092256Y0309228D01*
X0091567Y0309917D01*
X0069067Y0309917D01*
X0068969Y0309917D01*
X0068043Y0310843D01*
X0061508Y0310843D01*
X0061350Y0311000D01*
X0064500Y0308244D02*
X0068791Y0304346D01*
X0068831Y0304346D01*
X0068831Y0302378D01*
X0082020Y0289189D01*
X0090484Y0289189D01*
X0108988Y0270685D01*
X0108988Y0270488D01*
X0108988Y0233835D01*
X0159146Y0183677D01*
X0159343Y0183677D01*
X0197925Y0183677D01*
X0206705Y0174898D01*
X0206705Y0162417D01*
X0206606Y0162319D01*
X0206606Y0162122D01*
X0203161Y0159465D02*
X0203161Y0164780D01*
X0205524Y0167142D01*
X0205524Y0174307D01*
X0197531Y0182299D01*
X0158555Y0182299D01*
X0107807Y0233047D01*
X0107807Y0269898D01*
X0107807Y0270094D01*
X0089894Y0288008D01*
X0081429Y0288008D01*
X0067453Y0301984D01*
X0067453Y0303756D01*
X0065720Y0305488D01*
X0061350Y0305488D01*
X0064500Y0302732D02*
X0064933Y0302732D01*
X0080839Y0286827D01*
X0089303Y0286827D01*
X0106626Y0269504D01*
X0106626Y0232260D01*
X0157965Y0180921D01*
X0184067Y0180921D01*
X0191606Y0173382D01*
X0191606Y0169622D01*
X0187886Y0167142D02*
X0187886Y0175291D01*
X0183634Y0179543D01*
X0157374Y0179543D01*
X0105445Y0231472D01*
X0105445Y0268913D01*
X0088713Y0285646D01*
X0080248Y0285646D01*
X0066311Y0299583D01*
X0061350Y0299583D01*
X0058122Y0330291D02*
X0057302Y0330234D01*
X0056482Y0330156D01*
X0055665Y0330059D01*
X0054851Y0329942D01*
X0054039Y0329806D01*
X0053231Y0329650D01*
X0052427Y0329474D01*
X0051628Y0329280D01*
X0050833Y0329065D01*
X0050044Y0328832D01*
X0049261Y0328580D01*
X0048484Y0328309D01*
X0047713Y0328019D01*
X0046951Y0327711D01*
X0046195Y0327384D01*
X0045448Y0327039D01*
X0044709Y0326676D01*
X0043980Y0326296D01*
X0043260Y0325898D01*
X0042549Y0325482D01*
X0041849Y0325050D01*
X0041160Y0324601D01*
X0040481Y0324135D01*
X0039814Y0323653D01*
X0039159Y0323155D01*
X0038516Y0322641D01*
X0037886Y0322112D01*
X0037268Y0321568D01*
X0036664Y0321009D01*
X0036074Y0320436D01*
X0035498Y0319849D01*
X0034936Y0319248D01*
X0034388Y0318633D01*
X0033856Y0318005D01*
X0033339Y0317365D01*
X0032838Y0316713D01*
X0032352Y0316048D01*
X0031883Y0315372D01*
X0031431Y0314685D01*
X0030995Y0313987D01*
X0030576Y0313279D01*
X0030174Y0312561D01*
X0029789Y0311833D01*
X0029423Y0311096D01*
X0029074Y0310351D01*
X0028744Y0309597D01*
X0028431Y0308836D01*
X0028138Y0308067D01*
X0027862Y0307292D01*
X0027606Y0306510D01*
X0027369Y0305722D01*
X0027151Y0304928D01*
X0026952Y0304130D01*
X0026772Y0303327D01*
X0026612Y0302519D01*
X0026471Y0301709D01*
X0026350Y0300895D01*
X0026249Y0300078D01*
X0026167Y0299259D01*
X0026106Y0298439D01*
X0026064Y0297617D01*
X0026042Y0296794D01*
X0026040Y0295971D01*
X0026057Y0295149D01*
X0026095Y0294326D01*
X0026094Y0294327D02*
X0026094Y0184327D01*
X0059972Y0189189D02*
X0065878Y0189189D01*
X0067256Y0187811D01*
X0067256Y0185449D01*
X0081606Y0171098D01*
X0081606Y0169622D01*
X0085524Y0171472D02*
X0085524Y0167142D01*
X0083161Y0164780D01*
X0083161Y0159465D01*
X0086606Y0156020D01*
X0086606Y0147122D01*
X0081606Y0154563D02*
X0080248Y0155921D01*
X0080248Y0164780D01*
X0077886Y0167142D01*
X0077886Y0173047D01*
X0064500Y0186433D01*
X0065484Y0183677D02*
X0061350Y0183677D01*
X0065484Y0183677D02*
X0076705Y0172457D01*
X0076705Y0162417D01*
X0076606Y0162319D01*
X0076606Y0162122D01*
X0073161Y0159465D02*
X0073161Y0164780D01*
X0075524Y0167142D01*
X0075524Y0171866D01*
X0066469Y0180921D01*
X0064500Y0180921D01*
X0026094Y0184327D02*
X0026107Y0183240D01*
X0026147Y0182153D01*
X0026212Y0181067D01*
X0026304Y0179984D01*
X0026422Y0178903D01*
X0026566Y0177825D01*
X0026736Y0176751D01*
X0026932Y0175681D01*
X0027154Y0174617D01*
X0027402Y0173558D01*
X0027675Y0172505D01*
X0027973Y0171459D01*
X0028296Y0170421D01*
X0028645Y0169391D01*
X0029018Y0168370D01*
X0029416Y0167358D01*
X0029838Y0166356D01*
X0030285Y0165364D01*
X0030755Y0164383D01*
X0031248Y0163414D01*
X0031765Y0162458D01*
X0032305Y0161514D01*
X0032868Y0160583D01*
X0033453Y0159666D01*
X0034060Y0158764D01*
X0034688Y0157877D01*
X0035338Y0157005D01*
X0036009Y0156149D01*
X0036700Y0155309D01*
X0037411Y0154486D01*
X0038142Y0153681D01*
X0038892Y0152894D01*
X0039661Y0152125D01*
X0040448Y0151375D01*
X0041253Y0150644D01*
X0042076Y0149933D01*
X0042916Y0149242D01*
X0043772Y0148571D01*
X0044644Y0147921D01*
X0045531Y0147293D01*
X0046433Y0146686D01*
X0047350Y0146101D01*
X0048281Y0145538D01*
X0049225Y0144998D01*
X0050181Y0144481D01*
X0051150Y0143988D01*
X0052131Y0143518D01*
X0053123Y0143071D01*
X0054125Y0142649D01*
X0055137Y0142251D01*
X0056158Y0141878D01*
X0057188Y0141529D01*
X0058226Y0141206D01*
X0059272Y0140908D01*
X0060325Y0140635D01*
X0061384Y0140387D01*
X0062448Y0140165D01*
X0063518Y0139969D01*
X0064592Y0139799D01*
X0065670Y0139655D01*
X0066751Y0139537D01*
X0067834Y0139445D01*
X0068920Y0139380D01*
X0070007Y0139340D01*
X0071094Y0139327D01*
X0076606Y0147122D02*
X0076606Y0156020D01*
X0073161Y0159465D01*
X0081606Y0154622D02*
X0081606Y0154563D01*
X0090248Y0155921D02*
X0090248Y0164780D01*
X0087886Y0167142D01*
X0087886Y0172654D01*
X0068437Y0192102D01*
X0068437Y0194504D01*
X0064500Y0198441D01*
X0065287Y0195882D02*
X0060957Y0195882D01*
X0064303Y0193323D02*
X0064264Y0192732D01*
X0085524Y0171472D01*
X0086705Y0172063D02*
X0067256Y0191512D01*
X0067256Y0193913D01*
X0065287Y0195882D01*
X0067256Y0197457D02*
X0069618Y0195094D01*
X0069618Y0192732D01*
X0091606Y0170744D01*
X0091606Y0169622D01*
X0095327Y0166945D02*
X0095327Y0175622D01*
X0067587Y0203362D01*
X0064500Y0203559D01*
X0066075Y0201000D02*
X0067256Y0199819D01*
X0067256Y0197457D01*
X0066075Y0201000D02*
X0060957Y0201000D01*
X0060563Y0205921D02*
X0066996Y0205921D01*
X0096606Y0176311D01*
X0096606Y0162122D01*
X0096606Y0162319D01*
X0093161Y0164780D02*
X0093161Y0159465D01*
X0096606Y0156020D01*
X0096606Y0147122D01*
X0091606Y0154563D02*
X0090248Y0155921D01*
X0091606Y0154622D02*
X0091606Y0154563D01*
X0100248Y0155921D02*
X0100248Y0164780D01*
X0097886Y0167142D01*
X0097886Y0177000D01*
X0066406Y0208480D01*
X0064500Y0208283D01*
X0066406Y0210646D02*
X0099146Y0177709D01*
X0099146Y0175803D01*
X0101606Y0173343D01*
X0101606Y0169622D01*
X0105327Y0166945D02*
X0103161Y0164780D01*
X0103161Y0159465D01*
X0106606Y0156020D01*
X0106606Y0147122D01*
X0101606Y0154563D02*
X0100248Y0155921D01*
X0101606Y0154622D02*
X0101606Y0154563D01*
X0110248Y0155921D02*
X0110248Y0164780D01*
X0107886Y0167142D01*
X0107886Y0176512D01*
X0064500Y0219898D01*
X0064500Y0220291D01*
X0064894Y0217732D02*
X0060957Y0217732D01*
X0064894Y0217732D02*
X0106606Y0176020D01*
X0106606Y0162122D01*
X0105327Y0166945D02*
X0105327Y0175528D01*
X0065878Y0214976D01*
X0064106Y0214976D01*
X0066406Y0210646D02*
X0060760Y0210646D01*
X0060169Y0210055D01*
X0067453Y0218717D02*
X0111606Y0174563D01*
X0111606Y0169622D01*
X0117886Y0167142D02*
X0117886Y0174780D01*
X0067650Y0225016D01*
X0066626Y0226039D01*
X0065839Y0226827D01*
X0039972Y0226827D01*
X0036823Y0229976D02*
X0064382Y0229976D01*
X0066980Y0227378D01*
X0068161Y0226197D01*
X0121606Y0172752D01*
X0121606Y0171827D01*
X0121606Y0169622D01*
X0125327Y0170685D02*
X0125327Y0166945D01*
X0123161Y0164780D01*
X0123161Y0159465D01*
X0126606Y0156020D01*
X0126606Y0147122D01*
X0121606Y0154563D02*
X0120248Y0155921D01*
X0120248Y0164780D01*
X0117886Y0167142D01*
X0125327Y0170685D02*
X0068634Y0227378D01*
X0062886Y0233126D01*
X0039972Y0233126D01*
X0036823Y0236276D02*
X0061508Y0236276D01*
X0069224Y0228559D01*
X0126606Y0171177D01*
X0126606Y0162122D01*
X0130248Y0164780D02*
X0127886Y0167142D01*
X0127886Y0171669D01*
X0055642Y0243913D01*
X0039933Y0243913D01*
X0036783Y0247063D02*
X0054264Y0247063D01*
X0131606Y0169720D01*
X0131606Y0169622D01*
X0133004Y0173047D02*
X0130051Y0173047D01*
X0052886Y0250213D01*
X0039933Y0250213D01*
X0036783Y0253362D02*
X0051508Y0253362D01*
X0130642Y0174228D01*
X0133594Y0174228D01*
X0136606Y0171217D01*
X0136606Y0162122D01*
X0133161Y0159465D02*
X0133161Y0164780D01*
X0135327Y0166945D01*
X0135327Y0170724D01*
X0133004Y0173047D01*
X0134185Y0175409D02*
X0137886Y0171709D01*
X0137886Y0167142D01*
X0140248Y0164780D01*
X0140248Y0155921D01*
X0141606Y0154563D01*
X0141606Y0154622D01*
X0143161Y0159465D02*
X0143161Y0164780D01*
X0145327Y0166945D01*
X0145327Y0170370D01*
X0142650Y0173047D01*
X0140091Y0173047D01*
X0135366Y0177772D01*
X0132413Y0177772D01*
X0043083Y0267102D01*
X0039933Y0267102D01*
X0041705Y0270252D02*
X0036783Y0270252D01*
X0041705Y0270252D02*
X0133004Y0178953D01*
X0135957Y0178953D01*
X0140681Y0174228D01*
X0143240Y0174228D01*
X0146606Y0170862D01*
X0146606Y0162122D01*
X0143161Y0159465D02*
X0146606Y0156020D01*
X0146606Y0147122D01*
X0151606Y0154563D02*
X0150248Y0155921D01*
X0150248Y0164780D01*
X0147886Y0167142D01*
X0147886Y0176236D01*
X0097157Y0226965D01*
X0097157Y0250035D01*
X0092256Y0254937D01*
X0062846Y0254937D01*
X0039894Y0277890D01*
X0042650Y0276984D02*
X0042650Y0279543D01*
X0041272Y0280921D01*
X0036862Y0280921D01*
X0036744Y0281039D01*
X0039894Y0284189D02*
X0043831Y0280252D01*
X0043831Y0277575D01*
X0064106Y0257299D01*
X0093437Y0257299D01*
X0099539Y0251197D01*
X0099539Y0228126D01*
X0155524Y0172142D01*
X0155524Y0167142D01*
X0153161Y0164780D01*
X0153161Y0159465D01*
X0156606Y0156020D01*
X0156606Y0147122D01*
X0151606Y0154563D02*
X0151606Y0154622D01*
X0160248Y0155921D02*
X0160248Y0164780D01*
X0157886Y0167142D01*
X0157886Y0173323D01*
X0101902Y0229307D01*
X0101902Y0267083D01*
X0087157Y0281827D01*
X0052335Y0281827D01*
X0039894Y0294268D01*
X0040878Y0287220D02*
X0036862Y0287220D01*
X0036744Y0287339D01*
X0040878Y0287220D02*
X0045012Y0283087D01*
X0045012Y0278165D01*
X0064697Y0258480D01*
X0094028Y0258480D01*
X0100720Y0251787D01*
X0100720Y0228717D01*
X0156705Y0172732D01*
X0156705Y0162417D01*
X0156606Y0162319D01*
X0156606Y0162122D01*
X0160248Y0155921D02*
X0161606Y0154563D01*
X0161606Y0154622D01*
X0151606Y0169622D02*
X0149185Y0172043D01*
X0149185Y0176709D01*
X0098358Y0227535D01*
X0098358Y0250606D01*
X0092846Y0256118D01*
X0063516Y0256118D01*
X0042650Y0276984D01*
X0044461Y0263953D02*
X0036783Y0263953D01*
X0039933Y0260803D02*
X0045839Y0260803D01*
X0131232Y0175409D01*
X0134185Y0175409D01*
X0134776Y0176591D02*
X0131823Y0176591D01*
X0044461Y0263953D01*
X0071941Y0283087D02*
X0061350Y0293677D01*
X0064500Y0296827D02*
X0064657Y0296827D01*
X0077157Y0284327D01*
X0088260Y0284327D01*
X0104264Y0268323D01*
X0104264Y0230685D01*
X0156783Y0178165D01*
X0183240Y0178165D01*
X0186705Y0174701D01*
X0186705Y0162417D01*
X0186606Y0162319D01*
X0186606Y0162122D01*
X0183161Y0159465D02*
X0183161Y0164780D01*
X0185524Y0167142D01*
X0185524Y0174110D01*
X0182807Y0176827D01*
X0156232Y0176827D01*
X0103063Y0229996D01*
X0103063Y0267752D01*
X0087728Y0283087D01*
X0071941Y0283087D01*
X0099539Y0285449D02*
X0099539Y0305528D01*
X0092650Y0312417D01*
X0070602Y0312417D01*
X0067059Y0315961D01*
X0069067Y0321236D02*
X0061350Y0321236D01*
X0064500Y0324386D02*
X0070642Y0330528D01*
X0092650Y0330528D01*
X0103083Y0320094D01*
X0103083Y0287220D01*
X0116075Y0274228D01*
X0116075Y0238559D01*
X0162689Y0191945D01*
X0208791Y0191945D01*
X0226409Y0174327D01*
X0232157Y0174327D01*
X0236862Y0169622D01*
X0241606Y0169622D01*
X0246221Y0166776D02*
X0246302Y0166900D01*
X0246380Y0167027D01*
X0246454Y0167155D01*
X0246525Y0167285D01*
X0246593Y0167417D01*
X0246657Y0167551D01*
X0246717Y0167686D01*
X0246774Y0167823D01*
X0246827Y0167962D01*
X0246877Y0168101D01*
X0246923Y0168242D01*
X0246965Y0168385D01*
X0247004Y0168528D01*
X0247039Y0168672D01*
X0247069Y0168817D01*
X0247097Y0168963D01*
X0247120Y0169109D01*
X0247139Y0169256D01*
X0247155Y0169404D01*
X0247167Y0169551D01*
X0247175Y0169699D01*
X0247178Y0169848D01*
X0247179Y0169996D01*
X0247175Y0170144D01*
X0247167Y0170292D01*
X0247155Y0170440D01*
X0247140Y0170588D01*
X0247121Y0170735D01*
X0247097Y0170881D01*
X0247070Y0171027D01*
X0247039Y0171172D01*
X0247005Y0171316D01*
X0246966Y0171459D01*
X0246924Y0171601D01*
X0246878Y0171742D01*
X0246829Y0171882D01*
X0246776Y0172021D01*
X0246719Y0172158D01*
X0246658Y0172293D01*
X0246595Y0172427D01*
X0246527Y0172559D01*
X0246456Y0172689D01*
X0246382Y0172817D01*
X0246304Y0172944D01*
X0246224Y0173068D01*
X0246139Y0173190D01*
X0246052Y0173310D01*
X0245962Y0173428D01*
X0245868Y0173543D01*
X0245772Y0173655D01*
X0245672Y0173765D01*
X0220690Y0200535D01*
X0217796Y0201444D02*
X0244674Y0172598D01*
X0244675Y0172598D02*
X0244757Y0172508D01*
X0244836Y0172414D01*
X0244911Y0172319D01*
X0244984Y0172221D01*
X0245054Y0172120D01*
X0245120Y0172018D01*
X0245183Y0171913D01*
X0245243Y0171807D01*
X0245299Y0171698D01*
X0245352Y0171588D01*
X0245402Y0171477D01*
X0245447Y0171363D01*
X0245489Y0171249D01*
X0245528Y0171133D01*
X0245563Y0171016D01*
X0245594Y0170898D01*
X0245621Y0170779D01*
X0245644Y0170659D01*
X0245664Y0170538D01*
X0245679Y0170417D01*
X0245691Y0170295D01*
X0245699Y0170174D01*
X0245703Y0170052D01*
X0245704Y0169929D01*
X0245700Y0169807D01*
X0245692Y0169685D01*
X0245681Y0169564D01*
X0245666Y0169443D01*
X0245646Y0169322D01*
X0245623Y0169202D01*
X0245597Y0169083D01*
X0245566Y0168965D01*
X0245532Y0168848D01*
X0245494Y0168731D01*
X0245452Y0168617D01*
X0245407Y0168503D01*
X0245358Y0168391D01*
X0245305Y0168281D01*
X0245249Y0168173D01*
X0245190Y0168066D01*
X0245127Y0167961D01*
X0245061Y0167858D01*
X0244992Y0167758D01*
X0244919Y0167660D01*
X0244844Y0167564D01*
X0244843Y0167563D02*
X0243015Y0165539D01*
X0244117Y0164476D02*
X0246221Y0166776D01*
X0243015Y0165539D02*
X0242922Y0165433D01*
X0242832Y0165324D01*
X0242744Y0165213D01*
X0242660Y0165099D01*
X0242579Y0164983D01*
X0242501Y0164865D01*
X0242427Y0164745D01*
X0242356Y0164623D01*
X0242288Y0164498D01*
X0242224Y0164372D01*
X0242163Y0164245D01*
X0242106Y0164115D01*
X0242053Y0163984D01*
X0242003Y0163852D01*
X0241957Y0163718D01*
X0241914Y0163583D01*
X0241875Y0163447D01*
X0241840Y0163310D01*
X0241809Y0163172D01*
X0241782Y0163034D01*
X0241758Y0162894D01*
X0241739Y0162754D01*
X0241723Y0162613D01*
X0241711Y0162472D01*
X0241703Y0162331D01*
X0241700Y0162190D01*
X0241699Y0162048D01*
X0241703Y0161907D01*
X0241711Y0161766D01*
X0241723Y0161625D01*
X0241738Y0161484D01*
X0241758Y0161344D01*
X0241781Y0161205D01*
X0241808Y0161066D01*
X0241839Y0160928D01*
X0241874Y0160791D01*
X0241913Y0160655D01*
X0241955Y0160520D01*
X0242001Y0160386D01*
X0242051Y0160254D01*
X0242104Y0160123D01*
X0242161Y0159993D01*
X0242222Y0159866D01*
X0242286Y0159740D01*
X0242354Y0159615D01*
X0242425Y0159493D01*
X0250334Y0148521D01*
X0251838Y0148911D02*
X0243606Y0160280D01*
X0243551Y0160385D01*
X0243500Y0160492D01*
X0243452Y0160600D01*
X0243407Y0160710D01*
X0243367Y0160822D01*
X0243329Y0160935D01*
X0243296Y0161048D01*
X0243266Y0161163D01*
X0243240Y0161279D01*
X0243218Y0161396D01*
X0243199Y0161513D01*
X0243185Y0161631D01*
X0243174Y0161749D01*
X0243167Y0161867D01*
X0243164Y0161986D01*
X0243165Y0162104D01*
X0243170Y0162223D01*
X0243178Y0162341D01*
X0243191Y0162459D01*
X0243207Y0162577D01*
X0243227Y0162694D01*
X0243251Y0162810D01*
X0243279Y0162926D01*
X0243310Y0163040D01*
X0243345Y0163153D01*
X0243384Y0163265D01*
X0243427Y0163376D01*
X0243473Y0163486D01*
X0243522Y0163593D01*
X0243575Y0163700D01*
X0243632Y0163804D01*
X0243692Y0163906D01*
X0243755Y0164007D01*
X0243821Y0164105D01*
X0243891Y0164201D01*
X0243963Y0164295D01*
X0244039Y0164387D01*
X0244118Y0164475D01*
X0241606Y0154622D02*
X0239028Y0154622D01*
X0232020Y0161630D01*
X0232020Y0164386D01*
X0227492Y0168913D01*
X0227492Y0171472D01*
X0227295Y0171472D01*
X0208201Y0190567D01*
X0162098Y0190567D01*
X0114894Y0237772D01*
X0114894Y0273638D01*
X0101902Y0286630D01*
X0101902Y0319583D01*
X0092157Y0329327D01*
X0077157Y0329327D01*
X0069067Y0321236D01*
X0064500Y0330291D02*
X0058122Y0330291D01*
X0106657Y0332827D02*
X0106657Y0313563D01*
X0107407Y0312813D01*
X0122407Y0292341D02*
X0122407Y0275077D01*
X0122157Y0274827D01*
X0119657Y0272327D01*
X0119657Y0240827D01*
X0112531Y0236197D02*
X0112531Y0272457D01*
X0099539Y0285449D01*
X0112531Y0236197D02*
X0160917Y0187811D01*
X0199146Y0187811D01*
X0216665Y0170291D01*
X0216665Y0168323D01*
X0221606Y0163382D01*
X0221606Y0154622D01*
X0211606Y0154622D02*
X0211606Y0154563D01*
X0210248Y0155921D01*
X0210248Y0164780D01*
X0207886Y0167142D01*
X0203161Y0159465D02*
X0206606Y0156020D01*
X0206606Y0147122D01*
X0191606Y0154563D02*
X0190248Y0155921D01*
X0190248Y0164780D01*
X0187886Y0167142D01*
X0183161Y0159465D02*
X0186606Y0156020D01*
X0186606Y0147122D01*
X0191606Y0154563D02*
X0191606Y0154622D01*
X0199784Y0115447D02*
X0199661Y0115382D01*
X0199536Y0115319D01*
X0199409Y0115261D01*
X0199280Y0115205D01*
X0199150Y0115154D01*
X0199019Y0115106D01*
X0198886Y0115062D01*
X0198752Y0115021D01*
X0198617Y0114985D01*
X0198481Y0114952D01*
X0198345Y0114923D01*
X0198207Y0114897D01*
X0198069Y0114876D01*
X0197930Y0114858D01*
X0197791Y0114845D01*
X0197652Y0114835D01*
X0197512Y0114829D01*
X0197372Y0114827D01*
X0189165Y0114827D01*
X0185707Y0113438D02*
X0183164Y0111003D01*
X0181508Y0109346D01*
X0181508Y0109307D01*
X0185707Y0113438D02*
X0185807Y0113531D01*
X0185909Y0113621D01*
X0186014Y0113709D01*
X0186121Y0113793D01*
X0186230Y0113875D01*
X0186341Y0113953D01*
X0186455Y0114029D01*
X0186571Y0114101D01*
X0186688Y0114170D01*
X0186808Y0114236D01*
X0186929Y0114299D01*
X0187051Y0114358D01*
X0187176Y0114414D01*
X0187302Y0114467D01*
X0187429Y0114516D01*
X0187557Y0114562D01*
X0187687Y0114604D01*
X0187818Y0114642D01*
X0187950Y0114677D01*
X0188083Y0114708D01*
X0188216Y0114736D01*
X0188350Y0114760D01*
X0188485Y0114781D01*
X0188621Y0114797D01*
X0188756Y0114810D01*
X0188892Y0114820D01*
X0189029Y0114825D01*
X0189165Y0114827D01*
X0191508Y0109307D02*
X0250198Y0141598D01*
X0248934Y0142568D02*
X0199784Y0115447D01*
X0244165Y0147122D02*
X0246606Y0147122D01*
X0250335Y0148520D02*
X0250407Y0148419D01*
X0250477Y0148316D01*
X0250544Y0148211D01*
X0250607Y0148104D01*
X0250666Y0147995D01*
X0250723Y0147884D01*
X0250776Y0147772D01*
X0250825Y0147657D01*
X0250871Y0147542D01*
X0250913Y0147425D01*
X0250951Y0147306D01*
X0250986Y0147187D01*
X0251017Y0147066D01*
X0251044Y0146945D01*
X0251068Y0146823D01*
X0251087Y0146700D01*
X0251103Y0146577D01*
X0251115Y0146453D01*
X0251123Y0146329D01*
X0251127Y0146205D01*
X0251128Y0146080D01*
X0251124Y0145956D01*
X0251117Y0145832D01*
X0251105Y0145708D01*
X0251090Y0145584D01*
X0251071Y0145461D01*
X0251048Y0145339D01*
X0251022Y0145218D01*
X0250991Y0145097D01*
X0250957Y0144977D01*
X0250920Y0144859D01*
X0250878Y0144742D01*
X0250833Y0144626D01*
X0250784Y0144511D01*
X0250732Y0144398D01*
X0250676Y0144287D01*
X0250617Y0144178D01*
X0250554Y0144070D01*
X0250488Y0143965D01*
X0250419Y0143862D01*
X0250347Y0143760D01*
X0250271Y0143661D01*
X0250193Y0143565D01*
X0250111Y0143471D01*
X0250027Y0143380D01*
X0249940Y0143291D01*
X0249850Y0143205D01*
X0249757Y0143122D01*
X0249662Y0143042D01*
X0249565Y0142964D01*
X0249465Y0142890D01*
X0249363Y0142819D01*
X0249259Y0142752D01*
X0249152Y0142687D01*
X0249044Y0142626D01*
X0248934Y0142568D01*
X0250198Y0141598D02*
X0250319Y0141667D01*
X0250438Y0141739D01*
X0250555Y0141814D01*
X0250669Y0141893D01*
X0250782Y0141974D01*
X0250892Y0142059D01*
X0250999Y0142147D01*
X0251105Y0142237D01*
X0251207Y0142331D01*
X0251307Y0142427D01*
X0251404Y0142526D01*
X0251499Y0142628D01*
X0251591Y0142732D01*
X0251679Y0142839D01*
X0251765Y0142949D01*
X0251848Y0143060D01*
X0251927Y0143174D01*
X0252003Y0143290D01*
X0252077Y0143408D01*
X0252146Y0143528D01*
X0252213Y0143650D01*
X0252276Y0143774D01*
X0252335Y0143900D01*
X0252391Y0144027D01*
X0252444Y0144155D01*
X0252492Y0144285D01*
X0252538Y0144417D01*
X0252579Y0144549D01*
X0252617Y0144683D01*
X0252651Y0144818D01*
X0252682Y0144953D01*
X0252708Y0145089D01*
X0252731Y0145226D01*
X0252750Y0145364D01*
X0252765Y0145502D01*
X0252777Y0145640D01*
X0252784Y0145779D01*
X0252788Y0145918D01*
X0252787Y0146057D01*
X0252783Y0146196D01*
X0252775Y0146334D01*
X0252764Y0146473D01*
X0252748Y0146611D01*
X0252728Y0146748D01*
X0252705Y0146885D01*
X0252678Y0147021D01*
X0252647Y0147157D01*
X0252613Y0147291D01*
X0252574Y0147425D01*
X0252532Y0147557D01*
X0252487Y0147688D01*
X0252437Y0147818D01*
X0252385Y0147947D01*
X0252328Y0148074D01*
X0252268Y0148199D01*
X0252205Y0148323D01*
X0252138Y0148444D01*
X0252068Y0148564D01*
X0251994Y0148682D01*
X0251918Y0148798D01*
X0251838Y0148911D01*
X0217796Y0201444D02*
X0217592Y0201648D01*
X0217384Y0201848D01*
X0217170Y0202043D01*
X0216952Y0202232D01*
X0216730Y0202416D01*
X0216503Y0202595D01*
X0216272Y0202769D01*
X0216037Y0202937D01*
X0215798Y0203099D01*
X0215555Y0203256D01*
X0215309Y0203406D01*
X0215059Y0203551D01*
X0214805Y0203690D01*
X0214549Y0203823D01*
X0214289Y0203949D01*
X0214027Y0204070D01*
X0213761Y0204184D01*
X0213493Y0204292D01*
X0213223Y0204393D01*
X0212950Y0204488D01*
X0212675Y0204576D01*
X0212398Y0204658D01*
X0212119Y0204733D01*
X0211838Y0204802D01*
X0211556Y0204864D01*
X0211272Y0204919D01*
X0210988Y0204967D01*
X0210702Y0205009D01*
X0210415Y0205043D01*
X0210127Y0205071D01*
X0209839Y0205092D01*
X0209551Y0205107D01*
X0209262Y0205114D01*
X0194264Y0205114D01*
X0218004Y0207872D02*
X0218004Y0214917D01*
X0218004Y0207873D02*
X0217997Y0207630D01*
X0217995Y0207387D01*
X0217999Y0207144D01*
X0218010Y0206901D01*
X0218025Y0206659D01*
X0218047Y0206417D01*
X0218074Y0206175D01*
X0218108Y0205934D01*
X0218146Y0205695D01*
X0218191Y0205456D01*
X0218241Y0205218D01*
X0218297Y0204982D01*
X0218358Y0204747D01*
X0218425Y0204513D01*
X0218498Y0204281D01*
X0218576Y0204051D01*
X0218660Y0203823D01*
X0218748Y0203597D01*
X0218843Y0203373D01*
X0218942Y0203151D01*
X0219047Y0202932D01*
X0219157Y0202715D01*
X0219272Y0202501D01*
X0219393Y0202290D01*
X0219518Y0202082D01*
X0219648Y0201877D01*
X0219783Y0201675D01*
X0219922Y0201476D01*
X0220067Y0201281D01*
X0220216Y0201089D01*
X0220369Y0200900D01*
X0220527Y0200716D01*
X0220690Y0200535D01*
X0141606Y0169760D02*
X0141606Y0169622D01*
X0141606Y0169760D02*
X0134776Y0176591D01*
X0130248Y0164780D02*
X0130248Y0155921D01*
X0131606Y0154563D01*
X0131606Y0154622D01*
X0133161Y0159465D02*
X0136606Y0156020D01*
X0136606Y0147122D01*
X0121606Y0154563D02*
X0121606Y0154622D01*
X0111606Y0154622D02*
X0111606Y0154563D01*
X0110248Y0155921D01*
X0095327Y0166945D02*
X0093161Y0164780D01*
X0086705Y0162417D02*
X0086705Y0172063D01*
X0086705Y0162417D02*
X0086606Y0162319D01*
X0086606Y0162122D01*
X0067453Y0218717D02*
X0067453Y0221472D01*
X0065878Y0223047D01*
X0061350Y0223047D01*
X0180311Y0306673D02*
X0180657Y0306327D01*
X0180311Y0306673D02*
X0180311Y0311827D01*
X0238157Y0323827D02*
X0238157Y0299327D01*
X0238657Y0298827D01*
X0241657Y0295327D02*
X0238657Y0292327D01*
X0241657Y0295327D02*
X0241657Y0320327D01*
X0241157Y0320827D01*
X0238157Y0323827D02*
X0240157Y0325827D01*
D45*
X0254657Y0324327D02*
X0258657Y0328327D01*
X0254657Y0324327D02*
X0254657Y0306827D01*
X0276157Y0288327D01*
X0276157Y0140327D01*
X0296752Y0119732D01*
X0307213Y0119732D01*
X0307213Y0107528D01*
X0389102Y0107528D02*
X0389102Y0119732D01*
M02*
