G75*
%MOIN*%
%OFA0B0*%
%FSLAX25Y25*%
%IPPOS*%
%LPD*%
%AMOC8*
5,1,8,0,0,1.08239X$1,22.5*
%
%ADD10C,0.00800*%
%ADD11C,0.05537*%
%ADD12C,0.03175*%
%ADD13C,0.16598*%
%ADD14C,0.04750*%
%ADD15C,0.07280*%
%ADD16C,0.01000*%
%ADD17C,0.03962*%
D10*
X0014934Y0075900D02*
X0013900Y0076934D01*
X0013900Y0079003D01*
X0014934Y0080037D01*
X0017003Y0080037D01*
X0017003Y0077968D01*
X0019071Y0075900D02*
X0014934Y0075900D01*
X0019071Y0075900D02*
X0020105Y0076934D01*
X0020105Y0079003D01*
X0019071Y0080037D01*
X0018037Y0082345D02*
X0013900Y0082345D01*
X0015968Y0082345D02*
X0018037Y0084414D01*
X0018037Y0085448D01*
X0017003Y0087717D02*
X0014934Y0087717D01*
X0013900Y0088751D01*
X0013900Y0090819D01*
X0014934Y0091854D01*
X0017003Y0091854D01*
X0018037Y0090819D01*
X0018037Y0088751D01*
X0017003Y0087717D01*
X0018037Y0094162D02*
X0014934Y0094162D01*
X0013900Y0095196D01*
X0013900Y0098299D01*
X0018037Y0098299D01*
X0018037Y0100608D02*
X0018037Y0103710D01*
X0017003Y0104745D01*
X0013900Y0104745D01*
X0014934Y0107053D02*
X0017003Y0107053D01*
X0018037Y0108087D01*
X0018037Y0111190D01*
X0020105Y0111190D02*
X0013900Y0111190D01*
X0013900Y0108087D01*
X0014934Y0107053D01*
X0013900Y0100608D02*
X0018037Y0100608D01*
X0020105Y0119944D02*
X0020105Y0120978D01*
X0013900Y0120978D01*
X0013900Y0119944D02*
X0013900Y0122013D01*
X0014934Y0124241D02*
X0015968Y0125275D01*
X0015968Y0128378D01*
X0017003Y0128378D02*
X0013900Y0128378D01*
X0013900Y0125275D01*
X0014934Y0124241D01*
X0018037Y0125275D02*
X0018037Y0127344D01*
X0017003Y0128378D01*
X0018037Y0130687D02*
X0014934Y0130687D01*
X0013900Y0131721D01*
X0013900Y0134824D01*
X0012866Y0134824D02*
X0018037Y0134824D01*
X0017003Y0137132D02*
X0018037Y0138166D01*
X0018037Y0140235D01*
X0017003Y0141269D01*
X0015968Y0141269D01*
X0015968Y0137132D01*
X0014934Y0137132D02*
X0017003Y0137132D01*
X0014934Y0137132D02*
X0013900Y0138166D01*
X0013900Y0140235D01*
X0013900Y0143578D02*
X0018037Y0143578D01*
X0018037Y0145646D02*
X0018037Y0146680D01*
X0018037Y0145646D02*
X0015968Y0143578D01*
X0012866Y0134824D02*
X0011832Y0133789D01*
X0011832Y0132755D01*
D11*
X0045000Y0129173D03*
X0055000Y0129173D03*
X0055000Y0139173D03*
X0045000Y0139173D03*
X0045000Y0149173D03*
X0055000Y0149173D03*
X0055000Y0159173D03*
X0045000Y0159173D03*
X0045000Y0169173D03*
X0055000Y0169173D03*
X0055000Y0179173D03*
X0045000Y0179173D03*
X0045000Y0189173D03*
X0055000Y0189173D03*
X0055000Y0199173D03*
X0045000Y0199173D03*
X0045000Y0209173D03*
X0055000Y0209173D03*
X0055000Y0219173D03*
X0045000Y0219173D03*
X0045000Y0229173D03*
X0055000Y0229173D03*
X0055000Y0239173D03*
X0045000Y0239173D03*
X0045000Y0249173D03*
X0055000Y0249173D03*
X0055000Y0259173D03*
X0045000Y0259173D03*
X0045000Y0269173D03*
X0055000Y0269173D03*
X0055000Y0279173D03*
X0045000Y0279173D03*
X0045000Y0289173D03*
X0055000Y0289173D03*
X0055000Y0299173D03*
X0045000Y0299173D03*
X0045000Y0309173D03*
X0055000Y0309173D03*
X0055000Y0319173D03*
X0045000Y0319173D03*
X0045000Y0329173D03*
X0055000Y0329173D03*
X0055000Y0339173D03*
X0045000Y0339173D03*
X0264055Y0320906D03*
X0264055Y0308701D03*
X0345945Y0308701D03*
X0345945Y0320906D03*
X0110000Y0148500D03*
X0100000Y0148500D03*
X0090000Y0148500D03*
X0080000Y0148500D03*
X0055000Y0119173D03*
X0045000Y0119173D03*
X0045000Y0109173D03*
X0045000Y0099173D03*
X0055000Y0099173D03*
X0055000Y0109173D03*
X0055000Y0089173D03*
X0045000Y0089173D03*
X0045000Y0079173D03*
X0055000Y0079173D03*
X0055000Y0069173D03*
X0045000Y0069173D03*
D12*
X0096000Y0078500D03*
X0096000Y0086000D03*
X0096000Y0094000D03*
X0096000Y0106000D03*
X0096000Y0114000D03*
X0096000Y0121500D03*
X0124000Y0121500D03*
X0124000Y0114000D03*
X0124000Y0106000D03*
X0124000Y0094000D03*
X0124000Y0086000D03*
X0124000Y0078500D03*
X0138000Y0089000D03*
X0150000Y0105500D03*
X0183000Y0060000D03*
X0186500Y0060000D03*
X0190000Y0060000D03*
X0193500Y0060000D03*
X0197000Y0060000D03*
X0133000Y0049500D03*
X0316000Y0021000D03*
X0330000Y0135000D03*
X0274000Y0182500D03*
X0269500Y0190000D03*
X0253500Y0181500D03*
X0245500Y0181500D03*
X0243500Y0194000D03*
X0250000Y0194000D03*
X0256000Y0199500D03*
X0256000Y0207000D03*
X0256000Y0212000D03*
X0256000Y0217291D03*
X0230000Y0220000D03*
X0210000Y0220000D03*
X0184000Y0222000D03*
X0185000Y0229000D03*
X0184000Y0235000D03*
X0171500Y0232500D03*
X0167500Y0228500D03*
X0169500Y0215000D03*
X0184000Y0206500D03*
X0184500Y0201000D03*
X0185000Y0196500D03*
X0192500Y0194000D03*
X0198500Y0194000D03*
X0209000Y0196000D03*
X0213000Y0193500D03*
X0216000Y0180000D03*
X0231500Y0194000D03*
X0236500Y0194000D03*
X0185500Y0182000D03*
X0177500Y0190000D03*
X0165500Y0195000D03*
X0160000Y0190000D03*
X0165500Y0185000D03*
X0124000Y0181000D03*
X0124000Y0173500D03*
X0124000Y0189000D03*
X0124000Y0201000D03*
X0124000Y0209000D03*
X0124000Y0216500D03*
X0136000Y0223500D03*
X0096000Y0216500D03*
X0096000Y0209000D03*
X0096000Y0201000D03*
X0096000Y0189000D03*
X0096000Y0181000D03*
X0096000Y0173500D03*
X0210000Y0240000D03*
X0230000Y0240000D03*
X0256000Y0240000D03*
X0256000Y0235000D03*
X0256000Y0253500D03*
X0256000Y0258500D03*
X0256500Y0263500D03*
X0251000Y0266500D03*
X0245500Y0266000D03*
X0240500Y0264000D03*
X0235500Y0266000D03*
X0226000Y0266000D03*
X0221500Y0264500D03*
X0217000Y0266000D03*
X0212500Y0264500D03*
X0208000Y0266000D03*
X0204500Y0262000D03*
X0201000Y0265500D03*
X0197500Y0262000D03*
X0193000Y0264500D03*
X0184500Y0267000D03*
X0184000Y0263000D03*
X0184000Y0256000D03*
X0184000Y0247500D03*
X0170000Y0259500D03*
X0172000Y0270000D03*
X0166500Y0270000D03*
X0166000Y0276000D03*
X0177500Y0270000D03*
X0181500Y0270000D03*
X0124000Y0269000D03*
X0124000Y0261000D03*
X0124000Y0253500D03*
X0096000Y0253500D03*
X0096000Y0261000D03*
X0096000Y0269000D03*
X0096000Y0281000D03*
X0096000Y0289000D03*
X0096000Y0296500D03*
X0124000Y0296500D03*
X0124000Y0289000D03*
X0124000Y0281000D03*
X0223500Y0308000D03*
X0243500Y0299000D03*
X0238000Y0293000D03*
X0247500Y0281000D03*
X0257500Y0270000D03*
X0262500Y0270000D03*
X0268000Y0270000D03*
X0272500Y0270000D03*
X0272500Y0280500D03*
X0259500Y0299500D03*
X0282500Y0301000D03*
X0328000Y0300500D03*
X0324500Y0333000D03*
X0285500Y0333000D03*
X0294500Y0258500D03*
D13*
X0220000Y0230000D03*
D14*
X0217953Y0155669D03*
X0227953Y0155669D03*
X0237953Y0155669D03*
X0247953Y0155669D03*
X0257953Y0155669D03*
X0267953Y0155669D03*
X0277953Y0155669D03*
X0287953Y0155669D03*
X0297953Y0155669D03*
X0307953Y0155669D03*
X0317953Y0155669D03*
X0327953Y0155669D03*
X0337953Y0155669D03*
X0347953Y0155669D03*
X0347953Y0145669D03*
X0337953Y0145669D03*
X0327953Y0145669D03*
X0317953Y0145669D03*
X0307953Y0145669D03*
X0297953Y0145669D03*
X0287953Y0145669D03*
X0277953Y0145669D03*
X0267953Y0145669D03*
X0257953Y0145669D03*
X0247953Y0145669D03*
X0237953Y0145669D03*
X0227953Y0145669D03*
X0217953Y0145669D03*
X0207953Y0145669D03*
X0197953Y0145669D03*
X0187953Y0145669D03*
X0177953Y0145669D03*
X0167953Y0145669D03*
X0157953Y0145669D03*
X0157953Y0155669D03*
X0167953Y0155669D03*
X0177953Y0155669D03*
X0187953Y0155669D03*
X0197953Y0155669D03*
X0207953Y0155669D03*
X0105500Y0316000D03*
X0095500Y0316000D03*
X0095500Y0326000D03*
X0105500Y0326000D03*
X0085500Y0326000D03*
X0075500Y0326000D03*
X0075500Y0316000D03*
X0085500Y0316000D03*
X0065500Y0316000D03*
X0065500Y0326000D03*
X0068000Y0339000D03*
D15*
X0085000Y0345000D03*
X0105000Y0345000D03*
X0125000Y0345000D03*
X0145000Y0345000D03*
D16*
X0025000Y0350894D02*
X0025000Y0009500D01*
X0350894Y0009500D01*
X0350894Y0143696D01*
X0349921Y0142723D01*
X0348644Y0142194D01*
X0347262Y0142194D01*
X0345984Y0142723D01*
X0345007Y0143701D01*
X0344478Y0144978D01*
X0344478Y0146360D01*
X0345007Y0147638D01*
X0345984Y0148615D01*
X0347262Y0149144D01*
X0348644Y0149144D01*
X0349921Y0148615D01*
X0350894Y0147642D01*
X0350894Y0153130D01*
X0350423Y0152660D01*
X0349788Y0152235D01*
X0349083Y0151943D01*
X0348334Y0151794D01*
X0348240Y0151794D01*
X0348240Y0155382D01*
X0347665Y0155382D01*
X0344078Y0155382D01*
X0344078Y0155288D01*
X0344227Y0154539D01*
X0344519Y0153834D01*
X0344943Y0153199D01*
X0345483Y0152660D01*
X0346117Y0152235D01*
X0346823Y0151943D01*
X0347571Y0151794D01*
X0347665Y0151794D01*
X0347665Y0155382D01*
X0347665Y0155957D01*
X0347665Y0159544D01*
X0347571Y0159544D01*
X0346823Y0159395D01*
X0346117Y0159103D01*
X0345483Y0158679D01*
X0344943Y0158139D01*
X0344519Y0157505D01*
X0344227Y0156800D01*
X0344078Y0156051D01*
X0344078Y0155957D01*
X0347665Y0155957D01*
X0348240Y0155957D01*
X0348240Y0159544D01*
X0348334Y0159544D01*
X0349083Y0159395D01*
X0349788Y0159103D01*
X0350423Y0158679D01*
X0350894Y0158208D01*
X0350894Y0350894D01*
X0025000Y0350894D01*
X0025000Y0350485D02*
X0350894Y0350485D01*
X0350894Y0349486D02*
X0146555Y0349486D01*
X0145943Y0349740D02*
X0144057Y0349740D01*
X0142315Y0349018D01*
X0140982Y0347685D01*
X0140260Y0345943D01*
X0140260Y0344057D01*
X0140982Y0342315D01*
X0142315Y0340982D01*
X0144057Y0340260D01*
X0145943Y0340260D01*
X0147685Y0340982D01*
X0149018Y0342315D01*
X0149740Y0344057D01*
X0149740Y0345943D01*
X0149018Y0347685D01*
X0147685Y0349018D01*
X0145943Y0349740D01*
X0143445Y0349486D02*
X0126555Y0349486D01*
X0125943Y0349740D02*
X0124057Y0349740D01*
X0122315Y0349018D01*
X0120982Y0347685D01*
X0120260Y0345943D01*
X0120260Y0344057D01*
X0120982Y0342315D01*
X0122315Y0340982D01*
X0124057Y0340260D01*
X0125943Y0340260D01*
X0127685Y0340982D01*
X0129018Y0342315D01*
X0129740Y0344057D01*
X0129740Y0345943D01*
X0129018Y0347685D01*
X0127685Y0349018D01*
X0125943Y0349740D01*
X0123445Y0349486D02*
X0106555Y0349486D01*
X0105943Y0349740D02*
X0104057Y0349740D01*
X0102315Y0349018D01*
X0100982Y0347685D01*
X0100260Y0345943D01*
X0100260Y0344057D01*
X0100982Y0342315D01*
X0102315Y0340982D01*
X0104057Y0340260D01*
X0105943Y0340260D01*
X0107685Y0340982D01*
X0109018Y0342315D01*
X0109740Y0344057D01*
X0109740Y0345943D01*
X0109018Y0347685D01*
X0107685Y0349018D01*
X0105943Y0349740D01*
X0103445Y0349486D02*
X0087517Y0349486D01*
X0087694Y0349396D02*
X0086973Y0349763D01*
X0086204Y0350013D01*
X0085500Y0350125D01*
X0085500Y0345500D01*
X0090125Y0345500D01*
X0090013Y0346204D01*
X0089763Y0346973D01*
X0089396Y0347694D01*
X0088921Y0348348D01*
X0088348Y0348921D01*
X0087694Y0349396D01*
X0088781Y0348488D02*
X0101785Y0348488D01*
X0100901Y0347489D02*
X0089500Y0347489D01*
X0089920Y0346491D02*
X0100487Y0346491D01*
X0100260Y0345492D02*
X0085500Y0345492D01*
X0085500Y0345500D02*
X0085500Y0344500D01*
X0090125Y0344500D01*
X0090013Y0343796D01*
X0089763Y0343027D01*
X0089396Y0342306D01*
X0088921Y0341652D01*
X0088348Y0341079D01*
X0087694Y0340604D01*
X0086973Y0340237D01*
X0086204Y0339987D01*
X0085500Y0339875D01*
X0085500Y0344500D01*
X0084500Y0344500D01*
X0084500Y0339875D01*
X0083796Y0339987D01*
X0083027Y0340237D01*
X0082306Y0340604D01*
X0081652Y0341079D01*
X0081079Y0341652D01*
X0080604Y0342306D01*
X0080237Y0343027D01*
X0079987Y0343796D01*
X0079875Y0344500D01*
X0084500Y0344500D01*
X0084500Y0345500D01*
X0084500Y0350125D01*
X0083796Y0350013D01*
X0083027Y0349763D01*
X0082306Y0349396D01*
X0081652Y0348921D01*
X0081079Y0348348D01*
X0080604Y0347694D01*
X0080237Y0346973D01*
X0079987Y0346204D01*
X0079875Y0345500D01*
X0084500Y0345500D01*
X0085500Y0345500D01*
X0085500Y0346491D02*
X0084500Y0346491D01*
X0084500Y0347489D02*
X0085500Y0347489D01*
X0085500Y0348488D02*
X0084500Y0348488D01*
X0084500Y0349486D02*
X0085500Y0349486D01*
X0082483Y0349486D02*
X0025000Y0349486D01*
X0025000Y0348488D02*
X0081219Y0348488D01*
X0080500Y0347489D02*
X0025000Y0347489D01*
X0025000Y0346491D02*
X0080080Y0346491D01*
X0079876Y0344494D02*
X0025000Y0344494D01*
X0025000Y0345492D02*
X0084500Y0345492D01*
X0084500Y0344494D02*
X0085500Y0344494D01*
X0085500Y0343495D02*
X0084500Y0343495D01*
X0084500Y0342497D02*
X0085500Y0342497D01*
X0085500Y0341498D02*
X0084500Y0341498D01*
X0084500Y0340500D02*
X0085500Y0340500D01*
X0087490Y0340500D02*
X0103478Y0340500D01*
X0101798Y0341498D02*
X0088767Y0341498D01*
X0089493Y0342497D02*
X0100906Y0342497D01*
X0100493Y0343495D02*
X0089916Y0343495D01*
X0090124Y0344494D02*
X0100260Y0344494D01*
X0106522Y0340500D02*
X0123478Y0340500D01*
X0121798Y0341498D02*
X0108202Y0341498D01*
X0109094Y0342497D02*
X0120906Y0342497D01*
X0120493Y0343495D02*
X0109507Y0343495D01*
X0109740Y0344494D02*
X0120260Y0344494D01*
X0120260Y0345492D02*
X0109740Y0345492D01*
X0109513Y0346491D02*
X0120487Y0346491D01*
X0120901Y0347489D02*
X0109099Y0347489D01*
X0108215Y0348488D02*
X0121785Y0348488D01*
X0128215Y0348488D02*
X0141785Y0348488D01*
X0140901Y0347489D02*
X0129099Y0347489D01*
X0129513Y0346491D02*
X0140487Y0346491D01*
X0140260Y0345492D02*
X0129740Y0345492D01*
X0129740Y0344494D02*
X0140260Y0344494D01*
X0140493Y0343495D02*
X0129507Y0343495D01*
X0129094Y0342497D02*
X0140906Y0342497D01*
X0141798Y0341498D02*
X0128202Y0341498D01*
X0126522Y0340500D02*
X0143478Y0340500D01*
X0146522Y0340500D02*
X0218719Y0340500D01*
X0218719Y0340347D02*
X0219218Y0339141D01*
X0220141Y0338218D01*
X0221347Y0337719D01*
X0222653Y0337719D01*
X0223859Y0338218D01*
X0224782Y0339141D01*
X0225281Y0340347D01*
X0225281Y0341653D01*
X0224782Y0342859D01*
X0223859Y0343782D01*
X0222653Y0344281D01*
X0221347Y0344281D01*
X0220141Y0343782D01*
X0219218Y0342859D01*
X0218719Y0341653D01*
X0218719Y0340347D01*
X0219069Y0339501D02*
X0071475Y0339501D01*
X0071475Y0339691D02*
X0070946Y0340968D01*
X0069968Y0341946D01*
X0068691Y0342475D01*
X0067309Y0342475D01*
X0066032Y0341946D01*
X0065054Y0340968D01*
X0064525Y0339691D01*
X0064525Y0338309D01*
X0065054Y0337032D01*
X0066032Y0336054D01*
X0067309Y0335525D01*
X0068691Y0335525D01*
X0069968Y0336054D01*
X0070946Y0337032D01*
X0071475Y0338309D01*
X0071475Y0339691D01*
X0071140Y0340500D02*
X0082510Y0340500D01*
X0081233Y0341498D02*
X0070416Y0341498D01*
X0071475Y0338503D02*
X0219857Y0338503D01*
X0218719Y0341498D02*
X0148202Y0341498D01*
X0149094Y0342497D02*
X0219069Y0342497D01*
X0219855Y0343495D02*
X0149507Y0343495D01*
X0149740Y0344494D02*
X0350894Y0344494D01*
X0350894Y0345492D02*
X0149740Y0345492D01*
X0149513Y0346491D02*
X0350894Y0346491D01*
X0350894Y0347489D02*
X0149099Y0347489D01*
X0148215Y0348488D02*
X0350894Y0348488D01*
X0350894Y0343495D02*
X0224145Y0343495D01*
X0224931Y0342497D02*
X0350894Y0342497D01*
X0350894Y0341498D02*
X0225281Y0341498D01*
X0225281Y0340500D02*
X0350894Y0340500D01*
X0350894Y0339501D02*
X0224931Y0339501D01*
X0224143Y0338503D02*
X0350894Y0338503D01*
X0350894Y0337504D02*
X0071142Y0337504D01*
X0070420Y0336506D02*
X0350894Y0336506D01*
X0350894Y0335507D02*
X0056258Y0335507D01*
X0055769Y0335305D02*
X0057191Y0335894D01*
X0058280Y0336982D01*
X0058868Y0338404D01*
X0058868Y0339943D01*
X0058280Y0341365D01*
X0057191Y0342453D01*
X0055769Y0343042D01*
X0054230Y0343042D01*
X0052809Y0342453D01*
X0051720Y0341365D01*
X0051131Y0339943D01*
X0051131Y0338404D01*
X0051720Y0336982D01*
X0052809Y0335894D01*
X0054230Y0335305D01*
X0055769Y0335305D01*
X0055484Y0333418D02*
X0056000Y0333337D01*
X0056639Y0333129D01*
X0057237Y0332824D01*
X0057781Y0332429D01*
X0058256Y0331954D01*
X0058651Y0331410D01*
X0058956Y0330812D01*
X0059163Y0330173D01*
X0059245Y0329657D01*
X0055484Y0329657D01*
X0055484Y0328689D01*
X0055484Y0324928D01*
X0056000Y0325010D01*
X0056639Y0325217D01*
X0057237Y0325522D01*
X0061644Y0325522D01*
X0061625Y0325618D02*
X0061774Y0324870D01*
X0062066Y0324165D01*
X0062490Y0323530D01*
X0063030Y0322990D01*
X0063665Y0322566D01*
X0064370Y0322274D01*
X0065118Y0322125D01*
X0065213Y0322125D01*
X0065213Y0325713D01*
X0065787Y0325713D01*
X0065787Y0322125D01*
X0065882Y0322125D01*
X0066630Y0322274D01*
X0067335Y0322566D01*
X0067970Y0322990D01*
X0068510Y0323530D01*
X0068934Y0324165D01*
X0069226Y0324870D01*
X0069375Y0325618D01*
X0069375Y0325713D01*
X0065787Y0325713D01*
X0065787Y0326287D01*
X0069375Y0326287D01*
X0069375Y0326382D01*
X0069226Y0327130D01*
X0068934Y0327835D01*
X0068510Y0328470D01*
X0067970Y0329010D01*
X0067335Y0329434D01*
X0066630Y0329726D01*
X0065882Y0329875D01*
X0065787Y0329875D01*
X0065787Y0326287D01*
X0065213Y0326287D01*
X0065213Y0325713D01*
X0061625Y0325713D01*
X0061625Y0325618D01*
X0061625Y0326287D02*
X0065213Y0326287D01*
X0065213Y0329875D01*
X0065118Y0329875D01*
X0064370Y0329726D01*
X0063665Y0329434D01*
X0063030Y0329010D01*
X0062490Y0328470D01*
X0062066Y0327835D01*
X0061774Y0327130D01*
X0061625Y0326382D01*
X0061625Y0326287D01*
X0061653Y0326521D02*
X0058349Y0326521D01*
X0058256Y0326392D02*
X0058651Y0326936D01*
X0058956Y0327535D01*
X0059163Y0328174D01*
X0059245Y0328689D01*
X0055484Y0328689D01*
X0054516Y0328689D01*
X0054516Y0324928D01*
X0054000Y0325010D01*
X0053361Y0325217D01*
X0052763Y0325522D01*
X0047237Y0325522D01*
X0047781Y0325917D01*
X0048256Y0326392D01*
X0048651Y0326936D01*
X0048956Y0327535D01*
X0049163Y0328174D01*
X0049245Y0328689D01*
X0045484Y0328689D01*
X0045484Y0324928D01*
X0046000Y0325010D01*
X0046639Y0325217D01*
X0047237Y0325522D01*
X0048349Y0326521D02*
X0051651Y0326521D01*
X0051744Y0326392D02*
X0052219Y0325917D01*
X0052763Y0325522D01*
X0051744Y0326392D02*
X0051349Y0326936D01*
X0051044Y0327535D01*
X0050837Y0328174D01*
X0050755Y0328689D01*
X0054516Y0328689D01*
X0054516Y0329657D01*
X0050755Y0329657D01*
X0050837Y0330173D01*
X0051044Y0330812D01*
X0051349Y0331410D01*
X0051744Y0331954D01*
X0052219Y0332429D01*
X0052763Y0332824D01*
X0053361Y0333129D01*
X0054000Y0333337D01*
X0054516Y0333418D01*
X0054516Y0329658D01*
X0055484Y0329658D01*
X0055484Y0333418D01*
X0055484Y0332512D02*
X0054516Y0332512D01*
X0054516Y0331513D02*
X0055484Y0331513D01*
X0055484Y0330515D02*
X0054516Y0330515D01*
X0054516Y0329516D02*
X0045484Y0329516D01*
X0045484Y0329657D02*
X0049245Y0329657D01*
X0049163Y0330173D01*
X0048956Y0330812D01*
X0048651Y0331410D01*
X0048256Y0331954D01*
X0047781Y0332429D01*
X0047237Y0332824D01*
X0046639Y0333129D01*
X0046000Y0333337D01*
X0045484Y0333418D01*
X0045484Y0329658D01*
X0044516Y0329658D01*
X0044516Y0333418D01*
X0044000Y0333337D01*
X0043361Y0333129D01*
X0042763Y0332824D01*
X0042219Y0332429D01*
X0041744Y0331954D01*
X0041349Y0331410D01*
X0041044Y0330812D01*
X0040837Y0330173D01*
X0040755Y0329657D01*
X0044516Y0329657D01*
X0044516Y0328689D01*
X0045484Y0328689D01*
X0045484Y0329657D01*
X0045484Y0330515D02*
X0044516Y0330515D01*
X0044516Y0331513D02*
X0045484Y0331513D01*
X0045484Y0332512D02*
X0044516Y0332512D01*
X0042333Y0332512D02*
X0025000Y0332512D01*
X0025000Y0333510D02*
X0350894Y0333510D01*
X0350894Y0332512D02*
X0057667Y0332512D01*
X0058576Y0331513D02*
X0350894Y0331513D01*
X0350894Y0330515D02*
X0059052Y0330515D01*
X0059218Y0328518D02*
X0062538Y0328518D01*
X0061935Y0327519D02*
X0058948Y0327519D01*
X0058256Y0326392D02*
X0057781Y0325917D01*
X0057237Y0325522D01*
X0055484Y0325522D02*
X0054516Y0325522D01*
X0054516Y0326521D02*
X0055484Y0326521D01*
X0055484Y0327519D02*
X0054516Y0327519D01*
X0054516Y0328518D02*
X0055484Y0328518D01*
X0055484Y0329516D02*
X0063863Y0329516D01*
X0065213Y0329516D02*
X0065787Y0329516D01*
X0065787Y0328518D02*
X0065213Y0328518D01*
X0065213Y0327519D02*
X0065787Y0327519D01*
X0065787Y0326521D02*
X0065213Y0326521D01*
X0065213Y0325522D02*
X0065787Y0325522D01*
X0065787Y0324524D02*
X0065213Y0324524D01*
X0065213Y0323525D02*
X0065787Y0323525D01*
X0065787Y0322527D02*
X0065213Y0322527D01*
X0063760Y0322527D02*
X0057013Y0322527D01*
X0057191Y0322453D02*
X0055769Y0323042D01*
X0054230Y0323042D01*
X0052809Y0322453D01*
X0051720Y0321365D01*
X0051131Y0319943D01*
X0051131Y0318404D01*
X0051720Y0316982D01*
X0052809Y0315894D01*
X0054230Y0315305D01*
X0055769Y0315305D01*
X0057191Y0315894D01*
X0058280Y0316982D01*
X0058868Y0318404D01*
X0058868Y0319943D01*
X0058280Y0321365D01*
X0057191Y0322453D01*
X0058116Y0321528D02*
X0260187Y0321528D01*
X0260187Y0321675D02*
X0260187Y0320136D01*
X0260776Y0318714D01*
X0261864Y0317626D01*
X0263286Y0317037D01*
X0264825Y0317037D01*
X0266246Y0317626D01*
X0267335Y0318714D01*
X0267924Y0320136D01*
X0267924Y0321675D01*
X0267335Y0323097D01*
X0266246Y0324185D01*
X0264825Y0324774D01*
X0263286Y0324774D01*
X0261864Y0324185D01*
X0260776Y0323097D01*
X0260187Y0321675D01*
X0260539Y0322527D02*
X0107240Y0322527D01*
X0107335Y0322566D02*
X0107970Y0322990D01*
X0108510Y0323530D01*
X0108934Y0324165D01*
X0109226Y0324870D01*
X0109375Y0325618D01*
X0109375Y0325713D01*
X0105787Y0325713D01*
X0105787Y0322125D01*
X0105882Y0322125D01*
X0106630Y0322274D01*
X0107335Y0322566D01*
X0108505Y0323525D02*
X0261204Y0323525D01*
X0262681Y0324524D02*
X0109083Y0324524D01*
X0109356Y0325522D02*
X0350894Y0325522D01*
X0350894Y0324524D02*
X0347319Y0324524D01*
X0346714Y0324774D02*
X0345175Y0324774D01*
X0343754Y0324185D01*
X0342665Y0323097D01*
X0342076Y0321675D01*
X0342076Y0320136D01*
X0342665Y0318714D01*
X0343754Y0317626D01*
X0345175Y0317037D01*
X0346714Y0317037D01*
X0348136Y0317626D01*
X0349224Y0318714D01*
X0349813Y0320136D01*
X0349813Y0321675D01*
X0349224Y0323097D01*
X0348136Y0324185D01*
X0346714Y0324774D01*
X0344571Y0324524D02*
X0265429Y0324524D01*
X0266906Y0323525D02*
X0343094Y0323525D01*
X0342429Y0322527D02*
X0267571Y0322527D01*
X0267924Y0321528D02*
X0342076Y0321528D01*
X0342076Y0320530D02*
X0267924Y0320530D01*
X0267673Y0319531D02*
X0342327Y0319531D01*
X0342847Y0318533D02*
X0267153Y0318533D01*
X0266025Y0317534D02*
X0343975Y0317534D01*
X0347914Y0317534D02*
X0350894Y0317534D01*
X0350894Y0316536D02*
X0108975Y0316536D01*
X0108975Y0316691D02*
X0108446Y0317968D01*
X0107468Y0318946D01*
X0106191Y0319475D01*
X0104809Y0319475D01*
X0103532Y0318946D01*
X0102554Y0317968D01*
X0102025Y0316691D01*
X0102025Y0315309D01*
X0102554Y0314032D01*
X0103532Y0313054D01*
X0104809Y0312525D01*
X0106191Y0312525D01*
X0107468Y0313054D01*
X0108446Y0314032D01*
X0108975Y0315309D01*
X0108975Y0316691D01*
X0108626Y0317534D02*
X0262086Y0317534D01*
X0260957Y0318533D02*
X0107882Y0318533D01*
X0108975Y0315537D02*
X0350894Y0315537D01*
X0350894Y0314539D02*
X0108656Y0314539D01*
X0107954Y0313540D02*
X0350894Y0313540D01*
X0350894Y0312541D02*
X0346781Y0312541D01*
X0346714Y0312569D02*
X0345175Y0312569D01*
X0343754Y0311980D01*
X0342665Y0310892D01*
X0342076Y0309470D01*
X0342076Y0307931D01*
X0342665Y0306509D01*
X0343754Y0305421D01*
X0345175Y0304832D01*
X0346714Y0304832D01*
X0348136Y0305421D01*
X0349224Y0306509D01*
X0349813Y0307931D01*
X0349813Y0309470D01*
X0349224Y0310892D01*
X0348136Y0311980D01*
X0346714Y0312569D01*
X0345108Y0312541D02*
X0264892Y0312541D01*
X0264825Y0312569D02*
X0263286Y0312569D01*
X0261864Y0311980D01*
X0260776Y0310892D01*
X0260187Y0309470D01*
X0260187Y0307931D01*
X0260776Y0306509D01*
X0261864Y0305421D01*
X0263286Y0304832D01*
X0264825Y0304832D01*
X0266246Y0305421D01*
X0267335Y0306509D01*
X0267924Y0307931D01*
X0267924Y0309470D01*
X0267335Y0310892D01*
X0266246Y0311980D01*
X0264825Y0312569D01*
X0263219Y0312541D02*
X0106230Y0312541D01*
X0104769Y0312541D02*
X0096230Y0312541D01*
X0096191Y0312525D02*
X0097468Y0313054D01*
X0098446Y0314032D01*
X0098975Y0315309D01*
X0098975Y0316691D01*
X0098446Y0317968D01*
X0097468Y0318946D01*
X0096191Y0319475D01*
X0094809Y0319475D01*
X0093532Y0318946D01*
X0092554Y0317968D01*
X0092025Y0316691D01*
X0092025Y0315309D01*
X0092554Y0314032D01*
X0093532Y0313054D01*
X0094809Y0312525D01*
X0096191Y0312525D01*
X0094769Y0312541D02*
X0086230Y0312541D01*
X0086191Y0312525D02*
X0087468Y0313054D01*
X0088446Y0314032D01*
X0088975Y0315309D01*
X0088975Y0316691D01*
X0088446Y0317968D01*
X0087468Y0318946D01*
X0086191Y0319475D01*
X0084809Y0319475D01*
X0083532Y0318946D01*
X0082554Y0317968D01*
X0082025Y0316691D01*
X0082025Y0315309D01*
X0082554Y0314032D01*
X0083532Y0313054D01*
X0084809Y0312525D01*
X0086191Y0312525D01*
X0084769Y0312541D02*
X0076230Y0312541D01*
X0076191Y0312525D02*
X0077468Y0313054D01*
X0078446Y0314032D01*
X0078975Y0315309D01*
X0078975Y0316691D01*
X0078446Y0317968D01*
X0077468Y0318946D01*
X0076191Y0319475D01*
X0074809Y0319475D01*
X0073532Y0318946D01*
X0072554Y0317968D01*
X0072025Y0316691D01*
X0072025Y0315309D01*
X0072554Y0314032D01*
X0073532Y0313054D01*
X0074809Y0312525D01*
X0076191Y0312525D01*
X0074769Y0312541D02*
X0066230Y0312541D01*
X0066191Y0312525D02*
X0067468Y0313054D01*
X0068446Y0314032D01*
X0068975Y0315309D01*
X0068975Y0316691D01*
X0068446Y0317968D01*
X0067468Y0318946D01*
X0066191Y0319475D01*
X0064809Y0319475D01*
X0063532Y0318946D01*
X0062554Y0317968D01*
X0062025Y0316691D01*
X0062025Y0315309D01*
X0062554Y0314032D01*
X0063532Y0313054D01*
X0064809Y0312525D01*
X0066191Y0312525D01*
X0064769Y0312541D02*
X0056977Y0312541D01*
X0057191Y0312453D02*
X0055769Y0313042D01*
X0054230Y0313042D01*
X0052809Y0312453D01*
X0051720Y0311365D01*
X0051131Y0309943D01*
X0051131Y0308404D01*
X0051720Y0306982D01*
X0052809Y0305894D01*
X0054230Y0305305D01*
X0055769Y0305305D01*
X0057191Y0305894D01*
X0058280Y0306982D01*
X0058868Y0308404D01*
X0058868Y0309943D01*
X0058280Y0311365D01*
X0057191Y0312453D01*
X0058101Y0311543D02*
X0261426Y0311543D01*
X0260632Y0310544D02*
X0224902Y0310544D01*
X0225136Y0310448D02*
X0224074Y0310887D01*
X0222926Y0310887D01*
X0221864Y0310448D01*
X0221052Y0309636D01*
X0220613Y0308574D01*
X0220613Y0307426D01*
X0221052Y0306364D01*
X0221864Y0305552D01*
X0222926Y0305113D01*
X0224074Y0305113D01*
X0225136Y0305552D01*
X0225948Y0306364D01*
X0226387Y0307426D01*
X0226387Y0308574D01*
X0225948Y0309636D01*
X0225136Y0310448D01*
X0225985Y0309546D02*
X0260218Y0309546D01*
X0260187Y0308547D02*
X0226387Y0308547D01*
X0226387Y0307549D02*
X0260345Y0307549D01*
X0260759Y0306550D02*
X0226025Y0306550D01*
X0225135Y0305552D02*
X0261733Y0305552D01*
X0260074Y0302387D02*
X0258926Y0302387D01*
X0257864Y0301948D01*
X0257052Y0301136D01*
X0256613Y0300074D01*
X0256613Y0298926D01*
X0257052Y0297864D01*
X0257864Y0297052D01*
X0258926Y0296613D01*
X0260074Y0296613D01*
X0261136Y0297052D01*
X0261948Y0297864D01*
X0262387Y0298926D01*
X0262387Y0300074D01*
X0261948Y0301136D01*
X0261136Y0301948D01*
X0260074Y0302387D01*
X0261526Y0301558D02*
X0350894Y0301558D01*
X0350894Y0302556D02*
X0206467Y0302556D01*
X0206859Y0302718D02*
X0207782Y0303641D01*
X0208281Y0304847D01*
X0208281Y0306153D01*
X0207782Y0307359D01*
X0206859Y0308282D01*
X0205653Y0308781D01*
X0204347Y0308781D01*
X0203141Y0308282D01*
X0202218Y0307359D01*
X0201719Y0306153D01*
X0201719Y0304847D01*
X0202218Y0303641D01*
X0203141Y0302718D01*
X0204347Y0302219D01*
X0205653Y0302219D01*
X0206859Y0302718D01*
X0207695Y0303555D02*
X0350894Y0303555D01*
X0350894Y0304553D02*
X0208159Y0304553D01*
X0208281Y0305552D02*
X0221865Y0305552D01*
X0220975Y0306550D02*
X0208116Y0306550D01*
X0207591Y0307549D02*
X0220613Y0307549D01*
X0220613Y0308547D02*
X0206217Y0308547D01*
X0203783Y0308547D02*
X0058868Y0308547D01*
X0058868Y0309546D02*
X0221015Y0309546D01*
X0222098Y0310544D02*
X0058619Y0310544D01*
X0058514Y0307549D02*
X0202409Y0307549D01*
X0201884Y0306550D02*
X0057848Y0306550D01*
X0056366Y0305552D02*
X0201719Y0305552D01*
X0201841Y0304553D02*
X0025000Y0304553D01*
X0025000Y0303555D02*
X0202305Y0303555D01*
X0203533Y0302556D02*
X0056941Y0302556D01*
X0057191Y0302453D02*
X0055769Y0303042D01*
X0054230Y0303042D01*
X0052809Y0302453D01*
X0051720Y0301365D01*
X0051131Y0299943D01*
X0051131Y0298404D01*
X0051720Y0296982D01*
X0052809Y0295894D01*
X0054230Y0295305D01*
X0055769Y0295305D01*
X0057191Y0295894D01*
X0058280Y0296982D01*
X0058868Y0298404D01*
X0058868Y0299943D01*
X0058280Y0301365D01*
X0057191Y0302453D01*
X0058086Y0301558D02*
X0242130Y0301558D01*
X0241864Y0301448D02*
X0241052Y0300636D01*
X0240613Y0299574D01*
X0240613Y0298426D01*
X0241052Y0297364D01*
X0241864Y0296552D01*
X0242926Y0296113D01*
X0244074Y0296113D01*
X0245136Y0296552D01*
X0245948Y0297364D01*
X0246387Y0298426D01*
X0246387Y0299574D01*
X0245948Y0300636D01*
X0245136Y0301448D01*
X0244074Y0301887D01*
X0242926Y0301887D01*
X0241864Y0301448D01*
X0241021Y0300559D02*
X0058613Y0300559D01*
X0058868Y0299561D02*
X0240613Y0299561D01*
X0240613Y0298562D02*
X0058868Y0298562D01*
X0058521Y0297564D02*
X0240970Y0297564D01*
X0241851Y0296565D02*
X0057863Y0296565D01*
X0056402Y0295567D02*
X0236652Y0295567D01*
X0236364Y0295448D02*
X0235552Y0294636D01*
X0235113Y0293574D01*
X0235113Y0292426D01*
X0235552Y0291364D01*
X0236364Y0290552D01*
X0237426Y0290113D01*
X0238574Y0290113D01*
X0239636Y0290552D01*
X0240448Y0291364D01*
X0240887Y0292426D01*
X0240887Y0293574D01*
X0240448Y0294636D01*
X0239636Y0295448D01*
X0238574Y0295887D01*
X0237426Y0295887D01*
X0236364Y0295448D01*
X0235524Y0294568D02*
X0025000Y0294568D01*
X0025000Y0293570D02*
X0235113Y0293570D01*
X0235113Y0292571D02*
X0056905Y0292571D01*
X0057191Y0292453D02*
X0055769Y0293042D01*
X0054230Y0293042D01*
X0052809Y0292453D01*
X0051720Y0291365D01*
X0051131Y0289943D01*
X0051131Y0288404D01*
X0051720Y0286982D01*
X0052809Y0285894D01*
X0054230Y0285305D01*
X0055769Y0285305D01*
X0057191Y0285894D01*
X0058280Y0286982D01*
X0058868Y0288404D01*
X0058868Y0289943D01*
X0058280Y0291365D01*
X0057191Y0292453D01*
X0058071Y0291573D02*
X0094666Y0291573D01*
X0094364Y0291448D02*
X0093552Y0290636D01*
X0093113Y0289574D01*
X0093113Y0288426D01*
X0093552Y0287364D01*
X0094364Y0286552D01*
X0095426Y0286113D01*
X0096574Y0286113D01*
X0097636Y0286552D01*
X0098448Y0287364D01*
X0098887Y0288426D01*
X0098887Y0289574D01*
X0098448Y0290636D01*
X0097636Y0291448D01*
X0096574Y0291887D01*
X0095426Y0291887D01*
X0094364Y0291448D01*
X0093527Y0290574D02*
X0058607Y0290574D01*
X0058868Y0289576D02*
X0093113Y0289576D01*
X0093113Y0288577D02*
X0058868Y0288577D01*
X0058527Y0287579D02*
X0093463Y0287579D01*
X0094336Y0286580D02*
X0057878Y0286580D01*
X0056438Y0285582D02*
X0350894Y0285582D01*
X0350894Y0286580D02*
X0125664Y0286580D01*
X0125636Y0286552D02*
X0126448Y0287364D01*
X0126887Y0288426D01*
X0126887Y0289574D01*
X0126448Y0290636D01*
X0125636Y0291448D01*
X0124574Y0291887D01*
X0123426Y0291887D01*
X0122364Y0291448D01*
X0121552Y0290636D01*
X0121113Y0289574D01*
X0121113Y0288426D01*
X0121552Y0287364D01*
X0122364Y0286552D01*
X0123426Y0286113D01*
X0124574Y0286113D01*
X0125636Y0286552D01*
X0126537Y0287579D02*
X0350894Y0287579D01*
X0350894Y0288577D02*
X0126887Y0288577D01*
X0126887Y0289576D02*
X0350894Y0289576D01*
X0350894Y0290574D02*
X0239658Y0290574D01*
X0240534Y0291573D02*
X0350894Y0291573D01*
X0350894Y0292571D02*
X0240887Y0292571D01*
X0240887Y0293570D02*
X0350894Y0293570D01*
X0350894Y0294568D02*
X0240476Y0294568D01*
X0239348Y0295567D02*
X0350894Y0295567D01*
X0350894Y0296565D02*
X0245149Y0296565D01*
X0246030Y0297564D02*
X0257353Y0297564D01*
X0256763Y0298562D02*
X0246387Y0298562D01*
X0246387Y0299561D02*
X0256613Y0299561D01*
X0256814Y0300559D02*
X0245979Y0300559D01*
X0244870Y0301558D02*
X0257474Y0301558D01*
X0262186Y0300559D02*
X0350894Y0300559D01*
X0350894Y0299561D02*
X0262387Y0299561D01*
X0262237Y0298562D02*
X0350894Y0298562D01*
X0350894Y0297564D02*
X0261647Y0297564D01*
X0266377Y0305552D02*
X0343623Y0305552D01*
X0342648Y0306550D02*
X0267352Y0306550D01*
X0267765Y0307549D02*
X0342235Y0307549D01*
X0342076Y0308547D02*
X0267924Y0308547D01*
X0267892Y0309546D02*
X0342108Y0309546D01*
X0342521Y0310544D02*
X0267479Y0310544D01*
X0266684Y0311543D02*
X0343316Y0311543D01*
X0348574Y0311543D02*
X0350894Y0311543D01*
X0350894Y0310544D02*
X0349368Y0310544D01*
X0349782Y0309546D02*
X0350894Y0309546D01*
X0350894Y0308547D02*
X0349813Y0308547D01*
X0349655Y0307549D02*
X0350894Y0307549D01*
X0350894Y0306550D02*
X0349241Y0306550D01*
X0348267Y0305552D02*
X0350894Y0305552D01*
X0350894Y0318533D02*
X0349043Y0318533D01*
X0349563Y0319531D02*
X0350894Y0319531D01*
X0350894Y0320530D02*
X0349813Y0320530D01*
X0349813Y0321528D02*
X0350894Y0321528D01*
X0350894Y0322527D02*
X0349461Y0322527D01*
X0348796Y0323525D02*
X0350894Y0323525D01*
X0350894Y0326521D02*
X0109347Y0326521D01*
X0109375Y0326382D02*
X0109226Y0327130D01*
X0108934Y0327835D01*
X0108510Y0328470D01*
X0107970Y0329010D01*
X0107335Y0329434D01*
X0106630Y0329726D01*
X0105882Y0329875D01*
X0105787Y0329875D01*
X0105787Y0326287D01*
X0109375Y0326287D01*
X0109375Y0326382D01*
X0109065Y0327519D02*
X0350894Y0327519D01*
X0350894Y0328518D02*
X0108462Y0328518D01*
X0107137Y0329516D02*
X0350894Y0329516D01*
X0350894Y0334509D02*
X0025000Y0334509D01*
X0025000Y0335507D02*
X0043742Y0335507D01*
X0044230Y0335305D02*
X0045769Y0335305D01*
X0047191Y0335894D01*
X0048280Y0336982D01*
X0048868Y0338404D01*
X0048868Y0339943D01*
X0048280Y0341365D01*
X0047191Y0342453D01*
X0045769Y0343042D01*
X0044230Y0343042D01*
X0042809Y0342453D01*
X0041720Y0341365D01*
X0041131Y0339943D01*
X0041131Y0338404D01*
X0041720Y0336982D01*
X0042809Y0335894D01*
X0044230Y0335305D01*
X0046258Y0335507D02*
X0053742Y0335507D01*
X0052197Y0336506D02*
X0047803Y0336506D01*
X0048496Y0337504D02*
X0051504Y0337504D01*
X0051131Y0338503D02*
X0048868Y0338503D01*
X0048868Y0339501D02*
X0051131Y0339501D01*
X0051362Y0340500D02*
X0048638Y0340500D01*
X0048146Y0341498D02*
X0051854Y0341498D01*
X0052915Y0342497D02*
X0047085Y0342497D01*
X0042915Y0342497D02*
X0025000Y0342497D01*
X0025000Y0343495D02*
X0080084Y0343495D01*
X0080507Y0342497D02*
X0057085Y0342497D01*
X0058146Y0341498D02*
X0065584Y0341498D01*
X0064860Y0340500D02*
X0058638Y0340500D01*
X0058868Y0339501D02*
X0064525Y0339501D01*
X0064525Y0338503D02*
X0058868Y0338503D01*
X0058496Y0337504D02*
X0064858Y0337504D01*
X0065580Y0336506D02*
X0057803Y0336506D01*
X0052333Y0332512D02*
X0047667Y0332512D01*
X0048576Y0331513D02*
X0051424Y0331513D01*
X0050948Y0330515D02*
X0049052Y0330515D01*
X0049218Y0328518D02*
X0050782Y0328518D01*
X0051052Y0327519D02*
X0048948Y0327519D01*
X0045484Y0327519D02*
X0044516Y0327519D01*
X0044516Y0326521D02*
X0045484Y0326521D01*
X0045484Y0325522D02*
X0044516Y0325522D01*
X0044516Y0324928D02*
X0044516Y0328689D01*
X0040755Y0328689D01*
X0040837Y0328174D01*
X0041044Y0327535D01*
X0041349Y0326936D01*
X0041744Y0326392D01*
X0042219Y0325917D01*
X0042763Y0325522D01*
X0025000Y0325522D01*
X0025000Y0324524D02*
X0061917Y0324524D01*
X0062495Y0323525D02*
X0025000Y0323525D01*
X0025000Y0322527D02*
X0042987Y0322527D01*
X0042809Y0322453D02*
X0044230Y0323042D01*
X0045769Y0323042D01*
X0047191Y0322453D01*
X0048280Y0321365D01*
X0048868Y0319943D01*
X0048868Y0318404D01*
X0048280Y0316982D01*
X0047191Y0315894D01*
X0045769Y0315305D01*
X0044230Y0315305D01*
X0042809Y0315894D01*
X0041720Y0316982D01*
X0041131Y0318404D01*
X0041131Y0319943D01*
X0041720Y0321365D01*
X0042809Y0322453D01*
X0041884Y0321528D02*
X0025000Y0321528D01*
X0025000Y0320530D02*
X0041375Y0320530D01*
X0041131Y0319531D02*
X0025000Y0319531D01*
X0025000Y0318533D02*
X0041131Y0318533D01*
X0041492Y0317534D02*
X0025000Y0317534D01*
X0025000Y0316536D02*
X0042167Y0316536D01*
X0043670Y0315537D02*
X0025000Y0315537D01*
X0025000Y0314539D02*
X0062344Y0314539D01*
X0062025Y0315537D02*
X0056330Y0315537D01*
X0057833Y0316536D02*
X0062025Y0316536D01*
X0062374Y0317534D02*
X0058508Y0317534D01*
X0058868Y0318533D02*
X0063118Y0318533D01*
X0058868Y0319531D02*
X0260437Y0319531D01*
X0260187Y0320530D02*
X0058625Y0320530D01*
X0052987Y0322527D02*
X0047013Y0322527D01*
X0048116Y0321528D02*
X0051884Y0321528D01*
X0051375Y0320530D02*
X0048625Y0320530D01*
X0048868Y0319531D02*
X0051131Y0319531D01*
X0051131Y0318533D02*
X0048868Y0318533D01*
X0048508Y0317534D02*
X0051492Y0317534D01*
X0052167Y0316536D02*
X0047833Y0316536D01*
X0046330Y0315537D02*
X0053670Y0315537D01*
X0053023Y0312541D02*
X0046977Y0312541D01*
X0047191Y0312453D02*
X0045769Y0313042D01*
X0044230Y0313042D01*
X0042809Y0312453D01*
X0041720Y0311365D01*
X0041131Y0309943D01*
X0041131Y0308404D01*
X0041720Y0306982D01*
X0042809Y0305894D01*
X0044230Y0305305D01*
X0045769Y0305305D01*
X0047191Y0305894D01*
X0048280Y0306982D01*
X0048868Y0308404D01*
X0048868Y0309943D01*
X0048280Y0311365D01*
X0047191Y0312453D01*
X0048101Y0311543D02*
X0051899Y0311543D01*
X0051381Y0310544D02*
X0048619Y0310544D01*
X0048868Y0309546D02*
X0051131Y0309546D01*
X0051131Y0308547D02*
X0048868Y0308547D01*
X0048514Y0307549D02*
X0051486Y0307549D01*
X0052152Y0306550D02*
X0047848Y0306550D01*
X0046366Y0305552D02*
X0053634Y0305552D01*
X0053059Y0302556D02*
X0046941Y0302556D01*
X0047191Y0302453D02*
X0045769Y0303042D01*
X0044230Y0303042D01*
X0042809Y0302453D01*
X0041720Y0301365D01*
X0041131Y0299943D01*
X0041131Y0298404D01*
X0041720Y0296982D01*
X0042809Y0295894D01*
X0044230Y0295305D01*
X0045769Y0295305D01*
X0047191Y0295894D01*
X0048280Y0296982D01*
X0048868Y0298404D01*
X0048868Y0299943D01*
X0048280Y0301365D01*
X0047191Y0302453D01*
X0048086Y0301558D02*
X0051914Y0301558D01*
X0051387Y0300559D02*
X0048613Y0300559D01*
X0048868Y0299561D02*
X0051131Y0299561D01*
X0051131Y0298562D02*
X0048868Y0298562D01*
X0048521Y0297564D02*
X0051479Y0297564D01*
X0052137Y0296565D02*
X0047863Y0296565D01*
X0046402Y0295567D02*
X0053598Y0295567D01*
X0053095Y0292571D02*
X0046905Y0292571D01*
X0047191Y0292453D02*
X0045769Y0293042D01*
X0044230Y0293042D01*
X0042809Y0292453D01*
X0041720Y0291365D01*
X0041131Y0289943D01*
X0041131Y0288404D01*
X0041720Y0286982D01*
X0042809Y0285894D01*
X0044230Y0285305D01*
X0045769Y0285305D01*
X0047191Y0285894D01*
X0048280Y0286982D01*
X0048868Y0288404D01*
X0048868Y0289943D01*
X0048280Y0291365D01*
X0047191Y0292453D01*
X0048071Y0291573D02*
X0051929Y0291573D01*
X0051393Y0290574D02*
X0048607Y0290574D01*
X0048868Y0289576D02*
X0051131Y0289576D01*
X0051131Y0288577D02*
X0048868Y0288577D01*
X0048527Y0287579D02*
X0051473Y0287579D01*
X0052122Y0286580D02*
X0047878Y0286580D01*
X0046438Y0285582D02*
X0053562Y0285582D01*
X0054230Y0283042D02*
X0052809Y0282453D01*
X0051720Y0281365D01*
X0051131Y0279943D01*
X0051131Y0278404D01*
X0051720Y0276982D01*
X0052809Y0275894D01*
X0054230Y0275305D01*
X0055769Y0275305D01*
X0057191Y0275894D01*
X0058280Y0276982D01*
X0058868Y0278404D01*
X0058868Y0279943D01*
X0058280Y0281365D01*
X0057191Y0282453D01*
X0055769Y0283042D01*
X0054230Y0283042D01*
X0053131Y0282586D02*
X0046869Y0282586D01*
X0047191Y0282453D02*
X0045769Y0283042D01*
X0044230Y0283042D01*
X0042809Y0282453D01*
X0041720Y0281365D01*
X0041131Y0279943D01*
X0041131Y0278404D01*
X0041720Y0276982D01*
X0042809Y0275894D01*
X0044230Y0275305D01*
X0045769Y0275305D01*
X0047191Y0275894D01*
X0048280Y0276982D01*
X0048868Y0278404D01*
X0048868Y0279943D01*
X0048280Y0281365D01*
X0047191Y0282453D01*
X0048056Y0281588D02*
X0051944Y0281588D01*
X0051399Y0280589D02*
X0048601Y0280589D01*
X0048868Y0279591D02*
X0051131Y0279591D01*
X0051131Y0278592D02*
X0048868Y0278592D01*
X0048533Y0277594D02*
X0051467Y0277594D01*
X0052107Y0276595D02*
X0047893Y0276595D01*
X0046474Y0275597D02*
X0053526Y0275597D01*
X0054230Y0273042D02*
X0052809Y0272453D01*
X0051720Y0271365D01*
X0051131Y0269943D01*
X0051131Y0268404D01*
X0051720Y0266982D01*
X0052809Y0265894D01*
X0054230Y0265305D01*
X0055769Y0265305D01*
X0057191Y0265894D01*
X0058280Y0266982D01*
X0058868Y0268404D01*
X0058868Y0269943D01*
X0058280Y0271365D01*
X0057191Y0272453D01*
X0055769Y0273042D01*
X0054230Y0273042D01*
X0053167Y0272601D02*
X0046833Y0272601D01*
X0047191Y0272453D02*
X0045769Y0273042D01*
X0044230Y0273042D01*
X0042809Y0272453D01*
X0041720Y0271365D01*
X0041131Y0269943D01*
X0041131Y0268404D01*
X0041720Y0266982D01*
X0042809Y0265894D01*
X0044230Y0265305D01*
X0045769Y0265305D01*
X0047191Y0265894D01*
X0048280Y0266982D01*
X0048868Y0268404D01*
X0048868Y0269943D01*
X0048280Y0271365D01*
X0047191Y0272453D01*
X0048042Y0271603D02*
X0051958Y0271603D01*
X0051405Y0270604D02*
X0048595Y0270604D01*
X0048868Y0269605D02*
X0051131Y0269605D01*
X0051131Y0268607D02*
X0048868Y0268607D01*
X0048539Y0267608D02*
X0051461Y0267608D01*
X0052092Y0266610D02*
X0047908Y0266610D01*
X0046510Y0265611D02*
X0053490Y0265611D01*
X0054230Y0263042D02*
X0052809Y0262453D01*
X0051720Y0261365D01*
X0051131Y0259943D01*
X0051131Y0258404D01*
X0051720Y0256982D01*
X0052809Y0255894D01*
X0054230Y0255305D01*
X0055769Y0255305D01*
X0057191Y0255894D01*
X0058280Y0256982D01*
X0058868Y0258404D01*
X0058868Y0259943D01*
X0058280Y0261365D01*
X0057191Y0262453D01*
X0055769Y0263042D01*
X0054230Y0263042D01*
X0053203Y0262616D02*
X0046797Y0262616D01*
X0047191Y0262453D02*
X0045769Y0263042D01*
X0044230Y0263042D01*
X0042809Y0262453D01*
X0041720Y0261365D01*
X0041131Y0259943D01*
X0041131Y0258404D01*
X0041720Y0256982D01*
X0042809Y0255894D01*
X0044230Y0255305D01*
X0045769Y0255305D01*
X0047191Y0255894D01*
X0048280Y0256982D01*
X0048868Y0258404D01*
X0048868Y0259943D01*
X0048280Y0261365D01*
X0047191Y0262453D01*
X0048027Y0261617D02*
X0051973Y0261617D01*
X0051412Y0260619D02*
X0048588Y0260619D01*
X0048868Y0259620D02*
X0051131Y0259620D01*
X0051131Y0258622D02*
X0048868Y0258622D01*
X0048545Y0257623D02*
X0051455Y0257623D01*
X0052077Y0256625D02*
X0047923Y0256625D01*
X0046546Y0255626D02*
X0053454Y0255626D01*
X0054230Y0253042D02*
X0052809Y0252453D01*
X0051720Y0251365D01*
X0051131Y0249943D01*
X0051131Y0248404D01*
X0051720Y0246982D01*
X0052809Y0245894D01*
X0054230Y0245305D01*
X0055769Y0245305D01*
X0057191Y0245894D01*
X0058280Y0246982D01*
X0058868Y0248404D01*
X0058868Y0249943D01*
X0058280Y0251365D01*
X0057191Y0252453D01*
X0055769Y0253042D01*
X0054230Y0253042D01*
X0053238Y0252631D02*
X0046762Y0252631D01*
X0047191Y0252453D02*
X0045769Y0253042D01*
X0044230Y0253042D01*
X0042809Y0252453D01*
X0041720Y0251365D01*
X0041131Y0249943D01*
X0041131Y0248404D01*
X0041720Y0246982D01*
X0042809Y0245894D01*
X0044230Y0245305D01*
X0045769Y0245305D01*
X0047191Y0245894D01*
X0048280Y0246982D01*
X0048868Y0248404D01*
X0048868Y0249943D01*
X0048280Y0251365D01*
X0047191Y0252453D01*
X0048012Y0251632D02*
X0051988Y0251632D01*
X0051418Y0250634D02*
X0048582Y0250634D01*
X0048868Y0249635D02*
X0051131Y0249635D01*
X0051131Y0248637D02*
X0048868Y0248637D01*
X0048551Y0247638D02*
X0051449Y0247638D01*
X0052063Y0246640D02*
X0047937Y0246640D01*
X0046582Y0245641D02*
X0053418Y0245641D01*
X0054230Y0243042D02*
X0052809Y0242453D01*
X0051720Y0241365D01*
X0051131Y0239943D01*
X0051131Y0238404D01*
X0051720Y0236982D01*
X0052809Y0235894D01*
X0054230Y0235305D01*
X0055769Y0235305D01*
X0057191Y0235894D01*
X0058280Y0236982D01*
X0058868Y0238404D01*
X0058868Y0239943D01*
X0058280Y0241365D01*
X0057191Y0242453D01*
X0055769Y0243042D01*
X0054230Y0243042D01*
X0053274Y0242646D02*
X0046726Y0242646D01*
X0047191Y0242453D02*
X0045769Y0243042D01*
X0044230Y0243042D01*
X0042809Y0242453D01*
X0041720Y0241365D01*
X0041131Y0239943D01*
X0041131Y0238404D01*
X0041720Y0236982D01*
X0042809Y0235894D01*
X0044230Y0235305D01*
X0045769Y0235305D01*
X0047191Y0235894D01*
X0048280Y0236982D01*
X0048868Y0238404D01*
X0048868Y0239943D01*
X0048280Y0241365D01*
X0047191Y0242453D01*
X0047997Y0241647D02*
X0052003Y0241647D01*
X0051424Y0240649D02*
X0048576Y0240649D01*
X0048868Y0239650D02*
X0051131Y0239650D01*
X0051131Y0238652D02*
X0048868Y0238652D01*
X0048558Y0237653D02*
X0051442Y0237653D01*
X0052048Y0236655D02*
X0047952Y0236655D01*
X0046618Y0235656D02*
X0053382Y0235656D01*
X0054000Y0233337D02*
X0053361Y0233129D01*
X0052763Y0232824D01*
X0052219Y0232429D01*
X0051744Y0231954D01*
X0051349Y0231410D01*
X0051044Y0230812D01*
X0050837Y0230173D01*
X0050755Y0229657D01*
X0054516Y0229657D01*
X0054516Y0228689D01*
X0055484Y0228689D01*
X0055484Y0224928D01*
X0056000Y0225010D01*
X0056639Y0225217D01*
X0057237Y0225522D01*
X0057781Y0225917D01*
X0058256Y0226392D01*
X0058651Y0226936D01*
X0058956Y0227535D01*
X0059163Y0228174D01*
X0059245Y0228689D01*
X0055484Y0228689D01*
X0055484Y0229657D01*
X0059245Y0229657D01*
X0059163Y0230173D01*
X0058956Y0230812D01*
X0058651Y0231410D01*
X0058256Y0231954D01*
X0057781Y0232429D01*
X0057237Y0232824D01*
X0056639Y0233129D01*
X0056000Y0233337D01*
X0055484Y0233418D01*
X0055484Y0229658D01*
X0054516Y0229658D01*
X0054516Y0233418D01*
X0054000Y0233337D01*
X0054516Y0232661D02*
X0055484Y0232661D01*
X0055484Y0231662D02*
X0054516Y0231662D01*
X0054516Y0230664D02*
X0055484Y0230664D01*
X0055484Y0229665D02*
X0054516Y0229665D01*
X0054516Y0228689D02*
X0050755Y0228689D01*
X0050837Y0228174D01*
X0051044Y0227535D01*
X0051349Y0226936D01*
X0051744Y0226392D01*
X0052219Y0225917D01*
X0052763Y0225522D01*
X0053361Y0225217D01*
X0054000Y0225010D01*
X0054516Y0224928D01*
X0054516Y0228689D01*
X0054516Y0228667D02*
X0055484Y0228667D01*
X0055484Y0227668D02*
X0054516Y0227668D01*
X0054516Y0226670D02*
X0055484Y0226670D01*
X0055484Y0225671D02*
X0054516Y0225671D01*
X0052558Y0225671D02*
X0047442Y0225671D01*
X0047237Y0225522D02*
X0047781Y0225917D01*
X0048256Y0226392D01*
X0048651Y0226936D01*
X0048956Y0227535D01*
X0049163Y0228174D01*
X0049245Y0228689D01*
X0045484Y0228689D01*
X0045484Y0224928D01*
X0046000Y0225010D01*
X0046639Y0225217D01*
X0047237Y0225522D01*
X0048457Y0226670D02*
X0051543Y0226670D01*
X0051001Y0227668D02*
X0048999Y0227668D01*
X0049241Y0228667D02*
X0050759Y0228667D01*
X0050756Y0229665D02*
X0049244Y0229665D01*
X0049245Y0229657D02*
X0049163Y0230173D01*
X0048956Y0230812D01*
X0048651Y0231410D01*
X0048256Y0231954D01*
X0047781Y0232429D01*
X0047237Y0232824D01*
X0046639Y0233129D01*
X0046000Y0233337D01*
X0045484Y0233418D01*
X0045484Y0229658D01*
X0044516Y0229658D01*
X0044516Y0233418D01*
X0044000Y0233337D01*
X0043361Y0233129D01*
X0042763Y0232824D01*
X0042219Y0232429D01*
X0041744Y0231954D01*
X0041349Y0231410D01*
X0041044Y0230812D01*
X0040837Y0230173D01*
X0040755Y0229657D01*
X0044516Y0229657D01*
X0044516Y0228689D01*
X0045484Y0228689D01*
X0045484Y0229657D01*
X0049245Y0229657D01*
X0049004Y0230664D02*
X0050996Y0230664D01*
X0051532Y0231662D02*
X0048468Y0231662D01*
X0047462Y0232661D02*
X0052538Y0232661D01*
X0057462Y0232661D02*
X0168613Y0232661D01*
X0168613Y0233074D02*
X0168613Y0231926D01*
X0168993Y0231007D01*
X0168074Y0231387D01*
X0166926Y0231387D01*
X0165864Y0230948D01*
X0165052Y0230136D01*
X0164613Y0229074D01*
X0164613Y0227926D01*
X0165052Y0226864D01*
X0165864Y0226052D01*
X0166926Y0225613D01*
X0168074Y0225613D01*
X0169136Y0226052D01*
X0169948Y0226864D01*
X0170387Y0227926D01*
X0170387Y0229074D01*
X0170007Y0229993D01*
X0170926Y0229613D01*
X0172074Y0229613D01*
X0173136Y0230052D01*
X0173948Y0230864D01*
X0174387Y0231926D01*
X0174387Y0233074D01*
X0173948Y0234136D01*
X0173136Y0234948D01*
X0172074Y0235387D01*
X0170926Y0235387D01*
X0169864Y0234948D01*
X0169052Y0234136D01*
X0168613Y0233074D01*
X0168855Y0233659D02*
X0025000Y0233659D01*
X0025000Y0232661D02*
X0042538Y0232661D01*
X0041532Y0231662D02*
X0025000Y0231662D01*
X0025000Y0230664D02*
X0040996Y0230664D01*
X0040756Y0229665D02*
X0025000Y0229665D01*
X0025000Y0228667D02*
X0040759Y0228667D01*
X0040755Y0228689D02*
X0040837Y0228174D01*
X0041044Y0227535D01*
X0041349Y0226936D01*
X0041744Y0226392D01*
X0042219Y0225917D01*
X0042763Y0225522D01*
X0043361Y0225217D01*
X0044000Y0225010D01*
X0044516Y0224928D01*
X0044516Y0228689D01*
X0040755Y0228689D01*
X0041001Y0227668D02*
X0025000Y0227668D01*
X0025000Y0226670D02*
X0041543Y0226670D01*
X0042558Y0225671D02*
X0025000Y0225671D01*
X0025000Y0224672D02*
X0133360Y0224672D01*
X0133552Y0225136D02*
X0133113Y0224074D01*
X0133113Y0222926D01*
X0133552Y0221864D01*
X0134364Y0221052D01*
X0135426Y0220613D01*
X0136574Y0220613D01*
X0137636Y0221052D01*
X0138448Y0221864D01*
X0138887Y0222926D01*
X0138887Y0224074D01*
X0138448Y0225136D01*
X0137636Y0225948D01*
X0136574Y0226387D01*
X0135426Y0226387D01*
X0134364Y0225948D01*
X0133552Y0225136D01*
X0134088Y0225671D02*
X0057442Y0225671D01*
X0058457Y0226670D02*
X0165247Y0226670D01*
X0164719Y0227668D02*
X0058999Y0227668D01*
X0059241Y0228667D02*
X0164613Y0228667D01*
X0164857Y0229665D02*
X0059244Y0229665D01*
X0059004Y0230664D02*
X0165580Y0230664D01*
X0168722Y0231662D02*
X0058468Y0231662D01*
X0056618Y0235656D02*
X0181146Y0235656D01*
X0181113Y0235574D02*
X0181113Y0234426D01*
X0181552Y0233364D01*
X0182364Y0232552D01*
X0183426Y0232113D01*
X0184574Y0232113D01*
X0185636Y0232552D01*
X0186448Y0233364D01*
X0186887Y0234426D01*
X0186887Y0235574D01*
X0186448Y0236636D01*
X0185636Y0237448D01*
X0184574Y0237887D01*
X0183426Y0237887D01*
X0182364Y0237448D01*
X0181552Y0236636D01*
X0181113Y0235574D01*
X0181113Y0234658D02*
X0173426Y0234658D01*
X0174145Y0233659D02*
X0181430Y0233659D01*
X0182256Y0232661D02*
X0174387Y0232661D01*
X0174278Y0231662D02*
X0183882Y0231662D01*
X0183364Y0231448D02*
X0182552Y0230636D01*
X0182113Y0229574D01*
X0182113Y0228426D01*
X0182552Y0227364D01*
X0183364Y0226552D01*
X0184426Y0226113D01*
X0185574Y0226113D01*
X0186636Y0226552D01*
X0187448Y0227364D01*
X0187887Y0228426D01*
X0187887Y0229574D01*
X0187448Y0230636D01*
X0186636Y0231448D01*
X0185574Y0231887D01*
X0184426Y0231887D01*
X0183364Y0231448D01*
X0182580Y0230664D02*
X0173747Y0230664D01*
X0172201Y0229665D02*
X0182150Y0229665D01*
X0182113Y0228667D02*
X0170387Y0228667D01*
X0170281Y0227668D02*
X0182426Y0227668D01*
X0183247Y0226670D02*
X0169753Y0226670D01*
X0168215Y0225671D02*
X0350894Y0225671D01*
X0350894Y0226670D02*
X0186753Y0226670D01*
X0187574Y0227668D02*
X0350894Y0227668D01*
X0350894Y0228667D02*
X0187887Y0228667D01*
X0187850Y0229665D02*
X0350894Y0229665D01*
X0350894Y0230664D02*
X0187420Y0230664D01*
X0186118Y0231662D02*
X0350894Y0231662D01*
X0350894Y0232661D02*
X0257744Y0232661D01*
X0257636Y0232552D02*
X0258448Y0233364D01*
X0258887Y0234426D01*
X0258887Y0235574D01*
X0258448Y0236636D01*
X0257636Y0237448D01*
X0256574Y0237887D01*
X0255426Y0237887D01*
X0254364Y0237448D01*
X0253552Y0236636D01*
X0253113Y0235574D01*
X0253113Y0234426D01*
X0253552Y0233364D01*
X0254364Y0232552D01*
X0255426Y0232113D01*
X0256574Y0232113D01*
X0257636Y0232552D01*
X0258570Y0233659D02*
X0350894Y0233659D01*
X0350894Y0234658D02*
X0258887Y0234658D01*
X0258854Y0235656D02*
X0350894Y0235656D01*
X0350894Y0236655D02*
X0258429Y0236655D01*
X0257140Y0237653D02*
X0324799Y0237653D01*
X0324641Y0237718D02*
X0325847Y0237219D01*
X0327153Y0237219D01*
X0328359Y0237718D01*
X0329282Y0238641D01*
X0329781Y0239847D01*
X0329781Y0241153D01*
X0329282Y0242359D01*
X0328359Y0243282D01*
X0327153Y0243781D01*
X0325847Y0243781D01*
X0324641Y0243282D01*
X0323718Y0242359D01*
X0323219Y0241153D01*
X0323219Y0239847D01*
X0323718Y0238641D01*
X0324641Y0237718D01*
X0323714Y0238652D02*
X0146993Y0238652D01*
X0146782Y0238141D02*
X0147281Y0239347D01*
X0147281Y0240653D01*
X0146782Y0241859D01*
X0145859Y0242782D01*
X0144653Y0243281D01*
X0143347Y0243281D01*
X0142141Y0242782D01*
X0141218Y0241859D01*
X0140719Y0240653D01*
X0140719Y0239347D01*
X0141218Y0238141D01*
X0142141Y0237218D01*
X0143347Y0236719D01*
X0144653Y0236719D01*
X0145859Y0237218D01*
X0146782Y0238141D01*
X0146293Y0237653D02*
X0182860Y0237653D01*
X0181571Y0236655D02*
X0057952Y0236655D01*
X0058558Y0237653D02*
X0141707Y0237653D01*
X0141007Y0238652D02*
X0058868Y0238652D01*
X0058868Y0239650D02*
X0140719Y0239650D01*
X0140719Y0240649D02*
X0058576Y0240649D01*
X0057997Y0241647D02*
X0141131Y0241647D01*
X0142006Y0242646D02*
X0056726Y0242646D01*
X0056582Y0245641D02*
X0181775Y0245641D01*
X0181552Y0245864D02*
X0182364Y0245052D01*
X0183426Y0244613D01*
X0184574Y0244613D01*
X0185636Y0245052D01*
X0186448Y0245864D01*
X0186887Y0246926D01*
X0186887Y0248074D01*
X0186448Y0249136D01*
X0185636Y0249948D01*
X0184574Y0250387D01*
X0183426Y0250387D01*
X0182364Y0249948D01*
X0181552Y0249136D01*
X0181113Y0248074D01*
X0181113Y0246926D01*
X0181552Y0245864D01*
X0181231Y0246640D02*
X0057937Y0246640D01*
X0058551Y0247638D02*
X0181113Y0247638D01*
X0181346Y0248637D02*
X0058868Y0248637D01*
X0058868Y0249635D02*
X0182052Y0249635D01*
X0183426Y0253113D02*
X0182364Y0253552D01*
X0181552Y0254364D01*
X0181113Y0255426D01*
X0181113Y0256574D01*
X0181552Y0257636D01*
X0182364Y0258448D01*
X0183426Y0258887D01*
X0184574Y0258887D01*
X0185636Y0258448D01*
X0186448Y0257636D01*
X0186887Y0256574D01*
X0186887Y0255426D01*
X0186448Y0254364D01*
X0185636Y0253552D01*
X0184574Y0253113D01*
X0183426Y0253113D01*
X0182287Y0253629D02*
X0025000Y0253629D01*
X0025000Y0252631D02*
X0043238Y0252631D01*
X0041988Y0251632D02*
X0025000Y0251632D01*
X0025000Y0250634D02*
X0041418Y0250634D01*
X0041131Y0249635D02*
X0025000Y0249635D01*
X0025000Y0248637D02*
X0041131Y0248637D01*
X0041449Y0247638D02*
X0025000Y0247638D01*
X0025000Y0246640D02*
X0042063Y0246640D01*
X0043418Y0245641D02*
X0025000Y0245641D01*
X0025000Y0244643D02*
X0183353Y0244643D01*
X0184647Y0244643D02*
X0290219Y0244643D01*
X0290219Y0245153D02*
X0290219Y0243847D01*
X0290718Y0242641D01*
X0291641Y0241718D01*
X0292847Y0241219D01*
X0294153Y0241219D01*
X0295359Y0241718D01*
X0296282Y0242641D01*
X0296781Y0243847D01*
X0296781Y0245153D01*
X0296282Y0246359D01*
X0295359Y0247282D01*
X0294153Y0247781D01*
X0292847Y0247781D01*
X0291641Y0247282D01*
X0290718Y0246359D01*
X0290219Y0245153D01*
X0290421Y0245641D02*
X0186225Y0245641D01*
X0186769Y0246640D02*
X0291000Y0246640D01*
X0292503Y0247638D02*
X0186887Y0247638D01*
X0186654Y0248637D02*
X0350894Y0248637D01*
X0350894Y0249635D02*
X0185948Y0249635D01*
X0185713Y0253629D02*
X0253113Y0253629D01*
X0253113Y0254074D02*
X0253113Y0252926D01*
X0253552Y0251864D01*
X0254364Y0251052D01*
X0255426Y0250613D01*
X0256574Y0250613D01*
X0257636Y0251052D01*
X0258448Y0251864D01*
X0258887Y0252926D01*
X0258887Y0254074D01*
X0258448Y0255136D01*
X0257636Y0255948D01*
X0256574Y0256387D01*
X0255426Y0256387D01*
X0254364Y0255948D01*
X0253552Y0255136D01*
X0253113Y0254074D01*
X0253342Y0254628D02*
X0186557Y0254628D01*
X0186887Y0255626D02*
X0254043Y0255626D01*
X0253235Y0252631D02*
X0056762Y0252631D01*
X0058012Y0251632D02*
X0253784Y0251632D01*
X0255374Y0250634D02*
X0058582Y0250634D01*
X0056546Y0255626D02*
X0181113Y0255626D01*
X0181134Y0256625D02*
X0057923Y0256625D01*
X0058545Y0257623D02*
X0181547Y0257623D01*
X0182785Y0258622D02*
X0125705Y0258622D01*
X0125636Y0258552D02*
X0126448Y0259364D01*
X0126887Y0260426D01*
X0126887Y0261574D01*
X0126448Y0262636D01*
X0125636Y0263448D01*
X0124574Y0263887D01*
X0123426Y0263887D01*
X0122364Y0263448D01*
X0121552Y0262636D01*
X0121113Y0261574D01*
X0121113Y0260426D01*
X0121552Y0259364D01*
X0122364Y0258552D01*
X0123426Y0258113D01*
X0124574Y0258113D01*
X0125636Y0258552D01*
X0126554Y0259620D02*
X0195796Y0259620D01*
X0195864Y0259552D02*
X0196926Y0259113D01*
X0198074Y0259113D01*
X0199136Y0259552D01*
X0199948Y0260364D01*
X0200387Y0261426D01*
X0200387Y0262574D01*
X0199948Y0263636D01*
X0199136Y0264448D01*
X0198074Y0264887D01*
X0196926Y0264887D01*
X0195887Y0264457D01*
X0195887Y0265074D01*
X0195448Y0266136D01*
X0194636Y0266948D01*
X0193574Y0267387D01*
X0192426Y0267387D01*
X0191364Y0266948D01*
X0190552Y0266136D01*
X0190113Y0265074D01*
X0190113Y0263926D01*
X0190552Y0262864D01*
X0191364Y0262052D01*
X0192426Y0261613D01*
X0193574Y0261613D01*
X0194613Y0262043D01*
X0194613Y0261426D01*
X0195052Y0260364D01*
X0195864Y0259552D01*
X0194947Y0260619D02*
X0185702Y0260619D01*
X0185636Y0260552D02*
X0186448Y0261364D01*
X0186887Y0262426D01*
X0186887Y0263574D01*
X0186448Y0264636D01*
X0186333Y0264750D01*
X0186948Y0265364D01*
X0187387Y0266426D01*
X0187387Y0267574D01*
X0186948Y0268636D01*
X0186136Y0269448D01*
X0185074Y0269887D01*
X0184387Y0269887D01*
X0184387Y0270574D01*
X0183948Y0271636D01*
X0183136Y0272448D01*
X0182074Y0272887D01*
X0180926Y0272887D01*
X0179864Y0272448D01*
X0179500Y0272083D01*
X0179136Y0272448D01*
X0178074Y0272887D01*
X0176926Y0272887D01*
X0175864Y0272448D01*
X0175052Y0271636D01*
X0174613Y0270574D01*
X0174613Y0269426D01*
X0175052Y0268364D01*
X0175864Y0267552D01*
X0176926Y0267113D01*
X0178074Y0267113D01*
X0179136Y0267552D01*
X0179500Y0267917D01*
X0179864Y0267552D01*
X0180926Y0267113D01*
X0181613Y0267113D01*
X0181613Y0266426D01*
X0182052Y0265364D01*
X0182167Y0265250D01*
X0181552Y0264636D01*
X0181113Y0263574D01*
X0181113Y0262426D01*
X0181552Y0261364D01*
X0182364Y0260552D01*
X0183426Y0260113D01*
X0184574Y0260113D01*
X0185636Y0260552D01*
X0186553Y0261617D02*
X0192414Y0261617D01*
X0193586Y0261617D02*
X0194613Y0261617D01*
X0195887Y0264613D02*
X0196263Y0264613D01*
X0195665Y0265611D02*
X0209835Y0265611D01*
X0210052Y0266136D02*
X0209613Y0265074D01*
X0209613Y0263926D01*
X0210052Y0262864D01*
X0210864Y0262052D01*
X0211926Y0261613D01*
X0213074Y0261613D01*
X0214136Y0262052D01*
X0214948Y0262864D01*
X0215271Y0263645D01*
X0215364Y0263552D01*
X0216426Y0263113D01*
X0217574Y0263113D01*
X0218636Y0263552D01*
X0218729Y0263645D01*
X0219052Y0262864D01*
X0219864Y0262052D01*
X0220926Y0261613D01*
X0222074Y0261613D01*
X0223136Y0262052D01*
X0223948Y0262864D01*
X0224387Y0263926D01*
X0224387Y0265074D01*
X0223948Y0266136D01*
X0223136Y0266948D01*
X0222074Y0267387D01*
X0220926Y0267387D01*
X0219864Y0266948D01*
X0219771Y0266855D01*
X0219448Y0267636D01*
X0218636Y0268448D01*
X0217574Y0268887D01*
X0216426Y0268887D01*
X0215364Y0268448D01*
X0214552Y0267636D01*
X0214229Y0266855D01*
X0214136Y0266948D01*
X0213074Y0267387D01*
X0211926Y0267387D01*
X0210864Y0266948D01*
X0210052Y0266136D01*
X0210527Y0266610D02*
X0194973Y0266610D01*
X0191027Y0266610D02*
X0187387Y0266610D01*
X0187373Y0267608D02*
X0214541Y0267608D01*
X0215749Y0268607D02*
X0186960Y0268607D01*
X0185755Y0269605D02*
X0254613Y0269605D01*
X0254613Y0269426D02*
X0255052Y0268364D01*
X0255864Y0267552D01*
X0256926Y0267113D01*
X0258074Y0267113D01*
X0259136Y0267552D01*
X0259948Y0268364D01*
X0260000Y0268490D01*
X0260052Y0268364D01*
X0260864Y0267552D01*
X0261926Y0267113D01*
X0263074Y0267113D01*
X0264136Y0267552D01*
X0264948Y0268364D01*
X0265387Y0269426D01*
X0265387Y0270574D01*
X0264948Y0271636D01*
X0264136Y0272448D01*
X0263074Y0272887D01*
X0261926Y0272887D01*
X0260864Y0272448D01*
X0260052Y0271636D01*
X0260000Y0271510D01*
X0259948Y0271636D01*
X0259136Y0272448D01*
X0258074Y0272887D01*
X0256926Y0272887D01*
X0255864Y0272448D01*
X0255052Y0271636D01*
X0254613Y0270574D01*
X0254613Y0269426D01*
X0254952Y0268607D02*
X0252976Y0268607D01*
X0252636Y0268948D02*
X0251574Y0269387D01*
X0250426Y0269387D01*
X0249364Y0268948D01*
X0248552Y0268136D01*
X0248146Y0267156D01*
X0247948Y0267636D01*
X0247136Y0268448D01*
X0246074Y0268887D01*
X0244926Y0268887D01*
X0243864Y0268448D01*
X0243052Y0267636D01*
X0242613Y0266574D01*
X0242613Y0265426D01*
X0243052Y0264364D01*
X0243864Y0263552D01*
X0244926Y0263113D01*
X0246074Y0263113D01*
X0247136Y0263552D01*
X0247948Y0264364D01*
X0248354Y0265344D01*
X0248552Y0264864D01*
X0249364Y0264052D01*
X0250426Y0263613D01*
X0251574Y0263613D01*
X0252636Y0264052D01*
X0253448Y0264864D01*
X0253887Y0265926D01*
X0253887Y0267074D01*
X0253448Y0268136D01*
X0252636Y0268948D01*
X0253666Y0267608D02*
X0255808Y0267608D01*
X0255926Y0266387D02*
X0254864Y0265948D01*
X0254052Y0265136D01*
X0253613Y0264074D01*
X0253613Y0262926D01*
X0254052Y0261864D01*
X0254864Y0261052D01*
X0255926Y0260613D01*
X0257074Y0260613D01*
X0258136Y0261052D01*
X0258948Y0261864D01*
X0259387Y0262926D01*
X0259387Y0264074D01*
X0258948Y0265136D01*
X0258136Y0265948D01*
X0257074Y0266387D01*
X0255926Y0266387D01*
X0254528Y0265611D02*
X0253757Y0265611D01*
X0253836Y0264613D02*
X0253196Y0264613D01*
X0253613Y0263614D02*
X0251579Y0263614D01*
X0250421Y0263614D02*
X0247198Y0263614D01*
X0248051Y0264613D02*
X0248804Y0264613D01*
X0248334Y0267608D02*
X0247959Y0267608D01*
X0249024Y0268607D02*
X0246751Y0268607D01*
X0244249Y0268607D02*
X0236751Y0268607D01*
X0237136Y0268448D02*
X0236074Y0268887D01*
X0234926Y0268887D01*
X0233864Y0268448D01*
X0233052Y0267636D01*
X0232613Y0266574D01*
X0232613Y0265426D01*
X0233052Y0264364D01*
X0233864Y0263552D01*
X0234926Y0263113D01*
X0236074Y0263113D01*
X0237136Y0263552D01*
X0237948Y0264364D01*
X0238387Y0265426D01*
X0238387Y0266574D01*
X0237948Y0267636D01*
X0237136Y0268448D01*
X0237959Y0267608D02*
X0243041Y0267608D01*
X0242627Y0266610D02*
X0238373Y0266610D01*
X0238387Y0265611D02*
X0242613Y0265611D01*
X0242949Y0264613D02*
X0238051Y0264613D01*
X0237198Y0263614D02*
X0243802Y0263614D01*
X0233802Y0263614D02*
X0224258Y0263614D01*
X0224387Y0264613D02*
X0232949Y0264613D01*
X0232613Y0265611D02*
X0224165Y0265611D01*
X0223473Y0266610D02*
X0232627Y0266610D01*
X0233041Y0267608D02*
X0219459Y0267608D01*
X0218251Y0268607D02*
X0234249Y0268607D01*
X0223699Y0262616D02*
X0253741Y0262616D01*
X0254299Y0261617D02*
X0222086Y0261617D01*
X0220914Y0261617D02*
X0213086Y0261617D01*
X0211914Y0261617D02*
X0207387Y0261617D01*
X0207387Y0261426D02*
X0206948Y0260364D01*
X0206136Y0259552D01*
X0205074Y0259113D01*
X0203926Y0259113D01*
X0202864Y0259552D01*
X0202052Y0260364D01*
X0201613Y0261426D01*
X0201613Y0262574D01*
X0202052Y0263636D01*
X0202864Y0264448D01*
X0203926Y0264887D01*
X0205074Y0264887D01*
X0206136Y0264448D01*
X0206948Y0263636D01*
X0207387Y0262574D01*
X0207387Y0261426D01*
X0207053Y0260619D02*
X0255910Y0260619D01*
X0257090Y0260619D02*
X0350894Y0260619D01*
X0350894Y0261617D02*
X0258701Y0261617D01*
X0259259Y0262616D02*
X0350894Y0262616D01*
X0350894Y0263614D02*
X0259387Y0263614D01*
X0259164Y0264613D02*
X0350894Y0264613D01*
X0350894Y0265611D02*
X0258472Y0265611D01*
X0259192Y0267608D02*
X0260808Y0267608D01*
X0264192Y0267608D02*
X0350894Y0267608D01*
X0350894Y0266610D02*
X0253887Y0266610D01*
X0254625Y0270604D02*
X0184375Y0270604D01*
X0183962Y0271603D02*
X0255038Y0271603D01*
X0256234Y0272601D02*
X0182766Y0272601D01*
X0180234Y0272601D02*
X0178766Y0272601D01*
X0176234Y0272601D02*
X0056833Y0272601D01*
X0058042Y0271603D02*
X0175038Y0271603D01*
X0174625Y0270604D02*
X0058595Y0270604D01*
X0058868Y0269605D02*
X0174613Y0269605D01*
X0174952Y0268607D02*
X0058868Y0268607D01*
X0058539Y0267608D02*
X0175808Y0267608D01*
X0179192Y0267608D02*
X0179808Y0267608D01*
X0181613Y0266610D02*
X0057908Y0266610D01*
X0056510Y0265611D02*
X0181950Y0265611D01*
X0181543Y0264613D02*
X0025000Y0264613D01*
X0025000Y0265611D02*
X0043490Y0265611D01*
X0042092Y0266610D02*
X0025000Y0266610D01*
X0025000Y0267608D02*
X0041461Y0267608D01*
X0041131Y0268607D02*
X0025000Y0268607D01*
X0025000Y0269605D02*
X0041131Y0269605D01*
X0041405Y0270604D02*
X0025000Y0270604D01*
X0025000Y0271603D02*
X0041958Y0271603D01*
X0043167Y0272601D02*
X0025000Y0272601D01*
X0025000Y0273600D02*
X0350894Y0273600D01*
X0350894Y0274598D02*
X0025000Y0274598D01*
X0025000Y0275597D02*
X0043526Y0275597D01*
X0042107Y0276595D02*
X0025000Y0276595D01*
X0025000Y0277594D02*
X0041467Y0277594D01*
X0041131Y0278592D02*
X0025000Y0278592D01*
X0025000Y0279591D02*
X0041131Y0279591D01*
X0041399Y0280589D02*
X0025000Y0280589D01*
X0025000Y0281588D02*
X0041944Y0281588D01*
X0043131Y0282586D02*
X0025000Y0282586D01*
X0025000Y0283585D02*
X0246195Y0283585D01*
X0245864Y0283448D02*
X0245052Y0282636D01*
X0244613Y0281574D01*
X0244613Y0280426D01*
X0245052Y0279364D01*
X0245864Y0278552D01*
X0246926Y0278113D01*
X0248074Y0278113D01*
X0249136Y0278552D01*
X0249948Y0279364D01*
X0250387Y0280426D01*
X0250387Y0281574D01*
X0249948Y0282636D01*
X0249136Y0283448D01*
X0248074Y0283887D01*
X0246926Y0283887D01*
X0245864Y0283448D01*
X0245032Y0282586D02*
X0056869Y0282586D01*
X0058056Y0281588D02*
X0244618Y0281588D01*
X0244613Y0280589D02*
X0058601Y0280589D01*
X0058868Y0279591D02*
X0244958Y0279591D01*
X0245824Y0278592D02*
X0058868Y0278592D01*
X0058533Y0277594D02*
X0350894Y0277594D01*
X0350894Y0278592D02*
X0249176Y0278592D01*
X0250041Y0279591D02*
X0350894Y0279591D01*
X0350894Y0280589D02*
X0250387Y0280589D01*
X0250382Y0281588D02*
X0350894Y0281588D01*
X0350894Y0282586D02*
X0249968Y0282586D01*
X0248805Y0283585D02*
X0350894Y0283585D01*
X0350894Y0284583D02*
X0025000Y0284583D01*
X0025000Y0285582D02*
X0043562Y0285582D01*
X0042122Y0286580D02*
X0025000Y0286580D01*
X0025000Y0287579D02*
X0041473Y0287579D01*
X0041131Y0288577D02*
X0025000Y0288577D01*
X0025000Y0289576D02*
X0041131Y0289576D01*
X0041393Y0290574D02*
X0025000Y0290574D01*
X0025000Y0291573D02*
X0041929Y0291573D01*
X0043095Y0292571D02*
X0025000Y0292571D01*
X0025000Y0295567D02*
X0043598Y0295567D01*
X0042137Y0296565D02*
X0025000Y0296565D01*
X0025000Y0297564D02*
X0041479Y0297564D01*
X0041131Y0298562D02*
X0025000Y0298562D01*
X0025000Y0299561D02*
X0041131Y0299561D01*
X0041387Y0300559D02*
X0025000Y0300559D01*
X0025000Y0301558D02*
X0041914Y0301558D01*
X0043059Y0302556D02*
X0025000Y0302556D01*
X0025000Y0305552D02*
X0043634Y0305552D01*
X0042152Y0306550D02*
X0025000Y0306550D01*
X0025000Y0307549D02*
X0041486Y0307549D01*
X0041131Y0308547D02*
X0025000Y0308547D01*
X0025000Y0309546D02*
X0041131Y0309546D01*
X0041381Y0310544D02*
X0025000Y0310544D01*
X0025000Y0311543D02*
X0041899Y0311543D01*
X0043023Y0312541D02*
X0025000Y0312541D01*
X0025000Y0313540D02*
X0063046Y0313540D01*
X0067954Y0313540D02*
X0073046Y0313540D01*
X0072344Y0314539D02*
X0068656Y0314539D01*
X0068975Y0315537D02*
X0072025Y0315537D01*
X0072025Y0316536D02*
X0068975Y0316536D01*
X0068626Y0317534D02*
X0072374Y0317534D01*
X0073118Y0318533D02*
X0067882Y0318533D01*
X0077882Y0318533D02*
X0083118Y0318533D01*
X0082374Y0317534D02*
X0078626Y0317534D01*
X0078975Y0316536D02*
X0082025Y0316536D01*
X0082025Y0315537D02*
X0078975Y0315537D01*
X0078656Y0314539D02*
X0082344Y0314539D01*
X0083046Y0313540D02*
X0077954Y0313540D01*
X0087954Y0313540D02*
X0093046Y0313540D01*
X0092344Y0314539D02*
X0088656Y0314539D01*
X0088975Y0315537D02*
X0092025Y0315537D01*
X0092025Y0316536D02*
X0088975Y0316536D01*
X0088626Y0317534D02*
X0092374Y0317534D01*
X0093118Y0318533D02*
X0087882Y0318533D01*
X0086195Y0322527D02*
X0094805Y0322527D01*
X0094809Y0322525D02*
X0096191Y0322525D01*
X0097468Y0323054D01*
X0098446Y0324032D01*
X0098975Y0325309D01*
X0098975Y0326691D01*
X0098446Y0327968D01*
X0097468Y0328946D01*
X0096191Y0329475D01*
X0094809Y0329475D01*
X0093532Y0328946D01*
X0092554Y0327968D01*
X0092025Y0326691D01*
X0092025Y0325309D01*
X0092554Y0324032D01*
X0093532Y0323054D01*
X0094809Y0322525D01*
X0096195Y0322527D02*
X0103760Y0322527D01*
X0103665Y0322566D02*
X0104370Y0322274D01*
X0105118Y0322125D01*
X0105213Y0322125D01*
X0105213Y0325713D01*
X0105787Y0325713D01*
X0105787Y0326287D01*
X0105213Y0326287D01*
X0105213Y0325713D01*
X0101625Y0325713D01*
X0101625Y0325618D01*
X0101774Y0324870D01*
X0102066Y0324165D01*
X0102490Y0323530D01*
X0103030Y0322990D01*
X0103665Y0322566D01*
X0102495Y0323525D02*
X0097939Y0323525D01*
X0098650Y0324524D02*
X0101917Y0324524D01*
X0101644Y0325522D02*
X0098975Y0325522D01*
X0098975Y0326521D02*
X0101653Y0326521D01*
X0101625Y0326382D02*
X0101625Y0326287D01*
X0105213Y0326287D01*
X0105213Y0329875D01*
X0105118Y0329875D01*
X0104370Y0329726D01*
X0103665Y0329434D01*
X0103030Y0329010D01*
X0102490Y0328470D01*
X0102066Y0327835D01*
X0101774Y0327130D01*
X0101625Y0326382D01*
X0101935Y0327519D02*
X0098632Y0327519D01*
X0097896Y0328518D02*
X0102538Y0328518D01*
X0103863Y0329516D02*
X0067137Y0329516D01*
X0068462Y0328518D02*
X0073104Y0328518D01*
X0073532Y0328946D02*
X0072554Y0327968D01*
X0072025Y0326691D01*
X0072025Y0325309D01*
X0072554Y0324032D01*
X0073532Y0323054D01*
X0074809Y0322525D01*
X0076191Y0322525D01*
X0077468Y0323054D01*
X0078446Y0324032D01*
X0078975Y0325309D01*
X0078975Y0326691D01*
X0078446Y0327968D01*
X0077468Y0328946D01*
X0076191Y0329475D01*
X0074809Y0329475D01*
X0073532Y0328946D01*
X0072368Y0327519D02*
X0069065Y0327519D01*
X0069347Y0326521D02*
X0072025Y0326521D01*
X0072025Y0325522D02*
X0069356Y0325522D01*
X0069083Y0324524D02*
X0072350Y0324524D01*
X0073061Y0323525D02*
X0068505Y0323525D01*
X0067240Y0322527D02*
X0074805Y0322527D01*
X0076195Y0322527D02*
X0084805Y0322527D01*
X0084809Y0322525D02*
X0086191Y0322525D01*
X0087468Y0323054D01*
X0088446Y0324032D01*
X0088975Y0325309D01*
X0088975Y0326691D01*
X0088446Y0327968D01*
X0087468Y0328946D01*
X0086191Y0329475D01*
X0084809Y0329475D01*
X0083532Y0328946D01*
X0082554Y0327968D01*
X0082025Y0326691D01*
X0082025Y0325309D01*
X0082554Y0324032D01*
X0083532Y0323054D01*
X0084809Y0322525D01*
X0083061Y0323525D02*
X0077939Y0323525D01*
X0078650Y0324524D02*
X0082350Y0324524D01*
X0082025Y0325522D02*
X0078975Y0325522D01*
X0078975Y0326521D02*
X0082025Y0326521D01*
X0082368Y0327519D02*
X0078632Y0327519D01*
X0077896Y0328518D02*
X0083104Y0328518D01*
X0087896Y0328518D02*
X0093104Y0328518D01*
X0092368Y0327519D02*
X0088632Y0327519D01*
X0088975Y0326521D02*
X0092025Y0326521D01*
X0092025Y0325522D02*
X0088975Y0325522D01*
X0088650Y0324524D02*
X0092350Y0324524D01*
X0093061Y0323525D02*
X0087939Y0323525D01*
X0097882Y0318533D02*
X0103118Y0318533D01*
X0102374Y0317534D02*
X0098626Y0317534D01*
X0098975Y0316536D02*
X0102025Y0316536D01*
X0102025Y0315537D02*
X0098975Y0315537D01*
X0098656Y0314539D02*
X0102344Y0314539D01*
X0103046Y0313540D02*
X0097954Y0313540D01*
X0105213Y0322527D02*
X0105787Y0322527D01*
X0105787Y0323525D02*
X0105213Y0323525D01*
X0105213Y0324524D02*
X0105787Y0324524D01*
X0105787Y0325522D02*
X0105213Y0325522D01*
X0105213Y0326521D02*
X0105787Y0326521D01*
X0105787Y0327519D02*
X0105213Y0327519D01*
X0105213Y0328518D02*
X0105787Y0328518D01*
X0105787Y0329516D02*
X0105213Y0329516D01*
X0045484Y0328518D02*
X0044516Y0328518D01*
X0044516Y0329516D02*
X0025000Y0329516D01*
X0025000Y0328518D02*
X0040782Y0328518D01*
X0041052Y0327519D02*
X0025000Y0327519D01*
X0025000Y0326521D02*
X0041651Y0326521D01*
X0042763Y0325522D02*
X0043361Y0325217D01*
X0044000Y0325010D01*
X0044516Y0324928D01*
X0040948Y0330515D02*
X0025000Y0330515D01*
X0025000Y0331513D02*
X0041424Y0331513D01*
X0042197Y0336506D02*
X0025000Y0336506D01*
X0025000Y0337504D02*
X0041504Y0337504D01*
X0041131Y0338503D02*
X0025000Y0338503D01*
X0025000Y0339501D02*
X0041131Y0339501D01*
X0041362Y0340500D02*
X0025000Y0340500D01*
X0025000Y0341498D02*
X0041854Y0341498D01*
X0097334Y0291573D02*
X0122666Y0291573D01*
X0121527Y0290574D02*
X0098473Y0290574D01*
X0098887Y0289576D02*
X0121113Y0289576D01*
X0121113Y0288577D02*
X0098887Y0288577D01*
X0098537Y0287579D02*
X0121463Y0287579D01*
X0122336Y0286580D02*
X0097664Y0286580D01*
X0125334Y0291573D02*
X0235466Y0291573D01*
X0236342Y0290574D02*
X0126473Y0290574D01*
X0097636Y0263448D02*
X0096574Y0263887D01*
X0095426Y0263887D01*
X0094364Y0263448D01*
X0093552Y0262636D01*
X0093113Y0261574D01*
X0093113Y0260426D01*
X0093552Y0259364D01*
X0094364Y0258552D01*
X0095426Y0258113D01*
X0096574Y0258113D01*
X0097636Y0258552D01*
X0098448Y0259364D01*
X0098887Y0260426D01*
X0098887Y0261574D01*
X0098448Y0262636D01*
X0097636Y0263448D01*
X0097233Y0263614D02*
X0122767Y0263614D01*
X0121544Y0262616D02*
X0098456Y0262616D01*
X0098870Y0261617D02*
X0121130Y0261617D01*
X0121113Y0260619D02*
X0098887Y0260619D01*
X0098554Y0259620D02*
X0121446Y0259620D01*
X0122295Y0258622D02*
X0097705Y0258622D01*
X0094295Y0258622D02*
X0058868Y0258622D01*
X0058868Y0259620D02*
X0093446Y0259620D01*
X0093113Y0260619D02*
X0058588Y0260619D01*
X0058027Y0261617D02*
X0093130Y0261617D01*
X0093544Y0262616D02*
X0056797Y0262616D01*
X0043203Y0262616D02*
X0025000Y0262616D01*
X0025000Y0263614D02*
X0094767Y0263614D01*
X0125233Y0263614D02*
X0181129Y0263614D01*
X0181113Y0262616D02*
X0126456Y0262616D01*
X0126870Y0261617D02*
X0181447Y0261617D01*
X0182298Y0260619D02*
X0126887Y0260619D01*
X0145994Y0242646D02*
X0290717Y0242646D01*
X0290303Y0243644D02*
X0025000Y0243644D01*
X0025000Y0242646D02*
X0043274Y0242646D01*
X0042003Y0241647D02*
X0025000Y0241647D01*
X0025000Y0240649D02*
X0041424Y0240649D01*
X0041131Y0239650D02*
X0025000Y0239650D01*
X0025000Y0238652D02*
X0041131Y0238652D01*
X0041442Y0237653D02*
X0025000Y0237653D01*
X0025000Y0236655D02*
X0042048Y0236655D01*
X0043382Y0235656D02*
X0025000Y0235656D01*
X0025000Y0234658D02*
X0169574Y0234658D01*
X0170143Y0229665D02*
X0170799Y0229665D01*
X0166785Y0225671D02*
X0137912Y0225671D01*
X0138640Y0224672D02*
X0182907Y0224672D01*
X0183426Y0224887D02*
X0182364Y0224448D01*
X0181552Y0223636D01*
X0181113Y0222574D01*
X0181113Y0221426D01*
X0181552Y0220364D01*
X0182364Y0219552D01*
X0183426Y0219113D01*
X0184574Y0219113D01*
X0185636Y0219552D01*
X0186448Y0220364D01*
X0186887Y0221426D01*
X0186887Y0222574D01*
X0186448Y0223636D01*
X0185636Y0224448D01*
X0184574Y0224887D01*
X0183426Y0224887D01*
X0185093Y0224672D02*
X0350894Y0224672D01*
X0350894Y0223674D02*
X0186409Y0223674D01*
X0186846Y0222675D02*
X0350894Y0222675D01*
X0350894Y0221677D02*
X0186887Y0221677D01*
X0186578Y0220678D02*
X0350894Y0220678D01*
X0350894Y0219680D02*
X0185763Y0219680D01*
X0182237Y0219680D02*
X0058868Y0219680D01*
X0058868Y0219943D02*
X0058868Y0218404D01*
X0058280Y0216982D01*
X0057191Y0215894D01*
X0055769Y0215305D01*
X0054230Y0215305D01*
X0052809Y0215894D01*
X0051720Y0216982D01*
X0051131Y0218404D01*
X0051131Y0219943D01*
X0051720Y0221365D01*
X0052809Y0222453D01*
X0054230Y0223042D01*
X0055769Y0223042D01*
X0057191Y0222453D01*
X0058280Y0221365D01*
X0058868Y0219943D01*
X0058564Y0220678D02*
X0135267Y0220678D01*
X0136733Y0220678D02*
X0181422Y0220678D01*
X0181113Y0221677D02*
X0138260Y0221677D01*
X0138784Y0222675D02*
X0181154Y0222675D01*
X0181591Y0223674D02*
X0138887Y0223674D01*
X0133740Y0221677D02*
X0057967Y0221677D01*
X0056654Y0222675D02*
X0133216Y0222675D01*
X0133113Y0223674D02*
X0025000Y0223674D01*
X0025000Y0222675D02*
X0042558Y0222675D01*
X0042763Y0222824D02*
X0042219Y0222429D01*
X0041744Y0221954D01*
X0041349Y0221410D01*
X0041044Y0220812D01*
X0040837Y0220173D01*
X0040755Y0219657D01*
X0044516Y0219657D01*
X0044516Y0218689D01*
X0045484Y0218689D01*
X0045484Y0214928D01*
X0046000Y0215010D01*
X0046639Y0215217D01*
X0047237Y0215522D01*
X0047781Y0215917D01*
X0048256Y0216392D01*
X0048651Y0216936D01*
X0048956Y0217535D01*
X0049163Y0218174D01*
X0049245Y0218689D01*
X0045484Y0218689D01*
X0045484Y0219657D01*
X0049245Y0219657D01*
X0049163Y0220173D01*
X0048956Y0220812D01*
X0048651Y0221410D01*
X0048256Y0221954D01*
X0047781Y0222429D01*
X0047237Y0222824D01*
X0046639Y0223129D01*
X0046000Y0223337D01*
X0045484Y0223418D01*
X0045484Y0219658D01*
X0044516Y0219658D01*
X0044516Y0223418D01*
X0044000Y0223337D01*
X0043361Y0223129D01*
X0042763Y0222824D01*
X0041543Y0221677D02*
X0025000Y0221677D01*
X0025000Y0220678D02*
X0041001Y0220678D01*
X0040759Y0219680D02*
X0025000Y0219680D01*
X0025000Y0218681D02*
X0040756Y0218681D01*
X0040755Y0218689D02*
X0040837Y0218174D01*
X0041044Y0217535D01*
X0041349Y0216936D01*
X0041744Y0216392D01*
X0042219Y0215917D01*
X0042763Y0215522D01*
X0043361Y0215217D01*
X0044000Y0215010D01*
X0044516Y0214928D01*
X0044516Y0218689D01*
X0040755Y0218689D01*
X0040996Y0217683D02*
X0025000Y0217683D01*
X0025000Y0216684D02*
X0041532Y0216684D01*
X0042538Y0215686D02*
X0025000Y0215686D01*
X0025000Y0214687D02*
X0166613Y0214687D01*
X0166613Y0214426D02*
X0167052Y0213364D01*
X0167864Y0212552D01*
X0168926Y0212113D01*
X0170074Y0212113D01*
X0171136Y0212552D01*
X0171948Y0213364D01*
X0172387Y0214426D01*
X0172387Y0215574D01*
X0171948Y0216636D01*
X0171136Y0217448D01*
X0170074Y0217887D01*
X0168926Y0217887D01*
X0167864Y0217448D01*
X0167052Y0216636D01*
X0166613Y0215574D01*
X0166613Y0214426D01*
X0166918Y0213689D02*
X0025000Y0213689D01*
X0025000Y0212690D02*
X0043382Y0212690D01*
X0042809Y0212453D02*
X0044230Y0213042D01*
X0045769Y0213042D01*
X0047191Y0212453D01*
X0048280Y0211365D01*
X0048868Y0209943D01*
X0048868Y0208404D01*
X0048280Y0206982D01*
X0047191Y0205894D01*
X0045769Y0205305D01*
X0044230Y0205305D01*
X0042809Y0205894D01*
X0041720Y0206982D01*
X0041131Y0208404D01*
X0041131Y0209943D01*
X0041720Y0211365D01*
X0042809Y0212453D01*
X0042048Y0211692D02*
X0025000Y0211692D01*
X0025000Y0210693D02*
X0041442Y0210693D01*
X0041131Y0209695D02*
X0025000Y0209695D01*
X0025000Y0208696D02*
X0041131Y0208696D01*
X0041424Y0207698D02*
X0025000Y0207698D01*
X0025000Y0206699D02*
X0042003Y0206699D01*
X0043274Y0205701D02*
X0025000Y0205701D01*
X0025000Y0204702D02*
X0181714Y0204702D01*
X0181552Y0204864D02*
X0182364Y0204052D01*
X0183344Y0203646D01*
X0182864Y0203448D01*
X0182052Y0202636D01*
X0181613Y0201574D01*
X0181613Y0200426D01*
X0182052Y0199364D01*
X0182864Y0198552D01*
X0182938Y0198522D01*
X0182552Y0198136D01*
X0182113Y0197074D01*
X0182113Y0195926D01*
X0182552Y0194864D01*
X0183364Y0194052D01*
X0184426Y0193613D01*
X0185574Y0193613D01*
X0186636Y0194052D01*
X0187448Y0194864D01*
X0187887Y0195926D01*
X0187887Y0197074D01*
X0187448Y0198136D01*
X0186636Y0198948D01*
X0186562Y0198978D01*
X0186948Y0199364D01*
X0187387Y0200426D01*
X0187387Y0201574D01*
X0186948Y0202636D01*
X0186136Y0203448D01*
X0185156Y0203854D01*
X0185636Y0204052D01*
X0186448Y0204864D01*
X0186887Y0205926D01*
X0186887Y0207074D01*
X0186448Y0208136D01*
X0185636Y0208948D01*
X0184574Y0209387D01*
X0183426Y0209387D01*
X0182364Y0208948D01*
X0181552Y0208136D01*
X0181113Y0207074D01*
X0181113Y0205926D01*
X0181552Y0204864D01*
X0181206Y0205701D02*
X0056726Y0205701D01*
X0057191Y0205894D02*
X0058280Y0206982D01*
X0058868Y0208404D01*
X0058868Y0209943D01*
X0058280Y0211365D01*
X0057191Y0212453D01*
X0055769Y0213042D01*
X0054230Y0213042D01*
X0052809Y0212453D01*
X0051720Y0211365D01*
X0051131Y0209943D01*
X0051131Y0208404D01*
X0051720Y0206982D01*
X0052809Y0205894D01*
X0054230Y0205305D01*
X0055769Y0205305D01*
X0057191Y0205894D01*
X0057997Y0206699D02*
X0094217Y0206699D01*
X0094364Y0206552D02*
X0095426Y0206113D01*
X0096574Y0206113D01*
X0097636Y0206552D01*
X0098448Y0207364D01*
X0098887Y0208426D01*
X0098887Y0209574D01*
X0098448Y0210636D01*
X0097636Y0211448D01*
X0096574Y0211887D01*
X0095426Y0211887D01*
X0094364Y0211448D01*
X0093552Y0210636D01*
X0093113Y0209574D01*
X0093113Y0208426D01*
X0093552Y0207364D01*
X0094364Y0206552D01*
X0093414Y0207698D02*
X0058576Y0207698D01*
X0058868Y0208696D02*
X0093113Y0208696D01*
X0093163Y0209695D02*
X0058868Y0209695D01*
X0058558Y0210693D02*
X0093610Y0210693D01*
X0094954Y0211692D02*
X0057952Y0211692D01*
X0056618Y0212690D02*
X0167726Y0212690D01*
X0166659Y0215686D02*
X0056690Y0215686D01*
X0057982Y0216684D02*
X0167101Y0216684D01*
X0168432Y0217683D02*
X0058570Y0217683D01*
X0058868Y0218681D02*
X0350894Y0218681D01*
X0350894Y0217683D02*
X0170568Y0217683D01*
X0171899Y0216684D02*
X0350894Y0216684D01*
X0350894Y0215686D02*
X0172341Y0215686D01*
X0172387Y0214687D02*
X0254943Y0214687D01*
X0255426Y0214887D02*
X0254364Y0214448D01*
X0253552Y0213636D01*
X0253113Y0212574D01*
X0253113Y0211426D01*
X0253552Y0210364D01*
X0254364Y0209552D01*
X0254490Y0209500D01*
X0254364Y0209448D01*
X0253552Y0208636D01*
X0253113Y0207574D01*
X0253113Y0206426D01*
X0253552Y0205364D01*
X0254364Y0204552D01*
X0255426Y0204113D01*
X0256574Y0204113D01*
X0257636Y0204552D01*
X0258448Y0205364D01*
X0258887Y0206426D01*
X0258887Y0207574D01*
X0258448Y0208636D01*
X0257636Y0209448D01*
X0257510Y0209500D01*
X0257636Y0209552D01*
X0258448Y0210364D01*
X0258887Y0211426D01*
X0258887Y0212574D01*
X0258448Y0213636D01*
X0257636Y0214448D01*
X0256574Y0214887D01*
X0255426Y0214887D01*
X0257057Y0214687D02*
X0350894Y0214687D01*
X0350894Y0213689D02*
X0258395Y0213689D01*
X0258839Y0212690D02*
X0350894Y0212690D01*
X0350894Y0211692D02*
X0258887Y0211692D01*
X0258584Y0210693D02*
X0350894Y0210693D01*
X0350894Y0209695D02*
X0257778Y0209695D01*
X0258387Y0208696D02*
X0350894Y0208696D01*
X0350894Y0207698D02*
X0258836Y0207698D01*
X0258887Y0206699D02*
X0350894Y0206699D01*
X0350894Y0205701D02*
X0258587Y0205701D01*
X0257786Y0204702D02*
X0350894Y0204702D01*
X0350894Y0203704D02*
X0185518Y0203704D01*
X0186286Y0204702D02*
X0254214Y0204702D01*
X0253413Y0205701D02*
X0186794Y0205701D01*
X0186887Y0206699D02*
X0253113Y0206699D01*
X0253164Y0207698D02*
X0186629Y0207698D01*
X0185887Y0208696D02*
X0253613Y0208696D01*
X0254222Y0209695D02*
X0126837Y0209695D01*
X0126887Y0209574D02*
X0126448Y0210636D01*
X0125636Y0211448D01*
X0124574Y0211887D01*
X0123426Y0211887D01*
X0122364Y0211448D01*
X0121552Y0210636D01*
X0121113Y0209574D01*
X0121113Y0208426D01*
X0121552Y0207364D01*
X0122364Y0206552D01*
X0123426Y0206113D01*
X0124574Y0206113D01*
X0125636Y0206552D01*
X0126448Y0207364D01*
X0126887Y0208426D01*
X0126887Y0209574D01*
X0126887Y0208696D02*
X0182113Y0208696D01*
X0181371Y0207698D02*
X0126586Y0207698D01*
X0125783Y0206699D02*
X0181113Y0206699D01*
X0183206Y0203704D02*
X0025000Y0203704D01*
X0025000Y0202705D02*
X0043418Y0202705D01*
X0042809Y0202453D02*
X0041720Y0201365D01*
X0041131Y0199943D01*
X0041131Y0198404D01*
X0041720Y0196982D01*
X0042809Y0195894D01*
X0044230Y0195305D01*
X0045769Y0195305D01*
X0047191Y0195894D01*
X0048280Y0196982D01*
X0048868Y0198404D01*
X0048868Y0199943D01*
X0048280Y0201365D01*
X0047191Y0202453D01*
X0045769Y0203042D01*
X0044230Y0203042D01*
X0042809Y0202453D01*
X0042063Y0201707D02*
X0025000Y0201707D01*
X0025000Y0200708D02*
X0041449Y0200708D01*
X0041131Y0199710D02*
X0025000Y0199710D01*
X0025000Y0198711D02*
X0041131Y0198711D01*
X0041418Y0197713D02*
X0025000Y0197713D01*
X0025000Y0196714D02*
X0041988Y0196714D01*
X0043238Y0195716D02*
X0025000Y0195716D01*
X0025000Y0194717D02*
X0182699Y0194717D01*
X0182200Y0195716D02*
X0056762Y0195716D01*
X0057191Y0195894D02*
X0058280Y0196982D01*
X0058868Y0198404D01*
X0058868Y0199943D01*
X0058280Y0201365D01*
X0057191Y0202453D01*
X0055769Y0203042D01*
X0054230Y0203042D01*
X0052809Y0202453D01*
X0051720Y0201365D01*
X0051131Y0199943D01*
X0051131Y0198404D01*
X0051720Y0196982D01*
X0052809Y0195894D01*
X0054230Y0195305D01*
X0055769Y0195305D01*
X0057191Y0195894D01*
X0058012Y0196714D02*
X0182113Y0196714D01*
X0182377Y0197713D02*
X0058582Y0197713D01*
X0058868Y0198711D02*
X0182705Y0198711D01*
X0181909Y0199710D02*
X0058868Y0199710D01*
X0058551Y0200708D02*
X0181613Y0200708D01*
X0181667Y0201707D02*
X0057937Y0201707D01*
X0056582Y0202705D02*
X0182122Y0202705D01*
X0186878Y0202705D02*
X0350894Y0202705D01*
X0350894Y0201707D02*
X0257877Y0201707D01*
X0257636Y0201948D02*
X0256574Y0202387D01*
X0255426Y0202387D01*
X0254364Y0201948D01*
X0253552Y0201136D01*
X0253113Y0200074D01*
X0253113Y0198926D01*
X0253552Y0197864D01*
X0254364Y0197052D01*
X0255426Y0196613D01*
X0256574Y0196613D01*
X0257636Y0197052D01*
X0258448Y0197864D01*
X0258887Y0198926D01*
X0258887Y0200074D01*
X0258448Y0201136D01*
X0257636Y0201948D01*
X0258625Y0200708D02*
X0350894Y0200708D01*
X0350894Y0199710D02*
X0258887Y0199710D01*
X0258799Y0198711D02*
X0350894Y0198711D01*
X0350894Y0197713D02*
X0258296Y0197713D01*
X0256820Y0196714D02*
X0350894Y0196714D01*
X0350894Y0195716D02*
X0252368Y0195716D01*
X0252448Y0195636D02*
X0251636Y0196448D01*
X0250574Y0196887D01*
X0249426Y0196887D01*
X0248364Y0196448D01*
X0247552Y0195636D01*
X0247113Y0194574D01*
X0247113Y0193426D01*
X0247552Y0192364D01*
X0248364Y0191552D01*
X0249426Y0191113D01*
X0250574Y0191113D01*
X0251636Y0191552D01*
X0252448Y0192364D01*
X0252887Y0193426D01*
X0252887Y0194574D01*
X0252448Y0195636D01*
X0252828Y0194717D02*
X0350894Y0194717D01*
X0350894Y0193719D02*
X0252887Y0193719D01*
X0252595Y0192720D02*
X0350894Y0192720D01*
X0350894Y0191722D02*
X0251805Y0191722D01*
X0248195Y0191722D02*
X0245305Y0191722D01*
X0245136Y0191552D02*
X0245948Y0192364D01*
X0246387Y0193426D01*
X0246387Y0194574D01*
X0245948Y0195636D01*
X0245136Y0196448D01*
X0244074Y0196887D01*
X0242926Y0196887D01*
X0241864Y0196448D01*
X0241052Y0195636D01*
X0240613Y0194574D01*
X0240613Y0193426D01*
X0241052Y0192364D01*
X0241864Y0191552D01*
X0242926Y0191113D01*
X0244074Y0191113D01*
X0245136Y0191552D01*
X0246095Y0192720D02*
X0247405Y0192720D01*
X0247113Y0193719D02*
X0246387Y0193719D01*
X0246328Y0194717D02*
X0247172Y0194717D01*
X0247632Y0195716D02*
X0245868Y0195716D01*
X0244493Y0196714D02*
X0249007Y0196714D01*
X0250993Y0196714D02*
X0255180Y0196714D01*
X0253704Y0197713D02*
X0211371Y0197713D01*
X0211448Y0197636D02*
X0210636Y0198448D01*
X0209574Y0198887D01*
X0208426Y0198887D01*
X0207364Y0198448D01*
X0206552Y0197636D01*
X0206113Y0196574D01*
X0206113Y0195426D01*
X0206552Y0194364D01*
X0207364Y0193552D01*
X0208426Y0193113D01*
X0209574Y0193113D01*
X0210113Y0193336D01*
X0210113Y0192926D01*
X0210552Y0191864D01*
X0211364Y0191052D01*
X0212426Y0190613D01*
X0213574Y0190613D01*
X0214636Y0191052D01*
X0215448Y0191864D01*
X0215887Y0192926D01*
X0215887Y0194074D01*
X0215448Y0195136D01*
X0214636Y0195948D01*
X0213574Y0196387D01*
X0212426Y0196387D01*
X0211887Y0196164D01*
X0211887Y0196574D01*
X0211448Y0197636D01*
X0211829Y0196714D02*
X0230507Y0196714D01*
X0230926Y0196887D02*
X0229864Y0196448D01*
X0229052Y0195636D01*
X0228613Y0194574D01*
X0228613Y0193426D01*
X0229052Y0192364D01*
X0229864Y0191552D01*
X0230926Y0191113D01*
X0232074Y0191113D01*
X0233136Y0191552D01*
X0233948Y0192364D01*
X0234387Y0193426D01*
X0234387Y0194574D01*
X0233948Y0195636D01*
X0233136Y0196448D01*
X0232074Y0196887D01*
X0230926Y0196887D01*
X0232493Y0196714D02*
X0242507Y0196714D01*
X0241132Y0195716D02*
X0233868Y0195716D01*
X0234328Y0194717D02*
X0240672Y0194717D01*
X0240613Y0193719D02*
X0234387Y0193719D01*
X0234095Y0192720D02*
X0240905Y0192720D01*
X0241695Y0191722D02*
X0233305Y0191722D01*
X0229695Y0191722D02*
X0215305Y0191722D01*
X0215802Y0192720D02*
X0228905Y0192720D01*
X0228613Y0193719D02*
X0215887Y0193719D01*
X0215621Y0194717D02*
X0228672Y0194717D01*
X0229132Y0195716D02*
X0214868Y0195716D01*
X0213841Y0190723D02*
X0350894Y0190723D01*
X0350894Y0189725D02*
X0180387Y0189725D01*
X0180387Y0189426D02*
X0179948Y0188364D01*
X0179136Y0187552D01*
X0178074Y0187113D01*
X0176926Y0187113D01*
X0175864Y0187552D01*
X0175052Y0188364D01*
X0174613Y0189426D01*
X0174613Y0190574D01*
X0175052Y0191636D01*
X0175864Y0192448D01*
X0176926Y0192887D01*
X0178074Y0192887D01*
X0179136Y0192448D01*
X0179948Y0191636D01*
X0180387Y0190574D01*
X0180387Y0189426D01*
X0180098Y0188726D02*
X0350894Y0188726D01*
X0350894Y0187728D02*
X0179311Y0187728D01*
X0180326Y0190723D02*
X0212159Y0190723D01*
X0210695Y0191722D02*
X0194305Y0191722D01*
X0194136Y0191552D02*
X0194948Y0192364D01*
X0195387Y0193426D01*
X0195387Y0194574D01*
X0194948Y0195636D01*
X0194136Y0196448D01*
X0193074Y0196887D01*
X0191926Y0196887D01*
X0190864Y0196448D01*
X0190052Y0195636D01*
X0189613Y0194574D01*
X0189613Y0193426D01*
X0190052Y0192364D01*
X0190864Y0191552D01*
X0191926Y0191113D01*
X0193074Y0191113D01*
X0194136Y0191552D01*
X0195095Y0192720D02*
X0210198Y0192720D01*
X0207198Y0193719D02*
X0195387Y0193719D01*
X0195328Y0194717D02*
X0206406Y0194717D01*
X0206113Y0195716D02*
X0194868Y0195716D01*
X0193493Y0196714D02*
X0206171Y0196714D01*
X0206629Y0197713D02*
X0187623Y0197713D01*
X0187887Y0196714D02*
X0191507Y0196714D01*
X0190132Y0195716D02*
X0187800Y0195716D01*
X0187301Y0194717D02*
X0189672Y0194717D01*
X0189613Y0193719D02*
X0185830Y0193719D01*
X0184170Y0193719D02*
X0025000Y0193719D01*
X0025000Y0192720D02*
X0043454Y0192720D01*
X0042809Y0192453D02*
X0041720Y0191365D01*
X0041131Y0189943D01*
X0041131Y0188404D01*
X0041720Y0186982D01*
X0042809Y0185894D01*
X0044230Y0185305D01*
X0045769Y0185305D01*
X0047191Y0185894D01*
X0048280Y0186982D01*
X0048868Y0188404D01*
X0048868Y0189943D01*
X0048280Y0191365D01*
X0047191Y0192453D01*
X0045769Y0193042D01*
X0044230Y0193042D01*
X0042809Y0192453D01*
X0042077Y0191722D02*
X0025000Y0191722D01*
X0025000Y0190723D02*
X0041455Y0190723D01*
X0041131Y0189725D02*
X0025000Y0189725D01*
X0025000Y0188726D02*
X0041131Y0188726D01*
X0041412Y0187728D02*
X0025000Y0187728D01*
X0025000Y0186729D02*
X0041973Y0186729D01*
X0043202Y0185731D02*
X0025000Y0185731D01*
X0025000Y0184732D02*
X0145474Y0184732D01*
X0145718Y0184141D02*
X0146641Y0183218D01*
X0147847Y0182719D01*
X0149153Y0182719D01*
X0150359Y0183218D01*
X0151282Y0184141D01*
X0151781Y0185347D01*
X0151781Y0186653D01*
X0151282Y0187859D01*
X0150359Y0188782D01*
X0149153Y0189281D01*
X0147847Y0189281D01*
X0146641Y0188782D01*
X0145718Y0187859D01*
X0145219Y0186653D01*
X0145219Y0185347D01*
X0145718Y0184141D01*
X0146126Y0183734D02*
X0124946Y0183734D01*
X0124574Y0183887D02*
X0123426Y0183887D01*
X0122364Y0183448D01*
X0121552Y0182636D01*
X0121113Y0181574D01*
X0121113Y0180426D01*
X0121552Y0179364D01*
X0122364Y0178552D01*
X0123426Y0178113D01*
X0124574Y0178113D01*
X0125636Y0178552D01*
X0126448Y0179364D01*
X0126887Y0180426D01*
X0126887Y0181574D01*
X0126448Y0182636D01*
X0125636Y0183448D01*
X0124574Y0183887D01*
X0123054Y0183734D02*
X0096946Y0183734D01*
X0096574Y0183887D02*
X0095426Y0183887D01*
X0094364Y0183448D01*
X0093552Y0182636D01*
X0093113Y0181574D01*
X0093113Y0180426D01*
X0093552Y0179364D01*
X0094364Y0178552D01*
X0095426Y0178113D01*
X0096574Y0178113D01*
X0097636Y0178552D01*
X0098448Y0179364D01*
X0098887Y0180426D01*
X0098887Y0181574D01*
X0098448Y0182636D01*
X0097636Y0183448D01*
X0096574Y0183887D01*
X0095054Y0183734D02*
X0025000Y0183734D01*
X0025000Y0182735D02*
X0043490Y0182735D01*
X0042809Y0182453D02*
X0041720Y0181365D01*
X0041131Y0179943D01*
X0041131Y0178404D01*
X0041720Y0176982D01*
X0042809Y0175894D01*
X0044230Y0175305D01*
X0045769Y0175305D01*
X0047191Y0175894D01*
X0048280Y0176982D01*
X0048868Y0178404D01*
X0048868Y0179943D01*
X0048280Y0181365D01*
X0047191Y0182453D01*
X0045769Y0183042D01*
X0044230Y0183042D01*
X0042809Y0182453D01*
X0042092Y0181737D02*
X0025000Y0181737D01*
X0025000Y0180738D02*
X0041461Y0180738D01*
X0041131Y0179739D02*
X0025000Y0179739D01*
X0025000Y0178741D02*
X0041131Y0178741D01*
X0041405Y0177742D02*
X0025000Y0177742D01*
X0025000Y0176744D02*
X0041958Y0176744D01*
X0043167Y0175745D02*
X0025000Y0175745D01*
X0025000Y0174747D02*
X0350894Y0174747D01*
X0350894Y0175745D02*
X0056833Y0175745D01*
X0057191Y0175894D02*
X0058280Y0176982D01*
X0058868Y0178404D01*
X0058868Y0179943D01*
X0058280Y0181365D01*
X0057191Y0182453D01*
X0055769Y0183042D01*
X0054230Y0183042D01*
X0052809Y0182453D01*
X0051720Y0181365D01*
X0051131Y0179943D01*
X0051131Y0178404D01*
X0051720Y0176982D01*
X0052809Y0175894D01*
X0054230Y0175305D01*
X0055769Y0175305D01*
X0057191Y0175894D01*
X0058042Y0176744D02*
X0350894Y0176744D01*
X0350894Y0177742D02*
X0058595Y0177742D01*
X0058868Y0178741D02*
X0094176Y0178741D01*
X0093397Y0179739D02*
X0058868Y0179739D01*
X0058539Y0180738D02*
X0093113Y0180738D01*
X0093180Y0181737D02*
X0057908Y0181737D01*
X0056510Y0182735D02*
X0093652Y0182735D01*
X0098348Y0182735D02*
X0121652Y0182735D01*
X0121180Y0181737D02*
X0098820Y0181737D01*
X0098887Y0180738D02*
X0121113Y0180738D01*
X0121397Y0179739D02*
X0098603Y0179739D01*
X0097824Y0178741D02*
X0122176Y0178741D01*
X0125824Y0178741D02*
X0252616Y0178741D01*
X0252926Y0178613D02*
X0254074Y0178613D01*
X0255136Y0179052D01*
X0255948Y0179864D01*
X0256387Y0180926D01*
X0256387Y0182074D01*
X0255948Y0183136D01*
X0255136Y0183948D01*
X0254074Y0184387D01*
X0252926Y0184387D01*
X0251864Y0183948D01*
X0251052Y0183136D01*
X0250613Y0182074D01*
X0250613Y0180926D01*
X0251052Y0179864D01*
X0251864Y0179052D01*
X0252926Y0178613D01*
X0254384Y0178741D02*
X0350894Y0178741D01*
X0350894Y0179739D02*
X0255823Y0179739D01*
X0256310Y0180738D02*
X0350894Y0180738D01*
X0350894Y0181737D02*
X0256387Y0181737D01*
X0256114Y0182735D02*
X0350894Y0182735D01*
X0350894Y0183734D02*
X0255350Y0183734D01*
X0251650Y0183734D02*
X0187850Y0183734D01*
X0187948Y0183636D02*
X0187136Y0184448D01*
X0186074Y0184887D01*
X0184926Y0184887D01*
X0183864Y0184448D01*
X0183052Y0183636D01*
X0182613Y0182574D01*
X0182613Y0181426D01*
X0183052Y0180364D01*
X0183864Y0179552D01*
X0184926Y0179113D01*
X0186074Y0179113D01*
X0187136Y0179552D01*
X0187948Y0180364D01*
X0188387Y0181426D01*
X0188387Y0182574D01*
X0187948Y0183636D01*
X0188321Y0182735D02*
X0250886Y0182735D01*
X0250613Y0181737D02*
X0188387Y0181737D01*
X0188103Y0180738D02*
X0250690Y0180738D01*
X0251177Y0179739D02*
X0187323Y0179739D01*
X0183677Y0179739D02*
X0126603Y0179739D01*
X0126887Y0180738D02*
X0182897Y0180738D01*
X0182613Y0181737D02*
X0126820Y0181737D01*
X0126348Y0182735D02*
X0147808Y0182735D01*
X0149192Y0182735D02*
X0182679Y0182735D01*
X0183150Y0183734D02*
X0150874Y0183734D01*
X0151526Y0184732D02*
X0184551Y0184732D01*
X0186449Y0184732D02*
X0350894Y0184732D01*
X0350894Y0185731D02*
X0151781Y0185731D01*
X0151749Y0186729D02*
X0350894Y0186729D01*
X0350894Y0173748D02*
X0025000Y0173748D01*
X0025000Y0172750D02*
X0042661Y0172750D01*
X0042763Y0172824D02*
X0042219Y0172429D01*
X0041744Y0171954D01*
X0041349Y0171410D01*
X0041044Y0170812D01*
X0040837Y0170173D01*
X0040755Y0169657D01*
X0044516Y0169657D01*
X0044516Y0168689D01*
X0045484Y0168689D01*
X0045484Y0164928D01*
X0046000Y0165010D01*
X0046639Y0165217D01*
X0047237Y0165522D01*
X0047781Y0165917D01*
X0048256Y0166392D01*
X0048651Y0166936D01*
X0048956Y0167535D01*
X0049163Y0168174D01*
X0049245Y0168689D01*
X0045484Y0168689D01*
X0045484Y0169657D01*
X0049245Y0169657D01*
X0049163Y0170173D01*
X0048956Y0170812D01*
X0048651Y0171410D01*
X0048256Y0171954D01*
X0047781Y0172429D01*
X0047237Y0172824D01*
X0046639Y0173129D01*
X0046000Y0173337D01*
X0045484Y0173418D01*
X0045484Y0169658D01*
X0044516Y0169658D01*
X0044516Y0173418D01*
X0044000Y0173337D01*
X0043361Y0173129D01*
X0042763Y0172824D01*
X0041597Y0171751D02*
X0025000Y0171751D01*
X0025000Y0170753D02*
X0041025Y0170753D01*
X0040770Y0169754D02*
X0025000Y0169754D01*
X0025000Y0168756D02*
X0044516Y0168756D01*
X0044516Y0168689D02*
X0040755Y0168689D01*
X0040837Y0168174D01*
X0041044Y0167535D01*
X0041349Y0166936D01*
X0041744Y0166392D01*
X0042219Y0165917D01*
X0042763Y0165522D01*
X0043361Y0165217D01*
X0044000Y0165010D01*
X0044516Y0164928D01*
X0044516Y0168689D01*
X0044516Y0167757D02*
X0045484Y0167757D01*
X0045484Y0166759D02*
X0044516Y0166759D01*
X0044516Y0165760D02*
X0045484Y0165760D01*
X0047565Y0165760D02*
X0052435Y0165760D01*
X0052219Y0165917D02*
X0052763Y0165522D01*
X0053361Y0165217D01*
X0054000Y0165010D01*
X0054516Y0164928D01*
X0054516Y0168689D01*
X0055484Y0168689D01*
X0055484Y0164928D01*
X0056000Y0165010D01*
X0056639Y0165217D01*
X0057237Y0165522D01*
X0057781Y0165917D01*
X0058256Y0166392D01*
X0058651Y0166936D01*
X0058956Y0167535D01*
X0059163Y0168174D01*
X0059245Y0168689D01*
X0055484Y0168689D01*
X0055484Y0169657D01*
X0059245Y0169657D01*
X0059163Y0170173D01*
X0058956Y0170812D01*
X0058651Y0171410D01*
X0058256Y0171954D01*
X0057781Y0172429D01*
X0057237Y0172824D01*
X0056639Y0173129D01*
X0056000Y0173337D01*
X0055484Y0173418D01*
X0055484Y0169658D01*
X0054516Y0169658D01*
X0054516Y0173418D01*
X0054000Y0173337D01*
X0053361Y0173129D01*
X0052763Y0172824D01*
X0052219Y0172429D01*
X0051744Y0171954D01*
X0051349Y0171410D01*
X0051044Y0170812D01*
X0050837Y0170173D01*
X0050755Y0169657D01*
X0054516Y0169657D01*
X0054516Y0168689D01*
X0050755Y0168689D01*
X0050837Y0168174D01*
X0051044Y0167535D01*
X0051349Y0166936D01*
X0051744Y0166392D01*
X0052219Y0165917D01*
X0051478Y0166759D02*
X0048522Y0166759D01*
X0049028Y0167757D02*
X0050972Y0167757D01*
X0050770Y0169754D02*
X0049230Y0169754D01*
X0048975Y0170753D02*
X0051025Y0170753D01*
X0051597Y0171751D02*
X0048403Y0171751D01*
X0047339Y0172750D02*
X0052661Y0172750D01*
X0054516Y0172750D02*
X0055484Y0172750D01*
X0055484Y0171751D02*
X0054516Y0171751D01*
X0054516Y0170753D02*
X0055484Y0170753D01*
X0055484Y0169754D02*
X0054516Y0169754D01*
X0054516Y0168756D02*
X0045484Y0168756D01*
X0045484Y0169754D02*
X0044516Y0169754D01*
X0044516Y0170753D02*
X0045484Y0170753D01*
X0045484Y0171751D02*
X0044516Y0171751D01*
X0044516Y0172750D02*
X0045484Y0172750D01*
X0046833Y0175745D02*
X0053167Y0175745D01*
X0051958Y0176744D02*
X0048042Y0176744D01*
X0048595Y0177742D02*
X0051405Y0177742D01*
X0051131Y0178741D02*
X0048868Y0178741D01*
X0048868Y0179739D02*
X0051131Y0179739D01*
X0051461Y0180738D02*
X0048539Y0180738D01*
X0047908Y0181737D02*
X0052092Y0181737D01*
X0053490Y0182735D02*
X0046510Y0182735D01*
X0046798Y0185731D02*
X0053202Y0185731D01*
X0052809Y0185894D02*
X0054230Y0185305D01*
X0055769Y0185305D01*
X0057191Y0185894D01*
X0058280Y0186982D01*
X0058868Y0188404D01*
X0058868Y0189943D01*
X0058280Y0191365D01*
X0057191Y0192453D01*
X0055769Y0193042D01*
X0054230Y0193042D01*
X0052809Y0192453D01*
X0051720Y0191365D01*
X0051131Y0189943D01*
X0051131Y0188404D01*
X0051720Y0186982D01*
X0052809Y0185894D01*
X0051973Y0186729D02*
X0048027Y0186729D01*
X0048588Y0187728D02*
X0051412Y0187728D01*
X0051131Y0188726D02*
X0048868Y0188726D01*
X0048868Y0189725D02*
X0051131Y0189725D01*
X0051455Y0190723D02*
X0048545Y0190723D01*
X0047922Y0191722D02*
X0052077Y0191722D01*
X0053454Y0192720D02*
X0046546Y0192720D01*
X0046762Y0195716D02*
X0053238Y0195716D01*
X0051988Y0196714D02*
X0048012Y0196714D01*
X0048582Y0197713D02*
X0051418Y0197713D01*
X0051131Y0198711D02*
X0048868Y0198711D01*
X0048868Y0199710D02*
X0051131Y0199710D01*
X0051449Y0200708D02*
X0048551Y0200708D01*
X0047937Y0201707D02*
X0052063Y0201707D01*
X0053418Y0202705D02*
X0046582Y0202705D01*
X0046726Y0205701D02*
X0053274Y0205701D01*
X0052003Y0206699D02*
X0047997Y0206699D01*
X0048576Y0207698D02*
X0051424Y0207698D01*
X0051131Y0208696D02*
X0048868Y0208696D01*
X0048868Y0209695D02*
X0051131Y0209695D01*
X0051442Y0210693D02*
X0048558Y0210693D01*
X0047952Y0211692D02*
X0052048Y0211692D01*
X0053382Y0212690D02*
X0046618Y0212690D01*
X0047462Y0215686D02*
X0053310Y0215686D01*
X0052018Y0216684D02*
X0048468Y0216684D01*
X0049004Y0217683D02*
X0051430Y0217683D01*
X0051131Y0218681D02*
X0049244Y0218681D01*
X0049241Y0219680D02*
X0051131Y0219680D01*
X0051436Y0220678D02*
X0048999Y0220678D01*
X0048457Y0221677D02*
X0052033Y0221677D01*
X0053346Y0222675D02*
X0047442Y0222675D01*
X0045484Y0222675D02*
X0044516Y0222675D01*
X0044516Y0221677D02*
X0045484Y0221677D01*
X0045484Y0220678D02*
X0044516Y0220678D01*
X0044516Y0219680D02*
X0045484Y0219680D01*
X0045484Y0218681D02*
X0044516Y0218681D01*
X0044516Y0217683D02*
X0045484Y0217683D01*
X0045484Y0216684D02*
X0044516Y0216684D01*
X0044516Y0215686D02*
X0045484Y0215686D01*
X0045484Y0225671D02*
X0044516Y0225671D01*
X0044516Y0226670D02*
X0045484Y0226670D01*
X0045484Y0227668D02*
X0044516Y0227668D01*
X0044516Y0228667D02*
X0045484Y0228667D01*
X0045484Y0229665D02*
X0044516Y0229665D01*
X0044516Y0230664D02*
X0045484Y0230664D01*
X0045484Y0231662D02*
X0044516Y0231662D01*
X0044516Y0232661D02*
X0045484Y0232661D01*
X0043454Y0255626D02*
X0025000Y0255626D01*
X0025000Y0254628D02*
X0181443Y0254628D01*
X0185215Y0258622D02*
X0350894Y0258622D01*
X0350894Y0259620D02*
X0206204Y0259620D01*
X0207370Y0262616D02*
X0210301Y0262616D01*
X0209741Y0263614D02*
X0206957Y0263614D01*
X0205737Y0264613D02*
X0209613Y0264613D01*
X0214699Y0262616D02*
X0219301Y0262616D01*
X0218742Y0263614D02*
X0218698Y0263614D01*
X0215302Y0263614D02*
X0215258Y0263614D01*
X0203263Y0264613D02*
X0198737Y0264613D01*
X0199957Y0263614D02*
X0202043Y0263614D01*
X0201630Y0262616D02*
X0200370Y0262616D01*
X0200387Y0261617D02*
X0201613Y0261617D01*
X0201947Y0260619D02*
X0200053Y0260619D01*
X0199204Y0259620D02*
X0202796Y0259620D01*
X0190801Y0262616D02*
X0186887Y0262616D01*
X0186871Y0263614D02*
X0190241Y0263614D01*
X0190113Y0264613D02*
X0186457Y0264613D01*
X0187050Y0265611D02*
X0190335Y0265611D01*
X0186453Y0257623D02*
X0350894Y0257623D01*
X0350894Y0256625D02*
X0186866Y0256625D01*
X0185140Y0237653D02*
X0254860Y0237653D01*
X0253571Y0236655D02*
X0186429Y0236655D01*
X0186854Y0235656D02*
X0253146Y0235656D01*
X0253113Y0234658D02*
X0186887Y0234658D01*
X0186570Y0233659D02*
X0253430Y0233659D01*
X0254256Y0232661D02*
X0185744Y0232661D01*
X0172082Y0213689D02*
X0253605Y0213689D01*
X0253161Y0212690D02*
X0171274Y0212690D01*
X0187333Y0201707D02*
X0254123Y0201707D01*
X0253375Y0200708D02*
X0187387Y0200708D01*
X0187091Y0199710D02*
X0253113Y0199710D01*
X0253201Y0198711D02*
X0210000Y0198711D01*
X0208000Y0198711D02*
X0186872Y0198711D01*
X0189905Y0192720D02*
X0178478Y0192720D01*
X0179862Y0191722D02*
X0190695Y0191722D01*
X0176522Y0192720D02*
X0056546Y0192720D01*
X0057922Y0191722D02*
X0175138Y0191722D01*
X0174674Y0190723D02*
X0058545Y0190723D01*
X0058868Y0189725D02*
X0174613Y0189725D01*
X0174902Y0188726D02*
X0150414Y0188726D01*
X0151336Y0187728D02*
X0175689Y0187728D01*
X0146586Y0188726D02*
X0058868Y0188726D01*
X0058588Y0187728D02*
X0145664Y0187728D01*
X0145251Y0186729D02*
X0058027Y0186729D01*
X0056798Y0185731D02*
X0145219Y0185731D01*
X0122217Y0206699D02*
X0097783Y0206699D01*
X0098586Y0207698D02*
X0121414Y0207698D01*
X0121113Y0208696D02*
X0098887Y0208696D01*
X0098837Y0209695D02*
X0121163Y0209695D01*
X0121610Y0210693D02*
X0098390Y0210693D01*
X0097046Y0211692D02*
X0122954Y0211692D01*
X0125046Y0211692D02*
X0253113Y0211692D01*
X0253416Y0210693D02*
X0126390Y0210693D01*
X0147281Y0239650D02*
X0323301Y0239650D01*
X0323219Y0240649D02*
X0147281Y0240649D01*
X0146869Y0241647D02*
X0291813Y0241647D01*
X0295187Y0241647D02*
X0323424Y0241647D01*
X0324006Y0242646D02*
X0296283Y0242646D01*
X0296697Y0243644D02*
X0325517Y0243644D01*
X0327483Y0243644D02*
X0350894Y0243644D01*
X0350894Y0242646D02*
X0328994Y0242646D01*
X0329576Y0241647D02*
X0350894Y0241647D01*
X0350894Y0240649D02*
X0329781Y0240649D01*
X0329699Y0239650D02*
X0350894Y0239650D01*
X0350894Y0238652D02*
X0329286Y0238652D01*
X0328201Y0237653D02*
X0350894Y0237653D01*
X0350894Y0244643D02*
X0296781Y0244643D01*
X0296579Y0245641D02*
X0350894Y0245641D01*
X0350894Y0246640D02*
X0296000Y0246640D01*
X0294497Y0247638D02*
X0350894Y0247638D01*
X0350894Y0250634D02*
X0256625Y0250634D01*
X0258216Y0251632D02*
X0350894Y0251632D01*
X0350894Y0252631D02*
X0258765Y0252631D01*
X0258887Y0253629D02*
X0350894Y0253629D01*
X0350894Y0254628D02*
X0258658Y0254628D01*
X0257957Y0255626D02*
X0350894Y0255626D01*
X0350894Y0268607D02*
X0265048Y0268607D01*
X0265387Y0269605D02*
X0350894Y0269605D01*
X0350894Y0270604D02*
X0265375Y0270604D01*
X0264962Y0271603D02*
X0350894Y0271603D01*
X0350894Y0272601D02*
X0263766Y0272601D01*
X0261234Y0272601D02*
X0258766Y0272601D01*
X0259962Y0271603D02*
X0260038Y0271603D01*
X0350894Y0275597D02*
X0056474Y0275597D01*
X0057893Y0276595D02*
X0350894Y0276595D01*
X0350894Y0172750D02*
X0057339Y0172750D01*
X0058403Y0171751D02*
X0350894Y0171751D01*
X0350894Y0170753D02*
X0058975Y0170753D01*
X0059230Y0169754D02*
X0350894Y0169754D01*
X0350894Y0168756D02*
X0055484Y0168756D01*
X0055484Y0167757D02*
X0054516Y0167757D01*
X0054516Y0166759D02*
X0055484Y0166759D01*
X0055484Y0165760D02*
X0054516Y0165760D01*
X0054230Y0163042D02*
X0052809Y0162453D01*
X0051720Y0161365D01*
X0051131Y0159943D01*
X0051131Y0158404D01*
X0051720Y0156982D01*
X0052809Y0155894D01*
X0054230Y0155305D01*
X0055769Y0155305D01*
X0057191Y0155894D01*
X0058280Y0156982D01*
X0058868Y0158404D01*
X0058868Y0159943D01*
X0058280Y0161365D01*
X0057191Y0162453D01*
X0055769Y0163042D01*
X0054230Y0163042D01*
X0053562Y0162765D02*
X0046438Y0162765D01*
X0045769Y0163042D02*
X0044230Y0163042D01*
X0042809Y0162453D01*
X0041720Y0161365D01*
X0041131Y0159943D01*
X0041131Y0158404D01*
X0041720Y0156982D01*
X0042809Y0155894D01*
X0044230Y0155305D01*
X0045769Y0155305D01*
X0047191Y0155894D01*
X0048280Y0156982D01*
X0048868Y0158404D01*
X0048868Y0159943D01*
X0048280Y0161365D01*
X0047191Y0162453D01*
X0045769Y0163042D01*
X0043562Y0162765D02*
X0025000Y0162765D01*
X0025000Y0163763D02*
X0350894Y0163763D01*
X0350894Y0162765D02*
X0056438Y0162765D01*
X0057878Y0161766D02*
X0350894Y0161766D01*
X0350894Y0160768D02*
X0058527Y0160768D01*
X0058868Y0159769D02*
X0350894Y0159769D01*
X0350894Y0158771D02*
X0350286Y0158771D01*
X0348240Y0158771D02*
X0347665Y0158771D01*
X0347665Y0157772D02*
X0348240Y0157772D01*
X0348240Y0156774D02*
X0347665Y0156774D01*
X0347665Y0155775D02*
X0341428Y0155775D01*
X0341428Y0156360D02*
X0340899Y0157638D01*
X0339921Y0158615D01*
X0338644Y0159144D01*
X0337262Y0159144D01*
X0335984Y0158615D01*
X0335007Y0157638D01*
X0334478Y0156360D01*
X0334478Y0154978D01*
X0335007Y0153701D01*
X0335984Y0152723D01*
X0337262Y0152194D01*
X0338644Y0152194D01*
X0339921Y0152723D01*
X0340899Y0153701D01*
X0341428Y0154978D01*
X0341428Y0156360D01*
X0341256Y0156774D02*
X0344222Y0156774D01*
X0344698Y0157772D02*
X0340764Y0157772D01*
X0339545Y0158771D02*
X0345620Y0158771D01*
X0344180Y0154777D02*
X0341344Y0154777D01*
X0340931Y0153778D02*
X0344556Y0153778D01*
X0345363Y0152780D02*
X0339977Y0152780D01*
X0338644Y0149144D02*
X0337262Y0149144D01*
X0335984Y0148615D01*
X0335007Y0147638D01*
X0334478Y0146360D01*
X0334478Y0144978D01*
X0335007Y0143701D01*
X0335984Y0142723D01*
X0337262Y0142194D01*
X0338644Y0142194D01*
X0339921Y0142723D01*
X0340899Y0143701D01*
X0341428Y0144978D01*
X0341428Y0146360D01*
X0340899Y0147638D01*
X0339921Y0148615D01*
X0338644Y0149144D01*
X0339509Y0148786D02*
X0346396Y0148786D01*
X0345156Y0147787D02*
X0340749Y0147787D01*
X0341250Y0146789D02*
X0344655Y0146789D01*
X0344478Y0145790D02*
X0341428Y0145790D01*
X0341350Y0144792D02*
X0344555Y0144792D01*
X0344969Y0143793D02*
X0340937Y0143793D01*
X0339992Y0142795D02*
X0345913Y0142795D01*
X0349992Y0142795D02*
X0350894Y0142795D01*
X0350894Y0141796D02*
X0318342Y0141796D01*
X0318334Y0141794D02*
X0319083Y0141943D01*
X0319788Y0142235D01*
X0320423Y0142660D01*
X0320963Y0143199D01*
X0321387Y0143834D01*
X0321679Y0144539D01*
X0321828Y0145288D01*
X0321828Y0145382D01*
X0318240Y0145382D01*
X0318240Y0141794D01*
X0318334Y0141794D01*
X0318240Y0141796D02*
X0317665Y0141796D01*
X0317665Y0141794D02*
X0317665Y0145382D01*
X0314078Y0145382D01*
X0314078Y0145288D01*
X0314227Y0144539D01*
X0314519Y0143834D01*
X0314943Y0143199D01*
X0315483Y0142660D01*
X0316117Y0142235D01*
X0316823Y0141943D01*
X0317571Y0141794D01*
X0317665Y0141794D01*
X0317563Y0141796D02*
X0298342Y0141796D01*
X0298334Y0141794D02*
X0299083Y0141943D01*
X0299788Y0142235D01*
X0300423Y0142660D01*
X0300963Y0143199D01*
X0301387Y0143834D01*
X0301679Y0144539D01*
X0301828Y0145288D01*
X0301828Y0145382D01*
X0298240Y0145382D01*
X0298240Y0141794D01*
X0298334Y0141794D01*
X0298240Y0141796D02*
X0297665Y0141796D01*
X0297665Y0141794D02*
X0297665Y0145382D01*
X0294078Y0145382D01*
X0294078Y0145288D01*
X0294227Y0144539D01*
X0294519Y0143834D01*
X0294943Y0143199D01*
X0295483Y0142660D01*
X0296117Y0142235D01*
X0296823Y0141943D01*
X0297571Y0141794D01*
X0297665Y0141794D01*
X0297563Y0141796D02*
X0248342Y0141796D01*
X0248334Y0141794D02*
X0249083Y0141943D01*
X0249788Y0142235D01*
X0250423Y0142660D01*
X0250962Y0143199D01*
X0251387Y0143834D01*
X0251679Y0144539D01*
X0251828Y0145288D01*
X0251828Y0145382D01*
X0248240Y0145382D01*
X0248240Y0141794D01*
X0248334Y0141794D01*
X0248240Y0141796D02*
X0247665Y0141796D01*
X0247665Y0141794D02*
X0247665Y0145382D01*
X0244078Y0145382D01*
X0244078Y0145288D01*
X0244227Y0144539D01*
X0244519Y0143834D01*
X0244943Y0143199D01*
X0245483Y0142660D01*
X0246117Y0142235D01*
X0246823Y0141943D01*
X0247571Y0141794D01*
X0247665Y0141794D01*
X0247563Y0141796D02*
X0218342Y0141796D01*
X0218334Y0141794D02*
X0219083Y0141943D01*
X0219788Y0142235D01*
X0220423Y0142660D01*
X0220962Y0143199D01*
X0221387Y0143834D01*
X0221679Y0144539D01*
X0221828Y0145288D01*
X0221828Y0145382D01*
X0218240Y0145382D01*
X0218240Y0141794D01*
X0218334Y0141794D01*
X0218240Y0141796D02*
X0217665Y0141796D01*
X0217665Y0141794D02*
X0217665Y0145382D01*
X0214078Y0145382D01*
X0214078Y0145288D01*
X0214227Y0144539D01*
X0214519Y0143834D01*
X0214943Y0143199D01*
X0215483Y0142660D01*
X0216117Y0142235D01*
X0216823Y0141943D01*
X0217571Y0141794D01*
X0217665Y0141794D01*
X0217563Y0141796D02*
X0178342Y0141796D01*
X0178334Y0141794D02*
X0179083Y0141943D01*
X0179788Y0142235D01*
X0180423Y0142660D01*
X0180962Y0143199D01*
X0181387Y0143834D01*
X0181679Y0144539D01*
X0181828Y0145288D01*
X0181828Y0145382D01*
X0178240Y0145382D01*
X0178240Y0141794D01*
X0178334Y0141794D01*
X0178240Y0141796D02*
X0177665Y0141796D01*
X0177665Y0141794D02*
X0177665Y0145382D01*
X0174078Y0145382D01*
X0174078Y0145288D01*
X0174227Y0144539D01*
X0174519Y0143834D01*
X0174943Y0143199D01*
X0175483Y0142660D01*
X0176117Y0142235D01*
X0176823Y0141943D01*
X0177571Y0141794D01*
X0177665Y0141794D01*
X0177563Y0141796D02*
X0057848Y0141796D01*
X0058280Y0141365D02*
X0057191Y0142453D01*
X0055769Y0143042D01*
X0054230Y0143042D01*
X0052809Y0142453D01*
X0051720Y0141365D01*
X0051131Y0139943D01*
X0051131Y0138404D01*
X0051720Y0136982D01*
X0052809Y0135894D01*
X0054230Y0135305D01*
X0055769Y0135305D01*
X0057191Y0135894D01*
X0058280Y0136982D01*
X0058868Y0138404D01*
X0058868Y0139943D01*
X0058280Y0141365D01*
X0058514Y0140798D02*
X0350894Y0140798D01*
X0350894Y0139799D02*
X0058868Y0139799D01*
X0058868Y0138801D02*
X0350894Y0138801D01*
X0350894Y0137802D02*
X0330780Y0137802D01*
X0330574Y0137887D02*
X0329426Y0137887D01*
X0328364Y0137448D01*
X0327552Y0136636D01*
X0327113Y0135574D01*
X0327113Y0134426D01*
X0327552Y0133364D01*
X0328364Y0132552D01*
X0329426Y0132113D01*
X0330574Y0132113D01*
X0331636Y0132552D01*
X0332448Y0133364D01*
X0332887Y0134426D01*
X0332887Y0135574D01*
X0332448Y0136636D01*
X0331636Y0137448D01*
X0330574Y0137887D01*
X0329220Y0137802D02*
X0058619Y0137802D01*
X0058101Y0136803D02*
X0327720Y0136803D01*
X0327208Y0135805D02*
X0056977Y0135805D01*
X0055769Y0133042D02*
X0054230Y0133042D01*
X0052809Y0132453D01*
X0051720Y0131365D01*
X0051131Y0129943D01*
X0051131Y0128404D01*
X0051720Y0126982D01*
X0052809Y0125894D01*
X0054230Y0125305D01*
X0055769Y0125305D01*
X0057191Y0125894D01*
X0058280Y0126982D01*
X0058868Y0128404D01*
X0058868Y0129943D01*
X0058280Y0131365D01*
X0057191Y0132453D01*
X0055769Y0133042D01*
X0056330Y0132809D02*
X0328107Y0132809D01*
X0327368Y0133808D02*
X0025000Y0133808D01*
X0025000Y0134806D02*
X0327113Y0134806D01*
X0331893Y0132809D02*
X0350894Y0132809D01*
X0350894Y0131811D02*
X0057833Y0131811D01*
X0058508Y0130812D02*
X0350894Y0130812D01*
X0350894Y0129814D02*
X0058868Y0129814D01*
X0058868Y0128815D02*
X0350894Y0128815D01*
X0350894Y0127817D02*
X0058625Y0127817D01*
X0058116Y0126818D02*
X0350894Y0126818D01*
X0350894Y0125820D02*
X0057013Y0125820D01*
X0055769Y0123042D02*
X0054230Y0123042D01*
X0052809Y0122453D01*
X0051720Y0121365D01*
X0051131Y0119943D01*
X0051131Y0118404D01*
X0051720Y0116982D01*
X0052809Y0115894D01*
X0054230Y0115305D01*
X0055769Y0115305D01*
X0057191Y0115894D01*
X0058280Y0116982D01*
X0058868Y0118404D01*
X0058868Y0119943D01*
X0058280Y0121365D01*
X0057191Y0122453D01*
X0055769Y0123042D01*
X0056294Y0122824D02*
X0350894Y0122824D01*
X0350894Y0121826D02*
X0057818Y0121826D01*
X0058502Y0120827D02*
X0308187Y0120827D01*
X0308641Y0121282D02*
X0307718Y0120359D01*
X0307219Y0119153D01*
X0307219Y0117847D01*
X0307718Y0116641D01*
X0308641Y0115718D01*
X0309847Y0115219D01*
X0311153Y0115219D01*
X0312359Y0115718D01*
X0313282Y0116641D01*
X0313781Y0117847D01*
X0313781Y0119153D01*
X0313282Y0120359D01*
X0312359Y0121282D01*
X0311153Y0121781D01*
X0309847Y0121781D01*
X0308641Y0121282D01*
X0307499Y0119829D02*
X0058868Y0119829D01*
X0058868Y0118830D02*
X0307219Y0118830D01*
X0307225Y0117832D02*
X0058632Y0117832D01*
X0058131Y0116833D02*
X0095295Y0116833D01*
X0095426Y0116887D02*
X0094364Y0116448D01*
X0093552Y0115636D01*
X0093113Y0114574D01*
X0093113Y0113426D01*
X0093552Y0112364D01*
X0094364Y0111552D01*
X0095426Y0111113D01*
X0096574Y0111113D01*
X0097636Y0111552D01*
X0098448Y0112364D01*
X0098887Y0113426D01*
X0098887Y0114574D01*
X0098448Y0115636D01*
X0097636Y0116448D01*
X0096574Y0116887D01*
X0095426Y0116887D01*
X0096705Y0116833D02*
X0123295Y0116833D01*
X0123426Y0116887D02*
X0122364Y0116448D01*
X0121552Y0115636D01*
X0121113Y0114574D01*
X0121113Y0113426D01*
X0121552Y0112364D01*
X0122364Y0111552D01*
X0123426Y0111113D01*
X0124574Y0111113D01*
X0125636Y0111552D01*
X0126448Y0112364D01*
X0126887Y0113426D01*
X0126887Y0114574D01*
X0126448Y0115636D01*
X0125636Y0116448D01*
X0124574Y0116887D01*
X0123426Y0116887D01*
X0124705Y0116833D02*
X0307639Y0116833D01*
X0308525Y0115835D02*
X0126249Y0115835D01*
X0126779Y0114836D02*
X0339002Y0114836D01*
X0339218Y0115359D02*
X0338719Y0114153D01*
X0338719Y0112847D01*
X0339218Y0111641D01*
X0340141Y0110718D01*
X0341347Y0110219D01*
X0342653Y0110219D01*
X0343859Y0110718D01*
X0344782Y0111641D01*
X0345281Y0112847D01*
X0345281Y0114153D01*
X0344782Y0115359D01*
X0343859Y0116282D01*
X0342653Y0116781D01*
X0341347Y0116781D01*
X0340141Y0116282D01*
X0339218Y0115359D01*
X0339695Y0115835D02*
X0312475Y0115835D01*
X0313361Y0116833D02*
X0350894Y0116833D01*
X0350894Y0115835D02*
X0344305Y0115835D01*
X0344998Y0114836D02*
X0350894Y0114836D01*
X0350894Y0113838D02*
X0345281Y0113838D01*
X0345278Y0112839D02*
X0350894Y0112839D01*
X0350894Y0111841D02*
X0344864Y0111841D01*
X0343982Y0110842D02*
X0350894Y0110842D01*
X0350894Y0109844D02*
X0058868Y0109844D01*
X0058868Y0109943D02*
X0058280Y0111365D01*
X0057191Y0112453D01*
X0055769Y0113042D01*
X0054230Y0113042D01*
X0052809Y0112453D01*
X0051720Y0111365D01*
X0051131Y0109943D01*
X0051131Y0108404D01*
X0051720Y0106982D01*
X0052809Y0105894D01*
X0054230Y0105305D01*
X0055769Y0105305D01*
X0057191Y0105894D01*
X0058280Y0106982D01*
X0058868Y0108404D01*
X0058868Y0109943D01*
X0058496Y0110842D02*
X0340018Y0110842D01*
X0339136Y0111841D02*
X0125924Y0111841D01*
X0126644Y0112839D02*
X0338722Y0112839D01*
X0338719Y0113838D02*
X0126887Y0113838D01*
X0122076Y0111841D02*
X0097924Y0111841D01*
X0098644Y0112839D02*
X0121355Y0112839D01*
X0121113Y0113838D02*
X0098887Y0113838D01*
X0098779Y0114836D02*
X0121221Y0114836D01*
X0121751Y0115835D02*
X0098249Y0115835D01*
X0093751Y0115835D02*
X0057049Y0115835D01*
X0056258Y0112839D02*
X0093355Y0112839D01*
X0093113Y0113838D02*
X0025000Y0113838D01*
X0025000Y0114836D02*
X0093221Y0114836D01*
X0094076Y0111841D02*
X0057803Y0111841D01*
X0058868Y0108845D02*
X0350894Y0108845D01*
X0350894Y0107847D02*
X0151737Y0107847D01*
X0151636Y0107948D02*
X0150574Y0108387D01*
X0149426Y0108387D01*
X0148364Y0107948D01*
X0147552Y0107136D01*
X0147113Y0106074D01*
X0147113Y0104926D01*
X0147552Y0103864D01*
X0148364Y0103052D01*
X0149426Y0102613D01*
X0150574Y0102613D01*
X0151636Y0103052D01*
X0152448Y0103864D01*
X0152887Y0104926D01*
X0152887Y0106074D01*
X0152448Y0107136D01*
X0151636Y0107948D01*
X0152567Y0106848D02*
X0350894Y0106848D01*
X0350894Y0105850D02*
X0152887Y0105850D01*
X0152857Y0104851D02*
X0350894Y0104851D01*
X0350894Y0103853D02*
X0152436Y0103853D01*
X0151157Y0102854D02*
X0350894Y0102854D01*
X0350894Y0101856D02*
X0057789Y0101856D01*
X0058280Y0101365D02*
X0057191Y0102453D01*
X0055769Y0103042D01*
X0054230Y0103042D01*
X0052809Y0102453D01*
X0051720Y0101365D01*
X0051131Y0099943D01*
X0051131Y0098404D01*
X0051720Y0096982D01*
X0052809Y0095894D01*
X0054230Y0095305D01*
X0055769Y0095305D01*
X0057191Y0095894D01*
X0058280Y0096982D01*
X0058868Y0098404D01*
X0058868Y0099943D01*
X0058280Y0101365D01*
X0058490Y0100857D02*
X0350894Y0100857D01*
X0350894Y0099859D02*
X0058868Y0099859D01*
X0058868Y0098860D02*
X0350894Y0098860D01*
X0350894Y0097862D02*
X0058644Y0097862D01*
X0058161Y0096863D02*
X0350894Y0096863D01*
X0350894Y0095865D02*
X0057121Y0095865D01*
X0055769Y0093042D02*
X0054230Y0093042D01*
X0052809Y0092453D01*
X0051720Y0091365D01*
X0051131Y0089943D01*
X0051131Y0088404D01*
X0051720Y0086982D01*
X0052809Y0085894D01*
X0054230Y0085305D01*
X0055769Y0085305D01*
X0057191Y0085894D01*
X0058280Y0086982D01*
X0058868Y0088404D01*
X0058868Y0089943D01*
X0058280Y0091365D01*
X0057191Y0092453D01*
X0055769Y0093042D01*
X0056186Y0092869D02*
X0350894Y0092869D01*
X0350894Y0093868D02*
X0025000Y0093868D01*
X0025000Y0094866D02*
X0350894Y0094866D01*
X0350894Y0091870D02*
X0138615Y0091870D01*
X0138574Y0091887D02*
X0137426Y0091887D01*
X0136364Y0091448D01*
X0135552Y0090636D01*
X0135113Y0089574D01*
X0135113Y0088426D01*
X0135552Y0087364D01*
X0136364Y0086552D01*
X0137426Y0086113D01*
X0138574Y0086113D01*
X0139636Y0086552D01*
X0140448Y0087364D01*
X0140887Y0088426D01*
X0140887Y0089574D01*
X0140448Y0090636D01*
X0139636Y0091448D01*
X0138574Y0091887D01*
X0137385Y0091870D02*
X0057774Y0091870D01*
X0058484Y0090872D02*
X0135789Y0090872D01*
X0135237Y0089873D02*
X0058868Y0089873D01*
X0058868Y0088875D02*
X0095396Y0088875D01*
X0095426Y0088887D02*
X0094364Y0088448D01*
X0093552Y0087636D01*
X0093113Y0086574D01*
X0093113Y0085426D01*
X0093552Y0084364D01*
X0094364Y0083552D01*
X0095426Y0083113D01*
X0096574Y0083113D01*
X0097636Y0083552D01*
X0098448Y0084364D01*
X0098887Y0085426D01*
X0098887Y0086574D01*
X0098448Y0087636D01*
X0097636Y0088448D01*
X0096574Y0088887D01*
X0095426Y0088887D01*
X0096604Y0088875D02*
X0123396Y0088875D01*
X0123426Y0088887D02*
X0122364Y0088448D01*
X0121552Y0087636D01*
X0121113Y0086574D01*
X0121113Y0085426D01*
X0121552Y0084364D01*
X0122364Y0083552D01*
X0123426Y0083113D01*
X0124574Y0083113D01*
X0125636Y0083552D01*
X0126448Y0084364D01*
X0126887Y0085426D01*
X0126887Y0086574D01*
X0126448Y0087636D01*
X0125636Y0088448D01*
X0124574Y0088887D01*
X0123426Y0088887D01*
X0124604Y0088875D02*
X0135113Y0088875D01*
X0135340Y0087876D02*
X0126207Y0087876D01*
X0126762Y0086878D02*
X0136039Y0086878D01*
X0139961Y0086878D02*
X0161738Y0086878D01*
X0162141Y0087282D02*
X0161218Y0086359D01*
X0160719Y0085153D01*
X0160719Y0083847D01*
X0161218Y0082641D01*
X0162141Y0081718D01*
X0163347Y0081219D01*
X0164653Y0081219D01*
X0165859Y0081718D01*
X0166500Y0082360D01*
X0167141Y0081718D01*
X0168347Y0081219D01*
X0169653Y0081219D01*
X0170859Y0081718D01*
X0171500Y0082360D01*
X0172141Y0081718D01*
X0173347Y0081219D01*
X0174653Y0081219D01*
X0175859Y0081718D01*
X0176782Y0082641D01*
X0177281Y0083847D01*
X0177281Y0085153D01*
X0176782Y0086359D01*
X0175859Y0087282D01*
X0174653Y0087781D01*
X0173347Y0087781D01*
X0172141Y0087282D01*
X0171500Y0086640D01*
X0170859Y0087282D01*
X0169653Y0087781D01*
X0168347Y0087781D01*
X0167141Y0087282D01*
X0166500Y0086640D01*
X0165859Y0087282D01*
X0164653Y0087781D01*
X0163347Y0087781D01*
X0162141Y0087282D01*
X0161020Y0085879D02*
X0126887Y0085879D01*
X0126662Y0084881D02*
X0160719Y0084881D01*
X0160719Y0083882D02*
X0125966Y0083882D01*
X0122034Y0083882D02*
X0097966Y0083882D01*
X0098662Y0084881D02*
X0121338Y0084881D01*
X0121113Y0085879D02*
X0098887Y0085879D01*
X0098762Y0086878D02*
X0121238Y0086878D01*
X0121793Y0087876D02*
X0098207Y0087876D01*
X0093793Y0087876D02*
X0058650Y0087876D01*
X0058176Y0086878D02*
X0093238Y0086878D01*
X0093113Y0085879D02*
X0057157Y0085879D01*
X0056000Y0083337D02*
X0055484Y0083418D01*
X0055484Y0079658D01*
X0054516Y0079658D01*
X0054516Y0083418D01*
X0054000Y0083337D01*
X0053361Y0083129D01*
X0052763Y0082824D01*
X0052219Y0082429D01*
X0051744Y0081954D01*
X0051349Y0081410D01*
X0051044Y0080812D01*
X0050837Y0080173D01*
X0050755Y0079657D01*
X0054516Y0079657D01*
X0054516Y0078689D01*
X0055484Y0078689D01*
X0055484Y0074928D01*
X0056000Y0075010D01*
X0056639Y0075217D01*
X0057237Y0075522D01*
X0057781Y0075917D01*
X0058256Y0076392D01*
X0058651Y0076936D01*
X0058956Y0077535D01*
X0059163Y0078174D01*
X0059245Y0078689D01*
X0055484Y0078689D01*
X0055484Y0079657D01*
X0059245Y0079657D01*
X0059163Y0080173D01*
X0058956Y0080812D01*
X0058651Y0081410D01*
X0058256Y0081954D01*
X0057781Y0082429D01*
X0057237Y0082824D01*
X0056639Y0083129D01*
X0056000Y0083337D01*
X0055484Y0082884D02*
X0054516Y0082884D01*
X0054516Y0081885D02*
X0055484Y0081885D01*
X0055484Y0080887D02*
X0054516Y0080887D01*
X0054516Y0079888D02*
X0055484Y0079888D01*
X0055484Y0078890D02*
X0233750Y0078890D01*
X0233860Y0079000D02*
X0233218Y0078359D01*
X0232719Y0077153D01*
X0232719Y0075847D01*
X0233218Y0074641D01*
X0234141Y0073718D01*
X0235347Y0073219D01*
X0236653Y0073219D01*
X0237859Y0073718D01*
X0238782Y0074641D01*
X0239281Y0075847D01*
X0239281Y0077153D01*
X0238782Y0078359D01*
X0238140Y0079000D01*
X0238782Y0079641D01*
X0239281Y0080847D01*
X0239281Y0082153D01*
X0238782Y0083359D01*
X0238140Y0084000D01*
X0238782Y0084641D01*
X0239281Y0085847D01*
X0239281Y0087153D01*
X0238782Y0088359D01*
X0237859Y0089282D01*
X0236653Y0089781D01*
X0235347Y0089781D01*
X0234141Y0089282D01*
X0233218Y0088359D01*
X0232719Y0087153D01*
X0232719Y0085847D01*
X0233218Y0084641D01*
X0233860Y0084000D01*
X0233218Y0083359D01*
X0232719Y0082153D01*
X0232719Y0080847D01*
X0233218Y0079641D01*
X0233860Y0079000D01*
X0233116Y0079888D02*
X0059208Y0079888D01*
X0058918Y0080887D02*
X0232719Y0080887D01*
X0232719Y0081885D02*
X0176026Y0081885D01*
X0176882Y0082884D02*
X0233022Y0082884D01*
X0233742Y0083882D02*
X0177281Y0083882D01*
X0177281Y0084881D02*
X0233119Y0084881D01*
X0232719Y0085879D02*
X0176980Y0085879D01*
X0176262Y0086878D02*
X0232719Y0086878D01*
X0233019Y0087876D02*
X0140660Y0087876D01*
X0140887Y0088875D02*
X0233735Y0088875D01*
X0238265Y0088875D02*
X0350894Y0088875D01*
X0350894Y0089873D02*
X0140763Y0089873D01*
X0140211Y0090872D02*
X0350894Y0090872D01*
X0350894Y0087876D02*
X0238981Y0087876D01*
X0239281Y0086878D02*
X0350894Y0086878D01*
X0350894Y0085879D02*
X0239281Y0085879D01*
X0238881Y0084881D02*
X0251241Y0084881D01*
X0251641Y0085282D02*
X0250718Y0084359D01*
X0250219Y0083153D01*
X0250219Y0081847D01*
X0250718Y0080641D01*
X0251641Y0079718D01*
X0252847Y0079219D01*
X0254153Y0079219D01*
X0255359Y0079718D01*
X0256282Y0080641D01*
X0256781Y0081847D01*
X0256781Y0083153D01*
X0256282Y0084359D01*
X0255359Y0085282D01*
X0254153Y0085781D01*
X0252847Y0085781D01*
X0251641Y0085282D01*
X0250521Y0083882D02*
X0238258Y0083882D01*
X0238978Y0082884D02*
X0250219Y0082884D01*
X0250219Y0081885D02*
X0239281Y0081885D01*
X0239281Y0080887D02*
X0250617Y0080887D01*
X0251471Y0079888D02*
X0238884Y0079888D01*
X0238250Y0078890D02*
X0350894Y0078890D01*
X0350894Y0079888D02*
X0348529Y0079888D01*
X0348359Y0079718D02*
X0349282Y0080641D01*
X0349781Y0081847D01*
X0349781Y0083153D01*
X0349282Y0084359D01*
X0348359Y0085282D01*
X0347153Y0085781D01*
X0345847Y0085781D01*
X0344641Y0085282D01*
X0343718Y0084359D01*
X0343219Y0083153D01*
X0343219Y0081847D01*
X0343718Y0080641D01*
X0344641Y0079718D01*
X0345847Y0079219D01*
X0347153Y0079219D01*
X0348359Y0079718D01*
X0349383Y0080887D02*
X0350894Y0080887D01*
X0350894Y0081885D02*
X0349781Y0081885D01*
X0349781Y0082884D02*
X0350894Y0082884D01*
X0350894Y0083882D02*
X0349479Y0083882D01*
X0348759Y0084881D02*
X0350894Y0084881D01*
X0344241Y0084881D02*
X0322259Y0084881D01*
X0321859Y0085282D02*
X0320653Y0085781D01*
X0319347Y0085781D01*
X0318141Y0085282D01*
X0317218Y0084359D01*
X0316719Y0083153D01*
X0316719Y0081847D01*
X0317218Y0080641D01*
X0318141Y0079718D01*
X0319347Y0079219D01*
X0320653Y0079219D01*
X0321859Y0079718D01*
X0322782Y0080641D01*
X0323281Y0081847D01*
X0323281Y0083153D01*
X0322782Y0084359D01*
X0321859Y0085282D01*
X0322979Y0083882D02*
X0343521Y0083882D01*
X0343219Y0082884D02*
X0323281Y0082884D01*
X0323281Y0081885D02*
X0343219Y0081885D01*
X0343617Y0080887D02*
X0322883Y0080887D01*
X0322029Y0079888D02*
X0344471Y0079888D01*
X0350894Y0077891D02*
X0238975Y0077891D01*
X0239281Y0076893D02*
X0350894Y0076893D01*
X0350894Y0075894D02*
X0239281Y0075894D01*
X0238887Y0074896D02*
X0350894Y0074896D01*
X0350894Y0073897D02*
X0238037Y0073897D01*
X0233963Y0073897D02*
X0025000Y0073897D01*
X0025000Y0072899D02*
X0043885Y0072899D01*
X0044230Y0073042D02*
X0042809Y0072453D01*
X0041720Y0071365D01*
X0041131Y0069943D01*
X0041131Y0068404D01*
X0041720Y0066982D01*
X0042809Y0065894D01*
X0044230Y0065305D01*
X0045769Y0065305D01*
X0047191Y0065894D01*
X0048280Y0066982D01*
X0048868Y0068404D01*
X0048868Y0069943D01*
X0048280Y0071365D01*
X0047191Y0072453D01*
X0045769Y0073042D01*
X0044230Y0073042D01*
X0046115Y0072899D02*
X0053885Y0072899D01*
X0054230Y0073042D02*
X0052809Y0072453D01*
X0051720Y0071365D01*
X0051131Y0069943D01*
X0051131Y0068404D01*
X0051720Y0066982D01*
X0052809Y0065894D01*
X0054230Y0065305D01*
X0055769Y0065305D01*
X0057191Y0065894D01*
X0058280Y0066982D01*
X0058868Y0068404D01*
X0058868Y0069943D01*
X0058280Y0071365D01*
X0057191Y0072453D01*
X0055769Y0073042D01*
X0054230Y0073042D01*
X0056115Y0072899D02*
X0350894Y0072899D01*
X0350894Y0071900D02*
X0057744Y0071900D01*
X0058471Y0070902D02*
X0350894Y0070902D01*
X0350894Y0069903D02*
X0058868Y0069903D01*
X0058868Y0068905D02*
X0350894Y0068905D01*
X0350894Y0067906D02*
X0126234Y0067906D01*
X0125859Y0068282D02*
X0124653Y0068781D01*
X0123347Y0068781D01*
X0122141Y0068282D01*
X0121250Y0067390D01*
X0120359Y0068282D01*
X0119153Y0068781D01*
X0117847Y0068781D01*
X0116641Y0068282D01*
X0115718Y0067359D01*
X0115219Y0066153D01*
X0115219Y0064847D01*
X0115718Y0063641D01*
X0116641Y0062718D01*
X0117847Y0062219D01*
X0119153Y0062219D01*
X0120359Y0062718D01*
X0121250Y0063610D01*
X0122141Y0062718D01*
X0123347Y0062219D01*
X0124653Y0062219D01*
X0125859Y0062718D01*
X0126782Y0063641D01*
X0127281Y0064847D01*
X0127281Y0066153D01*
X0126782Y0067359D01*
X0125859Y0068282D01*
X0126968Y0066908D02*
X0350894Y0066908D01*
X0350894Y0065909D02*
X0127281Y0065909D01*
X0127281Y0064911D02*
X0350894Y0064911D01*
X0350894Y0063912D02*
X0126894Y0063912D01*
X0126054Y0062914D02*
X0350894Y0062914D01*
X0350894Y0061915D02*
X0025000Y0061915D01*
X0025000Y0060917D02*
X0350894Y0060917D01*
X0350894Y0059918D02*
X0025000Y0059918D01*
X0025000Y0058920D02*
X0350894Y0058920D01*
X0350894Y0057921D02*
X0025000Y0057921D01*
X0025000Y0056923D02*
X0350894Y0056923D01*
X0350894Y0055924D02*
X0025000Y0055924D01*
X0025000Y0054926D02*
X0350894Y0054926D01*
X0350894Y0053927D02*
X0025000Y0053927D01*
X0025000Y0052929D02*
X0350894Y0052929D01*
X0350894Y0051930D02*
X0134653Y0051930D01*
X0134636Y0051948D02*
X0133574Y0052387D01*
X0132426Y0052387D01*
X0131364Y0051948D01*
X0130552Y0051136D01*
X0130113Y0050074D01*
X0130113Y0048926D01*
X0130552Y0047864D01*
X0131364Y0047052D01*
X0132426Y0046613D01*
X0133574Y0046613D01*
X0134636Y0047052D01*
X0135448Y0047864D01*
X0135887Y0048926D01*
X0135887Y0050074D01*
X0135448Y0051136D01*
X0134636Y0051948D01*
X0135532Y0050932D02*
X0350894Y0050932D01*
X0350894Y0049933D02*
X0135887Y0049933D01*
X0135887Y0048934D02*
X0195011Y0048934D01*
X0194641Y0048782D02*
X0193718Y0047859D01*
X0193219Y0046653D01*
X0193219Y0045347D01*
X0193718Y0044141D01*
X0194641Y0043218D01*
X0195847Y0042719D01*
X0197153Y0042719D01*
X0198359Y0043218D01*
X0199000Y0043860D01*
X0199641Y0043218D01*
X0200847Y0042719D01*
X0202153Y0042719D01*
X0203359Y0043218D01*
X0204282Y0044141D01*
X0204781Y0045347D01*
X0204781Y0046653D01*
X0204282Y0047859D01*
X0203359Y0048782D01*
X0202153Y0049281D01*
X0200847Y0049281D01*
X0199641Y0048782D01*
X0199000Y0048140D01*
X0198359Y0048782D01*
X0197153Y0049281D01*
X0195847Y0049281D01*
X0194641Y0048782D01*
X0193796Y0047936D02*
X0135477Y0047936D01*
X0134359Y0046937D02*
X0193337Y0046937D01*
X0193219Y0045939D02*
X0121201Y0045939D01*
X0121282Y0045859D02*
X0120359Y0046782D01*
X0119153Y0047281D01*
X0118921Y0047281D01*
X0119282Y0047641D01*
X0119781Y0048847D01*
X0119781Y0050153D01*
X0119282Y0051359D01*
X0118359Y0052282D01*
X0117153Y0052781D01*
X0115847Y0052781D01*
X0114641Y0052282D01*
X0113718Y0051359D01*
X0113219Y0050153D01*
X0113219Y0048847D01*
X0113718Y0047641D01*
X0114641Y0046718D01*
X0115847Y0046219D01*
X0116079Y0046219D01*
X0115718Y0045859D01*
X0115219Y0044653D01*
X0115219Y0043347D01*
X0115718Y0042141D01*
X0116641Y0041218D01*
X0117847Y0040719D01*
X0119153Y0040719D01*
X0120359Y0041218D01*
X0121282Y0042141D01*
X0121781Y0043347D01*
X0121781Y0044653D01*
X0121282Y0045859D01*
X0121662Y0044940D02*
X0193387Y0044940D01*
X0193918Y0043942D02*
X0121781Y0043942D01*
X0121614Y0042943D02*
X0166803Y0042943D01*
X0167141Y0043282D02*
X0166218Y0042359D01*
X0165719Y0041153D01*
X0165719Y0039847D01*
X0166218Y0038641D01*
X0167141Y0037718D01*
X0168347Y0037219D01*
X0169653Y0037219D01*
X0170859Y0037718D01*
X0171500Y0038360D01*
X0172141Y0037718D01*
X0173347Y0037219D01*
X0174653Y0037219D01*
X0175859Y0037718D01*
X0176782Y0038641D01*
X0177281Y0039847D01*
X0177281Y0041153D01*
X0176782Y0042359D01*
X0175859Y0043282D01*
X0174653Y0043781D01*
X0173347Y0043781D01*
X0172141Y0043282D01*
X0171500Y0042640D01*
X0170859Y0043282D01*
X0169653Y0043781D01*
X0168347Y0043781D01*
X0167141Y0043282D01*
X0166047Y0041945D02*
X0121085Y0041945D01*
X0119702Y0040946D02*
X0165719Y0040946D01*
X0165719Y0039948D02*
X0025000Y0039948D01*
X0025000Y0040946D02*
X0117298Y0040946D01*
X0115915Y0041945D02*
X0025000Y0041945D01*
X0025000Y0042943D02*
X0115386Y0042943D01*
X0115219Y0043942D02*
X0025000Y0043942D01*
X0025000Y0044940D02*
X0115338Y0044940D01*
X0115799Y0045939D02*
X0025000Y0045939D01*
X0025000Y0046937D02*
X0114422Y0046937D01*
X0113596Y0047936D02*
X0025000Y0047936D01*
X0025000Y0048934D02*
X0113219Y0048934D01*
X0113219Y0049933D02*
X0025000Y0049933D01*
X0025000Y0050932D02*
X0113542Y0050932D01*
X0114290Y0051930D02*
X0025000Y0051930D01*
X0025000Y0062914D02*
X0116446Y0062914D01*
X0115606Y0063912D02*
X0025000Y0063912D01*
X0025000Y0064911D02*
X0115219Y0064911D01*
X0115219Y0065909D02*
X0057207Y0065909D01*
X0058205Y0066908D02*
X0115532Y0066908D01*
X0116266Y0067906D02*
X0058662Y0067906D01*
X0052793Y0065909D02*
X0047207Y0065909D01*
X0048205Y0066908D02*
X0051795Y0066908D01*
X0051338Y0067906D02*
X0048662Y0067906D01*
X0048868Y0068905D02*
X0051131Y0068905D01*
X0051131Y0069903D02*
X0048868Y0069903D01*
X0048471Y0070902D02*
X0051529Y0070902D01*
X0052256Y0071900D02*
X0047744Y0071900D01*
X0046639Y0075217D02*
X0047237Y0075522D01*
X0047781Y0075917D01*
X0048256Y0076392D01*
X0048651Y0076936D01*
X0048956Y0077535D01*
X0049163Y0078174D01*
X0049245Y0078689D01*
X0045484Y0078689D01*
X0045484Y0074928D01*
X0046000Y0075010D01*
X0046639Y0075217D01*
X0047749Y0075894D02*
X0052251Y0075894D01*
X0052219Y0075917D02*
X0052763Y0075522D01*
X0053361Y0075217D01*
X0054000Y0075010D01*
X0054516Y0074928D01*
X0054516Y0078689D01*
X0050755Y0078689D01*
X0050837Y0078174D01*
X0051044Y0077535D01*
X0051349Y0076936D01*
X0051744Y0076392D01*
X0052219Y0075917D01*
X0051381Y0076893D02*
X0048619Y0076893D01*
X0049072Y0077891D02*
X0050928Y0077891D01*
X0050792Y0079888D02*
X0049208Y0079888D01*
X0049245Y0079657D02*
X0049163Y0080173D01*
X0048956Y0080812D01*
X0048651Y0081410D01*
X0048256Y0081954D01*
X0047781Y0082429D01*
X0047237Y0082824D01*
X0046639Y0083129D01*
X0046000Y0083337D01*
X0045484Y0083418D01*
X0045484Y0079658D01*
X0044516Y0079658D01*
X0044516Y0083418D01*
X0044000Y0083337D01*
X0043361Y0083129D01*
X0042763Y0082824D01*
X0042219Y0082429D01*
X0041744Y0081954D01*
X0041349Y0081410D01*
X0041044Y0080812D01*
X0040837Y0080173D01*
X0040755Y0079657D01*
X0044516Y0079657D01*
X0044516Y0078689D01*
X0045484Y0078689D01*
X0045484Y0079657D01*
X0049245Y0079657D01*
X0048918Y0080887D02*
X0051082Y0080887D01*
X0051694Y0081885D02*
X0048306Y0081885D01*
X0047120Y0082884D02*
X0052880Y0082884D01*
X0052843Y0085879D02*
X0047157Y0085879D01*
X0047191Y0085894D02*
X0048280Y0086982D01*
X0048868Y0088404D01*
X0048868Y0089943D01*
X0048280Y0091365D01*
X0047191Y0092453D01*
X0045769Y0093042D01*
X0044230Y0093042D01*
X0042809Y0092453D01*
X0041720Y0091365D01*
X0041131Y0089943D01*
X0041131Y0088404D01*
X0041720Y0086982D01*
X0042809Y0085894D01*
X0044230Y0085305D01*
X0045769Y0085305D01*
X0047191Y0085894D01*
X0048176Y0086878D02*
X0051824Y0086878D01*
X0051350Y0087876D02*
X0048650Y0087876D01*
X0048868Y0088875D02*
X0051131Y0088875D01*
X0051131Y0089873D02*
X0048868Y0089873D01*
X0048484Y0090872D02*
X0051516Y0090872D01*
X0052226Y0091870D02*
X0047774Y0091870D01*
X0046186Y0092869D02*
X0053814Y0092869D01*
X0052879Y0095865D02*
X0047121Y0095865D01*
X0047191Y0095894D02*
X0048280Y0096982D01*
X0048868Y0098404D01*
X0048868Y0099943D01*
X0048280Y0101365D01*
X0047191Y0102453D01*
X0045769Y0103042D01*
X0044230Y0103042D01*
X0042809Y0102453D01*
X0041720Y0101365D01*
X0041131Y0099943D01*
X0041131Y0098404D01*
X0041720Y0096982D01*
X0042809Y0095894D01*
X0044230Y0095305D01*
X0045769Y0095305D01*
X0047191Y0095894D01*
X0048161Y0096863D02*
X0051839Y0096863D01*
X0051356Y0097862D02*
X0048644Y0097862D01*
X0048868Y0098860D02*
X0051131Y0098860D01*
X0051131Y0099859D02*
X0048868Y0099859D01*
X0048490Y0100857D02*
X0051510Y0100857D01*
X0052211Y0101856D02*
X0047789Y0101856D01*
X0046222Y0102854D02*
X0053778Y0102854D01*
X0056222Y0102854D02*
X0148843Y0102854D01*
X0147564Y0103853D02*
X0025000Y0103853D01*
X0025000Y0104851D02*
X0147143Y0104851D01*
X0147113Y0105850D02*
X0057085Y0105850D01*
X0058146Y0106848D02*
X0147433Y0106848D01*
X0148263Y0107847D02*
X0058638Y0107847D01*
X0052915Y0105850D02*
X0047085Y0105850D01*
X0047191Y0105894D02*
X0048280Y0106982D01*
X0048868Y0108404D01*
X0048868Y0109943D01*
X0048280Y0111365D01*
X0047191Y0112453D01*
X0045769Y0113042D01*
X0044230Y0113042D01*
X0042809Y0112453D01*
X0041720Y0111365D01*
X0041131Y0109943D01*
X0041131Y0108404D01*
X0041720Y0106982D01*
X0042809Y0105894D01*
X0044230Y0105305D01*
X0045769Y0105305D01*
X0047191Y0105894D01*
X0048146Y0106848D02*
X0051854Y0106848D01*
X0051362Y0107847D02*
X0048638Y0107847D01*
X0048868Y0108845D02*
X0051131Y0108845D01*
X0051131Y0109844D02*
X0048868Y0109844D01*
X0048496Y0110842D02*
X0051504Y0110842D01*
X0052197Y0111841D02*
X0047803Y0111841D01*
X0046258Y0112839D02*
X0053742Y0112839D01*
X0052951Y0115835D02*
X0047049Y0115835D01*
X0047191Y0115894D02*
X0048280Y0116982D01*
X0048868Y0118404D01*
X0048868Y0119943D01*
X0048280Y0121365D01*
X0047191Y0122453D01*
X0045769Y0123042D01*
X0044230Y0123042D01*
X0042809Y0122453D01*
X0041720Y0121365D01*
X0041131Y0119943D01*
X0041131Y0118404D01*
X0041720Y0116982D01*
X0042809Y0115894D01*
X0044230Y0115305D01*
X0045769Y0115305D01*
X0047191Y0115894D01*
X0048131Y0116833D02*
X0051869Y0116833D01*
X0051368Y0117832D02*
X0048632Y0117832D01*
X0048868Y0118830D02*
X0051131Y0118830D01*
X0051131Y0119829D02*
X0048868Y0119829D01*
X0048502Y0120827D02*
X0051498Y0120827D01*
X0052182Y0121826D02*
X0047818Y0121826D01*
X0046294Y0122824D02*
X0053706Y0122824D01*
X0052987Y0125820D02*
X0047013Y0125820D01*
X0047191Y0125894D02*
X0048280Y0126982D01*
X0048868Y0128404D01*
X0048868Y0129943D01*
X0048280Y0131365D01*
X0047191Y0132453D01*
X0045769Y0133042D01*
X0044230Y0133042D01*
X0042809Y0132453D01*
X0041720Y0131365D01*
X0041131Y0129943D01*
X0041131Y0128404D01*
X0041720Y0126982D01*
X0042809Y0125894D01*
X0044230Y0125305D01*
X0045769Y0125305D01*
X0047191Y0125894D01*
X0048116Y0126818D02*
X0051884Y0126818D01*
X0051375Y0127817D02*
X0048625Y0127817D01*
X0048868Y0128815D02*
X0051131Y0128815D01*
X0051131Y0129814D02*
X0048868Y0129814D01*
X0048508Y0130812D02*
X0051492Y0130812D01*
X0052167Y0131811D02*
X0047833Y0131811D01*
X0046330Y0132809D02*
X0053670Y0132809D01*
X0053023Y0135805D02*
X0046977Y0135805D01*
X0047191Y0135894D02*
X0048280Y0136982D01*
X0048868Y0138404D01*
X0048868Y0139943D01*
X0048280Y0141365D01*
X0047191Y0142453D01*
X0045769Y0143042D01*
X0044230Y0143042D01*
X0042809Y0142453D01*
X0041720Y0141365D01*
X0041131Y0139943D01*
X0041131Y0138404D01*
X0041720Y0136982D01*
X0042809Y0135894D01*
X0044230Y0135305D01*
X0045769Y0135305D01*
X0047191Y0135894D01*
X0048101Y0136803D02*
X0051899Y0136803D01*
X0051381Y0137802D02*
X0048619Y0137802D01*
X0048868Y0138801D02*
X0051131Y0138801D01*
X0051131Y0139799D02*
X0048868Y0139799D01*
X0048514Y0140798D02*
X0051486Y0140798D01*
X0052152Y0141796D02*
X0047848Y0141796D01*
X0046366Y0142795D02*
X0053634Y0142795D01*
X0054230Y0145305D02*
X0052809Y0145894D01*
X0051720Y0146982D01*
X0051131Y0148404D01*
X0051131Y0149943D01*
X0051720Y0151365D01*
X0052809Y0152453D01*
X0054230Y0153042D01*
X0055769Y0153042D01*
X0057191Y0152453D01*
X0058280Y0151365D01*
X0058868Y0149943D01*
X0058868Y0148404D01*
X0058280Y0146982D01*
X0057191Y0145894D01*
X0055769Y0145305D01*
X0054230Y0145305D01*
X0053059Y0145790D02*
X0046941Y0145790D01*
X0047191Y0145894D02*
X0048280Y0146982D01*
X0048868Y0148404D01*
X0048868Y0149943D01*
X0048280Y0151365D01*
X0047191Y0152453D01*
X0045769Y0153042D01*
X0044230Y0153042D01*
X0042809Y0152453D01*
X0041720Y0151365D01*
X0041131Y0149943D01*
X0041131Y0148404D01*
X0041720Y0146982D01*
X0042809Y0145894D01*
X0044230Y0145305D01*
X0045769Y0145305D01*
X0047191Y0145894D01*
X0048086Y0146789D02*
X0051914Y0146789D01*
X0051387Y0147787D02*
X0048613Y0147787D01*
X0048868Y0148786D02*
X0051131Y0148786D01*
X0051131Y0149784D02*
X0048868Y0149784D01*
X0048521Y0150783D02*
X0051479Y0150783D01*
X0052137Y0151781D02*
X0047863Y0151781D01*
X0046402Y0152780D02*
X0053598Y0152780D01*
X0056402Y0152780D02*
X0155928Y0152780D01*
X0155984Y0152723D02*
X0157262Y0152194D01*
X0158644Y0152194D01*
X0159921Y0152723D01*
X0160899Y0153701D01*
X0161428Y0154978D01*
X0161428Y0156360D01*
X0160899Y0157638D01*
X0159921Y0158615D01*
X0158644Y0159144D01*
X0157262Y0159144D01*
X0155984Y0158615D01*
X0155007Y0157638D01*
X0154478Y0156360D01*
X0154478Y0154978D01*
X0155007Y0153701D01*
X0155984Y0152723D01*
X0154975Y0153778D02*
X0025000Y0153778D01*
X0025000Y0152780D02*
X0043598Y0152780D01*
X0042137Y0151781D02*
X0025000Y0151781D01*
X0025000Y0150783D02*
X0041479Y0150783D01*
X0041131Y0149784D02*
X0025000Y0149784D01*
X0025000Y0148786D02*
X0041131Y0148786D01*
X0041387Y0147787D02*
X0025000Y0147787D01*
X0025000Y0146789D02*
X0041914Y0146789D01*
X0043059Y0145790D02*
X0025000Y0145790D01*
X0025000Y0144792D02*
X0078844Y0144792D01*
X0079230Y0144631D02*
X0080769Y0144631D01*
X0082191Y0145220D01*
X0083280Y0146309D01*
X0083868Y0147730D01*
X0083868Y0149269D01*
X0083280Y0150691D01*
X0082191Y0151780D01*
X0080769Y0152368D01*
X0079230Y0152368D01*
X0077809Y0151780D01*
X0076720Y0150691D01*
X0076131Y0149269D01*
X0076131Y0147730D01*
X0076720Y0146309D01*
X0077809Y0145220D01*
X0079230Y0144631D01*
X0081156Y0144792D02*
X0087876Y0144792D01*
X0087763Y0144849D02*
X0088361Y0144544D01*
X0089000Y0144337D01*
X0089516Y0144255D01*
X0089516Y0148016D01*
X0085755Y0148016D01*
X0085837Y0147500D01*
X0086044Y0146861D01*
X0086349Y0146263D01*
X0086744Y0145719D01*
X0087219Y0145244D01*
X0087763Y0144849D01*
X0086693Y0145790D02*
X0082761Y0145790D01*
X0083478Y0146789D02*
X0086081Y0146789D01*
X0085791Y0147787D02*
X0083868Y0147787D01*
X0083868Y0148786D02*
X0089516Y0148786D01*
X0089516Y0148984D02*
X0089516Y0148016D01*
X0090484Y0148016D01*
X0090484Y0144255D01*
X0091000Y0144337D01*
X0091639Y0144544D01*
X0092237Y0144849D01*
X0092781Y0145244D01*
X0093256Y0145719D01*
X0093651Y0146263D01*
X0093956Y0146861D01*
X0094163Y0147500D01*
X0094245Y0148016D01*
X0090484Y0148016D01*
X0090484Y0148984D01*
X0089516Y0148984D01*
X0085755Y0148984D01*
X0085837Y0149500D01*
X0086044Y0150139D01*
X0086349Y0150737D01*
X0086744Y0151281D01*
X0087219Y0151756D01*
X0087763Y0152151D01*
X0088361Y0152456D01*
X0089000Y0152663D01*
X0089516Y0152745D01*
X0089516Y0148984D01*
X0089516Y0149784D02*
X0090484Y0149784D01*
X0090484Y0148984D02*
X0090484Y0152745D01*
X0091000Y0152663D01*
X0091639Y0152456D01*
X0092237Y0152151D01*
X0092781Y0151756D01*
X0093256Y0151281D01*
X0093651Y0150737D01*
X0093956Y0150139D01*
X0094163Y0149500D01*
X0094245Y0148984D01*
X0090484Y0148984D01*
X0090484Y0148786D02*
X0096131Y0148786D01*
X0096131Y0149269D02*
X0096131Y0147730D01*
X0096720Y0146309D01*
X0097809Y0145220D01*
X0099230Y0144631D01*
X0100769Y0144631D01*
X0102191Y0145220D01*
X0103280Y0146309D01*
X0103868Y0147730D01*
X0103868Y0149269D01*
X0103280Y0150691D01*
X0102191Y0151780D01*
X0100769Y0152368D01*
X0099230Y0152368D01*
X0097809Y0151780D01*
X0096720Y0150691D01*
X0096131Y0149269D01*
X0096345Y0149784D02*
X0094071Y0149784D01*
X0093618Y0150783D02*
X0096812Y0150783D01*
X0097813Y0151781D02*
X0092746Y0151781D01*
X0090484Y0151781D02*
X0089516Y0151781D01*
X0089516Y0150783D02*
X0090484Y0150783D01*
X0090484Y0147787D02*
X0089516Y0147787D01*
X0089516Y0146789D02*
X0090484Y0146789D01*
X0090484Y0145790D02*
X0089516Y0145790D01*
X0089516Y0144792D02*
X0090484Y0144792D01*
X0092124Y0144792D02*
X0098844Y0144792D01*
X0097239Y0145790D02*
X0093307Y0145790D01*
X0093919Y0146789D02*
X0096522Y0146789D01*
X0096131Y0147787D02*
X0094209Y0147787D01*
X0101156Y0144792D02*
X0108844Y0144792D01*
X0109230Y0144631D02*
X0110769Y0144631D01*
X0112191Y0145220D01*
X0113280Y0146309D01*
X0113868Y0147730D01*
X0113868Y0149269D01*
X0113280Y0150691D01*
X0112191Y0151780D01*
X0110769Y0152368D01*
X0109230Y0152368D01*
X0107809Y0151780D01*
X0106720Y0150691D01*
X0106131Y0149269D01*
X0106131Y0147730D01*
X0106720Y0146309D01*
X0107809Y0145220D01*
X0109230Y0144631D01*
X0111156Y0144792D02*
X0154555Y0144792D01*
X0154478Y0144978D02*
X0155007Y0143701D01*
X0155984Y0142723D01*
X0157262Y0142194D01*
X0158644Y0142194D01*
X0159921Y0142723D01*
X0160899Y0143701D01*
X0161428Y0144978D01*
X0161428Y0146360D01*
X0160899Y0147638D01*
X0159921Y0148615D01*
X0158644Y0149144D01*
X0157262Y0149144D01*
X0155984Y0148615D01*
X0155007Y0147638D01*
X0154478Y0146360D01*
X0154478Y0144978D01*
X0154478Y0145790D02*
X0112761Y0145790D01*
X0113478Y0146789D02*
X0154655Y0146789D01*
X0155156Y0147787D02*
X0113868Y0147787D01*
X0113868Y0148786D02*
X0156396Y0148786D01*
X0159509Y0148786D02*
X0166396Y0148786D01*
X0165984Y0148615D02*
X0165007Y0147638D01*
X0164478Y0146360D01*
X0164478Y0144978D01*
X0165007Y0143701D01*
X0165984Y0142723D01*
X0167262Y0142194D01*
X0168644Y0142194D01*
X0169921Y0142723D01*
X0170899Y0143701D01*
X0171428Y0144978D01*
X0171428Y0146360D01*
X0170899Y0147638D01*
X0169921Y0148615D01*
X0168644Y0149144D01*
X0167262Y0149144D01*
X0165984Y0148615D01*
X0165156Y0147787D02*
X0160749Y0147787D01*
X0161250Y0146789D02*
X0164655Y0146789D01*
X0164478Y0145790D02*
X0161428Y0145790D01*
X0161350Y0144792D02*
X0164555Y0144792D01*
X0164969Y0143793D02*
X0160937Y0143793D01*
X0159992Y0142795D02*
X0165913Y0142795D01*
X0169992Y0142795D02*
X0175348Y0142795D01*
X0174546Y0143793D02*
X0170937Y0143793D01*
X0171350Y0144792D02*
X0174177Y0144792D01*
X0174078Y0145957D02*
X0177665Y0145957D01*
X0177665Y0145382D01*
X0178240Y0145382D01*
X0178240Y0145957D01*
X0177665Y0145957D01*
X0177665Y0149544D01*
X0177571Y0149544D01*
X0176823Y0149395D01*
X0176117Y0149103D01*
X0175483Y0148679D01*
X0174943Y0148139D01*
X0174519Y0147505D01*
X0174227Y0146800D01*
X0174078Y0146051D01*
X0174078Y0145957D01*
X0174225Y0146789D02*
X0171250Y0146789D01*
X0171428Y0145790D02*
X0177665Y0145790D01*
X0178240Y0145790D02*
X0184478Y0145790D01*
X0184478Y0146360D02*
X0184478Y0144978D01*
X0185007Y0143701D01*
X0185984Y0142723D01*
X0187262Y0142194D01*
X0188644Y0142194D01*
X0189921Y0142723D01*
X0190899Y0143701D01*
X0191428Y0144978D01*
X0191428Y0146360D01*
X0190899Y0147638D01*
X0189921Y0148615D01*
X0188644Y0149144D01*
X0187262Y0149144D01*
X0185984Y0148615D01*
X0185007Y0147638D01*
X0184478Y0146360D01*
X0184655Y0146789D02*
X0181681Y0146789D01*
X0181679Y0146800D02*
X0181387Y0147505D01*
X0180962Y0148139D01*
X0180423Y0148679D01*
X0179788Y0149103D01*
X0179083Y0149395D01*
X0178334Y0149544D01*
X0178240Y0149544D01*
X0178240Y0145957D01*
X0181828Y0145957D01*
X0181828Y0146051D01*
X0181679Y0146800D01*
X0181198Y0147787D02*
X0185156Y0147787D01*
X0186396Y0148786D02*
X0180263Y0148786D01*
X0178240Y0148786D02*
X0177665Y0148786D01*
X0177665Y0147787D02*
X0178240Y0147787D01*
X0178240Y0146789D02*
X0177665Y0146789D01*
X0177665Y0144792D02*
X0178240Y0144792D01*
X0178240Y0143793D02*
X0177665Y0143793D01*
X0177665Y0142795D02*
X0178240Y0142795D01*
X0180558Y0142795D02*
X0185913Y0142795D01*
X0184969Y0143793D02*
X0181359Y0143793D01*
X0181729Y0144792D02*
X0184555Y0144792D01*
X0189992Y0142795D02*
X0195913Y0142795D01*
X0195984Y0142723D02*
X0197262Y0142194D01*
X0198644Y0142194D01*
X0199921Y0142723D01*
X0200899Y0143701D01*
X0201428Y0144978D01*
X0201428Y0146360D01*
X0200899Y0147638D01*
X0199921Y0148615D01*
X0198644Y0149144D01*
X0197262Y0149144D01*
X0195984Y0148615D01*
X0195007Y0147638D01*
X0194478Y0146360D01*
X0194478Y0144978D01*
X0195007Y0143701D01*
X0195984Y0142723D01*
X0194969Y0143793D02*
X0190937Y0143793D01*
X0191350Y0144792D02*
X0194555Y0144792D01*
X0194478Y0145790D02*
X0191428Y0145790D01*
X0191250Y0146789D02*
X0194655Y0146789D01*
X0195156Y0147787D02*
X0190749Y0147787D01*
X0189509Y0148786D02*
X0196396Y0148786D01*
X0199509Y0148786D02*
X0206396Y0148786D01*
X0205984Y0148615D02*
X0205007Y0147638D01*
X0204478Y0146360D01*
X0204478Y0144978D01*
X0205007Y0143701D01*
X0205984Y0142723D01*
X0207262Y0142194D01*
X0208644Y0142194D01*
X0209921Y0142723D01*
X0210899Y0143701D01*
X0211428Y0144978D01*
X0211428Y0146360D01*
X0210899Y0147638D01*
X0209921Y0148615D01*
X0208644Y0149144D01*
X0207262Y0149144D01*
X0205984Y0148615D01*
X0205156Y0147787D02*
X0200749Y0147787D01*
X0201250Y0146789D02*
X0204655Y0146789D01*
X0204478Y0145790D02*
X0201428Y0145790D01*
X0201350Y0144792D02*
X0204555Y0144792D01*
X0204969Y0143793D02*
X0200937Y0143793D01*
X0199992Y0142795D02*
X0205913Y0142795D01*
X0209992Y0142795D02*
X0215348Y0142795D01*
X0214546Y0143793D02*
X0210937Y0143793D01*
X0211350Y0144792D02*
X0214177Y0144792D01*
X0214078Y0145957D02*
X0217665Y0145957D01*
X0217665Y0145382D01*
X0218240Y0145382D01*
X0218240Y0145957D01*
X0217665Y0145957D01*
X0217665Y0149544D01*
X0217571Y0149544D01*
X0216823Y0149395D01*
X0216117Y0149103D01*
X0215483Y0148679D01*
X0214943Y0148139D01*
X0214519Y0147505D01*
X0214227Y0146800D01*
X0214078Y0146051D01*
X0214078Y0145957D01*
X0214225Y0146789D02*
X0211250Y0146789D01*
X0211428Y0145790D02*
X0217665Y0145790D01*
X0218240Y0145790D02*
X0224478Y0145790D01*
X0224478Y0146360D02*
X0224478Y0144978D01*
X0225007Y0143701D01*
X0225984Y0142723D01*
X0227262Y0142194D01*
X0228644Y0142194D01*
X0229921Y0142723D01*
X0230899Y0143701D01*
X0231428Y0144978D01*
X0231428Y0146360D01*
X0230899Y0147638D01*
X0229921Y0148615D01*
X0228644Y0149144D01*
X0227262Y0149144D01*
X0225984Y0148615D01*
X0225007Y0147638D01*
X0224478Y0146360D01*
X0224655Y0146789D02*
X0221681Y0146789D01*
X0221679Y0146800D02*
X0221387Y0147505D01*
X0220962Y0148139D01*
X0220423Y0148679D01*
X0219788Y0149103D01*
X0219083Y0149395D01*
X0218334Y0149544D01*
X0218240Y0149544D01*
X0218240Y0145957D01*
X0221828Y0145957D01*
X0221828Y0146051D01*
X0221679Y0146800D01*
X0221198Y0147787D02*
X0225156Y0147787D01*
X0226396Y0148786D02*
X0220263Y0148786D01*
X0218240Y0148786D02*
X0217665Y0148786D01*
X0217665Y0147787D02*
X0218240Y0147787D01*
X0218240Y0146789D02*
X0217665Y0146789D01*
X0217665Y0144792D02*
X0218240Y0144792D01*
X0218240Y0143793D02*
X0217665Y0143793D01*
X0217665Y0142795D02*
X0218240Y0142795D01*
X0220558Y0142795D02*
X0225913Y0142795D01*
X0224969Y0143793D02*
X0221359Y0143793D01*
X0221729Y0144792D02*
X0224555Y0144792D01*
X0229992Y0142795D02*
X0235913Y0142795D01*
X0235984Y0142723D02*
X0237262Y0142194D01*
X0238644Y0142194D01*
X0239921Y0142723D01*
X0240899Y0143701D01*
X0241428Y0144978D01*
X0241428Y0146360D01*
X0240899Y0147638D01*
X0239921Y0148615D01*
X0238644Y0149144D01*
X0237262Y0149144D01*
X0235984Y0148615D01*
X0235007Y0147638D01*
X0234478Y0146360D01*
X0234478Y0144978D01*
X0235007Y0143701D01*
X0235984Y0142723D01*
X0234969Y0143793D02*
X0230937Y0143793D01*
X0231350Y0144792D02*
X0234555Y0144792D01*
X0234478Y0145790D02*
X0231428Y0145790D01*
X0231250Y0146789D02*
X0234655Y0146789D01*
X0235156Y0147787D02*
X0230749Y0147787D01*
X0229509Y0148786D02*
X0236396Y0148786D01*
X0239509Y0148786D02*
X0245642Y0148786D01*
X0245483Y0148679D02*
X0244943Y0148139D01*
X0244519Y0147505D01*
X0244227Y0146800D01*
X0244078Y0146051D01*
X0244078Y0145957D01*
X0247665Y0145957D01*
X0247665Y0145382D01*
X0248240Y0145382D01*
X0248240Y0145957D01*
X0247665Y0145957D01*
X0247665Y0149544D01*
X0247571Y0149544D01*
X0246823Y0149395D01*
X0246117Y0149103D01*
X0245483Y0148679D01*
X0244708Y0147787D02*
X0240749Y0147787D01*
X0241250Y0146789D02*
X0244225Y0146789D01*
X0244177Y0144792D02*
X0241350Y0144792D01*
X0241428Y0145790D02*
X0247665Y0145790D01*
X0248240Y0145790D02*
X0254478Y0145790D01*
X0254478Y0146360D02*
X0254478Y0144978D01*
X0255007Y0143701D01*
X0255984Y0142723D01*
X0257262Y0142194D01*
X0258644Y0142194D01*
X0259921Y0142723D01*
X0260899Y0143701D01*
X0261428Y0144978D01*
X0261428Y0146360D01*
X0260899Y0147638D01*
X0259921Y0148615D01*
X0258644Y0149144D01*
X0257262Y0149144D01*
X0255984Y0148615D01*
X0255007Y0147638D01*
X0254478Y0146360D01*
X0254655Y0146789D02*
X0251681Y0146789D01*
X0251679Y0146800D02*
X0251387Y0147505D01*
X0250962Y0148139D01*
X0250423Y0148679D01*
X0249788Y0149103D01*
X0249083Y0149395D01*
X0248334Y0149544D01*
X0248240Y0149544D01*
X0248240Y0145957D01*
X0251828Y0145957D01*
X0251828Y0146051D01*
X0251679Y0146800D01*
X0251198Y0147787D02*
X0255156Y0147787D01*
X0256396Y0148786D02*
X0250263Y0148786D01*
X0248240Y0148786D02*
X0247665Y0148786D01*
X0247665Y0147787D02*
X0248240Y0147787D01*
X0248240Y0146789D02*
X0247665Y0146789D01*
X0247665Y0144792D02*
X0248240Y0144792D01*
X0248240Y0143793D02*
X0247665Y0143793D01*
X0247665Y0142795D02*
X0248240Y0142795D01*
X0250558Y0142795D02*
X0255913Y0142795D01*
X0254969Y0143793D02*
X0251359Y0143793D01*
X0251729Y0144792D02*
X0254555Y0144792D01*
X0259992Y0142795D02*
X0265913Y0142795D01*
X0265984Y0142723D02*
X0267262Y0142194D01*
X0268644Y0142194D01*
X0269921Y0142723D01*
X0270899Y0143701D01*
X0271428Y0144978D01*
X0271428Y0146360D01*
X0270899Y0147638D01*
X0269921Y0148615D01*
X0268644Y0149144D01*
X0267262Y0149144D01*
X0265984Y0148615D01*
X0265007Y0147638D01*
X0264478Y0146360D01*
X0264478Y0144978D01*
X0265007Y0143701D01*
X0265984Y0142723D01*
X0264969Y0143793D02*
X0260937Y0143793D01*
X0261350Y0144792D02*
X0264555Y0144792D01*
X0264478Y0145790D02*
X0261428Y0145790D01*
X0261250Y0146789D02*
X0264655Y0146789D01*
X0265156Y0147787D02*
X0260749Y0147787D01*
X0259509Y0148786D02*
X0266396Y0148786D01*
X0269509Y0148786D02*
X0276396Y0148786D01*
X0275984Y0148615D02*
X0275007Y0147638D01*
X0274478Y0146360D01*
X0274478Y0144978D01*
X0275007Y0143701D01*
X0275984Y0142723D01*
X0277262Y0142194D01*
X0278644Y0142194D01*
X0279921Y0142723D01*
X0280899Y0143701D01*
X0281428Y0144978D01*
X0281428Y0146360D01*
X0280899Y0147638D01*
X0279921Y0148615D01*
X0278644Y0149144D01*
X0277262Y0149144D01*
X0275984Y0148615D01*
X0275156Y0147787D02*
X0270749Y0147787D01*
X0271250Y0146789D02*
X0274655Y0146789D01*
X0274478Y0145790D02*
X0271428Y0145790D01*
X0271350Y0144792D02*
X0274555Y0144792D01*
X0274969Y0143793D02*
X0270937Y0143793D01*
X0269992Y0142795D02*
X0275913Y0142795D01*
X0279992Y0142795D02*
X0285913Y0142795D01*
X0285984Y0142723D02*
X0287262Y0142194D01*
X0288644Y0142194D01*
X0289921Y0142723D01*
X0290899Y0143701D01*
X0291428Y0144978D01*
X0291428Y0146360D01*
X0290899Y0147638D01*
X0289921Y0148615D01*
X0288644Y0149144D01*
X0287262Y0149144D01*
X0285984Y0148615D01*
X0285007Y0147638D01*
X0284478Y0146360D01*
X0284478Y0144978D01*
X0285007Y0143701D01*
X0285984Y0142723D01*
X0284969Y0143793D02*
X0280937Y0143793D01*
X0281350Y0144792D02*
X0284555Y0144792D01*
X0284478Y0145790D02*
X0281428Y0145790D01*
X0281250Y0146789D02*
X0284655Y0146789D01*
X0285156Y0147787D02*
X0280749Y0147787D01*
X0279509Y0148786D02*
X0286396Y0148786D01*
X0289509Y0148786D02*
X0295642Y0148786D01*
X0295483Y0148679D02*
X0294943Y0148139D01*
X0294519Y0147505D01*
X0294227Y0146800D01*
X0294078Y0146051D01*
X0294078Y0145957D01*
X0297665Y0145957D01*
X0297665Y0145382D01*
X0298240Y0145382D01*
X0298240Y0145957D01*
X0297665Y0145957D01*
X0297665Y0149544D01*
X0297571Y0149544D01*
X0296823Y0149395D01*
X0296117Y0149103D01*
X0295483Y0148679D01*
X0294708Y0147787D02*
X0290749Y0147787D01*
X0291250Y0146789D02*
X0294225Y0146789D01*
X0294177Y0144792D02*
X0291350Y0144792D01*
X0291428Y0145790D02*
X0297665Y0145790D01*
X0298240Y0145790D02*
X0304478Y0145790D01*
X0304478Y0146360D02*
X0304478Y0144978D01*
X0305007Y0143701D01*
X0305984Y0142723D01*
X0307262Y0142194D01*
X0308644Y0142194D01*
X0309921Y0142723D01*
X0310899Y0143701D01*
X0311428Y0144978D01*
X0311428Y0146360D01*
X0310899Y0147638D01*
X0309921Y0148615D01*
X0308644Y0149144D01*
X0307262Y0149144D01*
X0305984Y0148615D01*
X0305007Y0147638D01*
X0304478Y0146360D01*
X0304655Y0146789D02*
X0301681Y0146789D01*
X0301679Y0146800D02*
X0301387Y0147505D01*
X0300963Y0148139D01*
X0300423Y0148679D01*
X0299788Y0149103D01*
X0299083Y0149395D01*
X0298334Y0149544D01*
X0298240Y0149544D01*
X0298240Y0145957D01*
X0301828Y0145957D01*
X0301828Y0146051D01*
X0301679Y0146800D01*
X0301198Y0147787D02*
X0305156Y0147787D01*
X0306396Y0148786D02*
X0300263Y0148786D01*
X0298240Y0148786D02*
X0297665Y0148786D01*
X0297665Y0147787D02*
X0298240Y0147787D01*
X0298240Y0146789D02*
X0297665Y0146789D01*
X0297665Y0144792D02*
X0298240Y0144792D01*
X0298240Y0143793D02*
X0297665Y0143793D01*
X0297665Y0142795D02*
X0298240Y0142795D01*
X0300558Y0142795D02*
X0305913Y0142795D01*
X0304969Y0143793D02*
X0301359Y0143793D01*
X0301729Y0144792D02*
X0304555Y0144792D01*
X0309992Y0142795D02*
X0315348Y0142795D01*
X0314546Y0143793D02*
X0310937Y0143793D01*
X0311350Y0144792D02*
X0314177Y0144792D01*
X0314078Y0145957D02*
X0317665Y0145957D01*
X0317665Y0145382D01*
X0318240Y0145382D01*
X0318240Y0145957D01*
X0317665Y0145957D01*
X0317665Y0149544D01*
X0317571Y0149544D01*
X0316823Y0149395D01*
X0316117Y0149103D01*
X0315483Y0148679D01*
X0314943Y0148139D01*
X0314519Y0147505D01*
X0314227Y0146800D01*
X0314078Y0146051D01*
X0314078Y0145957D01*
X0314225Y0146789D02*
X0311250Y0146789D01*
X0311428Y0145790D02*
X0317665Y0145790D01*
X0318240Y0145790D02*
X0324478Y0145790D01*
X0324478Y0146360D02*
X0324478Y0144978D01*
X0325007Y0143701D01*
X0325984Y0142723D01*
X0327262Y0142194D01*
X0328644Y0142194D01*
X0329921Y0142723D01*
X0330899Y0143701D01*
X0331428Y0144978D01*
X0331428Y0146360D01*
X0330899Y0147638D01*
X0329921Y0148615D01*
X0328644Y0149144D01*
X0327262Y0149144D01*
X0325984Y0148615D01*
X0325007Y0147638D01*
X0324478Y0146360D01*
X0324655Y0146789D02*
X0321681Y0146789D01*
X0321679Y0146800D02*
X0321387Y0147505D01*
X0320963Y0148139D01*
X0320423Y0148679D01*
X0319788Y0149103D01*
X0319083Y0149395D01*
X0318334Y0149544D01*
X0318240Y0149544D01*
X0318240Y0145957D01*
X0321828Y0145957D01*
X0321828Y0146051D01*
X0321679Y0146800D01*
X0321198Y0147787D02*
X0325156Y0147787D01*
X0326396Y0148786D02*
X0320263Y0148786D01*
X0318240Y0148786D02*
X0317665Y0148786D01*
X0317665Y0147787D02*
X0318240Y0147787D01*
X0318240Y0146789D02*
X0317665Y0146789D01*
X0317665Y0144792D02*
X0318240Y0144792D01*
X0318240Y0143793D02*
X0317665Y0143793D01*
X0317665Y0142795D02*
X0318240Y0142795D01*
X0320558Y0142795D02*
X0325913Y0142795D01*
X0324969Y0143793D02*
X0321359Y0143793D01*
X0321729Y0144792D02*
X0324555Y0144792D01*
X0329992Y0142795D02*
X0335913Y0142795D01*
X0334969Y0143793D02*
X0330937Y0143793D01*
X0331350Y0144792D02*
X0334555Y0144792D01*
X0334478Y0145790D02*
X0331428Y0145790D01*
X0331250Y0146789D02*
X0334655Y0146789D01*
X0335156Y0147787D02*
X0330749Y0147787D01*
X0329509Y0148786D02*
X0336396Y0148786D01*
X0335928Y0152780D02*
X0329977Y0152780D01*
X0329921Y0152723D02*
X0330899Y0153701D01*
X0331428Y0154978D01*
X0331428Y0156360D01*
X0330899Y0157638D01*
X0329921Y0158615D01*
X0328644Y0159144D01*
X0327262Y0159144D01*
X0325984Y0158615D01*
X0325007Y0157638D01*
X0324478Y0156360D01*
X0324478Y0154978D01*
X0325007Y0153701D01*
X0325984Y0152723D01*
X0327262Y0152194D01*
X0328644Y0152194D01*
X0329921Y0152723D01*
X0330931Y0153778D02*
X0334975Y0153778D01*
X0334561Y0154777D02*
X0331344Y0154777D01*
X0331428Y0155775D02*
X0334478Y0155775D01*
X0334649Y0156774D02*
X0331256Y0156774D01*
X0330764Y0157772D02*
X0335142Y0157772D01*
X0336360Y0158771D02*
X0329545Y0158771D01*
X0326360Y0158771D02*
X0319545Y0158771D01*
X0319921Y0158615D02*
X0318644Y0159144D01*
X0317262Y0159144D01*
X0315984Y0158615D01*
X0315007Y0157638D01*
X0314478Y0156360D01*
X0314478Y0154978D01*
X0315007Y0153701D01*
X0315984Y0152723D01*
X0317262Y0152194D01*
X0318644Y0152194D01*
X0319921Y0152723D01*
X0320899Y0153701D01*
X0321428Y0154978D01*
X0321428Y0156360D01*
X0320899Y0157638D01*
X0319921Y0158615D01*
X0320764Y0157772D02*
X0325142Y0157772D01*
X0324649Y0156774D02*
X0321256Y0156774D01*
X0321428Y0155775D02*
X0324478Y0155775D01*
X0324561Y0154777D02*
X0321344Y0154777D01*
X0320931Y0153778D02*
X0324975Y0153778D01*
X0325928Y0152780D02*
X0319977Y0152780D01*
X0315928Y0152780D02*
X0309977Y0152780D01*
X0309921Y0152723D02*
X0310899Y0153701D01*
X0311428Y0154978D01*
X0311428Y0156360D01*
X0310899Y0157638D01*
X0309921Y0158615D01*
X0308644Y0159144D01*
X0307262Y0159144D01*
X0305984Y0158615D01*
X0305007Y0157638D01*
X0304478Y0156360D01*
X0304478Y0154978D01*
X0305007Y0153701D01*
X0305984Y0152723D01*
X0307262Y0152194D01*
X0308644Y0152194D01*
X0309921Y0152723D01*
X0310931Y0153778D02*
X0314975Y0153778D01*
X0314561Y0154777D02*
X0311344Y0154777D01*
X0311428Y0155775D02*
X0314478Y0155775D01*
X0314649Y0156774D02*
X0311256Y0156774D01*
X0310764Y0157772D02*
X0315142Y0157772D01*
X0316360Y0158771D02*
X0309545Y0158771D01*
X0306360Y0158771D02*
X0299545Y0158771D01*
X0299921Y0158615D02*
X0298644Y0159144D01*
X0297262Y0159144D01*
X0295984Y0158615D01*
X0295007Y0157638D01*
X0294478Y0156360D01*
X0294478Y0154978D01*
X0295007Y0153701D01*
X0295984Y0152723D01*
X0297262Y0152194D01*
X0298644Y0152194D01*
X0299921Y0152723D01*
X0300899Y0153701D01*
X0301428Y0154978D01*
X0301428Y0156360D01*
X0300899Y0157638D01*
X0299921Y0158615D01*
X0300764Y0157772D02*
X0305142Y0157772D01*
X0304649Y0156774D02*
X0301256Y0156774D01*
X0301428Y0155775D02*
X0304478Y0155775D01*
X0304561Y0154777D02*
X0301344Y0154777D01*
X0300931Y0153778D02*
X0304975Y0153778D01*
X0305928Y0152780D02*
X0299977Y0152780D01*
X0295928Y0152780D02*
X0289977Y0152780D01*
X0289921Y0152723D02*
X0290899Y0153701D01*
X0291428Y0154978D01*
X0291428Y0156360D01*
X0290899Y0157638D01*
X0289921Y0158615D01*
X0288644Y0159144D01*
X0287262Y0159144D01*
X0285984Y0158615D01*
X0285007Y0157638D01*
X0284478Y0156360D01*
X0284478Y0154978D01*
X0285007Y0153701D01*
X0285984Y0152723D01*
X0287262Y0152194D01*
X0288644Y0152194D01*
X0289921Y0152723D01*
X0290931Y0153778D02*
X0294975Y0153778D01*
X0294561Y0154777D02*
X0291344Y0154777D01*
X0291428Y0155775D02*
X0294478Y0155775D01*
X0294649Y0156774D02*
X0291256Y0156774D01*
X0290764Y0157772D02*
X0295142Y0157772D01*
X0296360Y0158771D02*
X0289545Y0158771D01*
X0286360Y0158771D02*
X0280286Y0158771D01*
X0280423Y0158679D02*
X0279788Y0159103D01*
X0279083Y0159395D01*
X0278334Y0159544D01*
X0278240Y0159544D01*
X0278240Y0155957D01*
X0277665Y0155957D01*
X0277665Y0155382D01*
X0274078Y0155382D01*
X0274078Y0155288D01*
X0274227Y0154539D01*
X0274519Y0153834D01*
X0274943Y0153199D01*
X0275483Y0152660D01*
X0276117Y0152235D01*
X0276823Y0151943D01*
X0277571Y0151794D01*
X0277665Y0151794D01*
X0277665Y0155382D01*
X0278240Y0155382D01*
X0278240Y0151794D01*
X0278334Y0151794D01*
X0279083Y0151943D01*
X0279788Y0152235D01*
X0280423Y0152660D01*
X0280963Y0153199D01*
X0281387Y0153834D01*
X0281679Y0154539D01*
X0281828Y0155288D01*
X0281828Y0155382D01*
X0278240Y0155382D01*
X0278240Y0155957D01*
X0281828Y0155957D01*
X0281828Y0156051D01*
X0281679Y0156800D01*
X0281387Y0157505D01*
X0280963Y0158139D01*
X0280423Y0158679D01*
X0281208Y0157772D02*
X0285142Y0157772D01*
X0284649Y0156774D02*
X0281684Y0156774D01*
X0281726Y0154777D02*
X0284561Y0154777D01*
X0284478Y0155775D02*
X0278240Y0155775D01*
X0277665Y0155775D02*
X0271428Y0155775D01*
X0271428Y0156360D02*
X0270899Y0157638D01*
X0269921Y0158615D01*
X0268644Y0159144D01*
X0267262Y0159144D01*
X0265984Y0158615D01*
X0265007Y0157638D01*
X0264478Y0156360D01*
X0264478Y0154978D01*
X0265007Y0153701D01*
X0265984Y0152723D01*
X0267262Y0152194D01*
X0268644Y0152194D01*
X0269921Y0152723D01*
X0270899Y0153701D01*
X0271428Y0154978D01*
X0271428Y0156360D01*
X0271256Y0156774D02*
X0274222Y0156774D01*
X0274227Y0156800D02*
X0274078Y0156051D01*
X0274078Y0155957D01*
X0277665Y0155957D01*
X0277665Y0159544D01*
X0277571Y0159544D01*
X0276823Y0159395D01*
X0276117Y0159103D01*
X0275483Y0158679D01*
X0274943Y0158139D01*
X0274519Y0157505D01*
X0274227Y0156800D01*
X0274698Y0157772D02*
X0270764Y0157772D01*
X0269545Y0158771D02*
X0275620Y0158771D01*
X0277665Y0158771D02*
X0278240Y0158771D01*
X0278240Y0157772D02*
X0277665Y0157772D01*
X0277665Y0156774D02*
X0278240Y0156774D01*
X0278240Y0154777D02*
X0277665Y0154777D01*
X0277665Y0153778D02*
X0278240Y0153778D01*
X0278240Y0152780D02*
X0277665Y0152780D01*
X0275363Y0152780D02*
X0269977Y0152780D01*
X0270931Y0153778D02*
X0274556Y0153778D01*
X0274180Y0154777D02*
X0271344Y0154777D01*
X0265928Y0152780D02*
X0259977Y0152780D01*
X0259921Y0152723D02*
X0260899Y0153701D01*
X0261428Y0154978D01*
X0261428Y0156360D01*
X0260899Y0157638D01*
X0259921Y0158615D01*
X0258644Y0159144D01*
X0257262Y0159144D01*
X0255984Y0158615D01*
X0255007Y0157638D01*
X0254478Y0156360D01*
X0254478Y0154978D01*
X0255007Y0153701D01*
X0255984Y0152723D01*
X0257262Y0152194D01*
X0258644Y0152194D01*
X0259921Y0152723D01*
X0260931Y0153778D02*
X0264975Y0153778D01*
X0264561Y0154777D02*
X0261344Y0154777D01*
X0261428Y0155775D02*
X0264478Y0155775D01*
X0264649Y0156774D02*
X0261256Y0156774D01*
X0260764Y0157772D02*
X0265142Y0157772D01*
X0266360Y0158771D02*
X0259545Y0158771D01*
X0256360Y0158771D02*
X0249545Y0158771D01*
X0249921Y0158615D02*
X0248644Y0159144D01*
X0247262Y0159144D01*
X0245984Y0158615D01*
X0245007Y0157638D01*
X0244478Y0156360D01*
X0244478Y0154978D01*
X0245007Y0153701D01*
X0245984Y0152723D01*
X0247262Y0152194D01*
X0248644Y0152194D01*
X0249921Y0152723D01*
X0250899Y0153701D01*
X0251428Y0154978D01*
X0251428Y0156360D01*
X0250899Y0157638D01*
X0249921Y0158615D01*
X0250764Y0157772D02*
X0255142Y0157772D01*
X0254649Y0156774D02*
X0251256Y0156774D01*
X0251428Y0155775D02*
X0254478Y0155775D01*
X0254561Y0154777D02*
X0251344Y0154777D01*
X0250931Y0153778D02*
X0254975Y0153778D01*
X0255928Y0152780D02*
X0249977Y0152780D01*
X0245928Y0152780D02*
X0239977Y0152780D01*
X0239921Y0152723D02*
X0240899Y0153701D01*
X0241428Y0154978D01*
X0241428Y0156360D01*
X0240899Y0157638D01*
X0239921Y0158615D01*
X0238644Y0159144D01*
X0237262Y0159144D01*
X0235984Y0158615D01*
X0235007Y0157638D01*
X0234478Y0156360D01*
X0234478Y0154978D01*
X0235007Y0153701D01*
X0235984Y0152723D01*
X0237262Y0152194D01*
X0238644Y0152194D01*
X0239921Y0152723D01*
X0240931Y0153778D02*
X0244975Y0153778D01*
X0244561Y0154777D02*
X0241344Y0154777D01*
X0241428Y0155775D02*
X0244478Y0155775D01*
X0244649Y0156774D02*
X0241256Y0156774D01*
X0240764Y0157772D02*
X0245142Y0157772D01*
X0246360Y0158771D02*
X0239545Y0158771D01*
X0236360Y0158771D02*
X0229545Y0158771D01*
X0229921Y0158615D02*
X0228644Y0159144D01*
X0227262Y0159144D01*
X0225984Y0158615D01*
X0225007Y0157638D01*
X0224478Y0156360D01*
X0224478Y0154978D01*
X0225007Y0153701D01*
X0225984Y0152723D01*
X0227262Y0152194D01*
X0228644Y0152194D01*
X0229921Y0152723D01*
X0230899Y0153701D01*
X0231428Y0154978D01*
X0231428Y0156360D01*
X0230899Y0157638D01*
X0229921Y0158615D01*
X0230764Y0157772D02*
X0235142Y0157772D01*
X0234649Y0156774D02*
X0231256Y0156774D01*
X0231428Y0155775D02*
X0234478Y0155775D01*
X0234561Y0154777D02*
X0231344Y0154777D01*
X0230931Y0153778D02*
X0234975Y0153778D01*
X0235928Y0152780D02*
X0229977Y0152780D01*
X0225928Y0152780D02*
X0219977Y0152780D01*
X0219921Y0152723D02*
X0220899Y0153701D01*
X0221428Y0154978D01*
X0221428Y0156360D01*
X0220899Y0157638D01*
X0219921Y0158615D01*
X0218644Y0159144D01*
X0217262Y0159144D01*
X0215984Y0158615D01*
X0215007Y0157638D01*
X0214478Y0156360D01*
X0214478Y0154978D01*
X0215007Y0153701D01*
X0215984Y0152723D01*
X0217262Y0152194D01*
X0218644Y0152194D01*
X0219921Y0152723D01*
X0220931Y0153778D02*
X0224975Y0153778D01*
X0224561Y0154777D02*
X0221344Y0154777D01*
X0221428Y0155775D02*
X0224478Y0155775D01*
X0224649Y0156774D02*
X0221256Y0156774D01*
X0220764Y0157772D02*
X0225142Y0157772D01*
X0226360Y0158771D02*
X0219545Y0158771D01*
X0216360Y0158771D02*
X0209545Y0158771D01*
X0209921Y0158615D02*
X0208644Y0159144D01*
X0207262Y0159144D01*
X0205984Y0158615D01*
X0205007Y0157638D01*
X0204478Y0156360D01*
X0204478Y0154978D01*
X0205007Y0153701D01*
X0205984Y0152723D01*
X0207262Y0152194D01*
X0208644Y0152194D01*
X0209921Y0152723D01*
X0210899Y0153701D01*
X0211428Y0154978D01*
X0211428Y0156360D01*
X0210899Y0157638D01*
X0209921Y0158615D01*
X0210764Y0157772D02*
X0215142Y0157772D01*
X0214649Y0156774D02*
X0211256Y0156774D01*
X0211428Y0155775D02*
X0214478Y0155775D01*
X0214561Y0154777D02*
X0211344Y0154777D01*
X0210931Y0153778D02*
X0214975Y0153778D01*
X0215928Y0152780D02*
X0209977Y0152780D01*
X0209509Y0148786D02*
X0215642Y0148786D01*
X0214708Y0147787D02*
X0210749Y0147787D01*
X0205928Y0152780D02*
X0200543Y0152780D01*
X0200423Y0152660D02*
X0200962Y0153199D01*
X0201387Y0153834D01*
X0201679Y0154539D01*
X0201828Y0155288D01*
X0201828Y0155382D01*
X0198240Y0155382D01*
X0198240Y0151794D01*
X0198334Y0151794D01*
X0199083Y0151943D01*
X0199788Y0152235D01*
X0200423Y0152660D01*
X0201349Y0153778D02*
X0204975Y0153778D01*
X0204561Y0154777D02*
X0201726Y0154777D01*
X0201828Y0155957D02*
X0201828Y0156051D01*
X0201679Y0156800D01*
X0201387Y0157505D01*
X0200962Y0158139D01*
X0200423Y0158679D01*
X0199788Y0159103D01*
X0199083Y0159395D01*
X0198334Y0159544D01*
X0198240Y0159544D01*
X0198240Y0155957D01*
X0197665Y0155957D01*
X0197665Y0155382D01*
X0194078Y0155382D01*
X0194078Y0155288D01*
X0194227Y0154539D01*
X0194519Y0153834D01*
X0194943Y0153199D01*
X0195483Y0152660D01*
X0196117Y0152235D01*
X0196823Y0151943D01*
X0197571Y0151794D01*
X0197665Y0151794D01*
X0197665Y0155382D01*
X0198240Y0155382D01*
X0198240Y0155957D01*
X0201828Y0155957D01*
X0201684Y0156774D02*
X0204649Y0156774D01*
X0204478Y0155775D02*
X0198240Y0155775D01*
X0197665Y0155775D02*
X0191428Y0155775D01*
X0191428Y0156360D02*
X0190899Y0157638D01*
X0189921Y0158615D01*
X0188644Y0159144D01*
X0187262Y0159144D01*
X0185984Y0158615D01*
X0185007Y0157638D01*
X0184478Y0156360D01*
X0184478Y0154978D01*
X0185007Y0153701D01*
X0185984Y0152723D01*
X0187262Y0152194D01*
X0188644Y0152194D01*
X0189921Y0152723D01*
X0190899Y0153701D01*
X0191428Y0154978D01*
X0191428Y0156360D01*
X0191256Y0156774D02*
X0194222Y0156774D01*
X0194227Y0156800D02*
X0194078Y0156051D01*
X0194078Y0155957D01*
X0197665Y0155957D01*
X0197665Y0159544D01*
X0197571Y0159544D01*
X0196823Y0159395D01*
X0196117Y0159103D01*
X0195483Y0158679D01*
X0194943Y0158139D01*
X0194519Y0157505D01*
X0194227Y0156800D01*
X0194698Y0157772D02*
X0190764Y0157772D01*
X0189545Y0158771D02*
X0195620Y0158771D01*
X0197665Y0158771D02*
X0198240Y0158771D01*
X0198240Y0157772D02*
X0197665Y0157772D01*
X0197665Y0156774D02*
X0198240Y0156774D01*
X0198240Y0154777D02*
X0197665Y0154777D01*
X0197665Y0153778D02*
X0198240Y0153778D01*
X0198240Y0152780D02*
X0197665Y0152780D01*
X0195363Y0152780D02*
X0189977Y0152780D01*
X0190931Y0153778D02*
X0194556Y0153778D01*
X0194180Y0154777D02*
X0191344Y0154777D01*
X0185928Y0152780D02*
X0179977Y0152780D01*
X0179921Y0152723D02*
X0180899Y0153701D01*
X0181428Y0154978D01*
X0181428Y0156360D01*
X0180899Y0157638D01*
X0179921Y0158615D01*
X0178644Y0159144D01*
X0177262Y0159144D01*
X0175984Y0158615D01*
X0175007Y0157638D01*
X0174478Y0156360D01*
X0174478Y0154978D01*
X0175007Y0153701D01*
X0175984Y0152723D01*
X0177262Y0152194D01*
X0178644Y0152194D01*
X0179921Y0152723D01*
X0180931Y0153778D02*
X0184975Y0153778D01*
X0184561Y0154777D02*
X0181344Y0154777D01*
X0181428Y0155775D02*
X0184478Y0155775D01*
X0184649Y0156774D02*
X0181256Y0156774D01*
X0180764Y0157772D02*
X0185142Y0157772D01*
X0186360Y0158771D02*
X0179545Y0158771D01*
X0176360Y0158771D02*
X0169545Y0158771D01*
X0169921Y0158615D02*
X0168644Y0159144D01*
X0167262Y0159144D01*
X0165984Y0158615D01*
X0165007Y0157638D01*
X0164478Y0156360D01*
X0164478Y0154978D01*
X0165007Y0153701D01*
X0165984Y0152723D01*
X0167262Y0152194D01*
X0168644Y0152194D01*
X0169921Y0152723D01*
X0170899Y0153701D01*
X0171428Y0154978D01*
X0171428Y0156360D01*
X0170899Y0157638D01*
X0169921Y0158615D01*
X0170764Y0157772D02*
X0175142Y0157772D01*
X0174649Y0156774D02*
X0171256Y0156774D01*
X0171428Y0155775D02*
X0174478Y0155775D01*
X0174561Y0154777D02*
X0171344Y0154777D01*
X0170931Y0153778D02*
X0174975Y0153778D01*
X0175928Y0152780D02*
X0169977Y0152780D01*
X0169509Y0148786D02*
X0175642Y0148786D01*
X0174708Y0147787D02*
X0170749Y0147787D01*
X0165928Y0152780D02*
X0159977Y0152780D01*
X0160931Y0153778D02*
X0164975Y0153778D01*
X0164561Y0154777D02*
X0161344Y0154777D01*
X0161428Y0155775D02*
X0164478Y0155775D01*
X0164649Y0156774D02*
X0161256Y0156774D01*
X0160764Y0157772D02*
X0165142Y0157772D01*
X0166360Y0158771D02*
X0159545Y0158771D01*
X0156360Y0158771D02*
X0058868Y0158771D01*
X0058607Y0157772D02*
X0155142Y0157772D01*
X0154649Y0156774D02*
X0058071Y0156774D01*
X0056905Y0155775D02*
X0154478Y0155775D01*
X0154561Y0154777D02*
X0025000Y0154777D01*
X0025000Y0155775D02*
X0043095Y0155775D01*
X0041929Y0156774D02*
X0025000Y0156774D01*
X0025000Y0157772D02*
X0041393Y0157772D01*
X0041131Y0158771D02*
X0025000Y0158771D01*
X0025000Y0159769D02*
X0041131Y0159769D01*
X0041473Y0160768D02*
X0025000Y0160768D01*
X0025000Y0161766D02*
X0042122Y0161766D01*
X0042435Y0165760D02*
X0025000Y0165760D01*
X0025000Y0164762D02*
X0350894Y0164762D01*
X0350894Y0165760D02*
X0057565Y0165760D01*
X0058522Y0166759D02*
X0350894Y0166759D01*
X0350894Y0167757D02*
X0059028Y0167757D01*
X0052122Y0161766D02*
X0047878Y0161766D01*
X0048527Y0160768D02*
X0051473Y0160768D01*
X0051131Y0159769D02*
X0048868Y0159769D01*
X0048868Y0158771D02*
X0051131Y0158771D01*
X0051393Y0157772D02*
X0048607Y0157772D01*
X0048071Y0156774D02*
X0051929Y0156774D01*
X0053095Y0155775D02*
X0046905Y0155775D01*
X0057863Y0151781D02*
X0077813Y0151781D01*
X0076812Y0150783D02*
X0058521Y0150783D01*
X0058868Y0149784D02*
X0076345Y0149784D01*
X0076131Y0148786D02*
X0058868Y0148786D01*
X0058613Y0147787D02*
X0076131Y0147787D01*
X0076522Y0146789D02*
X0058086Y0146789D01*
X0056941Y0145790D02*
X0077239Y0145790D01*
X0083655Y0149784D02*
X0085929Y0149784D01*
X0086382Y0150783D02*
X0083188Y0150783D01*
X0082187Y0151781D02*
X0087254Y0151781D01*
X0102187Y0151781D02*
X0107813Y0151781D01*
X0106812Y0150783D02*
X0103188Y0150783D01*
X0103655Y0149784D02*
X0106345Y0149784D01*
X0106131Y0148786D02*
X0103868Y0148786D01*
X0103868Y0147787D02*
X0106131Y0147787D01*
X0106522Y0146789D02*
X0103478Y0146789D01*
X0102761Y0145790D02*
X0107239Y0145790D01*
X0113655Y0149784D02*
X0350894Y0149784D01*
X0350894Y0148786D02*
X0349509Y0148786D01*
X0350749Y0147787D02*
X0350894Y0147787D01*
X0350894Y0150783D02*
X0113188Y0150783D01*
X0112187Y0151781D02*
X0350894Y0151781D01*
X0350894Y0152780D02*
X0350543Y0152780D01*
X0348240Y0152780D02*
X0347665Y0152780D01*
X0347665Y0153778D02*
X0348240Y0153778D01*
X0348240Y0154777D02*
X0347665Y0154777D01*
X0350894Y0136803D02*
X0332280Y0136803D01*
X0332792Y0135805D02*
X0350894Y0135805D01*
X0350894Y0134806D02*
X0332887Y0134806D01*
X0332632Y0133808D02*
X0350894Y0133808D01*
X0350894Y0124821D02*
X0025000Y0124821D01*
X0025000Y0123823D02*
X0350894Y0123823D01*
X0350894Y0120827D02*
X0312813Y0120827D01*
X0313501Y0119829D02*
X0350894Y0119829D01*
X0350894Y0118830D02*
X0313781Y0118830D01*
X0313775Y0117832D02*
X0350894Y0117832D01*
X0315642Y0148786D02*
X0309509Y0148786D01*
X0310749Y0147787D02*
X0314708Y0147787D01*
X0295348Y0142795D02*
X0289992Y0142795D01*
X0290937Y0143793D02*
X0294546Y0143793D01*
X0285928Y0152780D02*
X0280543Y0152780D01*
X0281349Y0153778D02*
X0284975Y0153778D01*
X0245348Y0142795D02*
X0239992Y0142795D01*
X0240937Y0143793D02*
X0244546Y0143793D01*
X0206360Y0158771D02*
X0200286Y0158771D01*
X0201208Y0157772D02*
X0205142Y0157772D01*
X0155913Y0142795D02*
X0056366Y0142795D01*
X0043634Y0142795D02*
X0025000Y0142795D01*
X0025000Y0143793D02*
X0154969Y0143793D01*
X0166262Y0086878D02*
X0166738Y0086878D01*
X0171262Y0086878D02*
X0171738Y0086878D01*
X0171974Y0081885D02*
X0171026Y0081885D01*
X0166974Y0081885D02*
X0166026Y0081885D01*
X0161974Y0081885D02*
X0058306Y0081885D01*
X0057120Y0082884D02*
X0161118Y0082884D01*
X0121946Y0062914D02*
X0120554Y0062914D01*
X0120734Y0067906D02*
X0121766Y0067906D01*
X0118710Y0051930D02*
X0131347Y0051930D01*
X0130468Y0050932D02*
X0119458Y0050932D01*
X0119781Y0049933D02*
X0130113Y0049933D01*
X0130113Y0048934D02*
X0119781Y0048934D01*
X0119404Y0047936D02*
X0130523Y0047936D01*
X0131641Y0046937D02*
X0119982Y0046937D01*
X0166091Y0038949D02*
X0025000Y0038949D01*
X0025000Y0037951D02*
X0166909Y0037951D01*
X0171091Y0037951D02*
X0171909Y0037951D01*
X0176091Y0037951D02*
X0350894Y0037951D01*
X0350894Y0038949D02*
X0176909Y0038949D01*
X0177281Y0039948D02*
X0350894Y0039948D01*
X0350894Y0040946D02*
X0177281Y0040946D01*
X0176953Y0041945D02*
X0269915Y0041945D01*
X0270141Y0041718D02*
X0271347Y0041219D01*
X0272653Y0041219D01*
X0273859Y0041718D01*
X0274750Y0042610D01*
X0275641Y0041718D01*
X0276847Y0041219D01*
X0278153Y0041219D01*
X0279359Y0041718D01*
X0280250Y0042610D01*
X0281141Y0041718D01*
X0282347Y0041219D01*
X0283653Y0041219D01*
X0284859Y0041718D01*
X0285782Y0042641D01*
X0286281Y0043847D01*
X0286281Y0045153D01*
X0285782Y0046359D01*
X0284859Y0047282D01*
X0283653Y0047781D01*
X0282347Y0047781D01*
X0281141Y0047282D01*
X0280250Y0046390D01*
X0279359Y0047282D01*
X0278153Y0047781D01*
X0276847Y0047781D01*
X0275641Y0047282D01*
X0274750Y0046390D01*
X0273859Y0047282D01*
X0272653Y0047781D01*
X0271347Y0047781D01*
X0270141Y0047282D01*
X0269218Y0046359D01*
X0268719Y0045153D01*
X0268719Y0043847D01*
X0269218Y0042641D01*
X0270141Y0041718D01*
X0269093Y0042943D02*
X0202695Y0042943D01*
X0204082Y0043942D02*
X0268719Y0043942D01*
X0268719Y0044940D02*
X0204613Y0044940D01*
X0204781Y0045939D02*
X0269045Y0045939D01*
X0269797Y0046937D02*
X0204663Y0046937D01*
X0204204Y0047936D02*
X0350894Y0047936D01*
X0350894Y0048934D02*
X0202989Y0048934D01*
X0200011Y0048934D02*
X0197989Y0048934D01*
X0197695Y0042943D02*
X0200305Y0042943D01*
X0195305Y0042943D02*
X0176197Y0042943D01*
X0171803Y0042943D02*
X0171197Y0042943D01*
X0233113Y0074896D02*
X0025000Y0074896D01*
X0025000Y0075894D02*
X0042251Y0075894D01*
X0042219Y0075917D02*
X0042763Y0075522D01*
X0043361Y0075217D01*
X0044000Y0075010D01*
X0044516Y0074928D01*
X0044516Y0078689D01*
X0040755Y0078689D01*
X0040837Y0078174D01*
X0041044Y0077535D01*
X0041349Y0076936D01*
X0041744Y0076392D01*
X0042219Y0075917D01*
X0041381Y0076893D02*
X0025000Y0076893D01*
X0025000Y0077891D02*
X0040928Y0077891D01*
X0040792Y0079888D02*
X0025000Y0079888D01*
X0025000Y0078890D02*
X0044516Y0078890D01*
X0045484Y0078890D02*
X0054516Y0078890D01*
X0054516Y0077891D02*
X0055484Y0077891D01*
X0055484Y0076893D02*
X0054516Y0076893D01*
X0054516Y0075894D02*
X0055484Y0075894D01*
X0057749Y0075894D02*
X0232719Y0075894D01*
X0232719Y0076893D02*
X0058619Y0076893D01*
X0059072Y0077891D02*
X0233025Y0077891D01*
X0255529Y0079888D02*
X0277971Y0079888D01*
X0278141Y0079718D02*
X0279347Y0079219D01*
X0280653Y0079219D01*
X0281859Y0079718D01*
X0282782Y0080641D01*
X0283281Y0081847D01*
X0283281Y0083153D01*
X0282782Y0084359D01*
X0281859Y0085282D01*
X0280653Y0085781D01*
X0279347Y0085781D01*
X0278141Y0085282D01*
X0277218Y0084359D01*
X0276719Y0083153D01*
X0276719Y0081847D01*
X0277218Y0080641D01*
X0278141Y0079718D01*
X0277117Y0080887D02*
X0256383Y0080887D01*
X0256781Y0081885D02*
X0276719Y0081885D01*
X0276719Y0082884D02*
X0256781Y0082884D01*
X0256479Y0083882D02*
X0277021Y0083882D01*
X0277741Y0084881D02*
X0255759Y0084881D01*
X0282259Y0084881D02*
X0317741Y0084881D01*
X0317021Y0083882D02*
X0282979Y0083882D01*
X0283281Y0082884D02*
X0316719Y0082884D01*
X0316719Y0081885D02*
X0283281Y0081885D01*
X0282883Y0080887D02*
X0317117Y0080887D01*
X0317971Y0079888D02*
X0282029Y0079888D01*
X0280797Y0046937D02*
X0279703Y0046937D01*
X0275297Y0046937D02*
X0274203Y0046937D01*
X0274085Y0041945D02*
X0275415Y0041945D01*
X0279585Y0041945D02*
X0280915Y0041945D01*
X0285085Y0041945D02*
X0350894Y0041945D01*
X0350894Y0042943D02*
X0285907Y0042943D01*
X0286281Y0043942D02*
X0350894Y0043942D01*
X0350894Y0044940D02*
X0286281Y0044940D01*
X0285955Y0045939D02*
X0350894Y0045939D01*
X0350894Y0046937D02*
X0285203Y0046937D01*
X0350894Y0036952D02*
X0025000Y0036952D01*
X0025000Y0035954D02*
X0350894Y0035954D01*
X0350894Y0034955D02*
X0025000Y0034955D01*
X0025000Y0033957D02*
X0350894Y0033957D01*
X0350894Y0032958D02*
X0025000Y0032958D01*
X0025000Y0031960D02*
X0350894Y0031960D01*
X0350894Y0030961D02*
X0025000Y0030961D01*
X0025000Y0029963D02*
X0350894Y0029963D01*
X0350894Y0028964D02*
X0025000Y0028964D01*
X0025000Y0027966D02*
X0350894Y0027966D01*
X0350894Y0026967D02*
X0025000Y0026967D01*
X0025000Y0025969D02*
X0350894Y0025969D01*
X0350894Y0024970D02*
X0025000Y0024970D01*
X0025000Y0023972D02*
X0350894Y0023972D01*
X0350894Y0022973D02*
X0025000Y0022973D01*
X0025000Y0021975D02*
X0350894Y0021975D01*
X0350894Y0020976D02*
X0025000Y0020976D01*
X0025000Y0019978D02*
X0350894Y0019978D01*
X0350894Y0018979D02*
X0025000Y0018979D01*
X0025000Y0017981D02*
X0350894Y0017981D01*
X0350894Y0016982D02*
X0025000Y0016982D01*
X0025000Y0015984D02*
X0350894Y0015984D01*
X0350894Y0014985D02*
X0025000Y0014985D01*
X0025000Y0013987D02*
X0350894Y0013987D01*
X0350894Y0012988D02*
X0025000Y0012988D01*
X0025000Y0011990D02*
X0350894Y0011990D01*
X0350894Y0010991D02*
X0025000Y0010991D01*
X0025000Y0009993D02*
X0350894Y0009993D01*
X0094034Y0083882D02*
X0025000Y0083882D01*
X0025000Y0082884D02*
X0042880Y0082884D01*
X0041694Y0081885D02*
X0025000Y0081885D01*
X0025000Y0080887D02*
X0041082Y0080887D01*
X0044516Y0080887D02*
X0045484Y0080887D01*
X0045484Y0081885D02*
X0044516Y0081885D01*
X0044516Y0082884D02*
X0045484Y0082884D01*
X0045484Y0079888D02*
X0044516Y0079888D01*
X0044516Y0077891D02*
X0045484Y0077891D01*
X0045484Y0076893D02*
X0044516Y0076893D01*
X0044516Y0075894D02*
X0045484Y0075894D01*
X0042256Y0071900D02*
X0025000Y0071900D01*
X0025000Y0070902D02*
X0041529Y0070902D01*
X0041131Y0069903D02*
X0025000Y0069903D01*
X0025000Y0068905D02*
X0041131Y0068905D01*
X0041338Y0067906D02*
X0025000Y0067906D01*
X0025000Y0066908D02*
X0041795Y0066908D01*
X0042793Y0065909D02*
X0025000Y0065909D01*
X0025000Y0084881D02*
X0093338Y0084881D01*
X0043814Y0092869D02*
X0025000Y0092869D01*
X0025000Y0091870D02*
X0042226Y0091870D01*
X0041516Y0090872D02*
X0025000Y0090872D01*
X0025000Y0089873D02*
X0041131Y0089873D01*
X0041131Y0088875D02*
X0025000Y0088875D01*
X0025000Y0087876D02*
X0041350Y0087876D01*
X0041824Y0086878D02*
X0025000Y0086878D01*
X0025000Y0085879D02*
X0042843Y0085879D01*
X0042879Y0095865D02*
X0025000Y0095865D01*
X0025000Y0096863D02*
X0041839Y0096863D01*
X0041356Y0097862D02*
X0025000Y0097862D01*
X0025000Y0098860D02*
X0041131Y0098860D01*
X0041131Y0099859D02*
X0025000Y0099859D01*
X0025000Y0100857D02*
X0041510Y0100857D01*
X0042211Y0101856D02*
X0025000Y0101856D01*
X0025000Y0102854D02*
X0043778Y0102854D01*
X0042915Y0105850D02*
X0025000Y0105850D01*
X0025000Y0106848D02*
X0041854Y0106848D01*
X0041362Y0107847D02*
X0025000Y0107847D01*
X0025000Y0108845D02*
X0041131Y0108845D01*
X0041131Y0109844D02*
X0025000Y0109844D01*
X0025000Y0110842D02*
X0041504Y0110842D01*
X0042197Y0111841D02*
X0025000Y0111841D01*
X0025000Y0112839D02*
X0043742Y0112839D01*
X0042951Y0115835D02*
X0025000Y0115835D01*
X0025000Y0116833D02*
X0041869Y0116833D01*
X0041368Y0117832D02*
X0025000Y0117832D01*
X0025000Y0118830D02*
X0041131Y0118830D01*
X0041131Y0119829D02*
X0025000Y0119829D01*
X0025000Y0120827D02*
X0041498Y0120827D01*
X0042182Y0121826D02*
X0025000Y0121826D01*
X0025000Y0122824D02*
X0043706Y0122824D01*
X0042987Y0125820D02*
X0025000Y0125820D01*
X0025000Y0126818D02*
X0041884Y0126818D01*
X0041375Y0127817D02*
X0025000Y0127817D01*
X0025000Y0128815D02*
X0041131Y0128815D01*
X0041131Y0129814D02*
X0025000Y0129814D01*
X0025000Y0130812D02*
X0041492Y0130812D01*
X0042167Y0131811D02*
X0025000Y0131811D01*
X0025000Y0132809D02*
X0043670Y0132809D01*
X0043023Y0135805D02*
X0025000Y0135805D01*
X0025000Y0136803D02*
X0041899Y0136803D01*
X0041381Y0137802D02*
X0025000Y0137802D01*
X0025000Y0138801D02*
X0041131Y0138801D01*
X0041131Y0139799D02*
X0025000Y0139799D01*
X0025000Y0140798D02*
X0041486Y0140798D01*
X0042152Y0141796D02*
X0025000Y0141796D01*
X0025000Y0166759D02*
X0041478Y0166759D01*
X0040972Y0167757D02*
X0025000Y0167757D01*
X0025000Y0256625D02*
X0042077Y0256625D01*
X0041455Y0257623D02*
X0025000Y0257623D01*
X0025000Y0258622D02*
X0041131Y0258622D01*
X0041131Y0259620D02*
X0025000Y0259620D01*
X0025000Y0260619D02*
X0041412Y0260619D01*
X0041973Y0261617D02*
X0025000Y0261617D01*
D17*
X0144000Y0240000D03*
X0150000Y0240000D03*
X0148500Y0186000D03*
X0175000Y0110500D03*
X0175000Y0105500D03*
X0195000Y0105500D03*
X0195000Y0110500D03*
X0215000Y0110500D03*
X0215000Y0105500D03*
X0236000Y0086500D03*
X0236000Y0081500D03*
X0236000Y0076500D03*
X0253500Y0082500D03*
X0280000Y0082500D03*
X0270500Y0059500D03*
X0265000Y0059500D03*
X0259500Y0059500D03*
X0272000Y0044500D03*
X0277500Y0044500D03*
X0283000Y0044500D03*
X0298000Y0040500D03*
X0298000Y0036000D03*
X0296500Y0031500D03*
X0281500Y0026000D03*
X0269000Y0026500D03*
X0247000Y0026500D03*
X0219500Y0040500D03*
X0208000Y0031000D03*
X0194500Y0031000D03*
X0174000Y0028500D03*
X0169000Y0028500D03*
X0169000Y0040500D03*
X0174000Y0040500D03*
X0196500Y0046000D03*
X0201500Y0046000D03*
X0174000Y0084500D03*
X0169000Y0084500D03*
X0164000Y0084500D03*
X0124000Y0065500D03*
X0118500Y0065500D03*
X0125000Y0055000D03*
X0116500Y0049500D03*
X0118500Y0044000D03*
X0125000Y0043500D03*
X0310500Y0118500D03*
X0332000Y0112500D03*
X0342000Y0113500D03*
X0346500Y0082500D03*
X0320000Y0082500D03*
X0329500Y0059500D03*
X0335000Y0059500D03*
X0340500Y0059500D03*
X0341000Y0240500D03*
X0326500Y0240500D03*
X0293500Y0238500D03*
X0293500Y0244500D03*
X0205000Y0305500D03*
X0222000Y0319000D03*
X0222000Y0341000D03*
M02*
