G75*
%MOIN*%
%OFA0B0*%
%FSLAX25Y25*%
%IPPOS*%
%LPD*%
%AMOC8*
5,1,8,0,0,1.08239X$1,22.5*
%
%ADD10C,0.00800*%
%ADD11C,0.09055*%
%ADD12R,0.05906X0.05118*%
%ADD13R,0.14567X0.07087*%
%ADD14R,0.05537X0.05537*%
%ADD15C,0.05537*%
%ADD16R,0.05118X0.01575*%
%ADD17R,0.02362X0.08661*%
%ADD18R,0.06299X0.01181*%
%ADD19R,0.01181X0.06299*%
%ADD20C,0.03175*%
%ADD21C,0.00500*%
%ADD22C,0.16598*%
%ADD23R,0.02362X0.04331*%
%ADD24R,0.18110X0.07087*%
%ADD25R,0.05118X0.05906*%
%ADD26R,0.05906X0.01772*%
%ADD27R,0.04750X0.04750*%
%ADD28C,0.04750*%
%ADD29OC8,0.04750*%
%ADD30R,0.03543X0.01969*%
%ADD31R,0.02165X0.04724*%
%ADD32R,0.08661X0.02362*%
%ADD33C,0.01260*%
%ADD34R,0.00500X0.01000*%
%ADD35OC8,0.08500*%
%ADD36R,0.28740X0.03150*%
%ADD37C,0.01000*%
%ADD38R,0.01102X0.03228*%
%ADD39R,0.21654X0.06220*%
%ADD40C,0.03962*%
%ADD41C,0.04000*%
%ADD42C,0.05000*%
%ADD43C,0.03200*%
%ADD44C,0.01600*%
%ADD45C,0.02400*%
%ADD46C,0.07000*%
D10*
X0013395Y0010400D02*
X0013395Y0014537D01*
X0013395Y0012468D02*
X0019600Y0012468D01*
X0018566Y0016845D02*
X0019600Y0017880D01*
X0019600Y0019948D01*
X0018566Y0020982D01*
X0016497Y0020982D01*
X0015463Y0019948D01*
X0015463Y0017880D01*
X0016497Y0016845D01*
X0018566Y0016845D01*
X0019600Y0023291D02*
X0019600Y0026394D01*
X0018566Y0027428D01*
X0016497Y0027428D01*
X0015463Y0026394D01*
X0015463Y0023291D01*
X0021668Y0023291D01*
X0019600Y0036182D02*
X0019600Y0038250D01*
X0019600Y0037216D02*
X0013395Y0037216D01*
X0013395Y0036182D01*
X0015463Y0041513D02*
X0015463Y0043582D01*
X0016497Y0044616D01*
X0019600Y0044616D01*
X0019600Y0041513D01*
X0018566Y0040479D01*
X0017532Y0041513D01*
X0017532Y0044616D01*
X0018566Y0046924D02*
X0019600Y0047959D01*
X0019600Y0051061D01*
X0020634Y0051061D02*
X0015463Y0051061D01*
X0016497Y0053370D02*
X0015463Y0054404D01*
X0015463Y0056473D01*
X0016497Y0057507D01*
X0017532Y0057507D01*
X0017532Y0053370D01*
X0018566Y0053370D02*
X0016497Y0053370D01*
X0018566Y0053370D02*
X0019600Y0054404D01*
X0019600Y0056473D01*
X0019600Y0059815D02*
X0015463Y0059815D01*
X0017532Y0059815D02*
X0015463Y0061884D01*
X0015463Y0062918D01*
X0020634Y0051061D02*
X0021668Y0050027D01*
X0021668Y0048993D01*
X0018566Y0046924D02*
X0015463Y0046924D01*
X0129606Y0091250D02*
X0135250Y0091250D01*
X0136000Y0092000D01*
X0136000Y0093000D01*
X0135250Y0093750D01*
X0129606Y0093750D01*
X0090394Y0216250D02*
X0085250Y0216250D01*
X0084500Y0217000D01*
X0084500Y0218000D01*
X0085250Y0218750D01*
X0090394Y0218750D01*
D11*
X0264055Y0308701D03*
X0264055Y0320906D03*
X0345945Y0320906D03*
X0345945Y0308701D03*
D12*
X0222000Y0326260D03*
X0222000Y0333740D03*
X0304500Y0126240D03*
X0304500Y0118760D03*
X0169500Y0099240D03*
X0169500Y0091760D03*
X0201000Y0039240D03*
X0201000Y0031760D03*
X0275000Y0033740D03*
X0275000Y0026260D03*
X0305000Y0026260D03*
X0315000Y0026260D03*
X0325000Y0026260D03*
X0325000Y0033740D03*
X0315000Y0033740D03*
X0305000Y0033740D03*
D13*
X0258500Y0026929D03*
X0258500Y0043071D03*
X0265000Y0066429D03*
X0265000Y0082571D03*
X0225000Y0081929D03*
X0205000Y0081929D03*
X0185000Y0081929D03*
X0185000Y0098071D03*
X0205000Y0098071D03*
X0225000Y0098071D03*
X0185000Y0043071D03*
X0185000Y0026929D03*
X0335000Y0066429D03*
X0335000Y0082571D03*
D14*
X0080000Y0148500D03*
X0055000Y0069173D03*
D15*
X0045000Y0069173D03*
X0045000Y0079173D03*
X0055000Y0079173D03*
X0055000Y0089173D03*
X0045000Y0089173D03*
X0045000Y0099173D03*
X0055000Y0099173D03*
X0055000Y0109173D03*
X0045000Y0109173D03*
X0045000Y0119173D03*
X0055000Y0119173D03*
X0055000Y0129173D03*
X0045000Y0129173D03*
X0045000Y0139173D03*
X0055000Y0139173D03*
X0055000Y0149173D03*
X0045000Y0149173D03*
X0045000Y0159173D03*
X0055000Y0159173D03*
X0055000Y0169173D03*
X0045000Y0169173D03*
X0045000Y0179173D03*
X0055000Y0179173D03*
X0055000Y0189173D03*
X0045000Y0189173D03*
X0045000Y0199173D03*
X0055000Y0199173D03*
X0055000Y0209173D03*
X0045000Y0209173D03*
X0045000Y0219173D03*
X0055000Y0219173D03*
X0055000Y0229173D03*
X0045000Y0229173D03*
X0045000Y0239173D03*
X0055000Y0239173D03*
X0055000Y0249173D03*
X0045000Y0249173D03*
X0045000Y0259173D03*
X0055000Y0259173D03*
X0055000Y0269173D03*
X0045000Y0269173D03*
X0045000Y0279173D03*
X0055000Y0279173D03*
X0055000Y0289173D03*
X0045000Y0289173D03*
X0045000Y0299173D03*
X0055000Y0299173D03*
X0055000Y0309173D03*
X0045000Y0309173D03*
X0045000Y0319173D03*
X0055000Y0319173D03*
X0055000Y0329173D03*
X0045000Y0329173D03*
X0045000Y0339173D03*
X0055000Y0339173D03*
X0090000Y0148500D03*
X0100000Y0148500D03*
X0110000Y0148500D03*
D16*
X0090394Y0166250D03*
X0090394Y0168750D03*
X0090394Y0171250D03*
X0090394Y0173750D03*
X0090394Y0176250D03*
X0090394Y0178750D03*
X0090394Y0181250D03*
X0090394Y0183750D03*
X0090394Y0186250D03*
X0090394Y0188750D03*
X0090394Y0191250D03*
X0090394Y0193750D03*
X0090394Y0196250D03*
X0090394Y0198750D03*
X0090394Y0201250D03*
X0090394Y0203750D03*
X0090394Y0206250D03*
X0090394Y0208750D03*
X0090394Y0211250D03*
X0090394Y0213750D03*
X0090394Y0216250D03*
X0090394Y0218750D03*
X0090394Y0221250D03*
X0090394Y0223750D03*
X0090394Y0246250D03*
X0090394Y0248750D03*
X0090394Y0251250D03*
X0090394Y0253750D03*
X0090394Y0256250D03*
X0090394Y0258750D03*
X0090394Y0261250D03*
X0090394Y0263750D03*
X0090394Y0266250D03*
X0090394Y0268750D03*
X0090394Y0271250D03*
X0090394Y0273750D03*
X0090394Y0276250D03*
X0090394Y0278750D03*
X0090394Y0281250D03*
X0090394Y0283750D03*
X0090394Y0286250D03*
X0090394Y0288750D03*
X0090394Y0291250D03*
X0090394Y0293750D03*
X0090394Y0296250D03*
X0090394Y0298750D03*
X0090394Y0301250D03*
X0090394Y0303750D03*
X0129606Y0303750D03*
X0129606Y0301250D03*
X0129606Y0298750D03*
X0129606Y0296250D03*
X0129606Y0293750D03*
X0129606Y0291250D03*
X0129606Y0288750D03*
X0129606Y0286250D03*
X0129606Y0283750D03*
X0129606Y0281250D03*
X0129606Y0278750D03*
X0129606Y0276250D03*
X0129606Y0273750D03*
X0129606Y0271250D03*
X0129606Y0268750D03*
X0129606Y0266250D03*
X0129606Y0263750D03*
X0129606Y0261250D03*
X0129606Y0258750D03*
X0129606Y0256250D03*
X0129606Y0253750D03*
X0129606Y0251250D03*
X0129606Y0248750D03*
X0129606Y0246250D03*
X0129606Y0223750D03*
X0129606Y0221250D03*
X0129606Y0218750D03*
X0129606Y0216250D03*
X0129606Y0213750D03*
X0129606Y0211250D03*
X0129606Y0208750D03*
X0129606Y0206250D03*
X0129606Y0203750D03*
X0129606Y0201250D03*
X0129606Y0198750D03*
X0129606Y0196250D03*
X0129606Y0193750D03*
X0129606Y0191250D03*
X0129606Y0188750D03*
X0129606Y0186250D03*
X0129606Y0183750D03*
X0129606Y0181250D03*
X0129606Y0178750D03*
X0129606Y0176250D03*
X0129606Y0173750D03*
X0129606Y0171250D03*
X0129606Y0168750D03*
X0129606Y0166250D03*
X0129606Y0128750D03*
X0129606Y0126250D03*
X0129606Y0123750D03*
X0129606Y0121250D03*
X0129606Y0118750D03*
X0129606Y0116250D03*
X0129606Y0113750D03*
X0129606Y0111250D03*
X0129606Y0108750D03*
X0129606Y0106250D03*
X0129606Y0103750D03*
X0129606Y0101250D03*
X0129606Y0098750D03*
X0129606Y0096250D03*
X0129606Y0093750D03*
X0129606Y0091250D03*
X0129606Y0088750D03*
X0129606Y0086250D03*
X0129606Y0083750D03*
X0129606Y0081250D03*
X0129606Y0078750D03*
X0129606Y0076250D03*
X0129606Y0073750D03*
X0129606Y0071250D03*
X0090394Y0071250D03*
X0090394Y0073750D03*
X0090394Y0076250D03*
X0090394Y0078750D03*
X0090394Y0081250D03*
X0090394Y0083750D03*
X0090394Y0086250D03*
X0090394Y0088750D03*
X0090394Y0091250D03*
X0090394Y0093750D03*
X0090394Y0096250D03*
X0090394Y0098750D03*
X0090394Y0101250D03*
X0090394Y0103750D03*
X0090394Y0106250D03*
X0090394Y0108750D03*
X0090394Y0111250D03*
X0090394Y0113750D03*
X0090394Y0116250D03*
X0090394Y0118750D03*
X0090394Y0121250D03*
X0090394Y0123750D03*
X0090394Y0126250D03*
X0090394Y0128750D03*
D17*
X0229500Y0319764D03*
X0234500Y0319764D03*
X0239500Y0319764D03*
X0244500Y0319764D03*
X0244500Y0340236D03*
X0239500Y0340236D03*
X0234500Y0340236D03*
X0229500Y0340236D03*
D18*
X0262717Y0264449D03*
X0262717Y0262480D03*
X0262717Y0260512D03*
X0262717Y0258543D03*
X0262717Y0256575D03*
X0262717Y0254606D03*
X0262717Y0252638D03*
X0262717Y0250669D03*
X0262717Y0248701D03*
X0262717Y0246732D03*
X0262717Y0244764D03*
X0262717Y0242795D03*
X0262717Y0240827D03*
X0262717Y0238858D03*
X0262717Y0236890D03*
X0262717Y0234921D03*
X0262717Y0232953D03*
X0262717Y0230984D03*
X0262717Y0229016D03*
X0262717Y0227047D03*
X0262717Y0225079D03*
X0262717Y0223110D03*
X0262717Y0221142D03*
X0262717Y0219173D03*
X0262717Y0217205D03*
X0262717Y0215236D03*
X0262717Y0213268D03*
X0262717Y0211299D03*
X0262717Y0209331D03*
X0262717Y0207362D03*
X0262717Y0205394D03*
X0262717Y0203425D03*
X0262717Y0201457D03*
X0262717Y0199488D03*
X0262717Y0197520D03*
X0262717Y0195551D03*
X0177283Y0195551D03*
X0177283Y0197520D03*
X0177283Y0199488D03*
X0177283Y0201457D03*
X0177283Y0203425D03*
X0177283Y0205394D03*
X0177283Y0207362D03*
X0177283Y0209331D03*
X0177283Y0211299D03*
X0177283Y0213268D03*
X0177283Y0215236D03*
X0177283Y0217205D03*
X0177283Y0219173D03*
X0177283Y0221142D03*
X0177283Y0223110D03*
X0177283Y0225079D03*
X0177283Y0227047D03*
X0177283Y0229016D03*
X0177283Y0230984D03*
X0177283Y0232953D03*
X0177283Y0234921D03*
X0177283Y0236890D03*
X0177283Y0238858D03*
X0177283Y0240827D03*
X0177283Y0242795D03*
X0177283Y0244764D03*
X0177283Y0246732D03*
X0177283Y0248701D03*
X0177283Y0250669D03*
X0177283Y0252638D03*
X0177283Y0254606D03*
X0177283Y0256575D03*
X0177283Y0258543D03*
X0177283Y0260512D03*
X0177283Y0262480D03*
X0177283Y0264449D03*
D19*
X0185551Y0272717D03*
X0187520Y0272717D03*
X0189488Y0272717D03*
X0191457Y0272717D03*
X0193425Y0272717D03*
X0195394Y0272717D03*
X0197362Y0272717D03*
X0199331Y0272717D03*
X0201299Y0272717D03*
X0203268Y0272717D03*
X0205236Y0272717D03*
X0207205Y0272717D03*
X0209173Y0272717D03*
X0211142Y0272717D03*
X0213110Y0272717D03*
X0215079Y0272717D03*
X0217047Y0272717D03*
X0219016Y0272717D03*
X0220984Y0272717D03*
X0222953Y0272717D03*
X0224921Y0272717D03*
X0226890Y0272717D03*
X0228858Y0272717D03*
X0230827Y0272717D03*
X0232795Y0272717D03*
X0234764Y0272717D03*
X0236732Y0272717D03*
X0238701Y0272717D03*
X0240669Y0272717D03*
X0242638Y0272717D03*
X0244606Y0272717D03*
X0246575Y0272717D03*
X0248543Y0272717D03*
X0250512Y0272717D03*
X0252480Y0272717D03*
X0254449Y0272717D03*
X0254449Y0187283D03*
X0252480Y0187283D03*
X0250512Y0187283D03*
X0248543Y0187283D03*
X0246575Y0187283D03*
X0244606Y0187283D03*
X0242638Y0187283D03*
X0240669Y0187283D03*
X0238701Y0187283D03*
X0236732Y0187283D03*
X0234764Y0187283D03*
X0232795Y0187283D03*
X0230827Y0187283D03*
X0228858Y0187283D03*
X0226890Y0187283D03*
X0224921Y0187283D03*
X0222953Y0187283D03*
X0220984Y0187283D03*
X0219016Y0187283D03*
X0217047Y0187283D03*
X0215079Y0187283D03*
X0213110Y0187283D03*
X0211142Y0187283D03*
X0209173Y0187283D03*
X0207205Y0187283D03*
X0205236Y0187283D03*
X0203268Y0187283D03*
X0201299Y0187283D03*
X0199331Y0187283D03*
X0197362Y0187283D03*
X0195394Y0187283D03*
X0193425Y0187283D03*
X0191457Y0187283D03*
X0189488Y0187283D03*
X0187520Y0187283D03*
X0185551Y0187283D03*
D20*
X0177500Y0190000D03*
X0185000Y0196500D03*
X0184500Y0201000D03*
X0184000Y0206500D03*
X0169500Y0215000D03*
X0184000Y0222000D03*
X0185000Y0229000D03*
X0184000Y0235000D03*
X0171500Y0232500D03*
X0167500Y0228500D03*
X0136000Y0223500D03*
X0124000Y0216500D03*
X0124000Y0209000D03*
X0124000Y0201000D03*
X0124000Y0189000D03*
X0124000Y0181000D03*
X0124000Y0173500D03*
X0096000Y0173500D03*
X0096000Y0181000D03*
X0096000Y0189000D03*
X0096000Y0201000D03*
X0096000Y0209000D03*
X0096000Y0216500D03*
X0160000Y0190000D03*
X0165500Y0185000D03*
X0165500Y0195000D03*
X0185500Y0182000D03*
X0192500Y0194000D03*
X0198500Y0194000D03*
X0209000Y0196000D03*
X0213000Y0193500D03*
X0216000Y0180000D03*
X0231500Y0194000D03*
X0236500Y0194000D03*
X0243500Y0194000D03*
X0250000Y0194000D03*
X0256000Y0199500D03*
X0256000Y0207000D03*
X0256000Y0212000D03*
X0256000Y0217291D03*
X0230000Y0220000D03*
X0210000Y0220000D03*
X0210000Y0240000D03*
X0230000Y0240000D03*
X0256000Y0240000D03*
X0256000Y0235000D03*
X0256000Y0253500D03*
X0256000Y0258500D03*
X0256500Y0263500D03*
X0251000Y0266500D03*
X0245500Y0266000D03*
X0240500Y0264000D03*
X0235500Y0266000D03*
X0226000Y0266000D03*
X0221500Y0264500D03*
X0217000Y0266000D03*
X0212500Y0264500D03*
X0208000Y0266000D03*
X0204500Y0262000D03*
X0201000Y0265500D03*
X0197500Y0262000D03*
X0193000Y0264500D03*
X0184500Y0267000D03*
X0184000Y0263000D03*
X0184000Y0256000D03*
X0184000Y0247500D03*
X0170000Y0259500D03*
X0172000Y0270000D03*
X0166500Y0270000D03*
X0166000Y0276000D03*
X0177500Y0270000D03*
X0181500Y0270000D03*
X0124000Y0269000D03*
X0124000Y0261000D03*
X0124000Y0253500D03*
X0096000Y0253500D03*
X0096000Y0261000D03*
X0096000Y0269000D03*
X0096000Y0281000D03*
X0096000Y0289000D03*
X0096000Y0296500D03*
X0124000Y0296500D03*
X0124000Y0289000D03*
X0124000Y0281000D03*
X0223500Y0308000D03*
X0243500Y0299000D03*
X0238000Y0293000D03*
X0247500Y0281000D03*
X0257500Y0270000D03*
X0262500Y0270000D03*
X0268000Y0270000D03*
X0272500Y0270000D03*
X0272500Y0280500D03*
X0259500Y0299500D03*
X0282500Y0301000D03*
X0328000Y0300500D03*
X0324500Y0333000D03*
X0285500Y0333000D03*
X0294500Y0258500D03*
X0269500Y0190000D03*
X0274000Y0182500D03*
X0253500Y0181500D03*
X0245500Y0181500D03*
X0330000Y0135000D03*
X0197000Y0060000D03*
X0193500Y0060000D03*
X0190000Y0060000D03*
X0186500Y0060000D03*
X0183000Y0060000D03*
X0133000Y0049500D03*
X0124000Y0078500D03*
X0124000Y0086000D03*
X0124000Y0094000D03*
X0138000Y0089000D03*
X0150000Y0105500D03*
X0124000Y0106000D03*
X0124000Y0114000D03*
X0124000Y0121500D03*
X0096000Y0121500D03*
X0096000Y0114000D03*
X0096000Y0106000D03*
X0096000Y0094000D03*
X0096000Y0086000D03*
X0096000Y0078500D03*
X0316000Y0021000D03*
D21*
X0230000Y0220000D02*
X0210000Y0220000D01*
X0210000Y0240000D01*
X0230000Y0240000D01*
X0230000Y0220000D01*
X0230000Y0220357D02*
X0210000Y0220357D01*
X0210000Y0220855D02*
X0230000Y0220855D01*
X0230000Y0221354D02*
X0210000Y0221354D01*
X0210000Y0221852D02*
X0230000Y0221852D01*
X0230000Y0222351D02*
X0210000Y0222351D01*
X0210000Y0222849D02*
X0230000Y0222849D01*
X0230000Y0223348D02*
X0210000Y0223348D01*
X0210000Y0223846D02*
X0230000Y0223846D01*
X0230000Y0224345D02*
X0210000Y0224345D01*
X0210000Y0224843D02*
X0230000Y0224843D01*
X0230000Y0225342D02*
X0210000Y0225342D01*
X0210000Y0225841D02*
X0230000Y0225841D01*
X0230000Y0226339D02*
X0210000Y0226339D01*
X0210000Y0226838D02*
X0230000Y0226838D01*
X0230000Y0227336D02*
X0210000Y0227336D01*
X0210000Y0227835D02*
X0230000Y0227835D01*
X0230000Y0228333D02*
X0210000Y0228333D01*
X0210000Y0228832D02*
X0230000Y0228832D01*
X0230000Y0229330D02*
X0210000Y0229330D01*
X0210000Y0229829D02*
X0230000Y0229829D01*
X0230000Y0230327D02*
X0210000Y0230327D01*
X0210000Y0230826D02*
X0230000Y0230826D01*
X0230000Y0231324D02*
X0210000Y0231324D01*
X0210000Y0231823D02*
X0230000Y0231823D01*
X0230000Y0232321D02*
X0210000Y0232321D01*
X0210000Y0232820D02*
X0230000Y0232820D01*
X0230000Y0233318D02*
X0210000Y0233318D01*
X0210000Y0233817D02*
X0230000Y0233817D01*
X0230000Y0234315D02*
X0210000Y0234315D01*
X0210000Y0234814D02*
X0230000Y0234814D01*
X0230000Y0235312D02*
X0210000Y0235312D01*
X0210000Y0235811D02*
X0230000Y0235811D01*
X0230000Y0236309D02*
X0210000Y0236309D01*
X0210000Y0236808D02*
X0230000Y0236808D01*
X0230000Y0237306D02*
X0210000Y0237306D01*
X0210000Y0237805D02*
X0230000Y0237805D01*
X0230000Y0238303D02*
X0210000Y0238303D01*
X0210000Y0238802D02*
X0230000Y0238802D01*
X0230000Y0239300D02*
X0210000Y0239300D01*
X0210000Y0239799D02*
X0230000Y0239799D01*
D22*
X0220000Y0230000D03*
D23*
X0286260Y0036299D03*
X0290000Y0036299D03*
X0293740Y0036299D03*
X0293740Y0023701D03*
X0290000Y0023701D03*
X0286260Y0023701D03*
D24*
X0300000Y0047283D03*
X0300000Y0082717D03*
D25*
X0316260Y0112500D03*
X0323740Y0112500D03*
X0218740Y0068500D03*
X0211260Y0068500D03*
X0211260Y0058000D03*
X0218740Y0058000D03*
X0218740Y0047500D03*
X0211260Y0047500D03*
X0075740Y0234000D03*
X0068260Y0234000D03*
X0068260Y0242000D03*
X0075740Y0242000D03*
X0230260Y0308000D03*
X0237740Y0308000D03*
X0247260Y0308000D03*
X0254740Y0308000D03*
D26*
X0286413Y0274535D03*
X0286413Y0271386D03*
X0286413Y0268236D03*
X0286413Y0265087D03*
X0286413Y0261937D03*
X0286413Y0258787D03*
X0286413Y0255638D03*
X0286413Y0252488D03*
X0286413Y0249338D03*
X0286413Y0246189D03*
X0286413Y0243039D03*
X0286413Y0239890D03*
X0286413Y0236740D03*
X0286413Y0233590D03*
X0286413Y0230441D03*
X0286413Y0227291D03*
X0286413Y0224142D03*
X0286413Y0220992D03*
X0286413Y0217842D03*
X0286413Y0214693D03*
X0286413Y0211543D03*
X0286413Y0208394D03*
X0333658Y0208394D03*
X0333658Y0211543D03*
X0333658Y0214693D03*
X0333658Y0217842D03*
X0333658Y0220992D03*
X0333658Y0224142D03*
X0333658Y0227291D03*
X0333658Y0230441D03*
X0333658Y0233590D03*
X0333658Y0236740D03*
X0333658Y0239890D03*
X0333658Y0243039D03*
X0333658Y0246189D03*
X0333658Y0249338D03*
X0333658Y0252488D03*
X0333658Y0255638D03*
X0333658Y0258787D03*
X0333658Y0261937D03*
X0333658Y0265087D03*
X0333658Y0268236D03*
X0333658Y0271386D03*
X0333658Y0274535D03*
D27*
X0157953Y0155669D03*
X0065500Y0316000D03*
D28*
X0068000Y0339000D03*
X0167953Y0155669D03*
X0177953Y0155669D03*
X0187953Y0155669D03*
X0197953Y0155669D03*
X0207953Y0155669D03*
X0217953Y0155669D03*
X0227953Y0155669D03*
X0237953Y0155669D03*
X0247953Y0155669D03*
X0257953Y0155669D03*
X0267953Y0155669D03*
X0277953Y0155669D03*
X0287953Y0155669D03*
X0297953Y0155669D03*
X0307953Y0155669D03*
X0317953Y0155669D03*
X0327953Y0155669D03*
X0337953Y0155669D03*
X0347953Y0155669D03*
X0347953Y0145669D03*
X0337953Y0145669D03*
X0327953Y0145669D03*
X0317953Y0145669D03*
X0307953Y0145669D03*
X0297953Y0145669D03*
X0287953Y0145669D03*
X0277953Y0145669D03*
X0267953Y0145669D03*
X0257953Y0145669D03*
X0247953Y0145669D03*
X0237953Y0145669D03*
X0227953Y0145669D03*
X0217953Y0145669D03*
X0207953Y0145669D03*
X0197953Y0145669D03*
X0187953Y0145669D03*
X0177953Y0145669D03*
X0167953Y0145669D03*
X0157953Y0145669D03*
D29*
X0105500Y0316000D03*
X0095500Y0316000D03*
X0095500Y0326000D03*
X0105500Y0326000D03*
X0085500Y0326000D03*
X0075500Y0326000D03*
X0075500Y0316000D03*
X0085500Y0316000D03*
X0065500Y0326000D03*
D30*
X0066850Y0259724D03*
X0066850Y0256575D03*
X0066850Y0253425D03*
X0066850Y0250276D03*
X0073150Y0250276D03*
X0073150Y0253425D03*
X0073150Y0256575D03*
X0073150Y0259724D03*
X0073150Y0209724D03*
X0073150Y0206575D03*
X0073150Y0203425D03*
X0073150Y0200276D03*
X0073150Y0194724D03*
X0073150Y0191575D03*
X0073150Y0188425D03*
X0073150Y0185276D03*
X0066850Y0185276D03*
X0066850Y0188425D03*
X0066850Y0191575D03*
X0066850Y0194724D03*
X0066850Y0200276D03*
X0066850Y0203425D03*
X0066850Y0206575D03*
X0066850Y0209724D03*
D31*
X0121260Y0060118D03*
X0128740Y0060118D03*
X0128740Y0049882D03*
X0125000Y0049882D03*
X0121260Y0049882D03*
D32*
X0319764Y0121000D03*
X0319764Y0126000D03*
X0319764Y0131000D03*
X0319764Y0136000D03*
X0340236Y0136000D03*
X0340236Y0131000D03*
X0340236Y0126000D03*
X0340236Y0121000D03*
D33*
X0097599Y0060945D02*
X0097599Y0059055D01*
X0097599Y0060945D02*
X0100275Y0060945D01*
X0100275Y0059055D01*
X0097599Y0059055D01*
X0097599Y0060314D02*
X0100275Y0060314D01*
X0094055Y0061338D02*
X0094055Y0058662D01*
X0094055Y0061338D02*
X0095945Y0061338D01*
X0095945Y0058662D01*
X0094055Y0058662D01*
X0094055Y0059921D02*
X0095945Y0059921D01*
X0095945Y0061180D02*
X0094055Y0061180D01*
X0089725Y0060945D02*
X0089725Y0059055D01*
X0089725Y0060945D02*
X0092401Y0060945D01*
X0092401Y0059055D01*
X0089725Y0059055D01*
X0089725Y0060314D02*
X0092401Y0060314D01*
D34*
X0096750Y0060000D03*
D35*
X0105000Y0345000D03*
X0085000Y0345000D03*
X0125000Y0345000D03*
X0145000Y0345000D03*
D36*
X0158000Y0072598D03*
X0158000Y0047402D03*
D37*
X0157874Y0048949D02*
X0158382Y0048953D01*
X0159016Y0048992D01*
X0159535Y0049055D01*
X0160197Y0049161D01*
X0160831Y0049307D01*
X0161335Y0049461D01*
X0161795Y0049610D01*
X0162260Y0049799D01*
X0162819Y0050051D01*
X0163217Y0050256D01*
X0163685Y0050520D01*
X0164063Y0050764D01*
X0164437Y0051012D01*
X0164831Y0051315D01*
X0165413Y0051803D01*
X0165961Y0052327D01*
X0166488Y0052898D01*
X0167264Y0053984D01*
X0167850Y0054972D01*
X0168244Y0055866D01*
X0172370Y0055866D01*
X0172370Y0045630D01*
X0143630Y0045630D01*
X0143630Y0055866D01*
X0147756Y0055866D01*
X0147913Y0055480D01*
X0148118Y0055063D01*
X0148358Y0054591D01*
X0148669Y0054098D01*
X0148917Y0053697D01*
X0149150Y0053394D01*
X0149531Y0052906D01*
X0149949Y0052425D01*
X0150488Y0051886D01*
X0150724Y0051669D01*
X0151138Y0051323D01*
X0151563Y0051008D01*
X0152051Y0050661D01*
X0152433Y0050445D01*
X0152925Y0050173D01*
X0153492Y0049913D01*
X0153969Y0049705D01*
X0154752Y0049433D01*
X0155461Y0049248D01*
X0156173Y0049098D01*
X0157012Y0048996D01*
X0157874Y0048949D01*
X0153449Y0049933D02*
X0143630Y0049933D01*
X0143630Y0048934D02*
X0172370Y0048934D01*
X0172500Y0048934D02*
X0175434Y0048934D01*
X0174436Y0047936D02*
X0172500Y0047936D01*
X0172370Y0047936D02*
X0143630Y0047936D01*
X0143630Y0046937D02*
X0172370Y0046937D01*
X0172500Y0046937D02*
X0173437Y0046937D01*
X0172500Y0046000D02*
X0172500Y0055500D01*
X0186000Y0055500D01*
X0186000Y0052500D01*
X0179000Y0052500D01*
X0172500Y0046000D01*
X0172370Y0045939D02*
X0143630Y0045939D01*
X0143630Y0050932D02*
X0151671Y0050932D01*
X0150444Y0051930D02*
X0143630Y0051930D01*
X0143630Y0052929D02*
X0149513Y0052929D01*
X0148775Y0053927D02*
X0143630Y0053927D01*
X0143630Y0054926D02*
X0148188Y0054926D01*
X0147756Y0064134D02*
X0143630Y0064134D01*
X0143630Y0074370D01*
X0172370Y0074370D01*
X0172370Y0064134D01*
X0168244Y0064134D01*
X0168087Y0064520D01*
X0167882Y0064937D01*
X0167642Y0065409D01*
X0167331Y0065902D01*
X0167083Y0066303D01*
X0166850Y0066606D01*
X0166469Y0067094D01*
X0166051Y0067575D01*
X0165512Y0068114D01*
X0165276Y0068331D01*
X0164862Y0068677D01*
X0164437Y0068992D01*
X0163949Y0069339D01*
X0163567Y0069555D01*
X0163075Y0069827D01*
X0162508Y0070087D01*
X0162031Y0070295D01*
X0161248Y0070567D01*
X0160539Y0070752D01*
X0159827Y0070902D01*
X0158988Y0071004D01*
X0158126Y0071051D01*
X0157618Y0071047D01*
X0156984Y0071008D01*
X0156465Y0070945D01*
X0155803Y0070839D01*
X0155169Y0070693D01*
X0154665Y0070539D01*
X0154205Y0070390D01*
X0153740Y0070201D01*
X0153181Y0069949D01*
X0152783Y0069744D01*
X0152315Y0069480D01*
X0151937Y0069236D01*
X0151563Y0068988D01*
X0151169Y0068685D01*
X0150587Y0068197D01*
X0150039Y0067673D01*
X0149512Y0067102D01*
X0148736Y0066016D01*
X0148150Y0065028D01*
X0147756Y0064134D01*
X0148098Y0064911D02*
X0143630Y0064911D01*
X0143630Y0065909D02*
X0148673Y0065909D01*
X0149373Y0066908D02*
X0143630Y0066908D01*
X0143630Y0067906D02*
X0150283Y0067906D01*
X0151455Y0068905D02*
X0143630Y0068905D01*
X0143630Y0069903D02*
X0153093Y0069903D01*
X0156196Y0070902D02*
X0143630Y0070902D01*
X0143630Y0071900D02*
X0172370Y0071900D01*
X0172500Y0071900D02*
X0174600Y0071900D01*
X0175598Y0070902D02*
X0172500Y0070902D01*
X0172370Y0070902D02*
X0159825Y0070902D01*
X0162908Y0069903D02*
X0172370Y0069903D01*
X0172500Y0069903D02*
X0176597Y0069903D01*
X0177595Y0068905D02*
X0172500Y0068905D01*
X0172370Y0068905D02*
X0164555Y0068905D01*
X0165720Y0067906D02*
X0172370Y0067906D01*
X0172500Y0067906D02*
X0178594Y0067906D01*
X0179000Y0067500D02*
X0172500Y0074000D01*
X0172500Y0064500D01*
X0186000Y0064500D01*
X0186000Y0067500D01*
X0179000Y0067500D01*
X0182000Y0070000D02*
X0174000Y0078000D01*
X0163000Y0078000D01*
X0161000Y0080000D01*
X0161000Y0086500D01*
X0164000Y0089500D01*
X0173000Y0089500D01*
X0183500Y0079000D01*
X0223000Y0079000D01*
X0234000Y0090000D01*
X0238000Y0090000D01*
X0240000Y0088000D01*
X0240000Y0075000D01*
X0238000Y0073000D01*
X0194000Y0073000D01*
X0190000Y0068500D01*
X0190000Y0065945D01*
X0191969Y0065945D02*
X0191969Y0067969D01*
X0193000Y0069000D01*
X0210760Y0069000D01*
X0211260Y0068500D01*
X0204000Y0063500D02*
X0204000Y0050500D01*
X0208260Y0050500D01*
X0211260Y0047500D01*
X0205000Y0046000D02*
X0205000Y0041500D01*
X0196500Y0041500D01*
X0194500Y0039500D01*
X0178000Y0039500D01*
X0176000Y0037500D01*
X0167000Y0037500D01*
X0165500Y0039000D01*
X0165500Y0042500D01*
X0166500Y0043500D01*
X0174000Y0043500D01*
X0180500Y0050000D01*
X0186500Y0050000D01*
X0188000Y0051500D01*
X0190000Y0051500D01*
X0193000Y0048500D01*
X0202500Y0048500D01*
X0205000Y0046000D01*
X0205000Y0045939D02*
X0176439Y0045939D01*
X0177437Y0046937D02*
X0204063Y0046937D01*
X0203064Y0047936D02*
X0178436Y0047936D01*
X0179434Y0048934D02*
X0192566Y0048934D01*
X0191567Y0049933D02*
X0180433Y0049933D01*
X0178430Y0051930D02*
X0172500Y0051930D01*
X0172370Y0051930D02*
X0165546Y0051930D01*
X0166510Y0052929D02*
X0172370Y0052929D01*
X0172500Y0052929D02*
X0186000Y0052929D01*
X0186000Y0053927D02*
X0172500Y0053927D01*
X0172370Y0053927D02*
X0167223Y0053927D01*
X0167823Y0054926D02*
X0172370Y0054926D01*
X0172500Y0054926D02*
X0186000Y0054926D01*
X0188031Y0054055D02*
X0188031Y0051031D01*
X0188000Y0051000D01*
X0187432Y0050932D02*
X0190568Y0050932D01*
X0190000Y0051000D02*
X0190000Y0054055D01*
X0191969Y0054055D02*
X0191969Y0052031D01*
X0193500Y0050500D01*
X0204000Y0050500D01*
X0205000Y0044940D02*
X0175440Y0044940D01*
X0174442Y0043942D02*
X0205000Y0043942D01*
X0205000Y0042943D02*
X0165943Y0042943D01*
X0165500Y0041945D02*
X0205000Y0041945D01*
X0195946Y0040946D02*
X0165500Y0040946D01*
X0165500Y0039948D02*
X0194948Y0039948D01*
X0194000Y0033500D02*
X0210000Y0033500D01*
X0211000Y0032500D01*
X0211000Y0021000D01*
X0210000Y0020000D01*
X0167000Y0020000D01*
X0165500Y0021500D01*
X0165500Y0029000D01*
X0167000Y0030500D01*
X0192000Y0030500D01*
X0194000Y0033500D01*
X0193639Y0032958D02*
X0210542Y0032958D01*
X0211000Y0031960D02*
X0192973Y0031960D01*
X0192308Y0030961D02*
X0211000Y0030961D01*
X0211000Y0029963D02*
X0166463Y0029963D01*
X0165500Y0028964D02*
X0211000Y0028964D01*
X0211000Y0027966D02*
X0165500Y0027966D01*
X0165500Y0026967D02*
X0211000Y0026967D01*
X0211000Y0025969D02*
X0165500Y0025969D01*
X0165500Y0024970D02*
X0211000Y0024970D01*
X0211000Y0023972D02*
X0165500Y0023972D01*
X0165500Y0022973D02*
X0211000Y0022973D01*
X0211000Y0021975D02*
X0165500Y0021975D01*
X0166024Y0020976D02*
X0210976Y0020976D01*
X0177449Y0038949D02*
X0165551Y0038949D01*
X0166549Y0037951D02*
X0176451Y0037951D01*
X0176433Y0049933D02*
X0172500Y0049933D01*
X0172370Y0049933D02*
X0162557Y0049933D01*
X0164316Y0050932D02*
X0172370Y0050932D01*
X0172500Y0050932D02*
X0177432Y0050932D01*
X0193937Y0054055D02*
X0193937Y0059563D01*
X0193500Y0060000D01*
X0193937Y0060437D01*
X0193937Y0065945D01*
X0195906Y0065945D02*
X0201555Y0065945D01*
X0204000Y0063500D01*
X0193910Y0072899D02*
X0179101Y0072899D01*
X0178103Y0073897D02*
X0238897Y0073897D01*
X0239896Y0074896D02*
X0177104Y0074896D01*
X0176106Y0075894D02*
X0240000Y0075894D01*
X0240000Y0076893D02*
X0175107Y0076893D01*
X0174109Y0077891D02*
X0240000Y0077891D01*
X0240000Y0078890D02*
X0162110Y0078890D01*
X0161112Y0079888D02*
X0182612Y0079888D01*
X0181613Y0080887D02*
X0161000Y0080887D01*
X0161000Y0081885D02*
X0180615Y0081885D01*
X0179616Y0082884D02*
X0161000Y0082884D01*
X0161000Y0083882D02*
X0178618Y0083882D01*
X0177619Y0084881D02*
X0161000Y0084881D01*
X0161000Y0085879D02*
X0176621Y0085879D01*
X0175622Y0086878D02*
X0161378Y0086878D01*
X0162376Y0087876D02*
X0174624Y0087876D01*
X0173625Y0088875D02*
X0163375Y0088875D01*
X0154500Y0096000D02*
X0145500Y0096000D01*
X0145250Y0096250D01*
X0129606Y0096250D01*
X0129606Y0098750D02*
X0145750Y0098750D01*
X0146500Y0098000D01*
X0153500Y0098000D01*
X0158000Y0102500D01*
X0158000Y0104500D01*
X0187500Y0134000D01*
X0195500Y0134000D01*
X0204000Y0142500D01*
X0204000Y0165500D01*
X0215000Y0176500D01*
X0217000Y0176500D01*
X0219016Y0178516D01*
X0219016Y0187283D01*
X0220984Y0187283D02*
X0220984Y0177484D01*
X0218000Y0174500D01*
X0216000Y0174500D01*
X0212000Y0170500D01*
X0212000Y0143000D01*
X0201000Y0132000D01*
X0188500Y0132000D01*
X0160000Y0103500D01*
X0160000Y0101500D01*
X0154500Y0096000D01*
X0152500Y0100000D02*
X0147500Y0100000D01*
X0146250Y0101250D01*
X0129606Y0101250D01*
X0129606Y0103750D02*
X0146750Y0103750D01*
X0148500Y0102000D01*
X0151500Y0102000D01*
X0154000Y0104500D01*
X0154000Y0106500D01*
X0185500Y0138000D01*
X0191500Y0138000D01*
X0194000Y0140500D01*
X0194000Y0161500D01*
X0211142Y0178642D01*
X0211142Y0187283D01*
X0213110Y0187283D02*
X0213110Y0192890D01*
X0213000Y0193500D01*
X0209173Y0195827D02*
X0209173Y0187283D01*
X0207205Y0187283D02*
X0207205Y0181795D01*
X0207205Y0177705D01*
X0192000Y0162500D01*
X0192000Y0141500D01*
X0190500Y0140000D01*
X0186500Y0140000D01*
X0184500Y0140000D01*
X0150000Y0105500D01*
X0150250Y0108750D02*
X0129606Y0108750D01*
X0129606Y0111250D02*
X0149750Y0111250D01*
X0182000Y0143500D01*
X0182000Y0158500D01*
X0203268Y0179768D01*
X0203268Y0187283D01*
X0205236Y0187283D02*
X0205236Y0178736D01*
X0184000Y0157500D01*
X0184000Y0142500D01*
X0150250Y0108750D01*
X0156000Y0105500D02*
X0156000Y0103500D01*
X0152500Y0100000D01*
X0156000Y0105500D02*
X0186500Y0136000D01*
X0194500Y0136000D01*
X0202000Y0143500D01*
X0202000Y0166500D01*
X0213000Y0177500D01*
X0213000Y0181500D01*
X0215079Y0183579D01*
X0215079Y0187283D01*
X0217047Y0187283D02*
X0217047Y0181047D01*
X0216000Y0180000D01*
X0222953Y0177178D02*
X0222953Y0187283D01*
X0224921Y0187283D02*
X0224921Y0177614D01*
X0225653Y0175847D02*
X0239847Y0161653D01*
X0241634Y0162866D02*
X0227256Y0177244D01*
X0224106Y0174394D02*
X0224020Y0174483D01*
X0223937Y0174574D01*
X0223856Y0174668D01*
X0223779Y0174765D01*
X0223705Y0174864D01*
X0223634Y0174965D01*
X0223566Y0175068D01*
X0223501Y0175174D01*
X0223440Y0175281D01*
X0223382Y0175391D01*
X0223328Y0175502D01*
X0223277Y0175614D01*
X0223229Y0175729D01*
X0223186Y0175844D01*
X0223146Y0175961D01*
X0223109Y0176080D01*
X0223077Y0176199D01*
X0223048Y0176319D01*
X0223023Y0176440D01*
X0223001Y0176562D01*
X0222984Y0176685D01*
X0222970Y0176807D01*
X0222961Y0176931D01*
X0222955Y0177054D01*
X0222953Y0177178D01*
X0224106Y0174394D02*
X0230694Y0167806D01*
X0233000Y0162238D02*
X0233000Y0155571D01*
X0234464Y0152036D02*
X0234536Y0151964D01*
X0238071Y0150500D02*
X0239522Y0150500D01*
X0244000Y0152000D02*
X0248500Y0154000D01*
X0247953Y0155669D02*
X0245090Y0152806D01*
X0244000Y0152000D02*
X0246000Y0155500D01*
X0249861Y0160500D02*
X0250048Y0160498D01*
X0250236Y0160491D01*
X0250423Y0160480D01*
X0250609Y0160464D01*
X0250796Y0160444D01*
X0250982Y0160420D01*
X0251167Y0160391D01*
X0251351Y0160358D01*
X0251535Y0160320D01*
X0251717Y0160278D01*
X0251899Y0160232D01*
X0252079Y0160181D01*
X0252259Y0160126D01*
X0252436Y0160067D01*
X0252613Y0160004D01*
X0252787Y0159936D01*
X0252961Y0159864D01*
X0253132Y0159788D01*
X0253302Y0159709D01*
X0253469Y0159625D01*
X0253635Y0159537D01*
X0253798Y0159445D01*
X0253959Y0159349D01*
X0254118Y0159250D01*
X0254274Y0159147D01*
X0254428Y0159040D01*
X0254580Y0158929D01*
X0254728Y0158815D01*
X0254874Y0158698D01*
X0255017Y0158577D01*
X0255158Y0158452D01*
X0255295Y0158325D01*
X0255429Y0158194D01*
X0255428Y0158194D02*
X0257953Y0155669D01*
X0257861Y0162500D02*
X0258048Y0162498D01*
X0258236Y0162491D01*
X0258423Y0162480D01*
X0258609Y0162464D01*
X0258796Y0162444D01*
X0258982Y0162420D01*
X0259167Y0162391D01*
X0259351Y0162358D01*
X0259535Y0162320D01*
X0259717Y0162278D01*
X0259899Y0162232D01*
X0260079Y0162181D01*
X0260259Y0162126D01*
X0260436Y0162067D01*
X0260613Y0162004D01*
X0260787Y0161936D01*
X0260961Y0161864D01*
X0261132Y0161788D01*
X0261302Y0161709D01*
X0261469Y0161625D01*
X0261635Y0161537D01*
X0261798Y0161445D01*
X0261959Y0161349D01*
X0262118Y0161250D01*
X0262274Y0161147D01*
X0262428Y0161040D01*
X0262580Y0160929D01*
X0262728Y0160815D01*
X0262874Y0160698D01*
X0263017Y0160577D01*
X0263158Y0160452D01*
X0263295Y0160325D01*
X0263429Y0160194D01*
X0263428Y0160194D02*
X0267953Y0155669D01*
X0266500Y0154500D02*
X0265000Y0158500D01*
X0268500Y0157500D01*
X0258500Y0157500D02*
X0255000Y0158500D01*
X0256500Y0154500D01*
X0249861Y0160500D02*
X0242631Y0160500D01*
X0242518Y0162500D02*
X0257861Y0162500D01*
X0245000Y0168500D02*
X0286500Y0168500D01*
X0313500Y0195500D01*
X0313500Y0209000D01*
X0319193Y0214693D01*
X0333658Y0214693D01*
X0333658Y0217842D02*
X0319342Y0217842D01*
X0311500Y0210000D01*
X0311500Y0196500D01*
X0285500Y0170500D01*
X0246000Y0170500D01*
X0238701Y0177799D01*
X0238701Y0187283D01*
X0240669Y0187283D02*
X0240669Y0178831D01*
X0247000Y0172500D01*
X0284500Y0172500D01*
X0309500Y0197500D01*
X0309500Y0211000D01*
X0319492Y0220992D01*
X0333658Y0220992D01*
X0333658Y0224142D02*
X0319642Y0224142D01*
X0307500Y0212000D01*
X0307500Y0198500D01*
X0283500Y0174500D01*
X0248000Y0174500D01*
X0242638Y0179862D01*
X0242638Y0187283D01*
X0244606Y0187283D02*
X0244606Y0192894D01*
X0243500Y0194000D01*
X0250000Y0194000D02*
X0251000Y0193000D01*
X0252480Y0191520D01*
X0252480Y0187283D01*
X0250512Y0187283D02*
X0250512Y0179988D01*
X0252000Y0178500D01*
X0281500Y0178500D01*
X0303500Y0200500D01*
X0303500Y0214000D01*
X0319941Y0230441D01*
X0333658Y0230441D01*
X0333658Y0233590D02*
X0320090Y0233590D01*
X0301500Y0215000D01*
X0301500Y0201500D01*
X0295500Y0195500D01*
X0270500Y0195500D01*
X0268500Y0197500D01*
X0262736Y0197500D01*
X0262717Y0197520D01*
X0262717Y0199488D02*
X0269512Y0199488D01*
X0271500Y0197500D01*
X0294500Y0197500D01*
X0299500Y0202500D01*
X0299500Y0216000D01*
X0320240Y0236740D01*
X0333658Y0236740D01*
X0333658Y0227291D02*
X0319791Y0227291D01*
X0305500Y0213000D01*
X0305500Y0199500D01*
X0282500Y0176500D01*
X0251000Y0176500D01*
X0248543Y0178957D01*
X0248543Y0187283D01*
X0246575Y0187283D02*
X0246575Y0182575D01*
X0245500Y0181500D01*
X0253500Y0181500D02*
X0254449Y0182449D01*
X0254449Y0187283D01*
X0258949Y0195551D02*
X0256000Y0198500D01*
X0256000Y0199500D01*
X0258949Y0195551D02*
X0262717Y0195551D01*
X0262717Y0201457D02*
X0270543Y0201457D01*
X0272500Y0199500D01*
X0293500Y0199500D01*
X0297500Y0203500D01*
X0297500Y0217000D01*
X0326689Y0246189D01*
X0333658Y0246189D01*
X0333658Y0249338D02*
X0326838Y0249338D01*
X0295500Y0218000D01*
X0295500Y0204500D01*
X0292500Y0201500D01*
X0273500Y0201500D01*
X0271575Y0203425D01*
X0262717Y0203425D01*
X0262717Y0205394D02*
X0272606Y0205394D01*
X0274500Y0203500D01*
X0291500Y0203500D01*
X0293500Y0205500D01*
X0293500Y0219000D01*
X0326988Y0252488D01*
X0333658Y0252488D01*
X0333658Y0255638D02*
X0327138Y0255638D01*
X0291500Y0220000D01*
X0291500Y0206500D01*
X0290500Y0205500D01*
X0275500Y0205500D01*
X0273638Y0207362D01*
X0262717Y0207362D01*
X0262717Y0209331D02*
X0258331Y0209331D01*
X0256000Y0207000D01*
X0256000Y0212000D02*
X0257268Y0213268D01*
X0262717Y0213268D01*
X0262717Y0215236D02*
X0258055Y0215236D01*
X0256000Y0217291D01*
X0262717Y0217205D02*
X0269795Y0217205D01*
X0275457Y0211543D01*
X0286413Y0211543D01*
X0286413Y0208394D02*
X0275606Y0208394D01*
X0272701Y0211299D01*
X0262717Y0211299D01*
X0262717Y0219173D02*
X0270827Y0219173D01*
X0275307Y0214693D01*
X0286413Y0214693D01*
X0286413Y0217842D02*
X0275158Y0217842D01*
X0271858Y0221142D01*
X0262717Y0221142D01*
X0262717Y0223110D02*
X0272890Y0223110D01*
X0275008Y0220992D01*
X0286413Y0220992D01*
X0286413Y0224142D02*
X0274858Y0224142D01*
X0273921Y0225079D01*
X0262717Y0225079D01*
X0262717Y0227047D02*
X0286170Y0227047D01*
X0286413Y0227291D01*
X0286413Y0230441D02*
X0275441Y0230441D01*
X0274016Y0229016D01*
X0262717Y0229016D01*
X0262717Y0230984D02*
X0272984Y0230984D01*
X0275590Y0233590D01*
X0286413Y0233590D01*
X0286413Y0236740D02*
X0275740Y0236740D01*
X0271953Y0232953D01*
X0262717Y0232953D01*
X0262717Y0234921D02*
X0270921Y0234921D01*
X0282189Y0246189D01*
X0286413Y0246189D01*
X0286413Y0249338D02*
X0280338Y0249338D01*
X0271827Y0240827D01*
X0262717Y0240827D01*
X0262717Y0242795D02*
X0258705Y0242795D01*
X0251000Y0250500D01*
X0251000Y0266500D01*
X0245500Y0266000D02*
X0242638Y0268862D01*
X0242638Y0272717D01*
X0244606Y0272717D02*
X0244606Y0276394D01*
X0242000Y0279000D01*
X0242000Y0283000D01*
X0249000Y0290000D01*
X0288000Y0290000D01*
X0309764Y0268236D01*
X0333658Y0268236D01*
X0333658Y0265087D02*
X0309913Y0265087D01*
X0287000Y0288000D01*
X0250000Y0288000D01*
X0244500Y0282500D01*
X0244500Y0279500D01*
X0246575Y0277425D01*
X0246575Y0272717D01*
X0248543Y0272717D02*
X0248543Y0278957D01*
X0247500Y0281000D01*
X0250512Y0279988D02*
X0256500Y0286000D01*
X0286000Y0286000D01*
X0310063Y0261937D01*
X0333658Y0261937D01*
X0333658Y0258787D02*
X0310213Y0258787D01*
X0285000Y0284000D01*
X0257500Y0284000D01*
X0252500Y0279000D01*
X0252500Y0272736D01*
X0252480Y0272717D01*
X0250512Y0272717D02*
X0250512Y0279988D01*
X0254449Y0272717D02*
X0256783Y0272717D01*
X0257500Y0272000D01*
X0257500Y0270000D01*
X0262500Y0270000D02*
X0262717Y0269783D01*
X0262717Y0264449D01*
X0262717Y0262480D02*
X0257520Y0262480D01*
X0256500Y0263500D01*
X0256000Y0258500D02*
X0257000Y0258500D01*
X0259425Y0256575D01*
X0262717Y0256575D01*
X0262717Y0258543D02*
X0269543Y0258543D01*
X0282386Y0271386D01*
X0286413Y0271386D01*
X0286413Y0274535D02*
X0282535Y0274535D01*
X0268512Y0260512D01*
X0262717Y0260512D01*
X0262717Y0254606D02*
X0257106Y0254606D01*
X0256000Y0253500D01*
X0262717Y0252638D02*
X0266638Y0252638D01*
X0282236Y0268236D01*
X0286413Y0268236D01*
X0286413Y0265087D02*
X0282087Y0265087D01*
X0267669Y0250669D01*
X0262717Y0250669D01*
X0262717Y0248701D02*
X0268701Y0248701D01*
X0281937Y0261937D01*
X0286413Y0261937D01*
X0286413Y0258787D02*
X0294213Y0258787D01*
X0294500Y0258500D01*
X0286413Y0255638D02*
X0278638Y0255638D01*
X0269732Y0246732D01*
X0262717Y0246732D01*
X0262717Y0244764D02*
X0270764Y0244764D01*
X0278488Y0252488D01*
X0286413Y0252488D01*
X0262717Y0238858D02*
X0257142Y0238858D01*
X0256000Y0240000D01*
X0257890Y0236890D02*
X0256000Y0235000D01*
X0257890Y0236890D02*
X0262717Y0236890D01*
X0240500Y0264000D02*
X0240669Y0264169D01*
X0240669Y0272717D01*
X0238701Y0272717D02*
X0238701Y0269201D01*
X0235500Y0266000D01*
X0226000Y0266000D02*
X0222953Y0268547D01*
X0222953Y0272717D01*
X0224921Y0272717D02*
X0224921Y0276579D01*
X0206000Y0295500D01*
X0156500Y0295500D01*
X0152250Y0291250D01*
X0129606Y0291250D01*
X0129606Y0293750D02*
X0151750Y0293750D01*
X0155500Y0297500D01*
X0208000Y0297500D01*
X0228858Y0276642D01*
X0228858Y0272717D01*
X0230827Y0272717D02*
X0230827Y0277673D01*
X0209000Y0299500D01*
X0154500Y0299500D01*
X0153750Y0298750D01*
X0129606Y0298750D01*
X0129606Y0301250D02*
X0129856Y0301500D01*
X0210000Y0301500D01*
X0232795Y0278705D01*
X0232795Y0272717D01*
X0234764Y0272717D02*
X0234764Y0281764D01*
X0247000Y0294000D01*
X0290000Y0294000D01*
X0309465Y0274535D01*
X0333658Y0274535D01*
X0333658Y0271386D02*
X0309614Y0271386D01*
X0289000Y0292000D01*
X0248000Y0292000D01*
X0236732Y0280732D01*
X0236732Y0272717D01*
X0220984Y0272717D02*
X0220984Y0265016D01*
X0221500Y0264500D01*
X0217000Y0266000D02*
X0217047Y0267047D01*
X0217047Y0272717D01*
X0215079Y0272717D02*
X0215079Y0269079D01*
X0212500Y0264500D01*
X0208000Y0266000D02*
X0207205Y0267795D01*
X0207205Y0272717D01*
X0209173Y0272717D02*
X0209173Y0276327D01*
X0198000Y0287500D01*
X0160500Y0287500D01*
X0149250Y0276250D01*
X0129606Y0276250D01*
X0129606Y0273750D02*
X0149750Y0273750D01*
X0161500Y0285500D01*
X0197000Y0285500D01*
X0205236Y0277264D01*
X0205236Y0272717D01*
X0203268Y0272717D02*
X0203268Y0276232D01*
X0196000Y0283500D01*
X0162500Y0283500D01*
X0150250Y0271250D01*
X0129606Y0271250D01*
X0129606Y0266250D02*
X0148250Y0266250D01*
X0163500Y0281500D01*
X0190500Y0281500D01*
X0193425Y0278575D01*
X0193425Y0272717D01*
X0191457Y0272717D02*
X0191457Y0277543D01*
X0189500Y0279500D01*
X0164500Y0279500D01*
X0148750Y0263750D01*
X0129606Y0263750D01*
X0129606Y0258750D02*
X0165750Y0258750D01*
X0169894Y0254606D01*
X0177283Y0254606D01*
X0177283Y0252638D02*
X0168862Y0252638D01*
X0165250Y0256250D01*
X0129606Y0256250D01*
X0129606Y0251250D02*
X0167250Y0251250D01*
X0167831Y0250669D01*
X0177283Y0250669D01*
X0177283Y0248701D02*
X0182799Y0248701D01*
X0184000Y0247500D01*
X0177283Y0246732D02*
X0168768Y0246732D01*
X0166750Y0248750D01*
X0129606Y0248750D01*
X0163764Y0244764D02*
X0177283Y0244764D01*
X0177283Y0242795D02*
X0164795Y0242795D01*
X0164500Y0242500D01*
X0163500Y0241500D01*
X0133250Y0211250D01*
X0129606Y0211250D01*
X0129606Y0213750D02*
X0132750Y0213750D01*
X0163764Y0244764D01*
X0167327Y0240827D02*
X0177283Y0240827D01*
X0177283Y0238858D02*
X0168358Y0238858D01*
X0133250Y0203750D01*
X0129606Y0203750D01*
X0129606Y0206250D02*
X0132750Y0206250D01*
X0167327Y0240827D01*
X0170890Y0236890D02*
X0177283Y0236890D01*
X0177283Y0234921D02*
X0173921Y0234921D01*
X0171500Y0232500D01*
X0170890Y0236890D02*
X0132750Y0198750D01*
X0129606Y0198750D01*
X0129606Y0196250D02*
X0133250Y0196250D01*
X0162079Y0225079D01*
X0177283Y0225079D01*
X0177283Y0227047D02*
X0168953Y0227047D01*
X0167500Y0228500D01*
X0163110Y0223110D02*
X0177283Y0223110D01*
X0177283Y0221142D02*
X0182858Y0221142D01*
X0184000Y0222000D01*
X0183000Y0225500D02*
X0182000Y0226500D01*
X0182000Y0228000D01*
X0180984Y0229016D01*
X0177283Y0229016D01*
X0177283Y0230984D02*
X0183016Y0230984D01*
X0185000Y0229000D01*
X0188500Y0227000D02*
X0188500Y0231500D01*
X0185000Y0235000D01*
X0184000Y0235000D01*
X0188500Y0227000D02*
X0187000Y0225500D01*
X0183000Y0225500D01*
X0177283Y0219173D02*
X0162173Y0219173D01*
X0134250Y0191250D01*
X0129606Y0191250D01*
X0129606Y0193750D02*
X0133750Y0193750D01*
X0163110Y0223110D01*
X0169500Y0215000D02*
X0170236Y0215236D01*
X0177283Y0215236D01*
X0177283Y0211299D02*
X0157799Y0211299D01*
X0132750Y0186250D01*
X0129606Y0186250D01*
X0129606Y0183750D02*
X0133250Y0183750D01*
X0158831Y0209331D01*
X0177283Y0209331D01*
X0177283Y0205394D02*
X0182894Y0205394D01*
X0184000Y0206500D01*
X0177283Y0203425D02*
X0157425Y0203425D01*
X0132750Y0178750D01*
X0129606Y0178750D01*
X0129606Y0176250D02*
X0133250Y0176250D01*
X0158457Y0201457D01*
X0177283Y0201457D01*
X0177283Y0199488D02*
X0181988Y0199488D01*
X0184500Y0201000D01*
X0184480Y0197520D02*
X0177283Y0197520D01*
X0177283Y0195551D02*
X0177283Y0190217D01*
X0177500Y0190000D01*
X0184500Y0192500D02*
X0186500Y0192500D01*
X0187520Y0191480D01*
X0187520Y0187283D01*
X0189488Y0187283D02*
X0189500Y0187272D01*
X0189500Y0181000D01*
X0177250Y0168750D01*
X0129606Y0168750D01*
X0129606Y0171250D02*
X0163250Y0171250D01*
X0184500Y0192500D01*
X0185000Y0196500D02*
X0184480Y0197520D01*
X0191457Y0192957D02*
X0192500Y0194000D01*
X0191457Y0192957D02*
X0191457Y0187283D01*
X0193425Y0187283D02*
X0193425Y0181925D01*
X0178000Y0166500D01*
X0151500Y0166500D01*
X0145000Y0160000D01*
X0145000Y0137500D01*
X0133750Y0126250D01*
X0129606Y0126250D01*
X0129606Y0123750D02*
X0134250Y0123750D01*
X0147000Y0136500D01*
X0147000Y0159000D01*
X0152500Y0164500D01*
X0179000Y0164500D01*
X0197362Y0182862D01*
X0197362Y0187283D01*
X0195394Y0187283D02*
X0195394Y0190894D01*
X0198500Y0194000D01*
X0199331Y0187283D02*
X0199331Y0181831D01*
X0180000Y0162500D01*
X0153500Y0162500D01*
X0149000Y0158000D01*
X0149000Y0134500D01*
X0133250Y0118750D01*
X0129606Y0118750D01*
X0129606Y0116250D02*
X0133750Y0116250D01*
X0151000Y0133500D01*
X0151000Y0157000D01*
X0154500Y0160500D01*
X0181000Y0160500D01*
X0201299Y0180799D01*
X0201299Y0187283D01*
X0209173Y0195827D02*
X0209000Y0196000D01*
X0226890Y0187283D02*
X0226890Y0178128D01*
X0224921Y0177614D02*
X0224923Y0177516D01*
X0224929Y0177418D01*
X0224938Y0177320D01*
X0224952Y0177223D01*
X0224969Y0177126D01*
X0224990Y0177030D01*
X0225015Y0176935D01*
X0225043Y0176841D01*
X0225076Y0176749D01*
X0225111Y0176657D01*
X0225151Y0176567D01*
X0225193Y0176479D01*
X0225240Y0176392D01*
X0225289Y0176308D01*
X0225342Y0176225D01*
X0225398Y0176145D01*
X0225458Y0176066D01*
X0225520Y0175990D01*
X0225585Y0175917D01*
X0225653Y0175846D01*
X0227256Y0177244D02*
X0227208Y0177295D01*
X0227163Y0177349D01*
X0227121Y0177405D01*
X0227082Y0177463D01*
X0227046Y0177523D01*
X0227014Y0177586D01*
X0226985Y0177650D01*
X0226960Y0177715D01*
X0226939Y0177782D01*
X0226921Y0177850D01*
X0226908Y0177919D01*
X0226898Y0177988D01*
X0226892Y0178058D01*
X0226890Y0178128D01*
X0228858Y0178642D02*
X0243000Y0164500D01*
X0288500Y0164500D01*
X0317500Y0193500D01*
X0317500Y0207000D01*
X0318894Y0208394D01*
X0333658Y0208394D01*
X0333658Y0211543D02*
X0319043Y0211543D01*
X0315500Y0208000D01*
X0315500Y0194500D01*
X0287500Y0166500D01*
X0244000Y0166500D01*
X0230827Y0179673D01*
X0230827Y0187283D01*
X0232795Y0187283D02*
X0232795Y0192705D01*
X0231500Y0194000D01*
X0236500Y0194000D02*
X0236732Y0192768D01*
X0236732Y0187283D01*
X0234764Y0187283D02*
X0234764Y0178736D01*
X0245000Y0168500D01*
X0242631Y0160500D02*
X0242507Y0160502D01*
X0242384Y0160508D01*
X0242260Y0160517D01*
X0242138Y0160531D01*
X0242015Y0160548D01*
X0241893Y0160570D01*
X0241772Y0160595D01*
X0241652Y0160624D01*
X0241533Y0160656D01*
X0241414Y0160693D01*
X0241297Y0160733D01*
X0241182Y0160776D01*
X0241067Y0160824D01*
X0240955Y0160875D01*
X0240844Y0160929D01*
X0240734Y0160987D01*
X0240627Y0161048D01*
X0240521Y0161113D01*
X0240418Y0161181D01*
X0240317Y0161252D01*
X0240218Y0161326D01*
X0240121Y0161403D01*
X0240027Y0161484D01*
X0239936Y0161567D01*
X0239847Y0161653D01*
X0245090Y0152806D02*
X0244956Y0152675D01*
X0244819Y0152548D01*
X0244678Y0152423D01*
X0244535Y0152302D01*
X0244389Y0152185D01*
X0244241Y0152071D01*
X0244089Y0151960D01*
X0243935Y0151853D01*
X0243779Y0151750D01*
X0243620Y0151651D01*
X0243459Y0151555D01*
X0243296Y0151463D01*
X0243130Y0151375D01*
X0242963Y0151291D01*
X0242793Y0151212D01*
X0242622Y0151136D01*
X0242448Y0151064D01*
X0242274Y0150996D01*
X0242097Y0150933D01*
X0241920Y0150874D01*
X0241740Y0150819D01*
X0241560Y0150768D01*
X0241378Y0150722D01*
X0241196Y0150680D01*
X0241012Y0150642D01*
X0240828Y0150609D01*
X0240643Y0150580D01*
X0240457Y0150556D01*
X0240270Y0150536D01*
X0240084Y0150520D01*
X0239897Y0150509D01*
X0239709Y0150502D01*
X0239522Y0150500D01*
X0238071Y0150500D02*
X0237931Y0150502D01*
X0237791Y0150508D01*
X0237651Y0150518D01*
X0237511Y0150531D01*
X0237372Y0150549D01*
X0237233Y0150571D01*
X0237096Y0150596D01*
X0236958Y0150625D01*
X0236822Y0150658D01*
X0236687Y0150695D01*
X0236553Y0150736D01*
X0236420Y0150781D01*
X0236288Y0150829D01*
X0236158Y0150881D01*
X0236029Y0150936D01*
X0235902Y0150995D01*
X0235776Y0151058D01*
X0235652Y0151124D01*
X0235531Y0151193D01*
X0235411Y0151266D01*
X0235293Y0151343D01*
X0235178Y0151422D01*
X0235064Y0151505D01*
X0234954Y0151591D01*
X0234845Y0151680D01*
X0234739Y0151772D01*
X0234636Y0151867D01*
X0234535Y0151964D01*
X0234464Y0152035D02*
X0234367Y0152136D01*
X0234272Y0152239D01*
X0234180Y0152345D01*
X0234091Y0152454D01*
X0234005Y0152564D01*
X0233922Y0152678D01*
X0233843Y0152793D01*
X0233766Y0152911D01*
X0233693Y0153031D01*
X0233624Y0153152D01*
X0233558Y0153276D01*
X0233495Y0153402D01*
X0233436Y0153529D01*
X0233381Y0153658D01*
X0233329Y0153788D01*
X0233281Y0153920D01*
X0233236Y0154053D01*
X0233195Y0154187D01*
X0233158Y0154322D01*
X0233125Y0154458D01*
X0233096Y0154596D01*
X0233071Y0154733D01*
X0233049Y0154872D01*
X0233031Y0155011D01*
X0233018Y0155151D01*
X0233008Y0155291D01*
X0233002Y0155431D01*
X0233000Y0155571D01*
X0233000Y0162238D02*
X0232998Y0162425D01*
X0232991Y0162613D01*
X0232980Y0162800D01*
X0232964Y0162986D01*
X0232944Y0163173D01*
X0232920Y0163359D01*
X0232891Y0163544D01*
X0232858Y0163728D01*
X0232820Y0163912D01*
X0232778Y0164094D01*
X0232732Y0164276D01*
X0232681Y0164456D01*
X0232626Y0164636D01*
X0232567Y0164813D01*
X0232504Y0164990D01*
X0232436Y0165164D01*
X0232364Y0165338D01*
X0232288Y0165509D01*
X0232209Y0165679D01*
X0232125Y0165846D01*
X0232037Y0166012D01*
X0231945Y0166175D01*
X0231849Y0166336D01*
X0231750Y0166495D01*
X0231647Y0166651D01*
X0231540Y0166805D01*
X0231429Y0166957D01*
X0231315Y0167105D01*
X0231198Y0167251D01*
X0231077Y0167394D01*
X0230952Y0167535D01*
X0230825Y0167672D01*
X0230694Y0167806D01*
X0241634Y0162866D02*
X0241685Y0162818D01*
X0241739Y0162773D01*
X0241795Y0162731D01*
X0241853Y0162692D01*
X0241913Y0162656D01*
X0241976Y0162624D01*
X0242040Y0162595D01*
X0242105Y0162570D01*
X0242172Y0162549D01*
X0242240Y0162531D01*
X0242309Y0162518D01*
X0242378Y0162508D01*
X0242448Y0162502D01*
X0242518Y0162500D01*
X0228858Y0178642D02*
X0228858Y0187283D01*
X0185551Y0187283D02*
X0185551Y0183449D01*
X0185500Y0182000D01*
X0136000Y0223500D02*
X0133750Y0221250D01*
X0129606Y0221250D01*
X0068433Y0232673D02*
X0068260Y0232846D01*
X0068260Y0234000D01*
X0129606Y0278750D02*
X0148750Y0278750D01*
X0159500Y0289500D01*
X0199000Y0289500D01*
X0211142Y0277358D01*
X0211142Y0272717D01*
X0213110Y0272717D02*
X0213110Y0278390D01*
X0200000Y0291500D01*
X0158500Y0291500D01*
X0150750Y0283750D01*
X0129606Y0283750D01*
X0129606Y0286250D02*
X0150250Y0286250D01*
X0157500Y0293500D01*
X0202000Y0293500D01*
X0219016Y0276484D01*
X0219016Y0272717D01*
X0204500Y0266000D02*
X0204500Y0264000D01*
X0204500Y0262000D01*
X0204500Y0266000D02*
X0202000Y0268500D01*
X0201299Y0269201D01*
X0201299Y0272717D01*
X0199331Y0272717D02*
X0199331Y0268669D01*
X0201000Y0265500D01*
X0197500Y0268000D02*
X0197500Y0262000D01*
X0193000Y0264500D02*
X0195394Y0267106D01*
X0195394Y0272717D01*
X0197362Y0272717D02*
X0197362Y0268638D01*
X0197500Y0268000D01*
X0189488Y0272717D02*
X0189488Y0276512D01*
X0188500Y0277500D01*
X0167500Y0277500D01*
X0166000Y0276000D01*
X0172000Y0270000D02*
X0172500Y0269500D01*
X0172500Y0261500D01*
X0173488Y0260512D01*
X0177283Y0260512D01*
X0177283Y0262480D02*
X0183480Y0262480D01*
X0184000Y0263000D01*
X0184500Y0267000D02*
X0186500Y0267000D01*
X0187520Y0268020D01*
X0187520Y0272717D01*
X0185551Y0272717D02*
X0184217Y0272717D01*
X0181500Y0270000D01*
X0177500Y0270000D02*
X0177283Y0269783D01*
X0177283Y0264449D01*
X0177283Y0258543D02*
X0171957Y0258543D01*
X0170000Y0259500D01*
X0177283Y0256575D02*
X0182925Y0256575D01*
X0184000Y0256000D01*
X0238000Y0293000D02*
X0238000Y0307740D01*
X0237740Y0308000D01*
X0237740Y0312740D01*
X0239500Y0314500D01*
X0239500Y0319764D01*
X0244500Y0319764D02*
X0244500Y0314500D01*
X0247260Y0311740D01*
X0247260Y0308000D01*
X0247260Y0302760D01*
X0243500Y0299000D01*
X0287953Y0155669D02*
X0287953Y0155547D01*
X0293000Y0150500D01*
X0293000Y0142000D01*
X0299000Y0136000D01*
X0319764Y0136000D01*
X0329000Y0136000D01*
X0330000Y0135000D01*
X0319764Y0131000D02*
X0301000Y0131000D01*
X0289000Y0143000D01*
X0287953Y0144047D01*
X0287953Y0145669D01*
X0301240Y0126240D02*
X0304500Y0126240D01*
X0308240Y0126000D01*
X0319764Y0126000D01*
X0301240Y0126240D02*
X0295000Y0120000D01*
X0295000Y0110000D01*
X0300000Y0105000D01*
X0333500Y0105000D01*
X0342000Y0113500D01*
X0340236Y0121000D02*
X0346500Y0121000D01*
X0348000Y0122500D01*
X0348000Y0126000D01*
X0340236Y0126000D01*
X0340236Y0131000D02*
X0348000Y0131000D01*
X0348000Y0126000D01*
X0348000Y0131000D02*
X0348000Y0134500D01*
X0346500Y0136000D01*
X0340236Y0136000D01*
X0240000Y0087876D02*
X0231876Y0087876D01*
X0230878Y0086878D02*
X0240000Y0086878D01*
X0240000Y0085879D02*
X0229879Y0085879D01*
X0228881Y0084881D02*
X0240000Y0084881D01*
X0240000Y0083882D02*
X0227882Y0083882D01*
X0226884Y0082884D02*
X0240000Y0082884D01*
X0240000Y0081885D02*
X0225885Y0081885D01*
X0224887Y0080887D02*
X0240000Y0080887D01*
X0240000Y0079888D02*
X0223888Y0079888D01*
X0220000Y0075000D02*
X0218740Y0073740D01*
X0232875Y0088875D02*
X0239125Y0088875D01*
X0238127Y0089873D02*
X0233873Y0089873D01*
X0232000Y0101500D02*
X0167000Y0101500D01*
X0167000Y0107500D01*
X0172500Y0113000D01*
X0229500Y0113000D01*
X0232000Y0110500D01*
X0232000Y0101500D01*
X0232000Y0101856D02*
X0167000Y0101856D01*
X0167000Y0102854D02*
X0232000Y0102854D01*
X0232000Y0103853D02*
X0167000Y0103853D01*
X0167000Y0104851D02*
X0232000Y0104851D01*
X0232000Y0105850D02*
X0167000Y0105850D01*
X0167000Y0106848D02*
X0232000Y0106848D01*
X0232000Y0107847D02*
X0167347Y0107847D01*
X0168345Y0108845D02*
X0232000Y0108845D01*
X0232000Y0109844D02*
X0169344Y0109844D01*
X0170342Y0110842D02*
X0231658Y0110842D01*
X0230659Y0111841D02*
X0171341Y0111841D01*
X0172339Y0112839D02*
X0229661Y0112839D01*
X0172603Y0073897D02*
X0172500Y0073897D01*
X0172370Y0073897D02*
X0143630Y0073897D01*
X0143630Y0072899D02*
X0172370Y0072899D01*
X0172500Y0072899D02*
X0173601Y0072899D01*
X0172500Y0066908D02*
X0186000Y0066908D01*
X0186000Y0065909D02*
X0172500Y0065909D01*
X0172370Y0065909D02*
X0167326Y0065909D01*
X0167895Y0064911D02*
X0172370Y0064911D01*
X0172500Y0064911D02*
X0186000Y0064911D01*
X0188031Y0065945D02*
X0188000Y0068500D01*
X0186000Y0070000D01*
X0182000Y0070000D01*
X0181098Y0070902D02*
X0192135Y0070902D01*
X0193022Y0071900D02*
X0180100Y0071900D01*
X0186129Y0069903D02*
X0191247Y0069903D01*
X0190360Y0068905D02*
X0187460Y0068905D01*
X0188000Y0068500D02*
X0190000Y0068500D01*
X0172370Y0066908D02*
X0166615Y0066908D01*
X0138000Y0089000D02*
X0137750Y0088750D01*
X0129606Y0088750D01*
X0118500Y0065500D02*
X0113000Y0060000D01*
X0098937Y0060000D01*
X0095000Y0060000D01*
X0091063Y0060000D02*
X0091063Y0056437D01*
X0092500Y0055000D01*
X0125000Y0055000D01*
X0218740Y0041260D02*
X0219500Y0040500D01*
X0265500Y0040946D02*
X0286500Y0040946D01*
X0286500Y0039948D02*
X0265585Y0039948D01*
X0265500Y0040000D02*
X0265500Y0046000D01*
X0285000Y0046000D01*
X0286500Y0044500D01*
X0286500Y0036000D01*
X0272000Y0036000D01*
X0265500Y0040000D01*
X0265500Y0041945D02*
X0286500Y0041945D01*
X0286500Y0042943D02*
X0265500Y0042943D01*
X0265500Y0043942D02*
X0286500Y0043942D01*
X0286060Y0044940D02*
X0265500Y0044940D01*
X0265500Y0045939D02*
X0285061Y0045939D01*
X0286500Y0038949D02*
X0267207Y0038949D01*
X0268830Y0037951D02*
X0286500Y0037951D01*
X0286500Y0036952D02*
X0270452Y0036952D01*
X0286260Y0036299D02*
X0286260Y0031740D01*
X0290000Y0028000D01*
X0290000Y0023701D01*
X0302283Y0045000D02*
X0300000Y0047283D01*
X0302283Y0045000D02*
X0305000Y0045000D01*
D38*
X0195906Y0054055D03*
X0193937Y0054055D03*
X0191969Y0054055D03*
X0190000Y0054055D03*
X0188031Y0054055D03*
X0186063Y0054055D03*
X0184094Y0054055D03*
X0184094Y0065945D03*
X0186063Y0065945D03*
X0188031Y0065945D03*
X0190000Y0065945D03*
X0191969Y0065945D03*
X0193937Y0065945D03*
X0195906Y0065945D03*
D39*
X0190000Y0060000D03*
D40*
X0196500Y0046000D03*
X0201500Y0046000D03*
X0219500Y0040500D03*
X0208000Y0031000D03*
X0194500Y0031000D03*
X0174000Y0028500D03*
X0169000Y0028500D03*
X0169000Y0040500D03*
X0174000Y0040500D03*
X0125000Y0043500D03*
X0118500Y0044000D03*
X0116500Y0049500D03*
X0125000Y0055000D03*
X0124000Y0065500D03*
X0118500Y0065500D03*
X0164000Y0084500D03*
X0169000Y0084500D03*
X0174000Y0084500D03*
X0175000Y0105500D03*
X0175000Y0110500D03*
X0195000Y0110500D03*
X0195000Y0105500D03*
X0215000Y0105500D03*
X0215000Y0110500D03*
X0236000Y0086500D03*
X0236000Y0081500D03*
X0236000Y0076500D03*
X0253500Y0082500D03*
X0280000Y0082500D03*
X0270500Y0059500D03*
X0265000Y0059500D03*
X0259500Y0059500D03*
X0272000Y0044500D03*
X0277500Y0044500D03*
X0283000Y0044500D03*
X0298000Y0040500D03*
X0298000Y0036000D03*
X0296500Y0031500D03*
X0281500Y0026000D03*
X0269000Y0026500D03*
X0247000Y0026500D03*
X0329500Y0059500D03*
X0335000Y0059500D03*
X0340500Y0059500D03*
X0346500Y0082500D03*
X0320000Y0082500D03*
X0332000Y0112500D03*
X0342000Y0113500D03*
X0310500Y0118500D03*
X0148500Y0186000D03*
X0150000Y0240000D03*
X0144000Y0240000D03*
X0205000Y0305500D03*
X0222000Y0319000D03*
X0222000Y0341000D03*
X0293500Y0244500D03*
X0293500Y0238500D03*
X0326500Y0240500D03*
X0341000Y0240500D03*
D41*
X0345945Y0308701D02*
X0345945Y0320906D01*
X0264055Y0320906D02*
X0264055Y0308701D01*
X0265000Y0066429D02*
X0265000Y0065000D01*
X0270500Y0065000D01*
X0270500Y0059500D01*
X0265000Y0059500D02*
X0265000Y0065000D01*
X0259500Y0065000D01*
X0259500Y0059500D01*
X0290000Y0046000D02*
X0291500Y0047500D01*
X0290000Y0046000D02*
X0290000Y0041500D01*
X0298000Y0040500D02*
X0298000Y0036000D01*
X0297000Y0036000D01*
X0298000Y0036000D02*
X0296500Y0034500D01*
X0296500Y0031500D01*
X0281500Y0026000D02*
X0275500Y0026000D01*
X0275000Y0026500D01*
X0274760Y0026500D02*
X0275000Y0026260D01*
X0274760Y0026500D02*
X0269000Y0026500D01*
X0260000Y0026500D01*
X0259571Y0026500D02*
X0258500Y0026929D01*
X0259571Y0026500D02*
X0247000Y0026500D01*
X0329500Y0059500D02*
X0329500Y0066429D01*
X0335000Y0066429D01*
X0335000Y0065000D02*
X0335000Y0059500D01*
X0335000Y0065000D02*
X0340500Y0065000D01*
X0340500Y0059500D01*
X0125000Y0055000D02*
X0125000Y0054000D01*
X0118500Y0048000D02*
X0118500Y0044000D01*
X0118500Y0048000D02*
X0116500Y0049500D01*
X0125000Y0045500D02*
X0125000Y0043500D01*
X0121260Y0060118D02*
X0121500Y0060358D01*
X0121500Y0065500D01*
X0124000Y0065500D01*
X0121500Y0065500D02*
X0118500Y0065500D01*
D42*
X0258500Y0043071D02*
X0262571Y0043071D01*
X0296500Y0036500D02*
X0297000Y0036000D01*
D43*
X0125000Y0045500D02*
X0125000Y0049882D01*
X0125000Y0054000D01*
D44*
X0125000Y0049882D01*
X0128740Y0049882D02*
X0129122Y0049500D01*
X0133000Y0049500D01*
X0158000Y0047402D02*
X0162402Y0047402D01*
X0166000Y0050000D01*
X0170055Y0054055D01*
X0184094Y0054055D01*
X0184094Y0065945D02*
X0170055Y0065945D01*
X0166000Y0070000D01*
X0162402Y0072598D01*
X0158000Y0072598D01*
X0129606Y0071250D02*
X0125750Y0071250D01*
X0124000Y0073000D01*
X0124000Y0078500D01*
X0124250Y0078750D01*
X0129606Y0078750D01*
X0129606Y0086250D02*
X0124250Y0086250D01*
X0124000Y0086000D01*
X0124250Y0093750D02*
X0124000Y0094000D01*
X0124250Y0093750D02*
X0129606Y0093750D01*
X0129606Y0106250D02*
X0124250Y0106250D01*
X0124000Y0106000D01*
X0124250Y0113750D02*
X0124000Y0114000D01*
X0124250Y0113750D02*
X0129606Y0113750D01*
X0129606Y0121250D02*
X0124250Y0121250D01*
X0124000Y0121500D01*
X0124000Y0127000D01*
X0125750Y0128750D01*
X0129606Y0128750D01*
X0096000Y0127000D02*
X0096000Y0121500D01*
X0095750Y0121250D01*
X0090394Y0121250D01*
X0090394Y0123750D02*
X0060750Y0123750D01*
X0055500Y0129000D01*
X0055173Y0129000D01*
X0055000Y0129173D01*
X0057500Y0134000D02*
X0049827Y0134000D01*
X0045000Y0129173D01*
X0049827Y0124000D02*
X0045000Y0119173D01*
X0049827Y0124000D02*
X0057000Y0124000D01*
X0062250Y0118750D01*
X0090394Y0118750D01*
X0090394Y0116250D02*
X0061250Y0116250D01*
X0058500Y0119000D01*
X0055173Y0119000D01*
X0055000Y0119173D01*
X0057500Y0114000D02*
X0049827Y0114000D01*
X0045000Y0109173D01*
X0049577Y0103750D02*
X0045000Y0099173D01*
X0049577Y0103750D02*
X0090394Y0103750D01*
X0090394Y0106250D02*
X0095750Y0106250D01*
X0096000Y0106000D01*
X0090394Y0108750D02*
X0055423Y0108750D01*
X0055000Y0109173D01*
X0057500Y0114000D02*
X0060250Y0111250D01*
X0090394Y0111250D01*
X0090394Y0113750D02*
X0095750Y0113750D01*
X0096000Y0114000D01*
X0096000Y0127000D02*
X0094250Y0128750D01*
X0090394Y0128750D01*
X0090394Y0126250D02*
X0065250Y0126250D01*
X0057500Y0134000D01*
X0057173Y0139173D02*
X0059500Y0141500D01*
X0086750Y0168750D01*
X0090394Y0168750D01*
X0090394Y0171250D02*
X0085250Y0171250D01*
X0058000Y0144000D01*
X0050000Y0144000D01*
X0045173Y0139173D01*
X0045000Y0139173D01*
X0055000Y0139173D02*
X0057173Y0139173D01*
X0059173Y0149173D02*
X0086250Y0176250D01*
X0090394Y0176250D01*
X0090394Y0178750D02*
X0084750Y0178750D01*
X0060000Y0154000D01*
X0050000Y0154000D01*
X0045173Y0149173D01*
X0045000Y0149173D01*
X0055000Y0149173D02*
X0059173Y0149173D01*
X0061173Y0159173D02*
X0055000Y0159173D01*
X0061173Y0159173D02*
X0085750Y0183750D01*
X0090394Y0183750D01*
X0090394Y0186250D02*
X0084250Y0186250D01*
X0062000Y0164000D01*
X0050000Y0164000D01*
X0045173Y0159173D01*
X0045000Y0159173D01*
X0050173Y0174000D02*
X0045000Y0179173D01*
X0050173Y0174000D02*
X0058500Y0174000D01*
X0066850Y0182350D01*
X0066850Y0185276D01*
X0066850Y0188425D02*
X0064925Y0188425D01*
X0055673Y0179173D01*
X0055000Y0179173D01*
X0057000Y0184500D02*
X0049673Y0184500D01*
X0045000Y0189173D01*
X0050173Y0194000D02*
X0045000Y0199173D01*
X0050173Y0204000D02*
X0045000Y0209173D01*
X0041000Y0214000D02*
X0069000Y0214000D01*
X0076250Y0221250D01*
X0090394Y0221250D01*
X0090394Y0223750D02*
X0094250Y0223750D01*
X0096000Y0222000D01*
X0096000Y0216500D01*
X0095750Y0216250D01*
X0090394Y0216250D01*
X0090394Y0213750D02*
X0080250Y0213750D01*
X0076276Y0209724D01*
X0073150Y0209724D01*
X0073150Y0206575D02*
X0076925Y0206575D01*
X0081750Y0211250D01*
X0090394Y0211250D01*
X0090394Y0208750D02*
X0095750Y0208750D01*
X0096000Y0209000D01*
X0090394Y0206250D02*
X0080250Y0206250D01*
X0077575Y0203425D01*
X0073150Y0203425D01*
X0073150Y0200276D02*
X0078224Y0200276D01*
X0081750Y0203750D01*
X0090394Y0203750D01*
X0090394Y0201250D02*
X0095750Y0201250D01*
X0096000Y0201000D01*
X0090394Y0198750D02*
X0080750Y0198750D01*
X0076776Y0194724D01*
X0073150Y0194724D01*
X0073150Y0191575D02*
X0077425Y0191575D01*
X0082250Y0196250D01*
X0090394Y0196250D01*
X0090394Y0193750D02*
X0083750Y0193750D01*
X0078425Y0188425D01*
X0073150Y0188425D01*
X0073150Y0185276D02*
X0079276Y0185276D01*
X0085250Y0191250D01*
X0090394Y0191250D01*
X0090394Y0188750D02*
X0095750Y0188750D01*
X0096000Y0189000D01*
X0095750Y0181250D02*
X0090394Y0181250D01*
X0095750Y0181250D02*
X0096000Y0181000D01*
X0095750Y0173750D02*
X0090394Y0173750D01*
X0095750Y0173750D02*
X0096000Y0173500D01*
X0096000Y0168000D01*
X0094250Y0166250D01*
X0090394Y0166250D01*
X0124000Y0168000D02*
X0124000Y0173500D01*
X0124250Y0173750D01*
X0129606Y0173750D01*
X0129606Y0166250D02*
X0125750Y0166250D01*
X0124000Y0168000D01*
X0124000Y0181000D02*
X0124250Y0181250D01*
X0129606Y0181250D01*
X0129606Y0188750D02*
X0124250Y0188750D01*
X0124000Y0189000D01*
X0124000Y0201000D02*
X0124250Y0201250D01*
X0129606Y0201250D01*
X0129606Y0208750D02*
X0124250Y0208750D01*
X0124000Y0209000D01*
X0124250Y0216250D02*
X0124000Y0216500D01*
X0124000Y0222000D01*
X0125750Y0223750D01*
X0129606Y0223750D01*
X0129606Y0216250D02*
X0124250Y0216250D01*
X0081000Y0238500D02*
X0081000Y0243000D01*
X0086750Y0248750D01*
X0090394Y0248750D01*
X0090394Y0246250D02*
X0094250Y0246250D01*
X0096000Y0248000D01*
X0096000Y0253500D01*
X0095750Y0253750D01*
X0090394Y0253750D01*
X0090394Y0256250D02*
X0083750Y0256250D01*
X0077776Y0250276D01*
X0073150Y0250276D01*
X0073150Y0253425D02*
X0076925Y0253425D01*
X0082250Y0258750D01*
X0090394Y0258750D01*
X0090394Y0261250D02*
X0095750Y0261250D01*
X0096000Y0261000D01*
X0090394Y0263750D02*
X0083250Y0263750D01*
X0076075Y0256575D01*
X0073150Y0256575D01*
X0073150Y0259724D02*
X0075224Y0259724D01*
X0081750Y0266250D01*
X0090394Y0266250D01*
X0090394Y0268750D02*
X0095750Y0268750D01*
X0096000Y0269000D01*
X0090394Y0271250D02*
X0066250Y0271250D01*
X0059000Y0264000D01*
X0050173Y0264000D01*
X0045000Y0269173D01*
X0050173Y0274000D02*
X0045000Y0279173D01*
X0050173Y0284000D02*
X0045000Y0289173D01*
X0050173Y0284000D02*
X0059000Y0284000D01*
X0059250Y0283750D01*
X0090394Y0283750D01*
X0090394Y0281250D02*
X0095750Y0281250D01*
X0096000Y0281000D01*
X0090394Y0278750D02*
X0059250Y0278750D01*
X0058827Y0279173D01*
X0055000Y0279173D01*
X0059250Y0276250D02*
X0057000Y0274000D01*
X0050173Y0274000D01*
X0055000Y0269173D02*
X0056173Y0269173D01*
X0060750Y0273750D01*
X0090394Y0273750D01*
X0090394Y0276250D02*
X0059250Y0276250D01*
X0061750Y0286250D02*
X0058827Y0289173D01*
X0055000Y0289173D01*
X0061750Y0286250D02*
X0090394Y0286250D01*
X0090394Y0288750D02*
X0095750Y0288750D01*
X0096000Y0289000D01*
X0090394Y0291250D02*
X0066750Y0291250D01*
X0058827Y0299173D01*
X0055000Y0299173D01*
X0059000Y0304000D02*
X0049827Y0304000D01*
X0045000Y0299173D01*
X0059000Y0304000D02*
X0069250Y0293750D01*
X0090394Y0293750D01*
X0090394Y0296250D02*
X0095750Y0296250D01*
X0096000Y0296500D01*
X0096000Y0302500D01*
X0094750Y0303750D01*
X0090394Y0303750D01*
X0090394Y0301250D02*
X0071750Y0301250D01*
X0059000Y0314000D01*
X0049827Y0314000D01*
X0045000Y0309173D01*
X0055000Y0309173D02*
X0058827Y0309173D01*
X0069250Y0298750D01*
X0090394Y0298750D01*
X0124000Y0296500D02*
X0124250Y0296250D01*
X0129606Y0296250D01*
X0124000Y0296500D02*
X0124000Y0302000D01*
X0125750Y0303750D01*
X0129606Y0303750D01*
X0129606Y0288750D02*
X0124250Y0288750D01*
X0124000Y0289000D01*
X0124250Y0281250D02*
X0124000Y0281000D01*
X0124250Y0281250D02*
X0129606Y0281250D01*
X0129606Y0268750D02*
X0124250Y0268750D01*
X0124000Y0269000D01*
X0124250Y0261250D02*
X0124000Y0261000D01*
X0124250Y0261250D02*
X0129606Y0261250D01*
X0129606Y0253750D02*
X0124250Y0253750D01*
X0124000Y0253500D01*
X0124000Y0248000D01*
X0125750Y0246250D01*
X0129606Y0246250D01*
X0090394Y0251250D02*
X0084990Y0251250D01*
X0075740Y0242000D01*
X0081000Y0238500D02*
X0076500Y0234000D01*
X0075740Y0234000D01*
X0068433Y0232673D02*
X0055000Y0219173D01*
X0055551Y0209724D02*
X0055000Y0209173D01*
X0055551Y0209724D02*
X0066850Y0209724D01*
X0066850Y0206575D02*
X0060075Y0206575D01*
X0057500Y0204000D01*
X0050173Y0204000D01*
X0055000Y0199173D02*
X0057173Y0199173D01*
X0061425Y0203425D01*
X0066850Y0203425D01*
X0066850Y0200276D02*
X0062776Y0200276D01*
X0056500Y0194000D01*
X0050173Y0194000D01*
X0055000Y0189173D02*
X0057173Y0189173D01*
X0062724Y0194724D01*
X0066850Y0194724D01*
X0066850Y0191575D02*
X0064075Y0191575D01*
X0057000Y0184500D01*
X0041000Y0214000D02*
X0035000Y0220000D01*
X0035000Y0255000D01*
X0039173Y0259173D01*
X0045000Y0259173D01*
X0049827Y0254000D02*
X0045000Y0249173D01*
X0050000Y0244000D02*
X0058000Y0244000D01*
X0064276Y0250276D01*
X0066850Y0250276D01*
X0066850Y0253425D02*
X0062925Y0253425D01*
X0058673Y0249173D01*
X0055000Y0249173D01*
X0050000Y0244000D02*
X0045173Y0239173D01*
X0045000Y0239173D01*
X0055000Y0239173D02*
X0059673Y0239173D01*
X0062500Y0242000D01*
X0068260Y0242000D01*
X0059000Y0254000D02*
X0049827Y0254000D01*
X0055000Y0259173D02*
X0059673Y0259173D01*
X0060224Y0259724D01*
X0066850Y0259724D01*
X0066850Y0256575D02*
X0061575Y0256575D01*
X0059000Y0254000D01*
X0030000Y0335000D02*
X0030003Y0335242D01*
X0030012Y0335483D01*
X0030026Y0335724D01*
X0030047Y0335965D01*
X0030073Y0336205D01*
X0030105Y0336445D01*
X0030143Y0336684D01*
X0030186Y0336921D01*
X0030236Y0337158D01*
X0030291Y0337393D01*
X0030351Y0337627D01*
X0030418Y0337859D01*
X0030489Y0338090D01*
X0030567Y0338319D01*
X0030650Y0338546D01*
X0030738Y0338771D01*
X0030832Y0338994D01*
X0030931Y0339214D01*
X0031036Y0339432D01*
X0031145Y0339647D01*
X0031260Y0339860D01*
X0031380Y0340070D01*
X0031505Y0340276D01*
X0031635Y0340480D01*
X0031770Y0340681D01*
X0031910Y0340878D01*
X0032054Y0341072D01*
X0032203Y0341262D01*
X0032357Y0341448D01*
X0032515Y0341631D01*
X0032677Y0341810D01*
X0032844Y0341985D01*
X0033015Y0342156D01*
X0033190Y0342323D01*
X0033369Y0342485D01*
X0033552Y0342643D01*
X0033738Y0342797D01*
X0033928Y0342946D01*
X0034122Y0343090D01*
X0034319Y0343230D01*
X0034520Y0343365D01*
X0034724Y0343495D01*
X0034930Y0343620D01*
X0035140Y0343740D01*
X0035353Y0343855D01*
X0035568Y0343964D01*
X0035786Y0344069D01*
X0036006Y0344168D01*
X0036229Y0344262D01*
X0036454Y0344350D01*
X0036681Y0344433D01*
X0036910Y0344511D01*
X0037141Y0344582D01*
X0037373Y0344649D01*
X0037607Y0344709D01*
X0037842Y0344764D01*
X0038079Y0344814D01*
X0038316Y0344857D01*
X0038555Y0344895D01*
X0038795Y0344927D01*
X0039035Y0344953D01*
X0039276Y0344974D01*
X0039517Y0344988D01*
X0039758Y0344997D01*
X0040000Y0345000D01*
X0062000Y0345000D01*
X0062152Y0344998D01*
X0062304Y0344992D01*
X0062456Y0344983D01*
X0062607Y0344969D01*
X0062758Y0344952D01*
X0062909Y0344931D01*
X0063059Y0344906D01*
X0063208Y0344877D01*
X0063356Y0344845D01*
X0063504Y0344808D01*
X0063651Y0344769D01*
X0063796Y0344725D01*
X0063941Y0344677D01*
X0064084Y0344627D01*
X0064226Y0344572D01*
X0064366Y0344514D01*
X0064505Y0344452D01*
X0064642Y0344387D01*
X0064778Y0344318D01*
X0064912Y0344246D01*
X0065044Y0344171D01*
X0065174Y0344092D01*
X0065302Y0344010D01*
X0065428Y0343925D01*
X0065551Y0343836D01*
X0065673Y0343745D01*
X0065792Y0343650D01*
X0065908Y0343553D01*
X0066022Y0343452D01*
X0066134Y0343349D01*
X0066243Y0343243D01*
X0066349Y0343134D01*
X0066452Y0343022D01*
X0066553Y0342908D01*
X0066650Y0342792D01*
X0066745Y0342673D01*
X0066836Y0342551D01*
X0066925Y0342428D01*
X0067010Y0342302D01*
X0067092Y0342174D01*
X0067171Y0342044D01*
X0067246Y0341912D01*
X0067318Y0341778D01*
X0067387Y0341642D01*
X0067452Y0341505D01*
X0067514Y0341366D01*
X0067572Y0341226D01*
X0067627Y0341084D01*
X0067677Y0340941D01*
X0067725Y0340796D01*
X0067769Y0340651D01*
X0067808Y0340504D01*
X0067845Y0340356D01*
X0067877Y0340208D01*
X0067906Y0340059D01*
X0067931Y0339909D01*
X0067952Y0339758D01*
X0067969Y0339607D01*
X0067983Y0339456D01*
X0067992Y0339304D01*
X0067998Y0339152D01*
X0068000Y0339000D01*
X0030000Y0335000D02*
X0030000Y0070000D01*
X0030003Y0069758D01*
X0030012Y0069517D01*
X0030026Y0069276D01*
X0030047Y0069035D01*
X0030073Y0068795D01*
X0030105Y0068555D01*
X0030143Y0068316D01*
X0030186Y0068079D01*
X0030236Y0067842D01*
X0030291Y0067607D01*
X0030351Y0067373D01*
X0030418Y0067141D01*
X0030489Y0066910D01*
X0030567Y0066681D01*
X0030650Y0066454D01*
X0030738Y0066229D01*
X0030832Y0066006D01*
X0030931Y0065786D01*
X0031036Y0065568D01*
X0031145Y0065353D01*
X0031260Y0065140D01*
X0031380Y0064930D01*
X0031505Y0064724D01*
X0031635Y0064520D01*
X0031770Y0064319D01*
X0031910Y0064122D01*
X0032054Y0063928D01*
X0032203Y0063738D01*
X0032357Y0063552D01*
X0032515Y0063369D01*
X0032677Y0063190D01*
X0032844Y0063015D01*
X0033015Y0062844D01*
X0033190Y0062677D01*
X0033369Y0062515D01*
X0033552Y0062357D01*
X0033738Y0062203D01*
X0033928Y0062054D01*
X0034122Y0061910D01*
X0034319Y0061770D01*
X0034520Y0061635D01*
X0034724Y0061505D01*
X0034930Y0061380D01*
X0035140Y0061260D01*
X0035353Y0061145D01*
X0035568Y0061036D01*
X0035786Y0060931D01*
X0036006Y0060832D01*
X0036229Y0060738D01*
X0036454Y0060650D01*
X0036681Y0060567D01*
X0036910Y0060489D01*
X0037141Y0060418D01*
X0037373Y0060351D01*
X0037607Y0060291D01*
X0037842Y0060236D01*
X0038079Y0060186D01*
X0038316Y0060143D01*
X0038555Y0060105D01*
X0038795Y0060073D01*
X0039035Y0060047D01*
X0039276Y0060026D01*
X0039517Y0060012D01*
X0039758Y0060003D01*
X0040000Y0060000D01*
X0065157Y0060000D01*
X0065395Y0060003D01*
X0065633Y0060011D01*
X0065870Y0060026D01*
X0066107Y0060046D01*
X0066343Y0060072D01*
X0066579Y0060103D01*
X0066814Y0060140D01*
X0067048Y0060183D01*
X0067281Y0060232D01*
X0067513Y0060286D01*
X0067743Y0060346D01*
X0067972Y0060411D01*
X0068199Y0060482D01*
X0068424Y0060558D01*
X0068647Y0060640D01*
X0068869Y0060727D01*
X0069088Y0060819D01*
X0069305Y0060917D01*
X0069519Y0061019D01*
X0069731Y0061127D01*
X0069941Y0061241D01*
X0070147Y0061359D01*
X0070351Y0061482D01*
X0070551Y0061610D01*
X0070748Y0061742D01*
X0070943Y0061880D01*
X0071133Y0062022D01*
X0071321Y0062169D01*
X0071504Y0062320D01*
X0071684Y0062475D01*
X0071860Y0062635D01*
X0072032Y0062799D01*
X0072201Y0062968D01*
X0072365Y0063140D01*
X0072525Y0063316D01*
X0072680Y0063496D01*
X0072831Y0063679D01*
X0072978Y0063867D01*
X0073120Y0064057D01*
X0073258Y0064252D01*
X0073390Y0064449D01*
X0073518Y0064649D01*
X0073641Y0064853D01*
X0073759Y0065059D01*
X0073873Y0065269D01*
X0073981Y0065481D01*
X0074083Y0065695D01*
X0074181Y0065912D01*
X0074273Y0066131D01*
X0074360Y0066353D01*
X0074442Y0066576D01*
X0074518Y0066801D01*
X0074589Y0067028D01*
X0074654Y0067257D01*
X0074714Y0067487D01*
X0074768Y0067719D01*
X0074817Y0067952D01*
X0074860Y0068186D01*
X0074897Y0068421D01*
X0074928Y0068657D01*
X0074954Y0068893D01*
X0074974Y0069130D01*
X0074989Y0069367D01*
X0074997Y0069605D01*
X0075000Y0069843D01*
X0075000Y0080000D01*
X0075003Y0080211D01*
X0075010Y0080423D01*
X0075023Y0080634D01*
X0075041Y0080844D01*
X0075064Y0081055D01*
X0075092Y0081264D01*
X0075125Y0081473D01*
X0075163Y0081681D01*
X0075206Y0081888D01*
X0075254Y0082094D01*
X0075307Y0082299D01*
X0075365Y0082502D01*
X0075428Y0082704D01*
X0075496Y0082904D01*
X0075569Y0083103D01*
X0075646Y0083300D01*
X0075728Y0083494D01*
X0075815Y0083687D01*
X0075906Y0083878D01*
X0076002Y0084066D01*
X0076103Y0084252D01*
X0076208Y0084436D01*
X0076317Y0084617D01*
X0076431Y0084795D01*
X0076549Y0084971D01*
X0076671Y0085143D01*
X0076797Y0085313D01*
X0076928Y0085479D01*
X0077062Y0085642D01*
X0077201Y0085802D01*
X0077343Y0085959D01*
X0077489Y0086112D01*
X0077638Y0086261D01*
X0077791Y0086407D01*
X0077948Y0086549D01*
X0078108Y0086688D01*
X0078271Y0086822D01*
X0078437Y0086953D01*
X0078607Y0087079D01*
X0078779Y0087201D01*
X0078955Y0087319D01*
X0079133Y0087433D01*
X0079314Y0087542D01*
X0079498Y0087647D01*
X0079684Y0087748D01*
X0079872Y0087844D01*
X0080063Y0087935D01*
X0080256Y0088022D01*
X0080450Y0088104D01*
X0080647Y0088181D01*
X0080846Y0088254D01*
X0081046Y0088322D01*
X0081248Y0088385D01*
X0081451Y0088443D01*
X0081656Y0088496D01*
X0081862Y0088544D01*
X0082069Y0088587D01*
X0082277Y0088625D01*
X0082486Y0088658D01*
X0082695Y0088686D01*
X0082906Y0088709D01*
X0083116Y0088727D01*
X0083327Y0088740D01*
X0083539Y0088747D01*
X0083750Y0088750D01*
X0090394Y0088750D01*
X0090394Y0086250D02*
X0095750Y0086250D01*
X0096000Y0086000D01*
X0095750Y0078750D02*
X0090394Y0078750D01*
X0095750Y0078750D02*
X0096000Y0078500D01*
X0093750Y0071250D02*
X0095000Y0070000D01*
X0095000Y0060000D01*
X0093750Y0071250D02*
X0090394Y0071250D01*
X0071250Y0096250D02*
X0064173Y0089173D01*
X0055000Y0089173D01*
X0049827Y0094000D02*
X0045000Y0089173D01*
X0049827Y0094000D02*
X0063000Y0094000D01*
X0067750Y0098750D01*
X0090394Y0098750D01*
X0090394Y0096250D02*
X0071250Y0096250D01*
X0057077Y0101250D02*
X0055000Y0099173D01*
X0057077Y0101250D02*
X0090394Y0101250D01*
X0090394Y0093750D02*
X0095750Y0093750D01*
X0096000Y0094000D01*
X0211260Y0068500D02*
X0211260Y0058000D01*
X0218740Y0058000D02*
X0218740Y0047500D01*
X0218740Y0041260D01*
X0218740Y0068500D02*
X0218740Y0073740D01*
X0286260Y0037240D02*
X0286260Y0036299D01*
X0293740Y0036299D02*
X0294701Y0036299D01*
X0296500Y0034500D01*
X0305000Y0033740D02*
X0305000Y0045000D01*
X0313740Y0033740D02*
X0310000Y0030000D01*
X0310000Y0020000D01*
X0307000Y0017000D01*
X0288000Y0017000D01*
X0286260Y0018740D01*
X0286260Y0023701D01*
X0293740Y0023701D02*
X0293740Y0021260D01*
X0295000Y0020000D01*
X0303500Y0020000D01*
X0305000Y0021500D01*
X0305000Y0026260D01*
X0315000Y0026260D02*
X0315000Y0022000D01*
X0316000Y0021000D01*
X0325000Y0026260D02*
X0326260Y0026260D01*
X0330000Y0030000D01*
X0330000Y0052500D01*
X0325000Y0057500D01*
X0325000Y0082571D01*
X0300000Y0082717D02*
X0300000Y0085000D01*
X0316260Y0112500D02*
X0314500Y0114260D01*
X0310500Y0118260D01*
X0310500Y0118500D01*
X0310500Y0121000D01*
X0319764Y0121000D01*
X0330000Y0118500D02*
X0330000Y0112500D01*
X0329500Y0112500D01*
X0323740Y0112500D01*
X0330000Y0112500D02*
X0332000Y0112500D01*
X0330000Y0118500D02*
X0332500Y0121000D01*
X0340236Y0121000D01*
X0325000Y0033740D02*
X0315000Y0033740D01*
X0313740Y0033740D01*
X0293500Y0238500D02*
X0292110Y0239890D01*
X0286413Y0239890D01*
X0286413Y0243039D02*
X0292039Y0243039D01*
X0293500Y0244500D01*
X0326500Y0240500D02*
X0327110Y0239890D01*
X0333658Y0239890D01*
X0333658Y0243039D02*
X0338461Y0243039D01*
X0341000Y0240500D01*
X0259500Y0299500D02*
X0259500Y0303240D01*
X0254740Y0308000D01*
X0230260Y0308000D02*
X0223500Y0308000D01*
D45*
X0222000Y0319000D02*
X0222000Y0326260D01*
X0222260Y0326000D01*
X0228500Y0326000D01*
X0229500Y0325000D01*
X0229500Y0319764D01*
X0234500Y0319764D02*
X0234500Y0326000D01*
X0236500Y0328000D01*
X0261500Y0328000D01*
X0264000Y0325500D01*
X0264000Y0320961D01*
X0264055Y0320906D01*
X0239500Y0335000D02*
X0237740Y0333240D01*
X0222500Y0333240D01*
X0222000Y0333740D01*
X0222000Y0341000D01*
X0239500Y0340236D02*
X0239500Y0335000D01*
X0304500Y0118760D02*
X0310240Y0118760D01*
X0310500Y0118500D01*
X0299783Y0047500D02*
X0291500Y0047500D01*
X0290000Y0041500D02*
X0290000Y0036299D01*
X0300000Y0047283D02*
X0299783Y0047500D01*
X0121260Y0049882D02*
X0120878Y0049500D01*
X0116500Y0049500D01*
X0118500Y0048000D02*
X0119378Y0048000D01*
X0121260Y0049882D01*
D46*
X0253500Y0082500D02*
X0265000Y0082571D01*
X0295000Y0082571D01*
X0299854Y0082571D01*
X0300000Y0082717D01*
X0300146Y0082571D01*
X0325000Y0082571D01*
X0335000Y0082571D01*
X0335000Y0082500D02*
X0346500Y0082500D01*
M02*
