G75*
%MOIN*%
%OFA0B0*%
%FSLAX25Y25*%
%IPPOS*%
%LPD*%
%AMOC8*
5,1,8,0,0,1.08239X$1,22.5*
%
%ADD10C,0.00000*%
%ADD11C,0.02000*%
%ADD12C,0.01100*%
%ADD13C,0.01200*%
%ADD14C,0.00500*%
%ADD15C,0.01000*%
%ADD16C,0.00700*%
%ADD17C,0.02236*%
%ADD18C,0.00787*%
%ADD19C,0.00200*%
%ADD20C,0.00400*%
D10*
X0005000Y0005000D02*
X0060118Y0005000D01*
X0355394Y0005000D01*
X0355394Y0355394D01*
X0060118Y0355394D01*
X0005000Y0355394D01*
X0005000Y0005000D01*
D11*
X0308500Y0189798D02*
X0308500Y0194135D01*
X0310669Y0196303D01*
X0312837Y0201441D02*
X0312837Y0207947D01*
X0315006Y0210115D01*
X0319343Y0210115D01*
X0321511Y0207947D01*
X0321511Y0201441D01*
X0308500Y0201441D01*
X0312837Y0205778D02*
X0308500Y0210115D01*
X0308500Y0215253D02*
X0317174Y0223927D01*
X0319343Y0223927D01*
X0321511Y0221758D01*
X0321511Y0217421D01*
X0319343Y0215253D01*
X0308500Y0215253D02*
X0308500Y0223927D01*
X0310669Y0229065D02*
X0319343Y0237739D01*
X0310669Y0237739D01*
X0308500Y0235570D01*
X0308500Y0231233D01*
X0310669Y0229065D01*
X0319343Y0229065D01*
X0321511Y0231233D01*
X0321511Y0235570D01*
X0319343Y0237739D01*
X0319343Y0242876D02*
X0321511Y0245045D01*
X0321511Y0249382D01*
X0319343Y0251550D01*
X0317174Y0251550D01*
X0315006Y0249382D01*
X0312837Y0251550D01*
X0310669Y0251550D01*
X0308500Y0249382D01*
X0308500Y0245045D01*
X0310669Y0242876D01*
X0315006Y0247213D02*
X0315006Y0249382D01*
X0319343Y0256688D02*
X0321511Y0258857D01*
X0321511Y0263194D01*
X0319343Y0265362D01*
X0317174Y0265362D01*
X0308500Y0256688D01*
X0308500Y0265362D01*
X0319343Y0196303D02*
X0321511Y0194135D01*
X0321511Y0189798D01*
X0319343Y0187629D01*
X0310669Y0187629D01*
X0308500Y0189798D01*
D12*
X0301454Y0190976D02*
X0300203Y0192227D01*
X0298952Y0192227D01*
X0298952Y0187223D01*
X0297701Y0187223D02*
X0300203Y0187223D01*
X0301454Y0188474D01*
X0301454Y0190976D01*
X0301454Y0195141D02*
X0296450Y0195141D01*
X0298952Y0195141D02*
X0301454Y0197644D01*
X0301454Y0198895D01*
X0301454Y0201740D02*
X0301454Y0204243D01*
X0302705Y0202991D02*
X0297701Y0202991D01*
X0296450Y0204243D01*
X0296450Y0214938D02*
X0303956Y0214938D01*
X0301454Y0216189D02*
X0301454Y0218692D01*
X0300203Y0219943D01*
X0296450Y0219943D01*
X0297701Y0222857D02*
X0300203Y0222857D01*
X0301454Y0224108D01*
X0301454Y0226610D01*
X0300203Y0227861D01*
X0298952Y0227861D01*
X0298952Y0222857D01*
X0297701Y0222857D02*
X0296450Y0224108D01*
X0296450Y0226610D01*
X0296450Y0230776D02*
X0301454Y0230776D01*
X0298952Y0230776D02*
X0301454Y0233278D01*
X0301454Y0234529D01*
X0300203Y0237375D02*
X0297701Y0237375D01*
X0296450Y0238626D01*
X0296450Y0241128D01*
X0298952Y0242379D02*
X0298952Y0237375D01*
X0300203Y0237375D02*
X0301454Y0238626D01*
X0301454Y0241128D01*
X0300203Y0242379D01*
X0298952Y0242379D01*
X0300203Y0253212D02*
X0300203Y0258217D01*
X0296450Y0261131D02*
X0300203Y0266135D01*
X0303956Y0261131D01*
X0301454Y0216189D02*
X0300203Y0214938D01*
X0296450Y0190976D02*
X0296450Y0188474D01*
X0297701Y0187223D01*
X0297701Y0184308D02*
X0298952Y0183057D01*
X0298952Y0180555D01*
X0300203Y0179304D01*
X0301454Y0180555D01*
X0301454Y0184308D01*
X0297701Y0184308D02*
X0296450Y0183057D01*
X0296450Y0179304D01*
X0296450Y0176389D02*
X0300203Y0176389D01*
X0301454Y0175138D01*
X0301454Y0171385D01*
X0296450Y0171385D01*
X0296450Y0168608D02*
X0296450Y0166106D01*
X0296450Y0167357D02*
X0303956Y0167357D01*
X0303956Y0166106D02*
X0303956Y0168608D01*
D13*
X0160250Y0205750D02*
X0160250Y0218250D01*
X0140250Y0218250D01*
X0140250Y0205750D01*
X0140750Y0205750D01*
X0140250Y0218250D02*
X0140250Y0220750D01*
X0140750Y0220750D01*
X0159750Y0220750D02*
X0160250Y0220750D01*
X0160250Y0218250D01*
X0160250Y0205750D02*
X0159750Y0205750D01*
X0264055Y0296890D02*
X0275791Y0285154D01*
X0275929Y0285019D01*
X0276071Y0284888D01*
X0276216Y0284760D01*
X0276363Y0284636D01*
X0276514Y0284515D01*
X0276668Y0284398D01*
X0276824Y0284285D01*
X0276983Y0284176D01*
X0277145Y0284070D01*
X0277310Y0283969D01*
X0277476Y0283872D01*
X0277645Y0283779D01*
X0277817Y0283690D01*
X0277990Y0283605D01*
X0278166Y0283525D01*
X0278343Y0283448D01*
X0278523Y0283377D01*
X0278704Y0283309D01*
X0278886Y0283246D01*
X0279070Y0283188D01*
X0279256Y0283134D01*
X0279442Y0283085D01*
X0279630Y0283040D01*
X0279819Y0283000D01*
X0280009Y0282965D01*
X0280199Y0282934D01*
X0280391Y0282908D01*
X0280583Y0282886D01*
X0280775Y0282870D01*
X0280968Y0282858D01*
X0281161Y0282850D01*
X0281354Y0282848D01*
X0281547Y0282850D01*
X0281740Y0282857D01*
X0281933Y0282869D01*
X0282125Y0282885D01*
X0282317Y0282906D01*
X0282508Y0282932D01*
X0282699Y0282963D01*
X0282889Y0282998D01*
X0283078Y0283038D01*
X0283266Y0283082D01*
X0283452Y0283131D01*
X0283638Y0283185D01*
X0283822Y0283243D01*
X0284005Y0283306D01*
X0284186Y0283373D01*
X0264055Y0296890D02*
X0264055Y0303583D01*
X0263268Y0303583D01*
X0263268Y0296890D01*
X0263268Y0313819D02*
X0264055Y0313819D01*
X0264055Y0315787D01*
X0263268Y0315787D01*
X0263268Y0313819D01*
X0263268Y0326024D02*
X0264055Y0326024D01*
X0264055Y0332323D01*
X0275866Y0344134D01*
X0274685Y0344134D01*
X0263268Y0332717D01*
X0263268Y0326024D01*
X0275866Y0344134D02*
X0283740Y0344134D01*
X0326260Y0344134D02*
X0334134Y0344134D01*
X0345945Y0332323D01*
X0345945Y0326024D01*
X0346732Y0326024D01*
X0346732Y0332717D01*
X0335315Y0344134D01*
X0334134Y0344134D01*
X0345945Y0315787D02*
X0345945Y0313819D01*
X0346732Y0313819D01*
X0346732Y0315787D01*
X0345945Y0315787D01*
X0345945Y0303583D02*
X0346732Y0303583D01*
X0346732Y0296890D01*
X0345945Y0296890D01*
X0334209Y0285154D01*
X0334071Y0285019D01*
X0333929Y0284888D01*
X0333784Y0284760D01*
X0333637Y0284636D01*
X0333486Y0284515D01*
X0333332Y0284398D01*
X0333176Y0284285D01*
X0333017Y0284176D01*
X0332855Y0284070D01*
X0332690Y0283969D01*
X0332524Y0283872D01*
X0332355Y0283779D01*
X0332183Y0283690D01*
X0332010Y0283605D01*
X0331834Y0283525D01*
X0331657Y0283448D01*
X0331477Y0283377D01*
X0331296Y0283309D01*
X0331114Y0283246D01*
X0330930Y0283188D01*
X0330744Y0283134D01*
X0330558Y0283085D01*
X0330370Y0283040D01*
X0330181Y0283000D01*
X0329991Y0282965D01*
X0329801Y0282934D01*
X0329609Y0282908D01*
X0329417Y0282886D01*
X0329225Y0282870D01*
X0329032Y0282858D01*
X0328839Y0282850D01*
X0328646Y0282848D01*
X0328453Y0282850D01*
X0328260Y0282857D01*
X0328067Y0282869D01*
X0327875Y0282885D01*
X0327683Y0282906D01*
X0327492Y0282932D01*
X0327301Y0282963D01*
X0327111Y0282998D01*
X0326922Y0283038D01*
X0326734Y0283082D01*
X0326548Y0283131D01*
X0326362Y0283185D01*
X0326178Y0283243D01*
X0325995Y0283306D01*
X0325814Y0283373D01*
X0345945Y0296890D02*
X0345945Y0303583D01*
D14*
X0264055Y0296890D02*
X0263268Y0296890D01*
D15*
X0261000Y0278748D02*
X0257752Y0278748D01*
X0257752Y0271252D01*
X0261000Y0271252D01*
X0261000Y0268748D02*
X0257752Y0268748D01*
X0257752Y0261252D01*
X0261000Y0261252D01*
X0269000Y0261252D02*
X0272248Y0261252D01*
X0272248Y0268748D01*
X0269000Y0268748D01*
X0269000Y0271252D02*
X0272248Y0271252D01*
X0272248Y0278748D01*
X0269000Y0278748D01*
X0243748Y0262248D02*
X0236252Y0262248D01*
X0236252Y0259000D01*
X0233748Y0259000D02*
X0233748Y0262248D01*
X0226252Y0262248D01*
X0226252Y0259000D01*
X0223748Y0259000D02*
X0223748Y0262248D01*
X0216252Y0262248D01*
X0216252Y0259000D01*
X0213748Y0259000D02*
X0213748Y0262248D01*
X0206252Y0262248D01*
X0206252Y0259000D01*
X0206252Y0251000D02*
X0206252Y0247752D01*
X0213748Y0247752D01*
X0213748Y0251000D01*
X0216252Y0251000D02*
X0216252Y0247752D01*
X0223748Y0247752D01*
X0223748Y0251000D01*
X0226252Y0251000D02*
X0226252Y0247752D01*
X0233748Y0247752D01*
X0233748Y0251000D01*
X0236252Y0251000D02*
X0236252Y0247752D01*
X0243748Y0247752D01*
X0243748Y0251000D01*
X0241000Y0243748D02*
X0237752Y0243748D01*
X0237752Y0236252D01*
X0241000Y0236252D01*
X0241000Y0233748D02*
X0237752Y0233748D01*
X0237752Y0226252D01*
X0241000Y0226252D01*
X0241000Y0223748D02*
X0237752Y0223748D01*
X0237752Y0216252D01*
X0241000Y0216252D01*
X0249000Y0216252D02*
X0252248Y0216252D01*
X0252248Y0223748D01*
X0249000Y0223748D01*
X0249000Y0226252D02*
X0252248Y0226252D01*
X0252248Y0233748D01*
X0249000Y0233748D01*
X0249000Y0236252D02*
X0252248Y0236252D01*
X0252248Y0243748D01*
X0249000Y0243748D01*
X0243748Y0259000D02*
X0243748Y0262248D01*
X0228748Y0282752D02*
X0221252Y0282752D01*
X0221252Y0286500D01*
X0218748Y0286500D02*
X0218748Y0282752D01*
X0211252Y0282752D01*
X0211252Y0286500D01*
X0208748Y0286500D02*
X0208748Y0282752D01*
X0201252Y0282752D01*
X0201252Y0286500D01*
X0198748Y0286500D02*
X0198748Y0282752D01*
X0191252Y0282752D01*
X0191252Y0286500D01*
X0191252Y0293500D02*
X0191252Y0297248D01*
X0198748Y0297248D01*
X0198748Y0293500D01*
X0201252Y0293500D02*
X0201252Y0297248D01*
X0208748Y0297248D01*
X0208748Y0293500D01*
X0211252Y0293500D02*
X0211252Y0297248D01*
X0218748Y0297248D01*
X0218748Y0293500D01*
X0221252Y0293500D02*
X0221252Y0297248D01*
X0228748Y0297248D01*
X0228748Y0293500D01*
X0228748Y0286500D02*
X0228748Y0282752D01*
X0182248Y0278748D02*
X0182248Y0271252D01*
X0179000Y0271252D01*
X0179000Y0268748D02*
X0182248Y0268748D01*
X0182248Y0261252D01*
X0179000Y0261252D01*
X0171000Y0261252D02*
X0167752Y0261252D01*
X0167752Y0268748D01*
X0171000Y0268748D01*
X0171000Y0271252D02*
X0167752Y0271252D01*
X0167752Y0278748D01*
X0171000Y0278748D01*
X0179000Y0278748D02*
X0182248Y0278748D01*
X0177498Y0255748D02*
X0173750Y0255748D01*
X0177498Y0255748D02*
X0177498Y0248252D01*
X0173750Y0248252D01*
X0173750Y0244748D02*
X0177498Y0244748D01*
X0177498Y0237252D01*
X0173750Y0237252D01*
X0166750Y0237252D02*
X0163002Y0237252D01*
X0163002Y0244748D01*
X0166750Y0244748D01*
X0166750Y0248252D02*
X0163002Y0248252D01*
X0163002Y0255748D01*
X0166750Y0255748D01*
X0150498Y0255748D02*
X0150498Y0248252D01*
X0146750Y0248252D01*
X0139750Y0248252D02*
X0136002Y0248252D01*
X0136002Y0255748D01*
X0139750Y0255748D01*
X0146750Y0255748D02*
X0150498Y0255748D01*
X0154250Y0236748D02*
X0157498Y0236748D01*
X0157498Y0229252D01*
X0154250Y0229252D01*
X0146250Y0229252D02*
X0143002Y0229252D01*
X0143002Y0236748D01*
X0146250Y0236748D01*
X0118748Y0252752D02*
X0111252Y0252752D01*
X0111252Y0256000D01*
X0108748Y0256000D02*
X0108748Y0252752D01*
X0101252Y0252752D01*
X0101252Y0256000D01*
X0101252Y0264000D02*
X0101252Y0267248D01*
X0108748Y0267248D01*
X0108748Y0264000D01*
X0111252Y0264000D02*
X0111252Y0267248D01*
X0118748Y0267248D01*
X0118748Y0264000D01*
X0118748Y0256000D02*
X0118748Y0252752D01*
X0118748Y0282752D02*
X0111252Y0282752D01*
X0111252Y0286000D01*
X0108748Y0286000D02*
X0108748Y0282752D01*
X0101252Y0282752D01*
X0101252Y0286000D01*
X0101252Y0294000D02*
X0101252Y0297248D01*
X0108748Y0297248D01*
X0108748Y0294000D01*
X0111252Y0294000D02*
X0111252Y0297248D01*
X0118748Y0297248D01*
X0118748Y0294000D01*
X0118748Y0286000D02*
X0118748Y0282752D01*
X0187752Y0248748D02*
X0191000Y0248748D01*
X0187752Y0248748D02*
X0187752Y0241252D01*
X0191000Y0241252D01*
X0191000Y0238748D02*
X0187752Y0238748D01*
X0187752Y0231252D01*
X0191000Y0231252D01*
X0191000Y0228748D02*
X0187752Y0228748D01*
X0187752Y0221252D01*
X0191000Y0221252D01*
X0191000Y0218748D02*
X0187752Y0218748D01*
X0187752Y0211252D01*
X0191000Y0211252D01*
X0199000Y0211252D02*
X0202248Y0211252D01*
X0202248Y0218748D01*
X0199000Y0218748D01*
X0199000Y0221252D02*
X0202248Y0221252D01*
X0202248Y0228748D01*
X0199000Y0228748D01*
X0199000Y0231252D02*
X0202248Y0231252D01*
X0202248Y0238748D01*
X0199000Y0238748D01*
X0199000Y0241252D02*
X0202248Y0241252D01*
X0202248Y0248748D01*
X0199000Y0248748D01*
X0206252Y0212248D02*
X0206252Y0209000D01*
X0206252Y0212248D02*
X0213748Y0212248D01*
X0213748Y0209000D01*
X0216252Y0209000D02*
X0216252Y0212248D01*
X0223748Y0212248D01*
X0223748Y0209000D01*
X0226252Y0209000D02*
X0226252Y0212248D01*
X0233748Y0212248D01*
X0233748Y0209000D01*
X0236252Y0209000D02*
X0236252Y0212248D01*
X0243748Y0212248D01*
X0243748Y0209000D01*
X0243748Y0201000D02*
X0243748Y0197752D01*
X0236252Y0197752D01*
X0236252Y0201000D01*
X0233748Y0201000D02*
X0233748Y0197752D01*
X0226252Y0197752D01*
X0226252Y0201000D01*
X0223748Y0201000D02*
X0223748Y0197752D01*
X0216252Y0197752D01*
X0216252Y0201000D01*
X0213748Y0201000D02*
X0213748Y0197752D01*
X0206252Y0197752D01*
X0206252Y0201000D01*
X0182248Y0198748D02*
X0182248Y0191252D01*
X0179000Y0191252D01*
X0179000Y0188748D02*
X0182248Y0188748D01*
X0182248Y0181252D01*
X0179000Y0181252D01*
X0171000Y0181252D02*
X0167752Y0181252D01*
X0167752Y0188748D01*
X0171000Y0188748D01*
X0171000Y0191252D02*
X0167752Y0191252D01*
X0167752Y0198748D01*
X0171000Y0198748D01*
X0179000Y0198748D02*
X0182248Y0198748D01*
X0157498Y0197248D02*
X0157498Y0189752D01*
X0154250Y0189752D01*
X0146250Y0189752D02*
X0143002Y0189752D01*
X0143002Y0197248D01*
X0146250Y0197248D01*
X0154250Y0197248D02*
X0157498Y0197248D01*
X0118748Y0202752D02*
X0118748Y0206000D01*
X0118748Y0202752D02*
X0111252Y0202752D01*
X0111252Y0206000D01*
X0108748Y0206000D02*
X0108748Y0202752D01*
X0101252Y0202752D01*
X0101252Y0206000D01*
X0101252Y0214000D02*
X0101252Y0217248D01*
X0108748Y0217248D01*
X0108748Y0214000D01*
X0111252Y0214000D02*
X0111252Y0217248D01*
X0118748Y0217248D01*
X0118748Y0214000D01*
X0118748Y0187248D02*
X0111252Y0187248D01*
X0111252Y0184000D01*
X0108748Y0184000D02*
X0108748Y0187248D01*
X0101252Y0187248D01*
X0101252Y0184000D01*
X0101252Y0176000D02*
X0101252Y0172752D01*
X0108748Y0172752D01*
X0108748Y0176000D01*
X0111252Y0176000D02*
X0111252Y0172752D01*
X0118748Y0172752D01*
X0118748Y0176000D01*
X0118748Y0184000D02*
X0118748Y0187248D01*
X0118748Y0122248D02*
X0111252Y0122248D01*
X0111252Y0119000D01*
X0108748Y0119000D02*
X0108748Y0122248D01*
X0101252Y0122248D01*
X0101252Y0119000D01*
X0101252Y0111000D02*
X0101252Y0107752D01*
X0108748Y0107752D01*
X0108748Y0111000D01*
X0111252Y0111000D02*
X0111252Y0107752D01*
X0118748Y0107752D01*
X0118748Y0111000D01*
X0118748Y0119000D02*
X0118748Y0122248D01*
X0118748Y0092248D02*
X0111252Y0092248D01*
X0111252Y0089000D01*
X0108748Y0089000D02*
X0108748Y0092248D01*
X0101252Y0092248D01*
X0101252Y0089000D01*
X0101252Y0081000D02*
X0101252Y0077752D01*
X0108748Y0077752D01*
X0108748Y0081000D01*
X0111252Y0081000D02*
X0111252Y0077752D01*
X0118748Y0077752D01*
X0118748Y0081000D01*
X0118748Y0089000D02*
X0118748Y0092248D01*
X0257752Y0181252D02*
X0257752Y0188748D01*
X0261000Y0188748D01*
X0261000Y0191252D02*
X0257752Y0191252D01*
X0257752Y0198748D01*
X0261000Y0198748D01*
X0269000Y0198748D02*
X0272248Y0198748D01*
X0272248Y0191252D01*
X0269000Y0191252D01*
X0269000Y0188748D02*
X0272248Y0188748D01*
X0272248Y0181252D01*
X0269000Y0181252D01*
X0261000Y0181252D02*
X0257752Y0181252D01*
X0312752Y0138748D02*
X0312752Y0131252D01*
X0316500Y0131252D01*
X0316500Y0128748D02*
X0312752Y0128748D01*
X0312752Y0121252D01*
X0316500Y0121252D01*
X0323500Y0121252D02*
X0327248Y0121252D01*
X0327248Y0128748D01*
X0323500Y0128748D01*
X0323500Y0131252D02*
X0327248Y0131252D01*
X0327248Y0138748D01*
X0323500Y0138748D01*
X0316500Y0138748D02*
X0312752Y0138748D01*
X0330379Y0233166D02*
X0330379Y0236414D01*
X0330379Y0233166D02*
X0337875Y0233166D01*
X0337875Y0236414D01*
X0337875Y0244414D02*
X0337875Y0247662D01*
X0330379Y0247662D01*
X0330379Y0244414D01*
X0290792Y0245414D02*
X0290792Y0248662D01*
X0283296Y0248662D01*
X0283296Y0245414D01*
X0283296Y0237414D02*
X0283296Y0234166D01*
X0290792Y0234166D01*
X0290792Y0237414D01*
D16*
X0280559Y0237052D02*
X0280559Y0235618D01*
X0279842Y0234900D01*
X0276973Y0234900D01*
X0276256Y0235618D01*
X0276256Y0237052D01*
X0276973Y0237769D01*
X0278407Y0239504D02*
X0278407Y0242373D01*
X0279842Y0244108D02*
X0280559Y0244825D01*
X0280559Y0246260D01*
X0279842Y0246977D01*
X0279125Y0246977D01*
X0276256Y0244108D01*
X0276256Y0246977D01*
X0276256Y0241656D02*
X0280559Y0241656D01*
X0278407Y0239504D01*
X0279842Y0237769D02*
X0280559Y0237052D01*
X0267962Y0238067D02*
X0267245Y0237350D01*
X0265810Y0237350D01*
X0265093Y0238067D01*
X0263358Y0238067D02*
X0263358Y0239502D01*
X0261206Y0239502D01*
X0260489Y0238785D01*
X0260489Y0238067D01*
X0261206Y0237350D01*
X0262641Y0237350D01*
X0263358Y0238067D01*
X0263358Y0239502D02*
X0261923Y0240936D01*
X0260489Y0241654D01*
X0258754Y0240936D02*
X0258754Y0240219D01*
X0258037Y0239502D01*
X0256602Y0239502D01*
X0255885Y0238785D01*
X0255885Y0238067D01*
X0256602Y0237350D01*
X0258037Y0237350D01*
X0258754Y0238067D01*
X0258754Y0238785D01*
X0258037Y0239502D01*
X0256602Y0239502D02*
X0255885Y0240219D01*
X0255885Y0240936D01*
X0256602Y0241654D01*
X0258037Y0241654D01*
X0258754Y0240936D01*
X0265093Y0240936D02*
X0265810Y0241654D01*
X0267245Y0241654D01*
X0267962Y0240936D01*
X0267962Y0238067D01*
X0267245Y0232154D02*
X0267962Y0231436D01*
X0267962Y0228567D01*
X0267245Y0227850D01*
X0265810Y0227850D01*
X0265093Y0228567D01*
X0263358Y0228567D02*
X0262641Y0227850D01*
X0261206Y0227850D01*
X0260489Y0228567D01*
X0260489Y0229285D01*
X0261206Y0230002D01*
X0263358Y0230002D01*
X0263358Y0228567D01*
X0263358Y0230002D02*
X0261923Y0231436D01*
X0260489Y0232154D01*
X0258754Y0232154D02*
X0255885Y0232154D01*
X0255885Y0231436D01*
X0258754Y0228567D01*
X0258754Y0227850D01*
X0265093Y0231436D02*
X0265810Y0232154D01*
X0267245Y0232154D01*
X0267245Y0222154D02*
X0267962Y0221436D01*
X0267962Y0218567D01*
X0267245Y0217850D01*
X0265810Y0217850D01*
X0265093Y0218567D01*
X0263358Y0218567D02*
X0263358Y0220002D01*
X0261206Y0220002D01*
X0260489Y0219285D01*
X0260489Y0218567D01*
X0261206Y0217850D01*
X0262641Y0217850D01*
X0263358Y0218567D01*
X0263358Y0220002D02*
X0261923Y0221436D01*
X0260489Y0222154D01*
X0258754Y0220002D02*
X0256602Y0220002D01*
X0255885Y0219285D01*
X0255885Y0218567D01*
X0256602Y0217850D01*
X0258037Y0217850D01*
X0258754Y0218567D01*
X0258754Y0220002D01*
X0257319Y0221436D01*
X0255885Y0222154D01*
X0265093Y0221436D02*
X0265810Y0222154D01*
X0267245Y0222154D01*
X0250154Y0211115D02*
X0250154Y0208246D01*
X0248002Y0208246D01*
X0248719Y0209681D01*
X0248719Y0210398D01*
X0248002Y0211115D01*
X0246567Y0211115D01*
X0245850Y0210398D01*
X0245850Y0208963D01*
X0246567Y0208246D01*
X0246567Y0206511D02*
X0247285Y0206511D01*
X0248002Y0205794D01*
X0248002Y0203642D01*
X0246567Y0203642D01*
X0245850Y0204359D01*
X0245850Y0205794D01*
X0246567Y0206511D01*
X0249436Y0205077D02*
X0248002Y0203642D01*
X0249436Y0205077D02*
X0250154Y0206511D01*
X0249436Y0201907D02*
X0250154Y0201190D01*
X0250154Y0199755D01*
X0249436Y0199038D01*
X0246567Y0199038D01*
X0245850Y0199755D01*
X0245850Y0201190D01*
X0246567Y0201907D01*
X0258573Y0202067D02*
X0259290Y0201350D01*
X0260725Y0201350D01*
X0261442Y0202067D01*
X0261442Y0203502D01*
X0259290Y0203502D01*
X0258573Y0202785D01*
X0258573Y0202067D01*
X0260008Y0204936D02*
X0261442Y0203502D01*
X0263177Y0203502D02*
X0263177Y0202067D01*
X0263894Y0201350D01*
X0265329Y0201350D01*
X0266046Y0202067D01*
X0266046Y0203502D02*
X0264612Y0204219D01*
X0263894Y0204219D01*
X0263177Y0203502D01*
X0263177Y0205654D02*
X0266046Y0205654D01*
X0266046Y0203502D01*
X0267781Y0204936D02*
X0268498Y0205654D01*
X0269933Y0205654D01*
X0270650Y0204936D01*
X0270650Y0202067D01*
X0269933Y0201350D01*
X0268498Y0201350D01*
X0267781Y0202067D01*
X0260008Y0204936D02*
X0258573Y0205654D01*
X0232654Y0191398D02*
X0230502Y0189246D01*
X0230502Y0192115D01*
X0228350Y0191398D02*
X0232654Y0191398D01*
X0232654Y0187511D02*
X0231936Y0186077D01*
X0230502Y0184642D01*
X0230502Y0186794D01*
X0229785Y0187511D01*
X0229067Y0187511D01*
X0228350Y0186794D01*
X0228350Y0185359D01*
X0229067Y0184642D01*
X0230502Y0184642D01*
X0231936Y0182907D02*
X0232654Y0182190D01*
X0232654Y0180755D01*
X0231936Y0180038D01*
X0229067Y0180038D01*
X0228350Y0180755D01*
X0228350Y0182190D01*
X0229067Y0182907D01*
X0222154Y0182755D02*
X0222154Y0184190D01*
X0221436Y0184907D01*
X0220002Y0186642D02*
X0220002Y0188794D01*
X0219285Y0189511D01*
X0218567Y0189511D01*
X0217850Y0188794D01*
X0217850Y0187359D01*
X0218567Y0186642D01*
X0220002Y0186642D01*
X0221436Y0188077D01*
X0222154Y0189511D01*
X0221436Y0191246D02*
X0222154Y0191963D01*
X0222154Y0193398D01*
X0221436Y0194115D01*
X0220719Y0194115D01*
X0220002Y0193398D01*
X0219285Y0194115D01*
X0218567Y0194115D01*
X0217850Y0193398D01*
X0217850Y0191963D01*
X0218567Y0191246D01*
X0220002Y0192681D02*
X0220002Y0193398D01*
X0218567Y0184907D02*
X0217850Y0184190D01*
X0217850Y0182755D01*
X0218567Y0182038D01*
X0221436Y0182038D01*
X0222154Y0182755D01*
X0204154Y0196255D02*
X0203436Y0195538D01*
X0200567Y0195538D01*
X0199850Y0196255D01*
X0199850Y0197690D01*
X0200567Y0198407D01*
X0200567Y0200142D02*
X0199850Y0200859D01*
X0199850Y0202294D01*
X0200567Y0203011D01*
X0201285Y0203011D01*
X0202002Y0202294D01*
X0202002Y0200142D01*
X0200567Y0200142D01*
X0202002Y0200142D02*
X0203436Y0201577D01*
X0204154Y0203011D01*
X0203436Y0204746D02*
X0204154Y0205463D01*
X0204154Y0206898D01*
X0203436Y0207615D01*
X0202719Y0207615D01*
X0199850Y0204746D01*
X0199850Y0207615D01*
X0203436Y0198407D02*
X0204154Y0197690D01*
X0204154Y0196255D01*
X0180650Y0201067D02*
X0179933Y0200350D01*
X0178498Y0200350D01*
X0177781Y0201067D01*
X0176046Y0201067D02*
X0175329Y0200350D01*
X0173894Y0200350D01*
X0173177Y0201067D01*
X0173177Y0202502D01*
X0173894Y0203219D01*
X0174612Y0203219D01*
X0176046Y0202502D01*
X0176046Y0204654D01*
X0173177Y0204654D01*
X0171442Y0204654D02*
X0171442Y0202502D01*
X0170008Y0203219D01*
X0169290Y0203219D01*
X0168573Y0202502D01*
X0168573Y0201067D01*
X0169290Y0200350D01*
X0170725Y0200350D01*
X0171442Y0201067D01*
X0171442Y0204654D02*
X0168573Y0204654D01*
X0173385Y0212350D02*
X0176254Y0212350D01*
X0174819Y0212350D02*
X0174819Y0216654D01*
X0176254Y0215219D01*
X0177989Y0213785D02*
X0178706Y0214502D01*
X0180858Y0214502D01*
X0180858Y0213067D01*
X0180141Y0212350D01*
X0178706Y0212350D01*
X0177989Y0213067D01*
X0177989Y0213785D01*
X0179423Y0215936D02*
X0180858Y0214502D01*
X0179423Y0215936D02*
X0177989Y0216654D01*
X0182593Y0215936D02*
X0183310Y0216654D01*
X0184745Y0216654D01*
X0185462Y0215936D01*
X0185462Y0213067D01*
X0184745Y0212350D01*
X0183310Y0212350D01*
X0182593Y0213067D01*
X0179933Y0204654D02*
X0180650Y0203936D01*
X0180650Y0201067D01*
X0179933Y0204654D02*
X0178498Y0204654D01*
X0177781Y0203936D01*
X0177641Y0223850D02*
X0176206Y0223850D01*
X0175489Y0224567D01*
X0175489Y0225285D01*
X0176206Y0226002D01*
X0178358Y0226002D01*
X0178358Y0224567D01*
X0177641Y0223850D01*
X0178358Y0226002D02*
X0176923Y0227436D01*
X0175489Y0228154D01*
X0173754Y0227436D02*
X0173037Y0228154D01*
X0171602Y0228154D01*
X0170885Y0227436D01*
X0173754Y0224567D01*
X0173037Y0223850D01*
X0171602Y0223850D01*
X0170885Y0224567D01*
X0170885Y0227436D01*
X0173754Y0227436D02*
X0173754Y0224567D01*
X0180093Y0224567D02*
X0180810Y0223850D01*
X0182245Y0223850D01*
X0182962Y0224567D01*
X0182962Y0227436D01*
X0182245Y0228154D01*
X0180810Y0228154D01*
X0180093Y0227436D01*
X0161150Y0238850D02*
X0161150Y0243154D01*
X0158998Y0243154D01*
X0158281Y0242436D01*
X0158281Y0241002D01*
X0158998Y0240285D01*
X0161150Y0240285D01*
X0159715Y0240285D02*
X0158281Y0238850D01*
X0156546Y0239567D02*
X0156546Y0240285D01*
X0155829Y0241002D01*
X0154394Y0241002D01*
X0153677Y0240285D01*
X0153677Y0239567D01*
X0154394Y0238850D01*
X0155829Y0238850D01*
X0156546Y0239567D01*
X0155829Y0241002D02*
X0156546Y0241719D01*
X0156546Y0242436D01*
X0155829Y0243154D01*
X0154394Y0243154D01*
X0153677Y0242436D01*
X0153677Y0241719D01*
X0154394Y0241002D01*
X0147650Y0242600D02*
X0147650Y0246904D01*
X0145498Y0246904D01*
X0144781Y0246186D01*
X0144781Y0244752D01*
X0145498Y0244035D01*
X0147650Y0244035D01*
X0146215Y0244035D02*
X0144781Y0242600D01*
X0143046Y0242600D02*
X0140177Y0242600D01*
X0141612Y0242600D02*
X0141612Y0246904D01*
X0143046Y0245469D01*
X0138442Y0246186D02*
X0137725Y0246904D01*
X0136290Y0246904D01*
X0135573Y0246186D01*
X0138442Y0243317D01*
X0137725Y0242600D01*
X0136290Y0242600D01*
X0135573Y0243317D01*
X0135573Y0246186D01*
X0138442Y0246186D02*
X0138442Y0243317D01*
X0138748Y0235154D02*
X0140183Y0235154D01*
X0140900Y0234436D01*
X0140900Y0231567D01*
X0140183Y0230850D01*
X0138748Y0230850D01*
X0138031Y0231567D01*
X0136296Y0231567D02*
X0136296Y0230850D01*
X0136296Y0231567D02*
X0133427Y0234436D01*
X0133427Y0235154D01*
X0136296Y0235154D01*
X0138031Y0234436D02*
X0138748Y0235154D01*
X0124650Y0246067D02*
X0123933Y0245350D01*
X0122498Y0245350D01*
X0121781Y0246067D01*
X0120046Y0245350D02*
X0117177Y0245350D01*
X0118612Y0245350D02*
X0118612Y0249654D01*
X0120046Y0248219D01*
X0121781Y0248936D02*
X0122498Y0249654D01*
X0123933Y0249654D01*
X0124650Y0248936D01*
X0124650Y0246067D01*
X0115442Y0247502D02*
X0112573Y0247502D01*
X0113290Y0245350D02*
X0113290Y0249654D01*
X0115442Y0247502D01*
X0107650Y0248936D02*
X0107650Y0246067D01*
X0106933Y0245350D01*
X0105498Y0245350D01*
X0104781Y0246067D01*
X0103046Y0245350D02*
X0100177Y0245350D01*
X0101612Y0245350D02*
X0101612Y0249654D01*
X0103046Y0248219D01*
X0104781Y0248936D02*
X0105498Y0249654D01*
X0106933Y0249654D01*
X0107650Y0248936D01*
X0098442Y0248936D02*
X0097725Y0249654D01*
X0096290Y0249654D01*
X0095573Y0248936D01*
X0095573Y0248219D01*
X0096290Y0247502D01*
X0095573Y0246785D01*
X0095573Y0246067D01*
X0096290Y0245350D01*
X0097725Y0245350D01*
X0098442Y0246067D01*
X0097008Y0247502D02*
X0096290Y0247502D01*
X0097319Y0224654D02*
X0097319Y0220350D01*
X0095885Y0220350D02*
X0098754Y0220350D01*
X0100489Y0220350D02*
X0103358Y0220350D01*
X0100489Y0223219D01*
X0100489Y0223936D01*
X0101206Y0224654D01*
X0102641Y0224654D01*
X0103358Y0223936D01*
X0105093Y0223936D02*
X0105810Y0224654D01*
X0107245Y0224654D01*
X0107962Y0223936D01*
X0107962Y0221067D01*
X0107245Y0220350D01*
X0105810Y0220350D01*
X0105093Y0221067D01*
X0098754Y0223219D02*
X0097319Y0224654D01*
X0112385Y0223936D02*
X0112385Y0223219D01*
X0115254Y0220350D01*
X0112385Y0220350D01*
X0112385Y0223936D02*
X0113102Y0224654D01*
X0114537Y0224654D01*
X0115254Y0223936D01*
X0116989Y0223936D02*
X0117706Y0224654D01*
X0119141Y0224654D01*
X0119858Y0223936D01*
X0121593Y0223936D02*
X0122310Y0224654D01*
X0123745Y0224654D01*
X0124462Y0223936D01*
X0124462Y0221067D01*
X0123745Y0220350D01*
X0122310Y0220350D01*
X0121593Y0221067D01*
X0119858Y0220350D02*
X0116989Y0223219D01*
X0116989Y0223936D01*
X0116989Y0220350D02*
X0119858Y0220350D01*
X0133100Y0216398D02*
X0133100Y0214963D01*
X0133817Y0214246D01*
X0134535Y0214246D01*
X0135252Y0214963D01*
X0135252Y0216398D01*
X0134535Y0217115D01*
X0133817Y0217115D01*
X0133100Y0216398D01*
X0135252Y0216398D02*
X0135969Y0217115D01*
X0136686Y0217115D01*
X0137404Y0216398D01*
X0137404Y0214963D01*
X0136686Y0214246D01*
X0135969Y0214246D01*
X0135252Y0214963D01*
X0136686Y0212511D02*
X0137404Y0211794D01*
X0137404Y0210359D01*
X0136686Y0209642D01*
X0133817Y0209642D01*
X0133100Y0210359D01*
X0133100Y0211794D01*
X0133817Y0212511D01*
X0133100Y0208007D02*
X0133100Y0206573D01*
X0133100Y0207290D02*
X0137404Y0207290D01*
X0137404Y0206573D02*
X0137404Y0208007D01*
X0138748Y0195154D02*
X0140183Y0195154D01*
X0140900Y0194436D01*
X0140900Y0191567D01*
X0140183Y0190850D01*
X0138748Y0190850D01*
X0138031Y0191567D01*
X0136296Y0191567D02*
X0135579Y0190850D01*
X0134144Y0190850D01*
X0133427Y0191567D01*
X0133427Y0194436D01*
X0134144Y0195154D01*
X0135579Y0195154D01*
X0136296Y0194436D01*
X0136296Y0193719D01*
X0135579Y0193002D01*
X0133427Y0193002D01*
X0138031Y0194436D02*
X0138748Y0195154D01*
X0170508Y0179654D02*
X0171942Y0178219D01*
X0173677Y0177502D02*
X0173677Y0176067D01*
X0174394Y0175350D01*
X0175829Y0175350D01*
X0176546Y0176067D01*
X0176546Y0177502D02*
X0175112Y0178219D01*
X0174394Y0178219D01*
X0173677Y0177502D01*
X0173677Y0179654D02*
X0176546Y0179654D01*
X0176546Y0177502D01*
X0178281Y0178936D02*
X0178998Y0179654D01*
X0180433Y0179654D01*
X0181150Y0178936D01*
X0181150Y0176067D01*
X0180433Y0175350D01*
X0178998Y0175350D01*
X0178281Y0176067D01*
X0171942Y0175350D02*
X0169073Y0175350D01*
X0170508Y0175350D02*
X0170508Y0179654D01*
X0124650Y0168936D02*
X0124650Y0166067D01*
X0123933Y0165350D01*
X0122498Y0165350D01*
X0121781Y0166067D01*
X0120046Y0165350D02*
X0117177Y0168219D01*
X0117177Y0168936D01*
X0117894Y0169654D01*
X0119329Y0169654D01*
X0120046Y0168936D01*
X0121781Y0168936D02*
X0122498Y0169654D01*
X0123933Y0169654D01*
X0124650Y0168936D01*
X0120046Y0165350D02*
X0117177Y0165350D01*
X0115442Y0167502D02*
X0112573Y0167502D01*
X0113290Y0165350D02*
X0113290Y0169654D01*
X0115442Y0167502D01*
X0107650Y0168936D02*
X0107650Y0166067D01*
X0106933Y0165350D01*
X0105498Y0165350D01*
X0104781Y0166067D01*
X0103046Y0165350D02*
X0100177Y0168219D01*
X0100177Y0168936D01*
X0100894Y0169654D01*
X0102329Y0169654D01*
X0103046Y0168936D01*
X0104781Y0168936D02*
X0105498Y0169654D01*
X0106933Y0169654D01*
X0107650Y0168936D01*
X0103046Y0165350D02*
X0100177Y0165350D01*
X0098442Y0166067D02*
X0097725Y0165350D01*
X0096290Y0165350D01*
X0095573Y0166067D01*
X0095573Y0166785D01*
X0096290Y0167502D01*
X0097008Y0167502D01*
X0096290Y0167502D02*
X0095573Y0168219D01*
X0095573Y0168936D01*
X0096290Y0169654D01*
X0097725Y0169654D01*
X0098442Y0168936D01*
X0097319Y0129654D02*
X0097319Y0125350D01*
X0095885Y0125350D02*
X0098754Y0125350D01*
X0100489Y0126067D02*
X0101206Y0125350D01*
X0102641Y0125350D01*
X0103358Y0126067D01*
X0105093Y0126067D02*
X0105810Y0125350D01*
X0107245Y0125350D01*
X0107962Y0126067D01*
X0107962Y0128936D01*
X0107245Y0129654D01*
X0105810Y0129654D01*
X0105093Y0128936D01*
X0103358Y0128936D02*
X0102641Y0129654D01*
X0101206Y0129654D01*
X0100489Y0128936D01*
X0100489Y0128219D01*
X0101206Y0127502D01*
X0100489Y0126785D01*
X0100489Y0126067D01*
X0101206Y0127502D02*
X0101923Y0127502D01*
X0098754Y0128219D02*
X0097319Y0129654D01*
X0112385Y0128936D02*
X0112385Y0128219D01*
X0115254Y0125350D01*
X0112385Y0125350D01*
X0112385Y0128936D02*
X0113102Y0129654D01*
X0114537Y0129654D01*
X0115254Y0128936D01*
X0116989Y0128936D02*
X0116989Y0128219D01*
X0117706Y0127502D01*
X0116989Y0126785D01*
X0116989Y0126067D01*
X0117706Y0125350D01*
X0119141Y0125350D01*
X0119858Y0126067D01*
X0121593Y0126067D02*
X0122310Y0125350D01*
X0123745Y0125350D01*
X0124462Y0126067D01*
X0124462Y0128936D01*
X0123745Y0129654D01*
X0122310Y0129654D01*
X0121593Y0128936D01*
X0119858Y0128936D02*
X0119141Y0129654D01*
X0117706Y0129654D01*
X0116989Y0128936D01*
X0117706Y0127502D02*
X0118423Y0127502D01*
X0118329Y0074154D02*
X0116894Y0074154D01*
X0116177Y0073436D01*
X0116177Y0072719D01*
X0116894Y0072002D01*
X0116177Y0071285D01*
X0116177Y0070567D01*
X0116894Y0069850D01*
X0118329Y0069850D01*
X0119046Y0070567D01*
X0120781Y0070567D02*
X0121498Y0069850D01*
X0122933Y0069850D01*
X0123650Y0070567D01*
X0123650Y0073436D01*
X0122933Y0074154D01*
X0121498Y0074154D01*
X0120781Y0073436D01*
X0119046Y0073436D02*
X0118329Y0074154D01*
X0117612Y0072002D02*
X0116894Y0072002D01*
X0114442Y0072002D02*
X0112290Y0074154D01*
X0112290Y0069850D01*
X0111573Y0072002D02*
X0114442Y0072002D01*
X0107650Y0071067D02*
X0107650Y0073936D01*
X0106933Y0074654D01*
X0105498Y0074654D01*
X0104781Y0073936D01*
X0103046Y0073936D02*
X0102329Y0074654D01*
X0100894Y0074654D01*
X0100177Y0073936D01*
X0100177Y0073219D01*
X0100894Y0072502D01*
X0100177Y0071785D01*
X0100177Y0071067D01*
X0100894Y0070350D01*
X0102329Y0070350D01*
X0103046Y0071067D01*
X0104781Y0071067D02*
X0105498Y0070350D01*
X0106933Y0070350D01*
X0107650Y0071067D01*
X0101612Y0072502D02*
X0100894Y0072502D01*
X0098442Y0073936D02*
X0097725Y0074654D01*
X0096290Y0074654D01*
X0095573Y0073936D01*
X0095573Y0073219D01*
X0096290Y0072502D01*
X0095573Y0071785D01*
X0095573Y0071067D01*
X0096290Y0070350D01*
X0097725Y0070350D01*
X0098442Y0071067D01*
X0097008Y0072502D02*
X0096290Y0072502D01*
X0259073Y0174350D02*
X0261942Y0174350D01*
X0259073Y0177219D01*
X0259073Y0177936D01*
X0259790Y0178654D01*
X0261225Y0178654D01*
X0261942Y0177936D01*
X0263677Y0178654D02*
X0266546Y0178654D01*
X0266546Y0176502D01*
X0265112Y0177219D01*
X0264394Y0177219D01*
X0263677Y0176502D01*
X0263677Y0175067D01*
X0264394Y0174350D01*
X0265829Y0174350D01*
X0266546Y0175067D01*
X0268281Y0175067D02*
X0268998Y0174350D01*
X0270433Y0174350D01*
X0271150Y0175067D01*
X0271150Y0177936D01*
X0270433Y0178654D01*
X0268998Y0178654D01*
X0268281Y0177936D01*
X0298790Y0137154D02*
X0298073Y0136436D01*
X0298073Y0135719D01*
X0298790Y0135002D01*
X0300225Y0135002D01*
X0300942Y0135719D01*
X0300942Y0136436D01*
X0300225Y0137154D01*
X0298790Y0137154D01*
X0298790Y0135002D02*
X0298073Y0134285D01*
X0298073Y0133567D01*
X0298790Y0132850D01*
X0300225Y0132850D01*
X0300942Y0133567D01*
X0300942Y0134285D01*
X0300225Y0135002D01*
X0302677Y0132850D02*
X0305546Y0132850D01*
X0304112Y0132850D02*
X0304112Y0137154D01*
X0305546Y0135719D01*
X0307281Y0136436D02*
X0307281Y0135002D01*
X0307998Y0134285D01*
X0310150Y0134285D01*
X0308715Y0134285D02*
X0307281Y0132850D01*
X0310150Y0132850D02*
X0310150Y0137154D01*
X0307998Y0137154D01*
X0307281Y0136436D01*
X0307998Y0127154D02*
X0307281Y0126436D01*
X0307281Y0125002D01*
X0307998Y0124285D01*
X0310150Y0124285D01*
X0308715Y0124285D02*
X0307281Y0122850D01*
X0305546Y0122850D02*
X0302677Y0122850D01*
X0304112Y0122850D02*
X0304112Y0127154D01*
X0305546Y0125719D01*
X0307998Y0127154D02*
X0310150Y0127154D01*
X0310150Y0122850D01*
X0300942Y0122850D02*
X0300942Y0123567D01*
X0298073Y0126436D01*
X0298073Y0127154D01*
X0300942Y0127154D01*
X0207436Y0229350D02*
X0204567Y0229350D01*
X0203850Y0230067D01*
X0203850Y0231502D01*
X0204567Y0232219D01*
X0204567Y0233954D02*
X0203850Y0234671D01*
X0203850Y0236106D01*
X0204567Y0236823D01*
X0206002Y0236823D01*
X0206719Y0236106D01*
X0206719Y0235388D01*
X0206002Y0233954D01*
X0208154Y0233954D01*
X0208154Y0236823D01*
X0207436Y0238558D02*
X0206719Y0238558D01*
X0206002Y0239275D01*
X0206002Y0241427D01*
X0207436Y0241427D02*
X0208154Y0240710D01*
X0208154Y0239275D01*
X0207436Y0238558D01*
X0204567Y0238558D02*
X0203850Y0239275D01*
X0203850Y0240710D01*
X0204567Y0241427D01*
X0207436Y0241427D01*
X0207436Y0232219D02*
X0208154Y0231502D01*
X0208154Y0230067D01*
X0207436Y0229350D01*
X0199933Y0250850D02*
X0198498Y0250850D01*
X0197781Y0251567D01*
X0196046Y0251567D02*
X0195329Y0250850D01*
X0193894Y0250850D01*
X0193177Y0251567D01*
X0193177Y0253002D01*
X0193894Y0253719D01*
X0194612Y0253719D01*
X0196046Y0253002D01*
X0196046Y0255154D01*
X0193177Y0255154D01*
X0191442Y0254436D02*
X0191442Y0253719D01*
X0190725Y0253002D01*
X0189290Y0253002D01*
X0188573Y0252285D01*
X0188573Y0251567D01*
X0189290Y0250850D01*
X0190725Y0250850D01*
X0191442Y0251567D01*
X0191442Y0252285D01*
X0190725Y0253002D01*
X0189290Y0253002D02*
X0188573Y0253719D01*
X0188573Y0254436D01*
X0189290Y0255154D01*
X0190725Y0255154D01*
X0191442Y0254436D01*
X0197781Y0254436D02*
X0198498Y0255154D01*
X0199933Y0255154D01*
X0200650Y0254436D01*
X0200650Y0251567D01*
X0199933Y0250850D01*
X0228850Y0265755D02*
X0228850Y0267190D01*
X0229567Y0267907D01*
X0229567Y0269642D02*
X0228850Y0269642D01*
X0229567Y0269642D02*
X0232436Y0272511D01*
X0233154Y0272511D01*
X0233154Y0269642D01*
X0232436Y0267907D02*
X0233154Y0267190D01*
X0233154Y0265755D01*
X0232436Y0265038D01*
X0229567Y0265038D01*
X0228850Y0265755D01*
X0222654Y0269255D02*
X0221936Y0268538D01*
X0219067Y0268538D01*
X0218350Y0269255D01*
X0218350Y0270690D01*
X0219067Y0271407D01*
X0219067Y0273142D02*
X0218350Y0273142D01*
X0219067Y0273142D02*
X0221936Y0276011D01*
X0222654Y0276011D01*
X0222654Y0273142D01*
X0221936Y0271407D02*
X0222654Y0270690D01*
X0222654Y0269255D01*
X0228850Y0274963D02*
X0229567Y0274246D01*
X0232436Y0277115D01*
X0229567Y0277115D01*
X0228850Y0276398D01*
X0228850Y0274963D01*
X0229567Y0274246D02*
X0232436Y0274246D01*
X0233154Y0274963D01*
X0233154Y0276398D01*
X0232436Y0277115D01*
X0232285Y0284350D02*
X0232285Y0286502D01*
X0233002Y0287219D01*
X0234436Y0287219D01*
X0235154Y0286502D01*
X0235154Y0284350D01*
X0230850Y0284350D01*
X0232285Y0285785D02*
X0230850Y0287219D01*
X0230850Y0288954D02*
X0230850Y0291823D01*
X0230850Y0290388D02*
X0235154Y0290388D01*
X0233719Y0288954D01*
X0233719Y0293558D02*
X0233002Y0294275D01*
X0233002Y0296427D01*
X0234436Y0296427D02*
X0235154Y0295710D01*
X0235154Y0294275D01*
X0234436Y0293558D01*
X0233719Y0293558D01*
X0231567Y0293558D02*
X0230850Y0294275D01*
X0230850Y0295710D01*
X0231567Y0296427D01*
X0234436Y0296427D01*
X0218150Y0299350D02*
X0218150Y0303654D01*
X0215998Y0303654D01*
X0215281Y0302936D01*
X0215281Y0301502D01*
X0215998Y0300785D01*
X0218150Y0300785D01*
X0216715Y0300785D02*
X0215281Y0299350D01*
X0213546Y0299350D02*
X0213546Y0300067D01*
X0210677Y0302936D01*
X0210677Y0303654D01*
X0213546Y0303654D01*
X0208150Y0303154D02*
X0208150Y0298850D01*
X0208150Y0300285D02*
X0205998Y0300285D01*
X0205281Y0301002D01*
X0205281Y0302436D01*
X0205998Y0303154D01*
X0208150Y0303154D01*
X0206715Y0300285D02*
X0205281Y0298850D01*
X0203546Y0299567D02*
X0202829Y0298850D01*
X0201394Y0298850D01*
X0200677Y0299567D01*
X0200677Y0301002D01*
X0201394Y0301719D01*
X0202112Y0301719D01*
X0203546Y0301002D01*
X0203546Y0303154D01*
X0200677Y0303154D01*
X0189154Y0293323D02*
X0188436Y0291888D01*
X0187002Y0290454D01*
X0187002Y0292606D01*
X0186285Y0293323D01*
X0185567Y0293323D01*
X0184850Y0292606D01*
X0184850Y0291171D01*
X0185567Y0290454D01*
X0187002Y0290454D01*
X0187002Y0288719D02*
X0186285Y0288002D01*
X0186285Y0285850D01*
X0186285Y0287285D02*
X0184850Y0288719D01*
X0187002Y0288719D02*
X0188436Y0288719D01*
X0189154Y0288002D01*
X0189154Y0285850D01*
X0184850Y0285850D01*
X0181150Y0284436D02*
X0181150Y0281567D01*
X0180433Y0280850D01*
X0178998Y0280850D01*
X0178281Y0281567D01*
X0176546Y0281567D02*
X0175829Y0280850D01*
X0174394Y0280850D01*
X0173677Y0281567D01*
X0173677Y0283002D01*
X0174394Y0283719D01*
X0175112Y0283719D01*
X0176546Y0283002D01*
X0176546Y0285154D01*
X0173677Y0285154D01*
X0171942Y0284436D02*
X0171225Y0285154D01*
X0169790Y0285154D01*
X0169073Y0284436D01*
X0171942Y0281567D01*
X0171225Y0280850D01*
X0169790Y0280850D01*
X0169073Y0281567D01*
X0169073Y0284436D01*
X0171942Y0284436D02*
X0171942Y0281567D01*
X0178281Y0284436D02*
X0178998Y0285154D01*
X0180433Y0285154D01*
X0181150Y0284436D01*
X0208350Y0280615D02*
X0208350Y0277746D01*
X0211219Y0280615D01*
X0211936Y0280615D01*
X0212654Y0279898D01*
X0212654Y0278463D01*
X0211936Y0277746D01*
X0211936Y0276011D02*
X0209067Y0273142D01*
X0208350Y0273142D01*
X0209067Y0271407D02*
X0208350Y0270690D01*
X0208350Y0269255D01*
X0209067Y0268538D01*
X0211936Y0268538D01*
X0212654Y0269255D01*
X0212654Y0270690D01*
X0211936Y0271407D01*
X0212654Y0273142D02*
X0212654Y0276011D01*
X0211936Y0276011D01*
X0218350Y0277746D02*
X0218350Y0280615D01*
X0218350Y0279181D02*
X0222654Y0279181D01*
X0221219Y0277746D01*
X0245850Y0259710D02*
X0246567Y0260427D01*
X0249436Y0260427D01*
X0250154Y0259710D01*
X0250154Y0258275D01*
X0249436Y0257558D01*
X0248719Y0257558D01*
X0248002Y0258275D01*
X0248002Y0260427D01*
X0245850Y0259710D02*
X0245850Y0258275D01*
X0246567Y0257558D01*
X0246567Y0255823D02*
X0247285Y0255823D01*
X0248002Y0255106D01*
X0248002Y0252954D01*
X0246567Y0252954D01*
X0245850Y0253671D01*
X0245850Y0255106D01*
X0246567Y0255823D01*
X0249436Y0254388D02*
X0248002Y0252954D01*
X0249436Y0254388D02*
X0250154Y0255823D01*
X0249436Y0251219D02*
X0250154Y0250502D01*
X0250154Y0249067D01*
X0249436Y0248350D01*
X0246567Y0248350D01*
X0245850Y0249067D01*
X0245850Y0250502D01*
X0246567Y0251219D01*
X0259573Y0257936D02*
X0262442Y0255067D01*
X0262442Y0254350D01*
X0264177Y0255067D02*
X0264894Y0254350D01*
X0266329Y0254350D01*
X0267046Y0255067D01*
X0267046Y0256502D02*
X0265612Y0257219D01*
X0264894Y0257219D01*
X0264177Y0256502D01*
X0264177Y0255067D01*
X0267046Y0256502D02*
X0267046Y0258654D01*
X0264177Y0258654D01*
X0262442Y0258654D02*
X0259573Y0258654D01*
X0259573Y0257936D01*
X0268781Y0257936D02*
X0269498Y0258654D01*
X0270933Y0258654D01*
X0271650Y0257936D01*
X0271650Y0255067D01*
X0270933Y0254350D01*
X0269498Y0254350D01*
X0268781Y0255067D01*
X0268933Y0281350D02*
X0267498Y0281350D01*
X0266781Y0282067D01*
X0265046Y0282067D02*
X0264329Y0281350D01*
X0262894Y0281350D01*
X0262177Y0282067D01*
X0262177Y0283502D01*
X0262894Y0284219D01*
X0263612Y0284219D01*
X0265046Y0283502D01*
X0265046Y0285654D01*
X0262177Y0285654D01*
X0260442Y0284936D02*
X0259725Y0285654D01*
X0258290Y0285654D01*
X0257573Y0284936D01*
X0257573Y0284219D01*
X0258290Y0283502D01*
X0257573Y0282785D01*
X0257573Y0282067D01*
X0258290Y0281350D01*
X0259725Y0281350D01*
X0260442Y0282067D01*
X0259008Y0283502D02*
X0258290Y0283502D01*
X0266781Y0284936D02*
X0267498Y0285654D01*
X0268933Y0285654D01*
X0269650Y0284936D01*
X0269650Y0282067D01*
X0268933Y0281350D01*
X0331801Y0254731D02*
X0331801Y0250427D01*
X0333235Y0250427D02*
X0330366Y0250427D01*
X0333235Y0253296D02*
X0331801Y0254731D01*
X0334970Y0252579D02*
X0337839Y0252579D01*
X0335687Y0254731D01*
X0335687Y0250427D01*
X0339574Y0251144D02*
X0340291Y0250427D01*
X0341726Y0250427D01*
X0342443Y0251144D01*
X0342443Y0254014D01*
X0341726Y0254731D01*
X0340291Y0254731D01*
X0339574Y0254014D01*
X0165650Y0263567D02*
X0164933Y0262850D01*
X0163498Y0262850D01*
X0162781Y0263567D01*
X0161046Y0263567D02*
X0160329Y0262850D01*
X0158894Y0262850D01*
X0158177Y0263567D01*
X0158177Y0265002D01*
X0158894Y0265719D01*
X0159612Y0265719D01*
X0161046Y0265002D01*
X0161046Y0267154D01*
X0158177Y0267154D01*
X0156442Y0265002D02*
X0153573Y0265002D01*
X0154290Y0267154D02*
X0156442Y0265002D01*
X0154290Y0262850D02*
X0154290Y0267154D01*
X0162781Y0266436D02*
X0163498Y0267154D01*
X0164933Y0267154D01*
X0165650Y0266436D01*
X0165650Y0263567D01*
X0161150Y0254154D02*
X0158998Y0254154D01*
X0158281Y0253436D01*
X0158281Y0252002D01*
X0158998Y0251285D01*
X0161150Y0251285D01*
X0159715Y0251285D02*
X0158281Y0249850D01*
X0156546Y0250567D02*
X0155829Y0249850D01*
X0154394Y0249850D01*
X0153677Y0250567D01*
X0153677Y0253436D01*
X0154394Y0254154D01*
X0155829Y0254154D01*
X0156546Y0253436D01*
X0156546Y0252719D01*
X0155829Y0252002D01*
X0153677Y0252002D01*
X0161150Y0249850D02*
X0161150Y0254154D01*
X0122745Y0298850D02*
X0121310Y0298850D01*
X0120593Y0299567D01*
X0118858Y0298850D02*
X0115989Y0298850D01*
X0117423Y0298850D02*
X0117423Y0303154D01*
X0118858Y0301719D01*
X0120593Y0302436D02*
X0121310Y0303154D01*
X0122745Y0303154D01*
X0123462Y0302436D01*
X0123462Y0299567D01*
X0122745Y0298850D01*
X0114254Y0298850D02*
X0111385Y0301719D01*
X0111385Y0302436D01*
X0112102Y0303154D01*
X0113537Y0303154D01*
X0114254Y0302436D01*
X0114254Y0298850D02*
X0111385Y0298850D01*
X0108462Y0299567D02*
X0107745Y0298850D01*
X0106310Y0298850D01*
X0105593Y0299567D01*
X0103858Y0298850D02*
X0100989Y0298850D01*
X0102423Y0298850D02*
X0102423Y0303154D01*
X0103858Y0301719D01*
X0105593Y0302436D02*
X0106310Y0303154D01*
X0107745Y0303154D01*
X0108462Y0302436D01*
X0108462Y0299567D01*
X0099254Y0298850D02*
X0096385Y0298850D01*
X0097819Y0298850D02*
X0097819Y0303154D01*
X0099254Y0301719D01*
D17*
X0142750Y0215750D03*
D18*
X0099519Y0048466D02*
X0099614Y0048438D01*
X0099707Y0048406D01*
X0099795Y0048371D01*
X0099880Y0048331D01*
X0099961Y0048288D01*
X0100037Y0048242D01*
X0100109Y0048192D01*
X0100177Y0048139D01*
X0100242Y0048083D01*
X0100304Y0048025D01*
X0100362Y0047965D01*
X0100418Y0047904D01*
X0100471Y0047841D01*
X0100522Y0047778D01*
X0100572Y0047714D01*
X0100621Y0047650D01*
X0100669Y0047585D01*
X0100716Y0047520D01*
X0100764Y0047453D01*
X0100813Y0047385D01*
X0100864Y0047314D01*
X0100919Y0047239D01*
X0100979Y0047157D01*
X0101046Y0047066D01*
X0101123Y0046964D01*
X0101210Y0046848D01*
X0101312Y0046714D01*
X0101431Y0046558D01*
X0101569Y0046377D01*
X0101730Y0046168D01*
X0101915Y0045926D01*
X0102129Y0045650D01*
X0102371Y0045335D01*
X0102644Y0044982D01*
X0102948Y0044588D01*
X0103283Y0044155D01*
X0103648Y0043683D01*
X0104041Y0043175D01*
X0104459Y0042634D01*
X0104900Y0042065D01*
X0105358Y0041473D01*
X0105828Y0040865D01*
X0106307Y0040247D01*
X0106787Y0039627D01*
X0107263Y0039012D01*
X0107730Y0038408D01*
X0108182Y0037824D01*
X0108615Y0037265D01*
X0109024Y0036736D01*
X0109406Y0036243D01*
X0109759Y0035787D01*
X0110079Y0035373D01*
X0110368Y0035000D01*
X0110623Y0034669D01*
X0110534Y0034784D02*
X0112005Y0032872D01*
X0112069Y0032794D01*
X0112146Y0032699D01*
X0112237Y0032583D01*
X0112344Y0032446D01*
X0112468Y0032287D01*
X0112609Y0032105D01*
X0112767Y0031901D01*
X0112942Y0031675D01*
X0113131Y0031430D01*
X0113334Y0031169D01*
X0113546Y0030895D01*
X0113766Y0030611D01*
X0113990Y0030322D01*
X0114214Y0030032D01*
X0114435Y0029747D01*
X0114649Y0029469D01*
X0114855Y0029204D01*
X0115049Y0028953D01*
X0115228Y0028721D01*
X0115393Y0028507D01*
X0115542Y0028314D01*
X0115675Y0028142D01*
X0115793Y0027989D01*
X0115896Y0027855D01*
X0115987Y0027738D01*
X0116066Y0027635D01*
X0116135Y0027544D01*
X0116197Y0027463D01*
X0116253Y0027388D01*
X0116306Y0027319D01*
X0116357Y0027252D01*
X0116407Y0027186D01*
X0116458Y0027119D01*
X0116510Y0027050D01*
X0116564Y0026978D01*
X0116621Y0026903D01*
X0116682Y0026824D01*
X0116745Y0026742D01*
X0116812Y0026656D01*
X0116881Y0026567D01*
X0116954Y0026475D01*
X0117029Y0026381D01*
X0117106Y0026286D01*
X0117184Y0026189D01*
X0117264Y0026093D01*
X0117345Y0025997D01*
X0117426Y0025902D01*
X0117507Y0025809D01*
X0117588Y0025718D01*
X0117668Y0025630D01*
X0117746Y0025546D01*
X0117823Y0025465D01*
X0117899Y0025388D01*
X0117972Y0025315D01*
X0118043Y0025246D01*
X0118111Y0025181D01*
X0118177Y0025120D01*
X0118241Y0025064D01*
X0118302Y0025011D01*
X0118360Y0024961D01*
X0118416Y0024916D01*
X0118469Y0024873D01*
X0118521Y0024834D01*
X0118570Y0024797D01*
X0118617Y0024763D01*
X0118662Y0024732D01*
X0118706Y0024703D01*
X0118748Y0024676D01*
X0118789Y0024652D01*
X0118830Y0024630D01*
X0118870Y0024609D01*
X0118909Y0024590D01*
X0118947Y0024573D01*
X0118986Y0024557D01*
X0119025Y0024542D01*
X0119063Y0024529D01*
X0119102Y0024516D01*
X0119141Y0024505D01*
X0119180Y0024494D01*
X0119220Y0024484D01*
X0119261Y0024475D01*
X0119302Y0024466D01*
X0119344Y0024457D01*
X0119387Y0024449D01*
X0119431Y0024441D01*
X0119476Y0024433D01*
X0119522Y0024425D01*
X0119570Y0024417D01*
X0119620Y0024410D01*
X0119671Y0024402D01*
X0119724Y0024395D01*
X0119780Y0024387D01*
X0119837Y0024379D01*
X0119897Y0024372D01*
X0119959Y0024364D01*
X0120023Y0024357D01*
X0120089Y0024349D01*
X0120157Y0024341D01*
X0120227Y0024332D01*
X0120299Y0024324D01*
X0120373Y0024314D01*
X0120447Y0024304D01*
X0120523Y0024292D01*
X0120599Y0024280D01*
X0120675Y0024265D01*
X0120750Y0024249D01*
X0120824Y0024230D01*
X0120896Y0024208D01*
X0120965Y0024183D01*
X0121032Y0024154D01*
X0121096Y0024122D01*
X0121155Y0024085D01*
X0121210Y0024045D01*
X0121261Y0024000D01*
X0121307Y0023951D01*
X0121349Y0023898D01*
X0121385Y0023842D01*
X0121418Y0023782D01*
X0121445Y0023720D01*
X0121469Y0023655D01*
X0121489Y0023589D01*
X0121505Y0023522D01*
X0121518Y0023454D01*
X0121527Y0023386D01*
X0121534Y0023320D01*
X0121539Y0023254D01*
X0121541Y0023191D01*
X0121540Y0023130D01*
X0121537Y0023072D01*
X0121532Y0023018D01*
X0121524Y0022967D01*
X0121514Y0022919D01*
X0121501Y0022876D01*
X0121485Y0022837D01*
X0121466Y0022801D01*
X0121444Y0022770D01*
X0121420Y0022742D01*
X0121392Y0022718D01*
X0121362Y0022698D01*
X0121330Y0022681D01*
X0121294Y0022667D01*
X0121256Y0022655D01*
X0121216Y0022646D01*
X0121173Y0022639D01*
X0121128Y0022633D01*
X0121080Y0022629D01*
X0121030Y0022626D01*
X0120978Y0022624D01*
X0120922Y0022623D01*
X0120863Y0022622D01*
X0120801Y0022622D01*
X0120736Y0022623D01*
X0120666Y0022624D01*
X0120593Y0022625D01*
X0120515Y0022627D01*
X0120433Y0022629D01*
X0120347Y0022632D01*
X0120256Y0022635D01*
X0120161Y0022638D01*
X0120062Y0022642D01*
X0119959Y0022647D01*
X0119852Y0022652D01*
X0119741Y0022657D01*
X0119628Y0022664D01*
X0119512Y0022671D01*
X0119393Y0022678D01*
X0119272Y0022686D01*
X0119150Y0022694D01*
X0119026Y0022703D01*
X0118901Y0022712D01*
X0118776Y0022721D01*
X0118649Y0022730D01*
X0118522Y0022739D01*
X0118394Y0022748D01*
X0118267Y0022757D01*
X0118139Y0022765D01*
X0118011Y0022773D01*
X0117882Y0022780D01*
X0117754Y0022786D01*
X0117626Y0022792D01*
X0117498Y0022797D01*
X0117369Y0022801D01*
X0117241Y0022805D01*
X0117113Y0022808D01*
X0116985Y0022810D01*
X0116856Y0022812D01*
X0116728Y0022813D01*
X0116600Y0022814D01*
X0116472Y0022814D01*
X0116344Y0022813D01*
X0116216Y0022812D01*
X0116088Y0022810D01*
X0115960Y0022808D01*
X0115832Y0022805D01*
X0115704Y0022801D01*
X0115576Y0022797D01*
X0115448Y0022792D01*
X0115320Y0022786D01*
X0115193Y0022780D01*
X0115065Y0022773D01*
X0114937Y0022765D01*
X0114810Y0022757D01*
X0114682Y0022748D01*
X0114555Y0022739D01*
X0114428Y0022730D01*
X0114301Y0022721D01*
X0114175Y0022712D01*
X0114050Y0022703D01*
X0113926Y0022694D01*
X0113802Y0022686D01*
X0113681Y0022678D01*
X0113561Y0022671D01*
X0113443Y0022664D01*
X0113329Y0022658D01*
X0113217Y0022652D01*
X0113108Y0022647D01*
X0113003Y0022643D01*
X0112902Y0022639D01*
X0112805Y0022636D01*
X0112712Y0022634D01*
X0112623Y0022633D01*
X0112539Y0022633D01*
X0112459Y0022633D01*
X0112383Y0022634D01*
X0112310Y0022636D01*
X0112242Y0022640D01*
X0112176Y0022644D01*
X0112113Y0022650D01*
X0112053Y0022658D01*
X0111995Y0022667D01*
X0111939Y0022678D01*
X0111885Y0022690D01*
X0111833Y0022705D01*
X0111783Y0022722D01*
X0111735Y0022742D01*
X0111689Y0022764D01*
X0111645Y0022789D01*
X0111604Y0022817D01*
X0111565Y0022848D01*
X0111529Y0022883D01*
X0111496Y0022922D01*
X0111465Y0022965D01*
X0111438Y0023012D01*
X0111413Y0023063D01*
X0111391Y0023119D01*
X0111373Y0023179D01*
X0111358Y0023245D01*
X0111346Y0023314D01*
X0111338Y0023387D01*
X0111334Y0023464D01*
X0111334Y0023544D01*
X0111340Y0023626D01*
X0111353Y0023709D01*
X0111372Y0023791D01*
X0111401Y0023872D01*
X0111438Y0023949D01*
X0111487Y0024023D01*
X0111548Y0024090D01*
X0111621Y0024150D01*
X0111708Y0024203D01*
X0111809Y0024247D01*
X0111923Y0024283D01*
X0112050Y0024311D01*
X0112189Y0024331D01*
X0112338Y0024344D01*
X0112496Y0024353D01*
X0112659Y0024360D01*
X0112826Y0024365D01*
X0112993Y0024372D01*
X0113158Y0024383D01*
X0113318Y0024400D01*
X0113471Y0024425D01*
X0113614Y0024460D01*
X0113746Y0024505D01*
X0113866Y0024562D01*
X0113972Y0024630D01*
X0114064Y0024710D01*
X0114142Y0024801D01*
X0114206Y0024902D01*
X0114257Y0025012D01*
X0114296Y0025129D01*
X0114324Y0025252D01*
X0114341Y0025381D01*
X0114349Y0025513D01*
X0114347Y0025649D01*
X0114337Y0025786D01*
X0114319Y0025926D01*
X0114292Y0026069D01*
X0114258Y0026213D01*
X0114214Y0026360D01*
X0114163Y0026510D01*
X0114103Y0026663D01*
X0114034Y0026820D01*
X0113957Y0026981D01*
X0113872Y0027145D01*
X0113779Y0027313D01*
X0113679Y0027484D01*
X0113572Y0027658D01*
X0113461Y0027832D01*
X0113346Y0028008D01*
X0113229Y0028182D01*
X0113111Y0028353D01*
X0112993Y0028521D01*
X0112877Y0028684D01*
X0112764Y0028841D01*
X0112656Y0028990D01*
X0112553Y0029131D01*
X0112456Y0029263D01*
X0112365Y0029385D01*
X0112282Y0029498D01*
X0112206Y0029601D01*
X0112136Y0029694D01*
X0112074Y0029779D01*
X0112017Y0029854D01*
X0111967Y0029922D01*
X0111922Y0029983D01*
X0111882Y0030037D01*
X0111846Y0030086D01*
X0111813Y0030132D01*
X0111782Y0030174D01*
X0111753Y0030214D01*
X0111726Y0030252D01*
X0111698Y0030291D01*
X0111670Y0030330D01*
X0111642Y0030369D01*
X0111613Y0030411D01*
X0111582Y0030453D01*
X0111551Y0030498D01*
X0111518Y0030544D01*
X0111485Y0030591D01*
X0111451Y0030639D01*
X0111417Y0030688D01*
X0111383Y0030736D01*
X0111350Y0030783D01*
X0111318Y0030828D01*
X0111287Y0030872D01*
X0111258Y0030913D01*
X0111232Y0030950D01*
X0111207Y0030984D01*
X0111185Y0031015D01*
X0111164Y0031041D01*
X0111145Y0031064D01*
X0111125Y0031084D01*
X0111106Y0031100D01*
X0111083Y0031113D01*
X0111057Y0031123D01*
X0111024Y0031131D01*
X0110982Y0031138D01*
X0110928Y0031142D01*
X0110859Y0031145D01*
X0110772Y0031148D01*
X0110664Y0031149D01*
X0110531Y0031150D01*
X0110372Y0031151D01*
X0110184Y0031152D01*
X0109966Y0031152D01*
X0109717Y0031152D01*
X0109439Y0031152D01*
X0109132Y0031152D01*
X0108800Y0031152D01*
X0108446Y0031152D01*
X0108075Y0031152D01*
X0107693Y0031152D01*
X0107304Y0031152D01*
X0106915Y0031152D01*
X0106533Y0031152D01*
X0106164Y0031152D01*
X0105812Y0031152D01*
X0105482Y0031152D01*
X0105178Y0031152D01*
X0104903Y0031152D01*
X0104658Y0031151D01*
X0104443Y0031151D01*
X0104258Y0031149D01*
X0104102Y0031147D01*
X0103973Y0031144D01*
X0103868Y0031139D01*
X0103785Y0031131D01*
X0103720Y0031121D01*
X0103670Y0031106D01*
X0103633Y0031087D01*
X0103607Y0031061D01*
X0103588Y0031029D01*
X0103574Y0030988D01*
X0103565Y0030938D01*
X0103559Y0030878D01*
X0103554Y0030807D01*
X0103551Y0030725D01*
X0103548Y0030631D01*
X0103546Y0030526D01*
X0103543Y0030411D01*
X0103541Y0030287D01*
X0103538Y0030154D01*
X0103536Y0030015D01*
X0103533Y0029873D01*
X0103530Y0029728D01*
X0103527Y0029583D01*
X0103525Y0029442D01*
X0103522Y0029305D01*
X0103520Y0029174D01*
X0103517Y0029052D01*
X0103515Y0028940D01*
X0103513Y0028839D01*
X0103512Y0028748D01*
X0103510Y0028669D01*
X0103509Y0028600D01*
X0103508Y0028542D01*
X0103507Y0028492D01*
X0103507Y0028450D01*
X0103506Y0028415D01*
X0103506Y0028384D01*
X0103507Y0028355D01*
X0103507Y0028328D01*
X0103508Y0028300D01*
X0103509Y0028270D01*
X0103510Y0028237D01*
X0103512Y0028198D01*
X0103514Y0028153D01*
X0103517Y0028102D01*
X0103520Y0028043D01*
X0103524Y0027976D01*
X0103527Y0027902D01*
X0103532Y0027820D01*
X0103536Y0027733D01*
X0103541Y0027639D01*
X0103546Y0027541D01*
X0103552Y0027441D01*
X0103557Y0027338D01*
X0103563Y0027236D01*
X0103568Y0027134D01*
X0103573Y0027036D01*
X0103578Y0026940D01*
X0103583Y0026849D01*
X0103587Y0026763D01*
X0103592Y0026681D01*
X0103596Y0026604D01*
X0103600Y0026531D01*
X0103604Y0026461D01*
X0103607Y0026394D01*
X0103611Y0026328D01*
X0103615Y0026263D01*
X0103619Y0026197D01*
X0103624Y0026130D01*
X0103629Y0026061D01*
X0103634Y0025990D01*
X0103640Y0025916D01*
X0103648Y0025839D01*
X0103656Y0025760D01*
X0103666Y0025678D01*
X0103677Y0025595D01*
X0103689Y0025512D01*
X0103704Y0025428D01*
X0103721Y0025344D01*
X0103741Y0025263D01*
X0103763Y0025183D01*
X0103789Y0025106D01*
X0103819Y0025032D01*
X0103853Y0024962D01*
X0103891Y0024896D01*
X0103934Y0024834D01*
X0103983Y0024776D01*
X0104036Y0024723D01*
X0104095Y0024673D01*
X0104160Y0024628D01*
X0104230Y0024587D01*
X0104305Y0024549D01*
X0104384Y0024515D01*
X0104468Y0024484D01*
X0104555Y0024457D01*
X0104646Y0024431D01*
X0104738Y0024409D01*
X0104832Y0024388D01*
X0104927Y0024370D01*
X0105022Y0024353D01*
X0105117Y0024338D01*
X0105211Y0024324D01*
X0105304Y0024311D01*
X0105396Y0024300D01*
X0105486Y0024289D01*
X0105575Y0024279D01*
X0105663Y0024269D01*
X0105749Y0024260D01*
X0105834Y0024251D01*
X0105918Y0024241D01*
X0106001Y0024232D01*
X0106083Y0024221D01*
X0106164Y0024209D01*
X0106243Y0024196D01*
X0106321Y0024181D01*
X0106397Y0024164D01*
X0106471Y0024144D01*
X0106542Y0024121D01*
X0106610Y0024095D01*
X0106674Y0024065D01*
X0106734Y0024032D01*
X0106790Y0023994D01*
X0106841Y0023952D01*
X0106887Y0023907D01*
X0106928Y0023857D01*
X0106965Y0023805D01*
X0106997Y0023749D01*
X0107025Y0023692D01*
X0107048Y0023632D01*
X0107067Y0023571D01*
X0107083Y0023509D01*
X0107096Y0023447D01*
X0107106Y0023386D01*
X0107113Y0023326D01*
X0107117Y0023267D01*
X0107120Y0023210D01*
X0107120Y0023155D01*
X0107118Y0023103D01*
X0107115Y0023054D01*
X0107109Y0023008D01*
X0107101Y0022965D01*
X0107091Y0022925D01*
X0107079Y0022888D01*
X0107064Y0022855D01*
X0107047Y0022824D01*
X0107028Y0022796D01*
X0107006Y0022772D01*
X0106982Y0022749D01*
X0106956Y0022730D01*
X0106927Y0022712D01*
X0106895Y0022697D01*
X0106861Y0022684D01*
X0106824Y0022672D01*
X0106784Y0022663D01*
X0106740Y0022655D01*
X0106693Y0022648D01*
X0106642Y0022642D01*
X0106587Y0022638D01*
X0106527Y0022635D01*
X0106461Y0022632D01*
X0106390Y0022631D01*
X0106313Y0022630D01*
X0106229Y0022630D01*
X0106139Y0022630D01*
X0106042Y0022632D01*
X0105938Y0022634D01*
X0105827Y0022636D01*
X0105710Y0022640D01*
X0105586Y0022643D01*
X0105456Y0022648D01*
X0105320Y0022653D01*
X0105179Y0022659D01*
X0105034Y0022665D01*
X0104885Y0022672D01*
X0104732Y0022680D01*
X0104576Y0022688D01*
X0104418Y0022696D01*
X0104258Y0022705D01*
X0104096Y0022714D01*
X0103933Y0022723D01*
X0103769Y0022732D01*
X0103605Y0022741D01*
X0103440Y0022750D01*
X0103274Y0022759D01*
X0103109Y0022767D01*
X0102943Y0022774D01*
X0102777Y0022781D01*
X0102611Y0022787D01*
X0102445Y0022793D01*
X0102279Y0022798D01*
X0102113Y0022802D01*
X0101948Y0022806D01*
X0101782Y0022808D01*
X0101616Y0022811D01*
X0101450Y0022812D01*
X0101285Y0022813D01*
X0101119Y0022814D01*
X0100954Y0022814D01*
X0100789Y0022813D01*
X0100624Y0022812D01*
X0100459Y0022810D01*
X0100295Y0022807D01*
X0100131Y0022804D01*
X0099967Y0022800D01*
X0099804Y0022796D01*
X0099641Y0022791D01*
X0099478Y0022785D01*
X0099316Y0022778D01*
X0099154Y0022771D01*
X0098993Y0022763D01*
X0098831Y0022755D01*
X0098671Y0022746D01*
X0098510Y0022738D01*
X0098350Y0022728D01*
X0098190Y0022719D01*
X0098031Y0022710D01*
X0097873Y0022701D01*
X0097717Y0022692D01*
X0097562Y0022684D01*
X0097408Y0022676D01*
X0097258Y0022669D01*
X0097110Y0022662D01*
X0096966Y0022656D01*
X0096826Y0022651D01*
X0096690Y0022646D01*
X0096560Y0022642D01*
X0096435Y0022638D01*
X0096316Y0022636D01*
X0096203Y0022633D01*
X0096096Y0022632D01*
X0095995Y0022631D01*
X0095900Y0022631D01*
X0095810Y0022632D01*
X0095727Y0022634D01*
X0095648Y0022637D01*
X0095574Y0022641D01*
X0095504Y0022646D01*
X0095438Y0022653D01*
X0095375Y0022661D01*
X0095316Y0022671D01*
X0095259Y0022683D01*
X0095204Y0022697D01*
X0095153Y0022714D01*
X0095103Y0022732D01*
X0095057Y0022754D01*
X0095012Y0022779D01*
X0094971Y0022806D01*
X0094932Y0022837D01*
X0094896Y0022870D01*
X0094863Y0022907D01*
X0094833Y0022947D01*
X0094806Y0022990D01*
X0094782Y0023036D01*
X0094761Y0023084D01*
X0094743Y0023134D01*
X0094727Y0023187D01*
X0094713Y0023241D01*
X0094702Y0023296D01*
X0094693Y0023352D01*
X0094686Y0023408D01*
X0094681Y0023465D01*
X0094678Y0023520D01*
X0094676Y0023575D01*
X0094676Y0023629D01*
X0094678Y0023681D01*
X0094682Y0023732D01*
X0094688Y0023780D01*
X0094696Y0023826D01*
X0094706Y0023869D01*
X0094718Y0023910D01*
X0094733Y0023947D01*
X0094751Y0023982D01*
X0094771Y0024015D01*
X0094793Y0024044D01*
X0094819Y0024071D01*
X0094847Y0024095D01*
X0094878Y0024117D01*
X0094912Y0024137D01*
X0094949Y0024155D01*
X0094989Y0024172D01*
X0095032Y0024187D01*
X0095079Y0024201D01*
X0095129Y0024214D01*
X0095184Y0024226D01*
X0095243Y0024238D01*
X0095306Y0024250D01*
X0095375Y0024263D01*
X0095449Y0024275D01*
X0095528Y0024289D01*
X0095613Y0024303D01*
X0095703Y0024319D01*
X0095798Y0024337D01*
X0095898Y0024356D01*
X0096002Y0024378D01*
X0096108Y0024402D01*
X0096216Y0024430D01*
X0096325Y0024461D01*
X0096433Y0024496D01*
X0096539Y0024535D01*
X0096641Y0024578D01*
X0096739Y0024627D01*
X0096830Y0024681D01*
X0096915Y0024740D01*
X0096993Y0024805D01*
X0097062Y0024876D01*
X0097123Y0024952D01*
X0097176Y0025034D01*
X0097221Y0025122D01*
X0097258Y0025214D01*
X0097289Y0025312D01*
X0097313Y0025414D01*
X0097332Y0025519D01*
X0097346Y0025628D01*
X0097357Y0025739D01*
X0097365Y0025851D01*
X0097370Y0025964D01*
X0097374Y0026077D01*
X0097377Y0026189D01*
X0097379Y0026300D01*
X0097380Y0026408D01*
X0097381Y0026515D01*
X0097382Y0026620D01*
X0097383Y0026723D01*
X0097385Y0026826D01*
X0097386Y0026930D01*
X0097387Y0027037D01*
X0097388Y0027150D01*
X0097389Y0027269D01*
X0097390Y0027399D01*
X0097391Y0027541D01*
X0097392Y0027699D01*
X0097393Y0027873D01*
X0097393Y0028066D01*
X0097394Y0028278D01*
X0097395Y0028510D01*
X0097396Y0028761D01*
X0097396Y0029029D01*
X0097397Y0029311D01*
X0097397Y0029606D01*
X0097398Y0029907D01*
X0097399Y0030212D01*
X0097399Y0030516D01*
X0097400Y0030813D01*
X0097400Y0031101D01*
X0097401Y0031373D01*
X0097401Y0031629D01*
X0097402Y0031863D01*
X0097403Y0032075D01*
X0097405Y0034863D01*
X0097409Y0034864D02*
X0097409Y0035228D01*
X0097409Y0035635D01*
X0097409Y0036084D01*
X0097410Y0036574D01*
X0097410Y0037101D01*
X0097411Y0037660D01*
X0097412Y0038244D01*
X0097414Y0038848D01*
X0097415Y0039463D01*
X0097416Y0040082D01*
X0097417Y0040696D01*
X0097418Y0041296D01*
X0097419Y0041874D01*
X0097419Y0042425D01*
X0097420Y0042941D01*
X0097420Y0043419D01*
X0097420Y0043854D01*
X0097420Y0044247D01*
X0097419Y0044596D01*
X0097418Y0044904D01*
X0097417Y0045173D01*
X0097415Y0045409D01*
X0097413Y0045617D01*
X0097410Y0045804D01*
X0097406Y0045978D01*
X0097403Y0046147D01*
X0097399Y0046318D01*
X0097395Y0046499D01*
X0097393Y0046694D01*
X0097395Y0046909D01*
X0097404Y0047144D01*
X0097426Y0047397D01*
X0097467Y0047663D01*
X0097540Y0047930D01*
X0097656Y0048181D01*
X0097767Y0048326D01*
X0097880Y0048423D01*
X0097993Y0048485D01*
X0098103Y0048523D01*
X0098209Y0048546D01*
X0098313Y0048560D01*
X0098414Y0048567D01*
X0098513Y0048570D01*
X0098612Y0048570D01*
X0098711Y0048569D01*
X0098811Y0048565D01*
X0098912Y0048559D01*
X0099014Y0048551D01*
X0099116Y0048540D01*
X0099218Y0048527D01*
X0099320Y0048510D01*
X0099420Y0048489D01*
X0099519Y0048466D01*
X0103415Y0041339D02*
X0103393Y0041314D01*
X0103376Y0041268D01*
X0103365Y0041198D01*
X0103358Y0041105D01*
X0103354Y0040987D01*
X0103352Y0040844D01*
X0103353Y0040675D01*
X0103355Y0040478D01*
X0103358Y0040255D01*
X0103362Y0040006D01*
X0103368Y0039731D01*
X0103373Y0039432D01*
X0103380Y0039110D01*
X0103386Y0038770D01*
X0103393Y0038413D01*
X0103401Y0038044D01*
X0103408Y0037667D01*
X0103416Y0037287D01*
X0103423Y0036907D01*
X0103431Y0036532D01*
X0103438Y0036167D01*
X0103445Y0035816D01*
X0103451Y0035482D01*
X0103458Y0035168D01*
X0103463Y0034877D01*
X0103468Y0034611D01*
X0103472Y0034370D01*
X0103475Y0034155D01*
X0103477Y0033966D01*
X0103477Y0033801D01*
X0103475Y0033661D01*
X0103470Y0033109D01*
X0103459Y0033102D02*
X0109671Y0033102D01*
X0109679Y0033100D02*
X0109415Y0033460D01*
X0109335Y0033562D01*
X0109241Y0033684D01*
X0109132Y0033829D01*
X0109005Y0033998D01*
X0108859Y0034192D01*
X0108695Y0034412D01*
X0108512Y0034658D01*
X0108310Y0034929D01*
X0108090Y0035224D01*
X0107853Y0035541D01*
X0107602Y0035879D01*
X0107338Y0036232D01*
X0107064Y0036599D01*
X0106784Y0036975D01*
X0106501Y0037356D01*
X0106217Y0037736D01*
X0105937Y0038112D01*
X0105663Y0038479D01*
X0105399Y0038833D01*
X0105148Y0039170D01*
X0104911Y0039488D01*
X0104691Y0039783D01*
X0104489Y0040053D01*
X0104306Y0040298D01*
X0104143Y0040516D01*
X0103998Y0040707D01*
X0103872Y0040872D01*
X0103764Y0041011D01*
X0103673Y0041124D01*
X0103597Y0041213D01*
X0103535Y0041278D01*
X0103485Y0041321D01*
X0103446Y0041341D01*
X0103415Y0041339D01*
X0087841Y0035155D02*
X0087815Y0035212D01*
X0087785Y0035269D01*
X0087750Y0035325D01*
X0087710Y0035380D01*
X0087665Y0035433D01*
X0087615Y0035485D01*
X0087561Y0035534D01*
X0087502Y0035580D01*
X0087439Y0035625D01*
X0087372Y0035666D01*
X0087303Y0035706D01*
X0087231Y0035742D01*
X0087158Y0035777D01*
X0087085Y0035809D01*
X0087011Y0035839D01*
X0086938Y0035867D01*
X0086866Y0035893D01*
X0086796Y0035917D01*
X0086729Y0035939D01*
X0086664Y0035960D01*
X0086603Y0035980D01*
X0086545Y0035998D01*
X0086491Y0036015D01*
X0086440Y0036031D01*
X0086391Y0036046D01*
X0086346Y0036060D01*
X0086303Y0036074D01*
X0086261Y0036087D01*
X0086219Y0036101D01*
X0086178Y0036115D01*
X0086135Y0036129D01*
X0086090Y0036144D01*
X0086043Y0036161D01*
X0085991Y0036179D01*
X0085936Y0036199D01*
X0085876Y0036221D01*
X0085811Y0036244D01*
X0085741Y0036270D01*
X0085667Y0036297D01*
X0085589Y0036325D01*
X0085507Y0036355D01*
X0085423Y0036386D01*
X0085338Y0036418D01*
X0085252Y0036449D01*
X0085166Y0036481D01*
X0085082Y0036511D01*
X0085000Y0036541D01*
X0084921Y0036571D01*
X0084845Y0036599D01*
X0084771Y0036626D01*
X0084699Y0036652D01*
X0084630Y0036677D01*
X0084561Y0036702D01*
X0084492Y0036727D01*
X0084423Y0036752D01*
X0084350Y0036778D01*
X0084274Y0036806D01*
X0084193Y0036834D01*
X0084105Y0036865D01*
X0084011Y0036899D01*
X0083910Y0036934D01*
X0083800Y0036973D01*
X0083681Y0037014D01*
X0083554Y0037058D01*
X0083419Y0037105D01*
X0083276Y0037155D01*
X0083125Y0037207D01*
X0082968Y0037262D01*
X0082804Y0037319D01*
X0082635Y0037378D01*
X0082462Y0037439D01*
X0082285Y0037502D01*
X0082106Y0037567D01*
X0081925Y0037634D01*
X0081744Y0037703D01*
X0081562Y0037773D01*
X0081382Y0037845D01*
X0081204Y0037919D01*
X0081028Y0037994D01*
X0080854Y0038072D01*
X0080683Y0038151D01*
X0080516Y0038231D01*
X0080351Y0038314D01*
X0080190Y0038398D01*
X0080032Y0038485D01*
X0079876Y0038573D01*
X0079722Y0038663D01*
X0079571Y0038755D01*
X0079421Y0038850D01*
X0079272Y0038946D01*
X0079124Y0039045D01*
X0078977Y0039146D01*
X0078831Y0039251D01*
X0078685Y0039358D01*
X0078540Y0039468D01*
X0078395Y0039582D01*
X0078251Y0039699D01*
X0078108Y0039821D01*
X0077966Y0039947D01*
X0077826Y0040076D01*
X0077689Y0040211D01*
X0077554Y0040350D01*
X0077423Y0040493D01*
X0077296Y0040641D01*
X0077173Y0040792D01*
X0077055Y0040948D01*
X0076943Y0041108D01*
X0076837Y0041272D01*
X0076737Y0041438D01*
X0076644Y0041607D01*
X0076559Y0041779D01*
X0076480Y0041952D01*
X0076409Y0042128D01*
X0076345Y0042304D01*
X0076288Y0042480D01*
X0076237Y0042657D01*
X0076194Y0042834D01*
X0076156Y0043010D01*
X0076124Y0043185D01*
X0076097Y0043358D01*
X0076075Y0043530D01*
X0076058Y0043700D01*
X0076046Y0043867D01*
X0076038Y0044032D01*
X0076034Y0044194D01*
X0076035Y0044353D01*
X0076040Y0044509D01*
X0076050Y0044662D01*
X0076066Y0044811D01*
X0076087Y0044957D01*
X0076115Y0045098D01*
X0076148Y0045236D01*
X0076189Y0045369D01*
X0076236Y0045498D01*
X0076291Y0045621D01*
X0076353Y0045740D01*
X0076422Y0045853D01*
X0076499Y0045959D01*
X0076583Y0046060D01*
X0076675Y0046155D01*
X0076774Y0046242D01*
X0076880Y0046323D01*
X0076994Y0046396D01*
X0077115Y0046462D01*
X0077243Y0046521D01*
X0077379Y0046574D01*
X0077522Y0046619D01*
X0077673Y0046657D01*
X0077832Y0046690D01*
X0078000Y0046715D01*
X0078176Y0046735D01*
X0078360Y0046749D01*
X0078553Y0046757D01*
X0078754Y0046758D01*
X0078962Y0046753D01*
X0079177Y0046740D01*
X0079399Y0046720D01*
X0079626Y0046691D01*
X0079857Y0046652D01*
X0080091Y0046603D01*
X0080326Y0046543D01*
X0080562Y0046470D01*
X0080797Y0046386D01*
X0081028Y0046289D01*
X0081256Y0046179D01*
X0081479Y0046058D01*
X0081696Y0045926D01*
X0081906Y0045784D01*
X0082108Y0045635D01*
X0082302Y0045481D01*
X0082488Y0045323D01*
X0082665Y0045164D01*
X0082833Y0045007D01*
X0082993Y0044854D01*
X0083144Y0044708D01*
X0083287Y0044570D01*
X0083422Y0044442D01*
X0083549Y0044326D01*
X0083668Y0044221D01*
X0083780Y0044128D01*
X0083884Y0044048D01*
X0083982Y0043980D01*
X0084073Y0043924D01*
X0084158Y0043877D01*
X0084237Y0043840D01*
X0084310Y0043812D01*
X0084377Y0043790D01*
X0084440Y0043774D01*
X0084497Y0043763D01*
X0084550Y0043757D01*
X0084599Y0043753D01*
X0084645Y0043752D01*
X0084687Y0043754D01*
X0084726Y0043757D01*
X0084763Y0043763D01*
X0084797Y0043769D01*
X0084830Y0043777D01*
X0084860Y0043786D01*
X0084889Y0043797D01*
X0084917Y0043809D01*
X0084943Y0043822D01*
X0084967Y0043837D01*
X0084991Y0043853D01*
X0085013Y0043871D01*
X0085033Y0043890D01*
X0085052Y0043911D01*
X0085069Y0043934D01*
X0085084Y0043958D01*
X0085098Y0043984D01*
X0085110Y0044012D01*
X0085120Y0044042D01*
X0085128Y0044075D01*
X0085135Y0044110D01*
X0085139Y0044148D01*
X0085142Y0044188D01*
X0085142Y0044232D01*
X0085141Y0044279D01*
X0085137Y0044330D01*
X0085130Y0044384D01*
X0085120Y0044442D01*
X0085107Y0044504D01*
X0085089Y0044569D01*
X0085067Y0044638D01*
X0085041Y0044710D01*
X0085008Y0044786D01*
X0084970Y0044865D01*
X0084926Y0044948D01*
X0084875Y0045032D01*
X0084817Y0045120D01*
X0084753Y0045209D01*
X0084683Y0045299D01*
X0084607Y0045390D01*
X0084525Y0045482D01*
X0084439Y0045573D01*
X0084349Y0045664D01*
X0084255Y0045754D01*
X0084159Y0045842D01*
X0084061Y0045929D01*
X0083962Y0046013D01*
X0083862Y0046096D01*
X0083761Y0046176D01*
X0083660Y0046255D01*
X0083559Y0046331D01*
X0083457Y0046407D01*
X0083354Y0046481D01*
X0083250Y0046556D01*
X0083143Y0046630D01*
X0083033Y0046705D01*
X0082919Y0046781D01*
X0082801Y0046858D01*
X0082678Y0046937D01*
X0082549Y0047018D01*
X0082415Y0047100D01*
X0082275Y0047184D01*
X0082129Y0047269D01*
X0081976Y0047355D01*
X0081818Y0047442D01*
X0081655Y0047528D01*
X0081486Y0047613D01*
X0081313Y0047697D01*
X0081136Y0047778D01*
X0080955Y0047857D01*
X0080770Y0047932D01*
X0080582Y0048003D01*
X0080392Y0048070D01*
X0080200Y0048132D01*
X0080005Y0048190D01*
X0079809Y0048243D01*
X0079610Y0048291D01*
X0079410Y0048335D01*
X0079208Y0048374D01*
X0079004Y0048408D01*
X0078798Y0048438D01*
X0078589Y0048464D01*
X0078378Y0048486D01*
X0078165Y0048505D01*
X0077948Y0048520D01*
X0077728Y0048533D01*
X0077505Y0048542D01*
X0077277Y0048549D01*
X0077045Y0048553D01*
X0076808Y0048555D01*
X0076566Y0048553D01*
X0076319Y0048549D01*
X0076066Y0048541D01*
X0075807Y0048529D01*
X0075541Y0048513D01*
X0075270Y0048493D01*
X0074993Y0048466D01*
X0074710Y0048434D01*
X0074423Y0048394D01*
X0074131Y0048346D01*
X0073836Y0048290D01*
X0073540Y0048223D01*
X0073244Y0048147D01*
X0072949Y0048059D01*
X0072659Y0047958D01*
X0072375Y0047845D01*
X0072100Y0047718D01*
X0071836Y0047577D01*
X0071585Y0047421D01*
X0071349Y0047250D01*
X0071131Y0047063D01*
X0070931Y0046861D01*
X0070752Y0046644D01*
X0070592Y0046412D01*
X0070453Y0046165D01*
X0070335Y0045905D01*
X0070236Y0045631D01*
X0070158Y0045344D01*
X0070098Y0045047D01*
X0070056Y0044740D01*
X0070032Y0044424D01*
X0070025Y0044101D01*
X0070035Y0043774D01*
X0070061Y0043443D01*
X0070106Y0043110D01*
X0070168Y0042779D01*
X0070251Y0042449D01*
X0070354Y0042125D01*
X0070479Y0041806D01*
X0070628Y0041495D01*
X0070802Y0041195D01*
X0071002Y0040905D01*
X0071228Y0040627D01*
X0071480Y0040363D01*
X0071758Y0040112D01*
X0072060Y0039876D01*
X0072384Y0039654D01*
X0072728Y0039447D01*
X0073088Y0039253D01*
X0073460Y0039073D01*
X0073842Y0038905D01*
X0074229Y0038749D01*
X0074617Y0038604D01*
X0075002Y0038470D01*
X0075380Y0038345D01*
X0075748Y0038230D01*
X0076103Y0038122D01*
X0076442Y0038022D01*
X0076763Y0037930D01*
X0077065Y0037844D01*
X0077347Y0037765D01*
X0077608Y0037691D01*
X0077850Y0037624D01*
X0078072Y0037561D01*
X0078277Y0037504D01*
X0078465Y0037450D01*
X0078641Y0037400D01*
X0078805Y0037353D01*
X0078961Y0037307D01*
X0079112Y0037263D01*
X0079261Y0037219D01*
X0079410Y0037175D01*
X0079562Y0037129D01*
X0079718Y0037082D01*
X0079881Y0037033D01*
X0080051Y0036982D01*
X0080227Y0036929D01*
X0080410Y0036874D01*
X0080597Y0036817D01*
X0080786Y0036760D01*
X0080976Y0036702D01*
X0081163Y0036645D01*
X0081345Y0036590D01*
X0081517Y0036538D01*
X0081679Y0036489D01*
X0081827Y0036444D01*
X0081959Y0036403D01*
X0082074Y0036368D01*
X0082169Y0036338D01*
X0082243Y0036313D01*
X0082293Y0036293D01*
X0082316Y0036279D01*
X0082308Y0036269D01*
X0082262Y0036264D01*
X0082171Y0036263D01*
X0082026Y0036267D01*
X0081818Y0036275D01*
X0081544Y0036287D01*
X0081210Y0036303D01*
X0080833Y0036321D01*
X0080454Y0036339D01*
X0080143Y0036354D01*
X0080008Y0036361D01*
X0079053Y0036345D01*
X0078269Y0036299D01*
X0077617Y0036224D01*
X0077066Y0036125D01*
X0076590Y0036004D01*
X0076172Y0035867D01*
X0075799Y0035716D01*
X0075461Y0035554D01*
X0075152Y0035386D01*
X0074866Y0035214D01*
X0074600Y0035038D01*
X0074351Y0034859D01*
X0074118Y0034680D01*
X0073899Y0034499D01*
X0073693Y0034318D01*
X0073500Y0034135D01*
X0073319Y0033950D01*
X0073151Y0033764D01*
X0072995Y0033576D01*
X0072852Y0033386D01*
X0072721Y0033194D01*
X0072601Y0033000D01*
X0072494Y0032803D01*
X0072398Y0032605D01*
X0072314Y0032405D01*
X0072240Y0032202D01*
X0072177Y0031997D01*
X0072123Y0031789D01*
X0072079Y0031578D01*
X0072043Y0031364D01*
X0072016Y0031146D01*
X0071996Y0030923D01*
X0071983Y0030696D01*
X0071977Y0030463D01*
X0071977Y0030224D01*
X0071984Y0029978D01*
X0071997Y0029726D01*
X0072016Y0029468D01*
X0072043Y0029204D01*
X0072077Y0028933D01*
X0072119Y0028656D01*
X0072170Y0028375D01*
X0072230Y0028089D01*
X0072300Y0027800D01*
X0072381Y0027508D01*
X0072474Y0027215D01*
X0072580Y0026922D01*
X0072697Y0026629D01*
X0072828Y0026338D01*
X0072971Y0026049D01*
X0073127Y0025764D01*
X0073296Y0025483D01*
X0073476Y0025207D01*
X0073668Y0024936D01*
X0073870Y0024672D01*
X0074082Y0024415D01*
X0074303Y0024164D01*
X0074531Y0023920D01*
X0074767Y0023683D01*
X0075009Y0023452D01*
X0075256Y0023229D01*
X0075508Y0023011D01*
X0075764Y0022800D01*
X0076024Y0022594D01*
X0076287Y0022393D01*
X0076553Y0022197D01*
X0076822Y0022005D01*
X0077093Y0021818D01*
X0077366Y0021634D01*
X0077642Y0021453D01*
X0077920Y0021276D01*
X0078201Y0021103D01*
X0078484Y0020933D01*
X0078771Y0020768D01*
X0079061Y0020607D01*
X0079354Y0020451D01*
X0079651Y0020301D01*
X0079952Y0020156D01*
X0080256Y0020017D01*
X0080564Y0019885D01*
X0080876Y0019760D01*
X0081192Y0019643D01*
X0081510Y0019533D01*
X0081832Y0019430D01*
X0082155Y0019336D01*
X0082481Y0019250D01*
X0082808Y0019171D01*
X0083135Y0019100D01*
X0083461Y0019036D01*
X0083787Y0018980D01*
X0084110Y0018930D01*
X0084430Y0018887D01*
X0084747Y0018850D01*
X0085060Y0018818D01*
X0085367Y0018792D01*
X0085669Y0018770D01*
X0085965Y0018752D01*
X0086255Y0018738D01*
X0086539Y0018727D01*
X0086817Y0018719D01*
X0087090Y0018713D01*
X0087359Y0018710D01*
X0087624Y0018709D01*
X0087888Y0018709D01*
X0088150Y0018712D01*
X0088414Y0018717D01*
X0088679Y0018724D01*
X0088948Y0018734D01*
X0089221Y0018747D01*
X0089498Y0018763D01*
X0089781Y0018783D01*
X0090067Y0018809D01*
X0090358Y0018840D01*
X0090650Y0018877D01*
X0090943Y0018922D01*
X0091235Y0018976D01*
X0091521Y0019039D01*
X0091801Y0019112D01*
X0092070Y0019197D01*
X0092326Y0019292D01*
X0092567Y0019399D01*
X0092790Y0019518D01*
X0092994Y0019648D01*
X0093177Y0019788D01*
X0093339Y0019939D01*
X0093480Y0020098D01*
X0093601Y0020265D01*
X0093701Y0020438D01*
X0093782Y0020616D01*
X0093847Y0020795D01*
X0093896Y0020976D01*
X0093931Y0021157D01*
X0093955Y0021335D01*
X0093968Y0021509D01*
X0093972Y0021679D01*
X0093968Y0021844D01*
X0093958Y0022003D01*
X0093941Y0022154D01*
X0093919Y0022300D01*
X0093891Y0022438D01*
X0093859Y0022569D01*
X0093821Y0022693D01*
X0093778Y0022810D01*
X0093730Y0022922D01*
X0093676Y0023026D01*
X0093616Y0023125D01*
X0093552Y0023217D01*
X0093481Y0023304D01*
X0093405Y0023385D01*
X0093324Y0023459D01*
X0093237Y0023529D01*
X0093144Y0023592D01*
X0093045Y0023649D01*
X0092940Y0023701D01*
X0092830Y0023747D01*
X0092712Y0023788D01*
X0092587Y0023823D01*
X0092455Y0023853D01*
X0092316Y0023878D01*
X0092168Y0023898D01*
X0092011Y0023912D01*
X0091846Y0023921D01*
X0091673Y0023925D01*
X0091492Y0023923D01*
X0091304Y0023913D01*
X0091111Y0023896D01*
X0090912Y0023870D01*
X0090711Y0023834D01*
X0090509Y0023787D01*
X0090309Y0023727D01*
X0090112Y0023653D01*
X0089920Y0023564D01*
X0089736Y0023460D01*
X0089561Y0023339D01*
X0089397Y0023202D01*
X0089244Y0023050D01*
X0089102Y0022883D01*
X0088972Y0022703D01*
X0088852Y0022512D01*
X0088742Y0022314D01*
X0088639Y0022110D01*
X0088543Y0021904D01*
X0088450Y0021699D01*
X0088358Y0021498D01*
X0088266Y0021305D01*
X0088172Y0021122D01*
X0088073Y0020951D01*
X0087969Y0020794D01*
X0087857Y0020653D01*
X0087739Y0020528D01*
X0087613Y0020419D01*
X0087479Y0020326D01*
X0087338Y0020248D01*
X0087191Y0020185D01*
X0087038Y0020135D01*
X0086880Y0020098D01*
X0086718Y0020072D01*
X0086552Y0020056D01*
X0086385Y0020049D01*
X0086215Y0020051D01*
X0086044Y0020061D01*
X0085873Y0020078D01*
X0085701Y0020103D01*
X0085528Y0020135D01*
X0085356Y0020175D01*
X0085184Y0020223D01*
X0085012Y0020278D01*
X0084840Y0020341D01*
X0084669Y0020411D01*
X0084498Y0020489D01*
X0084328Y0020574D01*
X0084160Y0020665D01*
X0083993Y0020763D01*
X0083829Y0020866D01*
X0083667Y0020974D01*
X0083507Y0021086D01*
X0083350Y0021202D01*
X0083197Y0021320D01*
X0083046Y0021442D01*
X0082899Y0021565D01*
X0082755Y0021690D01*
X0082613Y0021817D01*
X0082474Y0021946D01*
X0082337Y0022076D01*
X0082202Y0022209D01*
X0082067Y0022344D01*
X0081933Y0022483D01*
X0081798Y0022625D01*
X0081664Y0022771D01*
X0081528Y0022921D01*
X0081391Y0023077D01*
X0081253Y0023239D01*
X0081114Y0023407D01*
X0080973Y0023581D01*
X0080830Y0023763D01*
X0080687Y0023952D01*
X0080543Y0024148D01*
X0080399Y0024352D01*
X0080255Y0024563D01*
X0080113Y0024782D01*
X0079972Y0025007D01*
X0079833Y0025239D01*
X0079697Y0025477D01*
X0079566Y0025719D01*
X0079439Y0025966D01*
X0079318Y0026216D01*
X0079202Y0026469D01*
X0079094Y0026724D01*
X0078992Y0026980D01*
X0078898Y0027237D01*
X0078812Y0027493D01*
X0078734Y0027749D01*
X0078663Y0028005D01*
X0078600Y0028260D01*
X0078545Y0028514D01*
X0078496Y0028767D01*
X0078454Y0029020D01*
X0078419Y0029273D01*
X0078390Y0029526D01*
X0078367Y0029778D01*
X0078349Y0030030D01*
X0078338Y0030283D01*
X0078333Y0030535D01*
X0078334Y0030786D01*
X0078342Y0031037D01*
X0078358Y0031286D01*
X0078382Y0031533D01*
X0078416Y0031776D01*
X0078459Y0032016D01*
X0078513Y0032250D01*
X0078578Y0032479D01*
X0078656Y0032701D01*
X0078746Y0032916D01*
X0078848Y0033121D01*
X0078964Y0033317D01*
X0079092Y0033503D01*
X0079233Y0033678D01*
X0079387Y0033841D01*
X0079552Y0033993D01*
X0079727Y0034132D01*
X0079913Y0034259D01*
X0080107Y0034374D01*
X0080308Y0034476D01*
X0080515Y0034567D01*
X0080727Y0034646D01*
X0080942Y0034714D01*
X0081158Y0034772D01*
X0081374Y0034821D01*
X0081588Y0034861D01*
X0081799Y0034894D01*
X0082006Y0034920D01*
X0082208Y0034941D01*
X0082403Y0034956D01*
X0082591Y0034967D01*
X0082771Y0034974D01*
X0082944Y0034979D01*
X0083109Y0034981D01*
X0083266Y0034981D01*
X0083416Y0034979D01*
X0083559Y0034976D01*
X0083696Y0034971D01*
X0083828Y0034965D01*
X0083954Y0034957D01*
X0084077Y0034948D01*
X0084197Y0034938D01*
X0084313Y0034926D01*
X0084427Y0034912D01*
X0084540Y0034897D01*
X0084651Y0034881D01*
X0084761Y0034863D01*
X0084870Y0034843D01*
X0084978Y0034823D01*
X0085085Y0034800D01*
X0085190Y0034777D01*
X0085295Y0034752D01*
X0085397Y0034727D01*
X0085498Y0034701D01*
X0085596Y0034675D01*
X0085691Y0034648D01*
X0085784Y0034621D01*
X0085873Y0034595D01*
X0085958Y0034569D01*
X0086039Y0034543D01*
X0086115Y0034519D01*
X0086188Y0034496D01*
X0086255Y0034473D01*
X0086318Y0034452D01*
X0086377Y0034432D01*
X0086431Y0034414D01*
X0086482Y0034396D01*
X0086528Y0034380D01*
X0086572Y0034365D01*
X0086613Y0034350D01*
X0086651Y0034336D01*
X0086687Y0034323D01*
X0086722Y0034310D01*
X0086756Y0034298D01*
X0086788Y0034286D01*
X0086820Y0034275D01*
X0086851Y0034264D01*
X0086883Y0034253D01*
X0086913Y0034243D01*
X0086944Y0034233D01*
X0086975Y0034223D01*
X0087005Y0034214D01*
X0087036Y0034206D01*
X0087066Y0034199D01*
X0087096Y0034192D01*
X0087126Y0034186D01*
X0087156Y0034180D01*
X0087186Y0034176D01*
X0087215Y0034172D01*
X0087245Y0034169D01*
X0087274Y0034166D01*
X0087304Y0034164D01*
X0087333Y0034163D01*
X0087363Y0034163D01*
X0087393Y0034163D01*
X0087423Y0034164D01*
X0087452Y0034165D01*
X0087482Y0034168D01*
X0087512Y0034171D01*
X0087541Y0034175D01*
X0087570Y0034180D01*
X0087599Y0034187D01*
X0087627Y0034194D01*
X0087654Y0034203D01*
X0087681Y0034214D01*
X0087707Y0034225D01*
X0087732Y0034239D01*
X0087755Y0034253D01*
X0087777Y0034270D01*
X0087798Y0034288D01*
X0087818Y0034307D01*
X0087836Y0034328D01*
X0087853Y0034351D01*
X0087867Y0034376D01*
X0087881Y0034402D01*
X0087892Y0034430D01*
X0087902Y0034460D01*
X0087911Y0034492D01*
X0087918Y0034525D01*
X0087923Y0034561D01*
X0087927Y0034600D01*
X0087930Y0034640D01*
X0087930Y0034683D01*
X0087930Y0034728D01*
X0087927Y0034775D01*
X0087923Y0034825D01*
X0087916Y0034876D01*
X0087907Y0034929D01*
X0087896Y0034984D01*
X0087881Y0035041D01*
X0087863Y0035098D01*
X0087841Y0035155D01*
X0068200Y0023791D02*
X0068167Y0023843D01*
X0068130Y0023892D01*
X0068088Y0023937D01*
X0068041Y0023980D01*
X0067991Y0024018D01*
X0067936Y0024053D01*
X0067878Y0024085D01*
X0067816Y0024112D01*
X0067752Y0024137D01*
X0067685Y0024159D01*
X0067616Y0024178D01*
X0067545Y0024195D01*
X0067474Y0024210D01*
X0067401Y0024224D01*
X0067329Y0024236D01*
X0067256Y0024248D01*
X0067183Y0024259D01*
X0067110Y0024270D01*
X0067037Y0024281D01*
X0066964Y0024292D01*
X0066891Y0024303D01*
X0066817Y0024314D01*
X0066743Y0024325D01*
X0066669Y0024337D01*
X0066595Y0024349D01*
X0066519Y0024360D01*
X0066443Y0024372D01*
X0066367Y0024384D01*
X0066290Y0024397D01*
X0066213Y0024409D01*
X0066136Y0024421D01*
X0066059Y0024433D01*
X0065982Y0024445D01*
X0065905Y0024457D01*
X0065830Y0024470D01*
X0065755Y0024483D01*
X0065681Y0024497D01*
X0065609Y0024512D01*
X0065537Y0024529D01*
X0065467Y0024547D01*
X0065398Y0024568D01*
X0065330Y0024591D01*
X0065263Y0024617D01*
X0065197Y0024646D01*
X0065133Y0024678D01*
X0065069Y0024714D01*
X0065006Y0024754D01*
X0064944Y0024797D01*
X0064883Y0024844D01*
X0064823Y0024895D01*
X0064763Y0024949D01*
X0064704Y0025006D01*
X0064645Y0025065D01*
X0064587Y0025128D01*
X0064530Y0025192D01*
X0064474Y0025259D01*
X0064418Y0025328D01*
X0064363Y0025398D01*
X0064309Y0025470D01*
X0064256Y0025543D01*
X0064204Y0025617D01*
X0064152Y0025693D01*
X0064102Y0025770D01*
X0064053Y0025849D01*
X0064004Y0025930D01*
X0063957Y0026013D01*
X0063912Y0026097D01*
X0063867Y0026183D01*
X0063823Y0026270D01*
X0063781Y0026359D01*
X0063739Y0026450D01*
X0063699Y0026541D01*
X0063660Y0026634D01*
X0063622Y0026727D01*
X0063585Y0026820D01*
X0063549Y0026913D01*
X0063514Y0027004D01*
X0063480Y0027095D01*
X0063447Y0027184D01*
X0063416Y0027270D01*
X0063385Y0027355D01*
X0063355Y0027437D01*
X0063326Y0027517D01*
X0063297Y0027596D01*
X0063269Y0027675D01*
X0063240Y0027755D01*
X0063209Y0027839D01*
X0063177Y0027929D01*
X0063141Y0028029D01*
X0063100Y0028144D01*
X0063052Y0028278D01*
X0062996Y0028436D01*
X0062929Y0028625D01*
X0062850Y0028850D01*
X0062756Y0029117D01*
X0062646Y0029431D01*
X0062518Y0029796D01*
X0062372Y0030214D01*
X0062207Y0030688D01*
X0062022Y0031217D01*
X0061819Y0031798D01*
X0061599Y0032428D01*
X0061365Y0033100D01*
X0061119Y0033807D01*
X0060863Y0034539D01*
X0060603Y0035285D01*
X0060342Y0036035D01*
X0060083Y0036777D01*
X0059831Y0037500D01*
X0059590Y0038193D01*
X0059361Y0038849D01*
X0059148Y0039459D01*
X0058954Y0040018D01*
X0058778Y0040523D01*
X0058622Y0040971D01*
X0058485Y0041362D01*
X0058368Y0041700D01*
X0058268Y0041986D01*
X0058185Y0042225D01*
X0058116Y0042423D01*
X0058060Y0042584D01*
X0058015Y0042715D01*
X0057979Y0042821D01*
X0057949Y0042906D01*
X0057925Y0042976D01*
X0057905Y0043035D01*
X0057887Y0043085D01*
X0057872Y0043130D01*
X0057857Y0043171D01*
X0057843Y0043211D01*
X0057830Y0043249D01*
X0057817Y0043287D01*
X0057803Y0043326D01*
X0057790Y0043365D01*
X0057776Y0043404D01*
X0057763Y0043444D01*
X0057749Y0043484D01*
X0057736Y0043525D01*
X0057723Y0043566D01*
X0057711Y0043607D01*
X0057699Y0043649D01*
X0057688Y0043691D01*
X0057677Y0043733D01*
X0057667Y0043775D01*
X0057658Y0043817D01*
X0057650Y0043859D01*
X0057642Y0043901D01*
X0057635Y0043943D01*
X0057629Y0043985D01*
X0057624Y0044027D01*
X0057619Y0044069D01*
X0057615Y0044110D01*
X0057612Y0044151D01*
X0057609Y0044192D01*
X0057607Y0044232D01*
X0057606Y0044271D01*
X0057605Y0044310D01*
X0057606Y0044348D01*
X0057607Y0044386D01*
X0057609Y0044423D01*
X0057612Y0044458D01*
X0057617Y0044493D01*
X0057622Y0044527D01*
X0057629Y0044560D01*
X0057638Y0044592D01*
X0057648Y0044623D01*
X0057659Y0044653D01*
X0057672Y0044681D01*
X0057687Y0044707D01*
X0057703Y0044733D01*
X0057722Y0044757D01*
X0057741Y0044779D01*
X0057763Y0044799D01*
X0057786Y0044818D01*
X0057810Y0044836D01*
X0057836Y0044851D01*
X0057863Y0044865D01*
X0057891Y0044877D01*
X0057921Y0044888D01*
X0057951Y0044897D01*
X0057983Y0044905D01*
X0058015Y0044911D01*
X0058048Y0044916D01*
X0058082Y0044920D01*
X0058117Y0044923D01*
X0058153Y0044925D01*
X0058190Y0044926D01*
X0058227Y0044926D01*
X0058266Y0044925D01*
X0058307Y0044923D01*
X0058348Y0044920D01*
X0058392Y0044916D01*
X0058438Y0044911D01*
X0058485Y0044905D01*
X0058535Y0044897D01*
X0058587Y0044889D01*
X0058642Y0044879D01*
X0058699Y0044868D01*
X0058757Y0044856D01*
X0058818Y0044842D01*
X0058880Y0044828D01*
X0058943Y0044812D01*
X0059007Y0044796D01*
X0059071Y0044780D01*
X0059135Y0044763D01*
X0059198Y0044745D01*
X0059260Y0044728D01*
X0059321Y0044711D01*
X0059380Y0044693D01*
X0059437Y0044677D01*
X0059492Y0044660D01*
X0059545Y0044644D01*
X0059596Y0044629D01*
X0059645Y0044614D01*
X0059693Y0044600D01*
X0059739Y0044586D01*
X0059784Y0044572D01*
X0059829Y0044559D01*
X0059874Y0044546D01*
X0059918Y0044533D01*
X0059963Y0044520D01*
X0060008Y0044507D01*
X0060055Y0044494D01*
X0060102Y0044480D01*
X0060151Y0044466D01*
X0060202Y0044452D01*
X0060253Y0044437D01*
X0060307Y0044421D01*
X0060361Y0044405D01*
X0060417Y0044389D01*
X0060475Y0044372D01*
X0060533Y0044355D01*
X0060593Y0044338D01*
X0060653Y0044320D01*
X0060713Y0044303D01*
X0060774Y0044286D01*
X0060835Y0044269D01*
X0060896Y0044253D01*
X0060956Y0044238D01*
X0061016Y0044224D01*
X0061074Y0044211D01*
X0061132Y0044199D01*
X0061188Y0044188D01*
X0061244Y0044178D01*
X0061297Y0044170D01*
X0061349Y0044162D01*
X0061400Y0044156D01*
X0061449Y0044151D01*
X0061497Y0044148D01*
X0061543Y0044145D01*
X0061587Y0044143D01*
X0061630Y0044142D01*
X0061672Y0044142D01*
X0061712Y0044142D01*
X0061751Y0044144D01*
X0061789Y0044147D01*
X0061826Y0044150D01*
X0061862Y0044155D01*
X0061897Y0044161D01*
X0061931Y0044167D01*
X0061963Y0044176D01*
X0061995Y0044185D01*
X0062026Y0044196D01*
X0062056Y0044209D01*
X0062084Y0044223D01*
X0062111Y0044238D01*
X0062137Y0044255D01*
X0062162Y0044274D01*
X0062185Y0044295D01*
X0062206Y0044316D01*
X0062226Y0044340D01*
X0062244Y0044365D01*
X0062260Y0044391D01*
X0062275Y0044418D01*
X0062288Y0044447D01*
X0062299Y0044476D01*
X0062308Y0044507D01*
X0062316Y0044538D01*
X0062322Y0044570D01*
X0062327Y0044603D01*
X0062330Y0044636D01*
X0062332Y0044669D01*
X0062334Y0044703D01*
X0062334Y0044736D01*
X0062333Y0044770D01*
X0062332Y0044803D01*
X0062330Y0044836D01*
X0062327Y0044868D01*
X0062323Y0044900D01*
X0062319Y0044931D01*
X0062314Y0044961D01*
X0062308Y0044991D01*
X0062302Y0045020D01*
X0062294Y0045048D01*
X0062286Y0045075D01*
X0062276Y0045101D01*
X0062266Y0045126D01*
X0062254Y0045150D01*
X0062241Y0045174D01*
X0062227Y0045196D01*
X0062212Y0045218D01*
X0062195Y0045239D01*
X0062177Y0045259D01*
X0062158Y0045279D01*
X0062137Y0045298D01*
X0062115Y0045317D01*
X0062091Y0045335D01*
X0062066Y0045354D01*
X0062039Y0045373D01*
X0062010Y0045392D01*
X0061979Y0045411D01*
X0061947Y0045431D01*
X0061912Y0045451D01*
X0061876Y0045473D01*
X0061836Y0045495D01*
X0061794Y0045518D01*
X0061748Y0045542D01*
X0061699Y0045567D01*
X0061645Y0045593D01*
X0061588Y0045621D01*
X0061525Y0045650D01*
X0061458Y0045680D01*
X0061385Y0045711D01*
X0061306Y0045743D01*
X0061222Y0045777D01*
X0061131Y0045811D01*
X0061035Y0045846D01*
X0060933Y0045882D01*
X0060826Y0045918D01*
X0060715Y0045955D01*
X0060600Y0045992D01*
X0060482Y0046028D01*
X0060363Y0046065D01*
X0060242Y0046100D01*
X0060122Y0046135D01*
X0060003Y0046170D01*
X0059886Y0046203D01*
X0059773Y0046234D01*
X0059663Y0046265D01*
X0059559Y0046294D01*
X0059460Y0046321D01*
X0059367Y0046346D01*
X0059279Y0046371D01*
X0059196Y0046393D01*
X0059118Y0046415D01*
X0059044Y0046436D01*
X0058971Y0046457D01*
X0058898Y0046477D01*
X0058824Y0046499D01*
X0058745Y0046522D01*
X0058658Y0046548D01*
X0058561Y0046577D01*
X0058449Y0046610D01*
X0058321Y0046649D01*
X0058173Y0046693D01*
X0058002Y0046745D01*
X0057806Y0046805D01*
X0057584Y0046872D01*
X0057336Y0046948D01*
X0057060Y0047031D01*
X0056760Y0047123D01*
X0056437Y0047221D01*
X0056094Y0047326D01*
X0055735Y0047435D01*
X0055366Y0047547D01*
X0054992Y0047661D01*
X0054617Y0047775D01*
X0054249Y0047887D01*
X0053892Y0047996D01*
X0053551Y0048100D01*
X0053231Y0048198D01*
X0052934Y0048288D01*
X0052663Y0048371D01*
X0052421Y0048445D01*
X0052206Y0048510D01*
X0052019Y0048568D01*
X0051860Y0048617D01*
X0051725Y0048658D01*
X0051612Y0048693D01*
X0051519Y0048722D01*
X0051444Y0048746D01*
X0051382Y0048765D01*
X0051332Y0048782D01*
X0051291Y0048796D01*
X0051257Y0048808D01*
X0051227Y0048818D01*
X0051200Y0048828D01*
X0051174Y0048838D01*
X0051149Y0048848D01*
X0051124Y0048858D01*
X0051099Y0048869D01*
X0051072Y0048879D01*
X0051045Y0048891D01*
X0051016Y0048902D01*
X0050986Y0048914D01*
X0050956Y0048926D01*
X0050925Y0048938D01*
X0050893Y0048950D01*
X0050861Y0048962D01*
X0050829Y0048973D01*
X0050797Y0048984D01*
X0050765Y0048995D01*
X0050733Y0049004D01*
X0050702Y0049013D01*
X0050672Y0049021D01*
X0050642Y0049028D01*
X0050613Y0049034D01*
X0050585Y0049040D01*
X0050557Y0049044D01*
X0050530Y0049048D01*
X0050503Y0049051D01*
X0050477Y0049053D01*
X0050451Y0049054D01*
X0050426Y0049055D01*
X0050401Y0049054D01*
X0050376Y0049053D01*
X0050351Y0049051D01*
X0050326Y0049048D01*
X0050301Y0049044D01*
X0050276Y0049039D01*
X0050252Y0049033D01*
X0050227Y0049026D01*
X0050203Y0049017D01*
X0050178Y0049007D01*
X0050155Y0048995D01*
X0050131Y0048982D01*
X0050108Y0048968D01*
X0050086Y0048952D01*
X0050065Y0048935D01*
X0050044Y0048917D01*
X0050025Y0048897D01*
X0050007Y0048876D01*
X0049990Y0048855D01*
X0049974Y0048832D01*
X0049960Y0048809D01*
X0049947Y0048785D01*
X0049935Y0048761D01*
X0049925Y0048736D01*
X0049917Y0048712D01*
X0049910Y0048687D01*
X0049904Y0048661D01*
X0049900Y0048636D01*
X0049896Y0048610D01*
X0049894Y0048584D01*
X0049893Y0048557D01*
X0049894Y0048530D01*
X0049895Y0048502D01*
X0049897Y0048473D01*
X0049901Y0048442D01*
X0049906Y0048410D01*
X0049913Y0048376D01*
X0049921Y0048339D01*
X0049930Y0048300D01*
X0049941Y0048258D01*
X0049954Y0048213D01*
X0049968Y0048165D01*
X0049984Y0048114D01*
X0050002Y0048061D01*
X0050021Y0048005D01*
X0050041Y0047946D01*
X0050063Y0047887D01*
X0050085Y0047826D01*
X0050107Y0047765D01*
X0050129Y0047704D01*
X0050151Y0047644D01*
X0050172Y0047587D01*
X0050193Y0047531D01*
X0050213Y0047476D01*
X0050233Y0047419D01*
X0050256Y0047355D01*
X0050285Y0047273D01*
X0050325Y0047157D01*
X0050385Y0046983D01*
X0050478Y0046717D01*
X0050619Y0046310D01*
X0050830Y0045703D01*
X0051138Y0044818D01*
X0051572Y0043575D01*
X0052155Y0041901D01*
X0052901Y0039761D01*
X0053798Y0037186D01*
X0054798Y0034319D01*
X0055795Y0031458D01*
X0056610Y0029121D01*
X0056964Y0028107D01*
X0057066Y0027794D01*
X0057157Y0027517D01*
X0057236Y0027269D01*
X0057302Y0027045D01*
X0057355Y0026838D01*
X0057396Y0026641D01*
X0057424Y0026450D01*
X0057441Y0026262D01*
X0057446Y0026074D01*
X0057439Y0025886D01*
X0057420Y0025699D01*
X0057386Y0025514D01*
X0057337Y0025335D01*
X0057273Y0025165D01*
X0057192Y0025006D01*
X0057095Y0024861D01*
X0056982Y0024733D01*
X0056854Y0024621D01*
X0056713Y0024527D01*
X0056560Y0024450D01*
X0056399Y0024389D01*
X0056232Y0024341D01*
X0056062Y0024306D01*
X0055894Y0024279D01*
X0055728Y0024257D01*
X0055570Y0024239D01*
X0055420Y0024220D01*
X0055282Y0024200D01*
X0055157Y0024175D01*
X0055045Y0024146D01*
X0054947Y0024110D01*
X0054864Y0024067D01*
X0054794Y0024018D01*
X0054737Y0023963D01*
X0054692Y0023902D01*
X0054658Y0023838D01*
X0054634Y0023770D01*
X0054618Y0023699D01*
X0054609Y0023628D01*
X0054607Y0023557D01*
X0054611Y0023486D01*
X0054619Y0023417D01*
X0054632Y0023349D01*
X0054649Y0023285D01*
X0054670Y0023223D01*
X0054695Y0023165D01*
X0054723Y0023110D01*
X0054755Y0023059D01*
X0054791Y0023011D01*
X0054830Y0022966D01*
X0054872Y0022925D01*
X0054917Y0022887D01*
X0054966Y0022853D01*
X0055016Y0022821D01*
X0055069Y0022793D01*
X0055125Y0022767D01*
X0055182Y0022745D01*
X0055242Y0022724D01*
X0055304Y0022707D01*
X0055368Y0022691D01*
X0055435Y0022678D01*
X0055504Y0022667D01*
X0055578Y0022658D01*
X0055655Y0022651D01*
X0055736Y0022645D01*
X0055823Y0022640D01*
X0055915Y0022637D01*
X0056014Y0022635D01*
X0056118Y0022635D01*
X0056230Y0022635D01*
X0056349Y0022636D01*
X0056475Y0022638D01*
X0056607Y0022640D01*
X0056746Y0022644D01*
X0056892Y0022648D01*
X0057043Y0022653D01*
X0057200Y0022659D01*
X0057361Y0022665D01*
X0057526Y0022671D01*
X0057694Y0022679D01*
X0057865Y0022687D01*
X0058039Y0022695D01*
X0058213Y0022703D01*
X0058389Y0022712D01*
X0058566Y0022721D01*
X0058744Y0022730D01*
X0058922Y0022739D01*
X0059100Y0022748D01*
X0059278Y0022757D01*
X0059456Y0022765D01*
X0059634Y0022772D01*
X0059811Y0022779D01*
X0059989Y0022785D01*
X0060167Y0022791D01*
X0060345Y0022796D01*
X0060522Y0022801D01*
X0060700Y0022804D01*
X0060878Y0022807D01*
X0061055Y0022810D01*
X0061233Y0022812D01*
X0061411Y0022813D01*
X0061589Y0022813D01*
X0061767Y0022814D01*
X0061946Y0022813D01*
X0062124Y0022812D01*
X0062303Y0022811D01*
X0062482Y0022809D01*
X0062661Y0022806D01*
X0062841Y0022803D01*
X0063021Y0022799D01*
X0063201Y0022794D01*
X0063382Y0022789D01*
X0063563Y0022783D01*
X0063744Y0022776D01*
X0063926Y0022769D01*
X0064107Y0022761D01*
X0064289Y0022753D01*
X0064471Y0022744D01*
X0064652Y0022735D01*
X0064833Y0022726D01*
X0065013Y0022717D01*
X0065191Y0022709D01*
X0065369Y0022700D01*
X0065544Y0022691D01*
X0065716Y0022683D01*
X0065885Y0022676D01*
X0066051Y0022669D01*
X0066212Y0022662D01*
X0066368Y0022656D01*
X0066518Y0022651D01*
X0066661Y0022646D01*
X0066798Y0022642D01*
X0066927Y0022639D01*
X0067049Y0022636D01*
X0067163Y0022634D01*
X0067269Y0022633D01*
X0067367Y0022632D01*
X0067457Y0022633D01*
X0067540Y0022634D01*
X0067616Y0022636D01*
X0067685Y0022640D01*
X0067748Y0022644D01*
X0067806Y0022650D01*
X0067859Y0022656D01*
X0067908Y0022665D01*
X0067953Y0022674D01*
X0067994Y0022685D01*
X0068033Y0022698D01*
X0068068Y0022712D01*
X0068102Y0022728D01*
X0068133Y0022746D01*
X0068162Y0022766D01*
X0068188Y0022788D01*
X0068213Y0022811D01*
X0068235Y0022837D01*
X0068255Y0022865D01*
X0068273Y0022895D01*
X0068288Y0022928D01*
X0068302Y0022963D01*
X0068313Y0023001D01*
X0068322Y0023041D01*
X0068328Y0023084D01*
X0068333Y0023129D01*
X0068336Y0023177D01*
X0068337Y0023228D01*
X0068335Y0023280D01*
X0068332Y0023335D01*
X0068326Y0023391D01*
X0068317Y0023448D01*
X0068306Y0023507D01*
X0068292Y0023565D01*
X0068275Y0023624D01*
X0068254Y0023681D01*
X0068229Y0023737D01*
X0068200Y0023791D01*
X0046173Y0030318D02*
X0046177Y0030335D01*
X0046180Y0030352D01*
X0046182Y0030369D01*
X0046182Y0030386D01*
X0046182Y0030403D01*
X0046181Y0030420D01*
X0046180Y0030436D01*
X0046178Y0030452D01*
X0046175Y0030468D01*
X0046172Y0030484D01*
X0046169Y0030500D01*
X0046165Y0030516D01*
X0046161Y0030531D01*
X0046157Y0030547D01*
X0046152Y0030563D01*
X0046147Y0030579D01*
X0046142Y0030595D01*
X0046137Y0030612D01*
X0046132Y0030628D01*
X0046126Y0030646D01*
X0046121Y0030663D01*
X0046115Y0030682D01*
X0046109Y0030702D01*
X0046102Y0030723D01*
X0046095Y0030746D01*
X0046088Y0030771D01*
X0046080Y0030799D01*
X0046071Y0030830D01*
X0046061Y0030864D01*
X0046050Y0030902D01*
X0046038Y0030944D01*
X0046024Y0030990D01*
X0046009Y0031040D01*
X0045993Y0031094D01*
X0045976Y0031151D01*
X0045959Y0031211D01*
X0045940Y0031273D01*
X0045921Y0031337D01*
X0045902Y0031402D01*
X0045883Y0031467D01*
X0045864Y0031531D01*
X0045845Y0031594D01*
X0045827Y0031654D01*
X0045809Y0031712D01*
X0045792Y0031768D01*
X0045775Y0031821D01*
X0045757Y0031871D01*
X0045739Y0031918D01*
X0045720Y0031964D01*
X0045700Y0032009D01*
X0045678Y0032052D01*
X0045654Y0032095D01*
X0045627Y0032139D01*
X0045598Y0032183D01*
X0045566Y0032228D01*
X0045531Y0032275D01*
X0045493Y0032323D01*
X0045451Y0032374D01*
X0045406Y0032428D01*
X0045355Y0032486D01*
X0045299Y0032549D01*
X0045234Y0032620D01*
X0045158Y0032700D01*
X0045068Y0032795D01*
X0044959Y0032908D01*
X0044826Y0033045D01*
X0044663Y0033211D01*
X0044463Y0033412D01*
X0044221Y0033656D01*
X0043929Y0033949D01*
X0043582Y0034297D01*
X0043175Y0034704D01*
X0042704Y0035175D01*
X0042167Y0035711D01*
X0041566Y0036311D01*
X0040902Y0036973D01*
X0040181Y0037692D01*
X0039411Y0038460D01*
X0038601Y0039267D01*
X0037763Y0040103D01*
X0036910Y0040954D01*
X0036054Y0041806D01*
X0035211Y0042646D01*
X0034393Y0043462D01*
X0033613Y0044240D01*
X0032879Y0044971D01*
X0032202Y0045647D01*
X0031586Y0046261D01*
X0031035Y0046810D01*
X0030551Y0047292D01*
X0030132Y0047710D01*
X0029776Y0048065D01*
X0029478Y0048362D01*
X0029232Y0048607D01*
X0029031Y0048806D01*
X0028870Y0048966D01*
X0028741Y0049093D01*
X0028638Y0049194D01*
X0028556Y0049273D01*
X0028489Y0049336D01*
X0028433Y0049386D01*
X0028385Y0049427D01*
X0028342Y0049462D01*
X0028302Y0049491D01*
X0028264Y0049516D01*
X0028227Y0049538D01*
X0028191Y0049558D01*
X0028154Y0049575D01*
X0028117Y0049589D01*
X0028079Y0049602D01*
X0028041Y0049612D01*
X0028003Y0049620D01*
X0027963Y0049626D01*
X0027923Y0049630D01*
X0027882Y0049633D01*
X0027841Y0049634D01*
X0027799Y0049635D01*
X0027756Y0049635D01*
X0027712Y0049634D01*
X0027669Y0049633D01*
X0027625Y0049632D01*
X0027581Y0049630D01*
X0027538Y0049629D01*
X0027495Y0049628D01*
X0027453Y0049627D01*
X0027411Y0049627D01*
X0027371Y0049626D01*
X0027331Y0049626D01*
X0027292Y0049627D01*
X0027253Y0049628D01*
X0027214Y0049629D01*
X0027174Y0049631D01*
X0027133Y0049633D01*
X0027090Y0049636D01*
X0027044Y0049640D01*
X0026996Y0049643D01*
X0026945Y0049647D01*
X0026891Y0049652D01*
X0026833Y0049656D01*
X0026772Y0049661D01*
X0026709Y0049665D01*
X0026644Y0049669D01*
X0026577Y0049672D01*
X0026509Y0049673D01*
X0026442Y0049674D01*
X0026377Y0049673D01*
X0026314Y0049669D01*
X0026254Y0049664D01*
X0026197Y0049657D01*
X0026146Y0049647D01*
X0026099Y0049636D01*
X0026058Y0049622D01*
X0026022Y0049606D01*
X0025991Y0049588D01*
X0025965Y0049568D01*
X0025945Y0049547D01*
X0025928Y0049525D01*
X0025916Y0049502D01*
X0025907Y0049479D01*
X0025901Y0049455D01*
X0025898Y0049431D01*
X0025897Y0049406D01*
X0025899Y0049382D01*
X0025902Y0049358D01*
X0025907Y0049334D01*
X0025913Y0049311D01*
X0025922Y0049287D01*
X0025931Y0049264D01*
X0025942Y0049241D01*
X0025954Y0049218D01*
X0025968Y0049195D01*
X0025982Y0049172D01*
X0025998Y0049150D01*
X0026015Y0049128D01*
X0026032Y0049106D01*
X0026051Y0049084D01*
X0026069Y0049063D01*
X0026088Y0049042D01*
X0026107Y0049022D01*
X0026125Y0049003D01*
X0026143Y0048984D01*
X0026161Y0048966D01*
X0026179Y0048948D01*
X0026198Y0048930D01*
X0026218Y0048911D01*
X0026241Y0048889D01*
X0026268Y0048862D01*
X0026303Y0048829D01*
X0026348Y0048785D01*
X0026408Y0048728D01*
X0026488Y0048651D01*
X0026594Y0048549D01*
X0026731Y0048417D01*
X0026908Y0048247D01*
X0027130Y0048033D01*
X0027404Y0047768D01*
X0027738Y0047447D01*
X0028136Y0047064D01*
X0028601Y0046615D01*
X0029137Y0046099D01*
X0029742Y0045516D01*
X0030413Y0044869D01*
X0031147Y0044162D01*
X0031934Y0043404D01*
X0032765Y0042603D01*
X0033628Y0041771D01*
X0034510Y0040921D01*
X0035396Y0040067D01*
X0036273Y0039222D01*
X0037125Y0038401D01*
X0037941Y0037614D01*
X0038709Y0036874D01*
X0039420Y0036189D01*
X0040067Y0035565D01*
X0040645Y0035007D01*
X0041151Y0034517D01*
X0041587Y0034095D01*
X0041952Y0033737D01*
X0042252Y0033439D01*
X0042489Y0033198D01*
X0042668Y0033005D01*
X0042795Y0032855D01*
X0042872Y0032740D01*
X0042905Y0032655D01*
X0042895Y0032594D01*
X0042845Y0032551D01*
X0042757Y0032521D01*
X0042630Y0032502D01*
X0042465Y0032490D01*
X0042263Y0032483D01*
X0042022Y0032479D01*
X0041745Y0032476D01*
X0041433Y0032475D01*
X0041088Y0032475D01*
X0040714Y0032475D01*
X0040315Y0032475D01*
X0039897Y0032475D01*
X0039466Y0032475D01*
X0039029Y0032475D01*
X0038593Y0032475D01*
X0038165Y0032475D01*
X0037751Y0032475D01*
X0037359Y0032475D01*
X0036992Y0032475D01*
X0036655Y0032475D01*
X0036350Y0032476D01*
X0036080Y0032477D01*
X0035844Y0032479D01*
X0035641Y0032482D01*
X0035470Y0032488D01*
X0035328Y0032498D01*
X0035211Y0032512D01*
X0035115Y0032532D01*
X0035037Y0032561D01*
X0034972Y0032600D01*
X0034916Y0032653D01*
X0034865Y0032722D01*
X0034815Y0032810D01*
X0034764Y0032920D01*
X0034709Y0033054D01*
X0034648Y0033215D01*
X0034579Y0033404D01*
X0034501Y0033622D01*
X0034414Y0033869D01*
X0034318Y0034144D01*
X0034212Y0034445D01*
X0034099Y0034768D01*
X0033980Y0035110D01*
X0033855Y0035466D01*
X0033728Y0035831D01*
X0033599Y0036199D01*
X0033471Y0036564D01*
X0033347Y0036921D01*
X0033227Y0037265D01*
X0033113Y0037592D01*
X0033006Y0037898D01*
X0032907Y0038181D01*
X0032817Y0038439D01*
X0032736Y0038674D01*
X0032662Y0038884D01*
X0032597Y0039073D01*
X0032539Y0039242D01*
X0032487Y0039394D01*
X0032440Y0039531D01*
X0032397Y0039657D01*
X0032358Y0039774D01*
X0032321Y0039884D01*
X0032286Y0039988D01*
X0032253Y0040089D01*
X0032221Y0040187D01*
X0032189Y0040281D01*
X0032159Y0040373D01*
X0032129Y0040461D01*
X0032099Y0040545D01*
X0032070Y0040624D01*
X0032041Y0040698D01*
X0032011Y0040765D01*
X0031980Y0040826D01*
X0031948Y0040881D01*
X0031913Y0040929D01*
X0031875Y0040970D01*
X0031832Y0041007D01*
X0031784Y0041039D01*
X0031730Y0041066D01*
X0031669Y0041091D01*
X0031602Y0041113D01*
X0031528Y0041134D01*
X0031447Y0041154D01*
X0031360Y0041173D01*
X0031267Y0041193D01*
X0031171Y0041213D01*
X0031071Y0041234D01*
X0030969Y0041254D01*
X0030866Y0041276D01*
X0030764Y0041297D01*
X0030663Y0041318D01*
X0030564Y0041339D01*
X0030466Y0041360D01*
X0030370Y0041381D01*
X0030275Y0041402D01*
X0030180Y0041423D01*
X0030085Y0041444D01*
X0029987Y0041466D01*
X0029886Y0041488D01*
X0029779Y0041512D01*
X0029667Y0041537D01*
X0029548Y0041564D01*
X0029422Y0041592D01*
X0029289Y0041622D01*
X0029150Y0041653D01*
X0029005Y0041685D01*
X0028855Y0041718D01*
X0028703Y0041752D01*
X0028551Y0041786D01*
X0028401Y0041819D01*
X0028254Y0041852D01*
X0028113Y0041883D01*
X0027980Y0041913D01*
X0027856Y0041941D01*
X0027743Y0041966D01*
X0027640Y0041989D01*
X0027548Y0042009D01*
X0027468Y0042026D01*
X0027398Y0042042D01*
X0027338Y0042055D01*
X0027286Y0042066D01*
X0027242Y0042075D01*
X0027205Y0042083D01*
X0027172Y0042090D01*
X0027142Y0042096D01*
X0027116Y0042102D01*
X0027091Y0042107D01*
X0027066Y0042112D01*
X0027042Y0042117D01*
X0027016Y0042122D01*
X0026990Y0042127D01*
X0026963Y0042133D01*
X0026934Y0042139D01*
X0026904Y0042145D01*
X0026872Y0042151D01*
X0026839Y0042158D01*
X0026805Y0042165D01*
X0026770Y0042173D01*
X0026734Y0042180D01*
X0026698Y0042187D01*
X0026661Y0042194D01*
X0026625Y0042201D01*
X0026589Y0042207D01*
X0026553Y0042213D01*
X0026518Y0042219D01*
X0026484Y0042224D01*
X0026451Y0042229D01*
X0026419Y0042233D01*
X0026388Y0042236D01*
X0026358Y0042239D01*
X0026330Y0042242D01*
X0026303Y0042244D01*
X0026277Y0042245D01*
X0026252Y0042246D01*
X0026229Y0042247D01*
X0026206Y0042247D01*
X0026185Y0042247D01*
X0026164Y0042246D01*
X0026144Y0042245D01*
X0026126Y0042243D01*
X0026107Y0042241D01*
X0026090Y0042238D01*
X0026073Y0042235D01*
X0026057Y0042231D01*
X0026041Y0042226D01*
X0026026Y0042220D01*
X0026011Y0042214D01*
X0025997Y0042207D01*
X0025984Y0042199D01*
X0025971Y0042190D01*
X0025959Y0042180D01*
X0025948Y0042170D01*
X0025937Y0042158D01*
X0025927Y0042146D01*
X0025918Y0042133D01*
X0025910Y0042119D01*
X0025903Y0042104D01*
X0025897Y0042089D01*
X0025891Y0042072D01*
X0025887Y0042055D01*
X0025883Y0042037D01*
X0025880Y0042019D01*
X0025878Y0041999D01*
X0025877Y0041979D01*
X0025877Y0041958D01*
X0025877Y0041936D01*
X0025877Y0041912D01*
X0025879Y0041888D01*
X0025881Y0041863D01*
X0025883Y0041836D01*
X0025887Y0041809D01*
X0025891Y0041780D01*
X0025895Y0041749D01*
X0025901Y0041717D01*
X0025907Y0041684D01*
X0025914Y0041649D01*
X0025922Y0041613D01*
X0025931Y0041576D01*
X0025941Y0041538D01*
X0025951Y0041499D01*
X0025962Y0041459D01*
X0025973Y0041419D01*
X0025985Y0041379D01*
X0025997Y0041338D01*
X0026010Y0041299D01*
X0026022Y0041260D01*
X0026035Y0041222D01*
X0026047Y0041186D01*
X0026059Y0041151D01*
X0026070Y0041117D01*
X0026081Y0041085D01*
X0026092Y0041053D01*
X0026103Y0041023D01*
X0026114Y0040992D01*
X0026126Y0040960D01*
X0026139Y0040924D01*
X0026153Y0040884D01*
X0026170Y0040837D01*
X0026190Y0040779D01*
X0026215Y0040709D01*
X0026246Y0040621D01*
X0026284Y0040514D01*
X0026330Y0040383D01*
X0026385Y0040225D01*
X0026451Y0040036D01*
X0026528Y0039816D01*
X0026617Y0039562D01*
X0026717Y0039275D01*
X0026830Y0038954D01*
X0026953Y0038601D01*
X0027085Y0038222D01*
X0027226Y0037818D01*
X0027373Y0037397D01*
X0027524Y0036964D01*
X0027677Y0036526D01*
X0027829Y0036091D01*
X0027978Y0035665D01*
X0028121Y0035254D01*
X0028257Y0034866D01*
X0028383Y0034504D01*
X0028499Y0034172D01*
X0028603Y0033874D01*
X0028695Y0033610D01*
X0028774Y0033381D01*
X0028841Y0033185D01*
X0028895Y0033022D01*
X0028939Y0032888D01*
X0028971Y0032780D01*
X0028992Y0032695D01*
X0029004Y0032630D01*
X0029006Y0032582D01*
X0028999Y0032546D01*
X0028981Y0032521D01*
X0028955Y0032503D01*
X0028918Y0032492D01*
X0028870Y0032484D01*
X0028812Y0032480D01*
X0028743Y0032477D01*
X0028663Y0032476D01*
X0028573Y0032475D01*
X0028472Y0032475D01*
X0028363Y0032475D01*
X0028245Y0032475D01*
X0028121Y0032475D01*
X0027992Y0032475D01*
X0027861Y0032475D01*
X0027729Y0032474D01*
X0027598Y0032474D01*
X0027472Y0032474D01*
X0027350Y0032474D01*
X0027236Y0032474D01*
X0027130Y0032474D01*
X0027033Y0032474D01*
X0026946Y0032473D01*
X0026869Y0032473D01*
X0026802Y0032472D01*
X0026744Y0032471D01*
X0026695Y0032470D01*
X0026654Y0032469D01*
X0026619Y0032468D01*
X0026589Y0032467D01*
X0026564Y0032465D01*
X0026543Y0032464D01*
X0026524Y0032462D01*
X0026506Y0032461D01*
X0026490Y0032459D01*
X0026474Y0032458D01*
X0026458Y0032456D01*
X0026441Y0032455D01*
X0026424Y0032454D01*
X0026407Y0032452D01*
X0026389Y0032451D01*
X0026371Y0032450D01*
X0026352Y0032448D01*
X0026333Y0032446D01*
X0026315Y0032444D01*
X0026296Y0032441D01*
X0026278Y0032437D01*
X0026261Y0032433D01*
X0026245Y0032428D01*
X0026229Y0032421D01*
X0026215Y0032413D01*
X0026202Y0032405D01*
X0026191Y0032394D01*
X0026180Y0032383D01*
X0026172Y0032371D01*
X0026164Y0032357D01*
X0026158Y0032342D01*
X0026154Y0032327D01*
X0026150Y0032310D01*
X0026148Y0032293D01*
X0026146Y0032275D01*
X0026145Y0032256D01*
X0026146Y0032237D01*
X0026147Y0032217D01*
X0026149Y0032197D01*
X0026151Y0032175D01*
X0026154Y0032153D01*
X0026159Y0032130D01*
X0026163Y0032106D01*
X0026169Y0032081D01*
X0026176Y0032055D01*
X0026183Y0032028D01*
X0026191Y0032000D01*
X0026200Y0031971D01*
X0026209Y0031940D01*
X0026219Y0031910D01*
X0026229Y0031879D01*
X0026240Y0031848D01*
X0026251Y0031817D01*
X0026262Y0031786D01*
X0026273Y0031756D01*
X0026283Y0031727D01*
X0026293Y0031700D01*
X0026303Y0031673D01*
X0026312Y0031649D01*
X0026321Y0031626D01*
X0026329Y0031605D01*
X0026336Y0031586D01*
X0026343Y0031569D01*
X0026349Y0031553D01*
X0026355Y0031538D01*
X0026360Y0031524D01*
X0026365Y0031511D01*
X0026370Y0031499D01*
X0026374Y0031486D01*
X0026379Y0031473D01*
X0026384Y0031459D01*
X0026390Y0031443D01*
X0026396Y0031426D01*
X0026403Y0031406D01*
X0026411Y0031384D01*
X0026420Y0031359D01*
X0026430Y0031331D01*
X0026441Y0031300D01*
X0026453Y0031266D01*
X0026466Y0031230D01*
X0026479Y0031191D01*
X0026493Y0031151D01*
X0026508Y0031109D01*
X0026523Y0031067D01*
X0026538Y0031024D01*
X0026553Y0030983D01*
X0026567Y0030942D01*
X0026581Y0030903D01*
X0026594Y0030866D01*
X0026606Y0030830D01*
X0026618Y0030797D01*
X0026628Y0030767D01*
X0026638Y0030738D01*
X0026648Y0030711D01*
X0026656Y0030685D01*
X0026665Y0030661D01*
X0026673Y0030637D01*
X0026681Y0030614D01*
X0026689Y0030591D01*
X0026697Y0030568D01*
X0026705Y0030545D01*
X0026714Y0030522D01*
X0026723Y0030498D01*
X0026732Y0030474D01*
X0026741Y0030450D01*
X0026751Y0030427D01*
X0026762Y0030404D01*
X0026772Y0030382D01*
X0026783Y0030361D01*
X0026795Y0030342D01*
X0026807Y0030324D01*
X0026820Y0030308D01*
X0026833Y0030294D01*
X0026847Y0030281D01*
X0026862Y0030271D01*
X0026879Y0030262D01*
X0026896Y0030254D01*
X0026915Y0030248D01*
X0026935Y0030244D01*
X0026956Y0030240D01*
X0026978Y0030237D01*
X0027002Y0030235D01*
X0027026Y0030234D01*
X0027052Y0030233D01*
X0027078Y0030232D01*
X0027105Y0030232D01*
X0027132Y0030231D01*
X0027161Y0030231D01*
X0027191Y0030231D01*
X0027223Y0030231D01*
X0027258Y0030231D01*
X0027296Y0030231D01*
X0027339Y0030231D01*
X0027387Y0030231D01*
X0027442Y0030231D01*
X0027505Y0030231D01*
X0027578Y0030231D01*
X0027660Y0030231D01*
X0027753Y0030231D01*
X0027857Y0030231D01*
X0027972Y0030231D01*
X0028096Y0030231D01*
X0028229Y0030231D01*
X0028369Y0030231D01*
X0028513Y0030231D01*
X0028660Y0030231D01*
X0028807Y0030231D01*
X0028951Y0030231D01*
X0029089Y0030231D01*
X0029219Y0030231D01*
X0029339Y0030231D01*
X0029448Y0030230D01*
X0029544Y0030228D01*
X0029628Y0030224D01*
X0029700Y0030215D01*
X0029761Y0030198D01*
X0029815Y0030169D01*
X0029864Y0030121D01*
X0029913Y0030046D01*
X0029968Y0029932D01*
X0030035Y0029768D01*
X0030118Y0029543D01*
X0030222Y0029249D01*
X0030346Y0028889D01*
X0030485Y0028483D01*
X0030624Y0028073D01*
X0030739Y0027734D01*
X0030790Y0027586D01*
X0030892Y0027315D01*
X0030984Y0027055D01*
X0031064Y0026816D01*
X0031130Y0026598D01*
X0031184Y0026402D01*
X0031225Y0026226D01*
X0031255Y0026066D01*
X0031276Y0025918D01*
X0031287Y0025780D01*
X0031291Y0025648D01*
X0031288Y0025522D01*
X0031277Y0025399D01*
X0031259Y0025281D01*
X0031233Y0025166D01*
X0031200Y0025057D01*
X0031158Y0024953D01*
X0031109Y0024855D01*
X0031052Y0024764D01*
X0030988Y0024680D01*
X0030917Y0024604D01*
X0030839Y0024536D01*
X0030756Y0024475D01*
X0030669Y0024421D01*
X0030578Y0024373D01*
X0030485Y0024332D01*
X0030390Y0024296D01*
X0030294Y0024265D01*
X0030199Y0024239D01*
X0030104Y0024216D01*
X0030011Y0024196D01*
X0029921Y0024179D01*
X0029832Y0024165D01*
X0029747Y0024152D01*
X0029665Y0024140D01*
X0029585Y0024130D01*
X0029509Y0024122D01*
X0029436Y0024113D01*
X0029366Y0024106D01*
X0029299Y0024099D01*
X0029235Y0024093D01*
X0029174Y0024087D01*
X0029114Y0024080D01*
X0029058Y0024074D01*
X0029003Y0024067D01*
X0028951Y0024060D01*
X0028900Y0024053D01*
X0028852Y0024044D01*
X0028805Y0024034D01*
X0028761Y0024023D01*
X0028718Y0024011D01*
X0028678Y0023996D01*
X0028640Y0023979D01*
X0028604Y0023960D01*
X0028570Y0023937D01*
X0028540Y0023912D01*
X0028512Y0023884D01*
X0028487Y0023853D01*
X0028465Y0023819D01*
X0028445Y0023781D01*
X0028429Y0023741D01*
X0028415Y0023697D01*
X0028404Y0023651D01*
X0028395Y0023602D01*
X0028389Y0023552D01*
X0028385Y0023500D01*
X0028384Y0023446D01*
X0028384Y0023392D01*
X0028387Y0023338D01*
X0028392Y0023284D01*
X0028399Y0023230D01*
X0028408Y0023177D01*
X0028420Y0023126D01*
X0028435Y0023076D01*
X0028453Y0023029D01*
X0028474Y0022984D01*
X0028498Y0022942D01*
X0028526Y0022902D01*
X0028557Y0022866D01*
X0028592Y0022832D01*
X0028630Y0022802D01*
X0028672Y0022774D01*
X0028716Y0022750D01*
X0028763Y0022729D01*
X0028813Y0022710D01*
X0028865Y0022694D01*
X0028920Y0022680D01*
X0028976Y0022668D01*
X0029034Y0022659D01*
X0029094Y0022651D01*
X0029156Y0022644D01*
X0029220Y0022639D01*
X0029287Y0022635D01*
X0029358Y0022632D01*
X0029433Y0022630D01*
X0029512Y0022629D01*
X0029596Y0022628D01*
X0029687Y0022628D01*
X0029784Y0022629D01*
X0029887Y0022630D01*
X0029998Y0022632D01*
X0030116Y0022635D01*
X0030242Y0022638D01*
X0030374Y0022641D01*
X0030513Y0022646D01*
X0030659Y0022651D01*
X0030810Y0022656D01*
X0030967Y0022662D01*
X0031128Y0022669D01*
X0031293Y0022677D01*
X0031461Y0022684D01*
X0031631Y0022693D01*
X0031804Y0022702D01*
X0031978Y0022711D01*
X0032154Y0022720D01*
X0032330Y0022729D01*
X0032507Y0022738D01*
X0032684Y0022747D01*
X0032862Y0022756D01*
X0033040Y0022764D01*
X0033219Y0022772D01*
X0033398Y0022779D01*
X0033577Y0022786D01*
X0033757Y0022792D01*
X0033937Y0022797D01*
X0034118Y0022801D01*
X0034299Y0022805D01*
X0034480Y0022808D01*
X0034661Y0022810D01*
X0034843Y0022812D01*
X0035024Y0022813D01*
X0035206Y0022814D01*
X0035388Y0022814D01*
X0035570Y0022813D01*
X0035752Y0022812D01*
X0035934Y0022810D01*
X0036116Y0022808D01*
X0036297Y0022805D01*
X0036478Y0022801D01*
X0036659Y0022796D01*
X0036840Y0022791D01*
X0037020Y0022785D01*
X0037200Y0022779D01*
X0037380Y0022771D01*
X0037559Y0022764D01*
X0037738Y0022755D01*
X0037917Y0022746D01*
X0038095Y0022737D01*
X0038273Y0022728D01*
X0038450Y0022719D01*
X0038626Y0022710D01*
X0038801Y0022701D01*
X0038974Y0022692D01*
X0039144Y0022684D01*
X0039312Y0022676D01*
X0039477Y0022668D01*
X0039637Y0022662D01*
X0039792Y0022656D01*
X0039941Y0022650D01*
X0040084Y0022646D01*
X0040220Y0022642D01*
X0040348Y0022638D01*
X0040469Y0022636D01*
X0040581Y0022634D01*
X0040684Y0022634D01*
X0040779Y0022634D01*
X0040865Y0022635D01*
X0040944Y0022637D01*
X0041015Y0022641D01*
X0041078Y0022645D01*
X0041136Y0022651D01*
X0041187Y0022659D01*
X0041233Y0022667D01*
X0041275Y0022678D01*
X0041312Y0022690D01*
X0041346Y0022704D01*
X0041377Y0022719D01*
X0041405Y0022737D01*
X0041430Y0022756D01*
X0041453Y0022777D01*
X0041474Y0022799D01*
X0041493Y0022824D01*
X0041510Y0022850D01*
X0041525Y0022878D01*
X0041538Y0022908D01*
X0041549Y0022940D01*
X0041559Y0022974D01*
X0041567Y0023010D01*
X0041573Y0023047D01*
X0041578Y0023087D01*
X0041581Y0023128D01*
X0041582Y0023171D01*
X0041582Y0023216D01*
X0041580Y0023263D01*
X0041577Y0023311D01*
X0041571Y0023360D01*
X0041564Y0023410D01*
X0041554Y0023461D01*
X0041542Y0023512D01*
X0041528Y0023563D01*
X0041510Y0023614D01*
X0041489Y0023663D01*
X0041465Y0023712D01*
X0041437Y0023758D01*
X0041406Y0023803D01*
X0041371Y0023845D01*
X0041332Y0023885D01*
X0041289Y0023922D01*
X0041243Y0023957D01*
X0041194Y0023988D01*
X0041142Y0024017D01*
X0041086Y0024043D01*
X0041028Y0024067D01*
X0040967Y0024088D01*
X0040903Y0024107D01*
X0040836Y0024124D01*
X0040766Y0024140D01*
X0040691Y0024154D01*
X0040613Y0024167D01*
X0040529Y0024179D01*
X0040439Y0024191D01*
X0040344Y0024202D01*
X0040241Y0024214D01*
X0040132Y0024226D01*
X0040015Y0024238D01*
X0039891Y0024251D01*
X0039760Y0024265D01*
X0039623Y0024280D01*
X0039480Y0024297D01*
X0039334Y0024316D01*
X0039185Y0024337D01*
X0039035Y0024360D01*
X0038886Y0024387D01*
X0038739Y0024416D01*
X0038597Y0024449D01*
X0038460Y0024486D01*
X0038330Y0024528D01*
X0038208Y0024575D01*
X0038093Y0024628D01*
X0037988Y0024687D01*
X0037891Y0024753D01*
X0037801Y0024827D01*
X0037720Y0024908D01*
X0037645Y0024998D01*
X0037575Y0025096D01*
X0037510Y0025201D01*
X0037449Y0025315D01*
X0037391Y0025436D01*
X0037336Y0025563D01*
X0037282Y0025695D01*
X0037229Y0025831D01*
X0037178Y0025969D01*
X0037128Y0026108D01*
X0037080Y0026246D01*
X0037032Y0026382D01*
X0036987Y0026515D01*
X0036943Y0026644D01*
X0036900Y0026768D01*
X0036859Y0026887D01*
X0036820Y0027002D01*
X0036782Y0027113D01*
X0036745Y0027221D01*
X0036708Y0027329D01*
X0036671Y0027436D01*
X0036633Y0027545D01*
X0036595Y0027657D01*
X0036554Y0027774D01*
X0036512Y0027897D01*
X0036467Y0028025D01*
X0036420Y0028160D01*
X0036372Y0028300D01*
X0036321Y0028445D01*
X0036269Y0028594D01*
X0036217Y0028744D01*
X0036165Y0028895D01*
X0036113Y0029043D01*
X0036063Y0029187D01*
X0036015Y0029325D01*
X0035970Y0029454D01*
X0035928Y0029575D01*
X0035891Y0029684D01*
X0035858Y0029782D01*
X0035830Y0029868D01*
X0035808Y0029943D01*
X0035792Y0030006D01*
X0035784Y0030059D01*
X0035785Y0030101D01*
X0035797Y0030136D01*
X0035821Y0030162D01*
X0035861Y0030183D01*
X0035919Y0030198D01*
X0035999Y0030209D01*
X0036105Y0030217D01*
X0036240Y0030222D01*
X0036408Y0030225D01*
X0036612Y0030228D01*
X0036855Y0030229D01*
X0037138Y0030230D01*
X0037462Y0030230D01*
X0037826Y0030230D01*
X0038228Y0030230D01*
X0038664Y0030230D01*
X0039129Y0030230D01*
X0039618Y0030230D01*
X0040122Y0030230D01*
X0040635Y0030230D01*
X0041147Y0030230D01*
X0041650Y0030230D01*
X0042136Y0030230D01*
X0042599Y0030230D01*
X0043033Y0030230D01*
X0043432Y0030230D01*
X0043793Y0030230D01*
X0044114Y0030230D01*
X0044395Y0030230D01*
X0044637Y0030230D01*
X0044841Y0030230D01*
X0045010Y0030230D01*
X0045148Y0030230D01*
X0045260Y0030229D01*
X0045348Y0030229D01*
X0045418Y0030228D01*
X0045473Y0030227D01*
X0045517Y0030226D01*
X0045552Y0030225D01*
X0045582Y0030223D01*
X0045609Y0030221D01*
X0045634Y0030219D01*
X0045659Y0030216D01*
X0045684Y0030213D01*
X0045711Y0030210D01*
X0045738Y0030206D01*
X0045767Y0030203D01*
X0045798Y0030200D01*
X0045829Y0030197D01*
X0045861Y0030195D01*
X0045893Y0030193D01*
X0045925Y0030193D01*
X0045956Y0030194D01*
X0045986Y0030196D01*
X0046014Y0030200D01*
X0046041Y0030205D01*
X0046065Y0030212D01*
X0046087Y0030221D01*
X0046106Y0030231D01*
X0046123Y0030243D01*
X0046138Y0030256D01*
X0046150Y0030270D01*
X0046159Y0030285D01*
X0046167Y0030301D01*
X0046173Y0030318D01*
D19*
X0145700Y0305700D02*
X0145000Y0306400D01*
X0144400Y0307000D01*
X0143800Y0307700D01*
X0143200Y0308400D01*
X0145600Y0312000D01*
X0145100Y0312800D01*
X0144800Y0313700D01*
X0144500Y0314600D01*
X0144300Y0315300D01*
X0140300Y0316000D01*
X0140200Y0317100D01*
X0140200Y0318000D01*
X0140300Y0318800D01*
X0140400Y0319800D01*
X0144500Y0320500D01*
X0144900Y0321600D01*
X0145100Y0322200D01*
X0145500Y0322900D01*
X0146000Y0323700D01*
X0143500Y0326900D01*
X0144100Y0327600D01*
X0144800Y0328300D01*
X0145600Y0329000D01*
X0146400Y0329700D01*
X0149800Y0327300D01*
X0150700Y0327700D01*
X0151500Y0328100D01*
X0152200Y0328300D01*
X0152900Y0328500D01*
X0153500Y0332600D01*
X0157300Y0332600D01*
X0158100Y0328500D01*
X0159200Y0328200D01*
X0160000Y0327800D01*
X0161200Y0327200D01*
X0164600Y0329600D01*
X0165300Y0329000D01*
X0166000Y0328300D01*
X0166700Y0327600D01*
X0167300Y0326900D01*
X0165000Y0323500D01*
X0165500Y0322600D01*
X0165900Y0321700D01*
X0166200Y0320900D01*
X0166500Y0320100D01*
X0170500Y0319500D01*
X0170600Y0318300D01*
X0170600Y0315700D01*
X0166400Y0315000D01*
X0166200Y0314000D01*
X0165800Y0313000D01*
X0165400Y0312100D01*
X0165000Y0311300D01*
X0167400Y0308100D01*
X0166800Y0307400D01*
X0166100Y0306700D01*
X0165400Y0306000D01*
X0164800Y0305500D01*
X0161400Y0307800D01*
X0160700Y0307400D01*
X0160000Y0307100D01*
X0159400Y0306800D01*
X0157000Y0313600D01*
X0157704Y0313936D01*
X0158332Y0314397D01*
X0158865Y0314967D01*
X0159282Y0315626D01*
X0159569Y0316351D01*
X0159717Y0317116D01*
X0159720Y0317896D01*
X0159578Y0318663D01*
X0159296Y0319390D01*
X0158884Y0320052D01*
X0158356Y0320626D01*
X0157731Y0321091D01*
X0157030Y0321433D01*
X0156277Y0321638D01*
X0155500Y0321700D01*
X0154709Y0321675D01*
X0153938Y0321502D01*
X0153212Y0321187D01*
X0152558Y0320742D01*
X0151999Y0320182D01*
X0151556Y0319528D01*
X0151242Y0318801D01*
X0151071Y0318029D01*
X0151047Y0317239D01*
X0151172Y0316458D01*
X0151441Y0315714D01*
X0151845Y0315034D01*
X0152369Y0314441D01*
X0152995Y0313958D01*
X0153700Y0313600D01*
X0151100Y0306900D01*
X0150400Y0307300D01*
X0149700Y0307700D01*
X0149000Y0308100D01*
X0145700Y0305700D01*
X0145655Y0305745D02*
X0145761Y0305745D01*
X0146034Y0305943D02*
X0145457Y0305943D01*
X0145258Y0306142D02*
X0146307Y0306142D01*
X0146580Y0306340D02*
X0145060Y0306340D01*
X0144861Y0306539D02*
X0146853Y0306539D01*
X0147126Y0306737D02*
X0144663Y0306737D01*
X0144464Y0306936D02*
X0147399Y0306936D01*
X0147672Y0307134D02*
X0144285Y0307134D01*
X0144115Y0307333D02*
X0147945Y0307333D01*
X0148218Y0307531D02*
X0143945Y0307531D01*
X0143774Y0307730D02*
X0148491Y0307730D01*
X0148764Y0307928D02*
X0143604Y0307928D01*
X0143434Y0308127D02*
X0151576Y0308127D01*
X0151653Y0308325D02*
X0143264Y0308325D01*
X0143283Y0308524D02*
X0151730Y0308524D01*
X0151807Y0308722D02*
X0143415Y0308722D01*
X0143547Y0308921D02*
X0151884Y0308921D01*
X0151961Y0309119D02*
X0143680Y0309119D01*
X0143812Y0309318D02*
X0152038Y0309318D01*
X0152115Y0309516D02*
X0143944Y0309516D01*
X0144077Y0309715D02*
X0152192Y0309715D01*
X0152269Y0309913D02*
X0144209Y0309913D01*
X0144341Y0310112D02*
X0152346Y0310112D01*
X0152423Y0310310D02*
X0144474Y0310310D01*
X0144606Y0310509D02*
X0152500Y0310509D01*
X0152578Y0310707D02*
X0144738Y0310707D01*
X0144871Y0310906D02*
X0152655Y0310906D01*
X0152732Y0311104D02*
X0145003Y0311104D01*
X0145135Y0311303D02*
X0152809Y0311303D01*
X0152886Y0311501D02*
X0145268Y0311501D01*
X0145400Y0311700D02*
X0152963Y0311700D01*
X0153040Y0311898D02*
X0145532Y0311898D01*
X0145539Y0312097D02*
X0153117Y0312097D01*
X0153194Y0312296D02*
X0145415Y0312296D01*
X0145291Y0312494D02*
X0153271Y0312494D01*
X0153348Y0312693D02*
X0145167Y0312693D01*
X0145070Y0312891D02*
X0153425Y0312891D01*
X0153502Y0313090D02*
X0145003Y0313090D01*
X0144937Y0313288D02*
X0153579Y0313288D01*
X0153656Y0313487D02*
X0144871Y0313487D01*
X0144805Y0313685D02*
X0153532Y0313685D01*
X0153141Y0313884D02*
X0144739Y0313884D01*
X0144673Y0314082D02*
X0152834Y0314082D01*
X0152577Y0314281D02*
X0144606Y0314281D01*
X0144540Y0314479D02*
X0152335Y0314479D01*
X0152160Y0314678D02*
X0144478Y0314678D01*
X0144421Y0314876D02*
X0151984Y0314876D01*
X0151820Y0315075D02*
X0144364Y0315075D01*
X0144308Y0315273D02*
X0151702Y0315273D01*
X0151585Y0315472D02*
X0143319Y0315472D01*
X0142184Y0315670D02*
X0151467Y0315670D01*
X0151385Y0315869D02*
X0141050Y0315869D01*
X0140294Y0316067D02*
X0151313Y0316067D01*
X0151241Y0316266D02*
X0140276Y0316266D01*
X0140258Y0316464D02*
X0151171Y0316464D01*
X0151139Y0316663D02*
X0140240Y0316663D01*
X0140222Y0316861D02*
X0151107Y0316861D01*
X0151076Y0317060D02*
X0140204Y0317060D01*
X0140200Y0317258D02*
X0151048Y0317258D01*
X0151053Y0317457D02*
X0140200Y0317457D01*
X0140200Y0317655D02*
X0151059Y0317655D01*
X0151065Y0317854D02*
X0140200Y0317854D01*
X0140207Y0318052D02*
X0151076Y0318052D01*
X0151120Y0318251D02*
X0140231Y0318251D01*
X0140256Y0318449D02*
X0151164Y0318449D01*
X0151208Y0318648D02*
X0140281Y0318648D01*
X0140305Y0318846D02*
X0151262Y0318846D01*
X0151347Y0319045D02*
X0140324Y0319045D01*
X0140344Y0319243D02*
X0151433Y0319243D01*
X0151519Y0319442D02*
X0140364Y0319442D01*
X0140384Y0319640D02*
X0151632Y0319640D01*
X0151767Y0319839D02*
X0140628Y0319839D01*
X0141791Y0320037D02*
X0151901Y0320037D01*
X0152053Y0320236D02*
X0142954Y0320236D01*
X0144116Y0320434D02*
X0152251Y0320434D01*
X0152449Y0320633D02*
X0144548Y0320633D01*
X0144621Y0320832D02*
X0152690Y0320832D01*
X0152981Y0321030D02*
X0144693Y0321030D01*
X0144765Y0321229D02*
X0153308Y0321229D01*
X0153765Y0321427D02*
X0144837Y0321427D01*
X0144909Y0321626D02*
X0154490Y0321626D01*
X0156323Y0321626D02*
X0165928Y0321626D01*
X0166002Y0321427D02*
X0157041Y0321427D01*
X0157449Y0321229D02*
X0166077Y0321229D01*
X0166151Y0321030D02*
X0157813Y0321030D01*
X0158079Y0320832D02*
X0166226Y0320832D01*
X0166300Y0320633D02*
X0158346Y0320633D01*
X0158532Y0320434D02*
X0166375Y0320434D01*
X0166449Y0320236D02*
X0158714Y0320236D01*
X0158893Y0320037D02*
X0166917Y0320037D01*
X0168240Y0319839D02*
X0159016Y0319839D01*
X0159140Y0319640D02*
X0169564Y0319640D01*
X0170505Y0319442D02*
X0159264Y0319442D01*
X0159353Y0319243D02*
X0170521Y0319243D01*
X0170538Y0319045D02*
X0159430Y0319045D01*
X0159507Y0318846D02*
X0170554Y0318846D01*
X0170571Y0318648D02*
X0159581Y0318648D01*
X0159617Y0318449D02*
X0170588Y0318449D01*
X0170600Y0318251D02*
X0159654Y0318251D01*
X0159691Y0318052D02*
X0170600Y0318052D01*
X0170600Y0317854D02*
X0159720Y0317854D01*
X0159719Y0317655D02*
X0170600Y0317655D01*
X0170600Y0317457D02*
X0159718Y0317457D01*
X0159718Y0317258D02*
X0170600Y0317258D01*
X0170600Y0317060D02*
X0159706Y0317060D01*
X0159668Y0316861D02*
X0170600Y0316861D01*
X0170600Y0316663D02*
X0159629Y0316663D01*
X0159591Y0316464D02*
X0170600Y0316464D01*
X0170600Y0316266D02*
X0159536Y0316266D01*
X0159457Y0316067D02*
X0170600Y0316067D01*
X0170600Y0315869D02*
X0159378Y0315869D01*
X0159299Y0315670D02*
X0170421Y0315670D01*
X0169230Y0315472D02*
X0159184Y0315472D01*
X0159058Y0315273D02*
X0168039Y0315273D01*
X0166848Y0315075D02*
X0158933Y0315075D01*
X0158780Y0314876D02*
X0166375Y0314876D01*
X0166336Y0314678D02*
X0158594Y0314678D01*
X0158409Y0314479D02*
X0166296Y0314479D01*
X0166256Y0314281D02*
X0158173Y0314281D01*
X0157903Y0314082D02*
X0166216Y0314082D01*
X0166153Y0313884D02*
X0157594Y0313884D01*
X0157178Y0313685D02*
X0166074Y0313685D01*
X0165995Y0313487D02*
X0157040Y0313487D01*
X0157110Y0313288D02*
X0165915Y0313288D01*
X0165836Y0313090D02*
X0157180Y0313090D01*
X0157250Y0312891D02*
X0165752Y0312891D01*
X0165663Y0312693D02*
X0157320Y0312693D01*
X0157390Y0312494D02*
X0165575Y0312494D01*
X0165487Y0312296D02*
X0157460Y0312296D01*
X0157530Y0312097D02*
X0165399Y0312097D01*
X0165299Y0311898D02*
X0157601Y0311898D01*
X0157671Y0311700D02*
X0165200Y0311700D01*
X0165101Y0311501D02*
X0157741Y0311501D01*
X0157811Y0311303D02*
X0165001Y0311303D01*
X0165147Y0311104D02*
X0157881Y0311104D01*
X0157951Y0310906D02*
X0165296Y0310906D01*
X0165444Y0310707D02*
X0158021Y0310707D01*
X0158091Y0310509D02*
X0165593Y0310509D01*
X0165742Y0310310D02*
X0158161Y0310310D01*
X0158231Y0310112D02*
X0165891Y0310112D01*
X0166040Y0309913D02*
X0158301Y0309913D01*
X0158371Y0309715D02*
X0166189Y0309715D01*
X0166338Y0309516D02*
X0158441Y0309516D01*
X0158511Y0309318D02*
X0166487Y0309318D01*
X0166635Y0309119D02*
X0158581Y0309119D01*
X0158651Y0308921D02*
X0166784Y0308921D01*
X0166933Y0308722D02*
X0158722Y0308722D01*
X0158792Y0308524D02*
X0167082Y0308524D01*
X0167231Y0308325D02*
X0158862Y0308325D01*
X0158932Y0308127D02*
X0167380Y0308127D01*
X0167253Y0307928D02*
X0159002Y0307928D01*
X0159072Y0307730D02*
X0161277Y0307730D01*
X0161504Y0307730D02*
X0167083Y0307730D01*
X0166913Y0307531D02*
X0161797Y0307531D01*
X0162091Y0307333D02*
X0166733Y0307333D01*
X0166534Y0307134D02*
X0162384Y0307134D01*
X0162678Y0306936D02*
X0166336Y0306936D01*
X0166137Y0306737D02*
X0162971Y0306737D01*
X0163265Y0306539D02*
X0165939Y0306539D01*
X0165740Y0306340D02*
X0163558Y0306340D01*
X0163851Y0306142D02*
X0165542Y0306142D01*
X0165332Y0305943D02*
X0164145Y0305943D01*
X0164438Y0305745D02*
X0165094Y0305745D01*
X0164855Y0305546D02*
X0164732Y0305546D01*
X0160930Y0307531D02*
X0159142Y0307531D01*
X0159212Y0307333D02*
X0160543Y0307333D01*
X0160080Y0307134D02*
X0159282Y0307134D01*
X0159352Y0306936D02*
X0159671Y0306936D01*
X0151499Y0307928D02*
X0149301Y0307928D01*
X0149648Y0307730D02*
X0151422Y0307730D01*
X0151345Y0307531D02*
X0149995Y0307531D01*
X0150343Y0307333D02*
X0151268Y0307333D01*
X0151191Y0307134D02*
X0150690Y0307134D01*
X0151038Y0306936D02*
X0151114Y0306936D01*
X0144975Y0321824D02*
X0165845Y0321824D01*
X0165757Y0322023D02*
X0145041Y0322023D01*
X0145112Y0322221D02*
X0165668Y0322221D01*
X0165580Y0322420D02*
X0145225Y0322420D01*
X0145339Y0322618D02*
X0165490Y0322618D01*
X0165380Y0322817D02*
X0145452Y0322817D01*
X0145572Y0323015D02*
X0165269Y0323015D01*
X0165159Y0323214D02*
X0145696Y0323214D01*
X0145820Y0323412D02*
X0165049Y0323412D01*
X0165075Y0323611D02*
X0145944Y0323611D01*
X0145915Y0323809D02*
X0165209Y0323809D01*
X0165343Y0324008D02*
X0145760Y0324008D01*
X0145605Y0324206D02*
X0165478Y0324206D01*
X0165612Y0324405D02*
X0145449Y0324405D01*
X0145294Y0324603D02*
X0165746Y0324603D01*
X0165881Y0324802D02*
X0145139Y0324802D01*
X0144984Y0325000D02*
X0166015Y0325000D01*
X0166149Y0325199D02*
X0144829Y0325199D01*
X0144674Y0325397D02*
X0166283Y0325397D01*
X0166418Y0325596D02*
X0144519Y0325596D01*
X0144364Y0325794D02*
X0166552Y0325794D01*
X0166686Y0325993D02*
X0144209Y0325993D01*
X0144054Y0326191D02*
X0166821Y0326191D01*
X0166955Y0326390D02*
X0143899Y0326390D01*
X0143743Y0326588D02*
X0167089Y0326588D01*
X0167223Y0326787D02*
X0143588Y0326787D01*
X0143573Y0326985D02*
X0167227Y0326985D01*
X0167057Y0327184D02*
X0143743Y0327184D01*
X0143913Y0327382D02*
X0149683Y0327382D01*
X0149985Y0327382D02*
X0160835Y0327382D01*
X0160438Y0327581D02*
X0150432Y0327581D01*
X0150859Y0327779D02*
X0160041Y0327779D01*
X0159644Y0327978D02*
X0151256Y0327978D01*
X0151767Y0328176D02*
X0159247Y0328176D01*
X0158559Y0328375D02*
X0152462Y0328375D01*
X0152911Y0328573D02*
X0158086Y0328573D01*
X0158047Y0328772D02*
X0152940Y0328772D01*
X0152969Y0328970D02*
X0158008Y0328970D01*
X0157969Y0329169D02*
X0152998Y0329169D01*
X0153027Y0329367D02*
X0157931Y0329367D01*
X0157892Y0329566D02*
X0153056Y0329566D01*
X0153085Y0329765D02*
X0157853Y0329765D01*
X0157815Y0329963D02*
X0153114Y0329963D01*
X0153143Y0330162D02*
X0157776Y0330162D01*
X0157737Y0330360D02*
X0153172Y0330360D01*
X0153201Y0330559D02*
X0157698Y0330559D01*
X0157660Y0330757D02*
X0153230Y0330757D01*
X0153259Y0330956D02*
X0157621Y0330956D01*
X0157582Y0331154D02*
X0153288Y0331154D01*
X0153317Y0331353D02*
X0157543Y0331353D01*
X0157505Y0331551D02*
X0153346Y0331551D01*
X0153376Y0331750D02*
X0157466Y0331750D01*
X0157427Y0331948D02*
X0153405Y0331948D01*
X0153434Y0332147D02*
X0157388Y0332147D01*
X0157350Y0332345D02*
X0153463Y0332345D01*
X0153492Y0332544D02*
X0157311Y0332544D01*
X0161458Y0327382D02*
X0166887Y0327382D01*
X0166716Y0327581D02*
X0161740Y0327581D01*
X0162021Y0327779D02*
X0166521Y0327779D01*
X0166322Y0327978D02*
X0162302Y0327978D01*
X0162583Y0328176D02*
X0166124Y0328176D01*
X0165925Y0328375D02*
X0162864Y0328375D01*
X0163146Y0328573D02*
X0165727Y0328573D01*
X0165528Y0328772D02*
X0163427Y0328772D01*
X0163708Y0328970D02*
X0165330Y0328970D01*
X0165103Y0329169D02*
X0163989Y0329169D01*
X0164271Y0329367D02*
X0164871Y0329367D01*
X0164640Y0329566D02*
X0164552Y0329566D01*
X0149402Y0327581D02*
X0144084Y0327581D01*
X0144279Y0327779D02*
X0149121Y0327779D01*
X0148840Y0327978D02*
X0144478Y0327978D01*
X0144676Y0328176D02*
X0148558Y0328176D01*
X0148277Y0328375D02*
X0144886Y0328375D01*
X0145113Y0328573D02*
X0147996Y0328573D01*
X0147715Y0328772D02*
X0145339Y0328772D01*
X0145566Y0328970D02*
X0147433Y0328970D01*
X0147152Y0329169D02*
X0145793Y0329169D01*
X0146020Y0329367D02*
X0146871Y0329367D01*
X0146590Y0329566D02*
X0146247Y0329566D01*
D20*
X0147143Y0301369D02*
X0147910Y0301369D01*
X0149445Y0299835D01*
X0149445Y0301369D02*
X0149445Y0298300D01*
X0150979Y0298300D02*
X0150979Y0301369D01*
X0150979Y0298300D02*
X0153281Y0298300D01*
X0154048Y0299067D01*
X0154048Y0301369D01*
X0155583Y0300602D02*
X0156350Y0301369D01*
X0157885Y0301369D01*
X0158652Y0300602D01*
X0158652Y0299067D01*
X0157885Y0298300D01*
X0156350Y0298300D01*
X0155583Y0299067D01*
X0155583Y0300602D01*
X0160187Y0301369D02*
X0162489Y0301369D01*
X0163256Y0300602D01*
X0162489Y0299835D01*
X0160954Y0299835D01*
X0160187Y0299067D01*
X0160954Y0298300D01*
X0163256Y0298300D01*
X0160954Y0295404D02*
X0160954Y0290800D01*
X0163256Y0290800D01*
X0164024Y0291567D01*
X0164024Y0293102D01*
X0163256Y0293869D01*
X0160954Y0293869D01*
X0159420Y0293869D02*
X0159420Y0291567D01*
X0158652Y0290800D01*
X0157885Y0291567D01*
X0157118Y0290800D01*
X0156350Y0291567D01*
X0156350Y0293869D01*
X0154048Y0293869D02*
X0152514Y0293869D01*
X0151747Y0293102D01*
X0151747Y0290800D01*
X0154048Y0290800D01*
X0154816Y0291567D01*
X0154048Y0292335D01*
X0151747Y0292335D01*
X0150212Y0292335D02*
X0148677Y0293869D01*
X0147910Y0293869D01*
X0146375Y0293102D02*
X0145608Y0293869D01*
X0144073Y0293869D01*
X0143306Y0293102D01*
X0143306Y0292335D01*
X0146375Y0292335D01*
X0146375Y0293102D02*
X0146375Y0291567D01*
X0145608Y0290800D01*
X0144073Y0290800D01*
X0150212Y0290800D02*
X0150212Y0293869D01*
X0145608Y0299067D02*
X0144841Y0298300D01*
X0142539Y0298300D01*
X0141004Y0299067D02*
X0141004Y0300602D01*
X0140237Y0301369D01*
X0138702Y0301369D01*
X0137935Y0300602D01*
X0137935Y0299835D01*
X0141004Y0299835D01*
X0141004Y0299067D02*
X0140237Y0298300D01*
X0138702Y0298300D01*
X0142539Y0301369D02*
X0144841Y0301369D01*
X0145608Y0300602D01*
X0145608Y0299067D01*
X0165558Y0293869D02*
X0166326Y0293869D01*
X0167860Y0292335D01*
X0167860Y0293869D02*
X0167860Y0290800D01*
X0169395Y0290800D02*
X0171697Y0290800D01*
X0172464Y0291567D01*
X0171697Y0292335D01*
X0169395Y0292335D01*
X0169395Y0293102D02*
X0169395Y0290800D01*
X0169395Y0293102D02*
X0170162Y0293869D01*
X0171697Y0293869D01*
X0173999Y0293102D02*
X0174766Y0293869D01*
X0176301Y0293869D01*
X0177068Y0293102D01*
X0177068Y0295404D02*
X0177068Y0290800D01*
X0173999Y0290800D02*
X0173999Y0293102D01*
X0181672Y0296765D02*
X0181672Y0301369D01*
X0179370Y0301369D01*
X0178603Y0300602D01*
X0178603Y0299067D01*
X0179370Y0298300D01*
X0181672Y0298300D01*
X0183207Y0299067D02*
X0183207Y0300602D01*
X0183974Y0301369D01*
X0185509Y0301369D01*
X0186276Y0300602D01*
X0186276Y0299067D01*
X0185509Y0298300D01*
X0183974Y0298300D01*
X0183207Y0299067D01*
X0177068Y0299067D02*
X0177068Y0300602D01*
X0176301Y0301369D01*
X0174766Y0301369D01*
X0173999Y0300602D01*
X0173999Y0299835D01*
X0177068Y0299835D01*
X0177068Y0299067D02*
X0176301Y0298300D01*
X0174766Y0298300D01*
X0172464Y0298300D02*
X0172464Y0301369D01*
X0170162Y0301369D01*
X0169395Y0300602D01*
X0169395Y0298300D01*
M02*
