G75*
%MOIN*%
%OFA0B0*%
%FSLAX25Y25*%
%IPPOS*%
%LPD*%
%AMOC8*
5,1,8,0,0,1.08239X$1,22.5*
%
%ADD10C,0.00000*%
%ADD11C,0.00700*%
%ADD12C,0.01000*%
%ADD13C,0.00900*%
%ADD14C,0.01200*%
%ADD15C,0.00500*%
%ADD16R,0.02000X0.02000*%
%ADD17C,0.00800*%
%ADD18C,0.02000*%
%ADD19C,0.03162*%
%ADD20C,0.00600*%
%ADD21C,0.01100*%
%ADD22C,0.00787*%
%ADD23C,0.02236*%
%ADD24C,0.00200*%
D10*
X0005000Y0005000D02*
X0060118Y0005000D01*
X0355394Y0005000D01*
X0355394Y0355394D01*
X0060118Y0355394D01*
X0005000Y0355394D01*
X0005000Y0005000D01*
D11*
X0015067Y0056523D02*
X0016502Y0056523D01*
X0017219Y0057241D01*
X0018954Y0056523D02*
X0018954Y0060827D01*
X0021823Y0056523D01*
X0021823Y0060827D01*
X0023558Y0060827D02*
X0023558Y0060110D01*
X0024992Y0058675D01*
X0024992Y0056523D01*
X0024992Y0058675D02*
X0026427Y0060110D01*
X0026427Y0060827D01*
X0028162Y0059392D02*
X0029596Y0060827D01*
X0029596Y0056523D01*
X0028162Y0056523D02*
X0031031Y0056523D01*
X0017219Y0060110D02*
X0016502Y0060827D01*
X0015067Y0060827D01*
X0014350Y0060110D01*
X0014350Y0057241D01*
X0015067Y0056523D01*
X0067850Y0058760D02*
X0068567Y0058043D01*
X0069285Y0058043D01*
X0070002Y0058760D01*
X0070002Y0062347D01*
X0069285Y0062347D02*
X0070719Y0062347D01*
X0072454Y0062347D02*
X0073888Y0060912D01*
X0075323Y0062347D01*
X0075323Y0058043D01*
X0077058Y0058043D02*
X0077058Y0062347D01*
X0079210Y0062347D01*
X0079927Y0061629D01*
X0079927Y0060195D01*
X0079210Y0059477D01*
X0077058Y0059477D01*
X0081662Y0058043D02*
X0084531Y0058043D01*
X0083096Y0058043D02*
X0083096Y0062347D01*
X0081662Y0060912D01*
X0072454Y0062347D02*
X0072454Y0058043D01*
X0105850Y0057654D02*
X0107285Y0057654D01*
X0106567Y0057654D02*
X0106567Y0053350D01*
X0105850Y0053350D02*
X0107285Y0053350D01*
X0108919Y0054067D02*
X0108919Y0056936D01*
X0109637Y0057654D01*
X0111071Y0057654D01*
X0111788Y0056936D01*
X0113523Y0056936D02*
X0113523Y0056219D01*
X0114240Y0055502D01*
X0116392Y0055502D01*
X0116392Y0056936D02*
X0115675Y0057654D01*
X0114240Y0057654D01*
X0113523Y0056936D01*
X0113523Y0054067D02*
X0114240Y0053350D01*
X0115675Y0053350D01*
X0116392Y0054067D01*
X0116392Y0056936D01*
X0111788Y0054067D02*
X0111071Y0053350D01*
X0109637Y0053350D01*
X0108919Y0054067D01*
X0154404Y0078067D02*
X0157273Y0078067D01*
X0159007Y0078067D02*
X0161877Y0078067D01*
X0160442Y0078067D02*
X0160442Y0082370D01*
X0159007Y0080936D01*
X0154404Y0082370D02*
X0154404Y0078067D01*
X0178850Y0073154D02*
X0180285Y0073154D01*
X0179567Y0073154D02*
X0179567Y0068850D01*
X0178850Y0068850D02*
X0180285Y0068850D01*
X0181919Y0069567D02*
X0182637Y0068850D01*
X0184071Y0068850D01*
X0184788Y0069567D01*
X0186523Y0068850D02*
X0189392Y0068850D01*
X0187958Y0068850D02*
X0187958Y0073154D01*
X0186523Y0071719D01*
X0184788Y0072436D02*
X0184071Y0073154D01*
X0182637Y0073154D01*
X0181919Y0072436D01*
X0181919Y0069567D01*
X0191127Y0068850D02*
X0193996Y0068850D01*
X0192562Y0068850D02*
X0192562Y0073154D01*
X0191127Y0071719D01*
X0225350Y0070654D02*
X0225350Y0066350D01*
X0225350Y0067785D02*
X0227502Y0067785D01*
X0228219Y0068502D01*
X0228219Y0069936D01*
X0227502Y0070654D01*
X0225350Y0070654D01*
X0226785Y0067785D02*
X0228219Y0066350D01*
X0229954Y0066350D02*
X0232823Y0069219D01*
X0232823Y0069936D01*
X0232106Y0070654D01*
X0230671Y0070654D01*
X0229954Y0069936D01*
X0229954Y0066350D02*
X0232823Y0066350D01*
X0234558Y0066350D02*
X0237427Y0066350D01*
X0235992Y0066350D02*
X0235992Y0070654D01*
X0234558Y0069219D01*
X0235275Y0060154D02*
X0236710Y0060154D01*
X0237427Y0059436D01*
X0234558Y0056567D01*
X0235275Y0055850D01*
X0236710Y0055850D01*
X0237427Y0056567D01*
X0237427Y0059436D01*
X0235275Y0060154D02*
X0234558Y0059436D01*
X0234558Y0056567D01*
X0232823Y0055850D02*
X0229954Y0055850D01*
X0232823Y0058719D01*
X0232823Y0059436D01*
X0232106Y0060154D01*
X0230671Y0060154D01*
X0229954Y0059436D01*
X0228219Y0059436D02*
X0228219Y0058002D01*
X0227502Y0057285D01*
X0225350Y0057285D01*
X0226785Y0057285D02*
X0228219Y0055850D01*
X0225350Y0055850D02*
X0225350Y0060154D01*
X0227502Y0060154D01*
X0228219Y0059436D01*
X0227502Y0049654D02*
X0226067Y0049654D01*
X0225350Y0048936D01*
X0225350Y0046067D01*
X0226067Y0045350D01*
X0227502Y0045350D01*
X0228219Y0046067D01*
X0229954Y0045350D02*
X0232823Y0045350D01*
X0231388Y0045350D02*
X0231388Y0049654D01*
X0229954Y0048219D01*
X0228219Y0048936D02*
X0227502Y0049654D01*
X0234558Y0048936D02*
X0234558Y0048219D01*
X0235275Y0047502D01*
X0237427Y0047502D01*
X0237427Y0048936D02*
X0237427Y0046067D01*
X0236710Y0045350D01*
X0235275Y0045350D01*
X0234558Y0046067D01*
X0234558Y0048936D02*
X0235275Y0049654D01*
X0236710Y0049654D01*
X0237427Y0048936D01*
X0209427Y0025654D02*
X0206558Y0025654D01*
X0206558Y0023502D01*
X0207992Y0024219D01*
X0208710Y0024219D01*
X0209427Y0023502D01*
X0209427Y0022067D01*
X0208710Y0021350D01*
X0207275Y0021350D01*
X0206558Y0022067D01*
X0204823Y0021350D02*
X0201954Y0021350D01*
X0203388Y0021350D02*
X0203388Y0025654D01*
X0201954Y0024219D01*
X0200219Y0024936D02*
X0199502Y0025654D01*
X0198067Y0025654D01*
X0197350Y0024936D01*
X0197350Y0022067D01*
X0198067Y0021350D01*
X0199502Y0021350D01*
X0200219Y0022067D01*
X0190973Y0019477D02*
X0189539Y0018759D01*
X0188104Y0017325D01*
X0190256Y0017325D01*
X0190973Y0016607D01*
X0190973Y0015890D01*
X0190256Y0015173D01*
X0188822Y0015173D01*
X0188104Y0015890D01*
X0188104Y0017325D01*
X0186370Y0015173D02*
X0183500Y0015173D01*
X0184935Y0015173D02*
X0184935Y0019477D01*
X0183500Y0018042D01*
X0181766Y0018759D02*
X0181048Y0019477D01*
X0179614Y0019477D01*
X0178896Y0018759D01*
X0178896Y0015890D01*
X0179614Y0015173D01*
X0181048Y0015173D01*
X0181766Y0015890D01*
X0254992Y0016244D02*
X0255709Y0015527D01*
X0257144Y0015527D01*
X0257861Y0016244D01*
X0259596Y0015527D02*
X0262465Y0018396D01*
X0262465Y0019114D01*
X0261747Y0019831D01*
X0260313Y0019831D01*
X0259596Y0019114D01*
X0257861Y0019114D02*
X0257144Y0019831D01*
X0255709Y0019831D01*
X0254992Y0019114D01*
X0254992Y0016244D01*
X0259596Y0015527D02*
X0262465Y0015527D01*
X0271350Y0016067D02*
X0272067Y0015350D01*
X0273502Y0015350D01*
X0274219Y0016067D01*
X0275954Y0016067D02*
X0276671Y0015350D01*
X0278106Y0015350D01*
X0278823Y0016067D01*
X0278823Y0016785D01*
X0278106Y0017502D01*
X0277388Y0017502D01*
X0278106Y0017502D02*
X0278823Y0018219D01*
X0278823Y0018936D01*
X0278106Y0019654D01*
X0276671Y0019654D01*
X0275954Y0018936D01*
X0274219Y0018936D02*
X0273502Y0019654D01*
X0272067Y0019654D01*
X0271350Y0018936D01*
X0271350Y0016067D01*
X0284913Y0015224D02*
X0286348Y0015224D01*
X0285630Y0015224D02*
X0285630Y0019528D01*
X0284913Y0019528D02*
X0286348Y0019528D01*
X0287982Y0018810D02*
X0287982Y0015941D01*
X0288700Y0015224D01*
X0290134Y0015224D01*
X0290851Y0015941D01*
X0292586Y0015941D02*
X0295455Y0018810D01*
X0295455Y0019528D01*
X0292586Y0019528D01*
X0290851Y0018810D02*
X0290134Y0019528D01*
X0288700Y0019528D01*
X0287982Y0018810D01*
X0292586Y0015941D02*
X0292586Y0015224D01*
X0301350Y0015567D02*
X0301350Y0018436D01*
X0302067Y0019154D01*
X0303502Y0019154D01*
X0304219Y0018436D01*
X0305954Y0017002D02*
X0308823Y0017002D01*
X0308106Y0019154D02*
X0305954Y0017002D01*
X0304219Y0015567D02*
X0303502Y0014850D01*
X0302067Y0014850D01*
X0301350Y0015567D01*
X0308106Y0014850D02*
X0308106Y0019154D01*
X0311850Y0018654D02*
X0314002Y0018654D01*
X0314719Y0017936D01*
X0314719Y0016502D01*
X0314002Y0015785D01*
X0311850Y0015785D01*
X0313285Y0015785D02*
X0314719Y0014350D01*
X0316454Y0014350D02*
X0319323Y0014350D01*
X0317888Y0014350D02*
X0317888Y0018654D01*
X0316454Y0017219D01*
X0311850Y0018654D02*
X0311850Y0014350D01*
X0322350Y0014850D02*
X0322350Y0019154D01*
X0324502Y0019154D01*
X0325219Y0018436D01*
X0325219Y0017002D01*
X0324502Y0016285D01*
X0322350Y0016285D01*
X0323785Y0016285D02*
X0325219Y0014850D01*
X0326954Y0014850D02*
X0329823Y0017719D01*
X0329823Y0018436D01*
X0329106Y0019154D01*
X0327671Y0019154D01*
X0326954Y0018436D01*
X0326954Y0014850D02*
X0329823Y0014850D01*
X0331709Y0089527D02*
X0333144Y0089527D01*
X0333861Y0090244D01*
X0335596Y0090244D02*
X0336313Y0089527D01*
X0337747Y0089527D01*
X0338465Y0090244D01*
X0338465Y0091679D01*
X0337747Y0092396D01*
X0337030Y0092396D01*
X0335596Y0091679D01*
X0335596Y0093831D01*
X0338465Y0093831D01*
X0333861Y0093114D02*
X0333144Y0093831D01*
X0331709Y0093831D01*
X0330992Y0093114D01*
X0330992Y0090244D01*
X0331709Y0089527D01*
X0323106Y0101850D02*
X0321671Y0101850D01*
X0320954Y0102567D01*
X0320954Y0103285D01*
X0321671Y0104002D01*
X0323106Y0104002D01*
X0323823Y0103285D01*
X0323823Y0102567D01*
X0323106Y0101850D01*
X0323106Y0104002D02*
X0323823Y0104719D01*
X0323823Y0105436D01*
X0323106Y0106154D01*
X0321671Y0106154D01*
X0320954Y0105436D01*
X0320954Y0104719D01*
X0321671Y0104002D01*
X0319219Y0105436D02*
X0318502Y0106154D01*
X0317067Y0106154D01*
X0316350Y0105436D01*
X0316350Y0102567D01*
X0317067Y0101850D01*
X0318502Y0101850D01*
X0319219Y0102567D01*
X0304250Y0092336D02*
X0304250Y0091619D01*
X0301381Y0088750D01*
X0304250Y0088750D01*
X0304250Y0092336D02*
X0303533Y0093054D01*
X0302098Y0093054D01*
X0301381Y0092336D01*
X0299646Y0088750D02*
X0296777Y0088750D01*
X0296777Y0093054D01*
X0268465Y0093831D02*
X0267030Y0093114D01*
X0265596Y0091679D01*
X0267747Y0091679D01*
X0268465Y0090962D01*
X0268465Y0090244D01*
X0267747Y0089527D01*
X0266313Y0089527D01*
X0265596Y0090244D01*
X0265596Y0091679D01*
X0263861Y0090244D02*
X0263144Y0089527D01*
X0261709Y0089527D01*
X0260992Y0090244D01*
X0260992Y0093114D01*
X0261709Y0093831D01*
X0263144Y0093831D01*
X0263861Y0093114D01*
X0231569Y0106244D02*
X0231569Y0106962D01*
X0230851Y0107679D01*
X0229417Y0107679D01*
X0228700Y0108396D01*
X0228700Y0109114D01*
X0229417Y0109831D01*
X0230851Y0109831D01*
X0231569Y0109114D01*
X0231569Y0108396D01*
X0230851Y0107679D01*
X0229417Y0107679D02*
X0228700Y0106962D01*
X0228700Y0106244D01*
X0229417Y0105527D01*
X0230851Y0105527D01*
X0231569Y0106244D01*
X0226965Y0105527D02*
X0224096Y0105527D01*
X0225530Y0105527D02*
X0225530Y0109831D01*
X0224096Y0108396D01*
X0222361Y0109114D02*
X0221644Y0109831D01*
X0220209Y0109831D01*
X0219492Y0109114D01*
X0219492Y0106244D01*
X0220209Y0105527D01*
X0221644Y0105527D01*
X0222361Y0106244D01*
X0212069Y0109114D02*
X0209200Y0106244D01*
X0209200Y0105527D01*
X0207465Y0105527D02*
X0204596Y0105527D01*
X0206030Y0105527D02*
X0206030Y0109831D01*
X0204596Y0108396D01*
X0202861Y0109114D02*
X0202144Y0109831D01*
X0200709Y0109831D01*
X0199992Y0109114D01*
X0199992Y0106244D01*
X0200709Y0105527D01*
X0202144Y0105527D01*
X0202861Y0106244D01*
X0209200Y0109831D02*
X0212069Y0109831D01*
X0212069Y0109114D01*
X0191069Y0109114D02*
X0191069Y0106244D01*
X0190351Y0105527D01*
X0188917Y0105527D01*
X0188200Y0106244D01*
X0191069Y0109114D01*
X0190351Y0109831D01*
X0188917Y0109831D01*
X0188200Y0109114D01*
X0188200Y0106244D01*
X0186465Y0105527D02*
X0183596Y0105527D01*
X0185030Y0105527D02*
X0185030Y0109831D01*
X0183596Y0108396D01*
X0181861Y0109114D02*
X0181144Y0109831D01*
X0179709Y0109831D01*
X0178992Y0109114D01*
X0178992Y0106244D01*
X0179709Y0105527D01*
X0181144Y0105527D01*
X0181861Y0106244D01*
X0171427Y0106067D02*
X0171427Y0108936D01*
X0168558Y0106067D01*
X0169275Y0105350D01*
X0170710Y0105350D01*
X0171427Y0106067D01*
X0168558Y0106067D02*
X0168558Y0108936D01*
X0169275Y0109654D01*
X0170710Y0109654D01*
X0171427Y0108936D01*
X0166823Y0108936D02*
X0166106Y0109654D01*
X0164671Y0109654D01*
X0163954Y0108936D01*
X0162219Y0108936D02*
X0161502Y0109654D01*
X0160067Y0109654D01*
X0159350Y0108936D01*
X0159350Y0106067D01*
X0160067Y0105350D01*
X0161502Y0105350D01*
X0162219Y0106067D01*
X0163954Y0105350D02*
X0166823Y0108219D01*
X0166823Y0108936D01*
X0166823Y0105350D02*
X0163954Y0105350D01*
X0163106Y0124850D02*
X0160954Y0124850D01*
X0160954Y0129154D01*
X0163106Y0129154D01*
X0163823Y0128436D01*
X0163823Y0125567D01*
X0163106Y0124850D01*
X0159219Y0127002D02*
X0159219Y0128436D01*
X0158502Y0129154D01*
X0156350Y0129154D01*
X0156350Y0124850D01*
X0156350Y0126285D02*
X0158502Y0126285D01*
X0159219Y0127002D01*
X0170162Y0128436D02*
X0170879Y0129154D01*
X0172314Y0129154D01*
X0173031Y0128436D01*
X0173031Y0127719D01*
X0170162Y0124850D01*
X0173031Y0124850D01*
X0174766Y0125567D02*
X0177635Y0128436D01*
X0177635Y0125567D01*
X0176918Y0124850D01*
X0175483Y0124850D01*
X0174766Y0125567D01*
X0174766Y0128436D01*
X0175483Y0129154D01*
X0176918Y0129154D01*
X0177635Y0128436D01*
X0179370Y0127719D02*
X0180804Y0129154D01*
X0180804Y0124850D01*
X0179370Y0124850D02*
X0182239Y0124850D01*
X0183974Y0125567D02*
X0184691Y0124850D01*
X0186125Y0124850D01*
X0186843Y0125567D01*
X0186843Y0128436D01*
X0186125Y0129154D01*
X0184691Y0129154D01*
X0183974Y0128436D01*
X0183974Y0127719D01*
X0184691Y0127002D01*
X0186843Y0127002D01*
X0143135Y0134350D02*
X0143135Y0137219D01*
X0141700Y0138654D01*
X0140266Y0137219D01*
X0140266Y0134350D01*
X0138531Y0135067D02*
X0138531Y0137936D01*
X0137814Y0138654D01*
X0135662Y0138654D01*
X0135662Y0134350D01*
X0137814Y0134350D01*
X0138531Y0135067D01*
X0140266Y0136502D02*
X0143135Y0136502D01*
X0143135Y0141850D02*
X0140266Y0141850D01*
X0140266Y0146154D01*
X0138531Y0145436D02*
X0137814Y0146154D01*
X0136379Y0146154D01*
X0135662Y0145436D01*
X0135662Y0142567D01*
X0136379Y0141850D01*
X0137814Y0141850D01*
X0138531Y0142567D01*
X0133927Y0142567D02*
X0133927Y0143285D01*
X0133210Y0144002D01*
X0131775Y0144002D01*
X0131058Y0144719D01*
X0131058Y0145436D01*
X0131775Y0146154D01*
X0133210Y0146154D01*
X0133927Y0145436D01*
X0133927Y0142567D02*
X0133210Y0141850D01*
X0131775Y0141850D01*
X0131058Y0142567D01*
X0131775Y0138654D02*
X0131058Y0137936D01*
X0131058Y0137219D01*
X0131775Y0136502D01*
X0133210Y0136502D01*
X0133927Y0135785D01*
X0133927Y0135067D01*
X0133210Y0134350D01*
X0131775Y0134350D01*
X0131058Y0135067D01*
X0131775Y0138654D02*
X0133210Y0138654D01*
X0133927Y0137936D01*
X0124719Y0136502D02*
X0121850Y0136502D01*
X0124002Y0138654D01*
X0124002Y0134350D01*
X0124002Y0141850D02*
X0122567Y0141850D01*
X0121850Y0142567D01*
X0123285Y0144002D02*
X0124002Y0144002D01*
X0124719Y0143285D01*
X0124719Y0142567D01*
X0124002Y0141850D01*
X0124002Y0144002D02*
X0124719Y0144719D01*
X0124719Y0145436D01*
X0124002Y0146154D01*
X0122567Y0146154D01*
X0121850Y0145436D01*
X0121850Y0149350D02*
X0124719Y0152219D01*
X0124719Y0152936D01*
X0124002Y0153654D01*
X0122567Y0153654D01*
X0121850Y0152936D01*
X0121850Y0149350D02*
X0124719Y0149350D01*
X0131058Y0150067D02*
X0131058Y0152936D01*
X0131775Y0153654D01*
X0133210Y0153654D01*
X0133927Y0152936D01*
X0133927Y0151502D02*
X0132492Y0151502D01*
X0133927Y0151502D02*
X0133927Y0150067D01*
X0133210Y0149350D01*
X0131775Y0149350D01*
X0131058Y0150067D01*
X0135662Y0149350D02*
X0135662Y0153654D01*
X0138531Y0149350D01*
X0138531Y0153654D01*
X0140266Y0153654D02*
X0142418Y0153654D01*
X0143135Y0152936D01*
X0143135Y0150067D01*
X0142418Y0149350D01*
X0140266Y0149350D01*
X0140266Y0153654D01*
X0141700Y0156850D02*
X0143135Y0158285D01*
X0143135Y0161154D01*
X0144870Y0160436D02*
X0145587Y0161154D01*
X0147021Y0161154D01*
X0147739Y0160436D01*
X0147739Y0159719D01*
X0147021Y0159002D01*
X0147739Y0158285D01*
X0147739Y0157567D01*
X0147021Y0156850D01*
X0145587Y0156850D01*
X0144870Y0157567D01*
X0146304Y0159002D02*
X0147021Y0159002D01*
X0141700Y0156850D02*
X0140266Y0158285D01*
X0140266Y0161154D01*
X0138531Y0160436D02*
X0138531Y0159719D01*
X0137814Y0159002D01*
X0138531Y0158285D01*
X0138531Y0157567D01*
X0137814Y0156850D01*
X0136379Y0156850D01*
X0135662Y0157567D01*
X0137096Y0159002D02*
X0137814Y0159002D01*
X0138531Y0160436D02*
X0137814Y0161154D01*
X0136379Y0161154D01*
X0135662Y0160436D01*
X0133927Y0159002D02*
X0131058Y0159002D01*
X0132492Y0160436D02*
X0132492Y0157567D01*
X0124719Y0156850D02*
X0121850Y0156850D01*
X0123285Y0156850D02*
X0123285Y0161154D01*
X0121850Y0159719D01*
X0111912Y0159936D02*
X0111195Y0160654D01*
X0109760Y0160654D01*
X0109043Y0159936D01*
X0109043Y0157067D01*
X0109760Y0156350D01*
X0111195Y0156350D01*
X0111912Y0157067D01*
X0107308Y0156350D02*
X0104439Y0156350D01*
X0107308Y0159219D01*
X0107308Y0159936D01*
X0106591Y0160654D01*
X0105156Y0160654D01*
X0104439Y0159936D01*
X0102804Y0160654D02*
X0101370Y0160654D01*
X0102087Y0160654D02*
X0102087Y0156350D01*
X0101370Y0156350D02*
X0102804Y0156350D01*
X0099635Y0155633D02*
X0096766Y0155633D01*
X0094314Y0157785D02*
X0092162Y0157785D01*
X0092162Y0156350D02*
X0092162Y0160654D01*
X0094314Y0160654D01*
X0095031Y0159936D01*
X0095031Y0158502D01*
X0094314Y0157785D01*
X0090427Y0157785D02*
X0090427Y0157067D01*
X0089710Y0156350D01*
X0088275Y0156350D01*
X0087558Y0157067D01*
X0088275Y0158502D02*
X0087558Y0159219D01*
X0087558Y0159936D01*
X0088275Y0160654D01*
X0089710Y0160654D01*
X0090427Y0159936D01*
X0089710Y0158502D02*
X0090427Y0157785D01*
X0089710Y0158502D02*
X0088275Y0158502D01*
X0085823Y0158502D02*
X0082954Y0158502D01*
X0082954Y0159219D02*
X0084388Y0160654D01*
X0085823Y0159219D01*
X0085823Y0156350D01*
X0082954Y0156350D02*
X0082954Y0159219D01*
X0081219Y0158502D02*
X0080502Y0157785D01*
X0078350Y0157785D01*
X0079785Y0157785D02*
X0081219Y0156350D01*
X0081219Y0158502D02*
X0081219Y0159936D01*
X0080502Y0160654D01*
X0078350Y0160654D01*
X0078350Y0156350D01*
X0104366Y0138138D02*
X0105800Y0138138D01*
X0105083Y0138138D02*
X0105083Y0133834D01*
X0104366Y0133834D02*
X0105800Y0133834D01*
X0107435Y0134552D02*
X0108152Y0133834D01*
X0109587Y0133834D01*
X0110304Y0134552D01*
X0112039Y0134552D02*
X0112756Y0133834D01*
X0114191Y0133834D01*
X0114908Y0134552D01*
X0114908Y0135269D01*
X0114191Y0135986D01*
X0113473Y0135986D01*
X0114191Y0135986D02*
X0114908Y0136703D01*
X0114908Y0137421D01*
X0114191Y0138138D01*
X0112756Y0138138D01*
X0112039Y0137421D01*
X0110304Y0137421D02*
X0109587Y0138138D01*
X0108152Y0138138D01*
X0107435Y0137421D01*
X0107435Y0134552D01*
X0080650Y0183038D02*
X0076346Y0183038D01*
X0076346Y0185190D01*
X0077064Y0185907D01*
X0078498Y0185907D01*
X0079215Y0185190D01*
X0079215Y0183038D01*
X0079215Y0184473D02*
X0080650Y0185907D01*
X0080650Y0187642D02*
X0080650Y0190511D01*
X0080650Y0189077D02*
X0076346Y0189077D01*
X0077781Y0187642D01*
X0078498Y0192246D02*
X0078498Y0195115D01*
X0076346Y0194398D02*
X0078498Y0192246D01*
X0080650Y0194398D02*
X0076346Y0194398D01*
X0076346Y0198038D02*
X0076346Y0200190D01*
X0077064Y0200907D01*
X0078498Y0200907D01*
X0079215Y0200190D01*
X0079215Y0198038D01*
X0079215Y0199473D02*
X0080650Y0200907D01*
X0080650Y0202642D02*
X0080650Y0205511D01*
X0080650Y0204077D02*
X0076346Y0204077D01*
X0077781Y0202642D01*
X0077064Y0207246D02*
X0076346Y0207963D01*
X0076346Y0209398D01*
X0077064Y0210115D01*
X0077781Y0210115D01*
X0078498Y0209398D01*
X0079215Y0210115D01*
X0079933Y0210115D01*
X0080650Y0209398D01*
X0080650Y0207963D01*
X0079933Y0207246D01*
X0078498Y0208681D02*
X0078498Y0209398D01*
X0080650Y0198038D02*
X0076346Y0198038D01*
X0077162Y0223850D02*
X0080031Y0226719D01*
X0080031Y0227436D01*
X0079314Y0228154D01*
X0077879Y0228154D01*
X0077162Y0227436D01*
X0075427Y0227436D02*
X0075427Y0226002D01*
X0074710Y0225285D01*
X0072558Y0225285D01*
X0072558Y0223850D02*
X0072558Y0228154D01*
X0074710Y0228154D01*
X0075427Y0227436D01*
X0077162Y0223850D02*
X0080031Y0223850D01*
X0070823Y0223850D02*
X0070823Y0228154D01*
X0069388Y0226719D01*
X0067954Y0228154D01*
X0067954Y0223850D01*
X0065502Y0224567D02*
X0065502Y0228154D01*
X0064785Y0228154D02*
X0066219Y0228154D01*
X0065502Y0224567D02*
X0064785Y0223850D01*
X0064067Y0223850D01*
X0063350Y0224567D01*
X0081350Y0231350D02*
X0081350Y0235654D01*
X0083502Y0235654D01*
X0084219Y0234936D01*
X0084219Y0233502D01*
X0083502Y0232785D01*
X0081350Y0232785D01*
X0082785Y0232785D02*
X0084219Y0231350D01*
X0085954Y0231350D02*
X0088823Y0231350D01*
X0087388Y0231350D02*
X0087388Y0235654D01*
X0085954Y0234219D01*
X0090558Y0233502D02*
X0090558Y0235654D01*
X0093427Y0235654D01*
X0092710Y0234219D02*
X0093427Y0233502D01*
X0093427Y0232067D01*
X0092710Y0231350D01*
X0091275Y0231350D01*
X0090558Y0232067D01*
X0090558Y0233502D02*
X0091992Y0234219D01*
X0092710Y0234219D01*
X0093427Y0239350D02*
X0090558Y0239350D01*
X0093427Y0242219D01*
X0093427Y0242936D01*
X0092710Y0243654D01*
X0091275Y0243654D01*
X0090558Y0242936D01*
X0087388Y0243654D02*
X0087388Y0239350D01*
X0085954Y0239350D02*
X0088823Y0239350D01*
X0085954Y0242219D02*
X0087388Y0243654D01*
X0084219Y0242936D02*
X0084219Y0241502D01*
X0083502Y0240785D01*
X0081350Y0240785D01*
X0082785Y0240785D02*
X0084219Y0239350D01*
X0081350Y0239350D02*
X0081350Y0243654D01*
X0083502Y0243654D01*
X0084219Y0242936D01*
X0080650Y0249038D02*
X0076346Y0249038D01*
X0076346Y0251190D01*
X0077064Y0251907D01*
X0078498Y0251907D01*
X0079215Y0251190D01*
X0079215Y0249038D01*
X0079215Y0250473D02*
X0080650Y0251907D01*
X0080650Y0253642D02*
X0080650Y0256511D01*
X0080650Y0255077D02*
X0076346Y0255077D01*
X0077781Y0253642D01*
X0077781Y0258246D02*
X0076346Y0259681D01*
X0080650Y0259681D01*
X0080650Y0261115D02*
X0080650Y0258246D01*
X0104866Y0233138D02*
X0106300Y0233138D01*
X0105583Y0233138D02*
X0105583Y0228834D01*
X0104866Y0228834D02*
X0106300Y0228834D01*
X0107935Y0229552D02*
X0108652Y0228834D01*
X0110087Y0228834D01*
X0110804Y0229552D01*
X0112539Y0228834D02*
X0115408Y0231703D01*
X0115408Y0232421D01*
X0114691Y0233138D01*
X0113256Y0233138D01*
X0112539Y0232421D01*
X0110804Y0232421D02*
X0110087Y0233138D01*
X0108652Y0233138D01*
X0107935Y0232421D01*
X0107935Y0229552D01*
X0112539Y0228834D02*
X0115408Y0228834D01*
X0163246Y0262350D02*
X0166115Y0262350D01*
X0164681Y0262350D02*
X0164681Y0266654D01*
X0163246Y0265219D01*
X0152531Y0267567D02*
X0151814Y0266850D01*
X0150379Y0266850D01*
X0149662Y0267567D01*
X0151096Y0269002D02*
X0151814Y0269002D01*
X0152531Y0268285D01*
X0152531Y0267567D01*
X0151814Y0269002D02*
X0152531Y0269719D01*
X0152531Y0270436D01*
X0151814Y0271154D01*
X0150379Y0271154D01*
X0149662Y0270436D01*
X0147927Y0270436D02*
X0147927Y0269002D01*
X0147210Y0268285D01*
X0145058Y0268285D01*
X0145058Y0266850D02*
X0145058Y0271154D01*
X0147210Y0271154D01*
X0147927Y0270436D01*
X0143323Y0271154D02*
X0143323Y0266850D01*
X0140454Y0266850D02*
X0140454Y0271154D01*
X0141888Y0269719D01*
X0143323Y0271154D01*
X0138719Y0271154D02*
X0137285Y0271154D01*
X0138002Y0271154D02*
X0138002Y0267567D01*
X0137285Y0266850D01*
X0136567Y0266850D01*
X0135850Y0267567D01*
X0125408Y0308834D02*
X0122539Y0308834D01*
X0123973Y0308834D02*
X0123973Y0313138D01*
X0122539Y0311703D01*
X0120804Y0312421D02*
X0120087Y0313138D01*
X0118652Y0313138D01*
X0117935Y0312421D01*
X0117935Y0309552D01*
X0118652Y0308834D01*
X0120087Y0308834D01*
X0120804Y0309552D01*
X0116300Y0308834D02*
X0114866Y0308834D01*
X0115583Y0308834D02*
X0115583Y0313138D01*
X0114866Y0313138D02*
X0116300Y0313138D01*
X0121002Y0334350D02*
X0121002Y0338654D01*
X0118850Y0336502D01*
X0121719Y0336502D01*
X0123454Y0335785D02*
X0123454Y0338654D01*
X0126323Y0338654D02*
X0126323Y0335785D01*
X0124888Y0334350D01*
X0123454Y0335785D01*
X0128058Y0335067D02*
X0128775Y0334350D01*
X0130210Y0334350D01*
X0130927Y0335067D01*
X0130927Y0335785D01*
X0130210Y0336502D01*
X0129492Y0336502D01*
X0130210Y0336502D02*
X0130927Y0337219D01*
X0130927Y0337936D01*
X0130210Y0338654D01*
X0128775Y0338654D01*
X0128058Y0337936D01*
X0138850Y0337936D02*
X0139567Y0338654D01*
X0141002Y0338654D01*
X0141719Y0337936D01*
X0141719Y0337219D01*
X0141002Y0336502D01*
X0141719Y0335785D01*
X0141719Y0335067D01*
X0141002Y0334350D01*
X0139567Y0334350D01*
X0138850Y0335067D01*
X0140285Y0336502D02*
X0141002Y0336502D01*
X0143454Y0335785D02*
X0143454Y0338654D01*
X0146323Y0338654D02*
X0146323Y0335785D01*
X0144888Y0334350D01*
X0143454Y0335785D01*
X0148058Y0335067D02*
X0148775Y0334350D01*
X0150210Y0334350D01*
X0150927Y0335067D01*
X0150927Y0335785D01*
X0150210Y0336502D01*
X0149492Y0336502D01*
X0150210Y0336502D02*
X0150927Y0337219D01*
X0150927Y0337936D01*
X0150210Y0338654D01*
X0148775Y0338654D01*
X0148058Y0337936D01*
X0108823Y0338654D02*
X0108823Y0335785D01*
X0107388Y0334350D01*
X0105954Y0335785D01*
X0105954Y0338654D01*
X0104219Y0338654D02*
X0101350Y0338654D01*
X0101350Y0336502D01*
X0102785Y0337219D01*
X0103502Y0337219D01*
X0104219Y0336502D01*
X0104219Y0335067D01*
X0103502Y0334350D01*
X0102067Y0334350D01*
X0101350Y0335067D01*
X0090927Y0335067D02*
X0090927Y0337936D01*
X0090210Y0338654D01*
X0088058Y0338654D01*
X0088058Y0334350D01*
X0090210Y0334350D01*
X0090927Y0335067D01*
X0086323Y0334350D02*
X0086323Y0338654D01*
X0083454Y0338654D02*
X0086323Y0334350D01*
X0083454Y0334350D02*
X0083454Y0338654D01*
X0081719Y0337936D02*
X0081002Y0338654D01*
X0079567Y0338654D01*
X0078850Y0337936D01*
X0078850Y0335067D01*
X0079567Y0334350D01*
X0081002Y0334350D01*
X0081719Y0335067D01*
X0081719Y0336502D01*
X0080285Y0336502D01*
X0208850Y0331436D02*
X0208850Y0328567D01*
X0209567Y0327850D01*
X0211002Y0327850D01*
X0211719Y0328567D01*
X0213454Y0327850D02*
X0216323Y0327850D01*
X0214888Y0327850D02*
X0214888Y0332154D01*
X0213454Y0330719D01*
X0211719Y0331436D02*
X0211002Y0332154D01*
X0209567Y0332154D01*
X0208850Y0331436D01*
X0249346Y0329294D02*
X0249346Y0327859D01*
X0250064Y0327142D01*
X0252933Y0327142D01*
X0253650Y0327859D01*
X0253650Y0329294D01*
X0252933Y0330011D01*
X0252933Y0331746D02*
X0253650Y0332463D01*
X0253650Y0333898D01*
X0252933Y0334615D01*
X0252215Y0334615D01*
X0251498Y0333898D01*
X0251498Y0331746D01*
X0252933Y0331746D01*
X0251498Y0331746D02*
X0250064Y0333181D01*
X0249346Y0334615D01*
X0250064Y0330011D02*
X0249346Y0329294D01*
X0249346Y0325507D02*
X0249346Y0324073D01*
X0249346Y0324790D02*
X0253650Y0324790D01*
X0253650Y0324073D02*
X0253650Y0325507D01*
X0254398Y0301654D02*
X0252246Y0299502D01*
X0255115Y0299502D01*
X0254398Y0297350D02*
X0254398Y0301654D01*
X0250511Y0300936D02*
X0250511Y0299502D01*
X0249794Y0298785D01*
X0247642Y0298785D01*
X0249077Y0298785D02*
X0250511Y0297350D01*
X0247642Y0297350D02*
X0247642Y0301654D01*
X0249794Y0301654D01*
X0250511Y0300936D01*
X0238115Y0300936D02*
X0238115Y0300219D01*
X0237398Y0299502D01*
X0238115Y0298785D01*
X0238115Y0298067D01*
X0237398Y0297350D01*
X0235963Y0297350D01*
X0235246Y0298067D01*
X0233511Y0297350D02*
X0232077Y0298785D01*
X0232794Y0298785D02*
X0230642Y0298785D01*
X0230642Y0297350D02*
X0230642Y0301654D01*
X0232794Y0301654D01*
X0233511Y0300936D01*
X0233511Y0299502D01*
X0232794Y0298785D01*
X0235246Y0300936D02*
X0235963Y0301654D01*
X0237398Y0301654D01*
X0238115Y0300936D01*
X0237398Y0299502D02*
X0236681Y0299502D01*
X0223615Y0282154D02*
X0220746Y0282154D01*
X0220746Y0280002D01*
X0222181Y0280719D01*
X0222898Y0280719D01*
X0223615Y0280002D01*
X0223615Y0278567D01*
X0222898Y0277850D01*
X0221463Y0277850D01*
X0220746Y0278567D01*
X0219011Y0278567D02*
X0218294Y0277850D01*
X0216859Y0277850D01*
X0216142Y0278567D01*
X0216142Y0281436D01*
X0216859Y0282154D01*
X0218294Y0282154D01*
X0219011Y0281436D01*
X0214507Y0282154D02*
X0213073Y0282154D01*
X0213790Y0282154D02*
X0213790Y0277850D01*
X0213073Y0277850D02*
X0214507Y0277850D01*
X0298850Y0136654D02*
X0301002Y0136654D01*
X0301719Y0135936D01*
X0301719Y0134502D01*
X0301002Y0133785D01*
X0298850Y0133785D01*
X0300285Y0133785D02*
X0301719Y0132350D01*
X0303454Y0132350D02*
X0306323Y0132350D01*
X0304888Y0132350D02*
X0304888Y0136654D01*
X0303454Y0135219D01*
X0308058Y0134502D02*
X0309492Y0135936D01*
X0310927Y0136654D01*
X0310210Y0134502D02*
X0308058Y0134502D01*
X0308058Y0133067D01*
X0308775Y0132350D01*
X0310210Y0132350D01*
X0310927Y0133067D01*
X0310927Y0133785D01*
X0310210Y0134502D01*
X0298850Y0132350D02*
X0298850Y0136654D01*
X0346846Y0135398D02*
X0347564Y0136115D01*
X0350433Y0133246D01*
X0351150Y0133963D01*
X0351150Y0135398D01*
X0350433Y0136115D01*
X0347564Y0136115D01*
X0346846Y0135398D02*
X0346846Y0133963D01*
X0347564Y0133246D01*
X0350433Y0133246D01*
X0351150Y0131511D02*
X0351150Y0128642D01*
X0351150Y0130077D02*
X0346846Y0130077D01*
X0348281Y0128642D01*
X0347564Y0126907D02*
X0346846Y0126190D01*
X0346846Y0124755D01*
X0347564Y0124038D01*
X0350433Y0124038D01*
X0351150Y0124755D01*
X0351150Y0126190D01*
X0350433Y0126907D01*
X0351150Y0122403D02*
X0351150Y0120969D01*
X0351150Y0121686D02*
X0346846Y0121686D01*
X0346846Y0120969D02*
X0346846Y0122403D01*
D12*
X0327248Y0116248D02*
X0327248Y0108752D01*
X0324000Y0108752D01*
X0316000Y0108752D02*
X0312752Y0108752D01*
X0312752Y0116248D01*
X0316000Y0116248D01*
X0308248Y0115252D02*
X0308248Y0119000D01*
X0308248Y0115252D02*
X0300752Y0115252D01*
X0300752Y0119000D01*
X0300752Y0126000D02*
X0300752Y0129748D01*
X0308248Y0129748D01*
X0308248Y0126000D01*
X0324000Y0116248D02*
X0327248Y0116248D01*
X0325760Y0165500D02*
X0323558Y0165500D01*
X0322457Y0166601D01*
X0322457Y0168803D01*
X0323558Y0169904D01*
X0325760Y0169904D01*
X0326861Y0168803D01*
X0326861Y0167702D01*
X0322457Y0167702D01*
X0319863Y0169904D02*
X0316560Y0169904D01*
X0315459Y0168803D01*
X0315459Y0166601D01*
X0316560Y0165500D01*
X0319863Y0165500D01*
X0319863Y0172106D01*
X0312865Y0168803D02*
X0312865Y0165500D01*
X0309562Y0165500D01*
X0308461Y0166601D01*
X0309562Y0167702D01*
X0312865Y0167702D01*
X0312865Y0168803D02*
X0311764Y0169904D01*
X0309562Y0169904D01*
X0305867Y0168803D02*
X0305867Y0167702D01*
X0301463Y0167702D01*
X0301463Y0166601D02*
X0301463Y0168803D01*
X0302564Y0169904D01*
X0304766Y0169904D01*
X0305867Y0168803D01*
X0304766Y0165500D02*
X0302564Y0165500D01*
X0301463Y0166601D01*
X0298869Y0165500D02*
X0298869Y0168803D01*
X0297768Y0169904D01*
X0295566Y0169904D01*
X0294466Y0168803D01*
X0294466Y0172106D02*
X0294466Y0165500D01*
X0284873Y0166601D02*
X0284873Y0171005D01*
X0283772Y0172106D01*
X0281570Y0172106D01*
X0280470Y0171005D01*
X0280470Y0166601D01*
X0281570Y0165500D01*
X0283772Y0165500D01*
X0284873Y0166601D01*
X0278006Y0165500D02*
X0275804Y0165500D01*
X0276905Y0165500D02*
X0276905Y0172106D01*
X0275804Y0172106D02*
X0278006Y0172106D01*
X0273210Y0171005D02*
X0273210Y0168803D01*
X0272109Y0167702D01*
X0268806Y0167702D01*
X0268806Y0165500D02*
X0268806Y0172106D01*
X0272109Y0172106D01*
X0273210Y0171005D01*
X0266212Y0171005D02*
X0265111Y0172106D01*
X0262909Y0172106D01*
X0261808Y0171005D01*
X0261808Y0166601D01*
X0262909Y0165500D01*
X0265111Y0165500D01*
X0266212Y0166601D01*
X0266212Y0168803D01*
X0264010Y0168803D01*
X0252347Y0165500D02*
X0250145Y0165500D01*
X0251246Y0165500D02*
X0251246Y0169904D01*
X0250145Y0169904D01*
X0251246Y0172106D02*
X0251246Y0173207D01*
X0247551Y0171005D02*
X0247551Y0168803D01*
X0246450Y0167702D01*
X0243147Y0167702D01*
X0243147Y0165500D02*
X0243147Y0172106D01*
X0246450Y0172106D01*
X0247551Y0171005D01*
X0233555Y0169904D02*
X0233555Y0164399D01*
X0232454Y0163298D01*
X0231353Y0163298D01*
X0230252Y0165500D02*
X0233555Y0165500D01*
X0230252Y0165500D02*
X0229151Y0166601D01*
X0229151Y0169904D01*
X0226622Y0169904D02*
X0225521Y0169904D01*
X0223319Y0167702D01*
X0223319Y0165500D02*
X0223319Y0169904D01*
X0220791Y0169904D02*
X0219690Y0169904D01*
X0217488Y0167702D01*
X0217488Y0165500D02*
X0217488Y0169904D01*
X0214894Y0168803D02*
X0214894Y0167702D01*
X0210490Y0167702D01*
X0210490Y0166601D02*
X0210490Y0168803D01*
X0211591Y0169904D01*
X0213793Y0169904D01*
X0214894Y0168803D01*
X0213793Y0165500D02*
X0211591Y0165500D01*
X0210490Y0166601D01*
X0207896Y0166601D02*
X0207896Y0168803D01*
X0206795Y0169904D01*
X0203492Y0169904D01*
X0203492Y0172106D02*
X0203492Y0165500D01*
X0206795Y0165500D01*
X0207896Y0166601D01*
X0200898Y0166601D02*
X0200898Y0168803D01*
X0199797Y0169904D01*
X0196494Y0169904D01*
X0196494Y0163298D01*
X0196494Y0165500D02*
X0199797Y0165500D01*
X0200898Y0166601D01*
X0193900Y0166601D02*
X0192799Y0167702D01*
X0190597Y0167702D01*
X0189496Y0168803D01*
X0190597Y0169904D01*
X0193900Y0169904D01*
X0193900Y0166601D02*
X0192799Y0165500D01*
X0189496Y0165500D01*
X0186902Y0165500D02*
X0183599Y0165500D01*
X0182498Y0166601D01*
X0183599Y0167702D01*
X0186902Y0167702D01*
X0186902Y0168803D02*
X0186902Y0165500D01*
X0186902Y0168803D02*
X0185801Y0169904D01*
X0183599Y0169904D01*
X0179904Y0171005D02*
X0179904Y0168803D01*
X0178803Y0167702D01*
X0175500Y0167702D01*
X0177702Y0167702D02*
X0179904Y0165500D01*
X0175500Y0165500D02*
X0175500Y0172106D01*
X0178803Y0172106D01*
X0179904Y0171005D01*
X0152841Y0127000D02*
X0152843Y0127176D01*
X0152850Y0127351D01*
X0152860Y0127527D01*
X0152875Y0127702D01*
X0152895Y0127876D01*
X0152918Y0128050D01*
X0152946Y0128224D01*
X0152979Y0128397D01*
X0153015Y0128569D01*
X0153056Y0128739D01*
X0153100Y0128909D01*
X0153149Y0129078D01*
X0153202Y0129246D01*
X0153259Y0129412D01*
X0153321Y0129576D01*
X0153386Y0129740D01*
X0153455Y0129901D01*
X0153528Y0130061D01*
X0153605Y0130219D01*
X0153686Y0130375D01*
X0153771Y0130529D01*
X0153860Y0130680D01*
X0153952Y0130830D01*
X0154048Y0130977D01*
X0154147Y0131122D01*
X0154250Y0131265D01*
X0154356Y0131404D01*
X0154466Y0131542D01*
X0154579Y0131676D01*
X0154696Y0131808D01*
X0154815Y0131936D01*
X0154938Y0132062D01*
X0155064Y0132185D01*
X0155192Y0132304D01*
X0155324Y0132421D01*
X0155458Y0132534D01*
X0155596Y0132644D01*
X0155735Y0132750D01*
X0155878Y0132853D01*
X0156023Y0132952D01*
X0156170Y0133048D01*
X0156320Y0133140D01*
X0156471Y0133229D01*
X0156625Y0133314D01*
X0156781Y0133395D01*
X0156939Y0133472D01*
X0157099Y0133545D01*
X0157260Y0133614D01*
X0157424Y0133679D01*
X0157588Y0133741D01*
X0157754Y0133798D01*
X0157922Y0133851D01*
X0158091Y0133900D01*
X0158261Y0133944D01*
X0158431Y0133985D01*
X0158603Y0134021D01*
X0158776Y0134054D01*
X0158950Y0134082D01*
X0159124Y0134105D01*
X0159298Y0134125D01*
X0159473Y0134140D01*
X0159649Y0134150D01*
X0159824Y0134157D01*
X0160000Y0134159D01*
X0160176Y0134157D01*
X0160351Y0134150D01*
X0160527Y0134140D01*
X0160702Y0134125D01*
X0160876Y0134105D01*
X0161050Y0134082D01*
X0161224Y0134054D01*
X0161397Y0134021D01*
X0161569Y0133985D01*
X0161739Y0133944D01*
X0161909Y0133900D01*
X0162078Y0133851D01*
X0162246Y0133798D01*
X0162412Y0133741D01*
X0162576Y0133679D01*
X0162740Y0133614D01*
X0162901Y0133545D01*
X0163061Y0133472D01*
X0163219Y0133395D01*
X0163375Y0133314D01*
X0163529Y0133229D01*
X0163680Y0133140D01*
X0163830Y0133048D01*
X0163977Y0132952D01*
X0164122Y0132853D01*
X0164265Y0132750D01*
X0164404Y0132644D01*
X0164542Y0132534D01*
X0164676Y0132421D01*
X0164808Y0132304D01*
X0164936Y0132185D01*
X0165062Y0132062D01*
X0165185Y0131936D01*
X0165304Y0131808D01*
X0165421Y0131676D01*
X0165534Y0131542D01*
X0165644Y0131404D01*
X0165750Y0131265D01*
X0165853Y0131122D01*
X0165952Y0130977D01*
X0166048Y0130830D01*
X0166140Y0130680D01*
X0166229Y0130529D01*
X0166314Y0130375D01*
X0166395Y0130219D01*
X0166472Y0130061D01*
X0166545Y0129901D01*
X0166614Y0129740D01*
X0166679Y0129576D01*
X0166741Y0129412D01*
X0166798Y0129246D01*
X0166851Y0129078D01*
X0166900Y0128909D01*
X0166944Y0128739D01*
X0166985Y0128569D01*
X0167021Y0128397D01*
X0167054Y0128224D01*
X0167082Y0128050D01*
X0167105Y0127876D01*
X0167125Y0127702D01*
X0167140Y0127527D01*
X0167150Y0127351D01*
X0167157Y0127176D01*
X0167159Y0127000D01*
X0167157Y0126824D01*
X0167150Y0126649D01*
X0167140Y0126473D01*
X0167125Y0126298D01*
X0167105Y0126124D01*
X0167082Y0125950D01*
X0167054Y0125776D01*
X0167021Y0125603D01*
X0166985Y0125431D01*
X0166944Y0125261D01*
X0166900Y0125091D01*
X0166851Y0124922D01*
X0166798Y0124754D01*
X0166741Y0124588D01*
X0166679Y0124424D01*
X0166614Y0124260D01*
X0166545Y0124099D01*
X0166472Y0123939D01*
X0166395Y0123781D01*
X0166314Y0123625D01*
X0166229Y0123471D01*
X0166140Y0123320D01*
X0166048Y0123170D01*
X0165952Y0123023D01*
X0165853Y0122878D01*
X0165750Y0122735D01*
X0165644Y0122596D01*
X0165534Y0122458D01*
X0165421Y0122324D01*
X0165304Y0122192D01*
X0165185Y0122064D01*
X0165062Y0121938D01*
X0164936Y0121815D01*
X0164808Y0121696D01*
X0164676Y0121579D01*
X0164542Y0121466D01*
X0164404Y0121356D01*
X0164265Y0121250D01*
X0164122Y0121147D01*
X0163977Y0121048D01*
X0163830Y0120952D01*
X0163680Y0120860D01*
X0163529Y0120771D01*
X0163375Y0120686D01*
X0163219Y0120605D01*
X0163061Y0120528D01*
X0162901Y0120455D01*
X0162740Y0120386D01*
X0162576Y0120321D01*
X0162412Y0120259D01*
X0162246Y0120202D01*
X0162078Y0120149D01*
X0161909Y0120100D01*
X0161739Y0120056D01*
X0161569Y0120015D01*
X0161397Y0119979D01*
X0161224Y0119946D01*
X0161050Y0119918D01*
X0160876Y0119895D01*
X0160702Y0119875D01*
X0160527Y0119860D01*
X0160351Y0119850D01*
X0160176Y0119843D01*
X0160000Y0119841D01*
X0159824Y0119843D01*
X0159649Y0119850D01*
X0159473Y0119860D01*
X0159298Y0119875D01*
X0159124Y0119895D01*
X0158950Y0119918D01*
X0158776Y0119946D01*
X0158603Y0119979D01*
X0158431Y0120015D01*
X0158261Y0120056D01*
X0158091Y0120100D01*
X0157922Y0120149D01*
X0157754Y0120202D01*
X0157588Y0120259D01*
X0157424Y0120321D01*
X0157260Y0120386D01*
X0157099Y0120455D01*
X0156939Y0120528D01*
X0156781Y0120605D01*
X0156625Y0120686D01*
X0156471Y0120771D01*
X0156320Y0120860D01*
X0156170Y0120952D01*
X0156023Y0121048D01*
X0155878Y0121147D01*
X0155735Y0121250D01*
X0155596Y0121356D01*
X0155458Y0121466D01*
X0155324Y0121579D01*
X0155192Y0121696D01*
X0155064Y0121815D01*
X0154938Y0121938D01*
X0154815Y0122064D01*
X0154696Y0122192D01*
X0154579Y0122324D01*
X0154466Y0122458D01*
X0154356Y0122596D01*
X0154250Y0122735D01*
X0154147Y0122878D01*
X0154048Y0123023D01*
X0153952Y0123170D01*
X0153860Y0123320D01*
X0153771Y0123471D01*
X0153686Y0123625D01*
X0153605Y0123781D01*
X0153528Y0123939D01*
X0153455Y0124099D01*
X0153386Y0124260D01*
X0153321Y0124424D01*
X0153259Y0124588D01*
X0153202Y0124754D01*
X0153149Y0124922D01*
X0153100Y0125091D01*
X0153056Y0125261D01*
X0153015Y0125431D01*
X0152979Y0125603D01*
X0152946Y0125776D01*
X0152918Y0125950D01*
X0152895Y0126124D01*
X0152875Y0126298D01*
X0152860Y0126473D01*
X0152850Y0126649D01*
X0152843Y0126824D01*
X0152841Y0127000D01*
X0165752Y0102748D02*
X0165752Y0099500D01*
X0165752Y0102748D02*
X0173248Y0102748D01*
X0173248Y0099500D01*
X0173248Y0091500D02*
X0173248Y0088252D01*
X0165752Y0088252D01*
X0165752Y0091500D01*
X0172319Y0076000D02*
X0143681Y0076000D01*
X0143601Y0075998D01*
X0143521Y0075992D01*
X0143442Y0075983D01*
X0143363Y0075970D01*
X0143285Y0075953D01*
X0143207Y0075932D01*
X0143131Y0075908D01*
X0143056Y0075880D01*
X0142983Y0075848D01*
X0142911Y0075813D01*
X0142841Y0075775D01*
X0142772Y0075733D01*
X0142706Y0075688D01*
X0142642Y0075640D01*
X0142580Y0075589D01*
X0142521Y0075536D01*
X0142464Y0075479D01*
X0142411Y0075420D01*
X0142360Y0075358D01*
X0142312Y0075294D01*
X0142267Y0075228D01*
X0142225Y0075160D01*
X0142187Y0075089D01*
X0142152Y0075017D01*
X0142120Y0074944D01*
X0142092Y0074869D01*
X0142068Y0074793D01*
X0142047Y0074715D01*
X0142030Y0074637D01*
X0142017Y0074558D01*
X0142008Y0074479D01*
X0142002Y0074399D01*
X0142000Y0074319D01*
X0142000Y0045681D01*
X0142002Y0045601D01*
X0142008Y0045521D01*
X0142017Y0045442D01*
X0142030Y0045363D01*
X0142047Y0045285D01*
X0142068Y0045207D01*
X0142092Y0045131D01*
X0142120Y0045056D01*
X0142152Y0044983D01*
X0142187Y0044911D01*
X0142225Y0044841D01*
X0142267Y0044772D01*
X0142312Y0044706D01*
X0142360Y0044642D01*
X0142411Y0044580D01*
X0142464Y0044521D01*
X0142521Y0044464D01*
X0142580Y0044411D01*
X0142642Y0044360D01*
X0142706Y0044312D01*
X0142772Y0044267D01*
X0142841Y0044225D01*
X0142911Y0044187D01*
X0142983Y0044152D01*
X0143056Y0044120D01*
X0143131Y0044092D01*
X0143207Y0044068D01*
X0143285Y0044047D01*
X0143363Y0044030D01*
X0143442Y0044017D01*
X0143521Y0044008D01*
X0143601Y0044002D01*
X0143681Y0044000D01*
X0172319Y0044000D01*
X0172399Y0044002D01*
X0172479Y0044008D01*
X0172558Y0044017D01*
X0172637Y0044030D01*
X0172715Y0044047D01*
X0172793Y0044068D01*
X0172869Y0044092D01*
X0172944Y0044120D01*
X0173017Y0044152D01*
X0173089Y0044187D01*
X0173160Y0044225D01*
X0173228Y0044267D01*
X0173294Y0044312D01*
X0173358Y0044360D01*
X0173420Y0044411D01*
X0173479Y0044464D01*
X0173536Y0044521D01*
X0173589Y0044580D01*
X0173640Y0044642D01*
X0173688Y0044706D01*
X0173733Y0044772D01*
X0173775Y0044841D01*
X0173813Y0044911D01*
X0173848Y0044983D01*
X0173880Y0045056D01*
X0173908Y0045131D01*
X0173932Y0045207D01*
X0173953Y0045285D01*
X0173970Y0045363D01*
X0173983Y0045442D01*
X0173992Y0045521D01*
X0173998Y0045601D01*
X0174000Y0045681D01*
X0174000Y0074319D01*
X0173998Y0074399D01*
X0173992Y0074479D01*
X0173983Y0074558D01*
X0173970Y0074637D01*
X0173953Y0074715D01*
X0173932Y0074793D01*
X0173908Y0074869D01*
X0173880Y0074944D01*
X0173848Y0075017D01*
X0173813Y0075089D01*
X0173775Y0075160D01*
X0173733Y0075228D01*
X0173688Y0075294D01*
X0173640Y0075358D01*
X0173589Y0075420D01*
X0173536Y0075479D01*
X0173479Y0075536D01*
X0173420Y0075589D01*
X0173358Y0075640D01*
X0173294Y0075688D01*
X0173228Y0075733D01*
X0173160Y0075775D01*
X0173089Y0075813D01*
X0173017Y0075848D01*
X0172944Y0075880D01*
X0172869Y0075908D01*
X0172793Y0075932D01*
X0172715Y0075953D01*
X0172637Y0075970D01*
X0172558Y0075983D01*
X0172479Y0075992D01*
X0172399Y0075998D01*
X0172319Y0076000D01*
X0207752Y0072248D02*
X0207752Y0064752D01*
X0211500Y0064752D01*
X0211500Y0061748D02*
X0207752Y0061748D01*
X0207752Y0054252D01*
X0211500Y0054252D01*
X0211000Y0051248D02*
X0207752Y0051248D01*
X0207752Y0043752D01*
X0211000Y0043752D01*
X0204748Y0042748D02*
X0204748Y0039500D01*
X0204748Y0042748D02*
X0197252Y0042748D01*
X0197252Y0039500D01*
X0197252Y0031500D02*
X0197252Y0028252D01*
X0204748Y0028252D01*
X0204748Y0031500D01*
X0219000Y0043752D02*
X0222248Y0043752D01*
X0222248Y0051248D01*
X0219000Y0051248D01*
X0218500Y0054252D02*
X0222248Y0054252D01*
X0222248Y0061748D01*
X0218500Y0061748D01*
X0218500Y0064752D02*
X0222248Y0064752D01*
X0222248Y0072248D01*
X0218500Y0072248D01*
X0211500Y0072248D02*
X0207752Y0072248D01*
X0271252Y0037248D02*
X0271252Y0034000D01*
X0271252Y0037248D02*
X0278748Y0037248D01*
X0278748Y0034000D01*
X0283996Y0032551D02*
X0283996Y0027449D01*
X0283998Y0027410D01*
X0284004Y0027372D01*
X0284013Y0027335D01*
X0284026Y0027298D01*
X0284043Y0027263D01*
X0284062Y0027230D01*
X0284085Y0027199D01*
X0284111Y0027170D01*
X0284140Y0027144D01*
X0284171Y0027121D01*
X0284204Y0027102D01*
X0284239Y0027085D01*
X0284276Y0027072D01*
X0284313Y0027063D01*
X0284351Y0027057D01*
X0284390Y0027055D01*
X0295610Y0027055D01*
X0295649Y0027057D01*
X0295687Y0027063D01*
X0295724Y0027072D01*
X0295761Y0027085D01*
X0295796Y0027102D01*
X0295829Y0027121D01*
X0295860Y0027144D01*
X0295889Y0027170D01*
X0295915Y0027199D01*
X0295938Y0027230D01*
X0295957Y0027263D01*
X0295974Y0027298D01*
X0295987Y0027335D01*
X0295996Y0027372D01*
X0296002Y0027410D01*
X0296004Y0027449D01*
X0296004Y0032551D01*
X0296002Y0032590D01*
X0295996Y0032628D01*
X0295987Y0032665D01*
X0295974Y0032702D01*
X0295957Y0032737D01*
X0295938Y0032770D01*
X0295915Y0032801D01*
X0295889Y0032830D01*
X0295860Y0032856D01*
X0295829Y0032879D01*
X0295796Y0032898D01*
X0295761Y0032915D01*
X0295724Y0032928D01*
X0295687Y0032937D01*
X0295649Y0032943D01*
X0295610Y0032945D01*
X0284390Y0032945D01*
X0284351Y0032943D01*
X0284313Y0032937D01*
X0284276Y0032928D01*
X0284239Y0032915D01*
X0284204Y0032898D01*
X0284171Y0032879D01*
X0284140Y0032856D01*
X0284111Y0032830D01*
X0284085Y0032801D01*
X0284062Y0032770D01*
X0284043Y0032737D01*
X0284026Y0032702D01*
X0284013Y0032665D01*
X0284004Y0032628D01*
X0283998Y0032590D01*
X0283996Y0032551D01*
X0278748Y0026000D02*
X0278748Y0022752D01*
X0271252Y0022752D01*
X0271252Y0026000D01*
X0296000Y0028500D02*
X0295924Y0028502D01*
X0295848Y0028508D01*
X0295773Y0028517D01*
X0295698Y0028531D01*
X0295624Y0028548D01*
X0295551Y0028569D01*
X0295479Y0028593D01*
X0295408Y0028622D01*
X0295339Y0028653D01*
X0295272Y0028688D01*
X0295207Y0028727D01*
X0295143Y0028769D01*
X0295082Y0028814D01*
X0295023Y0028862D01*
X0294967Y0028913D01*
X0294913Y0028967D01*
X0294862Y0029023D01*
X0294814Y0029082D01*
X0294769Y0029143D01*
X0294727Y0029207D01*
X0294688Y0029272D01*
X0294653Y0029339D01*
X0294622Y0029408D01*
X0294593Y0029479D01*
X0294569Y0029551D01*
X0294548Y0029624D01*
X0294531Y0029698D01*
X0294517Y0029773D01*
X0294508Y0029848D01*
X0294502Y0029924D01*
X0294500Y0030000D01*
X0294502Y0030076D01*
X0294508Y0030152D01*
X0294517Y0030227D01*
X0294531Y0030302D01*
X0294548Y0030376D01*
X0294569Y0030449D01*
X0294593Y0030521D01*
X0294622Y0030592D01*
X0294653Y0030661D01*
X0294688Y0030728D01*
X0294727Y0030793D01*
X0294769Y0030857D01*
X0294814Y0030918D01*
X0294862Y0030977D01*
X0294913Y0031033D01*
X0294967Y0031087D01*
X0295023Y0031138D01*
X0295082Y0031186D01*
X0295143Y0031231D01*
X0295207Y0031273D01*
X0295272Y0031312D01*
X0295339Y0031347D01*
X0295408Y0031378D01*
X0295479Y0031407D01*
X0295551Y0031431D01*
X0295624Y0031452D01*
X0295698Y0031469D01*
X0295773Y0031483D01*
X0295848Y0031492D01*
X0295924Y0031498D01*
X0296000Y0031500D01*
X0301252Y0034000D02*
X0301252Y0037248D01*
X0308748Y0037248D01*
X0308748Y0034000D01*
X0311252Y0033500D02*
X0311252Y0037248D01*
X0318748Y0037248D01*
X0318748Y0033500D01*
X0321252Y0033500D02*
X0321252Y0037248D01*
X0328748Y0037248D01*
X0328748Y0033500D01*
X0328748Y0026500D02*
X0328748Y0022752D01*
X0321252Y0022752D01*
X0321252Y0026500D01*
X0318748Y0026500D02*
X0318748Y0022752D01*
X0311252Y0022752D01*
X0311252Y0026500D01*
X0308748Y0026000D02*
X0308748Y0022752D01*
X0301252Y0022752D01*
X0301252Y0026000D01*
X0131098Y0051811D02*
X0130228Y0051811D01*
X0131098Y0051811D02*
X0131098Y0058189D01*
X0130228Y0058189D01*
X0127055Y0058189D02*
X0122945Y0058189D01*
X0119772Y0058189D02*
X0118902Y0058189D01*
X0118902Y0051811D01*
X0119772Y0051811D01*
X0329455Y0165500D02*
X0329455Y0169904D01*
X0329455Y0167702D02*
X0331657Y0169904D01*
X0332758Y0169904D01*
X0170500Y0264500D02*
X0169500Y0263500D01*
X0169500Y0265500D01*
X0168500Y0266500D01*
X0168500Y0262500D01*
X0169500Y0263500D01*
X0170500Y0264500D02*
X0169500Y0265500D01*
X0226752Y0304252D02*
X0226752Y0311748D01*
X0230500Y0311748D01*
X0237500Y0311748D02*
X0241248Y0311748D01*
X0241248Y0304252D01*
X0237500Y0304252D01*
X0243752Y0304252D02*
X0247500Y0304252D01*
X0243752Y0304252D02*
X0243752Y0311748D01*
X0247500Y0311748D01*
X0254500Y0311748D02*
X0258248Y0311748D01*
X0258248Y0304252D01*
X0254500Y0304252D01*
X0230500Y0304252D02*
X0226752Y0304252D01*
X0225748Y0322752D02*
X0218252Y0322752D01*
X0218252Y0326000D01*
X0225748Y0326000D02*
X0225748Y0322752D01*
X0225748Y0334000D02*
X0225748Y0337248D01*
X0218252Y0337248D01*
X0218252Y0334000D01*
X0195000Y0340000D02*
X0195000Y0326000D01*
X0165000Y0326000D01*
X0165000Y0340000D01*
X0160266Y0344734D01*
X0165000Y0340000D02*
X0195000Y0340000D01*
X0146846Y0351000D02*
X0082077Y0351000D01*
X0074617Y0347617D02*
X0071000Y0344000D01*
X0074500Y0345500D01*
X0072500Y0347500D01*
X0071000Y0344000D01*
X0074617Y0347617D02*
X0074793Y0347801D01*
X0074973Y0347981D01*
X0075158Y0348156D01*
X0075347Y0348327D01*
X0075540Y0348493D01*
X0075737Y0348655D01*
X0075938Y0348812D01*
X0076142Y0348964D01*
X0076350Y0349111D01*
X0076561Y0349253D01*
X0076776Y0349390D01*
X0076994Y0349522D01*
X0077214Y0349649D01*
X0077438Y0349771D01*
X0077665Y0349887D01*
X0077894Y0349997D01*
X0078126Y0350103D01*
X0078361Y0350202D01*
X0078598Y0350296D01*
X0078836Y0350385D01*
X0079077Y0350467D01*
X0079320Y0350544D01*
X0079565Y0350615D01*
X0079811Y0350681D01*
X0080059Y0350740D01*
X0080308Y0350793D01*
X0080558Y0350841D01*
X0080809Y0350883D01*
X0081061Y0350918D01*
X0081314Y0350948D01*
X0081568Y0350971D01*
X0081822Y0350989D01*
X0082076Y0351000D01*
X0081000Y0331000D02*
X0083500Y0328500D01*
X0086000Y0331000D01*
X0091000Y0331000D01*
X0093500Y0328500D01*
X0096000Y0331000D01*
X0101000Y0331000D01*
X0103500Y0328500D01*
X0106000Y0331000D01*
X0111000Y0331000D01*
X0113500Y0328500D01*
X0113500Y0313500D01*
X0111000Y0311000D01*
X0106000Y0311000D01*
X0103500Y0313500D01*
X0101000Y0311000D01*
X0096000Y0311000D01*
X0093500Y0313500D01*
X0091000Y0311000D01*
X0086000Y0311000D01*
X0083500Y0313500D01*
X0081000Y0311000D01*
X0076000Y0311000D01*
X0073500Y0313500D01*
X0071000Y0311000D01*
X0066000Y0311000D01*
X0063500Y0313500D01*
X0063500Y0328500D01*
X0066000Y0331000D01*
X0071000Y0331000D01*
X0073500Y0328500D01*
X0076000Y0331000D01*
X0081000Y0331000D01*
X0068500Y0309000D02*
X0066500Y0306500D01*
X0070500Y0306500D01*
X0068500Y0309000D01*
X0068138Y0308547D02*
X0068862Y0308547D01*
X0069661Y0307549D02*
X0067339Y0307549D01*
X0066540Y0306550D02*
X0070460Y0306550D01*
X0146847Y0351000D02*
X0147306Y0350974D01*
X0147765Y0350938D01*
X0148223Y0350890D01*
X0148680Y0350831D01*
X0149135Y0350762D01*
X0149589Y0350682D01*
X0150040Y0350591D01*
X0150490Y0350489D01*
X0150936Y0350377D01*
X0151380Y0350254D01*
X0151821Y0350121D01*
X0152258Y0349977D01*
X0152692Y0349822D01*
X0153122Y0349658D01*
X0153548Y0349483D01*
X0153970Y0349298D01*
X0154387Y0349103D01*
X0154800Y0348899D01*
X0155207Y0348684D01*
X0155610Y0348460D01*
X0156007Y0348227D01*
X0156398Y0347984D01*
X0156783Y0347731D01*
X0157162Y0347470D01*
X0157535Y0347200D01*
X0157901Y0346921D01*
X0158261Y0346633D01*
X0158614Y0346337D01*
X0158959Y0346032D01*
X0159297Y0345720D01*
X0159628Y0345399D01*
X0159951Y0345071D01*
X0160266Y0344735D01*
X0072953Y0261602D02*
X0067047Y0261602D01*
X0067047Y0248398D02*
X0072953Y0248398D01*
X0075500Y0245748D02*
X0079248Y0245748D01*
X0079248Y0238252D01*
X0075500Y0238252D01*
X0075500Y0237748D02*
X0079248Y0237748D01*
X0079248Y0230252D01*
X0075500Y0230252D01*
X0068500Y0230252D02*
X0064752Y0230252D01*
X0064752Y0237748D01*
X0068500Y0237748D01*
X0068500Y0238252D02*
X0064752Y0238252D01*
X0064752Y0245748D01*
X0068500Y0245748D01*
X0067047Y0211602D02*
X0072953Y0211602D01*
X0072953Y0198398D02*
X0067047Y0198398D01*
X0067047Y0196602D02*
X0072953Y0196602D01*
X0072953Y0183398D02*
X0067047Y0183398D01*
D13*
X0064985Y0151555D02*
X0064985Y0145450D01*
X0062950Y0145450D02*
X0067020Y0145450D01*
X0062950Y0149520D02*
X0064985Y0151555D01*
X0193950Y0136055D02*
X0193950Y0129950D01*
X0198020Y0129950D02*
X0198020Y0136055D01*
X0195985Y0134020D01*
X0193950Y0136055D01*
X0200395Y0130968D02*
X0201413Y0130968D01*
X0201413Y0129950D01*
X0200395Y0129950D01*
X0200395Y0130968D01*
X0198020Y0125555D02*
X0198020Y0119450D01*
X0193950Y0125555D01*
X0193950Y0119450D01*
X0200395Y0119450D02*
X0201413Y0119450D01*
X0201413Y0120468D01*
X0200395Y0120468D01*
X0200395Y0119450D01*
X0210064Y0119450D02*
X0210064Y0125555D01*
X0214134Y0125555D01*
X0216509Y0125555D02*
X0216509Y0119450D01*
X0216509Y0121485D02*
X0219562Y0123520D01*
X0221880Y0122503D02*
X0222898Y0123520D01*
X0225951Y0123520D01*
X0224933Y0121485D02*
X0222898Y0121485D01*
X0221880Y0122503D01*
X0221880Y0119450D02*
X0224933Y0119450D01*
X0225951Y0120468D01*
X0224933Y0121485D01*
X0228326Y0123520D02*
X0230361Y0123520D01*
X0229344Y0124538D02*
X0229344Y0120468D01*
X0230361Y0119450D01*
X0232623Y0119450D02*
X0232623Y0123520D01*
X0232623Y0121485D02*
X0234658Y0123520D01*
X0235676Y0123520D01*
X0237994Y0122503D02*
X0237994Y0120468D01*
X0239012Y0119450D01*
X0241047Y0119450D01*
X0242064Y0120468D01*
X0242064Y0122503D01*
X0241047Y0123520D01*
X0239012Y0123520D01*
X0237994Y0122503D01*
X0239012Y0125555D02*
X0239012Y0126573D01*
X0241047Y0126573D02*
X0241047Y0125555D01*
X0244440Y0123520D02*
X0245457Y0123520D01*
X0246475Y0122503D01*
X0247492Y0123520D01*
X0248510Y0122503D01*
X0248510Y0119450D01*
X0246475Y0119450D02*
X0246475Y0122503D01*
X0244440Y0123520D02*
X0244440Y0119450D01*
X0243309Y0129950D02*
X0242291Y0130968D01*
X0243309Y0131985D01*
X0246361Y0131985D01*
X0246361Y0133003D02*
X0246361Y0129950D01*
X0243309Y0129950D01*
X0239916Y0129950D02*
X0236863Y0129950D01*
X0235846Y0130968D01*
X0235846Y0133003D01*
X0236863Y0134020D01*
X0239916Y0134020D01*
X0239916Y0136055D02*
X0239916Y0129950D01*
X0243309Y0134020D02*
X0245344Y0134020D01*
X0246361Y0133003D01*
X0248737Y0133003D02*
X0249754Y0134020D01*
X0251789Y0134020D01*
X0252807Y0133003D01*
X0252807Y0129950D01*
X0255182Y0129950D02*
X0257217Y0129950D01*
X0256200Y0129950D02*
X0256200Y0136055D01*
X0255182Y0136055D01*
X0248737Y0136055D02*
X0248737Y0129950D01*
X0233470Y0129950D02*
X0233470Y0133003D01*
X0232453Y0134020D01*
X0229400Y0134020D01*
X0229400Y0129950D01*
X0227025Y0129950D02*
X0227025Y0133003D01*
X0226007Y0134020D01*
X0222955Y0134020D01*
X0222955Y0129950D01*
X0220579Y0130968D02*
X0220579Y0133003D01*
X0219562Y0134020D01*
X0217527Y0134020D01*
X0216509Y0133003D01*
X0216509Y0130968D01*
X0217527Y0129950D01*
X0219562Y0129950D01*
X0220579Y0130968D01*
X0214134Y0129950D02*
X0212099Y0131985D01*
X0213116Y0131985D02*
X0210064Y0131985D01*
X0210064Y0129950D02*
X0210064Y0136055D01*
X0213116Y0136055D01*
X0214134Y0135038D01*
X0214134Y0133003D01*
X0213116Y0131985D01*
X0217527Y0136055D02*
X0217527Y0137073D01*
X0219562Y0137073D02*
X0219562Y0136055D01*
X0216509Y0121485D02*
X0219562Y0119450D01*
X0214134Y0119450D02*
X0210064Y0119450D01*
X0210064Y0122503D02*
X0212099Y0122503D01*
X0131099Y0025055D02*
X0131099Y0018950D01*
X0129064Y0018950D02*
X0133134Y0018950D01*
X0129064Y0023020D02*
X0131099Y0025055D01*
X0126859Y0019968D02*
X0126859Y0018950D01*
X0125841Y0018950D01*
X0125841Y0019968D01*
X0126859Y0019968D01*
X0123466Y0018950D02*
X0119395Y0018950D01*
X0121431Y0018950D02*
X0121431Y0025055D01*
X0119395Y0023020D01*
X0117020Y0023020D02*
X0114985Y0018950D01*
X0112950Y0023020D01*
X0070520Y0297950D02*
X0066450Y0297950D01*
X0068485Y0297950D02*
X0068485Y0304055D01*
X0066450Y0302020D01*
D14*
X0095439Y0306096D02*
X0095439Y0243904D01*
X0124561Y0243904D01*
X0124561Y0306096D01*
X0112756Y0306096D01*
X0107244Y0306096D01*
X0095439Y0306096D01*
X0097598Y0300000D02*
X0097600Y0300087D01*
X0097606Y0300173D01*
X0097616Y0300259D01*
X0097629Y0300344D01*
X0097647Y0300429D01*
X0097669Y0300513D01*
X0097694Y0300596D01*
X0097723Y0300678D01*
X0097755Y0300758D01*
X0097792Y0300836D01*
X0097832Y0300913D01*
X0097875Y0300988D01*
X0097922Y0301061D01*
X0097971Y0301132D01*
X0098025Y0301200D01*
X0098081Y0301266D01*
X0098140Y0301330D01*
X0098202Y0301390D01*
X0098266Y0301448D01*
X0098334Y0301502D01*
X0098403Y0301554D01*
X0098475Y0301602D01*
X0098549Y0301647D01*
X0098625Y0301689D01*
X0098703Y0301727D01*
X0098782Y0301761D01*
X0098863Y0301792D01*
X0098945Y0301819D01*
X0099029Y0301843D01*
X0099113Y0301862D01*
X0099198Y0301878D01*
X0099284Y0301890D01*
X0099370Y0301898D01*
X0099457Y0301902D01*
X0099543Y0301902D01*
X0099630Y0301898D01*
X0099716Y0301890D01*
X0099802Y0301878D01*
X0099887Y0301862D01*
X0099971Y0301843D01*
X0100055Y0301819D01*
X0100137Y0301792D01*
X0100218Y0301761D01*
X0100297Y0301727D01*
X0100375Y0301689D01*
X0100451Y0301647D01*
X0100525Y0301602D01*
X0100597Y0301554D01*
X0100666Y0301502D01*
X0100734Y0301448D01*
X0100798Y0301390D01*
X0100860Y0301330D01*
X0100919Y0301266D01*
X0100975Y0301200D01*
X0101029Y0301132D01*
X0101078Y0301061D01*
X0101125Y0300988D01*
X0101168Y0300913D01*
X0101208Y0300836D01*
X0101245Y0300758D01*
X0101277Y0300678D01*
X0101306Y0300596D01*
X0101331Y0300513D01*
X0101353Y0300429D01*
X0101371Y0300344D01*
X0101384Y0300259D01*
X0101394Y0300173D01*
X0101400Y0300087D01*
X0101402Y0300000D01*
X0101400Y0299913D01*
X0101394Y0299827D01*
X0101384Y0299741D01*
X0101371Y0299656D01*
X0101353Y0299571D01*
X0101331Y0299487D01*
X0101306Y0299404D01*
X0101277Y0299322D01*
X0101245Y0299242D01*
X0101208Y0299164D01*
X0101168Y0299087D01*
X0101125Y0299012D01*
X0101078Y0298939D01*
X0101029Y0298868D01*
X0100975Y0298800D01*
X0100919Y0298734D01*
X0100860Y0298670D01*
X0100798Y0298610D01*
X0100734Y0298552D01*
X0100666Y0298498D01*
X0100597Y0298446D01*
X0100525Y0298398D01*
X0100451Y0298353D01*
X0100375Y0298311D01*
X0100297Y0298273D01*
X0100218Y0298239D01*
X0100137Y0298208D01*
X0100055Y0298181D01*
X0099971Y0298157D01*
X0099887Y0298138D01*
X0099802Y0298122D01*
X0099716Y0298110D01*
X0099630Y0298102D01*
X0099543Y0298098D01*
X0099457Y0298098D01*
X0099370Y0298102D01*
X0099284Y0298110D01*
X0099198Y0298122D01*
X0099113Y0298138D01*
X0099029Y0298157D01*
X0098945Y0298181D01*
X0098863Y0298208D01*
X0098782Y0298239D01*
X0098703Y0298273D01*
X0098625Y0298311D01*
X0098549Y0298353D01*
X0098475Y0298398D01*
X0098403Y0298446D01*
X0098334Y0298498D01*
X0098266Y0298552D01*
X0098202Y0298610D01*
X0098140Y0298670D01*
X0098081Y0298734D01*
X0098025Y0298800D01*
X0097971Y0298868D01*
X0097922Y0298939D01*
X0097875Y0299012D01*
X0097832Y0299087D01*
X0097792Y0299164D01*
X0097755Y0299242D01*
X0097723Y0299322D01*
X0097694Y0299404D01*
X0097669Y0299487D01*
X0097647Y0299571D01*
X0097629Y0299656D01*
X0097616Y0299741D01*
X0097606Y0299827D01*
X0097600Y0299913D01*
X0097598Y0300000D01*
X0107244Y0306096D02*
X0107246Y0305992D01*
X0107252Y0305888D01*
X0107262Y0305784D01*
X0107276Y0305680D01*
X0107293Y0305578D01*
X0107315Y0305475D01*
X0107340Y0305374D01*
X0107369Y0305274D01*
X0107402Y0305175D01*
X0107439Y0305078D01*
X0107479Y0304981D01*
X0107523Y0304887D01*
X0107571Y0304794D01*
X0107622Y0304703D01*
X0107676Y0304614D01*
X0107734Y0304527D01*
X0107795Y0304442D01*
X0107859Y0304360D01*
X0107926Y0304280D01*
X0107997Y0304203D01*
X0108070Y0304129D01*
X0108146Y0304057D01*
X0108224Y0303989D01*
X0108305Y0303923D01*
X0108389Y0303860D01*
X0108474Y0303801D01*
X0108562Y0303745D01*
X0108652Y0303692D01*
X0108744Y0303643D01*
X0108838Y0303597D01*
X0108933Y0303555D01*
X0109030Y0303516D01*
X0109129Y0303481D01*
X0109228Y0303450D01*
X0109329Y0303423D01*
X0109430Y0303400D01*
X0109533Y0303380D01*
X0109636Y0303364D01*
X0109740Y0303352D01*
X0109844Y0303344D01*
X0109948Y0303340D01*
X0110052Y0303340D01*
X0110156Y0303344D01*
X0110260Y0303352D01*
X0110364Y0303364D01*
X0110467Y0303380D01*
X0110570Y0303400D01*
X0110671Y0303423D01*
X0110772Y0303450D01*
X0110871Y0303481D01*
X0110970Y0303516D01*
X0111067Y0303555D01*
X0111162Y0303597D01*
X0111256Y0303643D01*
X0111348Y0303692D01*
X0111438Y0303745D01*
X0111526Y0303801D01*
X0111611Y0303860D01*
X0111695Y0303923D01*
X0111776Y0303989D01*
X0111854Y0304057D01*
X0111930Y0304129D01*
X0112003Y0304203D01*
X0112074Y0304280D01*
X0112141Y0304360D01*
X0112205Y0304442D01*
X0112266Y0304527D01*
X0112324Y0304614D01*
X0112378Y0304703D01*
X0112429Y0304794D01*
X0112477Y0304887D01*
X0112521Y0304981D01*
X0112561Y0305078D01*
X0112598Y0305175D01*
X0112631Y0305274D01*
X0112660Y0305374D01*
X0112685Y0305475D01*
X0112707Y0305578D01*
X0112724Y0305680D01*
X0112738Y0305784D01*
X0112748Y0305888D01*
X0112754Y0305992D01*
X0112756Y0306096D01*
X0064000Y0339000D02*
X0064002Y0339126D01*
X0064008Y0339252D01*
X0064018Y0339378D01*
X0064032Y0339504D01*
X0064050Y0339629D01*
X0064072Y0339753D01*
X0064097Y0339877D01*
X0064127Y0340000D01*
X0064160Y0340121D01*
X0064198Y0340242D01*
X0064239Y0340361D01*
X0064284Y0340480D01*
X0064332Y0340596D01*
X0064384Y0340711D01*
X0064440Y0340824D01*
X0064500Y0340936D01*
X0064563Y0341045D01*
X0064629Y0341153D01*
X0064698Y0341258D01*
X0064771Y0341361D01*
X0064848Y0341462D01*
X0064927Y0341560D01*
X0065009Y0341656D01*
X0065095Y0341749D01*
X0065183Y0341840D01*
X0065274Y0341927D01*
X0065368Y0342012D01*
X0065464Y0342093D01*
X0065563Y0342172D01*
X0065664Y0342247D01*
X0065768Y0342319D01*
X0065874Y0342388D01*
X0065982Y0342454D01*
X0066092Y0342516D01*
X0066204Y0342574D01*
X0066317Y0342629D01*
X0066433Y0342680D01*
X0066550Y0342728D01*
X0066668Y0342772D01*
X0066788Y0342812D01*
X0066909Y0342848D01*
X0067031Y0342881D01*
X0067154Y0342910D01*
X0067278Y0342934D01*
X0067402Y0342955D01*
X0067527Y0342972D01*
X0067653Y0342985D01*
X0067779Y0342994D01*
X0067905Y0342999D01*
X0068032Y0343000D01*
X0068158Y0342997D01*
X0068284Y0342990D01*
X0068410Y0342979D01*
X0068535Y0342964D01*
X0068660Y0342945D01*
X0068784Y0342922D01*
X0068908Y0342896D01*
X0069030Y0342865D01*
X0069152Y0342831D01*
X0069272Y0342792D01*
X0069391Y0342750D01*
X0069509Y0342705D01*
X0069625Y0342655D01*
X0069740Y0342602D01*
X0069852Y0342545D01*
X0069963Y0342485D01*
X0070072Y0342421D01*
X0070179Y0342354D01*
X0070284Y0342284D01*
X0070387Y0342210D01*
X0070487Y0342133D01*
X0070585Y0342053D01*
X0070680Y0341970D01*
X0070772Y0341884D01*
X0070862Y0341795D01*
X0070949Y0341703D01*
X0071032Y0341609D01*
X0071113Y0341512D01*
X0071191Y0341412D01*
X0071266Y0341310D01*
X0071337Y0341206D01*
X0071405Y0341099D01*
X0071469Y0340991D01*
X0071530Y0340880D01*
X0071588Y0340768D01*
X0071642Y0340654D01*
X0071692Y0340538D01*
X0071739Y0340421D01*
X0071782Y0340302D01*
X0071821Y0340182D01*
X0071857Y0340061D01*
X0071888Y0339938D01*
X0071916Y0339815D01*
X0071940Y0339691D01*
X0071960Y0339566D01*
X0071976Y0339441D01*
X0071988Y0339315D01*
X0071996Y0339189D01*
X0072000Y0339063D01*
X0072000Y0338937D01*
X0071996Y0338811D01*
X0071988Y0338685D01*
X0071976Y0338559D01*
X0071960Y0338434D01*
X0071940Y0338309D01*
X0071916Y0338185D01*
X0071888Y0338062D01*
X0071857Y0337939D01*
X0071821Y0337818D01*
X0071782Y0337698D01*
X0071739Y0337579D01*
X0071692Y0337462D01*
X0071642Y0337346D01*
X0071588Y0337232D01*
X0071530Y0337120D01*
X0071469Y0337009D01*
X0071405Y0336901D01*
X0071337Y0336794D01*
X0071266Y0336690D01*
X0071191Y0336588D01*
X0071113Y0336488D01*
X0071032Y0336391D01*
X0070949Y0336297D01*
X0070862Y0336205D01*
X0070772Y0336116D01*
X0070680Y0336030D01*
X0070585Y0335947D01*
X0070487Y0335867D01*
X0070387Y0335790D01*
X0070284Y0335716D01*
X0070179Y0335646D01*
X0070072Y0335579D01*
X0069963Y0335515D01*
X0069852Y0335455D01*
X0069740Y0335398D01*
X0069625Y0335345D01*
X0069509Y0335295D01*
X0069391Y0335250D01*
X0069272Y0335208D01*
X0069152Y0335169D01*
X0069030Y0335135D01*
X0068908Y0335104D01*
X0068784Y0335078D01*
X0068660Y0335055D01*
X0068535Y0335036D01*
X0068410Y0335021D01*
X0068284Y0335010D01*
X0068158Y0335003D01*
X0068032Y0335000D01*
X0067905Y0335001D01*
X0067779Y0335006D01*
X0067653Y0335015D01*
X0067527Y0335028D01*
X0067402Y0335045D01*
X0067278Y0335066D01*
X0067154Y0335090D01*
X0067031Y0335119D01*
X0066909Y0335152D01*
X0066788Y0335188D01*
X0066668Y0335228D01*
X0066550Y0335272D01*
X0066433Y0335320D01*
X0066317Y0335371D01*
X0066204Y0335426D01*
X0066092Y0335484D01*
X0065982Y0335546D01*
X0065874Y0335612D01*
X0065768Y0335681D01*
X0065664Y0335753D01*
X0065563Y0335828D01*
X0065464Y0335907D01*
X0065368Y0335988D01*
X0065274Y0336073D01*
X0065183Y0336160D01*
X0065095Y0336251D01*
X0065009Y0336344D01*
X0064927Y0336440D01*
X0064848Y0336538D01*
X0064771Y0336639D01*
X0064698Y0336742D01*
X0064629Y0336847D01*
X0064563Y0336955D01*
X0064500Y0337064D01*
X0064440Y0337176D01*
X0064384Y0337289D01*
X0064332Y0337404D01*
X0064284Y0337520D01*
X0064239Y0337639D01*
X0064198Y0337758D01*
X0064160Y0337879D01*
X0064127Y0338000D01*
X0064097Y0338123D01*
X0064072Y0338247D01*
X0064050Y0338371D01*
X0064032Y0338496D01*
X0064018Y0338622D01*
X0064008Y0338748D01*
X0064002Y0338874D01*
X0064000Y0339000D01*
X0039000Y0344173D02*
X0039000Y0064173D01*
X0006000Y0064173D01*
X0006000Y0344173D01*
X0039000Y0344173D01*
X0181772Y0266299D02*
X0183740Y0268268D01*
X0256260Y0268268D01*
X0258228Y0266299D01*
X0258228Y0193740D01*
X0256260Y0191772D01*
X0183740Y0191772D01*
X0181772Y0193740D01*
X0181772Y0266299D01*
X0188582Y0258465D02*
X0188584Y0258573D01*
X0188590Y0258682D01*
X0188600Y0258790D01*
X0188614Y0258897D01*
X0188632Y0259004D01*
X0188653Y0259111D01*
X0188679Y0259216D01*
X0188709Y0259321D01*
X0188742Y0259424D01*
X0188779Y0259526D01*
X0188820Y0259626D01*
X0188864Y0259725D01*
X0188913Y0259823D01*
X0188964Y0259918D01*
X0189019Y0260011D01*
X0189078Y0260103D01*
X0189140Y0260192D01*
X0189205Y0260279D01*
X0189273Y0260363D01*
X0189344Y0260445D01*
X0189418Y0260524D01*
X0189495Y0260600D01*
X0189575Y0260674D01*
X0189658Y0260744D01*
X0189743Y0260812D01*
X0189830Y0260876D01*
X0189920Y0260937D01*
X0190012Y0260995D01*
X0190106Y0261049D01*
X0190202Y0261100D01*
X0190299Y0261147D01*
X0190399Y0261191D01*
X0190500Y0261231D01*
X0190602Y0261267D01*
X0190705Y0261299D01*
X0190810Y0261328D01*
X0190916Y0261352D01*
X0191022Y0261373D01*
X0191129Y0261390D01*
X0191237Y0261403D01*
X0191345Y0261412D01*
X0191454Y0261417D01*
X0191562Y0261418D01*
X0191671Y0261415D01*
X0191779Y0261408D01*
X0191887Y0261397D01*
X0191994Y0261382D01*
X0192101Y0261363D01*
X0192207Y0261340D01*
X0192312Y0261314D01*
X0192417Y0261283D01*
X0192519Y0261249D01*
X0192621Y0261211D01*
X0192721Y0261169D01*
X0192820Y0261124D01*
X0192917Y0261075D01*
X0193011Y0261022D01*
X0193104Y0260966D01*
X0193195Y0260907D01*
X0193284Y0260844D01*
X0193370Y0260779D01*
X0193454Y0260710D01*
X0193535Y0260638D01*
X0193613Y0260563D01*
X0193689Y0260485D01*
X0193762Y0260404D01*
X0193832Y0260321D01*
X0193898Y0260236D01*
X0193962Y0260148D01*
X0194022Y0260057D01*
X0194079Y0259965D01*
X0194132Y0259870D01*
X0194182Y0259774D01*
X0194228Y0259676D01*
X0194271Y0259576D01*
X0194310Y0259475D01*
X0194345Y0259372D01*
X0194377Y0259269D01*
X0194404Y0259164D01*
X0194428Y0259058D01*
X0194448Y0258951D01*
X0194464Y0258844D01*
X0194476Y0258736D01*
X0194484Y0258628D01*
X0194488Y0258519D01*
X0194488Y0258411D01*
X0194484Y0258302D01*
X0194476Y0258194D01*
X0194464Y0258086D01*
X0194448Y0257979D01*
X0194428Y0257872D01*
X0194404Y0257766D01*
X0194377Y0257661D01*
X0194345Y0257558D01*
X0194310Y0257455D01*
X0194271Y0257354D01*
X0194228Y0257254D01*
X0194182Y0257156D01*
X0194132Y0257060D01*
X0194079Y0256965D01*
X0194022Y0256873D01*
X0193962Y0256782D01*
X0193898Y0256694D01*
X0193832Y0256609D01*
X0193762Y0256526D01*
X0193689Y0256445D01*
X0193613Y0256367D01*
X0193535Y0256292D01*
X0193454Y0256220D01*
X0193370Y0256151D01*
X0193284Y0256086D01*
X0193195Y0256023D01*
X0193104Y0255964D01*
X0193012Y0255908D01*
X0192917Y0255855D01*
X0192820Y0255806D01*
X0192721Y0255761D01*
X0192621Y0255719D01*
X0192519Y0255681D01*
X0192417Y0255647D01*
X0192312Y0255616D01*
X0192207Y0255590D01*
X0192101Y0255567D01*
X0191994Y0255548D01*
X0191887Y0255533D01*
X0191779Y0255522D01*
X0191671Y0255515D01*
X0191562Y0255512D01*
X0191454Y0255513D01*
X0191345Y0255518D01*
X0191237Y0255527D01*
X0191129Y0255540D01*
X0191022Y0255557D01*
X0190916Y0255578D01*
X0190810Y0255602D01*
X0190705Y0255631D01*
X0190602Y0255663D01*
X0190500Y0255699D01*
X0190399Y0255739D01*
X0190299Y0255783D01*
X0190202Y0255830D01*
X0190106Y0255881D01*
X0190012Y0255935D01*
X0189920Y0255993D01*
X0189830Y0256054D01*
X0189743Y0256118D01*
X0189658Y0256186D01*
X0189575Y0256256D01*
X0189495Y0256330D01*
X0189418Y0256406D01*
X0189344Y0256485D01*
X0189273Y0256567D01*
X0189205Y0256651D01*
X0189140Y0256738D01*
X0189078Y0256827D01*
X0189019Y0256919D01*
X0188964Y0257012D01*
X0188913Y0257107D01*
X0188864Y0257205D01*
X0188820Y0257304D01*
X0188779Y0257404D01*
X0188742Y0257506D01*
X0188709Y0257609D01*
X0188679Y0257714D01*
X0188653Y0257819D01*
X0188632Y0257926D01*
X0188614Y0258033D01*
X0188600Y0258140D01*
X0188590Y0258248D01*
X0188584Y0258357D01*
X0188582Y0258465D01*
X0124561Y0226096D02*
X0112756Y0226096D01*
X0107244Y0226096D01*
X0095439Y0226096D01*
X0095439Y0163904D01*
X0124561Y0163904D01*
X0124561Y0226096D01*
X0112756Y0226096D02*
X0112754Y0225992D01*
X0112748Y0225888D01*
X0112738Y0225784D01*
X0112724Y0225680D01*
X0112707Y0225578D01*
X0112685Y0225475D01*
X0112660Y0225374D01*
X0112631Y0225274D01*
X0112598Y0225175D01*
X0112561Y0225078D01*
X0112521Y0224981D01*
X0112477Y0224887D01*
X0112429Y0224794D01*
X0112378Y0224703D01*
X0112324Y0224614D01*
X0112266Y0224527D01*
X0112205Y0224442D01*
X0112141Y0224360D01*
X0112074Y0224280D01*
X0112003Y0224203D01*
X0111930Y0224129D01*
X0111854Y0224057D01*
X0111776Y0223989D01*
X0111695Y0223923D01*
X0111611Y0223860D01*
X0111526Y0223801D01*
X0111438Y0223745D01*
X0111348Y0223692D01*
X0111256Y0223643D01*
X0111162Y0223597D01*
X0111067Y0223555D01*
X0110970Y0223516D01*
X0110871Y0223481D01*
X0110772Y0223450D01*
X0110671Y0223423D01*
X0110570Y0223400D01*
X0110467Y0223380D01*
X0110364Y0223364D01*
X0110260Y0223352D01*
X0110156Y0223344D01*
X0110052Y0223340D01*
X0109948Y0223340D01*
X0109844Y0223344D01*
X0109740Y0223352D01*
X0109636Y0223364D01*
X0109533Y0223380D01*
X0109430Y0223400D01*
X0109329Y0223423D01*
X0109228Y0223450D01*
X0109129Y0223481D01*
X0109030Y0223516D01*
X0108933Y0223555D01*
X0108838Y0223597D01*
X0108744Y0223643D01*
X0108652Y0223692D01*
X0108562Y0223745D01*
X0108474Y0223801D01*
X0108389Y0223860D01*
X0108305Y0223923D01*
X0108224Y0223989D01*
X0108146Y0224057D01*
X0108070Y0224129D01*
X0107997Y0224203D01*
X0107926Y0224280D01*
X0107859Y0224360D01*
X0107795Y0224442D01*
X0107734Y0224527D01*
X0107676Y0224614D01*
X0107622Y0224703D01*
X0107571Y0224794D01*
X0107523Y0224887D01*
X0107479Y0224981D01*
X0107439Y0225078D01*
X0107402Y0225175D01*
X0107369Y0225274D01*
X0107340Y0225374D01*
X0107315Y0225475D01*
X0107293Y0225578D01*
X0107276Y0225680D01*
X0107262Y0225784D01*
X0107252Y0225888D01*
X0107246Y0225992D01*
X0107244Y0226096D01*
X0097598Y0220000D02*
X0097600Y0220087D01*
X0097606Y0220173D01*
X0097616Y0220259D01*
X0097629Y0220344D01*
X0097647Y0220429D01*
X0097669Y0220513D01*
X0097694Y0220596D01*
X0097723Y0220678D01*
X0097755Y0220758D01*
X0097792Y0220836D01*
X0097832Y0220913D01*
X0097875Y0220988D01*
X0097922Y0221061D01*
X0097971Y0221132D01*
X0098025Y0221200D01*
X0098081Y0221266D01*
X0098140Y0221330D01*
X0098202Y0221390D01*
X0098266Y0221448D01*
X0098334Y0221502D01*
X0098403Y0221554D01*
X0098475Y0221602D01*
X0098549Y0221647D01*
X0098625Y0221689D01*
X0098703Y0221727D01*
X0098782Y0221761D01*
X0098863Y0221792D01*
X0098945Y0221819D01*
X0099029Y0221843D01*
X0099113Y0221862D01*
X0099198Y0221878D01*
X0099284Y0221890D01*
X0099370Y0221898D01*
X0099457Y0221902D01*
X0099543Y0221902D01*
X0099630Y0221898D01*
X0099716Y0221890D01*
X0099802Y0221878D01*
X0099887Y0221862D01*
X0099971Y0221843D01*
X0100055Y0221819D01*
X0100137Y0221792D01*
X0100218Y0221761D01*
X0100297Y0221727D01*
X0100375Y0221689D01*
X0100451Y0221647D01*
X0100525Y0221602D01*
X0100597Y0221554D01*
X0100666Y0221502D01*
X0100734Y0221448D01*
X0100798Y0221390D01*
X0100860Y0221330D01*
X0100919Y0221266D01*
X0100975Y0221200D01*
X0101029Y0221132D01*
X0101078Y0221061D01*
X0101125Y0220988D01*
X0101168Y0220913D01*
X0101208Y0220836D01*
X0101245Y0220758D01*
X0101277Y0220678D01*
X0101306Y0220596D01*
X0101331Y0220513D01*
X0101353Y0220429D01*
X0101371Y0220344D01*
X0101384Y0220259D01*
X0101394Y0220173D01*
X0101400Y0220087D01*
X0101402Y0220000D01*
X0101400Y0219913D01*
X0101394Y0219827D01*
X0101384Y0219741D01*
X0101371Y0219656D01*
X0101353Y0219571D01*
X0101331Y0219487D01*
X0101306Y0219404D01*
X0101277Y0219322D01*
X0101245Y0219242D01*
X0101208Y0219164D01*
X0101168Y0219087D01*
X0101125Y0219012D01*
X0101078Y0218939D01*
X0101029Y0218868D01*
X0100975Y0218800D01*
X0100919Y0218734D01*
X0100860Y0218670D01*
X0100798Y0218610D01*
X0100734Y0218552D01*
X0100666Y0218498D01*
X0100597Y0218446D01*
X0100525Y0218398D01*
X0100451Y0218353D01*
X0100375Y0218311D01*
X0100297Y0218273D01*
X0100218Y0218239D01*
X0100137Y0218208D01*
X0100055Y0218181D01*
X0099971Y0218157D01*
X0099887Y0218138D01*
X0099802Y0218122D01*
X0099716Y0218110D01*
X0099630Y0218102D01*
X0099543Y0218098D01*
X0099457Y0218098D01*
X0099370Y0218102D01*
X0099284Y0218110D01*
X0099198Y0218122D01*
X0099113Y0218138D01*
X0099029Y0218157D01*
X0098945Y0218181D01*
X0098863Y0218208D01*
X0098782Y0218239D01*
X0098703Y0218273D01*
X0098625Y0218311D01*
X0098549Y0218353D01*
X0098475Y0218398D01*
X0098403Y0218446D01*
X0098334Y0218498D01*
X0098266Y0218552D01*
X0098202Y0218610D01*
X0098140Y0218670D01*
X0098081Y0218734D01*
X0098025Y0218800D01*
X0097971Y0218868D01*
X0097922Y0218939D01*
X0097875Y0219012D01*
X0097832Y0219087D01*
X0097792Y0219164D01*
X0097755Y0219242D01*
X0097723Y0219322D01*
X0097694Y0219404D01*
X0097669Y0219487D01*
X0097647Y0219571D01*
X0097629Y0219656D01*
X0097616Y0219741D01*
X0097606Y0219827D01*
X0097600Y0219913D01*
X0097598Y0220000D01*
X0152953Y0160669D02*
X0156703Y0160669D01*
X0159203Y0160669D01*
X0162953Y0160669D01*
X0352953Y0160669D01*
X0352953Y0140669D01*
X0152953Y0140669D01*
X0152953Y0150669D01*
X0152953Y0160669D01*
X0115000Y0151000D02*
X0115000Y0146000D01*
X0112500Y0143500D01*
X0107500Y0143500D01*
X0105000Y0146000D01*
X0102500Y0143500D01*
X0097500Y0143500D01*
X0095000Y0146000D01*
X0092500Y0143500D01*
X0087500Y0143500D01*
X0085000Y0146000D01*
X0082500Y0143500D01*
X0077500Y0143500D01*
X0075000Y0146000D01*
X0075000Y0151000D01*
X0077500Y0153500D01*
X0082500Y0153500D01*
X0085000Y0151000D01*
X0087500Y0153500D01*
X0092500Y0153500D01*
X0095000Y0151000D01*
X0097500Y0153500D01*
X0102500Y0153500D01*
X0105000Y0151000D01*
X0107500Y0153500D01*
X0112500Y0153500D01*
X0115000Y0151000D01*
X0112756Y0131096D02*
X0107244Y0131096D01*
X0095439Y0131096D01*
X0095439Y0068904D01*
X0124561Y0068904D01*
X0124561Y0131096D01*
X0112756Y0131096D01*
X0112754Y0130992D01*
X0112748Y0130888D01*
X0112738Y0130784D01*
X0112724Y0130680D01*
X0112707Y0130578D01*
X0112685Y0130475D01*
X0112660Y0130374D01*
X0112631Y0130274D01*
X0112598Y0130175D01*
X0112561Y0130078D01*
X0112521Y0129981D01*
X0112477Y0129887D01*
X0112429Y0129794D01*
X0112378Y0129703D01*
X0112324Y0129614D01*
X0112266Y0129527D01*
X0112205Y0129442D01*
X0112141Y0129360D01*
X0112074Y0129280D01*
X0112003Y0129203D01*
X0111930Y0129129D01*
X0111854Y0129057D01*
X0111776Y0128989D01*
X0111695Y0128923D01*
X0111611Y0128860D01*
X0111526Y0128801D01*
X0111438Y0128745D01*
X0111348Y0128692D01*
X0111256Y0128643D01*
X0111162Y0128597D01*
X0111067Y0128555D01*
X0110970Y0128516D01*
X0110871Y0128481D01*
X0110772Y0128450D01*
X0110671Y0128423D01*
X0110570Y0128400D01*
X0110467Y0128380D01*
X0110364Y0128364D01*
X0110260Y0128352D01*
X0110156Y0128344D01*
X0110052Y0128340D01*
X0109948Y0128340D01*
X0109844Y0128344D01*
X0109740Y0128352D01*
X0109636Y0128364D01*
X0109533Y0128380D01*
X0109430Y0128400D01*
X0109329Y0128423D01*
X0109228Y0128450D01*
X0109129Y0128481D01*
X0109030Y0128516D01*
X0108933Y0128555D01*
X0108838Y0128597D01*
X0108744Y0128643D01*
X0108652Y0128692D01*
X0108562Y0128745D01*
X0108474Y0128801D01*
X0108389Y0128860D01*
X0108305Y0128923D01*
X0108224Y0128989D01*
X0108146Y0129057D01*
X0108070Y0129129D01*
X0107997Y0129203D01*
X0107926Y0129280D01*
X0107859Y0129360D01*
X0107795Y0129442D01*
X0107734Y0129527D01*
X0107676Y0129614D01*
X0107622Y0129703D01*
X0107571Y0129794D01*
X0107523Y0129887D01*
X0107479Y0129981D01*
X0107439Y0130078D01*
X0107402Y0130175D01*
X0107369Y0130274D01*
X0107340Y0130374D01*
X0107315Y0130475D01*
X0107293Y0130578D01*
X0107276Y0130680D01*
X0107262Y0130784D01*
X0107252Y0130888D01*
X0107246Y0130992D01*
X0107244Y0131096D01*
X0097598Y0125000D02*
X0097600Y0125087D01*
X0097606Y0125173D01*
X0097616Y0125259D01*
X0097629Y0125344D01*
X0097647Y0125429D01*
X0097669Y0125513D01*
X0097694Y0125596D01*
X0097723Y0125678D01*
X0097755Y0125758D01*
X0097792Y0125836D01*
X0097832Y0125913D01*
X0097875Y0125988D01*
X0097922Y0126061D01*
X0097971Y0126132D01*
X0098025Y0126200D01*
X0098081Y0126266D01*
X0098140Y0126330D01*
X0098202Y0126390D01*
X0098266Y0126448D01*
X0098334Y0126502D01*
X0098403Y0126554D01*
X0098475Y0126602D01*
X0098549Y0126647D01*
X0098625Y0126689D01*
X0098703Y0126727D01*
X0098782Y0126761D01*
X0098863Y0126792D01*
X0098945Y0126819D01*
X0099029Y0126843D01*
X0099113Y0126862D01*
X0099198Y0126878D01*
X0099284Y0126890D01*
X0099370Y0126898D01*
X0099457Y0126902D01*
X0099543Y0126902D01*
X0099630Y0126898D01*
X0099716Y0126890D01*
X0099802Y0126878D01*
X0099887Y0126862D01*
X0099971Y0126843D01*
X0100055Y0126819D01*
X0100137Y0126792D01*
X0100218Y0126761D01*
X0100297Y0126727D01*
X0100375Y0126689D01*
X0100451Y0126647D01*
X0100525Y0126602D01*
X0100597Y0126554D01*
X0100666Y0126502D01*
X0100734Y0126448D01*
X0100798Y0126390D01*
X0100860Y0126330D01*
X0100919Y0126266D01*
X0100975Y0126200D01*
X0101029Y0126132D01*
X0101078Y0126061D01*
X0101125Y0125988D01*
X0101168Y0125913D01*
X0101208Y0125836D01*
X0101245Y0125758D01*
X0101277Y0125678D01*
X0101306Y0125596D01*
X0101331Y0125513D01*
X0101353Y0125429D01*
X0101371Y0125344D01*
X0101384Y0125259D01*
X0101394Y0125173D01*
X0101400Y0125087D01*
X0101402Y0125000D01*
X0101400Y0124913D01*
X0101394Y0124827D01*
X0101384Y0124741D01*
X0101371Y0124656D01*
X0101353Y0124571D01*
X0101331Y0124487D01*
X0101306Y0124404D01*
X0101277Y0124322D01*
X0101245Y0124242D01*
X0101208Y0124164D01*
X0101168Y0124087D01*
X0101125Y0124012D01*
X0101078Y0123939D01*
X0101029Y0123868D01*
X0100975Y0123800D01*
X0100919Y0123734D01*
X0100860Y0123670D01*
X0100798Y0123610D01*
X0100734Y0123552D01*
X0100666Y0123498D01*
X0100597Y0123446D01*
X0100525Y0123398D01*
X0100451Y0123353D01*
X0100375Y0123311D01*
X0100297Y0123273D01*
X0100218Y0123239D01*
X0100137Y0123208D01*
X0100055Y0123181D01*
X0099971Y0123157D01*
X0099887Y0123138D01*
X0099802Y0123122D01*
X0099716Y0123110D01*
X0099630Y0123102D01*
X0099543Y0123098D01*
X0099457Y0123098D01*
X0099370Y0123102D01*
X0099284Y0123110D01*
X0099198Y0123122D01*
X0099113Y0123138D01*
X0099029Y0123157D01*
X0098945Y0123181D01*
X0098863Y0123208D01*
X0098782Y0123239D01*
X0098703Y0123273D01*
X0098625Y0123311D01*
X0098549Y0123353D01*
X0098475Y0123398D01*
X0098403Y0123446D01*
X0098334Y0123498D01*
X0098266Y0123552D01*
X0098202Y0123610D01*
X0098140Y0123670D01*
X0098081Y0123734D01*
X0098025Y0123800D01*
X0097971Y0123868D01*
X0097922Y0123939D01*
X0097875Y0124012D01*
X0097832Y0124087D01*
X0097792Y0124164D01*
X0097755Y0124242D01*
X0097723Y0124322D01*
X0097694Y0124404D01*
X0097669Y0124487D01*
X0097647Y0124571D01*
X0097629Y0124656D01*
X0097616Y0124741D01*
X0097606Y0124827D01*
X0097600Y0124913D01*
X0097598Y0125000D01*
X0177000Y0102500D02*
X0177000Y0097500D01*
X0177000Y0102500D02*
X0193000Y0102500D01*
X0193000Y0097500D01*
X0197000Y0097500D02*
X0197000Y0102500D01*
X0213000Y0102500D01*
X0213000Y0097500D01*
X0217000Y0097500D02*
X0217000Y0102500D01*
X0233000Y0102500D01*
X0233000Y0097500D01*
X0257000Y0087000D02*
X0257000Y0082000D01*
X0257000Y0087000D02*
X0273000Y0087000D01*
X0273000Y0082000D01*
X0279724Y0074843D02*
X0279724Y0055157D01*
X0290157Y0044724D01*
X0309843Y0044724D02*
X0320276Y0055157D01*
X0320276Y0074843D01*
X0309843Y0085276D01*
X0327000Y0087000D02*
X0327000Y0082000D01*
X0327000Y0087000D02*
X0343000Y0087000D01*
X0343000Y0082000D01*
X0343000Y0067000D02*
X0343000Y0062000D01*
X0327000Y0062000D01*
X0327000Y0067000D01*
X0290157Y0085276D02*
X0279724Y0074843D01*
X0273000Y0067000D02*
X0273000Y0062000D01*
X0257000Y0062000D01*
X0257000Y0067000D01*
X0233000Y0077500D02*
X0233000Y0082500D01*
X0233000Y0077500D02*
X0217000Y0077500D01*
X0217000Y0082500D01*
X0213000Y0082500D02*
X0213000Y0077500D01*
X0197000Y0077500D01*
X0197000Y0082500D01*
X0193000Y0082500D02*
X0193000Y0077500D01*
X0177000Y0077500D01*
X0177000Y0082500D01*
X0177000Y0047500D02*
X0177000Y0042500D01*
X0177000Y0047500D02*
X0193000Y0047500D01*
X0193000Y0042500D01*
X0193000Y0027500D02*
X0193000Y0022500D01*
X0177000Y0022500D01*
X0177000Y0027500D01*
X0250500Y0027500D02*
X0250500Y0022500D01*
X0266500Y0022500D01*
X0266500Y0027500D01*
X0266500Y0042500D02*
X0266500Y0047500D01*
X0250500Y0047500D01*
X0250500Y0042500D01*
X0322500Y0118500D02*
X0335000Y0118500D01*
X0335000Y0138500D01*
X0337500Y0138500D01*
X0337500Y0138000D01*
X0335000Y0138500D02*
X0322500Y0138500D01*
X0322500Y0138000D01*
X0322500Y0119000D02*
X0322500Y0118500D01*
X0335000Y0118500D02*
X0337500Y0118500D01*
X0337500Y0119000D01*
X0328933Y0205214D02*
X0291138Y0205214D01*
X0291138Y0277714D01*
X0305036Y0277714D01*
X0315036Y0277714D01*
X0328933Y0277714D01*
X0328933Y0205214D01*
X0315036Y0277714D02*
X0315034Y0277574D01*
X0315028Y0277434D01*
X0315018Y0277294D01*
X0315005Y0277154D01*
X0314987Y0277015D01*
X0314965Y0276876D01*
X0314940Y0276739D01*
X0314911Y0276601D01*
X0314878Y0276465D01*
X0314841Y0276330D01*
X0314800Y0276196D01*
X0314755Y0276063D01*
X0314707Y0275931D01*
X0314655Y0275801D01*
X0314600Y0275672D01*
X0314541Y0275545D01*
X0314478Y0275419D01*
X0314412Y0275295D01*
X0314343Y0275174D01*
X0314270Y0275054D01*
X0314193Y0274936D01*
X0314114Y0274821D01*
X0314031Y0274707D01*
X0313945Y0274597D01*
X0313856Y0274488D01*
X0313764Y0274382D01*
X0313669Y0274279D01*
X0313572Y0274178D01*
X0313471Y0274081D01*
X0313368Y0273986D01*
X0313262Y0273894D01*
X0313153Y0273805D01*
X0313043Y0273719D01*
X0312929Y0273636D01*
X0312814Y0273557D01*
X0312696Y0273480D01*
X0312576Y0273407D01*
X0312455Y0273338D01*
X0312331Y0273272D01*
X0312205Y0273209D01*
X0312078Y0273150D01*
X0311949Y0273095D01*
X0311819Y0273043D01*
X0311687Y0272995D01*
X0311554Y0272950D01*
X0311420Y0272909D01*
X0311285Y0272872D01*
X0311149Y0272839D01*
X0311011Y0272810D01*
X0310874Y0272785D01*
X0310735Y0272763D01*
X0310596Y0272745D01*
X0310456Y0272732D01*
X0310316Y0272722D01*
X0310176Y0272716D01*
X0310036Y0272714D01*
X0309896Y0272716D01*
X0309756Y0272722D01*
X0309616Y0272732D01*
X0309476Y0272745D01*
X0309337Y0272763D01*
X0309198Y0272785D01*
X0309061Y0272810D01*
X0308923Y0272839D01*
X0308787Y0272872D01*
X0308652Y0272909D01*
X0308518Y0272950D01*
X0308385Y0272995D01*
X0308253Y0273043D01*
X0308123Y0273095D01*
X0307994Y0273150D01*
X0307867Y0273209D01*
X0307741Y0273272D01*
X0307617Y0273338D01*
X0307496Y0273407D01*
X0307376Y0273480D01*
X0307258Y0273557D01*
X0307143Y0273636D01*
X0307029Y0273719D01*
X0306919Y0273805D01*
X0306810Y0273894D01*
X0306704Y0273986D01*
X0306601Y0274081D01*
X0306500Y0274178D01*
X0306403Y0274279D01*
X0306308Y0274382D01*
X0306216Y0274488D01*
X0306127Y0274597D01*
X0306041Y0274707D01*
X0305958Y0274821D01*
X0305879Y0274936D01*
X0305802Y0275054D01*
X0305729Y0275174D01*
X0305660Y0275295D01*
X0305594Y0275419D01*
X0305531Y0275545D01*
X0305472Y0275672D01*
X0305417Y0275801D01*
X0305365Y0275931D01*
X0305317Y0276063D01*
X0305272Y0276196D01*
X0305231Y0276330D01*
X0305194Y0276465D01*
X0305161Y0276601D01*
X0305132Y0276739D01*
X0305107Y0276876D01*
X0305085Y0277015D01*
X0305067Y0277154D01*
X0305054Y0277294D01*
X0305044Y0277434D01*
X0305038Y0277574D01*
X0305036Y0277714D01*
X0102480Y0063150D02*
X0087520Y0063150D01*
X0087520Y0056850D01*
X0102480Y0056850D01*
X0102480Y0063150D01*
D15*
X0035000Y0069173D02*
X0032000Y0066173D01*
X0032000Y0072173D01*
X0035000Y0069173D01*
X0034865Y0069308D02*
X0032000Y0069308D01*
X0032000Y0069806D02*
X0034367Y0069806D01*
X0033868Y0070305D02*
X0032000Y0070305D01*
X0032000Y0070803D02*
X0033370Y0070803D01*
X0032871Y0071302D02*
X0032000Y0071302D01*
X0032000Y0071801D02*
X0032373Y0071801D01*
X0032000Y0068809D02*
X0034636Y0068809D01*
X0034138Y0068311D02*
X0032000Y0068311D01*
X0032000Y0067812D02*
X0033639Y0067812D01*
X0033141Y0067314D02*
X0032000Y0067314D01*
X0032000Y0066815D02*
X0032642Y0066815D01*
X0032144Y0066317D02*
X0032000Y0066317D01*
X0069500Y0145000D02*
X0073000Y0148500D01*
X0069500Y0152000D01*
X0069500Y0145000D01*
X0069500Y0145082D02*
X0069582Y0145082D01*
X0069500Y0145580D02*
X0070080Y0145580D01*
X0070579Y0146079D02*
X0069500Y0146079D01*
X0069500Y0146577D02*
X0071077Y0146577D01*
X0071576Y0147076D02*
X0069500Y0147076D01*
X0069500Y0147574D02*
X0072074Y0147574D01*
X0072573Y0148073D02*
X0069500Y0148073D01*
X0069500Y0148571D02*
X0072929Y0148571D01*
X0072430Y0149070D02*
X0069500Y0149070D01*
X0069500Y0149568D02*
X0071932Y0149568D01*
X0071433Y0150067D02*
X0069500Y0150067D01*
X0069500Y0150565D02*
X0070935Y0150565D01*
X0070436Y0151064D02*
X0069500Y0151064D01*
X0069500Y0151562D02*
X0069938Y0151562D01*
X0152953Y0150669D02*
X0162953Y0150669D01*
X0162953Y0160669D01*
X0159203Y0160669D02*
X0159203Y0161919D01*
X0156703Y0161919D01*
X0156703Y0160669D01*
X0195000Y0070000D02*
X0196000Y0068500D01*
X0197000Y0070000D01*
X0195000Y0070000D01*
D16*
X0050000Y0069173D03*
X0040000Y0069173D03*
X0040000Y0079173D03*
X0050000Y0079173D03*
X0050000Y0089173D03*
X0040000Y0089173D03*
X0040000Y0099173D03*
X0050000Y0099173D03*
X0050000Y0109173D03*
X0040000Y0109173D03*
X0040000Y0119173D03*
X0050000Y0119173D03*
X0050000Y0129173D03*
X0040000Y0129173D03*
X0040000Y0139173D03*
X0050000Y0139173D03*
X0050000Y0149173D03*
X0040000Y0149173D03*
X0040000Y0159173D03*
X0050000Y0159173D03*
X0050000Y0169173D03*
X0040000Y0169173D03*
X0040000Y0179173D03*
X0050000Y0179173D03*
X0050000Y0189173D03*
X0040000Y0189173D03*
X0040000Y0199173D03*
X0050000Y0199173D03*
X0050000Y0199173D03*
X0050000Y0209173D03*
X0040000Y0209173D03*
X0040000Y0219173D03*
X0050000Y0219173D03*
X0050000Y0229173D03*
X0040000Y0229173D03*
X0040000Y0239173D03*
X0050000Y0239173D03*
X0050000Y0249173D03*
X0040000Y0249173D03*
X0040000Y0259173D03*
X0050000Y0259173D03*
X0050000Y0269173D03*
X0040000Y0269173D03*
X0040000Y0279173D03*
X0050000Y0279173D03*
X0050000Y0289173D03*
X0040000Y0289173D03*
X0040000Y0299173D03*
X0050000Y0299173D03*
X0050000Y0309173D03*
X0040000Y0309173D03*
X0040000Y0319173D03*
X0050000Y0319173D03*
X0050000Y0329173D03*
X0040000Y0329173D03*
X0040000Y0339173D03*
X0050000Y0339173D03*
D17*
X0227551Y0337480D02*
X0227551Y0335512D01*
X0246449Y0335512D01*
X0246449Y0322520D01*
X0243000Y0322500D02*
X0241000Y0322500D01*
X0238000Y0322500D02*
X0236000Y0322500D01*
X0233000Y0322500D02*
X0231000Y0322500D01*
X0227551Y0322520D02*
X0227551Y0335512D01*
X0231000Y0337500D02*
X0233000Y0337500D01*
X0236000Y0337500D02*
X0238000Y0337500D01*
X0241000Y0337500D02*
X0243000Y0337500D01*
X0246449Y0337480D02*
X0246449Y0335512D01*
D18*
X0244000Y0332500D03*
D19*
X0295036Y0272714D03*
D20*
X0304387Y0280560D02*
X0305855Y0280560D01*
X0305121Y0280560D02*
X0305121Y0284963D01*
X0304387Y0284963D02*
X0305855Y0284963D01*
X0307456Y0284230D02*
X0307456Y0281294D01*
X0308190Y0280560D01*
X0309658Y0280560D01*
X0310392Y0281294D01*
X0312060Y0282762D02*
X0314996Y0282762D01*
X0314262Y0284963D02*
X0312060Y0282762D01*
X0310392Y0284230D02*
X0309658Y0284963D01*
X0308190Y0284963D01*
X0307456Y0284230D01*
X0314262Y0284963D02*
X0314262Y0280560D01*
X0153000Y0263500D02*
X0153000Y0255500D01*
X0152000Y0254500D01*
X0144000Y0254500D01*
X0143000Y0255500D01*
X0142000Y0254500D01*
X0134000Y0254500D01*
X0133000Y0255500D01*
X0133000Y0263500D01*
X0134000Y0264500D01*
X0142000Y0264500D01*
X0143000Y0263500D01*
X0144000Y0264500D01*
X0152000Y0264500D01*
X0153000Y0263500D01*
X0082000Y0221000D02*
X0081000Y0222000D01*
X0073000Y0222000D01*
X0072000Y0221000D01*
X0071000Y0222000D01*
X0063000Y0222000D01*
X0062000Y0221000D01*
X0062000Y0213000D01*
X0063000Y0212000D01*
X0071000Y0212000D01*
X0072000Y0213000D01*
X0073000Y0212000D01*
X0081000Y0212000D01*
X0082000Y0213000D01*
X0082000Y0221000D01*
D21*
X0119134Y0319550D02*
X0120219Y0319550D01*
X0121303Y0320634D01*
X0121303Y0326056D01*
X0120219Y0326056D02*
X0122387Y0326056D01*
X0125048Y0326056D02*
X0129385Y0326056D01*
X0127216Y0326056D02*
X0127216Y0319550D01*
X0132046Y0319550D02*
X0132046Y0323887D01*
X0134214Y0326056D01*
X0136383Y0323887D01*
X0136383Y0319550D01*
X0139044Y0320634D02*
X0140128Y0319550D01*
X0142297Y0319550D01*
X0143381Y0320634D01*
X0143381Y0322803D01*
X0141212Y0322803D01*
X0139044Y0324971D02*
X0139044Y0320634D01*
X0136383Y0322803D02*
X0132046Y0322803D01*
X0139044Y0324971D02*
X0140128Y0326056D01*
X0142297Y0326056D01*
X0143381Y0324971D01*
X0119134Y0319550D02*
X0118050Y0320634D01*
X0169550Y0330050D02*
X0171518Y0330050D01*
X0170534Y0330050D02*
X0170534Y0335955D01*
X0169550Y0335955D02*
X0171518Y0335955D01*
X0173847Y0335955D02*
X0177784Y0330050D01*
X0177784Y0335955D01*
X0180292Y0335955D02*
X0184229Y0335955D01*
X0182261Y0335955D02*
X0182261Y0330050D01*
X0186738Y0330050D02*
X0190675Y0333987D01*
X0190675Y0334971D01*
X0189691Y0335955D01*
X0187722Y0335955D01*
X0186738Y0334971D01*
X0186738Y0330050D02*
X0190675Y0330050D01*
X0173847Y0330050D02*
X0173847Y0335955D01*
D22*
X0181500Y0066000D02*
X0183000Y0066000D01*
X0181500Y0066000D02*
X0181500Y0063500D01*
X0181500Y0056500D02*
X0181500Y0054000D01*
X0183000Y0054000D01*
X0197000Y0054000D02*
X0198500Y0054000D01*
X0198500Y0056500D01*
X0198500Y0063500D02*
X0198500Y0066000D01*
X0197000Y0066000D01*
X0108099Y0045455D02*
X0108102Y0045431D01*
X0108103Y0045406D01*
X0108101Y0045382D01*
X0108098Y0045358D01*
X0108093Y0045334D01*
X0108087Y0045311D01*
X0108078Y0045287D01*
X0108069Y0045264D01*
X0108058Y0045241D01*
X0108046Y0045218D01*
X0108032Y0045195D01*
X0108018Y0045172D01*
X0108002Y0045150D01*
X0107985Y0045128D01*
X0107968Y0045106D01*
X0107949Y0045084D01*
X0107931Y0045063D01*
X0107912Y0045042D01*
X0107893Y0045022D01*
X0107875Y0045003D01*
X0107857Y0044984D01*
X0107839Y0044966D01*
X0107821Y0044948D01*
X0107802Y0044930D01*
X0107782Y0044911D01*
X0107759Y0044889D01*
X0107732Y0044862D01*
X0107697Y0044829D01*
X0107652Y0044785D01*
X0107592Y0044728D01*
X0107512Y0044651D01*
X0107406Y0044549D01*
X0107269Y0044417D01*
X0107092Y0044247D01*
X0106870Y0044033D01*
X0106596Y0043768D01*
X0106262Y0043447D01*
X0105864Y0043064D01*
X0105399Y0042615D01*
X0104863Y0042099D01*
X0104258Y0041516D01*
X0103587Y0040869D01*
X0102853Y0040162D01*
X0102066Y0039404D01*
X0101235Y0038603D01*
X0100372Y0037771D01*
X0099490Y0036921D01*
X0098604Y0036067D01*
X0097727Y0035222D01*
X0096875Y0034401D01*
X0096059Y0033614D01*
X0095291Y0032874D01*
X0094580Y0032189D01*
X0093933Y0031565D01*
X0093355Y0031007D01*
X0092849Y0030517D01*
X0092413Y0030095D01*
X0092048Y0029737D01*
X0091748Y0029439D01*
X0091511Y0029198D01*
X0091332Y0029005D01*
X0091205Y0028855D01*
X0091128Y0028740D01*
X0091095Y0028655D01*
X0091105Y0028594D01*
X0091155Y0028551D01*
X0091243Y0028521D01*
X0091370Y0028502D01*
X0091535Y0028490D01*
X0091737Y0028483D01*
X0091978Y0028479D01*
X0092255Y0028476D01*
X0092567Y0028475D01*
X0092912Y0028475D01*
X0093286Y0028475D01*
X0093685Y0028475D01*
X0094103Y0028475D01*
X0094534Y0028475D01*
X0094971Y0028475D01*
X0095407Y0028475D01*
X0095835Y0028475D01*
X0096249Y0028475D01*
X0096641Y0028475D01*
X0097008Y0028475D01*
X0097345Y0028475D01*
X0097650Y0028476D01*
X0097920Y0028477D01*
X0098156Y0028479D01*
X0098359Y0028482D01*
X0098530Y0028488D01*
X0098672Y0028498D01*
X0098789Y0028512D01*
X0098885Y0028532D01*
X0098963Y0028561D01*
X0099028Y0028600D01*
X0099084Y0028653D01*
X0099135Y0028722D01*
X0099185Y0028810D01*
X0099236Y0028920D01*
X0099291Y0029054D01*
X0099352Y0029215D01*
X0099421Y0029404D01*
X0099499Y0029622D01*
X0099586Y0029869D01*
X0099682Y0030144D01*
X0099788Y0030445D01*
X0099901Y0030768D01*
X0100020Y0031110D01*
X0100145Y0031466D01*
X0100272Y0031831D01*
X0100401Y0032199D01*
X0100529Y0032564D01*
X0100653Y0032921D01*
X0100773Y0033265D01*
X0100887Y0033592D01*
X0100994Y0033898D01*
X0101093Y0034181D01*
X0101183Y0034439D01*
X0101264Y0034674D01*
X0101338Y0034884D01*
X0101403Y0035073D01*
X0101461Y0035242D01*
X0101513Y0035394D01*
X0101560Y0035531D01*
X0101603Y0035657D01*
X0101642Y0035774D01*
X0101679Y0035884D01*
X0101714Y0035988D01*
X0101747Y0036089D01*
X0101779Y0036187D01*
X0101811Y0036281D01*
X0101841Y0036373D01*
X0101871Y0036461D01*
X0101901Y0036545D01*
X0101930Y0036624D01*
X0101959Y0036698D01*
X0101989Y0036765D01*
X0102020Y0036826D01*
X0102052Y0036881D01*
X0102087Y0036929D01*
X0102125Y0036970D01*
X0102168Y0037007D01*
X0102216Y0037039D01*
X0102270Y0037066D01*
X0102331Y0037091D01*
X0102398Y0037113D01*
X0102472Y0037134D01*
X0102553Y0037154D01*
X0102640Y0037173D01*
X0102733Y0037193D01*
X0102829Y0037213D01*
X0102929Y0037234D01*
X0103031Y0037254D01*
X0103134Y0037276D01*
X0103236Y0037297D01*
X0103337Y0037318D01*
X0103436Y0037339D01*
X0103534Y0037360D01*
X0103630Y0037381D01*
X0103725Y0037402D01*
X0103820Y0037423D01*
X0103915Y0037444D01*
X0104013Y0037466D01*
X0104114Y0037488D01*
X0104221Y0037512D01*
X0104333Y0037537D01*
X0104452Y0037564D01*
X0104578Y0037592D01*
X0104711Y0037622D01*
X0104850Y0037653D01*
X0104995Y0037685D01*
X0105145Y0037718D01*
X0105297Y0037752D01*
X0105449Y0037786D01*
X0105599Y0037819D01*
X0105746Y0037852D01*
X0105887Y0037883D01*
X0106020Y0037913D01*
X0106144Y0037941D01*
X0106257Y0037966D01*
X0106360Y0037989D01*
X0106452Y0038009D01*
X0106532Y0038026D01*
X0106602Y0038042D01*
X0106662Y0038055D01*
X0106714Y0038066D01*
X0106758Y0038075D01*
X0106795Y0038083D01*
X0106828Y0038090D01*
X0106858Y0038096D01*
X0106884Y0038102D01*
X0106909Y0038107D01*
X0106934Y0038112D01*
X0106958Y0038117D01*
X0106984Y0038122D01*
X0107010Y0038127D01*
X0107037Y0038133D01*
X0107066Y0038139D01*
X0107096Y0038145D01*
X0107128Y0038151D01*
X0107161Y0038158D01*
X0107195Y0038165D01*
X0107230Y0038173D01*
X0107266Y0038180D01*
X0107302Y0038187D01*
X0107339Y0038194D01*
X0107375Y0038201D01*
X0107411Y0038207D01*
X0107447Y0038213D01*
X0107482Y0038219D01*
X0107516Y0038224D01*
X0107549Y0038229D01*
X0107581Y0038233D01*
X0107612Y0038236D01*
X0107642Y0038239D01*
X0107670Y0038242D01*
X0107697Y0038244D01*
X0107723Y0038245D01*
X0107748Y0038246D01*
X0107771Y0038247D01*
X0107794Y0038247D01*
X0107815Y0038247D01*
X0107836Y0038246D01*
X0107856Y0038245D01*
X0107874Y0038243D01*
X0107893Y0038241D01*
X0107910Y0038238D01*
X0107927Y0038235D01*
X0107943Y0038231D01*
X0107959Y0038226D01*
X0107974Y0038220D01*
X0107989Y0038214D01*
X0108003Y0038207D01*
X0108016Y0038199D01*
X0108029Y0038190D01*
X0108041Y0038180D01*
X0108052Y0038170D01*
X0108063Y0038158D01*
X0108073Y0038146D01*
X0108082Y0038133D01*
X0108090Y0038119D01*
X0108097Y0038104D01*
X0108103Y0038089D01*
X0108109Y0038072D01*
X0108113Y0038055D01*
X0108117Y0038037D01*
X0108120Y0038019D01*
X0108122Y0037999D01*
X0108123Y0037979D01*
X0108123Y0037958D01*
X0108123Y0037936D01*
X0108123Y0037912D01*
X0108121Y0037888D01*
X0108119Y0037863D01*
X0108117Y0037836D01*
X0108113Y0037809D01*
X0108109Y0037780D01*
X0108105Y0037749D01*
X0108099Y0037717D01*
X0108093Y0037684D01*
X0108086Y0037649D01*
X0108078Y0037613D01*
X0108069Y0037576D01*
X0108059Y0037538D01*
X0108049Y0037499D01*
X0108038Y0037459D01*
X0108027Y0037419D01*
X0108015Y0037379D01*
X0108003Y0037338D01*
X0107990Y0037299D01*
X0107978Y0037260D01*
X0107965Y0037222D01*
X0107953Y0037186D01*
X0107941Y0037151D01*
X0107930Y0037117D01*
X0107919Y0037085D01*
X0107908Y0037053D01*
X0107897Y0037023D01*
X0107886Y0036992D01*
X0107874Y0036960D01*
X0107861Y0036924D01*
X0107847Y0036884D01*
X0107830Y0036837D01*
X0107810Y0036779D01*
X0107785Y0036709D01*
X0107754Y0036621D01*
X0107716Y0036514D01*
X0107670Y0036383D01*
X0107615Y0036225D01*
X0107549Y0036036D01*
X0107472Y0035816D01*
X0107383Y0035562D01*
X0107283Y0035275D01*
X0107170Y0034954D01*
X0107047Y0034601D01*
X0106915Y0034222D01*
X0106774Y0033818D01*
X0106627Y0033397D01*
X0106476Y0032964D01*
X0106323Y0032526D01*
X0106171Y0032091D01*
X0106022Y0031665D01*
X0105879Y0031254D01*
X0105743Y0030866D01*
X0105617Y0030504D01*
X0105501Y0030172D01*
X0105397Y0029874D01*
X0105305Y0029610D01*
X0105226Y0029381D01*
X0105159Y0029185D01*
X0105105Y0029022D01*
X0105061Y0028888D01*
X0105029Y0028780D01*
X0105008Y0028695D01*
X0104996Y0028630D01*
X0104994Y0028582D01*
X0105001Y0028546D01*
X0105019Y0028521D01*
X0105045Y0028503D01*
X0105082Y0028492D01*
X0105130Y0028484D01*
X0105188Y0028480D01*
X0105257Y0028477D01*
X0105337Y0028476D01*
X0105427Y0028475D01*
X0105528Y0028475D01*
X0105637Y0028475D01*
X0105755Y0028475D01*
X0105879Y0028475D01*
X0106008Y0028475D01*
X0106139Y0028475D01*
X0106271Y0028474D01*
X0106402Y0028474D01*
X0106528Y0028474D01*
X0106650Y0028474D01*
X0106764Y0028474D01*
X0106870Y0028474D01*
X0106967Y0028474D01*
X0107054Y0028473D01*
X0107131Y0028473D01*
X0107198Y0028472D01*
X0107256Y0028471D01*
X0107305Y0028470D01*
X0107346Y0028469D01*
X0107381Y0028468D01*
X0107411Y0028467D01*
X0107436Y0028465D01*
X0107457Y0028464D01*
X0107476Y0028462D01*
X0107494Y0028461D01*
X0107510Y0028459D01*
X0107526Y0028458D01*
X0107542Y0028456D01*
X0107559Y0028455D01*
X0107576Y0028454D01*
X0107593Y0028452D01*
X0107611Y0028451D01*
X0107629Y0028450D01*
X0107648Y0028448D01*
X0107667Y0028446D01*
X0107685Y0028444D01*
X0107704Y0028441D01*
X0107722Y0028437D01*
X0107739Y0028433D01*
X0107755Y0028428D01*
X0107771Y0028421D01*
X0107785Y0028413D01*
X0107798Y0028405D01*
X0107809Y0028394D01*
X0107820Y0028383D01*
X0107828Y0028371D01*
X0107836Y0028357D01*
X0107842Y0028342D01*
X0107846Y0028327D01*
X0107850Y0028310D01*
X0107852Y0028293D01*
X0107854Y0028275D01*
X0107855Y0028256D01*
X0107854Y0028237D01*
X0107853Y0028217D01*
X0107851Y0028197D01*
X0107849Y0028175D01*
X0107846Y0028153D01*
X0107841Y0028130D01*
X0107837Y0028106D01*
X0107831Y0028081D01*
X0107824Y0028055D01*
X0107817Y0028028D01*
X0107809Y0028000D01*
X0107800Y0027971D01*
X0107791Y0027940D01*
X0107781Y0027910D01*
X0107771Y0027879D01*
X0107760Y0027848D01*
X0107749Y0027817D01*
X0107738Y0027786D01*
X0107727Y0027756D01*
X0107717Y0027727D01*
X0107707Y0027700D01*
X0107697Y0027673D01*
X0107688Y0027649D01*
X0107679Y0027626D01*
X0107671Y0027605D01*
X0107664Y0027586D01*
X0107657Y0027569D01*
X0107651Y0027553D01*
X0107645Y0027538D01*
X0107640Y0027524D01*
X0107635Y0027511D01*
X0107630Y0027499D01*
X0107626Y0027486D01*
X0107621Y0027473D01*
X0107616Y0027459D01*
X0107610Y0027443D01*
X0107604Y0027426D01*
X0107597Y0027406D01*
X0107589Y0027384D01*
X0107580Y0027359D01*
X0107570Y0027331D01*
X0107559Y0027300D01*
X0107547Y0027266D01*
X0107534Y0027230D01*
X0107521Y0027191D01*
X0107507Y0027151D01*
X0107492Y0027109D01*
X0107477Y0027067D01*
X0107462Y0027024D01*
X0107447Y0026983D01*
X0107433Y0026942D01*
X0107419Y0026903D01*
X0107406Y0026866D01*
X0107394Y0026830D01*
X0107382Y0026797D01*
X0107372Y0026767D01*
X0107362Y0026738D01*
X0107352Y0026711D01*
X0107344Y0026685D01*
X0107335Y0026661D01*
X0107327Y0026637D01*
X0107319Y0026614D01*
X0107311Y0026591D01*
X0107303Y0026568D01*
X0107295Y0026545D01*
X0107286Y0026522D01*
X0107277Y0026498D01*
X0107268Y0026474D01*
X0107259Y0026450D01*
X0107249Y0026427D01*
X0107238Y0026404D01*
X0107228Y0026382D01*
X0107217Y0026361D01*
X0107205Y0026342D01*
X0107193Y0026324D01*
X0107180Y0026308D01*
X0107167Y0026294D01*
X0107153Y0026281D01*
X0107138Y0026271D01*
X0107121Y0026262D01*
X0107104Y0026254D01*
X0107085Y0026248D01*
X0107065Y0026244D01*
X0107044Y0026240D01*
X0107022Y0026237D01*
X0106998Y0026235D01*
X0106974Y0026234D01*
X0106948Y0026233D01*
X0106922Y0026232D01*
X0106895Y0026232D01*
X0106868Y0026231D01*
X0106839Y0026231D01*
X0106809Y0026231D01*
X0106777Y0026231D01*
X0106742Y0026231D01*
X0106704Y0026231D01*
X0106661Y0026231D01*
X0106613Y0026231D01*
X0106558Y0026231D01*
X0106495Y0026231D01*
X0106422Y0026231D01*
X0106340Y0026231D01*
X0106247Y0026231D01*
X0106143Y0026231D01*
X0106028Y0026231D01*
X0105904Y0026231D01*
X0105771Y0026231D01*
X0105631Y0026231D01*
X0105487Y0026231D01*
X0105340Y0026231D01*
X0105193Y0026231D01*
X0105049Y0026231D01*
X0104911Y0026231D01*
X0104781Y0026231D01*
X0104661Y0026231D01*
X0104552Y0026230D01*
X0104456Y0026228D01*
X0104372Y0026224D01*
X0104300Y0026215D01*
X0104239Y0026198D01*
X0104185Y0026169D01*
X0104136Y0026121D01*
X0104087Y0026046D01*
X0104032Y0025932D01*
X0103965Y0025768D01*
X0103882Y0025543D01*
X0103778Y0025249D01*
X0103654Y0024889D01*
X0103515Y0024483D01*
X0103376Y0024073D01*
X0103261Y0023734D01*
X0103210Y0023586D01*
X0103108Y0023315D01*
X0103016Y0023055D01*
X0102936Y0022816D01*
X0102870Y0022598D01*
X0102816Y0022402D01*
X0102775Y0022226D01*
X0102745Y0022066D01*
X0102724Y0021918D01*
X0102713Y0021780D01*
X0102709Y0021648D01*
X0102712Y0021522D01*
X0102723Y0021399D01*
X0102741Y0021281D01*
X0102767Y0021166D01*
X0102800Y0021057D01*
X0102842Y0020953D01*
X0102891Y0020855D01*
X0102948Y0020764D01*
X0103012Y0020680D01*
X0103083Y0020604D01*
X0103161Y0020536D01*
X0103244Y0020475D01*
X0103331Y0020421D01*
X0103422Y0020373D01*
X0103515Y0020332D01*
X0103610Y0020296D01*
X0103706Y0020265D01*
X0103801Y0020239D01*
X0103896Y0020216D01*
X0103989Y0020196D01*
X0104079Y0020179D01*
X0104168Y0020165D01*
X0104253Y0020152D01*
X0104335Y0020140D01*
X0104415Y0020130D01*
X0104491Y0020122D01*
X0104564Y0020113D01*
X0104634Y0020106D01*
X0104701Y0020099D01*
X0104765Y0020093D01*
X0104826Y0020087D01*
X0104886Y0020080D01*
X0104942Y0020074D01*
X0104997Y0020067D01*
X0105049Y0020060D01*
X0105100Y0020053D01*
X0105148Y0020044D01*
X0105195Y0020034D01*
X0105239Y0020023D01*
X0105282Y0020011D01*
X0105322Y0019996D01*
X0105360Y0019979D01*
X0105396Y0019960D01*
X0105430Y0019937D01*
X0105460Y0019912D01*
X0105488Y0019884D01*
X0105513Y0019853D01*
X0105535Y0019819D01*
X0105555Y0019781D01*
X0105571Y0019741D01*
X0105585Y0019697D01*
X0105596Y0019651D01*
X0105605Y0019602D01*
X0105611Y0019552D01*
X0105615Y0019500D01*
X0105616Y0019446D01*
X0105616Y0019392D01*
X0105613Y0019338D01*
X0105608Y0019284D01*
X0105601Y0019230D01*
X0105592Y0019177D01*
X0105580Y0019126D01*
X0105565Y0019076D01*
X0105547Y0019029D01*
X0105526Y0018984D01*
X0105502Y0018942D01*
X0105474Y0018902D01*
X0105443Y0018866D01*
X0105408Y0018832D01*
X0105370Y0018802D01*
X0105328Y0018774D01*
X0105284Y0018750D01*
X0105237Y0018729D01*
X0105187Y0018710D01*
X0105135Y0018694D01*
X0105080Y0018680D01*
X0105024Y0018668D01*
X0104966Y0018659D01*
X0104906Y0018651D01*
X0104844Y0018644D01*
X0104780Y0018639D01*
X0104713Y0018635D01*
X0104642Y0018632D01*
X0104567Y0018630D01*
X0104488Y0018629D01*
X0104404Y0018628D01*
X0104313Y0018628D01*
X0104216Y0018629D01*
X0104113Y0018630D01*
X0104002Y0018632D01*
X0103884Y0018635D01*
X0103758Y0018638D01*
X0103626Y0018641D01*
X0103487Y0018646D01*
X0103341Y0018651D01*
X0103190Y0018656D01*
X0103033Y0018662D01*
X0102872Y0018669D01*
X0102707Y0018677D01*
X0102539Y0018684D01*
X0102369Y0018693D01*
X0102196Y0018702D01*
X0102022Y0018711D01*
X0101846Y0018720D01*
X0101670Y0018729D01*
X0101493Y0018738D01*
X0101316Y0018747D01*
X0101138Y0018756D01*
X0100960Y0018764D01*
X0100781Y0018772D01*
X0100602Y0018779D01*
X0100423Y0018786D01*
X0100243Y0018792D01*
X0100063Y0018797D01*
X0099882Y0018801D01*
X0099701Y0018805D01*
X0099520Y0018808D01*
X0099339Y0018810D01*
X0099157Y0018812D01*
X0098976Y0018813D01*
X0098794Y0018814D01*
X0098612Y0018814D01*
X0098430Y0018813D01*
X0098248Y0018812D01*
X0098066Y0018810D01*
X0097884Y0018808D01*
X0097703Y0018805D01*
X0097522Y0018801D01*
X0097341Y0018796D01*
X0097160Y0018791D01*
X0096980Y0018785D01*
X0096800Y0018779D01*
X0096620Y0018771D01*
X0096441Y0018764D01*
X0096262Y0018755D01*
X0096083Y0018746D01*
X0095905Y0018737D01*
X0095727Y0018728D01*
X0095550Y0018719D01*
X0095374Y0018710D01*
X0095199Y0018701D01*
X0095026Y0018692D01*
X0094856Y0018684D01*
X0094688Y0018676D01*
X0094523Y0018668D01*
X0094363Y0018662D01*
X0094208Y0018656D01*
X0094059Y0018650D01*
X0093916Y0018646D01*
X0093780Y0018642D01*
X0093652Y0018638D01*
X0093531Y0018636D01*
X0093419Y0018634D01*
X0093316Y0018634D01*
X0093221Y0018634D01*
X0093135Y0018635D01*
X0093056Y0018637D01*
X0092985Y0018641D01*
X0092922Y0018645D01*
X0092864Y0018651D01*
X0092813Y0018659D01*
X0092767Y0018667D01*
X0092725Y0018678D01*
X0092688Y0018690D01*
X0092654Y0018704D01*
X0092623Y0018719D01*
X0092595Y0018737D01*
X0092570Y0018756D01*
X0092547Y0018777D01*
X0092526Y0018799D01*
X0092507Y0018824D01*
X0092490Y0018850D01*
X0092475Y0018878D01*
X0092462Y0018908D01*
X0092451Y0018940D01*
X0092441Y0018974D01*
X0092433Y0019010D01*
X0092427Y0019047D01*
X0092422Y0019087D01*
X0092419Y0019128D01*
X0092418Y0019171D01*
X0092418Y0019216D01*
X0092420Y0019263D01*
X0092423Y0019311D01*
X0092429Y0019360D01*
X0092436Y0019410D01*
X0092446Y0019461D01*
X0092458Y0019512D01*
X0092472Y0019563D01*
X0092490Y0019614D01*
X0092511Y0019663D01*
X0092535Y0019712D01*
X0092563Y0019758D01*
X0092594Y0019803D01*
X0092629Y0019845D01*
X0092668Y0019885D01*
X0092711Y0019922D01*
X0092757Y0019957D01*
X0092806Y0019988D01*
X0092858Y0020017D01*
X0092914Y0020043D01*
X0092972Y0020067D01*
X0093033Y0020088D01*
X0093097Y0020107D01*
X0093164Y0020124D01*
X0093234Y0020140D01*
X0093309Y0020154D01*
X0093387Y0020167D01*
X0093471Y0020179D01*
X0093561Y0020191D01*
X0093656Y0020202D01*
X0093759Y0020214D01*
X0093868Y0020226D01*
X0093985Y0020238D01*
X0094109Y0020251D01*
X0094240Y0020265D01*
X0094377Y0020280D01*
X0094520Y0020297D01*
X0094666Y0020316D01*
X0094815Y0020337D01*
X0094965Y0020360D01*
X0095114Y0020387D01*
X0095261Y0020416D01*
X0095403Y0020449D01*
X0095540Y0020486D01*
X0095670Y0020528D01*
X0095792Y0020575D01*
X0095907Y0020628D01*
X0096012Y0020687D01*
X0096109Y0020753D01*
X0096199Y0020827D01*
X0096280Y0020908D01*
X0096355Y0020998D01*
X0096425Y0021096D01*
X0096490Y0021201D01*
X0096551Y0021315D01*
X0096609Y0021436D01*
X0096664Y0021563D01*
X0096718Y0021695D01*
X0096771Y0021831D01*
X0096822Y0021969D01*
X0096872Y0022108D01*
X0096920Y0022246D01*
X0096968Y0022382D01*
X0097013Y0022515D01*
X0097057Y0022644D01*
X0097100Y0022768D01*
X0097141Y0022887D01*
X0097180Y0023002D01*
X0097218Y0023113D01*
X0097255Y0023221D01*
X0097292Y0023329D01*
X0097329Y0023436D01*
X0097367Y0023545D01*
X0097405Y0023657D01*
X0097446Y0023774D01*
X0097488Y0023897D01*
X0097533Y0024025D01*
X0097580Y0024160D01*
X0097628Y0024300D01*
X0097679Y0024445D01*
X0097731Y0024594D01*
X0097783Y0024744D01*
X0097835Y0024895D01*
X0097887Y0025043D01*
X0097937Y0025187D01*
X0097985Y0025325D01*
X0098030Y0025454D01*
X0098072Y0025575D01*
X0098109Y0025684D01*
X0098142Y0025782D01*
X0098170Y0025868D01*
X0098192Y0025943D01*
X0098208Y0026006D01*
X0098216Y0026059D01*
X0098215Y0026101D01*
X0098203Y0026136D01*
X0098179Y0026162D01*
X0098139Y0026183D01*
X0098081Y0026198D01*
X0098001Y0026209D01*
X0097895Y0026217D01*
X0097760Y0026222D01*
X0097592Y0026225D01*
X0097388Y0026228D01*
X0097145Y0026229D01*
X0096862Y0026230D01*
X0096538Y0026230D01*
X0096174Y0026230D01*
X0095772Y0026230D01*
X0095336Y0026230D01*
X0094871Y0026230D01*
X0094382Y0026230D01*
X0093878Y0026230D01*
X0093365Y0026230D01*
X0092853Y0026230D01*
X0092350Y0026230D01*
X0091864Y0026230D01*
X0091401Y0026230D01*
X0090967Y0026230D01*
X0090568Y0026230D01*
X0090207Y0026230D01*
X0089886Y0026230D01*
X0089605Y0026230D01*
X0089363Y0026230D01*
X0089159Y0026230D01*
X0088990Y0026230D01*
X0088852Y0026230D01*
X0088740Y0026229D01*
X0088652Y0026229D01*
X0088582Y0026228D01*
X0088527Y0026227D01*
X0088483Y0026226D01*
X0088448Y0026225D01*
X0088418Y0026223D01*
X0088391Y0026221D01*
X0088366Y0026219D01*
X0088341Y0026216D01*
X0088316Y0026213D01*
X0088289Y0026210D01*
X0088262Y0026206D01*
X0088233Y0026203D01*
X0088202Y0026200D01*
X0088171Y0026197D01*
X0088139Y0026195D01*
X0088107Y0026193D01*
X0088075Y0026193D01*
X0088044Y0026194D01*
X0088014Y0026196D01*
X0087986Y0026200D01*
X0087959Y0026205D01*
X0087935Y0026212D01*
X0087913Y0026221D01*
X0087894Y0026231D01*
X0087877Y0026243D01*
X0087862Y0026256D01*
X0087850Y0026270D01*
X0087841Y0026285D01*
X0087833Y0026301D01*
X0087827Y0026318D01*
X0087823Y0026335D01*
X0087820Y0026352D01*
X0087818Y0026369D01*
X0087818Y0026386D01*
X0087818Y0026403D01*
X0087819Y0026420D01*
X0087820Y0026436D01*
X0087822Y0026452D01*
X0087825Y0026468D01*
X0087828Y0026484D01*
X0087831Y0026500D01*
X0087835Y0026516D01*
X0087839Y0026531D01*
X0087843Y0026547D01*
X0087848Y0026563D01*
X0087853Y0026579D01*
X0087858Y0026595D01*
X0087863Y0026612D01*
X0087868Y0026628D01*
X0087874Y0026646D01*
X0087879Y0026663D01*
X0087885Y0026682D01*
X0087891Y0026702D01*
X0087898Y0026723D01*
X0087905Y0026746D01*
X0087912Y0026771D01*
X0087920Y0026799D01*
X0087929Y0026830D01*
X0087939Y0026864D01*
X0087950Y0026902D01*
X0087962Y0026944D01*
X0087976Y0026990D01*
X0087991Y0027040D01*
X0088007Y0027094D01*
X0088024Y0027151D01*
X0088041Y0027211D01*
X0088060Y0027273D01*
X0088079Y0027337D01*
X0088098Y0027402D01*
X0088117Y0027467D01*
X0088136Y0027531D01*
X0088155Y0027594D01*
X0088173Y0027654D01*
X0088191Y0027712D01*
X0088208Y0027768D01*
X0088225Y0027821D01*
X0088243Y0027871D01*
X0088261Y0027918D01*
X0088280Y0027964D01*
X0088300Y0028009D01*
X0088322Y0028052D01*
X0088346Y0028095D01*
X0088373Y0028139D01*
X0088402Y0028183D01*
X0088434Y0028228D01*
X0088469Y0028275D01*
X0088507Y0028323D01*
X0088549Y0028374D01*
X0088594Y0028428D01*
X0088645Y0028486D01*
X0088701Y0028549D01*
X0088766Y0028620D01*
X0088842Y0028700D01*
X0088932Y0028795D01*
X0089041Y0028908D01*
X0089174Y0029045D01*
X0089337Y0029211D01*
X0089537Y0029412D01*
X0089779Y0029656D01*
X0090071Y0029949D01*
X0090418Y0030297D01*
X0090825Y0030704D01*
X0091296Y0031175D01*
X0091833Y0031711D01*
X0092434Y0032311D01*
X0093098Y0032973D01*
X0093819Y0033692D01*
X0094589Y0034460D01*
X0095399Y0035267D01*
X0096237Y0036103D01*
X0097090Y0036954D01*
X0097946Y0037806D01*
X0098789Y0038646D01*
X0099607Y0039462D01*
X0100387Y0040240D01*
X0101121Y0040971D01*
X0101798Y0041647D01*
X0102414Y0042261D01*
X0102965Y0042810D01*
X0103449Y0043292D01*
X0103868Y0043710D01*
X0104224Y0044065D01*
X0104522Y0044362D01*
X0104768Y0044607D01*
X0104969Y0044806D01*
X0105130Y0044966D01*
X0105259Y0045093D01*
X0105362Y0045194D01*
X0105444Y0045273D01*
X0105511Y0045336D01*
X0105567Y0045386D01*
X0105615Y0045427D01*
X0105658Y0045462D01*
X0105698Y0045491D01*
X0105736Y0045516D01*
X0105773Y0045538D01*
X0105809Y0045558D01*
X0105846Y0045575D01*
X0105883Y0045589D01*
X0105921Y0045602D01*
X0105959Y0045612D01*
X0105997Y0045620D01*
X0106037Y0045626D01*
X0106077Y0045630D01*
X0106118Y0045633D01*
X0106159Y0045634D01*
X0106201Y0045635D01*
X0106244Y0045635D01*
X0106288Y0045634D01*
X0106331Y0045633D01*
X0106375Y0045632D01*
X0106419Y0045630D01*
X0106462Y0045629D01*
X0106505Y0045628D01*
X0106547Y0045627D01*
X0106589Y0045627D01*
X0106629Y0045626D01*
X0106669Y0045626D01*
X0106708Y0045627D01*
X0106747Y0045628D01*
X0106786Y0045629D01*
X0106826Y0045631D01*
X0106867Y0045633D01*
X0106910Y0045636D01*
X0106956Y0045640D01*
X0107004Y0045643D01*
X0107055Y0045647D01*
X0107109Y0045652D01*
X0107167Y0045656D01*
X0107228Y0045661D01*
X0107291Y0045665D01*
X0107356Y0045669D01*
X0107423Y0045672D01*
X0107491Y0045673D01*
X0107558Y0045674D01*
X0107623Y0045673D01*
X0107686Y0045669D01*
X0107746Y0045664D01*
X0107803Y0045657D01*
X0107854Y0045647D01*
X0107901Y0045636D01*
X0107942Y0045622D01*
X0107978Y0045606D01*
X0108009Y0045588D01*
X0108035Y0045568D01*
X0108055Y0045547D01*
X0108072Y0045525D01*
X0108084Y0045502D01*
X0108093Y0045479D01*
X0108099Y0045455D01*
X0084106Y0044584D02*
X0084107Y0044557D01*
X0084106Y0044530D01*
X0084105Y0044502D01*
X0084103Y0044473D01*
X0084099Y0044442D01*
X0084094Y0044410D01*
X0084087Y0044376D01*
X0084079Y0044339D01*
X0084070Y0044300D01*
X0084059Y0044258D01*
X0084046Y0044213D01*
X0084032Y0044165D01*
X0084016Y0044114D01*
X0083998Y0044061D01*
X0083979Y0044005D01*
X0083959Y0043946D01*
X0083937Y0043887D01*
X0083915Y0043826D01*
X0083893Y0043765D01*
X0083871Y0043704D01*
X0083849Y0043644D01*
X0083828Y0043587D01*
X0083807Y0043531D01*
X0083787Y0043476D01*
X0083767Y0043419D01*
X0083744Y0043355D01*
X0083715Y0043273D01*
X0083675Y0043157D01*
X0083615Y0042983D01*
X0083522Y0042717D01*
X0083381Y0042310D01*
X0083170Y0041703D01*
X0082862Y0040818D01*
X0082428Y0039575D01*
X0081845Y0037901D01*
X0081099Y0035761D01*
X0080202Y0033186D01*
X0079202Y0030319D01*
X0078205Y0027458D01*
X0077390Y0025121D01*
X0077036Y0024107D01*
X0076934Y0023794D01*
X0076843Y0023517D01*
X0076764Y0023269D01*
X0076698Y0023045D01*
X0076645Y0022838D01*
X0076604Y0022641D01*
X0076576Y0022450D01*
X0076559Y0022262D01*
X0076554Y0022074D01*
X0076561Y0021886D01*
X0076580Y0021699D01*
X0076614Y0021514D01*
X0076663Y0021335D01*
X0076727Y0021165D01*
X0076808Y0021006D01*
X0076905Y0020861D01*
X0077018Y0020733D01*
X0077146Y0020621D01*
X0077287Y0020527D01*
X0077440Y0020450D01*
X0077601Y0020389D01*
X0077768Y0020341D01*
X0077938Y0020306D01*
X0078106Y0020279D01*
X0078272Y0020257D01*
X0078430Y0020239D01*
X0078580Y0020220D01*
X0078718Y0020200D01*
X0078843Y0020175D01*
X0078955Y0020146D01*
X0079053Y0020110D01*
X0079136Y0020067D01*
X0079206Y0020018D01*
X0079263Y0019963D01*
X0079308Y0019902D01*
X0079342Y0019838D01*
X0079366Y0019770D01*
X0079382Y0019699D01*
X0079391Y0019628D01*
X0079393Y0019557D01*
X0079389Y0019486D01*
X0079381Y0019417D01*
X0079368Y0019349D01*
X0079351Y0019285D01*
X0079330Y0019223D01*
X0079305Y0019165D01*
X0079277Y0019110D01*
X0079245Y0019059D01*
X0079209Y0019011D01*
X0079170Y0018966D01*
X0079128Y0018925D01*
X0079083Y0018887D01*
X0079034Y0018853D01*
X0078984Y0018821D01*
X0078931Y0018793D01*
X0078875Y0018767D01*
X0078818Y0018745D01*
X0078758Y0018724D01*
X0078696Y0018707D01*
X0078632Y0018691D01*
X0078565Y0018678D01*
X0078496Y0018667D01*
X0078422Y0018658D01*
X0078345Y0018651D01*
X0078264Y0018645D01*
X0078177Y0018640D01*
X0078085Y0018637D01*
X0077986Y0018635D01*
X0077882Y0018635D01*
X0077770Y0018635D01*
X0077651Y0018636D01*
X0077525Y0018638D01*
X0077393Y0018640D01*
X0077254Y0018644D01*
X0077108Y0018648D01*
X0076957Y0018653D01*
X0076800Y0018659D01*
X0076639Y0018665D01*
X0076474Y0018671D01*
X0076306Y0018679D01*
X0076135Y0018687D01*
X0075961Y0018695D01*
X0075787Y0018703D01*
X0075611Y0018712D01*
X0075434Y0018721D01*
X0075256Y0018730D01*
X0075078Y0018739D01*
X0074900Y0018748D01*
X0074722Y0018757D01*
X0074544Y0018765D01*
X0074366Y0018772D01*
X0074189Y0018779D01*
X0074011Y0018785D01*
X0073833Y0018791D01*
X0073655Y0018796D01*
X0073478Y0018801D01*
X0073300Y0018804D01*
X0073122Y0018807D01*
X0072945Y0018810D01*
X0072767Y0018812D01*
X0072589Y0018813D01*
X0072411Y0018813D01*
X0072233Y0018814D01*
X0072054Y0018813D01*
X0071876Y0018812D01*
X0071697Y0018811D01*
X0071518Y0018809D01*
X0071339Y0018806D01*
X0071159Y0018803D01*
X0070979Y0018799D01*
X0070799Y0018794D01*
X0070618Y0018789D01*
X0070437Y0018783D01*
X0070256Y0018776D01*
X0070074Y0018769D01*
X0069893Y0018761D01*
X0069711Y0018753D01*
X0069529Y0018744D01*
X0069348Y0018735D01*
X0069167Y0018726D01*
X0068987Y0018717D01*
X0068809Y0018709D01*
X0068631Y0018700D01*
X0068456Y0018691D01*
X0068284Y0018683D01*
X0068115Y0018676D01*
X0067949Y0018669D01*
X0067788Y0018662D01*
X0067632Y0018656D01*
X0067482Y0018651D01*
X0067339Y0018646D01*
X0067202Y0018642D01*
X0067073Y0018639D01*
X0066951Y0018636D01*
X0066837Y0018634D01*
X0066731Y0018633D01*
X0066633Y0018632D01*
X0066543Y0018633D01*
X0066460Y0018634D01*
X0066384Y0018636D01*
X0066315Y0018640D01*
X0066252Y0018644D01*
X0066194Y0018650D01*
X0066141Y0018656D01*
X0066092Y0018665D01*
X0066047Y0018674D01*
X0066006Y0018685D01*
X0065967Y0018698D01*
X0065932Y0018712D01*
X0065898Y0018728D01*
X0065867Y0018746D01*
X0065838Y0018766D01*
X0065812Y0018788D01*
X0065787Y0018811D01*
X0065765Y0018837D01*
X0065745Y0018865D01*
X0065727Y0018895D01*
X0065712Y0018928D01*
X0065698Y0018963D01*
X0065687Y0019001D01*
X0065678Y0019041D01*
X0065672Y0019084D01*
X0065667Y0019129D01*
X0065664Y0019177D01*
X0065663Y0019228D01*
X0065665Y0019280D01*
X0065668Y0019335D01*
X0065674Y0019391D01*
X0065683Y0019448D01*
X0065694Y0019507D01*
X0065708Y0019565D01*
X0065725Y0019624D01*
X0065746Y0019681D01*
X0065771Y0019737D01*
X0065800Y0019791D01*
X0065833Y0019843D01*
X0065870Y0019892D01*
X0065912Y0019937D01*
X0065959Y0019980D01*
X0066009Y0020018D01*
X0066064Y0020053D01*
X0066122Y0020085D01*
X0066184Y0020112D01*
X0066248Y0020137D01*
X0066315Y0020159D01*
X0066384Y0020178D01*
X0066455Y0020195D01*
X0066526Y0020210D01*
X0066599Y0020224D01*
X0066671Y0020236D01*
X0066744Y0020248D01*
X0066817Y0020259D01*
X0066890Y0020270D01*
X0066963Y0020281D01*
X0067036Y0020292D01*
X0067109Y0020303D01*
X0067183Y0020314D01*
X0067257Y0020325D01*
X0067331Y0020337D01*
X0067405Y0020349D01*
X0067481Y0020360D01*
X0067557Y0020372D01*
X0067633Y0020384D01*
X0067710Y0020397D01*
X0067787Y0020409D01*
X0067864Y0020421D01*
X0067941Y0020433D01*
X0068018Y0020445D01*
X0068095Y0020457D01*
X0068170Y0020470D01*
X0068245Y0020483D01*
X0068319Y0020497D01*
X0068391Y0020512D01*
X0068463Y0020529D01*
X0068533Y0020547D01*
X0068602Y0020568D01*
X0068670Y0020591D01*
X0068737Y0020617D01*
X0068803Y0020646D01*
X0068867Y0020678D01*
X0068931Y0020714D01*
X0068994Y0020754D01*
X0069056Y0020797D01*
X0069117Y0020844D01*
X0069177Y0020895D01*
X0069237Y0020949D01*
X0069296Y0021006D01*
X0069355Y0021065D01*
X0069413Y0021128D01*
X0069470Y0021192D01*
X0069526Y0021259D01*
X0069582Y0021328D01*
X0069637Y0021398D01*
X0069691Y0021470D01*
X0069744Y0021543D01*
X0069796Y0021617D01*
X0069848Y0021693D01*
X0069898Y0021770D01*
X0069947Y0021849D01*
X0069996Y0021930D01*
X0070043Y0022013D01*
X0070088Y0022097D01*
X0070133Y0022183D01*
X0070177Y0022270D01*
X0070219Y0022359D01*
X0070261Y0022450D01*
X0070301Y0022541D01*
X0070340Y0022634D01*
X0070378Y0022727D01*
X0070415Y0022820D01*
X0070451Y0022913D01*
X0070486Y0023004D01*
X0070520Y0023095D01*
X0070553Y0023184D01*
X0070584Y0023270D01*
X0070615Y0023355D01*
X0070645Y0023437D01*
X0070674Y0023517D01*
X0070703Y0023596D01*
X0070731Y0023675D01*
X0070760Y0023755D01*
X0070791Y0023839D01*
X0070823Y0023929D01*
X0070859Y0024029D01*
X0070900Y0024144D01*
X0070948Y0024278D01*
X0071004Y0024436D01*
X0071071Y0024625D01*
X0071150Y0024850D01*
X0071244Y0025117D01*
X0071354Y0025431D01*
X0071482Y0025796D01*
X0071628Y0026214D01*
X0071793Y0026688D01*
X0071978Y0027217D01*
X0072181Y0027798D01*
X0072401Y0028428D01*
X0072635Y0029100D01*
X0072881Y0029807D01*
X0073137Y0030539D01*
X0073397Y0031285D01*
X0073658Y0032035D01*
X0073917Y0032777D01*
X0074169Y0033500D01*
X0074410Y0034193D01*
X0074639Y0034849D01*
X0074852Y0035459D01*
X0075046Y0036018D01*
X0075222Y0036523D01*
X0075378Y0036971D01*
X0075515Y0037362D01*
X0075632Y0037700D01*
X0075732Y0037986D01*
X0075815Y0038225D01*
X0075884Y0038423D01*
X0075940Y0038584D01*
X0075985Y0038715D01*
X0076021Y0038821D01*
X0076051Y0038906D01*
X0076075Y0038976D01*
X0076095Y0039035D01*
X0076113Y0039085D01*
X0076128Y0039130D01*
X0076143Y0039171D01*
X0076157Y0039211D01*
X0076170Y0039249D01*
X0076183Y0039287D01*
X0076197Y0039326D01*
X0076210Y0039365D01*
X0076224Y0039404D01*
X0076237Y0039444D01*
X0076251Y0039484D01*
X0076264Y0039525D01*
X0076277Y0039566D01*
X0076289Y0039607D01*
X0076301Y0039649D01*
X0076312Y0039691D01*
X0076323Y0039733D01*
X0076333Y0039775D01*
X0076342Y0039817D01*
X0076350Y0039859D01*
X0076358Y0039901D01*
X0076365Y0039943D01*
X0076371Y0039985D01*
X0076376Y0040027D01*
X0076381Y0040069D01*
X0076385Y0040110D01*
X0076388Y0040151D01*
X0076391Y0040192D01*
X0076393Y0040232D01*
X0076394Y0040271D01*
X0076395Y0040310D01*
X0076394Y0040348D01*
X0076393Y0040386D01*
X0076391Y0040423D01*
X0076388Y0040458D01*
X0076383Y0040493D01*
X0076378Y0040527D01*
X0076371Y0040560D01*
X0076362Y0040592D01*
X0076352Y0040623D01*
X0076341Y0040653D01*
X0076328Y0040681D01*
X0076313Y0040707D01*
X0076297Y0040733D01*
X0076278Y0040757D01*
X0076259Y0040779D01*
X0076237Y0040799D01*
X0076214Y0040818D01*
X0076190Y0040836D01*
X0076164Y0040851D01*
X0076137Y0040865D01*
X0076109Y0040877D01*
X0076079Y0040888D01*
X0076049Y0040897D01*
X0076017Y0040905D01*
X0075985Y0040911D01*
X0075952Y0040916D01*
X0075918Y0040920D01*
X0075883Y0040923D01*
X0075847Y0040925D01*
X0075810Y0040926D01*
X0075773Y0040926D01*
X0075734Y0040925D01*
X0075693Y0040923D01*
X0075652Y0040920D01*
X0075608Y0040916D01*
X0075562Y0040911D01*
X0075515Y0040905D01*
X0075465Y0040897D01*
X0075413Y0040889D01*
X0075358Y0040879D01*
X0075301Y0040868D01*
X0075243Y0040856D01*
X0075182Y0040842D01*
X0075120Y0040828D01*
X0075057Y0040812D01*
X0074993Y0040796D01*
X0074929Y0040780D01*
X0074865Y0040763D01*
X0074802Y0040745D01*
X0074740Y0040728D01*
X0074679Y0040711D01*
X0074620Y0040693D01*
X0074563Y0040677D01*
X0074508Y0040660D01*
X0074455Y0040644D01*
X0074404Y0040629D01*
X0074355Y0040614D01*
X0074307Y0040600D01*
X0074261Y0040586D01*
X0074216Y0040572D01*
X0074171Y0040559D01*
X0074126Y0040546D01*
X0074082Y0040533D01*
X0074037Y0040520D01*
X0073992Y0040507D01*
X0073945Y0040494D01*
X0073898Y0040480D01*
X0073849Y0040466D01*
X0073798Y0040452D01*
X0073747Y0040437D01*
X0073693Y0040421D01*
X0073639Y0040405D01*
X0073583Y0040389D01*
X0073525Y0040372D01*
X0073467Y0040355D01*
X0073407Y0040338D01*
X0073347Y0040320D01*
X0073287Y0040303D01*
X0073226Y0040286D01*
X0073165Y0040269D01*
X0073104Y0040253D01*
X0073044Y0040238D01*
X0072984Y0040224D01*
X0072926Y0040211D01*
X0072868Y0040199D01*
X0072812Y0040188D01*
X0072756Y0040178D01*
X0072703Y0040170D01*
X0072651Y0040162D01*
X0072600Y0040156D01*
X0072551Y0040151D01*
X0072503Y0040148D01*
X0072457Y0040145D01*
X0072413Y0040143D01*
X0072370Y0040142D01*
X0072328Y0040142D01*
X0072288Y0040142D01*
X0072249Y0040144D01*
X0072211Y0040147D01*
X0072174Y0040150D01*
X0072138Y0040155D01*
X0072103Y0040161D01*
X0072069Y0040167D01*
X0072037Y0040176D01*
X0072005Y0040185D01*
X0071974Y0040196D01*
X0071944Y0040209D01*
X0071916Y0040223D01*
X0071889Y0040238D01*
X0071863Y0040255D01*
X0071838Y0040274D01*
X0071815Y0040295D01*
X0071794Y0040316D01*
X0071774Y0040340D01*
X0071756Y0040365D01*
X0071740Y0040391D01*
X0071725Y0040418D01*
X0071712Y0040447D01*
X0071701Y0040476D01*
X0071692Y0040507D01*
X0071684Y0040538D01*
X0071678Y0040570D01*
X0071673Y0040603D01*
X0071670Y0040636D01*
X0071668Y0040669D01*
X0071666Y0040703D01*
X0071666Y0040736D01*
X0071667Y0040770D01*
X0071668Y0040803D01*
X0071670Y0040836D01*
X0071673Y0040868D01*
X0071677Y0040900D01*
X0071681Y0040931D01*
X0071686Y0040961D01*
X0071692Y0040991D01*
X0071698Y0041020D01*
X0071706Y0041048D01*
X0071714Y0041075D01*
X0071724Y0041101D01*
X0071734Y0041126D01*
X0071746Y0041150D01*
X0071759Y0041174D01*
X0071773Y0041196D01*
X0071788Y0041218D01*
X0071805Y0041239D01*
X0071823Y0041259D01*
X0071842Y0041279D01*
X0071863Y0041298D01*
X0071885Y0041317D01*
X0071909Y0041335D01*
X0071934Y0041354D01*
X0071961Y0041373D01*
X0071990Y0041392D01*
X0072021Y0041411D01*
X0072053Y0041431D01*
X0072088Y0041451D01*
X0072124Y0041473D01*
X0072164Y0041495D01*
X0072206Y0041518D01*
X0072252Y0041542D01*
X0072301Y0041567D01*
X0072355Y0041593D01*
X0072412Y0041621D01*
X0072475Y0041650D01*
X0072542Y0041680D01*
X0072615Y0041711D01*
X0072694Y0041743D01*
X0072778Y0041777D01*
X0072869Y0041811D01*
X0072965Y0041846D01*
X0073067Y0041882D01*
X0073174Y0041918D01*
X0073285Y0041955D01*
X0073400Y0041992D01*
X0073518Y0042028D01*
X0073637Y0042065D01*
X0073758Y0042100D01*
X0073878Y0042135D01*
X0073997Y0042170D01*
X0074114Y0042203D01*
X0074227Y0042234D01*
X0074337Y0042265D01*
X0074441Y0042294D01*
X0074540Y0042321D01*
X0074633Y0042346D01*
X0074721Y0042371D01*
X0074804Y0042393D01*
X0074882Y0042415D01*
X0074956Y0042436D01*
X0075029Y0042457D01*
X0075102Y0042477D01*
X0075176Y0042499D01*
X0075255Y0042522D01*
X0075342Y0042548D01*
X0075439Y0042577D01*
X0075551Y0042610D01*
X0075679Y0042649D01*
X0075827Y0042693D01*
X0075998Y0042745D01*
X0076194Y0042805D01*
X0076416Y0042872D01*
X0076664Y0042948D01*
X0076940Y0043031D01*
X0077240Y0043123D01*
X0077563Y0043221D01*
X0077906Y0043326D01*
X0078265Y0043435D01*
X0078634Y0043547D01*
X0079008Y0043661D01*
X0079383Y0043775D01*
X0079751Y0043887D01*
X0080108Y0043996D01*
X0080449Y0044100D01*
X0080769Y0044198D01*
X0081066Y0044288D01*
X0081337Y0044371D01*
X0081579Y0044445D01*
X0081794Y0044510D01*
X0081981Y0044568D01*
X0082140Y0044617D01*
X0082275Y0044658D01*
X0082388Y0044693D01*
X0082481Y0044722D01*
X0082556Y0044746D01*
X0082618Y0044765D01*
X0082668Y0044782D01*
X0082709Y0044796D01*
X0082743Y0044808D01*
X0082773Y0044818D01*
X0082800Y0044828D01*
X0082826Y0044838D01*
X0082851Y0044848D01*
X0082876Y0044858D01*
X0082901Y0044869D01*
X0082928Y0044879D01*
X0082955Y0044891D01*
X0082984Y0044902D01*
X0083014Y0044914D01*
X0083044Y0044926D01*
X0083075Y0044938D01*
X0083107Y0044950D01*
X0083139Y0044962D01*
X0083171Y0044973D01*
X0083203Y0044984D01*
X0083235Y0044995D01*
X0083267Y0045004D01*
X0083298Y0045013D01*
X0083328Y0045021D01*
X0083358Y0045028D01*
X0083387Y0045034D01*
X0083415Y0045040D01*
X0083443Y0045044D01*
X0083470Y0045048D01*
X0083497Y0045051D01*
X0083523Y0045053D01*
X0083549Y0045054D01*
X0083574Y0045055D01*
X0083599Y0045054D01*
X0083624Y0045053D01*
X0083649Y0045051D01*
X0083674Y0045048D01*
X0083699Y0045044D01*
X0083724Y0045039D01*
X0083748Y0045033D01*
X0083773Y0045026D01*
X0083797Y0045017D01*
X0083822Y0045007D01*
X0083845Y0044995D01*
X0083869Y0044982D01*
X0083892Y0044968D01*
X0083914Y0044952D01*
X0083935Y0044935D01*
X0083956Y0044917D01*
X0083975Y0044897D01*
X0083993Y0044876D01*
X0084010Y0044855D01*
X0084026Y0044832D01*
X0084040Y0044809D01*
X0084053Y0044785D01*
X0084065Y0044761D01*
X0084075Y0044736D01*
X0084083Y0044712D01*
X0084090Y0044687D01*
X0084096Y0044661D01*
X0084100Y0044636D01*
X0084104Y0044610D01*
X0084106Y0044584D01*
X0063902Y0041047D02*
X0063944Y0040740D01*
X0063968Y0040424D01*
X0063975Y0040101D01*
X0063965Y0039774D01*
X0063939Y0039443D01*
X0063894Y0039110D01*
X0063832Y0038779D01*
X0063749Y0038449D01*
X0063646Y0038125D01*
X0063521Y0037806D01*
X0063372Y0037495D01*
X0063198Y0037195D01*
X0062998Y0036905D01*
X0062772Y0036627D01*
X0062520Y0036363D01*
X0062242Y0036112D01*
X0061940Y0035876D01*
X0061616Y0035654D01*
X0061272Y0035447D01*
X0060912Y0035253D01*
X0060540Y0035073D01*
X0060158Y0034905D01*
X0059771Y0034749D01*
X0059383Y0034604D01*
X0058998Y0034470D01*
X0058620Y0034345D01*
X0058252Y0034230D01*
X0057897Y0034122D01*
X0057558Y0034022D01*
X0057237Y0033930D01*
X0056935Y0033844D01*
X0056653Y0033765D01*
X0056392Y0033691D01*
X0056150Y0033624D01*
X0055928Y0033561D01*
X0055723Y0033504D01*
X0055535Y0033450D01*
X0055359Y0033400D01*
X0055195Y0033353D01*
X0055039Y0033307D01*
X0054888Y0033263D01*
X0054739Y0033219D01*
X0054590Y0033175D01*
X0054438Y0033129D01*
X0054282Y0033082D01*
X0054119Y0033033D01*
X0053949Y0032982D01*
X0053773Y0032929D01*
X0053590Y0032874D01*
X0053403Y0032817D01*
X0053214Y0032760D01*
X0053024Y0032702D01*
X0052837Y0032645D01*
X0052655Y0032590D01*
X0052483Y0032538D01*
X0052321Y0032489D01*
X0052173Y0032444D01*
X0052041Y0032403D01*
X0051926Y0032368D01*
X0051831Y0032338D01*
X0051757Y0032313D01*
X0051707Y0032293D01*
X0051684Y0032279D01*
X0051692Y0032269D01*
X0051738Y0032264D01*
X0051829Y0032263D01*
X0051974Y0032267D01*
X0052182Y0032275D01*
X0052456Y0032287D01*
X0052790Y0032303D01*
X0053167Y0032321D01*
X0053546Y0032339D01*
X0053857Y0032354D01*
X0053992Y0032361D01*
X0054947Y0032345D01*
X0055731Y0032299D01*
X0056383Y0032224D01*
X0056934Y0032125D01*
X0057410Y0032004D01*
X0057828Y0031867D01*
X0058201Y0031716D01*
X0058539Y0031554D01*
X0058848Y0031386D01*
X0059134Y0031214D01*
X0059400Y0031038D01*
X0059649Y0030859D01*
X0059882Y0030680D01*
X0060101Y0030499D01*
X0060307Y0030318D01*
X0060500Y0030135D01*
X0060681Y0029950D01*
X0060849Y0029764D01*
X0061005Y0029576D01*
X0061148Y0029386D01*
X0061279Y0029194D01*
X0061399Y0029000D01*
X0061506Y0028803D01*
X0061602Y0028605D01*
X0061686Y0028405D01*
X0061760Y0028202D01*
X0061823Y0027997D01*
X0061877Y0027789D01*
X0061921Y0027578D01*
X0061957Y0027364D01*
X0061984Y0027146D01*
X0062004Y0026923D01*
X0062017Y0026696D01*
X0062023Y0026463D01*
X0062023Y0026224D01*
X0062016Y0025978D01*
X0062003Y0025726D01*
X0061984Y0025468D01*
X0061957Y0025204D01*
X0061923Y0024933D01*
X0061881Y0024656D01*
X0061830Y0024375D01*
X0061770Y0024089D01*
X0061700Y0023800D01*
X0061619Y0023508D01*
X0061526Y0023215D01*
X0061420Y0022922D01*
X0061303Y0022629D01*
X0061172Y0022338D01*
X0061029Y0022049D01*
X0060873Y0021764D01*
X0060704Y0021483D01*
X0060524Y0021207D01*
X0060332Y0020936D01*
X0060130Y0020672D01*
X0059918Y0020415D01*
X0059697Y0020164D01*
X0059469Y0019920D01*
X0059233Y0019683D01*
X0058991Y0019452D01*
X0058744Y0019229D01*
X0058492Y0019011D01*
X0058236Y0018800D01*
X0057976Y0018594D01*
X0057713Y0018393D01*
X0057447Y0018197D01*
X0057178Y0018005D01*
X0056907Y0017818D01*
X0056634Y0017634D01*
X0056358Y0017453D01*
X0056080Y0017276D01*
X0055799Y0017103D01*
X0055516Y0016933D01*
X0055229Y0016768D01*
X0054939Y0016607D01*
X0054646Y0016451D01*
X0054349Y0016301D01*
X0054048Y0016156D01*
X0053744Y0016017D01*
X0053436Y0015885D01*
X0053124Y0015760D01*
X0052808Y0015643D01*
X0052490Y0015533D01*
X0052168Y0015430D01*
X0051845Y0015336D01*
X0051519Y0015250D01*
X0051192Y0015171D01*
X0050865Y0015100D01*
X0050539Y0015036D01*
X0050213Y0014980D01*
X0049890Y0014930D01*
X0049570Y0014887D01*
X0049253Y0014850D01*
X0048940Y0014818D01*
X0048633Y0014792D01*
X0048331Y0014770D01*
X0048035Y0014752D01*
X0047745Y0014738D01*
X0047461Y0014727D01*
X0047183Y0014719D01*
X0046910Y0014713D01*
X0046641Y0014710D01*
X0046376Y0014709D01*
X0046112Y0014709D01*
X0045850Y0014712D01*
X0045586Y0014717D01*
X0045321Y0014724D01*
X0045052Y0014734D01*
X0044779Y0014747D01*
X0044502Y0014763D01*
X0044219Y0014783D01*
X0043933Y0014809D01*
X0043642Y0014840D01*
X0043350Y0014877D01*
X0043057Y0014922D01*
X0042765Y0014976D01*
X0042479Y0015039D01*
X0042199Y0015112D01*
X0041930Y0015197D01*
X0041674Y0015292D01*
X0041433Y0015399D01*
X0041210Y0015518D01*
X0041006Y0015648D01*
X0040823Y0015788D01*
X0040661Y0015939D01*
X0040520Y0016098D01*
X0040399Y0016265D01*
X0040299Y0016438D01*
X0040218Y0016616D01*
X0040153Y0016795D01*
X0040104Y0016976D01*
X0040069Y0017157D01*
X0040045Y0017335D01*
X0040032Y0017509D01*
X0040028Y0017679D01*
X0040032Y0017844D01*
X0040042Y0018003D01*
X0040059Y0018154D01*
X0040081Y0018300D01*
X0040109Y0018438D01*
X0040141Y0018569D01*
X0040179Y0018693D01*
X0040222Y0018810D01*
X0040270Y0018922D01*
X0040324Y0019026D01*
X0040384Y0019125D01*
X0040448Y0019217D01*
X0040519Y0019304D01*
X0040595Y0019385D01*
X0040676Y0019459D01*
X0040763Y0019529D01*
X0040856Y0019592D01*
X0040955Y0019649D01*
X0041060Y0019701D01*
X0041170Y0019747D01*
X0041288Y0019788D01*
X0041413Y0019823D01*
X0041545Y0019853D01*
X0041684Y0019878D01*
X0041832Y0019898D01*
X0041989Y0019912D01*
X0042154Y0019921D01*
X0042327Y0019925D01*
X0042508Y0019923D01*
X0042696Y0019913D01*
X0042889Y0019896D01*
X0043088Y0019870D01*
X0043289Y0019834D01*
X0043491Y0019787D01*
X0043691Y0019727D01*
X0043888Y0019653D01*
X0044080Y0019564D01*
X0044264Y0019460D01*
X0044439Y0019339D01*
X0044603Y0019202D01*
X0044756Y0019050D01*
X0044898Y0018883D01*
X0045028Y0018703D01*
X0045148Y0018512D01*
X0045258Y0018314D01*
X0045361Y0018110D01*
X0045457Y0017904D01*
X0045550Y0017699D01*
X0045642Y0017498D01*
X0045734Y0017305D01*
X0045828Y0017122D01*
X0045927Y0016951D01*
X0046031Y0016794D01*
X0046143Y0016653D01*
X0046261Y0016528D01*
X0046387Y0016419D01*
X0046521Y0016326D01*
X0046662Y0016248D01*
X0046809Y0016185D01*
X0046962Y0016135D01*
X0047120Y0016098D01*
X0047282Y0016072D01*
X0047448Y0016056D01*
X0047615Y0016049D01*
X0047785Y0016051D01*
X0047956Y0016061D01*
X0048127Y0016078D01*
X0048299Y0016103D01*
X0048472Y0016135D01*
X0048644Y0016175D01*
X0048816Y0016223D01*
X0048988Y0016278D01*
X0049160Y0016341D01*
X0049331Y0016411D01*
X0049502Y0016489D01*
X0049672Y0016574D01*
X0049840Y0016665D01*
X0050007Y0016763D01*
X0050171Y0016866D01*
X0050333Y0016974D01*
X0050493Y0017086D01*
X0050650Y0017202D01*
X0050803Y0017320D01*
X0050954Y0017442D01*
X0051101Y0017565D01*
X0051245Y0017690D01*
X0051387Y0017817D01*
X0051526Y0017946D01*
X0051663Y0018076D01*
X0051798Y0018209D01*
X0051933Y0018344D01*
X0052067Y0018483D01*
X0052202Y0018625D01*
X0052336Y0018771D01*
X0052472Y0018921D01*
X0052609Y0019077D01*
X0052747Y0019239D01*
X0052886Y0019407D01*
X0053027Y0019581D01*
X0053170Y0019763D01*
X0053313Y0019952D01*
X0053457Y0020148D01*
X0053601Y0020352D01*
X0053745Y0020563D01*
X0053887Y0020782D01*
X0054028Y0021007D01*
X0054167Y0021239D01*
X0054303Y0021477D01*
X0054434Y0021719D01*
X0054561Y0021966D01*
X0054682Y0022216D01*
X0054798Y0022469D01*
X0054906Y0022724D01*
X0055008Y0022980D01*
X0055102Y0023237D01*
X0055188Y0023493D01*
X0055266Y0023749D01*
X0055337Y0024005D01*
X0055400Y0024260D01*
X0055455Y0024514D01*
X0055504Y0024767D01*
X0055546Y0025020D01*
X0055581Y0025273D01*
X0055610Y0025526D01*
X0055633Y0025778D01*
X0055651Y0026030D01*
X0055662Y0026283D01*
X0055667Y0026535D01*
X0055666Y0026786D01*
X0055658Y0027037D01*
X0055642Y0027286D01*
X0055618Y0027533D01*
X0055584Y0027776D01*
X0055541Y0028016D01*
X0055487Y0028250D01*
X0055422Y0028479D01*
X0055344Y0028701D01*
X0055254Y0028916D01*
X0055152Y0029121D01*
X0055036Y0029317D01*
X0054908Y0029503D01*
X0054767Y0029678D01*
X0054613Y0029841D01*
X0054448Y0029993D01*
X0054273Y0030132D01*
X0054087Y0030259D01*
X0053893Y0030374D01*
X0053692Y0030476D01*
X0053485Y0030567D01*
X0053273Y0030646D01*
X0053058Y0030714D01*
X0052842Y0030772D01*
X0052626Y0030821D01*
X0052412Y0030861D01*
X0052201Y0030894D01*
X0051994Y0030920D01*
X0051792Y0030941D01*
X0051597Y0030956D01*
X0051409Y0030967D01*
X0051229Y0030974D01*
X0051056Y0030979D01*
X0050891Y0030981D01*
X0050734Y0030981D01*
X0050584Y0030979D01*
X0050441Y0030976D01*
X0050304Y0030971D01*
X0050172Y0030965D01*
X0050046Y0030957D01*
X0049923Y0030948D01*
X0049803Y0030938D01*
X0049687Y0030926D01*
X0049573Y0030912D01*
X0049460Y0030897D01*
X0049349Y0030881D01*
X0049239Y0030863D01*
X0049130Y0030843D01*
X0049022Y0030823D01*
X0048915Y0030800D01*
X0048810Y0030777D01*
X0048705Y0030752D01*
X0048603Y0030727D01*
X0048502Y0030701D01*
X0048404Y0030675D01*
X0048309Y0030648D01*
X0048216Y0030621D01*
X0048127Y0030595D01*
X0048042Y0030569D01*
X0047961Y0030543D01*
X0047885Y0030519D01*
X0047812Y0030496D01*
X0047745Y0030473D01*
X0047682Y0030452D01*
X0047623Y0030432D01*
X0047569Y0030414D01*
X0047518Y0030396D01*
X0047472Y0030380D01*
X0047428Y0030365D01*
X0047387Y0030350D01*
X0047349Y0030336D01*
X0047313Y0030323D01*
X0047278Y0030310D01*
X0047244Y0030298D01*
X0047212Y0030286D01*
X0047180Y0030275D01*
X0047149Y0030264D01*
X0047117Y0030253D01*
X0047087Y0030243D01*
X0047056Y0030233D01*
X0047025Y0030223D01*
X0046995Y0030214D01*
X0046964Y0030206D01*
X0046934Y0030199D01*
X0046904Y0030192D01*
X0046874Y0030186D01*
X0046844Y0030180D01*
X0046814Y0030176D01*
X0046785Y0030172D01*
X0046755Y0030169D01*
X0046726Y0030166D01*
X0046696Y0030164D01*
X0046667Y0030163D01*
X0046637Y0030163D01*
X0046607Y0030163D01*
X0046577Y0030164D01*
X0046548Y0030165D01*
X0046518Y0030168D01*
X0046488Y0030171D01*
X0046459Y0030175D01*
X0046430Y0030180D01*
X0046401Y0030187D01*
X0046373Y0030194D01*
X0046346Y0030203D01*
X0046319Y0030214D01*
X0046293Y0030225D01*
X0046268Y0030239D01*
X0046245Y0030253D01*
X0046223Y0030270D01*
X0046202Y0030288D01*
X0046182Y0030307D01*
X0046164Y0030328D01*
X0046147Y0030351D01*
X0046133Y0030376D01*
X0046119Y0030402D01*
X0046108Y0030430D01*
X0046098Y0030460D01*
X0046089Y0030492D01*
X0046082Y0030525D01*
X0046077Y0030561D01*
X0046073Y0030600D01*
X0046070Y0030640D01*
X0046070Y0030683D01*
X0046070Y0030728D01*
X0046073Y0030775D01*
X0046077Y0030825D01*
X0046084Y0030876D01*
X0046093Y0030929D01*
X0046104Y0030984D01*
X0046119Y0031041D01*
X0046137Y0031098D01*
X0046159Y0031155D01*
X0046185Y0031212D01*
X0046215Y0031269D01*
X0046250Y0031325D01*
X0046290Y0031380D01*
X0046335Y0031433D01*
X0046385Y0031485D01*
X0046439Y0031534D01*
X0046498Y0031580D01*
X0046561Y0031625D01*
X0046628Y0031666D01*
X0046697Y0031706D01*
X0046769Y0031742D01*
X0046842Y0031777D01*
X0046915Y0031809D01*
X0046989Y0031839D01*
X0047062Y0031867D01*
X0047134Y0031893D01*
X0047204Y0031917D01*
X0047271Y0031939D01*
X0047336Y0031960D01*
X0047397Y0031980D01*
X0047455Y0031998D01*
X0047509Y0032015D01*
X0047560Y0032031D01*
X0047609Y0032046D01*
X0047654Y0032060D01*
X0047697Y0032074D01*
X0047739Y0032087D01*
X0047781Y0032101D01*
X0047822Y0032115D01*
X0047865Y0032129D01*
X0047910Y0032144D01*
X0047957Y0032161D01*
X0048009Y0032179D01*
X0048064Y0032199D01*
X0048124Y0032221D01*
X0048189Y0032244D01*
X0048259Y0032270D01*
X0048333Y0032297D01*
X0048411Y0032325D01*
X0048493Y0032355D01*
X0048577Y0032386D01*
X0048662Y0032418D01*
X0048748Y0032449D01*
X0048834Y0032481D01*
X0048918Y0032511D01*
X0049000Y0032541D01*
X0049079Y0032571D01*
X0049155Y0032599D01*
X0049229Y0032626D01*
X0049301Y0032652D01*
X0049370Y0032677D01*
X0049439Y0032702D01*
X0049508Y0032727D01*
X0049577Y0032752D01*
X0049650Y0032778D01*
X0049726Y0032806D01*
X0049807Y0032834D01*
X0049895Y0032865D01*
X0049989Y0032899D01*
X0050090Y0032934D01*
X0050200Y0032973D01*
X0050319Y0033014D01*
X0050446Y0033058D01*
X0050581Y0033105D01*
X0050724Y0033155D01*
X0050875Y0033207D01*
X0051032Y0033262D01*
X0051196Y0033319D01*
X0051365Y0033378D01*
X0051538Y0033439D01*
X0051715Y0033502D01*
X0051894Y0033567D01*
X0052075Y0033634D01*
X0052256Y0033703D01*
X0052438Y0033773D01*
X0052618Y0033845D01*
X0052796Y0033919D01*
X0052972Y0033994D01*
X0053146Y0034072D01*
X0053317Y0034151D01*
X0053484Y0034231D01*
X0053649Y0034314D01*
X0053810Y0034398D01*
X0053968Y0034485D01*
X0054124Y0034573D01*
X0054278Y0034663D01*
X0054429Y0034755D01*
X0054579Y0034850D01*
X0054728Y0034946D01*
X0054876Y0035045D01*
X0055023Y0035146D01*
X0055169Y0035251D01*
X0055315Y0035358D01*
X0055460Y0035468D01*
X0055605Y0035582D01*
X0055749Y0035699D01*
X0055892Y0035821D01*
X0056034Y0035947D01*
X0056174Y0036076D01*
X0056311Y0036211D01*
X0056446Y0036350D01*
X0056577Y0036493D01*
X0056704Y0036641D01*
X0056827Y0036792D01*
X0056945Y0036948D01*
X0057057Y0037108D01*
X0057163Y0037272D01*
X0057263Y0037438D01*
X0057356Y0037607D01*
X0057441Y0037779D01*
X0057520Y0037952D01*
X0057591Y0038128D01*
X0057655Y0038304D01*
X0057712Y0038480D01*
X0057763Y0038657D01*
X0057806Y0038834D01*
X0057844Y0039010D01*
X0057876Y0039185D01*
X0057903Y0039358D01*
X0057925Y0039530D01*
X0057942Y0039700D01*
X0057954Y0039867D01*
X0057962Y0040032D01*
X0057966Y0040194D01*
X0057965Y0040353D01*
X0057960Y0040509D01*
X0057950Y0040662D01*
X0057934Y0040811D01*
X0057913Y0040957D01*
X0057885Y0041098D01*
X0057852Y0041236D01*
X0057811Y0041369D01*
X0057764Y0041498D01*
X0057709Y0041621D01*
X0057647Y0041740D01*
X0057578Y0041853D01*
X0057501Y0041959D01*
X0057417Y0042060D01*
X0057325Y0042155D01*
X0057226Y0042242D01*
X0057120Y0042323D01*
X0057006Y0042396D01*
X0056885Y0042462D01*
X0056757Y0042521D01*
X0056621Y0042574D01*
X0056478Y0042619D01*
X0056327Y0042657D01*
X0056168Y0042690D01*
X0056000Y0042715D01*
X0055824Y0042735D01*
X0055640Y0042749D01*
X0055447Y0042757D01*
X0055246Y0042758D01*
X0055038Y0042753D01*
X0054823Y0042740D01*
X0054601Y0042720D01*
X0054374Y0042691D01*
X0054143Y0042652D01*
X0053909Y0042603D01*
X0053674Y0042543D01*
X0053438Y0042470D01*
X0053203Y0042386D01*
X0052972Y0042289D01*
X0052744Y0042179D01*
X0052521Y0042058D01*
X0052304Y0041926D01*
X0052094Y0041784D01*
X0051892Y0041635D01*
X0051698Y0041481D01*
X0051512Y0041323D01*
X0051335Y0041164D01*
X0051167Y0041007D01*
X0051007Y0040854D01*
X0050856Y0040708D01*
X0050713Y0040570D01*
X0050578Y0040442D01*
X0050451Y0040326D01*
X0050332Y0040221D01*
X0050220Y0040128D01*
X0050116Y0040048D01*
X0050018Y0039980D01*
X0049927Y0039924D01*
X0049842Y0039877D01*
X0049763Y0039840D01*
X0049690Y0039812D01*
X0049623Y0039790D01*
X0049560Y0039774D01*
X0049503Y0039763D01*
X0049450Y0039757D01*
X0049401Y0039753D01*
X0049355Y0039752D01*
X0049313Y0039754D01*
X0049274Y0039757D01*
X0049237Y0039763D01*
X0049203Y0039769D01*
X0049170Y0039777D01*
X0049140Y0039786D01*
X0049111Y0039797D01*
X0049083Y0039809D01*
X0049057Y0039822D01*
X0049033Y0039837D01*
X0049009Y0039853D01*
X0048987Y0039871D01*
X0048967Y0039890D01*
X0048948Y0039911D01*
X0048931Y0039934D01*
X0048916Y0039958D01*
X0048902Y0039984D01*
X0048890Y0040012D01*
X0048880Y0040042D01*
X0048872Y0040075D01*
X0048865Y0040110D01*
X0048861Y0040148D01*
X0048858Y0040188D01*
X0048858Y0040232D01*
X0048859Y0040279D01*
X0048863Y0040330D01*
X0048870Y0040384D01*
X0048880Y0040442D01*
X0048893Y0040504D01*
X0048911Y0040569D01*
X0048933Y0040638D01*
X0048959Y0040710D01*
X0048992Y0040786D01*
X0049030Y0040865D01*
X0049074Y0040948D01*
X0049125Y0041032D01*
X0049183Y0041120D01*
X0049247Y0041209D01*
X0049317Y0041299D01*
X0049393Y0041390D01*
X0049475Y0041482D01*
X0049561Y0041573D01*
X0049651Y0041664D01*
X0049745Y0041754D01*
X0049841Y0041842D01*
X0049939Y0041929D01*
X0050038Y0042013D01*
X0050138Y0042096D01*
X0050239Y0042176D01*
X0050340Y0042255D01*
X0050441Y0042331D01*
X0050543Y0042407D01*
X0050646Y0042481D01*
X0050750Y0042556D01*
X0050857Y0042630D01*
X0050967Y0042705D01*
X0051081Y0042781D01*
X0051199Y0042858D01*
X0051322Y0042937D01*
X0051451Y0043018D01*
X0051585Y0043100D01*
X0051725Y0043184D01*
X0051871Y0043269D01*
X0052024Y0043355D01*
X0052182Y0043442D01*
X0052345Y0043528D01*
X0052514Y0043613D01*
X0052687Y0043697D01*
X0052864Y0043778D01*
X0053045Y0043857D01*
X0053230Y0043932D01*
X0053418Y0044003D01*
X0053608Y0044070D01*
X0053800Y0044132D01*
X0053995Y0044190D01*
X0054191Y0044243D01*
X0054390Y0044291D01*
X0054590Y0044335D01*
X0054792Y0044374D01*
X0054996Y0044408D01*
X0055202Y0044438D01*
X0055411Y0044464D01*
X0055622Y0044486D01*
X0055835Y0044505D01*
X0056052Y0044520D01*
X0056272Y0044533D01*
X0056495Y0044542D01*
X0056723Y0044549D01*
X0056955Y0044553D01*
X0057192Y0044555D01*
X0057434Y0044553D01*
X0057681Y0044549D01*
X0057934Y0044541D01*
X0058193Y0044529D01*
X0058459Y0044513D01*
X0058730Y0044493D01*
X0059007Y0044466D01*
X0059290Y0044434D01*
X0059577Y0044394D01*
X0059869Y0044346D01*
X0060164Y0044290D01*
X0060460Y0044223D01*
X0060756Y0044147D01*
X0061051Y0044059D01*
X0061341Y0043958D01*
X0061625Y0043845D01*
X0061900Y0043718D01*
X0062164Y0043577D01*
X0062415Y0043421D01*
X0062651Y0043250D01*
X0062869Y0043063D01*
X0063069Y0042861D01*
X0063248Y0042644D01*
X0063408Y0042412D01*
X0063547Y0042165D01*
X0063665Y0041905D01*
X0063764Y0041631D01*
X0063842Y0041344D01*
X0063902Y0041047D01*
X0036583Y0041173D02*
X0036585Y0041409D01*
X0036587Y0041617D01*
X0036590Y0041804D01*
X0036594Y0041978D01*
X0036597Y0042147D01*
X0036601Y0042318D01*
X0036605Y0042499D01*
X0036607Y0042694D01*
X0036605Y0042909D01*
X0036596Y0043144D01*
X0036574Y0043397D01*
X0036533Y0043663D01*
X0036460Y0043930D01*
X0036344Y0044181D01*
X0036233Y0044326D01*
X0036120Y0044423D01*
X0036007Y0044485D01*
X0035897Y0044523D01*
X0035791Y0044546D01*
X0035687Y0044560D01*
X0035586Y0044567D01*
X0035487Y0044570D01*
X0035388Y0044570D01*
X0035289Y0044569D01*
X0035189Y0044565D01*
X0035088Y0044559D01*
X0034986Y0044551D01*
X0034884Y0044540D01*
X0034782Y0044527D01*
X0034680Y0044510D01*
X0034580Y0044489D01*
X0034481Y0044466D01*
X0034386Y0044438D01*
X0034293Y0044406D01*
X0034205Y0044371D01*
X0034120Y0044331D01*
X0034039Y0044288D01*
X0033963Y0044242D01*
X0033891Y0044192D01*
X0033823Y0044139D01*
X0033758Y0044083D01*
X0033696Y0044025D01*
X0033638Y0043965D01*
X0033582Y0043904D01*
X0033529Y0043841D01*
X0033478Y0043778D01*
X0033428Y0043714D01*
X0033379Y0043650D01*
X0033331Y0043585D01*
X0033284Y0043520D01*
X0033236Y0043453D01*
X0033187Y0043385D01*
X0033136Y0043314D01*
X0033081Y0043239D01*
X0033021Y0043157D01*
X0032954Y0043066D01*
X0032877Y0042964D01*
X0032790Y0042848D01*
X0032688Y0042714D01*
X0032569Y0042558D01*
X0032431Y0042377D01*
X0032270Y0042168D01*
X0032085Y0041926D01*
X0031871Y0041650D01*
X0031629Y0041335D01*
X0031356Y0040982D01*
X0031052Y0040588D01*
X0030717Y0040155D01*
X0030352Y0039683D01*
X0029959Y0039175D01*
X0029541Y0038634D01*
X0029100Y0038065D01*
X0028642Y0037473D01*
X0028172Y0036865D01*
X0027693Y0036247D01*
X0027213Y0035627D01*
X0026737Y0035012D01*
X0026270Y0034408D01*
X0025818Y0033824D01*
X0025385Y0033265D01*
X0024976Y0032736D01*
X0024594Y0032243D01*
X0024241Y0031787D01*
X0023921Y0031373D01*
X0023632Y0031000D01*
X0023377Y0030669D01*
X0023466Y0030784D02*
X0021995Y0028872D01*
X0021931Y0028794D01*
X0021854Y0028699D01*
X0021763Y0028583D01*
X0021656Y0028446D01*
X0021532Y0028287D01*
X0021391Y0028105D01*
X0021233Y0027901D01*
X0021058Y0027675D01*
X0020869Y0027430D01*
X0020666Y0027169D01*
X0020454Y0026895D01*
X0020234Y0026611D01*
X0020010Y0026322D01*
X0019786Y0026032D01*
X0019565Y0025747D01*
X0019351Y0025469D01*
X0019145Y0025204D01*
X0018951Y0024953D01*
X0018772Y0024721D01*
X0018607Y0024507D01*
X0018458Y0024314D01*
X0018325Y0024142D01*
X0018207Y0023989D01*
X0018104Y0023855D01*
X0018013Y0023738D01*
X0017934Y0023635D01*
X0017865Y0023544D01*
X0017803Y0023463D01*
X0017747Y0023388D01*
X0017694Y0023319D01*
X0017643Y0023252D01*
X0017593Y0023186D01*
X0017542Y0023119D01*
X0017490Y0023050D01*
X0017436Y0022978D01*
X0017379Y0022903D01*
X0017318Y0022824D01*
X0017255Y0022742D01*
X0017188Y0022656D01*
X0017119Y0022567D01*
X0017046Y0022475D01*
X0016971Y0022381D01*
X0016894Y0022286D01*
X0016816Y0022189D01*
X0016736Y0022093D01*
X0016655Y0021997D01*
X0016574Y0021902D01*
X0016493Y0021809D01*
X0016412Y0021718D01*
X0016332Y0021630D01*
X0016254Y0021546D01*
X0016177Y0021465D01*
X0016101Y0021388D01*
X0016028Y0021315D01*
X0015957Y0021246D01*
X0015889Y0021181D01*
X0015823Y0021120D01*
X0015759Y0021064D01*
X0015698Y0021011D01*
X0015640Y0020961D01*
X0015584Y0020916D01*
X0015531Y0020873D01*
X0015479Y0020834D01*
X0015430Y0020797D01*
X0015383Y0020763D01*
X0015338Y0020732D01*
X0015294Y0020703D01*
X0015252Y0020676D01*
X0015211Y0020652D01*
X0015170Y0020630D01*
X0015130Y0020609D01*
X0015091Y0020590D01*
X0015053Y0020573D01*
X0015014Y0020557D01*
X0014975Y0020542D01*
X0014937Y0020529D01*
X0014898Y0020516D01*
X0014859Y0020505D01*
X0014820Y0020494D01*
X0014780Y0020484D01*
X0014739Y0020475D01*
X0014698Y0020466D01*
X0014656Y0020457D01*
X0014613Y0020449D01*
X0014569Y0020441D01*
X0014524Y0020433D01*
X0014478Y0020425D01*
X0014430Y0020417D01*
X0014380Y0020410D01*
X0014329Y0020402D01*
X0014276Y0020395D01*
X0014220Y0020387D01*
X0014163Y0020379D01*
X0014103Y0020372D01*
X0014041Y0020364D01*
X0013977Y0020357D01*
X0013911Y0020349D01*
X0013843Y0020341D01*
X0013773Y0020332D01*
X0013701Y0020324D01*
X0013627Y0020314D01*
X0013553Y0020304D01*
X0013477Y0020292D01*
X0013401Y0020280D01*
X0013325Y0020265D01*
X0013250Y0020249D01*
X0013176Y0020230D01*
X0013104Y0020208D01*
X0013035Y0020183D01*
X0012968Y0020154D01*
X0012904Y0020122D01*
X0012845Y0020085D01*
X0012790Y0020045D01*
X0012739Y0020000D01*
X0012693Y0019951D01*
X0012651Y0019898D01*
X0012615Y0019842D01*
X0012582Y0019782D01*
X0012555Y0019720D01*
X0012531Y0019655D01*
X0012511Y0019589D01*
X0012495Y0019522D01*
X0012482Y0019454D01*
X0012473Y0019386D01*
X0012466Y0019320D01*
X0012461Y0019254D01*
X0012459Y0019191D01*
X0012460Y0019130D01*
X0012463Y0019072D01*
X0012468Y0019018D01*
X0012476Y0018967D01*
X0012486Y0018919D01*
X0012499Y0018876D01*
X0012515Y0018837D01*
X0012534Y0018801D01*
X0012556Y0018770D01*
X0012580Y0018742D01*
X0012608Y0018718D01*
X0012638Y0018698D01*
X0012670Y0018681D01*
X0012706Y0018667D01*
X0012744Y0018655D01*
X0012784Y0018646D01*
X0012827Y0018639D01*
X0012872Y0018633D01*
X0012920Y0018629D01*
X0012970Y0018626D01*
X0013022Y0018624D01*
X0013078Y0018623D01*
X0013137Y0018622D01*
X0013199Y0018622D01*
X0013264Y0018623D01*
X0013334Y0018624D01*
X0013407Y0018625D01*
X0013485Y0018627D01*
X0013567Y0018629D01*
X0013653Y0018632D01*
X0013744Y0018635D01*
X0013839Y0018638D01*
X0013938Y0018642D01*
X0014041Y0018647D01*
X0014148Y0018652D01*
X0014259Y0018657D01*
X0014372Y0018664D01*
X0014488Y0018671D01*
X0014607Y0018678D01*
X0014728Y0018686D01*
X0014850Y0018694D01*
X0014974Y0018703D01*
X0015099Y0018712D01*
X0015224Y0018721D01*
X0015351Y0018730D01*
X0015478Y0018739D01*
X0015606Y0018748D01*
X0015733Y0018757D01*
X0015861Y0018765D01*
X0015989Y0018773D01*
X0016118Y0018780D01*
X0016246Y0018786D01*
X0016374Y0018792D01*
X0016502Y0018797D01*
X0016631Y0018801D01*
X0016759Y0018805D01*
X0016887Y0018808D01*
X0017015Y0018810D01*
X0017144Y0018812D01*
X0017272Y0018813D01*
X0017400Y0018814D01*
X0017528Y0018814D01*
X0017656Y0018813D01*
X0017784Y0018812D01*
X0017912Y0018810D01*
X0018040Y0018808D01*
X0018168Y0018805D01*
X0018296Y0018801D01*
X0018424Y0018797D01*
X0018552Y0018792D01*
X0018680Y0018786D01*
X0018807Y0018780D01*
X0018935Y0018773D01*
X0019063Y0018765D01*
X0019190Y0018757D01*
X0019318Y0018748D01*
X0019445Y0018739D01*
X0019572Y0018730D01*
X0019699Y0018721D01*
X0019825Y0018712D01*
X0019950Y0018703D01*
X0020074Y0018694D01*
X0020198Y0018686D01*
X0020319Y0018678D01*
X0020439Y0018671D01*
X0020557Y0018664D01*
X0020671Y0018658D01*
X0020783Y0018652D01*
X0020892Y0018647D01*
X0020997Y0018643D01*
X0021098Y0018639D01*
X0021195Y0018636D01*
X0021288Y0018634D01*
X0021377Y0018633D01*
X0021461Y0018633D01*
X0021541Y0018633D01*
X0021617Y0018634D01*
X0021690Y0018636D01*
X0021758Y0018640D01*
X0021824Y0018644D01*
X0021887Y0018650D01*
X0021947Y0018658D01*
X0022005Y0018667D01*
X0022061Y0018678D01*
X0022115Y0018690D01*
X0022167Y0018705D01*
X0022217Y0018722D01*
X0022265Y0018742D01*
X0022311Y0018764D01*
X0022355Y0018789D01*
X0022396Y0018817D01*
X0022435Y0018848D01*
X0022471Y0018883D01*
X0022504Y0018922D01*
X0022535Y0018965D01*
X0022562Y0019012D01*
X0022587Y0019063D01*
X0022609Y0019119D01*
X0022627Y0019179D01*
X0022642Y0019245D01*
X0022654Y0019314D01*
X0022662Y0019387D01*
X0022666Y0019464D01*
X0022666Y0019544D01*
X0022660Y0019626D01*
X0022647Y0019709D01*
X0022628Y0019791D01*
X0022599Y0019872D01*
X0022562Y0019949D01*
X0022513Y0020023D01*
X0022452Y0020090D01*
X0022379Y0020150D01*
X0022292Y0020203D01*
X0022191Y0020247D01*
X0022077Y0020283D01*
X0021950Y0020311D01*
X0021811Y0020331D01*
X0021662Y0020344D01*
X0021504Y0020353D01*
X0021341Y0020360D01*
X0021174Y0020365D01*
X0021007Y0020372D01*
X0020842Y0020383D01*
X0020682Y0020400D01*
X0020529Y0020425D01*
X0020386Y0020460D01*
X0020254Y0020505D01*
X0020134Y0020562D01*
X0020028Y0020630D01*
X0019936Y0020710D01*
X0019858Y0020801D01*
X0019794Y0020902D01*
X0019743Y0021012D01*
X0019704Y0021129D01*
X0019676Y0021252D01*
X0019659Y0021381D01*
X0019651Y0021513D01*
X0019653Y0021649D01*
X0019663Y0021786D01*
X0019681Y0021926D01*
X0019708Y0022069D01*
X0019742Y0022213D01*
X0019786Y0022360D01*
X0019837Y0022510D01*
X0019897Y0022663D01*
X0019966Y0022820D01*
X0020043Y0022981D01*
X0020128Y0023145D01*
X0020221Y0023313D01*
X0020321Y0023484D01*
X0020428Y0023658D01*
X0020539Y0023832D01*
X0020654Y0024008D01*
X0020771Y0024182D01*
X0020889Y0024353D01*
X0021007Y0024521D01*
X0021123Y0024684D01*
X0021236Y0024841D01*
X0021344Y0024990D01*
X0021447Y0025131D01*
X0021544Y0025263D01*
X0021635Y0025385D01*
X0021718Y0025498D01*
X0021794Y0025601D01*
X0021864Y0025694D01*
X0021926Y0025779D01*
X0021983Y0025854D01*
X0022033Y0025922D01*
X0022078Y0025983D01*
X0022118Y0026037D01*
X0022154Y0026086D01*
X0022187Y0026132D01*
X0022218Y0026174D01*
X0022247Y0026214D01*
X0022274Y0026252D01*
X0022302Y0026291D01*
X0022330Y0026330D01*
X0022358Y0026369D01*
X0022387Y0026411D01*
X0022418Y0026453D01*
X0022449Y0026498D01*
X0022482Y0026544D01*
X0022515Y0026591D01*
X0022549Y0026639D01*
X0022583Y0026688D01*
X0022617Y0026736D01*
X0022650Y0026783D01*
X0022682Y0026828D01*
X0022713Y0026872D01*
X0022742Y0026913D01*
X0022768Y0026950D01*
X0022793Y0026984D01*
X0022815Y0027015D01*
X0022836Y0027041D01*
X0022855Y0027064D01*
X0022875Y0027084D01*
X0022894Y0027100D01*
X0022917Y0027113D01*
X0022943Y0027123D01*
X0022976Y0027131D01*
X0023018Y0027138D01*
X0023072Y0027142D01*
X0023141Y0027145D01*
X0023228Y0027148D01*
X0023336Y0027149D01*
X0023469Y0027150D01*
X0023628Y0027151D01*
X0023816Y0027152D01*
X0024034Y0027152D01*
X0024283Y0027152D01*
X0024561Y0027152D01*
X0024868Y0027152D01*
X0025200Y0027152D01*
X0025554Y0027152D01*
X0025925Y0027152D01*
X0026307Y0027152D01*
X0026696Y0027152D01*
X0027085Y0027152D01*
X0027467Y0027152D01*
X0027836Y0027152D01*
X0028188Y0027152D01*
X0028518Y0027152D01*
X0028822Y0027152D01*
X0029097Y0027152D01*
X0029342Y0027151D01*
X0029557Y0027151D01*
X0029742Y0027149D01*
X0029898Y0027147D01*
X0030027Y0027144D01*
X0030132Y0027139D01*
X0030215Y0027131D01*
X0030280Y0027121D01*
X0030330Y0027106D01*
X0030367Y0027087D01*
X0030393Y0027061D01*
X0030412Y0027029D01*
X0030426Y0026988D01*
X0030435Y0026938D01*
X0030441Y0026878D01*
X0030446Y0026807D01*
X0030449Y0026725D01*
X0030452Y0026631D01*
X0030454Y0026526D01*
X0030457Y0026411D01*
X0030459Y0026287D01*
X0030462Y0026154D01*
X0030464Y0026015D01*
X0030467Y0025873D01*
X0030470Y0025728D01*
X0030473Y0025583D01*
X0030475Y0025442D01*
X0030478Y0025305D01*
X0030480Y0025174D01*
X0030483Y0025052D01*
X0030485Y0024940D01*
X0030487Y0024839D01*
X0030488Y0024748D01*
X0030490Y0024669D01*
X0030491Y0024600D01*
X0030492Y0024542D01*
X0030493Y0024492D01*
X0030493Y0024450D01*
X0030494Y0024415D01*
X0030494Y0024384D01*
X0030493Y0024355D01*
X0030493Y0024328D01*
X0030492Y0024300D01*
X0030491Y0024270D01*
X0030490Y0024237D01*
X0030488Y0024198D01*
X0030486Y0024153D01*
X0030483Y0024102D01*
X0030480Y0024043D01*
X0030476Y0023976D01*
X0030473Y0023902D01*
X0030468Y0023820D01*
X0030464Y0023733D01*
X0030459Y0023639D01*
X0030454Y0023541D01*
X0030448Y0023441D01*
X0030443Y0023338D01*
X0030437Y0023236D01*
X0030432Y0023134D01*
X0030427Y0023036D01*
X0030422Y0022940D01*
X0030417Y0022849D01*
X0030413Y0022763D01*
X0030408Y0022681D01*
X0030404Y0022604D01*
X0030400Y0022531D01*
X0030396Y0022461D01*
X0030393Y0022394D01*
X0030389Y0022328D01*
X0030385Y0022263D01*
X0030381Y0022197D01*
X0030376Y0022130D01*
X0030371Y0022061D01*
X0030366Y0021990D01*
X0030360Y0021916D01*
X0030352Y0021839D01*
X0030344Y0021760D01*
X0030334Y0021678D01*
X0030323Y0021595D01*
X0030311Y0021512D01*
X0030296Y0021428D01*
X0030279Y0021344D01*
X0030259Y0021263D01*
X0030237Y0021183D01*
X0030211Y0021106D01*
X0030181Y0021032D01*
X0030147Y0020962D01*
X0030109Y0020896D01*
X0030066Y0020834D01*
X0030017Y0020776D01*
X0029964Y0020723D01*
X0029905Y0020673D01*
X0029840Y0020628D01*
X0029770Y0020587D01*
X0029695Y0020549D01*
X0029616Y0020515D01*
X0029532Y0020484D01*
X0029445Y0020457D01*
X0029354Y0020431D01*
X0029262Y0020409D01*
X0029168Y0020388D01*
X0029073Y0020370D01*
X0028978Y0020353D01*
X0028883Y0020338D01*
X0028789Y0020324D01*
X0028696Y0020311D01*
X0028604Y0020300D01*
X0028514Y0020289D01*
X0028425Y0020279D01*
X0028337Y0020269D01*
X0028251Y0020260D01*
X0028166Y0020251D01*
X0028082Y0020241D01*
X0027999Y0020232D01*
X0027917Y0020221D01*
X0027836Y0020209D01*
X0027757Y0020196D01*
X0027679Y0020181D01*
X0027603Y0020164D01*
X0027529Y0020144D01*
X0027458Y0020121D01*
X0027390Y0020095D01*
X0027326Y0020065D01*
X0027266Y0020032D01*
X0027210Y0019994D01*
X0027159Y0019952D01*
X0027113Y0019907D01*
X0027072Y0019857D01*
X0027035Y0019805D01*
X0027003Y0019749D01*
X0026975Y0019692D01*
X0026952Y0019632D01*
X0026933Y0019571D01*
X0026917Y0019509D01*
X0026904Y0019447D01*
X0026894Y0019386D01*
X0026887Y0019326D01*
X0026883Y0019267D01*
X0026880Y0019210D01*
X0026880Y0019155D01*
X0026882Y0019103D01*
X0026885Y0019054D01*
X0026891Y0019008D01*
X0026899Y0018965D01*
X0026909Y0018925D01*
X0026921Y0018888D01*
X0026936Y0018855D01*
X0026953Y0018824D01*
X0026972Y0018796D01*
X0026994Y0018772D01*
X0027018Y0018749D01*
X0027044Y0018730D01*
X0027073Y0018712D01*
X0027105Y0018697D01*
X0027139Y0018684D01*
X0027176Y0018672D01*
X0027216Y0018663D01*
X0027260Y0018655D01*
X0027307Y0018648D01*
X0027358Y0018642D01*
X0027413Y0018638D01*
X0027473Y0018635D01*
X0027539Y0018632D01*
X0027610Y0018631D01*
X0027687Y0018630D01*
X0027771Y0018630D01*
X0027861Y0018630D01*
X0027958Y0018632D01*
X0028062Y0018634D01*
X0028173Y0018636D01*
X0028290Y0018640D01*
X0028414Y0018643D01*
X0028544Y0018648D01*
X0028680Y0018653D01*
X0028821Y0018659D01*
X0028966Y0018665D01*
X0029115Y0018672D01*
X0029268Y0018680D01*
X0029424Y0018688D01*
X0029582Y0018696D01*
X0029742Y0018705D01*
X0029904Y0018714D01*
X0030067Y0018723D01*
X0030231Y0018732D01*
X0030395Y0018741D01*
X0030560Y0018750D01*
X0030726Y0018759D01*
X0030891Y0018767D01*
X0031057Y0018774D01*
X0031223Y0018781D01*
X0031389Y0018787D01*
X0031555Y0018793D01*
X0031721Y0018798D01*
X0031887Y0018802D01*
X0032052Y0018806D01*
X0032218Y0018808D01*
X0032384Y0018811D01*
X0032550Y0018812D01*
X0032715Y0018813D01*
X0032881Y0018814D01*
X0033046Y0018814D01*
X0033211Y0018813D01*
X0033376Y0018812D01*
X0033541Y0018810D01*
X0033705Y0018807D01*
X0033869Y0018804D01*
X0034033Y0018800D01*
X0034196Y0018796D01*
X0034359Y0018791D01*
X0034522Y0018785D01*
X0034684Y0018778D01*
X0034846Y0018771D01*
X0035007Y0018763D01*
X0035169Y0018755D01*
X0035329Y0018746D01*
X0035490Y0018738D01*
X0035650Y0018728D01*
X0035810Y0018719D01*
X0035969Y0018710D01*
X0036127Y0018701D01*
X0036283Y0018692D01*
X0036438Y0018684D01*
X0036592Y0018676D01*
X0036742Y0018669D01*
X0036890Y0018662D01*
X0037034Y0018656D01*
X0037174Y0018651D01*
X0037310Y0018646D01*
X0037440Y0018642D01*
X0037565Y0018638D01*
X0037684Y0018636D01*
X0037797Y0018633D01*
X0037904Y0018632D01*
X0038005Y0018631D01*
X0038100Y0018631D01*
X0038190Y0018632D01*
X0038273Y0018634D01*
X0038352Y0018637D01*
X0038426Y0018641D01*
X0038496Y0018646D01*
X0038562Y0018653D01*
X0038625Y0018661D01*
X0038684Y0018671D01*
X0038741Y0018683D01*
X0038796Y0018697D01*
X0038847Y0018714D01*
X0038897Y0018732D01*
X0038943Y0018754D01*
X0038988Y0018779D01*
X0039029Y0018806D01*
X0039068Y0018837D01*
X0039104Y0018870D01*
X0039137Y0018907D01*
X0039167Y0018947D01*
X0039194Y0018990D01*
X0039218Y0019036D01*
X0039239Y0019084D01*
X0039257Y0019134D01*
X0039273Y0019187D01*
X0039287Y0019241D01*
X0039298Y0019296D01*
X0039307Y0019352D01*
X0039314Y0019408D01*
X0039319Y0019465D01*
X0039322Y0019520D01*
X0039324Y0019575D01*
X0039324Y0019629D01*
X0039322Y0019681D01*
X0039318Y0019732D01*
X0039312Y0019780D01*
X0039304Y0019826D01*
X0039294Y0019869D01*
X0039282Y0019910D01*
X0039267Y0019947D01*
X0039249Y0019982D01*
X0039229Y0020015D01*
X0039207Y0020044D01*
X0039181Y0020071D01*
X0039153Y0020095D01*
X0039122Y0020117D01*
X0039088Y0020137D01*
X0039051Y0020155D01*
X0039011Y0020172D01*
X0038968Y0020187D01*
X0038921Y0020201D01*
X0038871Y0020214D01*
X0038816Y0020226D01*
X0038757Y0020238D01*
X0038694Y0020250D01*
X0038625Y0020263D01*
X0038551Y0020275D01*
X0038472Y0020289D01*
X0038387Y0020303D01*
X0038297Y0020319D01*
X0038202Y0020337D01*
X0038102Y0020356D01*
X0037998Y0020378D01*
X0037892Y0020402D01*
X0037784Y0020430D01*
X0037675Y0020461D01*
X0037567Y0020496D01*
X0037461Y0020535D01*
X0037359Y0020578D01*
X0037261Y0020627D01*
X0037170Y0020681D01*
X0037085Y0020740D01*
X0037007Y0020805D01*
X0036938Y0020876D01*
X0036877Y0020952D01*
X0036824Y0021034D01*
X0036779Y0021122D01*
X0036742Y0021214D01*
X0036711Y0021312D01*
X0036687Y0021414D01*
X0036668Y0021519D01*
X0036654Y0021628D01*
X0036643Y0021739D01*
X0036635Y0021851D01*
X0036630Y0021964D01*
X0036626Y0022077D01*
X0036623Y0022189D01*
X0036621Y0022300D01*
X0036620Y0022408D01*
X0036619Y0022515D01*
X0036618Y0022620D01*
X0036617Y0022723D01*
X0036615Y0022826D01*
X0036614Y0022930D01*
X0036613Y0023037D01*
X0036612Y0023150D01*
X0036611Y0023269D01*
X0036610Y0023399D01*
X0036609Y0023541D01*
X0036608Y0023699D01*
X0036607Y0023873D01*
X0036607Y0024066D01*
X0036606Y0024278D01*
X0036605Y0024510D01*
X0036604Y0024761D01*
X0036604Y0025029D01*
X0036603Y0025311D01*
X0036603Y0025606D01*
X0036602Y0025907D01*
X0036601Y0026212D01*
X0036601Y0026516D01*
X0036600Y0026813D01*
X0036600Y0027101D01*
X0036599Y0027373D01*
X0036599Y0027629D01*
X0036598Y0027863D01*
X0036597Y0028075D01*
X0036595Y0030862D01*
X0036591Y0030864D02*
X0036591Y0031228D01*
X0036591Y0031635D01*
X0036591Y0032084D01*
X0036590Y0032574D01*
X0036590Y0033101D01*
X0036589Y0033660D01*
X0036588Y0034244D01*
X0036586Y0034848D01*
X0036585Y0035463D01*
X0036584Y0036082D01*
X0036583Y0036696D01*
X0036582Y0037296D01*
X0036581Y0037874D01*
X0036581Y0038425D01*
X0036580Y0038941D01*
X0036580Y0039419D01*
X0036580Y0039854D01*
X0036580Y0040247D01*
X0036581Y0040596D01*
X0036582Y0040904D01*
X0036583Y0041173D01*
X0030607Y0037314D02*
X0030624Y0037268D01*
X0030635Y0037198D01*
X0030642Y0037105D01*
X0030646Y0036987D01*
X0030648Y0036844D01*
X0030647Y0036675D01*
X0030645Y0036478D01*
X0030642Y0036255D01*
X0030637Y0036006D01*
X0030632Y0035731D01*
X0030627Y0035432D01*
X0030620Y0035110D01*
X0030614Y0034770D01*
X0030607Y0034413D01*
X0030599Y0034044D01*
X0030592Y0033667D01*
X0030584Y0033287D01*
X0030577Y0032907D01*
X0030569Y0032532D01*
X0030562Y0032167D01*
X0030555Y0031816D01*
X0030549Y0031482D01*
X0030542Y0031168D01*
X0030537Y0030877D01*
X0030532Y0030611D01*
X0030528Y0030370D01*
X0030525Y0030155D01*
X0030523Y0029966D01*
X0030523Y0029801D01*
X0030525Y0029661D01*
X0030530Y0029109D01*
X0030541Y0029102D02*
X0024329Y0029102D01*
X0024321Y0029100D02*
X0024585Y0029460D01*
X0024665Y0029562D01*
X0024759Y0029684D01*
X0024868Y0029829D01*
X0024995Y0029998D01*
X0025141Y0030192D01*
X0025305Y0030412D01*
X0025488Y0030658D01*
X0025690Y0030929D01*
X0025910Y0031224D01*
X0026147Y0031541D01*
X0026398Y0031879D01*
X0026662Y0032232D01*
X0026936Y0032599D01*
X0027216Y0032975D01*
X0027499Y0033356D01*
X0027783Y0033736D01*
X0028063Y0034112D01*
X0028337Y0034479D01*
X0028601Y0034833D01*
X0028852Y0035170D01*
X0029089Y0035488D01*
X0029309Y0035783D01*
X0029511Y0036053D01*
X0029694Y0036298D01*
X0029857Y0036516D01*
X0030002Y0036707D01*
X0030128Y0036872D01*
X0030236Y0037011D01*
X0030327Y0037124D01*
X0030403Y0037213D01*
X0030465Y0037278D01*
X0030515Y0037321D01*
X0030554Y0037341D01*
X0030585Y0037339D01*
X0030607Y0037314D01*
D23*
X0332500Y0121000D03*
D24*
X0291200Y0114800D02*
X0291300Y0114000D01*
X0291300Y0113100D01*
X0291200Y0112000D01*
X0287200Y0111300D01*
X0287000Y0110600D01*
X0286700Y0109700D01*
X0286400Y0108800D01*
X0285900Y0108000D01*
X0288300Y0104400D01*
X0287700Y0103700D01*
X0287100Y0103000D01*
X0286500Y0102400D01*
X0285800Y0101700D01*
X0282500Y0104100D01*
X0281800Y0103700D01*
X0281100Y0103300D01*
X0280400Y0102900D01*
X0277800Y0109600D01*
X0278505Y0109958D01*
X0279131Y0110441D01*
X0279655Y0111034D01*
X0280059Y0111714D01*
X0280328Y0112458D01*
X0280453Y0113239D01*
X0280429Y0114029D01*
X0280258Y0114801D01*
X0279944Y0115528D01*
X0279501Y0116182D01*
X0278942Y0116742D01*
X0278288Y0117187D01*
X0277562Y0117502D01*
X0276791Y0117675D01*
X0276000Y0117700D01*
X0275223Y0117638D01*
X0274470Y0117433D01*
X0273769Y0117091D01*
X0273144Y0116626D01*
X0272616Y0116052D01*
X0272204Y0115390D01*
X0271922Y0114663D01*
X0271780Y0113896D01*
X0271783Y0113116D01*
X0271931Y0112351D01*
X0272218Y0111626D01*
X0272635Y0110967D01*
X0273168Y0110397D01*
X0273796Y0109936D01*
X0274500Y0109600D01*
X0272100Y0102800D01*
X0271500Y0103100D01*
X0270800Y0103400D01*
X0270100Y0103800D01*
X0266700Y0101500D01*
X0266100Y0102000D01*
X0265400Y0102700D01*
X0264700Y0103400D01*
X0264100Y0104100D01*
X0266500Y0107300D01*
X0266100Y0108100D01*
X0265700Y0109000D01*
X0265300Y0110000D01*
X0265100Y0111000D01*
X0260900Y0111700D01*
X0260900Y0114300D01*
X0261000Y0115500D01*
X0265000Y0116100D01*
X0265300Y0116900D01*
X0265600Y0117700D01*
X0266000Y0118600D01*
X0266500Y0119500D01*
X0264200Y0122900D01*
X0264800Y0123600D01*
X0265500Y0124300D01*
X0266200Y0125000D01*
X0266900Y0125600D01*
X0270300Y0123200D01*
X0271500Y0123800D01*
X0272300Y0124200D01*
X0273400Y0124500D01*
X0274200Y0128600D01*
X0278000Y0128600D01*
X0278600Y0124500D01*
X0279300Y0124300D01*
X0280000Y0124100D01*
X0280800Y0123700D01*
X0281700Y0123300D01*
X0285100Y0125700D01*
X0285900Y0125000D01*
X0286700Y0124300D01*
X0287400Y0123600D01*
X0288000Y0122900D01*
X0285500Y0119700D01*
X0286000Y0118900D01*
X0286400Y0118200D01*
X0286600Y0117600D01*
X0287000Y0116500D01*
X0291100Y0115800D01*
X0291200Y0114800D01*
X0291203Y0114777D02*
X0280263Y0114777D01*
X0280307Y0114578D02*
X0291228Y0114578D01*
X0291253Y0114380D02*
X0280351Y0114380D01*
X0280395Y0114181D02*
X0291277Y0114181D01*
X0291300Y0113983D02*
X0280431Y0113983D01*
X0280437Y0113784D02*
X0291300Y0113784D01*
X0291300Y0113586D02*
X0280443Y0113586D01*
X0280449Y0113387D02*
X0291300Y0113387D01*
X0291300Y0113189D02*
X0280445Y0113189D01*
X0280413Y0112990D02*
X0291290Y0112990D01*
X0291272Y0112792D02*
X0280382Y0112792D01*
X0280350Y0112593D02*
X0291254Y0112593D01*
X0291236Y0112395D02*
X0280305Y0112395D01*
X0280234Y0112196D02*
X0291218Y0112196D01*
X0291186Y0111998D02*
X0280162Y0111998D01*
X0280090Y0111799D02*
X0290052Y0111799D01*
X0288918Y0111601D02*
X0279992Y0111601D01*
X0279874Y0111402D02*
X0287783Y0111402D01*
X0287172Y0111204D02*
X0279756Y0111204D01*
X0279630Y0111005D02*
X0287116Y0111005D01*
X0287059Y0110807D02*
X0279454Y0110807D01*
X0279279Y0110608D02*
X0287002Y0110608D01*
X0286937Y0110410D02*
X0279090Y0110410D01*
X0278833Y0110211D02*
X0286870Y0110211D01*
X0286804Y0110012D02*
X0278576Y0110012D01*
X0278222Y0109814D02*
X0286738Y0109814D01*
X0286672Y0109615D02*
X0277830Y0109615D01*
X0277871Y0109417D02*
X0286606Y0109417D01*
X0286539Y0109218D02*
X0277948Y0109218D01*
X0278025Y0109020D02*
X0286473Y0109020D01*
X0286407Y0108821D02*
X0278102Y0108821D01*
X0278179Y0108623D02*
X0286289Y0108623D01*
X0286165Y0108424D02*
X0278256Y0108424D01*
X0278333Y0108226D02*
X0286041Y0108226D01*
X0285917Y0108027D02*
X0278410Y0108027D01*
X0278487Y0107829D02*
X0286014Y0107829D01*
X0286146Y0107630D02*
X0278564Y0107630D01*
X0278641Y0107432D02*
X0286279Y0107432D01*
X0286411Y0107233D02*
X0278718Y0107233D01*
X0278795Y0107035D02*
X0286543Y0107035D01*
X0286676Y0106836D02*
X0278872Y0106836D01*
X0278950Y0106638D02*
X0286808Y0106638D01*
X0286940Y0106439D02*
X0279027Y0106439D01*
X0279104Y0106241D02*
X0287073Y0106241D01*
X0287205Y0106042D02*
X0279181Y0106042D01*
X0279258Y0105844D02*
X0287338Y0105844D01*
X0287470Y0105645D02*
X0279335Y0105645D01*
X0279412Y0105447D02*
X0287602Y0105447D01*
X0287735Y0105248D02*
X0279489Y0105248D01*
X0279566Y0105050D02*
X0287867Y0105050D01*
X0287999Y0104851D02*
X0279643Y0104851D01*
X0279720Y0104653D02*
X0288132Y0104653D01*
X0288264Y0104454D02*
X0279797Y0104454D01*
X0279874Y0104256D02*
X0288176Y0104256D01*
X0288006Y0104057D02*
X0282559Y0104057D01*
X0282425Y0104057D02*
X0279951Y0104057D01*
X0280028Y0103859D02*
X0282078Y0103859D01*
X0281730Y0103660D02*
X0280105Y0103660D01*
X0280182Y0103462D02*
X0281383Y0103462D01*
X0281035Y0103263D02*
X0280259Y0103263D01*
X0280336Y0103065D02*
X0280688Y0103065D01*
X0282832Y0103859D02*
X0287836Y0103859D01*
X0287666Y0103660D02*
X0283105Y0103660D01*
X0283378Y0103462D02*
X0287496Y0103462D01*
X0287326Y0103263D02*
X0283651Y0103263D01*
X0283924Y0103065D02*
X0287155Y0103065D01*
X0286966Y0102866D02*
X0284197Y0102866D01*
X0284470Y0102668D02*
X0286768Y0102668D01*
X0286569Y0102469D02*
X0284743Y0102469D01*
X0285015Y0102271D02*
X0286371Y0102271D01*
X0286172Y0102072D02*
X0285288Y0102072D01*
X0285561Y0101874D02*
X0285974Y0101874D01*
X0273314Y0106241D02*
X0265706Y0106241D01*
X0265854Y0106439D02*
X0273384Y0106439D01*
X0273455Y0106638D02*
X0266003Y0106638D01*
X0266152Y0106836D02*
X0273525Y0106836D01*
X0273595Y0107035D02*
X0266301Y0107035D01*
X0266450Y0107233D02*
X0273665Y0107233D01*
X0273735Y0107432D02*
X0266434Y0107432D01*
X0266335Y0107630D02*
X0273805Y0107630D01*
X0273875Y0107829D02*
X0266236Y0107829D01*
X0266136Y0108027D02*
X0273945Y0108027D01*
X0274015Y0108226D02*
X0266044Y0108226D01*
X0265956Y0108424D02*
X0274085Y0108424D01*
X0274155Y0108623D02*
X0265868Y0108623D01*
X0265779Y0108821D02*
X0274225Y0108821D01*
X0274295Y0109020D02*
X0265692Y0109020D01*
X0265613Y0109218D02*
X0274365Y0109218D01*
X0274435Y0109417D02*
X0265533Y0109417D01*
X0265454Y0109615D02*
X0274468Y0109615D01*
X0274052Y0109814D02*
X0265374Y0109814D01*
X0265298Y0110012D02*
X0273692Y0110012D01*
X0273422Y0110211D02*
X0265258Y0110211D01*
X0265218Y0110410D02*
X0273156Y0110410D01*
X0272971Y0110608D02*
X0265178Y0110608D01*
X0265139Y0110807D02*
X0272785Y0110807D01*
X0272611Y0111005D02*
X0265070Y0111005D01*
X0263879Y0111204D02*
X0272486Y0111204D01*
X0272360Y0111402D02*
X0262688Y0111402D01*
X0261497Y0111601D02*
X0272234Y0111601D01*
X0272150Y0111799D02*
X0260900Y0111799D01*
X0260900Y0111998D02*
X0272071Y0111998D01*
X0271992Y0112196D02*
X0260900Y0112196D01*
X0260900Y0112395D02*
X0271922Y0112395D01*
X0271884Y0112593D02*
X0260900Y0112593D01*
X0260900Y0112792D02*
X0271846Y0112792D01*
X0271807Y0112990D02*
X0260900Y0112990D01*
X0260900Y0113189D02*
X0271783Y0113189D01*
X0271782Y0113387D02*
X0260900Y0113387D01*
X0260900Y0113586D02*
X0271781Y0113586D01*
X0271780Y0113784D02*
X0260900Y0113784D01*
X0260900Y0113983D02*
X0271796Y0113983D01*
X0271833Y0114181D02*
X0260900Y0114181D01*
X0260907Y0114380D02*
X0271870Y0114380D01*
X0271906Y0114578D02*
X0260923Y0114578D01*
X0260940Y0114777D02*
X0271966Y0114777D01*
X0272043Y0114975D02*
X0260956Y0114975D01*
X0260973Y0115174D02*
X0272120Y0115174D01*
X0272197Y0115372D02*
X0260989Y0115372D01*
X0261472Y0115571D02*
X0272317Y0115571D01*
X0272440Y0115769D02*
X0262795Y0115769D01*
X0264119Y0115968D02*
X0272564Y0115968D01*
X0272722Y0116166D02*
X0265025Y0116166D01*
X0265099Y0116365D02*
X0272904Y0116365D01*
X0273087Y0116563D02*
X0265174Y0116563D01*
X0265248Y0116762D02*
X0273327Y0116762D01*
X0273594Y0116960D02*
X0265323Y0116960D01*
X0265397Y0117159D02*
X0273908Y0117159D01*
X0274316Y0117357D02*
X0265472Y0117357D01*
X0265546Y0117556D02*
X0274922Y0117556D01*
X0277321Y0117556D02*
X0286616Y0117556D01*
X0286549Y0117754D02*
X0265624Y0117754D01*
X0265712Y0117953D02*
X0286482Y0117953D01*
X0286416Y0118151D02*
X0265801Y0118151D01*
X0265889Y0118350D02*
X0286314Y0118350D01*
X0286201Y0118548D02*
X0265977Y0118548D01*
X0266082Y0118747D02*
X0286087Y0118747D01*
X0285972Y0118945D02*
X0266192Y0118945D01*
X0266302Y0119144D02*
X0285848Y0119144D01*
X0285723Y0119343D02*
X0266413Y0119343D01*
X0266472Y0119541D02*
X0285599Y0119541D01*
X0285531Y0119740D02*
X0266338Y0119740D01*
X0266204Y0119938D02*
X0285686Y0119938D01*
X0285841Y0120137D02*
X0266069Y0120137D01*
X0265935Y0120335D02*
X0285996Y0120335D01*
X0286151Y0120534D02*
X0265801Y0120534D01*
X0265667Y0120732D02*
X0286306Y0120732D01*
X0286461Y0120931D02*
X0265532Y0120931D01*
X0265398Y0121129D02*
X0286616Y0121129D01*
X0286772Y0121328D02*
X0265264Y0121328D01*
X0265129Y0121526D02*
X0286927Y0121526D01*
X0287082Y0121725D02*
X0264995Y0121725D01*
X0264861Y0121923D02*
X0287237Y0121923D01*
X0287392Y0122122D02*
X0264727Y0122122D01*
X0264592Y0122320D02*
X0287547Y0122320D01*
X0287702Y0122519D02*
X0264458Y0122519D01*
X0264324Y0122717D02*
X0287857Y0122717D01*
X0287987Y0122916D02*
X0264213Y0122916D01*
X0264384Y0123114D02*
X0287816Y0123114D01*
X0287646Y0123313D02*
X0281718Y0123313D01*
X0281671Y0123313D02*
X0270525Y0123313D01*
X0270140Y0123313D02*
X0264554Y0123313D01*
X0264724Y0123511D02*
X0269859Y0123511D01*
X0269578Y0123710D02*
X0264910Y0123710D01*
X0265108Y0123908D02*
X0269297Y0123908D01*
X0269015Y0124107D02*
X0265307Y0124107D01*
X0265505Y0124305D02*
X0268734Y0124305D01*
X0268453Y0124504D02*
X0265704Y0124504D01*
X0265902Y0124702D02*
X0268172Y0124702D01*
X0267890Y0124901D02*
X0266101Y0124901D01*
X0266316Y0125099D02*
X0267609Y0125099D01*
X0267328Y0125298D02*
X0266548Y0125298D01*
X0266779Y0125496D02*
X0267047Y0125496D01*
X0270923Y0123511D02*
X0281225Y0123511D01*
X0280780Y0123710D02*
X0271320Y0123710D01*
X0271717Y0123908D02*
X0280383Y0123908D01*
X0279976Y0124107D02*
X0272114Y0124107D01*
X0272686Y0124305D02*
X0279281Y0124305D01*
X0278599Y0124504D02*
X0273401Y0124504D01*
X0273439Y0124702D02*
X0278570Y0124702D01*
X0278541Y0124901D02*
X0273478Y0124901D01*
X0273517Y0125099D02*
X0278512Y0125099D01*
X0278483Y0125298D02*
X0273556Y0125298D01*
X0273594Y0125496D02*
X0278454Y0125496D01*
X0278425Y0125695D02*
X0273633Y0125695D01*
X0273672Y0125893D02*
X0278396Y0125893D01*
X0278367Y0126092D02*
X0273711Y0126092D01*
X0273749Y0126290D02*
X0278338Y0126290D01*
X0278309Y0126489D02*
X0273788Y0126489D01*
X0273827Y0126687D02*
X0278280Y0126687D01*
X0278251Y0126886D02*
X0273866Y0126886D01*
X0273904Y0127084D02*
X0278222Y0127084D01*
X0278193Y0127283D02*
X0273943Y0127283D01*
X0273982Y0127481D02*
X0278164Y0127481D01*
X0278135Y0127680D02*
X0274020Y0127680D01*
X0274059Y0127879D02*
X0278106Y0127879D01*
X0278077Y0128077D02*
X0274098Y0128077D01*
X0274137Y0128276D02*
X0278047Y0128276D01*
X0278018Y0128474D02*
X0274175Y0128474D01*
X0283687Y0124702D02*
X0286240Y0124702D01*
X0286467Y0124504D02*
X0283405Y0124504D01*
X0283124Y0124305D02*
X0286694Y0124305D01*
X0286893Y0124107D02*
X0282843Y0124107D01*
X0282562Y0123908D02*
X0287092Y0123908D01*
X0287290Y0123710D02*
X0282281Y0123710D01*
X0281999Y0123511D02*
X0287476Y0123511D01*
X0286013Y0124901D02*
X0283968Y0124901D01*
X0284249Y0125099D02*
X0285786Y0125099D01*
X0285560Y0125298D02*
X0284530Y0125298D01*
X0284812Y0125496D02*
X0285333Y0125496D01*
X0285106Y0125695D02*
X0285093Y0125695D01*
X0286688Y0117357D02*
X0277895Y0117357D01*
X0278329Y0117159D02*
X0286760Y0117159D01*
X0286833Y0116960D02*
X0278621Y0116960D01*
X0278913Y0116762D02*
X0286905Y0116762D01*
X0286977Y0116563D02*
X0279120Y0116563D01*
X0279318Y0116365D02*
X0287792Y0116365D01*
X0288954Y0116166D02*
X0279511Y0116166D01*
X0279646Y0115968D02*
X0290117Y0115968D01*
X0291103Y0115769D02*
X0279780Y0115769D01*
X0279915Y0115571D02*
X0291123Y0115571D01*
X0291143Y0115372D02*
X0280011Y0115372D01*
X0280097Y0115174D02*
X0291163Y0115174D01*
X0291182Y0114975D02*
X0280183Y0114975D01*
X0273244Y0106042D02*
X0265557Y0106042D01*
X0265408Y0105844D02*
X0273174Y0105844D01*
X0273104Y0105645D02*
X0265259Y0105645D01*
X0265110Y0105447D02*
X0273034Y0105447D01*
X0272964Y0105248D02*
X0264961Y0105248D01*
X0264812Y0105050D02*
X0272894Y0105050D01*
X0272824Y0104851D02*
X0264663Y0104851D01*
X0264515Y0104653D02*
X0272754Y0104653D01*
X0272684Y0104454D02*
X0264366Y0104454D01*
X0264217Y0104256D02*
X0272614Y0104256D01*
X0272544Y0104057D02*
X0264137Y0104057D01*
X0264307Y0103859D02*
X0272474Y0103859D01*
X0272404Y0103660D02*
X0270345Y0103660D01*
X0270692Y0103462D02*
X0272334Y0103462D01*
X0272263Y0103263D02*
X0271119Y0103263D01*
X0271571Y0103065D02*
X0272193Y0103065D01*
X0272123Y0102866D02*
X0271968Y0102866D01*
X0269893Y0103660D02*
X0264477Y0103660D01*
X0264647Y0103462D02*
X0269600Y0103462D01*
X0269306Y0103263D02*
X0264837Y0103263D01*
X0265035Y0103065D02*
X0269013Y0103065D01*
X0268719Y0102866D02*
X0265234Y0102866D01*
X0265432Y0102668D02*
X0268426Y0102668D01*
X0268133Y0102469D02*
X0265631Y0102469D01*
X0265829Y0102271D02*
X0267839Y0102271D01*
X0267546Y0102072D02*
X0266028Y0102072D01*
X0266252Y0101874D02*
X0267252Y0101874D01*
X0266959Y0101675D02*
X0266490Y0101675D01*
M02*
