G75*
%MOIN*%
%OFA0B0*%
%FSLAX25Y25*%
%IPPOS*%
%LPD*%
%AMOC8*
5,1,8,0,0,1.08239X$1,22.5*
%
%ADD10C,0.00800*%
%ADD11C,0.09055*%
%ADD12R,0.39370X0.39370*%
%ADD13C,0.70079*%
%ADD14R,0.05906X0.05118*%
%ADD15R,0.05118X0.05906*%
%ADD16R,0.05537X0.05537*%
%ADD17C,0.05537*%
%ADD18C,0.03175*%
%ADD19C,0.16598*%
%ADD20R,0.02362X0.08661*%
%ADD21R,0.04750X0.04750*%
%ADD22C,0.04750*%
%ADD23OC8,0.04750*%
%ADD24OC8,0.08500*%
%ADD25R,0.05143X0.05143*%
%ADD26C,0.05143*%
%ADD27C,0.03962*%
%ADD28C,0.03200*%
%ADD29C,0.01000*%
%ADD30C,0.01600*%
%ADD31C,0.02400*%
%ADD32C,0.04000*%
D10*
X0013400Y0226400D02*
X0013400Y0229503D01*
X0014434Y0230537D01*
X0015468Y0230537D01*
X0016503Y0229503D01*
X0016503Y0226400D01*
X0019605Y0226400D02*
X0019605Y0229503D01*
X0018571Y0230537D01*
X0017537Y0230537D01*
X0016503Y0229503D01*
X0016503Y0232845D02*
X0014434Y0232845D01*
X0013400Y0233880D01*
X0013400Y0235948D01*
X0014434Y0236982D01*
X0016503Y0236982D01*
X0017537Y0235948D01*
X0017537Y0233880D01*
X0016503Y0232845D01*
X0017537Y0239291D02*
X0017537Y0241359D01*
X0018571Y0240325D02*
X0014434Y0240325D01*
X0013400Y0241359D01*
X0014434Y0244622D02*
X0013400Y0245656D01*
X0014434Y0244622D02*
X0018571Y0244622D01*
X0017537Y0243588D02*
X0017537Y0245656D01*
X0016503Y0247885D02*
X0014434Y0247885D01*
X0013400Y0248919D01*
X0013400Y0250988D01*
X0014434Y0252022D01*
X0016503Y0252022D01*
X0017537Y0250988D01*
X0017537Y0248919D01*
X0016503Y0247885D01*
X0017537Y0254330D02*
X0013400Y0254330D01*
X0013400Y0256399D02*
X0016503Y0256399D01*
X0017537Y0257433D01*
X0016503Y0258467D01*
X0013400Y0258467D01*
X0016503Y0256399D02*
X0017537Y0255365D01*
X0017537Y0254330D01*
X0019605Y0267221D02*
X0019605Y0268256D01*
X0013400Y0268256D01*
X0013400Y0269290D02*
X0013400Y0267221D01*
X0014434Y0271518D02*
X0013400Y0272553D01*
X0013400Y0275655D01*
X0016503Y0275655D01*
X0017537Y0274621D01*
X0017537Y0272553D01*
X0015468Y0272553D02*
X0015468Y0275655D01*
X0014434Y0277964D02*
X0013400Y0278998D01*
X0013400Y0282101D01*
X0012366Y0282101D02*
X0011332Y0281067D01*
X0011332Y0280032D01*
X0012366Y0282101D02*
X0017537Y0282101D01*
X0016503Y0284409D02*
X0017537Y0285444D01*
X0017537Y0287512D01*
X0016503Y0288546D01*
X0015468Y0288546D01*
X0015468Y0284409D01*
X0014434Y0284409D02*
X0016503Y0284409D01*
X0014434Y0284409D02*
X0013400Y0285444D01*
X0013400Y0287512D01*
X0013400Y0290855D02*
X0017537Y0290855D01*
X0017537Y0292923D02*
X0017537Y0293958D01*
X0017537Y0292923D02*
X0015468Y0290855D01*
X0013400Y0302672D02*
X0019605Y0302672D01*
X0017537Y0311266D02*
X0013400Y0311266D01*
X0015468Y0311266D02*
X0017537Y0313334D01*
X0017537Y0314368D01*
X0016503Y0316637D02*
X0017537Y0317671D01*
X0017537Y0319740D01*
X0016503Y0320774D01*
X0015468Y0320774D01*
X0015468Y0316637D01*
X0014434Y0316637D02*
X0016503Y0316637D01*
X0014434Y0316637D02*
X0013400Y0317671D01*
X0013400Y0319740D01*
X0017537Y0323082D02*
X0013400Y0325151D01*
X0017537Y0327219D01*
X0017537Y0335973D02*
X0019605Y0338042D01*
X0013400Y0338042D01*
X0013400Y0340110D02*
X0013400Y0335973D01*
X0013400Y0342419D02*
X0013400Y0343453D01*
X0014434Y0343453D01*
X0014434Y0342419D01*
X0013400Y0342419D01*
X0013400Y0345642D02*
X0013400Y0349779D01*
X0013400Y0347710D02*
X0019605Y0347710D01*
X0017537Y0345642D01*
X0017537Y0277964D02*
X0014434Y0277964D01*
X0015468Y0272553D02*
X0014434Y0271518D01*
X0013400Y0226400D02*
X0019605Y0226400D01*
D11*
X0264055Y0308701D03*
X0264055Y0320906D03*
X0345945Y0320906D03*
X0345945Y0308701D03*
D12*
X0305000Y0315000D03*
D13*
X0305000Y0315000D03*
D14*
X0225000Y0293740D03*
X0225000Y0286260D03*
X0215000Y0286260D03*
X0205000Y0286260D03*
X0205000Y0293740D03*
X0215000Y0293740D03*
X0195000Y0293740D03*
X0195000Y0286260D03*
X0210000Y0258740D03*
X0220000Y0258740D03*
X0230000Y0258740D03*
X0230000Y0251260D03*
X0220000Y0251260D03*
X0210000Y0251260D03*
X0240000Y0251260D03*
X0240000Y0258740D03*
X0287044Y0245154D03*
X0287044Y0237674D03*
X0334127Y0236674D03*
X0334127Y0244154D03*
X0240000Y0208740D03*
X0240000Y0201260D03*
X0230000Y0201260D03*
X0220000Y0201260D03*
X0210000Y0201260D03*
X0210000Y0208740D03*
X0220000Y0208740D03*
X0230000Y0208740D03*
X0115000Y0206260D03*
X0105000Y0206260D03*
X0105000Y0213740D03*
X0115000Y0213740D03*
X0115000Y0183740D03*
X0105000Y0183740D03*
X0105000Y0176260D03*
X0115000Y0176260D03*
X0115000Y0118740D03*
X0105000Y0118740D03*
X0105000Y0111260D03*
X0115000Y0111260D03*
X0115000Y0088740D03*
X0105000Y0088740D03*
X0105000Y0081260D03*
X0115000Y0081260D03*
X0115000Y0256260D03*
X0105000Y0256260D03*
X0105000Y0263740D03*
X0115000Y0263740D03*
X0115000Y0286260D03*
X0105000Y0286260D03*
X0105000Y0293740D03*
X0115000Y0293740D03*
D15*
X0171260Y0275000D03*
X0178740Y0275000D03*
X0178740Y0265000D03*
X0171260Y0265000D03*
X0173990Y0252000D03*
X0166510Y0252000D03*
X0166510Y0241000D03*
X0173990Y0241000D03*
X0191260Y0245000D03*
X0198740Y0245000D03*
X0198740Y0235000D03*
X0191260Y0235000D03*
X0191260Y0225000D03*
X0198740Y0225000D03*
X0198740Y0215000D03*
X0191260Y0215000D03*
X0178740Y0195000D03*
X0171260Y0195000D03*
X0171260Y0185000D03*
X0178740Y0185000D03*
X0153990Y0193500D03*
X0146510Y0193500D03*
X0146510Y0233000D03*
X0153990Y0233000D03*
X0146990Y0252000D03*
X0139510Y0252000D03*
X0241260Y0240000D03*
X0248740Y0240000D03*
X0248740Y0230000D03*
X0241260Y0230000D03*
X0241260Y0220000D03*
X0248740Y0220000D03*
X0261260Y0195000D03*
X0268740Y0195000D03*
X0268740Y0185000D03*
X0261260Y0185000D03*
X0316260Y0135000D03*
X0323740Y0135000D03*
X0323740Y0125000D03*
X0316260Y0125000D03*
X0268740Y0265000D03*
X0261260Y0265000D03*
X0261260Y0275000D03*
X0268740Y0275000D03*
D16*
X0080000Y0148500D03*
X0055000Y0069173D03*
D17*
X0045000Y0069173D03*
X0045000Y0079173D03*
X0055000Y0079173D03*
X0055000Y0089173D03*
X0045000Y0089173D03*
X0045000Y0099173D03*
X0055000Y0099173D03*
X0055000Y0109173D03*
X0045000Y0109173D03*
X0045000Y0119173D03*
X0055000Y0119173D03*
X0055000Y0129173D03*
X0045000Y0129173D03*
X0045000Y0139173D03*
X0055000Y0139173D03*
X0055000Y0149173D03*
X0045000Y0149173D03*
X0045000Y0159173D03*
X0055000Y0159173D03*
X0055000Y0169173D03*
X0045000Y0169173D03*
X0045000Y0179173D03*
X0055000Y0179173D03*
X0055000Y0189173D03*
X0045000Y0189173D03*
X0045000Y0199173D03*
X0055000Y0199173D03*
X0055000Y0209173D03*
X0045000Y0209173D03*
X0045000Y0219173D03*
X0055000Y0219173D03*
X0055000Y0229173D03*
X0045000Y0229173D03*
X0045000Y0239173D03*
X0055000Y0239173D03*
X0055000Y0249173D03*
X0045000Y0249173D03*
X0045000Y0259173D03*
X0055000Y0259173D03*
X0055000Y0269173D03*
X0045000Y0269173D03*
X0045000Y0279173D03*
X0055000Y0279173D03*
X0055000Y0289173D03*
X0045000Y0289173D03*
X0045000Y0299173D03*
X0055000Y0299173D03*
X0055000Y0309173D03*
X0045000Y0309173D03*
X0045000Y0319173D03*
X0055000Y0319173D03*
X0055000Y0329173D03*
X0045000Y0329173D03*
X0045000Y0339173D03*
X0055000Y0339173D03*
X0090000Y0148500D03*
X0100000Y0148500D03*
X0110000Y0148500D03*
D18*
X0096000Y0173500D03*
X0096000Y0181000D03*
X0096000Y0189000D03*
X0096000Y0201000D03*
X0096000Y0209000D03*
X0096000Y0216500D03*
X0124000Y0216500D03*
X0124000Y0209000D03*
X0124000Y0201000D03*
X0124000Y0189000D03*
X0124000Y0181000D03*
X0124000Y0173500D03*
X0160000Y0190000D03*
X0165500Y0185000D03*
X0177500Y0190000D03*
X0185000Y0196500D03*
X0184500Y0201000D03*
X0184000Y0206500D03*
X0169500Y0215000D03*
X0184000Y0222000D03*
X0185000Y0229000D03*
X0184000Y0235000D03*
X0171500Y0232500D03*
X0167500Y0228500D03*
X0136000Y0223500D03*
X0165500Y0195000D03*
X0185500Y0182000D03*
X0192500Y0194000D03*
X0198500Y0194000D03*
X0209000Y0196000D03*
X0213000Y0193500D03*
X0216000Y0180000D03*
X0231500Y0194000D03*
X0236500Y0194000D03*
X0243500Y0194000D03*
X0250000Y0194000D03*
X0256000Y0199500D03*
X0256000Y0207000D03*
X0256000Y0212000D03*
X0256000Y0217291D03*
X0230000Y0220000D03*
X0210000Y0220000D03*
X0210000Y0240000D03*
X0230000Y0240000D03*
X0256000Y0240000D03*
X0256000Y0235000D03*
X0256000Y0253500D03*
X0256000Y0258500D03*
X0256500Y0263500D03*
X0251000Y0266500D03*
X0245500Y0266000D03*
X0240500Y0264000D03*
X0235500Y0266000D03*
X0226000Y0266000D03*
X0221500Y0264500D03*
X0217000Y0266000D03*
X0212500Y0264500D03*
X0208000Y0266000D03*
X0204500Y0262000D03*
X0201000Y0265500D03*
X0197500Y0262000D03*
X0193000Y0264500D03*
X0184500Y0267000D03*
X0184000Y0263000D03*
X0184000Y0256000D03*
X0184000Y0247500D03*
X0170000Y0259500D03*
X0172000Y0270000D03*
X0166500Y0270000D03*
X0166000Y0276000D03*
X0177500Y0270000D03*
X0181500Y0270000D03*
X0124000Y0269000D03*
X0124000Y0261000D03*
X0124000Y0253500D03*
X0096000Y0253500D03*
X0096000Y0261000D03*
X0096000Y0269000D03*
X0096000Y0281000D03*
X0096000Y0289000D03*
X0096000Y0296500D03*
X0124000Y0296500D03*
X0124000Y0289000D03*
X0124000Y0281000D03*
X0223500Y0308000D03*
X0243500Y0299000D03*
X0238000Y0293000D03*
X0247500Y0281000D03*
X0257500Y0270000D03*
X0262500Y0270000D03*
X0268000Y0270000D03*
X0272500Y0270000D03*
X0272500Y0280500D03*
X0259500Y0299500D03*
X0282500Y0301000D03*
X0328000Y0300500D03*
X0324500Y0333000D03*
X0285500Y0333000D03*
X0294500Y0258500D03*
X0269500Y0190000D03*
X0274000Y0182500D03*
X0253500Y0181500D03*
X0245500Y0181500D03*
X0330000Y0135000D03*
X0197000Y0060000D03*
X0193500Y0060000D03*
X0190000Y0060000D03*
X0186500Y0060000D03*
X0183000Y0060000D03*
X0133000Y0049500D03*
X0124000Y0078500D03*
X0124000Y0086000D03*
X0124000Y0094000D03*
X0138000Y0089000D03*
X0150000Y0105500D03*
X0124000Y0106000D03*
X0124000Y0114000D03*
X0124000Y0121500D03*
X0096000Y0121500D03*
X0096000Y0114000D03*
X0096000Y0106000D03*
X0096000Y0094000D03*
X0096000Y0086000D03*
X0096000Y0078500D03*
X0316000Y0021000D03*
D19*
X0220000Y0230000D03*
D20*
X0157750Y0223486D03*
X0152750Y0223486D03*
X0147750Y0223486D03*
X0142750Y0223486D03*
X0142750Y0203014D03*
X0147750Y0203014D03*
X0152750Y0203014D03*
X0157750Y0203014D03*
D21*
X0157953Y0155669D03*
X0068500Y0316000D03*
D22*
X0068000Y0339000D03*
X0167953Y0155669D03*
X0177953Y0155669D03*
X0187953Y0155669D03*
X0197953Y0155669D03*
X0207953Y0155669D03*
X0217953Y0155669D03*
X0227953Y0155669D03*
X0237953Y0155669D03*
X0247953Y0155669D03*
X0257953Y0155669D03*
X0267953Y0155669D03*
X0277953Y0155669D03*
X0287953Y0155669D03*
X0297953Y0155669D03*
X0307953Y0155669D03*
X0317953Y0155669D03*
X0327953Y0155669D03*
X0337953Y0155669D03*
X0347953Y0155669D03*
X0347953Y0145669D03*
X0337953Y0145669D03*
X0327953Y0145669D03*
X0317953Y0145669D03*
X0307953Y0145669D03*
X0297953Y0145669D03*
X0287953Y0145669D03*
X0277953Y0145669D03*
X0267953Y0145669D03*
X0257953Y0145669D03*
X0247953Y0145669D03*
X0237953Y0145669D03*
X0227953Y0145669D03*
X0217953Y0145669D03*
X0207953Y0145669D03*
X0197953Y0145669D03*
X0187953Y0145669D03*
X0177953Y0145669D03*
X0167953Y0145669D03*
X0157953Y0145669D03*
D23*
X0108500Y0316000D03*
X0108500Y0326000D03*
X0098500Y0326000D03*
X0088500Y0326000D03*
X0088500Y0316000D03*
X0098500Y0316000D03*
X0078500Y0316000D03*
X0078500Y0326000D03*
X0068500Y0326000D03*
D24*
X0085000Y0345000D03*
X0105000Y0345000D03*
X0125000Y0345000D03*
X0145000Y0345000D03*
D25*
X0138000Y0259500D03*
X0077000Y0217000D03*
D26*
X0067000Y0217000D03*
X0148000Y0259500D03*
D27*
X0118500Y0044000D03*
X0116500Y0049500D03*
X0125000Y0055000D03*
X0124000Y0065500D03*
X0118500Y0065500D03*
X0125000Y0043500D03*
X0169000Y0040500D03*
X0174000Y0040500D03*
X0194500Y0031000D03*
X0208000Y0031000D03*
X0219500Y0040500D03*
X0201500Y0046000D03*
X0196500Y0046000D03*
X0174000Y0028500D03*
X0169000Y0028500D03*
X0247000Y0026500D03*
X0269000Y0026500D03*
X0281500Y0026000D03*
X0296500Y0031500D03*
X0298000Y0036000D03*
X0298000Y0040500D03*
X0283000Y0044500D03*
X0277500Y0044500D03*
X0272000Y0044500D03*
X0270500Y0059500D03*
X0265000Y0059500D03*
X0259500Y0059500D03*
X0236000Y0076500D03*
X0236000Y0081500D03*
X0236000Y0086500D03*
X0253500Y0082500D03*
X0280000Y0082500D03*
X0320000Y0082500D03*
X0346500Y0082500D03*
X0340500Y0059500D03*
X0335000Y0059500D03*
X0329500Y0059500D03*
X0332000Y0112500D03*
X0341000Y0112500D03*
X0310500Y0118500D03*
X0215000Y0110500D03*
X0215000Y0105500D03*
X0195000Y0105500D03*
X0195000Y0110500D03*
X0175000Y0110500D03*
X0175000Y0105500D03*
X0174000Y0084500D03*
X0169000Y0084500D03*
X0164000Y0084500D03*
X0148500Y0186000D03*
X0150000Y0240000D03*
X0144000Y0240000D03*
X0205000Y0305500D03*
X0222000Y0319000D03*
X0222000Y0341000D03*
X0293500Y0244500D03*
X0293500Y0238500D03*
X0326500Y0240500D03*
X0341000Y0240500D03*
D28*
X0256000Y0235000D02*
X0250500Y0230000D01*
X0248740Y0220000D02*
X0248740Y0216260D01*
X0253000Y0212000D01*
X0256000Y0212000D01*
X0240000Y0201260D02*
X0240000Y0197500D01*
X0243500Y0194000D01*
X0230000Y0200000D02*
X0225000Y0195000D01*
X0218000Y0195000D01*
X0216500Y0193500D01*
X0213000Y0193500D01*
X0210000Y0201260D02*
X0199760Y0201260D01*
X0192500Y0194000D01*
X0184000Y0206500D02*
X0191260Y0213760D01*
X0184000Y0222000D02*
X0187000Y0225000D01*
X0191260Y0225000D01*
X0191260Y0235000D02*
X0184000Y0240760D01*
X0184000Y0247500D01*
X0191260Y0246740D02*
X0184000Y0256000D01*
X0193000Y0260000D02*
X0193000Y0264500D01*
X0193000Y0260000D02*
X0195260Y0257740D01*
X0207260Y0257740D01*
X0210000Y0258740D01*
X0217000Y0261500D02*
X0217000Y0266000D01*
X0217000Y0261500D02*
X0220000Y0258740D01*
X0230000Y0259000D02*
X0235500Y0266000D01*
X0240000Y0258740D02*
X0244240Y0258740D01*
X0246000Y0260500D01*
X0246000Y0264500D01*
X0245500Y0266000D01*
X0256000Y0253500D02*
X0248740Y0246240D01*
X0248740Y0240000D01*
X0124000Y0261000D02*
X0119260Y0256260D01*
X0115000Y0256260D01*
X0105000Y0256260D02*
X0100740Y0256260D01*
X0096000Y0261000D01*
X0101260Y0263740D02*
X0096000Y0269000D01*
X0101260Y0263740D02*
X0105000Y0263740D01*
X0115000Y0263740D02*
X0118740Y0263740D01*
X0124000Y0269000D01*
X0124000Y0281000D02*
X0118740Y0286260D01*
X0115000Y0286260D01*
X0105000Y0286260D02*
X0101260Y0286260D01*
X0096000Y0281000D01*
X0096000Y0289000D02*
X0100740Y0293740D01*
X0105000Y0293740D01*
X0115000Y0293740D02*
X0119260Y0293740D01*
X0124000Y0289000D01*
X0119260Y0213740D02*
X0115000Y0213740D01*
X0119260Y0213740D02*
X0124000Y0209000D01*
X0118740Y0206260D02*
X0124000Y0201000D01*
X0118740Y0206260D02*
X0115000Y0206260D01*
X0105000Y0206260D02*
X0101260Y0206260D01*
X0096000Y0201000D01*
X0096000Y0209000D02*
X0100740Y0213740D01*
X0105000Y0213740D01*
X0096000Y0189000D02*
X0101260Y0183740D01*
X0105000Y0183740D01*
X0100740Y0176260D02*
X0096000Y0181000D01*
X0100740Y0176260D02*
X0105000Y0176260D01*
X0115000Y0176260D02*
X0119260Y0176260D01*
X0124000Y0181000D01*
X0118740Y0183740D02*
X0124000Y0189000D01*
X0118740Y0183740D02*
X0115000Y0183740D01*
X0115000Y0118740D02*
X0119260Y0118740D01*
X0124000Y0114000D01*
X0118740Y0111260D02*
X0124000Y0106000D01*
X0118740Y0111260D02*
X0115000Y0111260D01*
X0105000Y0111260D02*
X0101260Y0111260D01*
X0096000Y0106000D01*
X0096000Y0114000D02*
X0100740Y0118740D01*
X0105000Y0118740D01*
X0096000Y0094000D02*
X0101260Y0088740D01*
X0105000Y0088740D01*
X0100740Y0081260D02*
X0096000Y0086000D01*
X0100740Y0081260D02*
X0105000Y0081260D01*
X0115000Y0081260D02*
X0119260Y0081260D01*
X0124000Y0086000D01*
X0118740Y0088740D02*
X0124000Y0094000D01*
X0118740Y0088740D02*
X0115000Y0088740D01*
D29*
X0138000Y0089000D02*
X0150000Y0101000D01*
X0150000Y0105500D01*
X0160000Y0150000D02*
X0111500Y0150000D01*
X0110000Y0148500D01*
X0100000Y0148500D02*
X0100000Y0155000D01*
X0105000Y0160000D01*
X0173622Y0160000D01*
X0177953Y0155669D01*
X0167953Y0155669D02*
X0162283Y0150000D01*
X0160000Y0150000D01*
X0158500Y0180500D02*
X0173500Y0180500D01*
X0173500Y0202500D01*
X0164500Y0202500D01*
X0164500Y0196500D01*
X0158500Y0196500D01*
X0158500Y0180500D01*
X0158500Y0180738D02*
X0173500Y0180738D01*
X0173500Y0181737D02*
X0158500Y0181737D01*
X0158500Y0182735D02*
X0173500Y0182735D01*
X0173500Y0183734D02*
X0158500Y0183734D01*
X0158500Y0184732D02*
X0173500Y0184732D01*
X0173500Y0185731D02*
X0158500Y0185731D01*
X0158500Y0186729D02*
X0173500Y0186729D01*
X0173500Y0187728D02*
X0158500Y0187728D01*
X0158500Y0188726D02*
X0173500Y0188726D01*
X0173500Y0189725D02*
X0158500Y0189725D01*
X0158500Y0190723D02*
X0173500Y0190723D01*
X0173500Y0191722D02*
X0158500Y0191722D01*
X0158500Y0192720D02*
X0173500Y0192720D01*
X0173500Y0193719D02*
X0158500Y0193719D01*
X0158500Y0194717D02*
X0173500Y0194717D01*
X0173500Y0195716D02*
X0158500Y0195716D01*
X0164500Y0196714D02*
X0173500Y0196714D01*
X0173500Y0197713D02*
X0164500Y0197713D01*
X0164500Y0198711D02*
X0173500Y0198711D01*
X0173500Y0199710D02*
X0164500Y0199710D01*
X0164500Y0200708D02*
X0173500Y0200708D01*
X0173500Y0201707D02*
X0164500Y0201707D01*
X0157750Y0203014D02*
X0157750Y0207750D01*
X0165000Y0215000D01*
X0169500Y0215000D01*
X0165500Y0225000D02*
X0180500Y0225000D01*
X0185000Y0229000D01*
X0188260Y0232000D02*
X0180500Y0232000D01*
X0173990Y0238510D01*
X0173990Y0241000D01*
X0180000Y0238500D02*
X0180000Y0245000D01*
X0178500Y0246500D01*
X0168000Y0246500D01*
X0166510Y0247990D01*
X0166510Y0252000D01*
X0165000Y0258000D02*
X0173500Y0258000D01*
X0173500Y0278500D01*
X0165000Y0278500D01*
X0165000Y0258000D01*
X0165000Y0258622D02*
X0173500Y0258622D01*
X0173500Y0259620D02*
X0165000Y0259620D01*
X0165000Y0260619D02*
X0173500Y0260619D01*
X0173500Y0261617D02*
X0165000Y0261617D01*
X0165000Y0262616D02*
X0173500Y0262616D01*
X0173500Y0263614D02*
X0165000Y0263614D01*
X0165000Y0264613D02*
X0173500Y0264613D01*
X0173500Y0265611D02*
X0165000Y0265611D01*
X0165000Y0266610D02*
X0173500Y0266610D01*
X0173500Y0267608D02*
X0165000Y0267608D01*
X0165000Y0268607D02*
X0173500Y0268607D01*
X0173500Y0269605D02*
X0165000Y0269605D01*
X0165000Y0270604D02*
X0173500Y0270604D01*
X0173500Y0271603D02*
X0165000Y0271603D01*
X0165000Y0272601D02*
X0173500Y0272601D01*
X0173500Y0273600D02*
X0165000Y0273600D01*
X0165000Y0274598D02*
X0173500Y0274598D01*
X0173500Y0275597D02*
X0165000Y0275597D01*
X0165000Y0276595D02*
X0173500Y0276595D01*
X0173500Y0277594D02*
X0165000Y0277594D01*
X0176500Y0277594D02*
X0186000Y0277594D01*
X0186000Y0278500D02*
X0186000Y0261500D01*
X0176500Y0261500D01*
X0176500Y0278500D01*
X0186000Y0278500D01*
X0186000Y0276595D02*
X0176500Y0276595D01*
X0176500Y0275597D02*
X0186000Y0275597D01*
X0186000Y0274598D02*
X0176500Y0274598D01*
X0176500Y0273600D02*
X0186000Y0273600D01*
X0186000Y0272601D02*
X0176500Y0272601D01*
X0176500Y0271603D02*
X0186000Y0271603D01*
X0186000Y0270604D02*
X0176500Y0270604D01*
X0176500Y0269605D02*
X0186000Y0269605D01*
X0186000Y0268607D02*
X0176500Y0268607D01*
X0176500Y0267608D02*
X0186000Y0267608D01*
X0186000Y0266610D02*
X0176500Y0266610D01*
X0176500Y0265611D02*
X0186000Y0265611D01*
X0186000Y0264613D02*
X0176500Y0264613D01*
X0176500Y0263614D02*
X0186000Y0263614D01*
X0186000Y0262616D02*
X0176500Y0262616D01*
X0176500Y0261617D02*
X0186000Y0261617D01*
X0197500Y0262000D02*
X0197500Y0270500D01*
X0195000Y0273000D01*
X0195000Y0286260D01*
X0205000Y0286260D02*
X0205000Y0270000D01*
X0204500Y0269500D01*
X0204500Y0264000D01*
X0204500Y0262000D01*
X0212500Y0264500D02*
X0215000Y0269000D01*
X0215000Y0286260D01*
X0225000Y0286260D02*
X0225000Y0272000D01*
X0221500Y0268500D01*
X0221500Y0264500D01*
X0244500Y0254500D02*
X0195500Y0254500D01*
X0195500Y0205500D01*
X0244500Y0205500D01*
X0244500Y0254500D01*
X0244500Y0253629D02*
X0195500Y0253629D01*
X0195500Y0252631D02*
X0244500Y0252631D01*
X0244500Y0251632D02*
X0195500Y0251632D01*
X0195500Y0250634D02*
X0244500Y0250634D01*
X0244500Y0249635D02*
X0195500Y0249635D01*
X0195500Y0248637D02*
X0244500Y0248637D01*
X0244500Y0247638D02*
X0195500Y0247638D01*
X0195500Y0246640D02*
X0244500Y0246640D01*
X0244500Y0245641D02*
X0195500Y0245641D01*
X0195500Y0244643D02*
X0244500Y0244643D01*
X0244500Y0243644D02*
X0195500Y0243644D01*
X0195500Y0242646D02*
X0244500Y0242646D01*
X0244500Y0241647D02*
X0195500Y0241647D01*
X0195500Y0240649D02*
X0244500Y0240649D01*
X0244500Y0239650D02*
X0195500Y0239650D01*
X0195500Y0238652D02*
X0244500Y0238652D01*
X0244500Y0237653D02*
X0195500Y0237653D01*
X0195500Y0236655D02*
X0244500Y0236655D01*
X0244500Y0235656D02*
X0195500Y0235656D01*
X0195500Y0234658D02*
X0244500Y0234658D01*
X0244500Y0233659D02*
X0195500Y0233659D01*
X0195500Y0232661D02*
X0244500Y0232661D01*
X0244500Y0231662D02*
X0195500Y0231662D01*
X0195500Y0230664D02*
X0244500Y0230664D01*
X0244500Y0229665D02*
X0195500Y0229665D01*
X0195500Y0228667D02*
X0244500Y0228667D01*
X0244500Y0227668D02*
X0195500Y0227668D01*
X0195500Y0226670D02*
X0244500Y0226670D01*
X0244500Y0225671D02*
X0195500Y0225671D01*
X0195500Y0224672D02*
X0244500Y0224672D01*
X0244500Y0223674D02*
X0195500Y0223674D01*
X0195500Y0222675D02*
X0244500Y0222675D01*
X0244500Y0221677D02*
X0195500Y0221677D01*
X0195500Y0220678D02*
X0244500Y0220678D01*
X0244500Y0219680D02*
X0195500Y0219680D01*
X0195500Y0218681D02*
X0244500Y0218681D01*
X0244500Y0217683D02*
X0195500Y0217683D01*
X0195500Y0216684D02*
X0244500Y0216684D01*
X0244500Y0215686D02*
X0195500Y0215686D01*
X0195500Y0214687D02*
X0244500Y0214687D01*
X0244500Y0213689D02*
X0195500Y0213689D01*
X0195500Y0212690D02*
X0244500Y0212690D01*
X0244500Y0211692D02*
X0195500Y0211692D01*
X0195500Y0210693D02*
X0244500Y0210693D01*
X0244500Y0209695D02*
X0195500Y0209695D01*
X0195500Y0208696D02*
X0244500Y0208696D01*
X0244500Y0207698D02*
X0195500Y0207698D01*
X0195500Y0206699D02*
X0244500Y0206699D01*
X0244500Y0205701D02*
X0195500Y0205701D01*
X0187000Y0202500D02*
X0187000Y0180500D01*
X0176500Y0180500D01*
X0176500Y0202500D01*
X0187000Y0202500D01*
X0187000Y0201707D02*
X0176500Y0201707D01*
X0176500Y0200708D02*
X0187000Y0200708D01*
X0187000Y0199710D02*
X0176500Y0199710D01*
X0176500Y0198711D02*
X0187000Y0198711D01*
X0187000Y0197713D02*
X0176500Y0197713D01*
X0176500Y0196714D02*
X0187000Y0196714D01*
X0187000Y0195716D02*
X0176500Y0195716D01*
X0176500Y0194717D02*
X0187000Y0194717D01*
X0187000Y0193719D02*
X0176500Y0193719D01*
X0176500Y0192720D02*
X0187000Y0192720D01*
X0187000Y0191722D02*
X0176500Y0191722D01*
X0176500Y0190723D02*
X0187000Y0190723D01*
X0187000Y0189725D02*
X0176500Y0189725D01*
X0176500Y0188726D02*
X0187000Y0188726D01*
X0187000Y0187728D02*
X0176500Y0187728D01*
X0176500Y0186729D02*
X0187000Y0186729D01*
X0187000Y0185731D02*
X0176500Y0185731D01*
X0176500Y0184732D02*
X0187000Y0184732D01*
X0187000Y0183734D02*
X0176500Y0183734D01*
X0176500Y0182735D02*
X0187000Y0182735D01*
X0187000Y0181737D02*
X0176500Y0181737D01*
X0176500Y0180738D02*
X0187000Y0180738D01*
X0231500Y0194000D02*
X0232000Y0193500D01*
X0232000Y0142000D01*
X0236000Y0138000D01*
X0260283Y0138000D01*
X0267953Y0145669D01*
X0257953Y0145669D02*
X0252283Y0140000D01*
X0237000Y0140000D01*
X0234000Y0143000D01*
X0234000Y0159000D01*
X0242500Y0167500D01*
X0242500Y0184000D01*
X0246500Y0188000D01*
X0246500Y0202500D01*
X0251000Y0207000D01*
X0256000Y0207000D01*
X0248500Y0201000D02*
X0263500Y0201000D01*
X0263500Y0180500D01*
X0248500Y0180500D01*
X0248500Y0201000D01*
X0248500Y0200708D02*
X0263500Y0200708D01*
X0263500Y0199710D02*
X0248500Y0199710D01*
X0248500Y0198711D02*
X0263500Y0198711D01*
X0263500Y0197713D02*
X0248500Y0197713D01*
X0248500Y0196714D02*
X0263500Y0196714D01*
X0263500Y0195716D02*
X0248500Y0195716D01*
X0248500Y0194717D02*
X0263500Y0194717D01*
X0263500Y0193719D02*
X0248500Y0193719D01*
X0248500Y0192720D02*
X0263500Y0192720D01*
X0263500Y0191722D02*
X0248500Y0191722D01*
X0248500Y0190723D02*
X0263500Y0190723D01*
X0263500Y0189725D02*
X0248500Y0189725D01*
X0248500Y0188726D02*
X0263500Y0188726D01*
X0263500Y0187728D02*
X0248500Y0187728D01*
X0248500Y0186729D02*
X0263500Y0186729D01*
X0263500Y0185731D02*
X0248500Y0185731D01*
X0248500Y0184732D02*
X0263500Y0184732D01*
X0263500Y0183734D02*
X0248500Y0183734D01*
X0248500Y0182735D02*
X0263500Y0182735D01*
X0263500Y0181737D02*
X0248500Y0181737D01*
X0248500Y0180738D02*
X0263500Y0180738D01*
X0266500Y0180738D02*
X0275500Y0180738D01*
X0275500Y0180000D02*
X0266500Y0180000D01*
X0266500Y0201000D01*
X0275500Y0201000D01*
X0275500Y0180000D01*
X0275500Y0181737D02*
X0266500Y0181737D01*
X0266500Y0182735D02*
X0275500Y0182735D01*
X0275500Y0183734D02*
X0266500Y0183734D01*
X0266500Y0184732D02*
X0275500Y0184732D01*
X0275500Y0185731D02*
X0266500Y0185731D01*
X0266500Y0186729D02*
X0275500Y0186729D01*
X0275500Y0187728D02*
X0266500Y0187728D01*
X0266500Y0188726D02*
X0275500Y0188726D01*
X0275500Y0189725D02*
X0266500Y0189725D01*
X0266500Y0190723D02*
X0275500Y0190723D01*
X0275500Y0191722D02*
X0266500Y0191722D01*
X0266500Y0192720D02*
X0275500Y0192720D01*
X0275500Y0193719D02*
X0266500Y0193719D01*
X0266500Y0194717D02*
X0275500Y0194717D01*
X0275500Y0195716D02*
X0266500Y0195716D01*
X0266500Y0196714D02*
X0275500Y0196714D01*
X0275500Y0197713D02*
X0266500Y0197713D01*
X0266500Y0198711D02*
X0275500Y0198711D01*
X0275500Y0199710D02*
X0266500Y0199710D01*
X0266500Y0200708D02*
X0275500Y0200708D01*
X0191260Y0235000D02*
X0188260Y0232000D01*
X0184000Y0235000D02*
X0180000Y0238500D01*
X0171500Y0232500D02*
X0166510Y0237490D01*
X0166510Y0241000D01*
X0162000Y0239000D02*
X0162000Y0234000D01*
X0167500Y0228500D01*
X0165500Y0225000D02*
X0159000Y0231500D01*
X0159000Y0237000D01*
X0149500Y0246500D01*
X0149500Y0249500D01*
X0147000Y0252000D01*
X0155000Y0246000D02*
X0162000Y0239000D01*
X0142750Y0223486D02*
X0137014Y0223486D01*
X0136000Y0223500D01*
X0247500Y0281000D02*
X0247500Y0283500D01*
X0238000Y0293000D01*
X0243500Y0292500D02*
X0251000Y0285000D01*
X0251000Y0266500D01*
X0255000Y0266610D02*
X0263500Y0266610D01*
X0263500Y0267608D02*
X0255000Y0267608D01*
X0255000Y0268607D02*
X0263500Y0268607D01*
X0263500Y0269605D02*
X0255000Y0269605D01*
X0255000Y0270604D02*
X0263500Y0270604D01*
X0263500Y0271603D02*
X0255000Y0271603D01*
X0255000Y0272601D02*
X0263500Y0272601D01*
X0263500Y0273600D02*
X0255000Y0273600D01*
X0255000Y0274598D02*
X0263500Y0274598D01*
X0263500Y0275597D02*
X0255000Y0275597D01*
X0255000Y0276595D02*
X0263500Y0276595D01*
X0263500Y0277594D02*
X0255000Y0277594D01*
X0255000Y0278000D02*
X0263500Y0278000D01*
X0263500Y0261500D01*
X0255000Y0261500D01*
X0255000Y0278000D01*
X0266500Y0277594D02*
X0274000Y0277594D01*
X0274000Y0278592D02*
X0266500Y0278592D01*
X0266500Y0279591D02*
X0274000Y0279591D01*
X0274000Y0280589D02*
X0266500Y0280589D01*
X0266500Y0281588D02*
X0274000Y0281588D01*
X0274000Y0282000D02*
X0274000Y0261500D01*
X0266500Y0261500D01*
X0266500Y0282000D01*
X0274000Y0282000D01*
X0274000Y0276595D02*
X0266500Y0276595D01*
X0266500Y0275597D02*
X0274000Y0275597D01*
X0274000Y0274598D02*
X0266500Y0274598D01*
X0266500Y0273600D02*
X0274000Y0273600D01*
X0274000Y0272601D02*
X0266500Y0272601D01*
X0266500Y0271603D02*
X0274000Y0271603D01*
X0274000Y0270604D02*
X0266500Y0270604D01*
X0266500Y0269605D02*
X0274000Y0269605D01*
X0274000Y0268607D02*
X0266500Y0268607D01*
X0266500Y0267608D02*
X0274000Y0267608D01*
X0274000Y0266610D02*
X0266500Y0266610D01*
X0266500Y0265611D02*
X0274000Y0265611D01*
X0274000Y0264613D02*
X0266500Y0264613D01*
X0266500Y0263614D02*
X0274000Y0263614D01*
X0274000Y0262616D02*
X0266500Y0262616D01*
X0266500Y0261617D02*
X0274000Y0261617D01*
X0263500Y0261617D02*
X0255000Y0261617D01*
X0255000Y0262616D02*
X0263500Y0262616D01*
X0263500Y0263614D02*
X0255000Y0263614D01*
X0255000Y0264613D02*
X0263500Y0264613D01*
X0263500Y0265611D02*
X0255000Y0265611D01*
X0243500Y0292500D02*
X0243500Y0299000D01*
X0287953Y0145669D02*
X0308622Y0125000D01*
X0316260Y0125000D01*
X0323740Y0135000D02*
X0330000Y0135000D01*
D30*
X0321500Y0128500D02*
X0321500Y0127500D01*
X0323740Y0125260D01*
X0323740Y0125000D01*
X0323500Y0124760D01*
X0323500Y0121000D01*
X0321000Y0118500D01*
X0317240Y0118500D01*
X0310500Y0118500D01*
X0307500Y0118500D01*
X0283000Y0143000D01*
X0283000Y0148500D01*
X0281000Y0150500D01*
X0243000Y0150500D01*
X0237953Y0155547D01*
X0237953Y0155669D01*
X0310500Y0119240D02*
X0310500Y0118500D01*
X0321500Y0128500D02*
X0318500Y0131500D01*
X0318500Y0132760D01*
X0316260Y0135000D01*
X0215000Y0080000D02*
X0165000Y0080000D01*
X0165000Y0040000D01*
X0165419Y0040000D01*
X0165419Y0041212D01*
X0165964Y0042529D01*
X0166971Y0043536D01*
X0168288Y0044081D01*
X0169712Y0044081D01*
X0171029Y0043536D01*
X0171500Y0043064D01*
X0171971Y0043536D01*
X0173288Y0044081D01*
X0174712Y0044081D01*
X0176029Y0043536D01*
X0177036Y0042529D01*
X0177581Y0041212D01*
X0177581Y0040000D01*
X0215000Y0040000D01*
X0215000Y0080000D01*
X0215000Y0078532D02*
X0165000Y0078532D01*
X0165000Y0076933D02*
X0215000Y0076933D01*
X0215000Y0075334D02*
X0165000Y0075334D01*
X0165000Y0073736D02*
X0215000Y0073736D01*
X0215000Y0072137D02*
X0165000Y0072137D01*
X0165000Y0070539D02*
X0215000Y0070539D01*
X0215000Y0068940D02*
X0165000Y0068940D01*
X0165000Y0067342D02*
X0215000Y0067342D01*
X0215000Y0065743D02*
X0165000Y0065743D01*
X0165000Y0064145D02*
X0215000Y0064145D01*
X0215000Y0062546D02*
X0165000Y0062546D01*
X0165000Y0060948D02*
X0215000Y0060948D01*
X0215000Y0059349D02*
X0165000Y0059349D01*
X0165000Y0057751D02*
X0215000Y0057751D01*
X0215000Y0056152D02*
X0165000Y0056152D01*
X0165000Y0054554D02*
X0215000Y0054554D01*
X0215000Y0052955D02*
X0165000Y0052955D01*
X0165000Y0051357D02*
X0215000Y0051357D01*
X0215000Y0049758D02*
X0165000Y0049758D01*
X0165000Y0048160D02*
X0193595Y0048160D01*
X0193464Y0048029D02*
X0192919Y0046712D01*
X0192919Y0045288D01*
X0193464Y0043971D01*
X0194471Y0042964D01*
X0195788Y0042419D01*
X0197212Y0042419D01*
X0198529Y0042964D01*
X0199000Y0043436D01*
X0199471Y0042964D01*
X0200788Y0042419D01*
X0202212Y0042419D01*
X0203529Y0042964D01*
X0204536Y0043971D01*
X0205081Y0045288D01*
X0205081Y0046712D01*
X0204536Y0048029D01*
X0203529Y0049036D01*
X0202212Y0049581D01*
X0200788Y0049581D01*
X0199471Y0049036D01*
X0199000Y0048564D01*
X0198529Y0049036D01*
X0197212Y0049581D01*
X0195788Y0049581D01*
X0194471Y0049036D01*
X0193464Y0048029D01*
X0192919Y0046561D02*
X0165000Y0046561D01*
X0165000Y0044963D02*
X0193053Y0044963D01*
X0194071Y0043364D02*
X0176200Y0043364D01*
X0177352Y0041766D02*
X0215000Y0041766D01*
X0215000Y0043364D02*
X0203929Y0043364D01*
X0204947Y0044963D02*
X0215000Y0044963D01*
X0215000Y0046561D02*
X0205081Y0046561D01*
X0204405Y0048160D02*
X0215000Y0048160D01*
X0199071Y0043364D02*
X0198929Y0043364D01*
X0215000Y0040167D02*
X0177581Y0040167D01*
X0171800Y0043364D02*
X0171200Y0043364D01*
X0166800Y0043364D02*
X0165000Y0043364D01*
X0165000Y0041766D02*
X0165648Y0041766D01*
X0165419Y0040167D02*
X0165000Y0040167D01*
X0148500Y0186000D02*
X0146510Y0187990D01*
X0146510Y0193500D01*
X0147750Y0194740D01*
X0147750Y0203014D01*
X0152750Y0203014D02*
X0152750Y0194740D01*
X0153990Y0193500D01*
X0166000Y0193500D01*
X0166500Y0194000D01*
X0153990Y0193500D02*
X0152750Y0194740D01*
X0191260Y0213760D02*
X0191260Y0215000D01*
X0214000Y0197000D02*
X0218260Y0201260D01*
X0220000Y0201260D01*
X0214000Y0197000D02*
X0209000Y0197000D01*
X0209000Y0196000D01*
X0230000Y0200000D02*
X0230000Y0201260D01*
X0248740Y0230000D02*
X0250500Y0230000D01*
X0287044Y0237674D02*
X0292674Y0237674D01*
X0293500Y0238500D01*
X0293500Y0244500D02*
X0292846Y0245154D01*
X0287044Y0245154D01*
X0326500Y0240500D02*
X0330326Y0236674D01*
X0334127Y0236674D01*
X0341000Y0240500D02*
X0337346Y0244154D01*
X0334127Y0244154D01*
X0291000Y0301000D02*
X0282500Y0301000D01*
X0291000Y0301000D02*
X0305000Y0315000D01*
X0225000Y0298500D02*
X0225000Y0293740D01*
X0225000Y0298500D02*
X0218500Y0305000D01*
X0218500Y0315500D01*
X0222000Y0319000D01*
X0205000Y0305500D02*
X0205000Y0295000D01*
X0205000Y0293740D01*
X0215000Y0293740D01*
X0205000Y0293740D02*
X0195000Y0293740D01*
X0160000Y0305000D02*
X0160000Y0258510D01*
X0166510Y0252000D01*
X0173990Y0252000D02*
X0179500Y0252000D01*
X0184000Y0247500D01*
X0191260Y0246740D02*
X0191260Y0245000D01*
X0166510Y0241000D02*
X0157500Y0250010D01*
X0157500Y0302500D01*
X0150000Y0310000D01*
X0094500Y0310000D01*
X0090000Y0314500D01*
X0088500Y0316000D01*
X0079500Y0315000D02*
X0088000Y0306500D01*
X0148500Y0306500D01*
X0155000Y0300000D01*
X0155000Y0246000D01*
X0147000Y0252000D02*
X0146990Y0252000D01*
X0152500Y0257510D01*
X0152500Y0297500D01*
X0147000Y0303000D01*
X0081500Y0303000D01*
X0071500Y0313000D01*
X0068500Y0316000D01*
X0078500Y0316000D02*
X0079500Y0315000D01*
X0108500Y0316000D02*
X0149000Y0316000D01*
X0160000Y0305000D01*
X0230000Y0259000D02*
X0230000Y0258740D01*
X0153990Y0236010D02*
X0153990Y0233000D01*
X0152750Y0231760D01*
X0152750Y0223486D01*
X0147750Y0223486D02*
X0147750Y0231760D01*
X0146510Y0233000D01*
X0144000Y0235510D01*
X0144000Y0240000D01*
X0150000Y0240000D02*
X0153990Y0236010D01*
X0153990Y0233000D02*
X0152750Y0231760D01*
D31*
X0139510Y0252000D02*
X0138010Y0253500D01*
X0124000Y0253500D01*
X0078500Y0326000D02*
X0087500Y0335000D01*
X0140000Y0335000D01*
X0145000Y0340000D01*
X0145000Y0345000D01*
D32*
X0080000Y0148500D02*
X0080000Y0141500D01*
X0083000Y0138500D01*
X0091500Y0130000D01*
X0230000Y0130000D01*
X0250000Y0110000D01*
X0250000Y0086000D01*
X0253500Y0082500D01*
X0124000Y0065500D02*
X0118500Y0065500D01*
M02*
