%
M48
M72
T01C0.01575
T02C0.02362
T03C0.03150
T04C0.03543
T05C0.03937
T06C0.05200
T07C0.12598
%
T01
X133000Y49500
X124000Y78500
X124000Y86000
X124000Y94000
X138000Y89000
X150000Y105500
X124000Y106000
X124000Y114000
X124000Y121500
X96000Y121500
X96000Y114000
X96000Y106000
X96000Y94000
X96000Y86000
X96000Y78500
X183000Y60000
X186500Y60000
X190000Y60000
X193500Y60000
X197000Y60000
X316000Y21000
X330000Y135000
X274000Y182500
X269500Y190000
X253500Y181500
X245500Y181500
X243500Y194000
X250000Y194000
X256000Y199500
X256000Y207000
X256000Y212000
X256000Y217291
X230000Y220000
X210000Y220000
X184000Y222000
X185000Y229000
X184000Y235000
X171500Y232500
X167500Y228500
X169500Y215000
X184000Y206500
X184500Y201000
X185000Y196500
X192500Y194000
X198500Y194000
X209000Y196000
X213000Y193500
X216000Y180000
X231500Y194000
X236500Y194000
X185500Y182000
X177500Y190000
X165500Y195000
X160000Y190000
X165500Y185000
X124000Y181000
X124000Y173500
X124000Y189000
X124000Y201000
X124000Y209000
X124000Y216500
X136000Y223500
X96000Y216500
X96000Y209000
X96000Y201000
X96000Y189000
X96000Y181000
X96000Y173500
X210000Y240000
X230000Y240000
X256000Y240000
X256000Y235000
X256000Y253500
X256000Y258500
X256500Y263500
X251000Y266500
X245500Y266000
X240500Y264000
X235500Y266000
X226000Y266000
X221500Y264500
X217000Y266000
X212500Y264500
X208000Y266000
X204500Y262000
X201000Y265500
X197500Y262000
X193000Y264500
X184500Y267000
X184000Y263000
X184000Y256000
X184000Y247500
X170000Y259500
X172000Y270000
X166500Y270000
X166000Y276000
X177500Y270000
X181500Y270000
X124000Y269000
X124000Y261000
X124000Y253500
X96000Y253500
X96000Y261000
X96000Y269000
X96000Y281000
X96000Y289000
X96000Y296500
X124000Y296500
X124000Y289000
X124000Y281000
X223500Y308000
X243500Y299000
X238000Y293000
X247500Y281000
X257500Y270000
X262500Y270000
X268000Y270000
X272500Y270000
X272500Y280500
X259500Y299500
X282500Y301000
X328000Y300500
X324500Y333000
X285500Y333000
X294500Y258500
T02
X118500Y44000
X116500Y49500
X125000Y55000
X124000Y65500
X118500Y65500
X125000Y43500
X169000Y40500
X174000Y40500
X194500Y31000
X208000Y31000
X219500Y40500
X201500Y46000
X196500Y46000
X174000Y28500
X169000Y28500
X247000Y26500
X269000Y26500
X281500Y26000
X296500Y31500
X298000Y36000
X298000Y40500
X283000Y44500
X277500Y44500
X272000Y44500
X270500Y59500
X265000Y59500
X259500Y59500
X236000Y76500
X236000Y81500
X236000Y86500
X253500Y82500
X280000Y82500
X320000Y82500
X346500Y82500
X340500Y59500
X335000Y59500
X329500Y59500
X332000Y112500
X341000Y112500
X310500Y118500
X215000Y110500
X215000Y105500
X195000Y105500
X195000Y110500
X175000Y110500
X175000Y105500
X174000Y84500
X169000Y84500
X164000Y84500
X148500Y186000
X150000Y240000
X144000Y240000
X205000Y305500
X222000Y319000
X222000Y341000
X293500Y244500
X293500Y238500
X326500Y240500
X341000Y240500
T03
X337953Y155669
X327953Y155669
X317953Y155669
X307953Y155669
X297953Y155669
X287953Y155669
X277953Y155669
X267953Y155669
X257953Y155669
X247953Y155669
X237953Y155669
X227953Y155669
X217953Y155669
X207953Y155669
X197953Y155669
X187953Y155669
X177953Y155669
X167953Y155669
X157953Y155669
X157953Y145669
X167953Y145669
X177953Y145669
X187953Y145669
X197953Y145669
X207953Y145669
X217953Y145669
X227953Y145669
X237953Y145669
X247953Y145669
X257953Y145669
X267953Y145669
X277953Y145669
X287953Y145669
X297953Y145669
X307953Y145669
X317953Y145669
X327953Y145669
X337953Y145669
X347953Y145669
X347953Y155669
X108500Y316000
X108500Y326000
X98500Y326000
X88500Y326000
X88500Y316000
X98500Y316000
X78500Y316000
X68500Y316000
X68500Y326000
X78500Y326000
X68000Y339000
T04
X138000Y259500
X148000Y259500
X77000Y217000
X67000Y217000
T05
X55000Y219173
X55000Y209173
X45000Y209173
X45000Y219173
X45000Y229173
X55000Y229173
X55000Y239173
X45000Y239173
X45000Y249173
X55000Y249173
X55000Y259173
X45000Y259173
X45000Y269173
X55000Y269173
X55000Y279173
X45000Y279173
X45000Y289173
X55000Y289173
X55000Y299173
X45000Y299173
X45000Y309173
X55000Y309173
X55000Y319173
X45000Y319173
X45000Y329173
X55000Y329173
X55000Y339173
X45000Y339173
X264055Y320906
X264055Y308701
X345945Y308701
X345945Y320906
X55000Y199173
X45000Y199173
X45000Y189173
X55000Y189173
X55000Y179173
X55000Y169173
X45000Y169173
X45000Y179173
X45000Y159173
X55000Y159173
X55000Y149173
X45000Y149173
X45000Y139173
X45000Y129173
X55000Y129173
X55000Y139173
X80000Y148500
X90000Y148500
X100000Y148500
X110000Y148500
X55000Y119173
X45000Y119173
X45000Y109173
X45000Y99173
X55000Y99173
X55000Y109173
X55000Y89173
X45000Y89173
X45000Y79173
X55000Y79173
X55000Y69173
X45000Y69173
T06
X85000Y345000
X105000Y345000
X125000Y345000
X145000Y345000
T07
X220000Y230000
M30
