G75*
%MOIN*%
%OFA0B0*%
%FSLAX25Y25*%
%IPPOS*%
%LPD*%
%AMOC8*
5,1,8,0,0,1.08239X$1,22.5*
%
%ADD10C,0.05099*%
%ADD11C,0.09855*%
%ADD12R,0.06706X0.05918*%
%ADD13R,0.15367X0.07887*%
%ADD14R,0.06337X0.06337*%
%ADD15C,0.06337*%
%ADD16R,0.05918X0.02375*%
%ADD17R,0.03162X0.09461*%
%ADD18R,0.07099X0.01981*%
%ADD19R,0.01981X0.07099*%
%ADD20R,0.24000X0.24000*%
%ADD21R,0.03162X0.05131*%
%ADD22R,0.18910X0.07887*%
%ADD23R,0.05918X0.06706*%
%ADD24R,0.06706X0.02572*%
%ADD25R,0.05550X0.05550*%
%ADD26C,0.05550*%
%ADD27OC8,0.05550*%
%ADD28R,0.03937X0.02362*%
%ADD29R,0.02965X0.05524*%
%ADD30R,0.09461X0.03162*%
%ADD31C,0.01580*%
%ADD32OC8,0.09300*%
%ADD33C,0.01000*%
%ADD34R,0.13150X0.03465*%
%ADD35R,0.22000X0.06457*%
D10*
X0332000Y0112500D03*
X0341000Y0112500D03*
D11*
X0345945Y0308701D03*
X0345945Y0320906D03*
X0264055Y0320906D03*
X0264055Y0308701D03*
D12*
X0222000Y0326260D03*
X0222000Y0333740D03*
X0304500Y0126240D03*
X0304500Y0118760D03*
X0169500Y0099240D03*
X0169500Y0091760D03*
X0201000Y0039240D03*
X0201000Y0031760D03*
X0275000Y0033740D03*
X0275000Y0026260D03*
X0305000Y0026260D03*
X0315000Y0026260D03*
X0325000Y0026260D03*
X0325000Y0033740D03*
X0315000Y0033740D03*
X0305000Y0033740D03*
D13*
X0258500Y0026929D03*
X0258500Y0043071D03*
X0265000Y0066429D03*
X0265000Y0082571D03*
X0225000Y0081929D03*
X0205000Y0081929D03*
X0185000Y0081929D03*
X0185000Y0098071D03*
X0205000Y0098071D03*
X0225000Y0098071D03*
X0185000Y0043071D03*
X0185000Y0026929D03*
X0335000Y0066429D03*
X0335000Y0082571D03*
D14*
X0080000Y0148500D03*
X0055000Y0069173D03*
D15*
X0045000Y0069173D03*
X0045000Y0079173D03*
X0055000Y0079173D03*
X0055000Y0089173D03*
X0045000Y0089173D03*
X0045000Y0099173D03*
X0055000Y0099173D03*
X0055000Y0109173D03*
X0045000Y0109173D03*
X0045000Y0119173D03*
X0055000Y0119173D03*
X0055000Y0129173D03*
X0045000Y0129173D03*
X0045000Y0139173D03*
X0055000Y0139173D03*
X0055000Y0149173D03*
X0045000Y0149173D03*
X0045000Y0159173D03*
X0055000Y0159173D03*
X0055000Y0169173D03*
X0045000Y0169173D03*
X0045000Y0179173D03*
X0055000Y0179173D03*
X0055000Y0189173D03*
X0045000Y0189173D03*
X0045000Y0199173D03*
X0055000Y0199173D03*
X0055000Y0209173D03*
X0045000Y0209173D03*
X0045000Y0219173D03*
X0055000Y0219173D03*
X0055000Y0229173D03*
X0045000Y0229173D03*
X0045000Y0239173D03*
X0055000Y0239173D03*
X0055000Y0249173D03*
X0045000Y0249173D03*
X0045000Y0259173D03*
X0055000Y0259173D03*
X0055000Y0269173D03*
X0045000Y0269173D03*
X0045000Y0279173D03*
X0055000Y0279173D03*
X0055000Y0289173D03*
X0045000Y0289173D03*
X0045000Y0299173D03*
X0055000Y0299173D03*
X0055000Y0309173D03*
X0045000Y0309173D03*
X0045000Y0319173D03*
X0055000Y0319173D03*
X0055000Y0329173D03*
X0045000Y0329173D03*
X0045000Y0339173D03*
X0055000Y0339173D03*
X0090000Y0148500D03*
X0100000Y0148500D03*
X0110000Y0148500D03*
D16*
X0090394Y0166250D03*
X0090394Y0168750D03*
X0090394Y0171250D03*
X0090394Y0173750D03*
X0090394Y0176250D03*
X0090394Y0178750D03*
X0090394Y0181250D03*
X0090394Y0183750D03*
X0090394Y0186250D03*
X0090394Y0188750D03*
X0090394Y0191250D03*
X0090394Y0193750D03*
X0090394Y0196250D03*
X0090394Y0198750D03*
X0090394Y0201250D03*
X0090394Y0203750D03*
X0090394Y0206250D03*
X0090394Y0208750D03*
X0090394Y0211250D03*
X0090394Y0213750D03*
X0090394Y0216250D03*
X0090394Y0218750D03*
X0090394Y0221250D03*
X0090394Y0223750D03*
X0090394Y0246250D03*
X0090394Y0248750D03*
X0090394Y0251250D03*
X0090394Y0253750D03*
X0090394Y0256250D03*
X0090394Y0258750D03*
X0090394Y0261250D03*
X0090394Y0263750D03*
X0090394Y0266250D03*
X0090394Y0268750D03*
X0090394Y0271250D03*
X0090394Y0273750D03*
X0090394Y0276250D03*
X0090394Y0278750D03*
X0090394Y0281250D03*
X0090394Y0283750D03*
X0090394Y0286250D03*
X0090394Y0288750D03*
X0090394Y0291250D03*
X0090394Y0293750D03*
X0090394Y0296250D03*
X0090394Y0298750D03*
X0090394Y0301250D03*
X0090394Y0303750D03*
X0129606Y0303750D03*
X0129606Y0301250D03*
X0129606Y0298750D03*
X0129606Y0296250D03*
X0129606Y0293750D03*
X0129606Y0291250D03*
X0129606Y0288750D03*
X0129606Y0286250D03*
X0129606Y0283750D03*
X0129606Y0281250D03*
X0129606Y0278750D03*
X0129606Y0276250D03*
X0129606Y0273750D03*
X0129606Y0271250D03*
X0129606Y0268750D03*
X0129606Y0266250D03*
X0129606Y0263750D03*
X0129606Y0261250D03*
X0129606Y0258750D03*
X0129606Y0256250D03*
X0129606Y0253750D03*
X0129606Y0251250D03*
X0129606Y0248750D03*
X0129606Y0246250D03*
X0129606Y0223750D03*
X0129606Y0221250D03*
X0129606Y0218750D03*
X0129606Y0216250D03*
X0129606Y0213750D03*
X0129606Y0211250D03*
X0129606Y0208750D03*
X0129606Y0206250D03*
X0129606Y0203750D03*
X0129606Y0201250D03*
X0129606Y0198750D03*
X0129606Y0196250D03*
X0129606Y0193750D03*
X0129606Y0191250D03*
X0129606Y0188750D03*
X0129606Y0186250D03*
X0129606Y0183750D03*
X0129606Y0181250D03*
X0129606Y0178750D03*
X0129606Y0176250D03*
X0129606Y0173750D03*
X0129606Y0171250D03*
X0129606Y0168750D03*
X0129606Y0166250D03*
X0129606Y0128750D03*
X0129606Y0126250D03*
X0129606Y0123750D03*
X0129606Y0121250D03*
X0129606Y0118750D03*
X0129606Y0116250D03*
X0129606Y0113750D03*
X0129606Y0111250D03*
X0129606Y0108750D03*
X0129606Y0106250D03*
X0129606Y0103750D03*
X0129606Y0101250D03*
X0129606Y0098750D03*
X0129606Y0096250D03*
X0129606Y0093750D03*
X0129606Y0091250D03*
X0129606Y0088750D03*
X0129606Y0086250D03*
X0129606Y0083750D03*
X0129606Y0081250D03*
X0129606Y0078750D03*
X0129606Y0076250D03*
X0129606Y0073750D03*
X0129606Y0071250D03*
X0090394Y0071250D03*
X0090394Y0073750D03*
X0090394Y0076250D03*
X0090394Y0078750D03*
X0090394Y0081250D03*
X0090394Y0083750D03*
X0090394Y0086250D03*
X0090394Y0088750D03*
X0090394Y0091250D03*
X0090394Y0093750D03*
X0090394Y0096250D03*
X0090394Y0098750D03*
X0090394Y0101250D03*
X0090394Y0103750D03*
X0090394Y0106250D03*
X0090394Y0108750D03*
X0090394Y0111250D03*
X0090394Y0113750D03*
X0090394Y0116250D03*
X0090394Y0118750D03*
X0090394Y0121250D03*
X0090394Y0123750D03*
X0090394Y0126250D03*
X0090394Y0128750D03*
D17*
X0229500Y0319764D03*
X0234500Y0319764D03*
X0239500Y0319764D03*
X0244500Y0319764D03*
X0244500Y0340236D03*
X0239500Y0340236D03*
X0234500Y0340236D03*
X0229500Y0340236D03*
D18*
X0262717Y0264449D03*
X0262717Y0262480D03*
X0262717Y0260512D03*
X0262717Y0258543D03*
X0262717Y0256575D03*
X0262717Y0254606D03*
X0262717Y0252638D03*
X0262717Y0250669D03*
X0262717Y0248701D03*
X0262717Y0246732D03*
X0262717Y0244764D03*
X0262717Y0242795D03*
X0262717Y0240827D03*
X0262717Y0238858D03*
X0262717Y0236890D03*
X0262717Y0234921D03*
X0262717Y0232953D03*
X0262717Y0230984D03*
X0262717Y0229016D03*
X0262717Y0227047D03*
X0262717Y0225079D03*
X0262717Y0223110D03*
X0262717Y0221142D03*
X0262717Y0219173D03*
X0262717Y0217205D03*
X0262717Y0215236D03*
X0262717Y0213268D03*
X0262717Y0211299D03*
X0262717Y0209331D03*
X0262717Y0207362D03*
X0262717Y0205394D03*
X0262717Y0203425D03*
X0262717Y0201457D03*
X0262717Y0199488D03*
X0262717Y0197520D03*
X0262717Y0195551D03*
X0177283Y0195551D03*
X0177283Y0197520D03*
X0177283Y0199488D03*
X0177283Y0201457D03*
X0177283Y0203425D03*
X0177283Y0205394D03*
X0177283Y0207362D03*
X0177283Y0209331D03*
X0177283Y0211299D03*
X0177283Y0213268D03*
X0177283Y0215236D03*
X0177283Y0217205D03*
X0177283Y0219173D03*
X0177283Y0221142D03*
X0177283Y0223110D03*
X0177283Y0225079D03*
X0177283Y0227047D03*
X0177283Y0229016D03*
X0177283Y0230984D03*
X0177283Y0232953D03*
X0177283Y0234921D03*
X0177283Y0236890D03*
X0177283Y0238858D03*
X0177283Y0240827D03*
X0177283Y0242795D03*
X0177283Y0244764D03*
X0177283Y0246732D03*
X0177283Y0248701D03*
X0177283Y0250669D03*
X0177283Y0252638D03*
X0177283Y0254606D03*
X0177283Y0256575D03*
X0177283Y0258543D03*
X0177283Y0260512D03*
X0177283Y0262480D03*
X0177283Y0264449D03*
D19*
X0185551Y0272717D03*
X0187520Y0272717D03*
X0189488Y0272717D03*
X0191457Y0272717D03*
X0193425Y0272717D03*
X0195394Y0272717D03*
X0197362Y0272717D03*
X0199331Y0272717D03*
X0201299Y0272717D03*
X0203268Y0272717D03*
X0205236Y0272717D03*
X0207205Y0272717D03*
X0209173Y0272717D03*
X0211142Y0272717D03*
X0213110Y0272717D03*
X0215079Y0272717D03*
X0217047Y0272717D03*
X0219016Y0272717D03*
X0220984Y0272717D03*
X0222953Y0272717D03*
X0224921Y0272717D03*
X0226890Y0272717D03*
X0228858Y0272717D03*
X0230827Y0272717D03*
X0232795Y0272717D03*
X0234764Y0272717D03*
X0236732Y0272717D03*
X0238701Y0272717D03*
X0240669Y0272717D03*
X0242638Y0272717D03*
X0244606Y0272717D03*
X0246575Y0272717D03*
X0248543Y0272717D03*
X0250512Y0272717D03*
X0252480Y0272717D03*
X0254449Y0272717D03*
X0254449Y0187283D03*
X0252480Y0187283D03*
X0250512Y0187283D03*
X0248543Y0187283D03*
X0246575Y0187283D03*
X0244606Y0187283D03*
X0242638Y0187283D03*
X0240669Y0187283D03*
X0238701Y0187283D03*
X0236732Y0187283D03*
X0234764Y0187283D03*
X0232795Y0187283D03*
X0230827Y0187283D03*
X0228858Y0187283D03*
X0226890Y0187283D03*
X0224921Y0187283D03*
X0222953Y0187283D03*
X0220984Y0187283D03*
X0219016Y0187283D03*
X0217047Y0187283D03*
X0215079Y0187283D03*
X0213110Y0187283D03*
X0211142Y0187283D03*
X0209173Y0187283D03*
X0207205Y0187283D03*
X0205236Y0187283D03*
X0203268Y0187283D03*
X0201299Y0187283D03*
X0199331Y0187283D03*
X0197362Y0187283D03*
X0195394Y0187283D03*
X0193425Y0187283D03*
X0191457Y0187283D03*
X0189488Y0187283D03*
X0187520Y0187283D03*
X0185551Y0187283D03*
D20*
X0220000Y0230000D03*
D21*
X0286260Y0036299D03*
X0290000Y0036299D03*
X0293740Y0036299D03*
X0293740Y0023701D03*
X0290000Y0023701D03*
X0286260Y0023701D03*
D22*
X0300000Y0047283D03*
X0300000Y0082717D03*
D23*
X0316260Y0112500D03*
X0323740Y0112500D03*
X0218740Y0068500D03*
X0211260Y0068500D03*
X0211260Y0058000D03*
X0218740Y0058000D03*
X0218740Y0047500D03*
X0211260Y0047500D03*
X0075740Y0234000D03*
X0068260Y0234000D03*
X0068260Y0242000D03*
X0075740Y0242000D03*
X0230260Y0308000D03*
X0237740Y0308000D03*
X0247260Y0308000D03*
X0254740Y0308000D03*
D24*
X0286413Y0274535D03*
X0286413Y0271386D03*
X0286413Y0268236D03*
X0286413Y0265087D03*
X0286413Y0261937D03*
X0286413Y0258787D03*
X0286413Y0255638D03*
X0286413Y0252488D03*
X0286413Y0249338D03*
X0286413Y0246189D03*
X0286413Y0243039D03*
X0286413Y0239890D03*
X0286413Y0236740D03*
X0286413Y0233590D03*
X0286413Y0230441D03*
X0286413Y0227291D03*
X0286413Y0224142D03*
X0286413Y0220992D03*
X0286413Y0217842D03*
X0286413Y0214693D03*
X0286413Y0211543D03*
X0286413Y0208394D03*
X0333658Y0208394D03*
X0333658Y0211543D03*
X0333658Y0214693D03*
X0333658Y0217842D03*
X0333658Y0220992D03*
X0333658Y0224142D03*
X0333658Y0227291D03*
X0333658Y0230441D03*
X0333658Y0233590D03*
X0333658Y0236740D03*
X0333658Y0239890D03*
X0333658Y0243039D03*
X0333658Y0246189D03*
X0333658Y0249338D03*
X0333658Y0252488D03*
X0333658Y0255638D03*
X0333658Y0258787D03*
X0333658Y0261937D03*
X0333658Y0265087D03*
X0333658Y0268236D03*
X0333658Y0271386D03*
X0333658Y0274535D03*
D25*
X0157953Y0155669D03*
X0068500Y0316000D03*
D26*
X0068000Y0339000D03*
X0167953Y0155669D03*
X0177953Y0155669D03*
X0187953Y0155669D03*
X0197953Y0155669D03*
X0207953Y0155669D03*
X0217953Y0155669D03*
X0227953Y0155669D03*
X0237953Y0155669D03*
X0247953Y0155669D03*
X0257953Y0155669D03*
X0267953Y0155669D03*
X0277953Y0155669D03*
X0287953Y0155669D03*
X0297953Y0155669D03*
X0307953Y0155669D03*
X0317953Y0155669D03*
X0327953Y0155669D03*
X0337953Y0155669D03*
X0347953Y0155669D03*
X0347953Y0145669D03*
X0337953Y0145669D03*
X0327953Y0145669D03*
X0317953Y0145669D03*
X0307953Y0145669D03*
X0297953Y0145669D03*
X0287953Y0145669D03*
X0277953Y0145669D03*
X0267953Y0145669D03*
X0257953Y0145669D03*
X0247953Y0145669D03*
X0237953Y0145669D03*
X0227953Y0145669D03*
X0217953Y0145669D03*
X0207953Y0145669D03*
X0197953Y0145669D03*
X0187953Y0145669D03*
X0177953Y0145669D03*
X0167953Y0145669D03*
X0157953Y0145669D03*
D27*
X0108500Y0316000D03*
X0108500Y0326000D03*
X0098500Y0326000D03*
X0088500Y0326000D03*
X0088500Y0316000D03*
X0098500Y0316000D03*
X0078500Y0316000D03*
X0078500Y0326000D03*
X0068500Y0326000D03*
D28*
X0066850Y0259724D03*
X0066850Y0256575D03*
X0066850Y0253425D03*
X0066850Y0250276D03*
X0073150Y0250276D03*
X0073150Y0253425D03*
X0073150Y0256575D03*
X0073150Y0259724D03*
X0073150Y0209724D03*
X0073150Y0206575D03*
X0073150Y0203425D03*
X0073150Y0200276D03*
X0073150Y0194724D03*
X0073150Y0191575D03*
X0073150Y0188425D03*
X0073150Y0185276D03*
X0066850Y0185276D03*
X0066850Y0188425D03*
X0066850Y0191575D03*
X0066850Y0194724D03*
X0066850Y0200276D03*
X0066850Y0203425D03*
X0066850Y0206575D03*
X0066850Y0209724D03*
D29*
X0121260Y0060118D03*
X0128740Y0060118D03*
X0128740Y0049882D03*
X0125000Y0049882D03*
X0121260Y0049882D03*
D30*
X0319764Y0121000D03*
X0319764Y0126000D03*
X0319764Y0131000D03*
X0319764Y0136000D03*
X0340236Y0136000D03*
X0340236Y0131000D03*
X0340236Y0126000D03*
X0340236Y0121000D03*
D31*
X0089485Y0061185D02*
X0089485Y0058815D01*
X0089485Y0061185D02*
X0092641Y0061185D01*
X0092641Y0058815D01*
X0089485Y0058815D01*
X0089485Y0060394D02*
X0092641Y0060394D01*
X0093815Y0061578D02*
X0093815Y0058422D01*
X0093815Y0061578D02*
X0096185Y0061578D01*
X0096185Y0058422D01*
X0093815Y0058422D01*
X0093815Y0060001D02*
X0096185Y0060001D01*
X0097359Y0061185D02*
X0097359Y0058815D01*
X0097359Y0061185D02*
X0100515Y0061185D01*
X0100515Y0058815D01*
X0097359Y0058815D01*
X0097359Y0060394D02*
X0100515Y0060394D01*
D32*
X0105000Y0345000D03*
X0085000Y0345000D03*
X0125000Y0345000D03*
X0145000Y0345000D03*
D33*
X0143236Y0074764D02*
X0172764Y0074764D01*
X0172764Y0074783D01*
X0172764Y0063740D01*
X0167972Y0063740D01*
X0167858Y0064059D01*
X0167661Y0064512D01*
X0167417Y0064969D01*
X0167126Y0065480D01*
X0166854Y0065949D01*
X0166504Y0066441D01*
X0166236Y0066783D01*
X0165803Y0067291D01*
X0165161Y0067933D01*
X0164469Y0068512D01*
X0163685Y0069020D01*
X0162917Y0069476D01*
X0162287Y0069772D01*
X0161642Y0070016D01*
X0160961Y0070232D01*
X0160232Y0070417D01*
X0159559Y0070551D01*
X0158996Y0070606D01*
X0158417Y0070657D01*
X0157945Y0070646D01*
X0157335Y0070618D01*
X0156547Y0070551D01*
X0155642Y0070398D01*
X0154803Y0070161D01*
X0154043Y0069882D01*
X0153295Y0069563D01*
X0152587Y0069197D01*
X0151894Y0068748D01*
X0151295Y0068291D01*
X0150701Y0067764D01*
X0150122Y0067169D01*
X0149602Y0066571D01*
X0149087Y0065862D01*
X0148622Y0065047D01*
X0148248Y0064323D01*
X0148004Y0063724D01*
X0148004Y0063740D01*
X0143236Y0063740D01*
X0143236Y0074764D01*
X0143236Y0073897D02*
X0172764Y0073897D01*
X0172764Y0072899D02*
X0143236Y0072899D01*
X0143236Y0071900D02*
X0172764Y0071900D01*
X0172764Y0070902D02*
X0143236Y0070902D01*
X0143236Y0069903D02*
X0154101Y0069903D01*
X0152136Y0068905D02*
X0143236Y0068905D01*
X0143236Y0067906D02*
X0150861Y0067906D01*
X0149895Y0066908D02*
X0143236Y0066908D01*
X0143236Y0065909D02*
X0149121Y0065909D01*
X0148552Y0064911D02*
X0143236Y0064911D01*
X0143236Y0063912D02*
X0148081Y0063912D01*
X0148028Y0056260D02*
X0148142Y0055941D01*
X0148339Y0055488D01*
X0148583Y0055031D01*
X0148874Y0054520D01*
X0149146Y0054051D01*
X0149496Y0053559D01*
X0149764Y0053217D01*
X0150197Y0052709D01*
X0150839Y0052067D01*
X0151531Y0051488D01*
X0152315Y0050980D01*
X0153083Y0050524D01*
X0153713Y0050228D01*
X0154358Y0049984D01*
X0155039Y0049768D01*
X0155768Y0049583D01*
X0156441Y0049449D01*
X0157004Y0049394D01*
X0157583Y0049343D01*
X0158055Y0049354D01*
X0158665Y0049382D01*
X0159453Y0049449D01*
X0160358Y0049602D01*
X0161197Y0049839D01*
X0161957Y0050118D01*
X0162705Y0050437D01*
X0163413Y0050803D01*
X0164106Y0051252D01*
X0164705Y0051709D01*
X0165299Y0052236D01*
X0165878Y0052831D01*
X0166398Y0053429D01*
X0166913Y0054138D01*
X0167378Y0054953D01*
X0167752Y0055677D01*
X0167996Y0056276D01*
X0167996Y0056260D01*
X0172764Y0056260D01*
X0172764Y0045236D01*
X0143236Y0045236D01*
X0143236Y0045217D01*
X0143236Y0056260D01*
X0148028Y0056260D01*
X0148149Y0055924D02*
X0143236Y0055924D01*
X0143236Y0054926D02*
X0148643Y0054926D01*
X0149234Y0053927D02*
X0143236Y0053927D01*
X0143236Y0052929D02*
X0150009Y0052929D01*
X0151002Y0051930D02*
X0143236Y0051930D01*
X0143236Y0050932D02*
X0152397Y0050932D01*
X0154519Y0049933D02*
X0143236Y0049933D01*
X0143236Y0048934D02*
X0172764Y0048934D01*
X0172764Y0047936D02*
X0143236Y0047936D01*
X0143236Y0046937D02*
X0172764Y0046937D01*
X0172764Y0045939D02*
X0143236Y0045939D01*
X0161454Y0049933D02*
X0172764Y0049933D01*
X0172764Y0050932D02*
X0163612Y0050932D01*
X0164954Y0051930D02*
X0172764Y0051930D01*
X0172764Y0052929D02*
X0165963Y0052929D01*
X0166760Y0053927D02*
X0172764Y0053927D01*
X0172764Y0054926D02*
X0167362Y0054926D01*
X0167853Y0055924D02*
X0172764Y0055924D01*
X0172764Y0063912D02*
X0167911Y0063912D01*
X0167448Y0064911D02*
X0172764Y0064911D01*
X0172764Y0065909D02*
X0166877Y0065909D01*
X0166130Y0066908D02*
X0172764Y0066908D01*
X0172764Y0067906D02*
X0165188Y0067906D01*
X0163862Y0068905D02*
X0172764Y0068905D01*
X0172764Y0069903D02*
X0161939Y0069903D01*
D34*
X0190000Y0065945D03*
X0190000Y0054055D03*
D35*
X0190000Y0060000D03*
M02*
