G75*
%MOIN*%
%OFA0B0*%
%FSLAX25Y25*%
%IPPOS*%
%LPD*%
%AMOC8*
5,1,8,0,0,1.08239X$1,22.5*
%
%ADD10R,0.20000X0.06000*%
%ADD11C,0.09855*%
%ADD12C,0.71302*%
%ADD13R,0.06706X0.05918*%
%ADD14R,0.05918X0.06706*%
%ADD15R,0.06337X0.06337*%
%ADD16C,0.06337*%
%ADD17C,0.16610*%
%ADD18R,0.03162X0.09461*%
%ADD19R,0.05550X0.05550*%
%ADD20C,0.05550*%
%ADD21OC8,0.09300*%
%ADD22C,0.02828*%
%ADD23R,0.05943X0.05943*%
%ADD24C,0.05943*%
%ADD25C,0.06337*%
D10*
X0190000Y0060000D03*
D11*
X0264055Y0308701D03*
X0264055Y0320906D03*
X0345945Y0320906D03*
X0345945Y0308701D03*
D12*
X0305000Y0315000D03*
D13*
X0225000Y0293740D03*
X0225000Y0286260D03*
X0215000Y0286260D03*
X0205000Y0286260D03*
X0205000Y0293740D03*
X0215000Y0293740D03*
X0195000Y0293740D03*
X0195000Y0286260D03*
X0210000Y0258740D03*
X0220000Y0258740D03*
X0230000Y0258740D03*
X0230000Y0251260D03*
X0220000Y0251260D03*
X0210000Y0251260D03*
X0240000Y0251260D03*
X0240000Y0258740D03*
X0287044Y0245154D03*
X0287044Y0237674D03*
X0334127Y0236674D03*
X0334127Y0244154D03*
X0240000Y0208740D03*
X0240000Y0201260D03*
X0230000Y0201260D03*
X0220000Y0201260D03*
X0210000Y0201260D03*
X0210000Y0208740D03*
X0220000Y0208740D03*
X0230000Y0208740D03*
X0227000Y0170490D03*
X0217500Y0170490D03*
X0217500Y0163010D03*
X0227000Y0163010D03*
X0115000Y0176260D03*
X0105000Y0176260D03*
X0105000Y0183740D03*
X0115000Y0183740D03*
X0115000Y0206260D03*
X0105000Y0206260D03*
X0105000Y0213740D03*
X0115000Y0213740D03*
X0115000Y0256260D03*
X0105000Y0256260D03*
X0105000Y0263740D03*
X0115000Y0263740D03*
X0115000Y0286260D03*
X0105000Y0286260D03*
X0105000Y0293740D03*
X0115000Y0293740D03*
X0115000Y0118740D03*
X0105000Y0118740D03*
X0105000Y0111260D03*
X0115000Y0111260D03*
X0115000Y0088740D03*
X0105000Y0088740D03*
X0105000Y0081260D03*
X0115000Y0081260D03*
D14*
X0199010Y0163189D03*
X0206490Y0163189D03*
X0178740Y0185000D03*
X0171260Y0185000D03*
X0171260Y0195000D03*
X0178740Y0195000D03*
X0153990Y0193500D03*
X0146510Y0193500D03*
X0191260Y0215000D03*
X0198740Y0215000D03*
X0198740Y0225000D03*
X0191260Y0225000D03*
X0191260Y0235000D03*
X0198740Y0235000D03*
X0198740Y0245000D03*
X0191260Y0245000D03*
X0178740Y0265000D03*
X0171260Y0265000D03*
X0171260Y0275000D03*
X0178740Y0275000D03*
X0241260Y0240000D03*
X0248740Y0240000D03*
X0248740Y0230000D03*
X0241260Y0230000D03*
X0241260Y0220000D03*
X0248740Y0220000D03*
X0261260Y0195000D03*
X0268740Y0195000D03*
X0268740Y0185000D03*
X0261260Y0185000D03*
X0316260Y0135000D03*
X0323740Y0135000D03*
X0323740Y0125000D03*
X0316260Y0125000D03*
X0153990Y0233000D03*
X0146510Y0233000D03*
X0261260Y0265000D03*
X0268740Y0265000D03*
X0268740Y0275000D03*
X0261260Y0275000D03*
D15*
X0080000Y0148500D03*
X0055000Y0069173D03*
D16*
X0045000Y0069173D03*
X0045000Y0079173D03*
X0055000Y0079173D03*
X0055000Y0089173D03*
X0045000Y0089173D03*
X0045000Y0099173D03*
X0055000Y0099173D03*
X0055000Y0109173D03*
X0045000Y0109173D03*
X0045000Y0119173D03*
X0055000Y0119173D03*
X0055000Y0129173D03*
X0045000Y0129173D03*
X0045000Y0139173D03*
X0055000Y0139173D03*
X0055000Y0149173D03*
X0045000Y0149173D03*
X0045000Y0159173D03*
X0055000Y0159173D03*
X0055000Y0169173D03*
X0045000Y0169173D03*
X0045000Y0179173D03*
X0055000Y0179173D03*
X0055000Y0189173D03*
X0045000Y0189173D03*
X0045000Y0199173D03*
X0055000Y0199173D03*
X0055000Y0209173D03*
X0045000Y0209173D03*
X0045000Y0219173D03*
X0055000Y0219173D03*
X0055000Y0229173D03*
X0045000Y0229173D03*
X0045000Y0239173D03*
X0055000Y0239173D03*
X0055000Y0249173D03*
X0045000Y0249173D03*
X0045000Y0259173D03*
X0055000Y0259173D03*
X0055000Y0269173D03*
X0045000Y0269173D03*
X0045000Y0279173D03*
X0055000Y0279173D03*
X0055000Y0289173D03*
X0045000Y0289173D03*
X0045000Y0299173D03*
X0055000Y0299173D03*
X0055000Y0309173D03*
X0045000Y0309173D03*
X0045000Y0319173D03*
X0055000Y0319173D03*
X0055000Y0329173D03*
X0045000Y0329173D03*
X0045000Y0339173D03*
X0055000Y0339173D03*
X0090000Y0148500D03*
X0100000Y0148500D03*
X0110000Y0148500D03*
D17*
X0220000Y0230000D03*
D18*
X0157750Y0223486D03*
X0152750Y0223486D03*
X0147750Y0223486D03*
X0142750Y0223486D03*
X0142750Y0203014D03*
X0147750Y0203014D03*
X0152750Y0203014D03*
X0157750Y0203014D03*
D19*
X0157953Y0155669D03*
D20*
X0167953Y0155669D03*
X0177953Y0155669D03*
X0187953Y0155669D03*
X0197953Y0155669D03*
X0207953Y0155669D03*
X0217953Y0155669D03*
X0227953Y0155669D03*
X0237953Y0155669D03*
X0247953Y0155669D03*
X0257953Y0155669D03*
X0267953Y0155669D03*
X0277953Y0155669D03*
X0287953Y0155669D03*
X0297953Y0155669D03*
X0307953Y0155669D03*
X0317953Y0155669D03*
X0327953Y0155669D03*
X0337953Y0155669D03*
X0347953Y0155669D03*
X0347953Y0145669D03*
X0337953Y0145669D03*
X0327953Y0145669D03*
X0317953Y0145669D03*
X0307953Y0145669D03*
X0297953Y0145669D03*
X0287953Y0145669D03*
X0277953Y0145669D03*
X0267953Y0145669D03*
X0257953Y0145669D03*
X0247953Y0145669D03*
X0237953Y0145669D03*
X0227953Y0145669D03*
X0217953Y0145669D03*
X0207953Y0145669D03*
X0197953Y0145669D03*
X0187953Y0145669D03*
X0177953Y0145669D03*
X0167953Y0145669D03*
X0157953Y0145669D03*
X0067000Y0338500D03*
D21*
X0085000Y0345000D03*
X0105000Y0345000D03*
X0125000Y0345000D03*
X0145000Y0345000D03*
D22*
X0190000Y0060000D03*
D23*
X0075500Y0219000D03*
X0108000Y0314500D03*
X0108000Y0324500D03*
D24*
X0118000Y0324500D03*
X0118000Y0314500D03*
X0065500Y0219000D03*
D25*
X0070000Y0312231D02*
X0070000Y0317769D01*
X0080000Y0317769D02*
X0080000Y0312231D01*
M02*
